<?xml version="1.0" standalone="no"?>
<!DOCTYPE svg PUBLIC "-//W3C//DTD SVG 1.1//EN" "http://www.w3.org/Graphics/SVG/1.1/DTD/svg11.dtd" >
<svg xmlns="http://www.w3.org/2000/svg">
<metadata>
This is a custom SVG webfont generated by Font Squirrel.
Copyright   :  19992001 WolfBainX  Apostrophic Lab All rights reserved wwwapostrophiclabcom or infoapostrophiclabcom for more information
Designer    : WolfBainX  Apostrophe
Foundry URL : wwwapostrophiclabcom
</metadata>
<defs>
<font id="KomikaSlickRegular" horiz-adv-x="1073" >
<font-face units-per-em="2048" ascent="1638" descent="-410" />
<missing-glyph horiz-adv-x="663" />
<glyph horiz-adv-x="514" d="M233 1370q0 -43 30 -74.5t83 -31.5q23 0 45.5 13t41 33.5t29.5 44t11 44.5v8q0 47 -38 72.5t-85 25.5q-57 0 -85.5 -39t-31.5 -84v-12z" />
<glyph horiz-adv-x="845" d="M358 1583q0 -66 43 -111t111 -45q59 0 111.5 20.5t91.5 55.5t62.5 82t27.5 101v4q0 39 -12.5 75.5t-35 65.5t-58 47t-81.5 18q-63 0 -111 -28.5t-80 -72.5t-49.5 -96t-19.5 -102v-14zM528 1610v8q0 16 7.5 36.5t19.5 38t28.5 30t37.5 12.5q14 0 18 -17.5t4 -34.5 q-2 -37 -29.5 -58t-68.5 -21q-9 0 -17 6z" />
<glyph horiz-adv-x="804" d="M336 1542q8 -8 16 -21.5t15 -23.5q23 -29 39 -51.5t26 -36.5l-4 8l-2 8l4 -10q4 -10 8 -16l-2 2l18 -18l23 -23q12 -12 24.5 -20.5t20.5 -8.5h17q2 0 21.5 13.5t45 32t50 39t40.5 32.5q2 6 13 10q27 23 40 41.5t15 59.5v30q-25 49 -64 49q-33 0 -54 -20.5t-44 -44.5 l-31 -31q-14 -14 -24 -18l-76 104l4 -4q-6 10 -20.5 16.5t-30.5 6.5q-4 0 -10 -1t-11 -1h-24q-27 -35 -35 -55.5t-8 -30.5v-17zM549 1520q8 -8 10 -15z" />
<glyph unicode="&#xd;" horiz-adv-x="423" d="M51 143q14 -68 39 -85t76 -17q45 0 76.5 30.5t40.5 80.5q35 248 57 488.5t33 494.5v-2l4 43q0 23 1 57.5t1 58.5l4 43q0 29 -6 60.5t-21.5 57.5t-39 42t-56.5 16q-37 0 -55.5 -17t-46.5 -64q-6 -150 -20.5 -288t-31 -279.5t-31 -282t-20.5 -289.5v-23q-2 -10 -2 -24v-27 v-20q0 -10 -2 -23v-31z" />
<glyph horiz-adv-x="1214" d="M57 166q0 -41 20.5 -64.5t55.5 -46.5l12 -14h56q2 0 5 -1t7 -1h41q70 0 141.5 15.5t143.5 37.5h24l12 10l15 4l-2 -2q33 6 64.5 14.5t64.5 14.5q47 10 95 15.5t95 9.5q14 2 27 2q14 0 29 2h-2q4 0 8 1t8 1q6 2 12 2h33q14 0 22 2q4 0 7.5 1t7.5 1q10 2 20.5 3t16.5 1 q35 0 53 28.5t22 63.5v8q0 41 -33.5 76t-70.5 47h-113q-76 0 -147.5 -12t-149.5 -29h-16l-10 -6h-4q-51 -10 -101.5 -19t-101.5 -14q8 29 28.5 63t46 68.5t55.5 69.5t58 66v2h11q8 16 13 24t5 11l12 12q23 31 61 68.5t85 80.5q61 66 125.5 138.5t118 150.5t90 161t41.5 171 q0 150 -168 149q-18 0 -87 -9t-163 -25.5t-197.5 -40t-191.5 -51t-145.5 -58.5t-57.5 -61v-19q0 -39 18.5 -61.5t81.5 -44.5q-4 0 -7 -1l-3 -1h41q4 0 6 -1t4 -1h25q66 0 128 7t128 21h8q2 0 3 1t5 1q14 0 31 11l-4 -5q2 0 3 1l1 2q10 2 18 3t19 1q35 4 72.5 9t72.5 7 q-6 -14 -18.5 -28.5t-24.5 -30.5q-14 -10 -20 -23l-2 -2l-21 -18l-6 -15l-361 -432l-28 -35l-8 -14q-4 -4 -5 -6l-2 -2l-2 -2h-12l-6 -27q-41 -47 -82 -98t-74.5 -104.5t-56.5 -108.5t-27 -107v-2q0 -4 -1 -8t-1 -8zM428 1784q0 -4 1 -10.5t1 -8.5q8 -10 17.5 -26.5 t17.5 -28.5q49 -68 70 -108l-5 12l-2 8l4 -12q4 -12 11 -19l-2 2q6 -8 18 -22.5t26.5 -27.5t28 -23.5t23.5 -10.5h18q2 0 23.5 16.5t49.5 39t56.5 46t44.5 40.5l13 12q31 27 45 48.5t16 70.5v39q-23 57 -67 57q-37 0 -61.5 -23.5t-49.5 -54.5q-16 -18 -32.5 -35.5 t-28.5 -23.5l-84 127l4 -4q-6 12 -22.5 19t-33.5 7q-6 0 -12 -1t-12 -1h-29q-29 -41 -38 -67.5t-9 -36.5zM625 1214h4h-4zM668 1735q2 -4 4 -7.5t6 -7.5z" />
<glyph horiz-adv-x="1368" d="M61 193q0 -47 20.5 -81t74.5 -71h92q106 0 207.5 24.5t201.5 55.5h-2q51 16 99.5 29.5t97.5 23.5l18 2q18 2 37 6q33 4 74 10.5t81 13.5t72.5 13t47.5 10h2h-4h2h2q0 2 2 2l-2 -2q18 4 42.5 13.5t47 25t38 36t15.5 48.5v6q0 41 -15.5 68t-41 42t-58 21.5t-65.5 6.5 q-88 0 -178 -13.5t-180.5 -35t-177.5 -48t-169 -53.5q16 43 54.5 88t76.5 88q16 16 32 33.5t30 34.5l215 256q25 29 52 56l59 59q45 45 90 92t81.5 98t62.5 105.5t30 111.5v31q0 20 -3 44.5t-13.5 45t-29 34t-49.5 13.5h-202q-2 0 -32 -5t-78 -14.5t-106.5 -21.5 t-117.5 -23.5t-113.5 -22.5t-93.5 -19h2q-35 -6 -79 -22.5t-84 -42.5t-67.5 -60.5t-31.5 -75.5v-10q0 -113 121 -113h4q4 0 14 2q4 0 11.5 1t11.5 1q121 45 251 84t259 39h30h9q6 0 10 -2q-4 -23 -33 -52.5t-55 -54.5q-6 -6 -14.5 -13t-14.5 -13q-20 -23 -59 -69 t-89.5 -103.5t-105.5 -123t-108 -128.5q-70 -82 -128.5 -148.5t-84.5 -97.5q-31 -35 -47.5 -58.5t-25.5 -44t-12 -43t-8 -53.5v2q-2 -10 -2 -20v-18zM477 1776q0 -4 1 -10.5t1 -8.5q8 -10 17.5 -26.5t17.5 -28.5q25 -35 43 -62.5t29 -46.5l-4 13l-2 8l4 -12q4 -12 10 -19 l-2 2q6 -8 18.5 -22.5t26.5 -27.5t27.5 -23.5t23.5 -10.5h19q2 0 24.5 16.5t50 39t56 46t45.5 39.5q2 4 5 6.5t7 6.5q31 27 45 48t16 71v38q-23 57 -69 58q-35 0 -59.5 -23.5t-51.5 -54.5q-16 -18 -32.5 -35.5t-28.5 -23.5l-86 127l4 -5q-4 12 -21.5 19.5t-33.5 7.5 q-6 0 -11.5 -1t-11.5 -1h-29q-29 -41 -39 -67.5t-10 -36.5zM719 1726q2 -2 10 -14z" />
<glyph unicode=" "  horiz-adv-x="663" />
<glyph unicode="&#x09;" horiz-adv-x="663" />
<glyph unicode="&#xa0;" horiz-adv-x="663" />
<glyph unicode="!" horiz-adv-x="751" d="M49 205q0 -20 4 -49t16.5 -54.5t34 -43t54.5 -17.5q39 0 73.5 20.5t59 51t40 68.5t19.5 73q0 29 -5 59.5t-18.5 55t-37 41t-58.5 16.5q-43 0 -74.5 -22.5t-54 -55.5t-36 -70.5t-17.5 -68.5v-4zM131 713q0 -20 4 -45t14.5 -45.5t30 -35t49.5 -14.5q35 0 54.5 9.5 t42.5 52.5q51 117 94 232.5t86 232.5q35 98 71.5 195.5t77.5 197.5q4 10 9.5 18.5t9.5 16.5v-2q16 33 24.5 59.5t12.5 65.5q0 57 -31 83.5t-82 26.5q-55 0 -84 -29.5t-53 -70.5q-12 -23 -29.5 -60.5t-36 -75.5t-32 -70t-15.5 -40l2 12q-8 -23 -23.5 -66.5t-35 -99t-41 -116 t-39.5 -115.5t-33.5 -99t-21.5 -65q-10 -31 -13.5 -54.5t-7.5 -45.5q-2 -10 -3 -18.5t-1 -18.5v-16z" />
<glyph unicode="&#x22;" horiz-adv-x="890" d="M57 1036q0 -37 22.5 -70.5t78.5 -33.5q33 0 65.5 32.5t64 84t61.5 114t57 121.5q23 53 44 98t44 76q0 29 2 29t4 6q0 4 1 6l1 2v6q0 88 -92 88q-45 0 -88 -31.5t-82 -81.5t-71 -112.5t-56.5 -124t-39 -116t-16.5 -87.5v-6zM385 1051q0 -47 30.5 -72t82.5 -25 q63 0 82.5 25t33.5 59q4 10 6.5 17.5t6.5 13.5q6 18 20.5 53t29.5 70t26.5 62.5t15.5 31.5q12 23 25.5 42.5t29.5 39.5q27 35 49.5 70t26.5 82v14q0 43 -21.5 79t-80.5 36q-43 0 -86.5 -36t-82 -91.5t-73.5 -123t-60.5 -132t-41 -118.5t-17.5 -81v-4q0 -4 -1 -7t-1 -5z" />
<glyph unicode="#" horiz-adv-x="1277" d="M55 487q0 -55 32 -75.5t91 -20.5q41 0 82 6q18 4 37.5 7.5t32.5 3.5q16 0 20 -16.5t8 -37.5q4 -23 8.5 -43t15.5 -36.5t30.5 -26.5t52.5 -10q35 0 71.5 24.5t38.5 65.5l9 137v-2q2 6 14 11t27.5 7t32 3t24.5 1q0 -29 4 -71.5t18.5 -82.5t41 -69t73.5 -29q45 0 70.5 23 t40 56.5t18.5 73.5t4 75q0 14 -1 26.5t-1 20.5v4q14 14 44 17t63 5.5t64.5 6.5t56 15t41 33.5t18.5 63.5q0 41 -22.5 66.5t-56.5 39t-74 18.5t-72 5h-37l4 37q2 39 28.5 50.5t57.5 17.5q27 4 51.5 10t44 18.5t32.5 34t15 58.5l2 14q0 14 -1 31.5t-7 31t-19.5 22.5t-37.5 9 h-127l-4 4q2 10 4 27.5t2 40.5q0 27 -5 55.5t-17.5 51t-34 37t-54.5 14.5q-41 0 -64.5 -12.5t-37.5 -34t-22.5 -48t-14.5 -55.5h2q-4 -23 -11 -45.5t-20.5 -40.5t-38 -30.5t-63.5 -12.5h-2q-4 0 -6 -4l12 188v9q0 43 -34 69.5t-74 26.5q-35 0 -60.5 -12.5t-43 -33t-28 -44 t-14.5 -47.5l2 8q-6 -16 -14 -60.5t-17 -85.5q-4 -23 -7 -41t-3 -22l2 6l-6 -12l-6 -2q-29 -10 -61.5 -24.5t-60.5 -34t-47 -46t-24 -63.5v-47q4 -16 22.5 -37t29.5 -21h135v-37q0 -4 -1 -8t-1 -10q-2 -6 -2 -16q-14 -14 -41 -20.5t-56 -10.5q-33 -6 -64.5 -14.5t-56 -22.5 t-40 -38.5t-17.5 -63.5v-9zM596 715l6 116q0 2 11.5 3.5t26.5 2.5t30 1h18h31v-29q-4 -53 -32 -73.5t-87 -20.5h-4z" />
<glyph unicode="$" horiz-adv-x="854" d="M57 569q0 -82 44 -135t100 -102v-2q2 0 2 -2l-13 -195q0 -18 10.5 -34.5t27 -29t35 -20.5t34.5 -8q47 0 75.5 14.5t45 38t26 54t15.5 61.5q8 33 17 60.5t32 39.5q6 4 31.5 13.5t35.5 9.5q47 27 89.5 66.5t74 88t51 99.5t23.5 100v10q0 82 -45 142.5t-106.5 102.5 t-126 67.5t-103.5 40.5h-2q20 27 75.5 36t106.5 9q20 0 42 -2t38 -5q47 29 62.5 45.5t15.5 51.5v6q0 31 -11 53.5t-28.5 37.5t-40 26.5t-45.5 23.5q-23 10 -43 19.5t-27 23.5l3 -2v14q-2 27 -6.5 62t-15.5 66.5t-33.5 54t-61.5 22.5q-12 0 -36 -7t-48.5 -20.5t-43 -33 t-18.5 -41.5l-10 -189l-16 -16q-16 -16 -41 -39q-27 -25 -55.5 -55.5t-53 -65t-43 -74.5t-20.5 -85v-4q0 -45 20.5 -73t54 -45.5t76.5 -25.5t90 -16l78 -13q39 -6 69 -18t48 -31.5t18 -50.5v-8q-2 -49 -29.5 -86t-84.5 -37q-35 0 -56.5 20.5t-40.5 45.5q-27 37 -57.5 66.5 t-89.5 29.5q-35 0 -56.5 -12.5t-33.5 -33t-18.5 -44t-6.5 -43.5v-17z" />
<glyph unicode="%" horiz-adv-x="1466" d="M66 1157q0 -49 18 -95t51 -82t79 -57.5t101 -21.5q70 0 132.5 28.5t115.5 70.5t97.5 91.5t78.5 90.5q25 29 40 48l16 19q20 0 36.5 -1t38.5 -5q-6 -10 -14 -17t-14 -16l-144 -161q-72 -88 -144.5 -187.5t-133 -206t-99 -218t-45.5 -224.5v-80q27 -33 54.5 -57.5 t68.5 -24.5q45 0 80 35t62.5 87t48 114.5t39.5 118.5q10 37 19 65.5t18 38.5q106 215 251.5 402.5t319.5 361.5q10 10 18.5 17t18.5 18q39 37 69.5 75.5t36.5 94.5v6q0 35 -13 58.5t-35.5 36.5t-51.5 19.5t-59 6.5q-53 0 -100.5 -15.5t-94.5 -31.5q-45 -16 -89 -32t-93 -16 q-35 0 -64.5 14.5t-58.5 35.5q-35 23 -73 42t-93 19q-102 0 -190.5 -38t-154 -100.5t-104 -144.5t-40.5 -170v-12zM319 1167v7q2 31 15.5 60.5t36 54t52.5 38.5t64 14q16 0 28.5 -4t12.5 -14q-2 -29 -20.5 -58.5t-45 -54t-59 -40t-65.5 -15.5q-19 0 -19 12zM692 219 q25 -78 96.5 -128t153.5 -50q98 0 184 34t150.5 92t104.5 135t44 165v20q0 61 -19.5 120t-58 104t-94 72.5t-129.5 27.5q-104 0 -183 -47t-132 -119t-83 -159t-32 -169v-10q-2 -10 -2 -37v-51zM946 344q2 33 15.5 73t37 75.5t56 59t73.5 23.5q18 0 30.5 -11t19 -28.5 t9.5 -37t3 -35.5q-4 -72 -57.5 -117t-133.5 -45h-14q-8 0 -18 2l-19 19q0 6 -1 12t-1 10z" />
<glyph unicode="&#x26;" horiz-adv-x="991" d="M57 750q0 -47 15.5 -83t41 -65t58.5 -52.5t70 -45.5q27 -16 59 -39q6 -4 8 -12.5t6 -18.5q4 -31 20.5 -56.5t76.5 -25.5q47 0 78.5 24.5t52 60.5t33 77t20.5 76q4 10 2 11t8 24l12 10q16 0 25 2h-2q39 2 91 8t99.5 21.5t81 44t37.5 77.5v7q0 37 -18.5 59.5t-48 34.5 t-66.5 16t-74 4q-29 0 -51 -1t-39 -3v21q0 25 -1 56.5t-3 57.5q-2 14 -2 23v16q0 20 -3 47t-14.5 51.5t-33 42t-55.5 17.5q-16 0 -36 -5t-38 -16.5t-32.5 -29t-16.5 -39.5l-10 -270q0 -4 -11 -5h-254q-53 0 -69.5 -23.5t-16.5 -62.5v-36zM350 657l10 23l9 2h4l-6 -45l-5 2 q-12 8 -12 18zM352 674v2q2 0 2 2h2zM354 678q0 2 2 2zM362 637h5v-2h-2q-1 2 -3 2zM367 635h2h-2zM375 682l1 -1q1 -1 3 -1v-2l2 -2z" />
<glyph unicode="'" horiz-adv-x="358" d="M59 1036q0 -47 17.5 -65.5t70.5 -18.5q61 0 94 38t48.5 94.5t19.5 120t4 112.5q0 14 1 24.5t1 20.5q0 6 1 13t1 18v67q0 41 -4 85t-16 80t-34.5 59.5t-59.5 23.5q-47 0 -81 -39t-40 -86q0 -25 1 -50.5t3 -45.5q2 -16 3 -31.5t1 -32.5v-20q0 -10 -2 -23q-4 -35 -6 -66.5 t-6 -66.5l-8 -86q-4 -43 -7 -90q-2 -6 -2 -16v-19z" />
<glyph unicode="(" horiz-adv-x="645" d="M57 692q0 -86 10.5 -198.5t39 -213t79 -170t129.5 -69.5q68 0 90.5 40t22.5 95v43q-2 6 -11 37t-18.5 67.5t-17.5 68.5t-8 40q-23 80 -31 157t-8 154q0 27 1 52.5t1 54.5q6 129 41 251t88 240q10 23 23.5 44.5t29.5 44.5q31 45 55.5 92t30.5 98v16q0 49 -27.5 80 t-80.5 31q-66 0 -122.5 -59.5t-105.5 -151.5t-87 -203.5t-65.5 -217t-42 -190.5t-14.5 -124q-2 -16 -2 -45v-64z" />
<glyph unicode=")" horiz-adv-x="632" d="M51 150q0 -23 11.5 -43.5t30 -35t41 -22.5t42.5 -8q68 0 124 50t102.5 129t80 175.5t57 188.5t37 171t15.5 119q0 29 -2 108t-10.5 179.5t-25.5 209t-48 199.5t-78 149.5t-115 58.5q-27 0 -46 -11.5t-32.5 -29t-20.5 -38t-9 -40.5v-41q59 -186 101 -362.5t42 -368.5 q0 -14 -1 -28.5t-1 -29.5v2q-4 -115 -32.5 -212t-94.5 -197q-27 -41 -63 -78q-37 -41 -68 -86t-37 -104v-4z" />
<glyph unicode="*" horiz-adv-x="743" d="M55 1227q0 -14 6.5 -27.5t16.5 -36.5q41 -47 100 -47q23 0 49 10q6 -82 84 -104q70 4 117 34.5t64 84.5q37 -14 69 -15q76 0 107 64l-2 -2q16 27 16 57v8q0 39 -21.5 71t-60.5 48q49 23 73.5 51.5t28.5 63.5q0 10 -2 16t-4 17l2 -11q0 4 -1 7.5t-1 5.5v12 q-10 27 -49 48.5t-76 21.5q-33 0 -51 -9q-2 39 -34.5 59.5t-79.5 20.5q-94 0 -136 -71l2 4q-18 -25 -26 -54q-29 14 -51 15q-10 0 -19.5 -2t-17.5 -4q-82 -23 -84 -107q0 -27 9 -51.5t44 -48.5q16 -6 18 -8q-4 -4 -12 -9q-39 -25 -56.5 -54t-21.5 -58z" />
<glyph unicode="+" horiz-adv-x="1155" d="M49 805q0 -41 32 -66.5t77 -25.5h231v-13q-2 -29 -8 -61.5t-12 -67.5l2 2q-8 -29 -13.5 -56.5l-9.5 -47.5l-2 -35q0 -49 18.5 -84t77.5 -35q51 0 82 22.5t49.5 59.5t27.5 83t15 93q6 43 14.5 79t22.5 53h-2q8 8 59.5 11t112.5 7q51 2 101.5 4t90.5 11.5t65.5 25.5 t27.5 47l6 94q0 6 -13.5 25.5t-29.5 23.5q-4 0 -14 2t-21.5 4.5t-21.5 3.5t-13 1h-292q4 29 13 57.5t19 58.5v-2q14 41 23.5 80t9.5 84v45q-43 63 -100 64q-47 0 -78 -22.5t-50.5 -54.5t-29.5 -66.5t-16 -59.5q-6 -12 -13.5 -39t-15.5 -56.5t-13 -56t-7 -36.5 q-12 -16 -41 -20.5t-64 -4.5h-53q-16 0 -28.5 1t-24.5 1q-37 0 -71 -5t-59.5 -18.5t-42 -39t-18.5 -66.5v-4z" />
<glyph unicode="," horiz-adv-x="473" d="M49 -147v-3q0 -47 28.5 -60t63.5 -13q53 0 104.5 49t91.5 116.5t65.5 138.5t27.5 112v-3l2 15v69q-10 33 -31.5 56.5t-62.5 23.5t-65.5 -15t-39 -40t-20.5 -55.5t-10 -59.5q-2 -10 -4 -24.5t-6 -26.5q-12 -27 -30 -61.5t-36 -69.5t-37.5 -68.5t-34.5 -56.5q-4 -16 -5 -18 t-1 -6z" />
<glyph unicode="-" horiz-adv-x="862" d="M70 545q0 -39 40 -59.5t85 -32.5h90q63 0 117.5 1t108.5 5t114.5 9t134.5 15q37 16 47 36t14 42q0 41 -42 63.5t-93 22.5h-463q-57 0 -104 -23.5t-49 -68.5v-10z" />
<glyph unicode="." horiz-adv-x="339" d="M61 147q0 -45 30 -76.5t81 -31.5q25 0 47.5 13.5t39.5 33.5t28.5 44t11.5 46v6q0 47 -38 73t-85 26q-57 0 -86 -38t-29 -83v-13z" />
<glyph unicode="/" horiz-adv-x="1083" d="M49 145q0 -41 18.5 -72.5t71.5 -31.5q43 0 73 14.5t51.5 38t35.5 51t27 54.5q6 20 14 32q25 43 59.5 107.5t74.5 137.5t81 146.5t77 136t60.5 107.5t34.5 62q8 6 34.5 44t58.5 87t65 99t53 81l-2 -2l16 23q35 43 58.5 87t31.5 101v12q0 53 -24.5 79t-87.5 26 q-31 0 -84 -52.5t-121 -139.5t-143.5 -199.5t-150.5 -234.5t-142.5 -245t-120.5 -229.5t-85 -187t-34 -119.5v-13z" />
<glyph unicode="0" horiz-adv-x="1392" d="M68 539q0 -102 31.5 -192.5t94 -158t154.5 -107.5t213 -40q166 0 307.5 83t246 210t166.5 276.5t71 284.5v20q0 88 -27 192.5t-82 195t-141 149.5t-205 59q-129 0 -238.5 -42t-200.5 -112.5t-161 -164.5t-119 -198.5t-76.5 -214t-33.5 -210.5v-30zM385 580v26 q4 55 18.5 123t40 138.5t63.5 136t88 118t113.5 83t139.5 30.5q66 0 113 -30.5t77.5 -79t46 -104.5t15.5 -108v-16q-4 -76 -42 -176t-99.5 -191.5t-141.5 -154t-172 -62.5q-66 0 -114 21.5t-80.5 58.5t-49 85.5t-16.5 101.5z" />
<glyph unicode="1" horiz-adv-x="577" d="M47 1001q0 -55 24.5 -73.5t78.5 -18.5q27 0 43 9.5t32 21.5l11 5q6 3 10 7l-2 -55q-2 -59 -7.5 -119.5t-9.5 -120.5q-6 -86 -12 -171t-8 -169l-6 -63q0 -33 2 -71t13 -69.5t31.5 -52t57.5 -20.5q59 0 96 41t54 98q4 147 15 295t26 297q10 113 20 226.5t14 224.5l2 26v92 l5 35q-6 27 -23.5 51.5t-40 43t-47.5 29.5t-47 11q-12 0 -42 -31.5t-67 -80.5t-76.5 -109.5t-71.5 -116t-53.5 -100.5t-21.5 -65v-7z" />
<glyph unicode="2" horiz-adv-x="1083" d="M66 139q0 -31 18 -49t43 -29.5t52.5 -15.5t45.5 -4q47 0 96.5 11t100.5 24q37 10 75 18t83 12q20 2 66 3.5t104 1.5q57 0 104 -1t70 -4q92 31 96 109v12q0 45 -22.5 76t-56.5 48.5t-74 24.5t-76 7q-57 0 -108.5 -5t-102.5 -13h2q-29 -4 -57.5 -7.5t-55.5 -5.5 q100 82 200.5 174t180.5 195.5t133 220.5t59 252v8q0 117 -51 200t-182 105h-33q-8 0 -15 1t-16 1q-10 2 -22 2h-25h-28q-25 0 -73 -5t-106.5 -16t-120 -28.5t-112.5 -42t-85 -56.5t-36 -71v-12q0 -156 158 -156q53 0 97 21.5t85 44.5q35 20 73 37.5t85 17.5q51 0 90 -16.5 t39 -61.5v-4q-4 -53 -23.5 -105t-51.5 -101.5t-71.5 -93.5t-80.5 -83q-23 -23 -76 -70.5t-117 -105.5q-37 -35 -76 -69.5t-71.5 -63.5t-54 -49.5t-25.5 -24.5l-41 -71l-10 -181v-6z" />
<glyph unicode="3" horiz-adv-x="1226" d="M66 213q0 -39 19 -68.5t48 -51t64.5 -34t68.5 -18.5h152q115 0 237.5 28.5t226 87t173 149.5t78.5 218v17q0 70 -24 127t-62.5 104t-88 89t-100.5 81q-2 0 -4 2q12 8 32.5 25.5t49.5 40.5q39 33 82 70.5t80 77.5t61.5 79t26.5 76v10q0 76 -49.5 122t-121 71.5t-151.5 35 t-139 9.5q-35 0 -90 -5.5t-119.5 -17.5t-131.5 -30.5t-121 -46t-90 -64.5t-38 -84q0 -25 14.5 -47.5t38 -40t50 -28.5t51.5 -11q4 0 7 1t5 1h10q100 47 188.5 74.5t194.5 27.5h17q8 0 15 -1t15 -1h41q12 -4 23.5 -11t11.5 -13q-2 -29 -26.5 -59.5t-64.5 -62.5t-90 -63.5 t-101 -62.5q-49 -31 -96.5 -60.5t-84.5 -59.5t-59.5 -60.5t-24.5 -63.5v-10q0 -113 123 -113q33 0 63.5 7.5t65.5 15.5q29 8 54.5 14t56.5 6q33 0 69.5 -11t66.5 -29.5t49.5 -45t19.5 -57.5v-6q-4 -63 -47 -103.5t-104.5 -64t-131.5 -31.5t-127 -8q-29 0 -57.5 2t-57 6 t-56.5 6t-62 2h-66q-47 -29 -54 -58.5t-9 -57.5v-23z" />
<glyph unicode="4" horiz-adv-x="1251" d="M49 715q0 -57 26.5 -86t92.5 -33q35 0 55.5 10t40.5 25q25 14 39 16q86 23 174 27t174 4h121l-22 -492q0 -8 -1 -14t-1 -12q0 -59 25.5 -90t96.5 -31h19q31 0 57.5 10t48.5 64q4 86 11.5 154.5t16.5 133t20.5 131t27.5 148.5q4 25 15.5 47.5t25.5 40.5q23 31 39 59.5 t16 69.5v4q0 18 -4 32.5t-8 31.5q-4 10 -8 21t-4 20q4 37 12 83t19 93q10 45 19 90t13 100l4 37q0 41 -10 84t-51 63q-10 4 -34.5 7.5t-33.5 3.5h-30q-29 0 -58.5 -12.5t-46.5 -59.5q-4 -20 -10 -53t-14.5 -71t-18.5 -81t-20 -84q-16 -68 -29.5 -124t-17.5 -78l2 2 q-10 -37 -34 -51.5t-69 -14.5h-336q4 53 32 103.5t63 103.5q39 59 70.5 118.5t35.5 127.5v6q0 117 -125 117q-53 0 -106.5 -48.5t-100.5 -123t-87 -168t-68 -185.5q-29 -96 -46.5 -162.5t-17.5 -113.5z" />
<glyph unicode="5" horiz-adv-x="1339" d="M76 354q0 -98 50 -159.5t128 -95t170 -46t178 -12.5q127 0 241.5 42t202 115.5t140.5 175t57 220.5v24q0 70 -18.5 144t-59.5 134t-105.5 99t-156.5 39h-454q0 8 4 38t8 58q4 23 7 43.5t5 34.5q14 23 44 38.5t67 24.5t73.5 13t63.5 4q49 0 99 -5t104 -11q53 -4 105 -10.5 t110 -6.5q29 0 55.5 4.5t48 15.5t36.5 32.5t19 56.5v10q0 66 -47 101.5t-113.5 52t-136 19.5t-114.5 3h-6q-158 0 -302.5 -32.5t-302.5 -77.5l-18 -19q-14 -10 -25.5 -24.5t-19.5 -38.5q-4 -51 -10 -102.5t-15 -102.5q-10 -84 -19 -164t-13 -166q-2 -10 -2 -20v-21 q0 -31 11 -53t46 -43q10 -10 22.5 -11t28.5 -1h29q55 0 109.5 13t109.5 30q51 16 105.5 28.5t107.5 12.5h53q10 0 18.5 -1t18.5 -1h14q66 -29 101 -68t35 -100v-19q-4 -59 -35 -107t-78 -81t-107.5 -50.5t-124.5 -17.5q-70 0 -127 6.5t-110 42.5q-10 8 -23.5 24.5 t-25.5 33.5q-29 37 -58.5 66.5t-76.5 29.5q-68 0 -94.5 -44t-26.5 -95v-23z" />
<glyph unicode="6" horiz-adv-x="1228" d="M66 604q0 -100 20 -200.5t70.5 -181.5t135.5 -131t214 -50t251 50t215 133t151.5 191.5t62.5 225.5q0 6 1 13.5t1 15.5q0 51 -14.5 100t-43 91t-73.5 73t-107 47h-26q-18 0 -29 2q-10 0 -19.5 1t-19.5 1h-22q-72 0 -130.5 -10t-112.5 -29.5t-105.5 -46.5t-106.5 -57 q16 94 68.5 171t127 140.5t165.5 113.5t190 91q45 31 56 58.5t15 68.5v31q0 29 -13 50t-60 38q-4 0 -16.5 1t-20.5 1h-27q-41 0 -73.5 -6.5t-62.5 -18.5t-57.5 -28.5t-60.5 -36.5q-10 -6 -18 -10.5t-19 -10.5q-233 -152 -363 -369t-142 -473v-2q0 -10 -1 -23.5t-1 -23.5z M352 451v4q2 53 49.5 97t114 74.5t137 48t123.5 17.5q41 0 72 -10t31 -41v-10q-4 -57 -35 -110.5t-79 -95.5t-108.5 -67.5t-121.5 -25.5q-33 0 -66 7t-58.5 21.5t-42 37t-16.5 53.5z" />
<glyph unicode="7" horiz-adv-x="1157" d="M66 1231q0 -55 28.5 -81t106.5 -26q57 0 82.5 23.5t44.5 52.5l-2 -2q10 12 18 22.5t21 14.5q82 29 169 37t175 8h88q-113 -115 -206 -233.5t-172 -244.5t-145.5 -259t-123.5 -277v2q-8 -16 -12.5 -28.5t-7.5 -22.5t-4 -20.5t-1 -24.5v-4q0 -57 38 -92t99 -35 q49 0 85 30.5t61.5 79t45 103.5t33.5 104q8 29 15.5 52.5t15.5 35.5q102 203 253 380.5t312 342.5q10 20 17.5 39t9.5 31l2 61v-2l2 17v24q0 12 2 21v24q-4 25 -21.5 48.5t-41 44t-52 37t-55.5 24.5h-102q-72 0 -139.5 -7t-133.5 -15q-66 -10 -130 -16.5t-126 -6.5h-49 q-23 0 -47 4q-43 -12 -70.5 -33.5t-45 -50.5t-25.5 -59.5t-10 -61.5v2q-2 -18 -2 -32v-31z" />
<glyph unicode="8" horiz-adv-x="1333" d="M68 360q0 -78 31.5 -138t87 -100t128 -60.5t154.5 -20.5q70 0 157 18.5t177 52t176 81t153.5 105.5t110.5 127t49 142v17q0 55 -20.5 106t-53 95t-74.5 83t-85 70q4 18 22.5 46t40.5 63q39 59 78 131.5t43 158.5v15q0 43 -17.5 95t-49 96t-75.5 74t-100 30h-247 q-53 0 -117 -28t-129.5 -73t-127 -103.5t-109.5 -118.5t-78.5 -117.5t-32.5 -102.5v-8q0 -51 24.5 -88t55.5 -72q23 -25 40 -51.5t17 -55.5v-4q0 -10 -18.5 -37.5t-47.5 -64.5q-53 -70 -106 -157t-57 -185v-21zM348 330v32q2 74 39 142.5t96.5 123t136 87.5t158.5 33 q39 0 72 -14.5t54.5 -39t33.5 -55.5t12 -64v-14q-2 -57 -39 -106t-94 -86t-123.5 -57.5t-128.5 -20.5q-16 0 -48 1t-65.5 5t-62.5 12.5t-41 20.5zM469 1092q2 49 37 102t86 97t110.5 74t112.5 30q63 0 90 -14.5t27 -59.5v-21q-4 -82 -34 -140t-82 -95t-122.5 -53.5 t-154.5 -16.5q-35 0 -52.5 34t-17.5 63z" />
<glyph unicode="9" horiz-adv-x="1210" d="M57 975q0 -74 16.5 -142.5t54.5 -121t101.5 -83t155.5 -30.5q33 0 60.5 4t56.5 8q23 4 46 6t44 5l-23 -500v-2q0 -29 10.5 -44.5t24.5 -22.5t31.5 -9t32.5 -2q43 0 70.5 16.5t45 42t25.5 58t14 63.5v-2l39 209q51 242 134 475.5t173 456.5v39q0 68 -34.5 112.5t-87 72.5 t-116 40t-118.5 12q-135 0 -266 -48t-236.5 -131t-174 -195.5t-77.5 -243.5q0 -10 -1 -21.5t-1 -21.5zM328 1004v12q2 72 47 140.5t113.5 121.5t150.5 85t160 32q18 0 34.5 -2t30.5 -9v-8q-2 -29 -19.5 -61.5t-33.5 -65.5l2 2q-14 -27 -25.5 -51t-19.5 -47l2 4 q-4 -10 -9 -19.5t-9 -19.5q-23 -53 -45.5 -102t-56.5 -87t-82 -60.5t-119 -22.5q-31 0 -53.5 14t-38 38t-22.5 51.5t-7 54.5z" />
<glyph unicode=":" horiz-adv-x="423" d="M57 186q0 -43 17.5 -68.5t70.5 -25.5q33 0 69 13.5t66.5 38t51 57t24.5 69.5q0 27 -15 52.5t-37.5 45t-50.5 32t-52 12.5q-39 0 -65.5 -17.5t-43 -45t-24 -60.5t-7.5 -64q-2 -8 -3 -17.5t-1 -21.5zM88 844q0 -49 23.5 -91t81.5 -42q31 0 56 11t49 29.5t43 41t38 43.5v22 q2 10 3 18.5t1 12.5v4q0 57 -32 102t-97 45q-35 0 -64.5 -17t-52 -44t-36 -59.5t-13.5 -63.5v-12z" />
<glyph unicode=";" horiz-adv-x="546" d="M49 -76v-4q0 -53 27.5 -68.5t66.5 -15.5q74 0 130.5 37t94.5 92t58 122t23 126v61l2 21q-14 51 -31 65.5t-60 14.5q-41 0 -67.5 -15.5t-43 -40t-27.5 -56.5t-19 -64q-8 -25 -14.5 -46.5t-16.5 -33.5q-8 -16 -20.5 -28.5t-24.5 -27.5q-29 -29 -53.5 -62.5t-24.5 -76.5z M219 813q0 -51 21.5 -82t83.5 -31q33 0 65.5 12.5t59 35t42 53t15.5 67.5v9q0 63 -37 108t-109 45q-41 0 -66.5 -17.5t-41.5 -44t-23.5 -58t-7.5 -58.5q-2 -8 -2 -18v-21z" />
<glyph unicode="&#x3c;" horiz-adv-x="882" d="M55 766q0 -47 17.5 -88t46 -79t64.5 -72.5t73 -67.5q29 -27 54.5 -51.5t45.5 -47.5l-2 2q49 -66 85 -142.5t65 -145.5l6 -13q12 -12 24.5 -16t24.5 -4h25q61 0 89.5 31.5t31.5 83.5v20q0 76 -27 151.5t-69 146.5t-91 136.5t-94 122.5q-29 33 -53 66v6q2 29 22.5 64.5 t53 76.5t72.5 85t83 87q43 45 85 90t76 88t54.5 82t24.5 74v25q0 23 -11.5 42t-48.5 31h-55q-35 0 -78 -9t-71 -48l2 2l-482 -596v2q-25 -29 -34 -47t-9 -49v-39z" />
<glyph unicode="=" horiz-adv-x="825" d="M59 844q0 -53 40 -79t89 -26q43 0 71 4.5t69 14.5q33 8 100 20h-4l61 6q43 2 94.5 8.5t95.5 21.5t75.5 43t33.5 75v10q0 33 -8 52.5t-57 39.5h-55q-8 0 -15.5 1t-13.5 1h-21q-33 0 -86 -3t-114.5 -11t-123 -22.5t-112.5 -35t-84 -49t-35 -65.5v-6zM70 502 q0 -59 31.5 -69.5t91.5 -10.5h83q63 0 147.5 7t160 27.5t128 57.5t56.5 96q0 66 -25.5 86.5t-91.5 20.5q-33 0 -89 -6t-120.5 -17.5t-130 -28t-119 -39t-87 -49t-33.5 -59.5q0 -4 -1 -8t-1 -8z" />
<glyph unicode="&#x3e;" horiz-adv-x="942" d="M63 158q0 -59 35 -88t95 -29h20q29 0 50.5 9t39.5 56q76 213 223.5 390.5t333.5 328.5q29 29 34 57.5t7 65.5v17q0 43 -15.5 79.5t-38 68.5t-52 60.5t-56.5 55.5l2 -2q-6 6 -12 11t-10 11l-373 371l-65 27h-15q-49 0 -85 -29t-38 -84q0 -35 13.5 -67.5t42.5 -61.5l14 -14 q14 -14 34.5 -36t45 -47.5t45.5 -45.5h-2q41 -49 83 -91.5t64 -60.5l23 -23l-2 3q31 -29 63.5 -69t32.5 -77l-2 -8l-37 -39q-27 -29 -61.5 -62.5t-66.5 -67.5t-57.5 -61.5t-35.5 -41.5h2q-43 -43 -90 -103.5t-88 -127t-69.5 -135.5t-31.5 -130v-10z" />
<glyph unicode="?" horiz-adv-x="1220" d="M53 1317q0 -39 12.5 -64.5t59.5 -54.5q2 0 11 -1t20 -1q10 -2 18 -2h14q72 0 131.5 33t118.5 76q66 45 139.5 86t172.5 41h12q8 0 16 -1.5t15 -1.5h34q23 -10 32 -24t11 -37q-4 -51 -36.5 -99t-79.5 -92.5t-104.5 -83t-110.5 -73.5q-78 -53 -133.5 -97t-59.5 -94l-8 -215 v-4q0 -29 10 -45t25.5 -23.5t35 -8.5t37.5 -1q45 0 72 9.5t42 26t21.5 38t12.5 47.5l-2 -2q8 31 23.5 70t66.5 76q20 16 40.5 31.5t43.5 31.5q74 55 146.5 111.5t131 122t95.5 143.5t41 174v16q0 76 -27 131.5t-75 91t-111.5 53t-137.5 17.5q-43 0 -115.5 -13t-157.5 -38 t-173 -58.5t-160.5 -76.5t-120 -92t-49.5 -105v-18zM283 170q0 -63 39.5 -96t103.5 -33q76 0 135.5 45t61.5 117q0 31 -14.5 58.5t-38 49t-52.5 33.5t-57 12q-37 0 -69 -14t-55.5 -37.5t-37.5 -54.5t-16 -64v-16z" />
<glyph unicode="@" horiz-adv-x="1529" d="M74 629q0 -115 34.5 -220.5t105.5 -187.5t177.5 -131t249.5 -49q51 0 118.5 7t129 30.5t105.5 65.5t50 110v8q0 57 -37.5 84t-91.5 27q-39 0 -70.5 -8.5t-64.5 -22.5q-29 -10 -56.5 -19.5t-55.5 -9.5q-88 0 -147.5 28t-95.5 75t-51.5 109.5t-15.5 133.5v21q0 12 2 27 q4 102 51.5 212.5t125 201.5t184 150.5t231.5 59.5h17q6 0 16 -1t21 -3l-5 2q16 -4 19 -4q55 -23 93 -63.5t62.5 -90t36 -104.5t11.5 -109v-26q0 -20 -5.5 -62.5t-15.5 -85.5t-29.5 -75.5t-46.5 -32.5q-23 0 -36 18.5t-20 46t-10 59t-3 56.5q0 20 2 31q4 35 14 65.5t23 61.5 h-2q16 35 26 67.5t15 67.5v8q0 63 -42 90t-106 27q-115 0 -213 -55.5t-171 -140.5t-116 -186t-45 -194q0 -6 -1 -13t-1 -11q0 -53 16.5 -101.5t49.5 -84t80 -56t106 -20.5q47 0 82 11t68 26q29 12 55.5 22t52.5 10q16 0 32.5 -7t33.5 -13v2q23 -10 45 -17.5t51 -7.5 q98 0 169 53.5t116 132t67.5 167t24.5 157.5v37q0 121 -36 229.5t-108.5 190.5t-180 130t-249.5 48h-24q-10 0 -22.5 -1t-22.5 -1q-10 -2 -19 -2h-12h-31q-158 -31 -286.5 -130t-222 -230.5t-145.5 -278.5t-56 -276v-35zM698 702v19v8q0 23 13.5 66t34 85t45 73.5t47.5 31.5 h4v-6q2 -25 2 -53v-56v-92v-33q0 -12 -4 -22v-14v-4q-4 -25 -30 -35.5t-50 -10.5q-37 0 -49.5 10t-12.5 33z" />
<glyph unicode="A" horiz-adv-x="1130" d="M68 362q0 -49 4 -103t16 -100t38 -77t69 -31q47 0 74.5 17.5t43 46t20.5 64.5t9 75q4 41 11 77t28 46q33 20 75 32.5t86 18.5t88 8t83 2h92q20 -10 26.5 -25.5t8.5 -39.5v-2v2v-4v2q0 -4 1 -7.5t1 -5.5q0 -4 1 -14t1 -20q2 -16 2 -37v-39v-123q10 -33 33.5 -58.5 t70.5 -25.5q27 0 48.5 12.5t35 31.5t21.5 42t8 43l27 514q-10 39 -17.5 111.5t-13.5 162.5q-6 106 -16.5 221t-34 210.5t-62.5 158t-104 62.5q-59 0 -115.5 -33t-108 -84t-95.5 -115.5t-80.5 -130t-65.5 -124t-45 -97.5q-10 -25 -38 -92.5t-58 -138.5q-23 -59 -45.5 -113.5 t-34.5 -85.5q-43 -29 -65.5 -55.5t-22.5 -83.5v-95zM500 676q10 53 34.5 122.5t58.5 140.5t74 132.5t81 97.5q31 -37 40 -103.5t9 -133.5q0 -41 -1 -81t-5 -73q0 -8 -1.5 -15t-1.5 -13v2l-2 -31q-12 -12 -46.5 -19.5t-76.5 -12.5t-86 -8t-77 -5z" />
<glyph unicode="B" horiz-adv-x="1171" d="M68 268q0 -49 29.5 -91t75.5 -72.5t101.5 -47t106.5 -16.5q63 0 142 20.5t161 57.5t160 87t140.5 108.5t101 122t44.5 128.5v8q0 55 -20 96.5t-53 72t-71 54t-75 42.5q-29 16 -50 26t-21 15v2q2 29 24.5 65.5t50.5 77.5q41 59 80 126t43 142v11q0 74 -35.5 124t-92 80.5 t-125 44t-132.5 13.5q-51 0 -132 -8.5t-158.5 -33t-136 -71.5t-60.5 -123v-20q0 -23 4 -39.5t18 -32.5v-63v-101v2l-4 -47q-10 -160 -37.5 -318.5t-62.5 -326.5l-10 -57q-4 -23 -5 -28t-1 -22v-8zM350 319v37q4 88 12.5 139.5t34 81t79.5 44t151 28.5h8q20 4 33 4 q20 0 52 -3t60.5 -10t50 -19.5t23.5 -30.5q-4 -51 -52 -102.5t-113.5 -92.5t-137.5 -66.5t-123 -25.5q-29 0 -47.5 2t-30.5 14zM463 936v115q0 49 7 92t28.5 75.5t60.5 51t100 18.5h15q10 0 16 -1t10 -1h31q14 -8 14 -10q0 -4 -1 -10t-1 -11q-4 -49 -26.5 -102t-60.5 -98 t-87 -78t-106 -41z" />
<glyph unicode="C" horiz-adv-x="1181" d="M68 449q0 -199 116.5 -303.5t333.5 -104.5q41 0 101.5 12.5t129 34t137 52t124 68.5t91.5 82t40 93v6q0 45 -27 74t-72 29q-53 0 -104 -27t-107 -62q-63 -41 -136.5 -77.5t-159.5 -36.5q-53 0 -87 15t-52.5 43t-26 65t-7.5 80q0 10 1.5 21t1.5 24q0 33 16 100.5t44 150 t67.5 168.5t86 158t98.5 117t105 45q6 0 9 -2l-3 -41q0 -29 2.5 -61.5t13.5 -61.5t33.5 -47.5t65.5 -18.5q51 0 85 25t54.5 60.5t29.5 77.5t9 77v23q0 25 -2 61.5t-12 72.5t-31.5 63.5t-60.5 33.5q-59 12 -123 12q-143 0 -256 -64.5t-199 -164.5t-147.5 -224t-101 -243 t-59 -220.5t-21.5 -156.5v-28z" />
<glyph unicode="D" horiz-adv-x="1175" d="M70 258q0 -72 10 -114t40 -65.5t83 -30.5t139 -7q147 0 286.5 54.5t249 148.5t179 218t76.5 263v-2q2 12 2 25v28q0 137 -41 274.5t-123 245t-206 175t-288 67.5h-127q-29 -10 -58.5 -20.5t-56 -26.5t-48 -38.5t-31.5 -53.5q-4 -123 -15.5 -242t-27.5 -237 q-10 -88 -20.5 -177.5t-14.5 -181.5l-2 -63q-2 -20 -2 -41v-39v-64l-2 -37q0 -16 -1 -30.5t-1 -28.5zM332 350q0 8 1 18.5t1 22.5v21q0 12 2 22q0 8 1 17.5t1 15.5q4 94 11 180t19.5 172t28 175t37.5 192q16 23 30.5 29t43.5 6q82 0 145.5 -43t106.5 -107.5t65.5 -141.5 t22.5 -145v-14q-6 -82 -46 -158.5t-104.5 -137t-147.5 -97.5t-175 -37q-4 0 -16.5 1t-20.5 3z" />
<glyph unicode="E" horiz-adv-x="1153" d="M68 362q0 -59 30.5 -116.5t79.5 -103.5t108.5 -73.5t119.5 -27.5q45 0 109.5 14.5t136 39t142 60t128 77.5t94.5 91.5t41 102.5q0 117 -119 117q-72 0 -125 -37t-104 -84q-45 -41 -92.5 -75t-102.5 -34q-35 0 -62.5 15.5t-47 40t-29.5 55.5t-10 61v13q2 80 45 131 t108.5 85t144 52t152.5 35q59 12 112.5 24.5t93.5 30.5t64.5 45t26.5 68v4q0 29 -14.5 54.5t-37 44t-51 29.5t-57.5 11q-61 0 -117.5 -13.5t-113.5 -29.5h2q-49 -14 -98.5 -26.5t-102.5 -12.5h-4q-10 0 -12 -6v33l4 16q2 70 28.5 114t68.5 66.5t98.5 30.5t117.5 8 q45 0 91.5 -2t91.5 -4q94 27 98 107v8q0 49 -22.5 79.5t-57.5 47t-79 21.5t-87 5q-16 0 -32.5 -1t-32.5 -1q-12 0 -24.5 -1t-23.5 -1h-55q-23 0 -45 1t-47 1q-66 0 -137.5 -6t-131 -25.5t-99.5 -57.5t-44 -101v-16q0 -29 3.5 -55.5t7.5 -51.5v2q0 -12 2 -30.5t4 -36t4 -30.5 l2 -14q-2 -6 -2 -14q-4 -98 -27 -190l-45 -185q-25 -94 -44 -185t-23 -179v-15z" />
<glyph unicode="F" horiz-adv-x="1288" d="M66 303q0 -43 7 -89t25.5 -84t51 -63.5t83.5 -25.5q82 0 95 72q0 12 4 50t9 81t10 82t7 53v22q0 2 2 5v-3q2 6 2 15q0 8 3 18q6 31 12 69t14 73.5t18.5 65.5t26.5 46q20 16 50 18.5t73 2.5h473q20 0 42 15t37 36.5t25.5 45t10.5 38.5v2q0 33 -15.5 56.5t-40 40t-55 24.5 t-61.5 8q-23 0 -45.5 -1t-44.5 -3q-12 0 -23.5 -1t-23.5 -1h-13q-4 0 -12 -1t-12 -1q-47 -8 -107 -8h-61q-41 0 -82 4t-53 20v6l2 39v19v32q4 90 19.5 157t35.5 77h-4q33 18 111 18h43h20q10 0 23 -2q2 0 5 -1t7 -1h-6q8 -2 17 -3t22 -1h34q33 0 60.5 -2t56.5 -8q6 -2 14 -2 q41 -8 82 -11.5t80 -3.5q61 0 93 33t34 86v6q0 59 -41 93t-99 50.5t-121.5 20.5t-108.5 4h-31q-23 -2 -69 -5t-104.5 -6t-119.5 -5t-115 -4q-20 -2 -41.5 -3t-38.5 -1q-10 -4 -20 -4h-19q-74 -23 -110.5 -65t-40.5 -101q-2 -12 -3 -22.5t-1 -20.5q0 -27 5 -51.5t21 -57.5 v-117l-2 -28q-6 -96 -21 -184.5t-36 -178.5q0 4 2 8q-8 -12 -8 -26v2q-20 -90 -35.5 -182.5t-21.5 -186.5v4q-2 -10 -2 -24v-29z" />
<glyph unicode="G" horiz-adv-x="1280" d="M66 440q0 -96 38.5 -170.5t105 -125t153 -77t182.5 -26.5q104 0 223 30.5t221.5 92t172 150.5t75.5 206q0 8 1 17.5t1 19.5q0 47 -9 106.5t-34 112.5t-68 90t-108 37h-23q-6 0 -34.5 -8t-55.5 -16q-16 -6 -29.5 -11.5t-15.5 -5.5q-16 -2 -39.5 -3t-52.5 -1q-25 0 -53.5 1 t-38.5 5q-72 -18 -101.5 -67t-31.5 -99v-12q0 -53 43 -91t100 -38q39 0 74 10.5t63 20.5q27 10 52.5 17t50.5 7h2v-18v-41q-6 -129 -99.5 -195.5t-242.5 -66.5q-84 0 -145.5 38t-82.5 109v78l5 21q2 41 21.5 112.5t51 153.5t74.5 167t93 153.5t106.5 111.5t113.5 43 q20 0 25.5 -20.5t9.5 -47t9 -53.5t18.5 -48.5t38 -34.5t67.5 -13q45 0 73 14.5t44 39t23.5 55t11.5 63.5v24q0 51 -14.5 113t-45 114t-79 87t-115.5 35q-63 0 -111.5 -29t-91.5 -61l2 2q-4 -4 -8 -7.5t-8 -5.5q-127 -98 -234.5 -216t-188.5 -250t-129 -277.5t-56 -298.5v-23 z" />
<glyph unicode="H" horiz-adv-x="1165" d="M59 215q4 -29 11.5 -59.5t23 -56t42 -42t67.5 -16.5q25 0 50.5 8t45.5 23.5t34.5 38t16.5 49.5q0 18 4 62t9.5 94.5t10.5 96.5t9 64q2 33 16.5 54.5t37 34t51 19.5t59.5 13l16 6h6q14 4 23.5 8t21.5 11h11q6 0 11 -15.5t8 -42t5 -59.5t2 -70q0 -6 1 -13t1 -15 q4 -59 9.5 -118t19.5 -106t43 -76.5t80 -29.5q16 0 38.5 5t43 15.5t36 25.5t17.5 38l43 809q2 59 19.5 114.5t37.5 110.5v-2q4 16 7.5 24.5t7.5 16.5q4 10 6 19.5t6 19.5q23 59 39 117.5t18 115.5v11q0 55 -31.5 93t-93.5 38q-55 0 -90 -27t-57.5 -71t-36.5 -104.5 t-27 -127.5q-14 -80 -33.5 -163t-59.5 -149.5t-106.5 -109.5t-176.5 -43q-8 0 -9 16q6 74 19.5 142.5t32.5 132.5q2 4 2 6q0 4 2 8q16 66 30.5 130.5t14.5 131.5q0 4 1 10.5t1 12.5q0 57 -31 104t-100 47q-66 0 -95.5 -38.5t-48.5 -83.5q-68 -262 -107.5 -509t-51.5 -507 l-9 -154v-35z" />
<glyph unicode="I" d="M59 1423q0 -33 16.5 -57.5t41 -41.5t55.5 -26.5t59 -9.5q29 0 52.5 5t50.5 16h-2q18 4 38.5 9t45.5 5h2v-2l-49 -1014q-2 -16 -32 -18t-65 -2t-67.5 -2t-58 -11.5t-44 -32t-20.5 -61.5v-4q0 -37 18.5 -63.5t47 -42t62.5 -22.5t64 -7q20 0 80 8t135.5 21.5t158.5 32 t153.5 39t117 42t50.5 41.5v13q0 45 -20.5 71.5t-52.5 42t-71 20.5t-77 5q-16 0 -32 -1t-30 -1q-8 0 -14 -1t-10 -1h-3v2l5 53v92q0 25 1 47.5t3 42.5l4 58v-2q2 16 2 30v35q8 166 19.5 332t45.5 332h13q16 0 34.5 -2t38.5 -4q39 -6 86 -7h25q8 0 17.5 1t13.5 1q47 14 55 37 t10 49v15q0 66 -39 103.5t-104 58.5h-19q-8 0 -16 1t-18 1t-20.5 1t-18.5 1h-31q-8 0 -19.5 -1t-21.5 -1h-25q-4 0 -18 -2h4q-10 0 -43 -5.5t-70.5 -13.5t-70.5 -15t-45 -9l2 2q-16 -4 -37 -5.5t-45 -3.5q-49 -2 -103.5 -7t-100.5 -22.5t-79 -51t-35 -91.5v-2z" />
<glyph unicode="J" horiz-adv-x="1155" d="M57 397q0 -98 30 -166.5t87 -110.5t140 -60.5t192 -18.5h117q154 61 265 174t146 268q2 27 7.5 85.5t11.5 131t13 152.5t13 152.5t11.5 130t7.5 84.5l2 26q0 10 1 21.5t3 25.5q2 10 3 21.5t1 27.5l4 37v35v-2q2 12 2 25v28v86q-8 43 -43 71t-86 28q-47 0 -77.5 -17.5 t-50 -45t-29 -60.5t-11.5 -66q-2 -76 -3 -149.5t-1 -147.5q0 -139 -12 -289q-2 -41 -5 -99t-12.5 -122.5t-29 -129t-51 -117t-80 -84t-117.5 -31.5q-55 0 -85 13t-45.5 34.5t-18.5 47.5t-5 52q-2 33 -6 65t-17.5 55.5t-41 37.5t-76.5 14q-47 0 -78 -18.5t-70 -52.5v-31 q-4 -10 -4 -39q0 -16 -2 -25v-47z" />
<glyph unicode="K" horiz-adv-x="1187" d="M63 272q4 -33 13.5 -73.5t29 -75.5t51 -59.5t79.5 -24.5h8q27 0 51 8t51 55l2 58v2l2 16v45v23q0 12 -2 22v35q-2 12 -2 25v28v58l2 39q0 23 7 41t38 18q18 0 30.5 -3t31.5 -13v-2l10 -15l2 -2l6 -6h-16q-2 0 -2 -2q20 0 20 2q10 -14 27 -20q45 -45 98 -92.5t114.5 -86.5 t129 -63.5t143.5 -24.5q39 0 68.5 11.5t66.5 46.5v39q0 6 2 8l2 16q0 41 -13 69.5t-37.5 48t-58.5 35t-73 31.5v3h23q4 0 4 2h-29q-29 12 -52.5 22t-33.5 21l-209 186q-6 4 -10 7t-8 7q-4 18 -13.5 22.5t-25.5 4.5q-10 8 -17 22v23q14 16 28.5 29.5t31.5 29.5h-2 q14 10 26 25l25 29v-2l33 30q72 68 146.5 140.5t136 149.5t102.5 155t47 155q0 18 -6 41t-19.5 41.5t-32 31.5t-42.5 13q-47 0 -90.5 -26.5t-84.5 -68.5t-78.5 -95t-72.5 -107q-23 -35 -45.5 -64.5t-54.5 -64.5q-14 -14 -35 -31.5t-42.5 -35t-40 -32.5t-28.5 -24l-2 -2h-6 l20 347v4q0 33 -14 57.5t-36.5 40.5t-51.5 25.5t-59 9.5q-63 0 -88 -37t-41 -82q-6 -33 -15.5 -99.5t-22 -149.5t-24.5 -175t-23.5 -176t-19.5 -152.5t-10 -105.5v-15q-6 -23 -8 -54.5t-2 -63.5l-4 -80q-2 -23 -3.5 -52.5t-1.5 -52.5v-10q0 -4 1.5 -5t1.5 -3zM467 479l27 66 q29 0 32.5 -4t3.5 -33z" />
<glyph unicode="L" horiz-adv-x="1048" d="M70 362q0 -59 16 -116.5t51 -102.5t87 -73.5t126 -28.5q76 0 155 31.5t136 62.5q8 4 19.5 11.5t27.5 17.5v-2q29 16 68 38.5t75.5 44t67.5 40t43 26.5q37 20 50.5 58.5t15.5 72.5v7q0 53 -34 80.5t-93 27.5q-63 0 -126 -37t-128 -84q-63 -45 -130 -83t-132 -38l-7 19v10 v39q0 16 2 25v26q4 106 21.5 216t40.5 220q20 111 37.5 218.5t21.5 224.5v61q2 10 2 21v24v27q-2 18 -12 36.5t-25.5 34t-34 24.5t-36.5 9q-53 0 -85 -30.5t-50.5 -73.5t-26.5 -88t-12 -76q0 -6 -1 -12t-1 -10q0 -8 -3 -44t-7.5 -77t-9.5 -77t-7 -44q-2 -12 -7 -44 t-13.5 -76t-18.5 -96t-18 -102q-14 -78 -26.5 -139t-14.5 -80v-37q0 -6 -1 -13t-1 -15v-17q-2 -10 -2 -37z" />
<glyph unicode="M" horiz-adv-x="1429" d="M102 219q0 -35 5.5 -66.5t18.5 -56t37.5 -40t65.5 -15.5q20 0 44 3t45.5 13.5t36 27.5t16.5 46q2 8 2 19v22q0 16 -1 29.5t-3 25.5q-2 16 -3 29.5t-1 26.5q0 6 2 16q4 104 19 198.5t36 186.5q27 -61 52.5 -113.5t58 -101.5t74.5 -96t100 -94h41q51 0 98 38.5t88 96 t74.5 122t58.5 115.5q8 16 13 28.5t10 20.5q6 -29 13 -65.5t7 -38.5v2l-23 -492q0 -39 30 -52t59 -13h16q70 0 107.5 31.5t55 81t20.5 107.5t3 110v10v63q0 16 1 33t1 33q0 66 -4 132.5t-8 132t-9 134t-5 133.5v35q0 16 2 35q4 39 9 77t9 77q4 35 7 71.5t8 71.5q0 45 -31 87 t-90 42q-41 0 -78 -28.5t-53 -63.5q-8 -16 -13.5 -32.5t-13.5 -33.5q-41 -96 -82 -189t-86 -184.5t-96 -183.5t-113 -188q-20 10 -39.5 60t-35 111.5t-25.5 120t-12 85.5l-37 422v-2q-2 2 -2 8q-4 18 -9.5 37.5t-15.5 36t-28.5 26.5t-47.5 10q-57 0 -106 -77.5t-90 -198.5 t-73 -264.5t-53.5 -274.5t-32.5 -231.5t-11 -134.5l-4 -39v2q-4 -23 -6.5 -51.5t-2.5 -61.5zM731 629v2v-2zM735 633h2q0 2 2 2h9h-7l-4 -2h-2z" />
<glyph unicode="N" horiz-adv-x="1247" d="M104 313q0 -37 1 -75.5t4 -79.5v-2q0 -39 31.5 -77t72.5 -38q70 0 97.5 44t35.5 93q2 33 8 118t13.5 182t13.5 183.5t8 120.5q0 10 5 43t9 60l95 -221l-2 2q8 -20 27.5 -61.5t41 -84.5t41 -81t27.5 -50v2q4 -10 14 -31q16 -33 39 -72.5t52.5 -73.5t65.5 -57.5t79 -23.5 q59 0 100 32t67.5 78t42 96t25.5 87v-2q2 4 3 12t3 13q2 14 6 53q6 39 13.5 94t14.5 109.5t12.5 100.5t5.5 68l2 37v-2q6 63 6 162l4 68l4 55q0 6 1 14.5t1 18.5q2 33 2 63q0 33 6 62l4 61q-2 8 -3 16.5t-3 16.5q-6 31 -13 59.5t-21.5 51t-40 36t-68.5 13.5q-41 0 -65.5 -25 t-38 -59.5t-19.5 -73.5t-10 -68v4q-2 -10 -4 -21t0 -9q-4 -66 -5.5 -133.5t-1.5 -133.5v-131q0 -63 -4 -131v-53q0 -16 -1 -34.5t-3 -37.5q0 -8 -1 -11t-2 -8t-2 -15.5t-1 -30.5l-4 -45v-6l-9 -37q-5 -20 -3 -21q-16 0 -37 27t-43.5 70t-44 94t-39 99t-30.5 89t-17 60 l-49 161q-4 12 -16.5 46t-28.5 75q-14 39 -27.5 76t-18.5 51q-41 51 -99 89t-130 38q-39 0 -63.5 -20.5t-40 -49t-22.5 -58.5t-11 -50q-2 -18 -7 -59t-9.5 -87.5t-8.5 -88t-4 -60.5l-2 -41q0 -16 -1 -35.5t-3 -38.5q-2 -23 -3 -48t-3 -48l-2 -69l-10 -154 q-4 -72 -6.5 -139.5t-2.5 -141.5z" />
<glyph unicode="O" horiz-adv-x="1722" d="M74 551q0 -123 44 -218t121.5 -159.5t184 -98.5t231.5 -34q127 0 250 28.5t234.5 83t207 130t167 171t114.5 207t51 236.5q0 10 1 18.5t1 18.5q0 127 -48 234.5t-132 186.5t-198.5 123t-247.5 44q-127 0 -247 -38t-227.5 -104.5t-198.5 -156.5t-157.5 -195.5 t-105.5 -220.5t-45 -229v-27zM379 618v25q4 92 60.5 203.5t143.5 208t194.5 161t211.5 64.5q88 0 162 -39t127 -100.5t84 -140t31 -158.5v-11q-4 -102 -64.5 -198t-154 -171t-207 -120t-219.5 -45q-80 0 -148 21.5t-117 63.5t-76.5 101t-27.5 135z" />
<glyph unicode="P" horiz-adv-x="1226" d="M66 244q0 -18 1 -43t3 -45q2 -14 2 -23v-12l4 -17q20 -45 42.5 -55t59.5 -10q20 0 46 10t48.5 27.5t39 38t16.5 41.5l18 295q0 -4 19.5 2t49 16t65.5 24.5t71 26.5q45 18 79 30.5t58 27.5l-2 -3q82 43 168 104.5t158.5 138.5t121 167t52.5 186v23q0 96 -41 163.5 t-108.5 110.5t-154.5 62.5t-182 19.5q-29 0 -85 -7t-124.5 -21.5t-141.5 -35t-133 -48t-100 -61.5t-42 -72v-5q0 -41 17.5 -81.5t47.5 -69.5v-43q0 -18 -4 -29v-28q-6 -86 -15 -166t-18 -162q-12 -100 -22 -203.5t-14 -208.5v-65zM383 741v84l8 56v18q0 2 3 18.5t9.5 43 t12.5 57.5t12 59l-2 -2q6 25 11 46.5t9 35.5l-2 -2q8 41 37 64.5t68 36t85 16.5t89 4q72 0 113 -16.5t41 -75.5v-17q-4 -66 -53.5 -138.5t-123 -135t-158.5 -105.5t-159 -47z" />
<glyph unicode="Q" horiz-adv-x="1445" d="M61 430q0 -84 19.5 -157.5t68 -128t127 -86t195.5 -31.5q100 0 190.5 30.5t176.5 71.5h2q8 -4 10 -2q8 -10 20.5 -24.5t28.5 -32.5q27 -35 54.5 -66t43.5 -55q37 -37 88 -37t89 31.5t47 76.5v15q0 45 -23.5 78.5t-52.5 66.5q-23 29 -42.5 54.5t-19.5 52.5v8q4 35 39 76 t72 82h-2l16 16q8 8 15 16q82 113 129 229.5t53 246.5v20q0 74 -23.5 161t-75 160.5t-129 124t-186.5 50.5q-86 0 -162.5 -33t-136.5 -72h2q-135 -80 -247.5 -177t-194.5 -210t-131 -240t-58 -264v2q-2 -12 -2 -26v-27zM334 430v21q4 102 39 205.5t95 198.5t146 176t193 138 q10 4 18.5 10.5t18.5 12.5l-2 -2q25 12 53.5 25.5t52.5 13.5q55 0 91 -30t56.5 -74t29 -94t8.5 -91v-27q-2 -25 -18.5 -88t-42 -127.5t-59.5 -115t-71 -50.5q-16 0 -28.5 15.5t-22.5 34.5v-2q-20 35 -47 62.5t-80 27.5q-39 0 -61.5 -6.5t-35 -18.5t-17.5 -31.5t-9 -48.5v-16 q0 -35 12.5 -63.5t24.5 -55.5q10 -18 18.5 -38.5t8.5 -39.5v-6q-2 -18 -28 -30.5t-59.5 -21.5t-68.5 -13.5t-55 -4.5q-88 0 -124 46.5t-36 107.5z" />
<glyph unicode="R" horiz-adv-x="1294" d="M63 145q12 -35 39 -69.5t78 -34.5q68 0 106 36t54 88t19 113.5t3 114.5v47v15q12 6 31 6q0 -4 13.5 -21.5t33.5 -42.5q35 -47 82 -104t109.5 -108.5t139.5 -86.5t171 -35q27 0 58.5 4.5t58 14.5t45 30.5t22.5 55.5v8q0 29 -15 50.5t-42 39t-60.5 31.5t-72.5 31 q-43 16 -87 34.5t-80 42t-58.5 53t-22.5 68.5v11q2 8 37 34.5t90 65.5q63 45 137 103.5t139.5 125t110.5 141t51 156.5v15q0 82 -44 139t-114.5 93t-158.5 51.5t-174 15.5q-135 0 -245.5 -19.5t-191.5 -65.5t-130.5 -123t-63.5 -194q-4 -25 -9 -81t-11.5 -118.5t-10.5 -118 t-4 -77.5l-4 -41v4q-6 -25 -6 -80q-2 -16 -3 -34.5t-5 -39.5l-2 -73v-54q-2 -16 -3 -37.5t-1 -43.5q0 -10 -1 -24.5t-3 -29.5q0 -6 -1 -14t-1 -12v2zM377 705q2 8 2 24v64q4 90 12 170.5t25 181.5q6 33 46 57.5t94 38.5t110.5 21.5t93.5 7.5q61 0 111.5 -10.5t74.5 -53.5 q0 -6 -1 -12t-1 -16v-33q-4 -74 -53 -150.5t-126 -140t-173 -104.5t-195 -41q-6 0 -13 -2t-5 -2h-2z" />
<glyph unicode="S" horiz-adv-x="1236" d="M68 438q0 -111 43 -186.5t115.5 -122.5t169 -67.5t202.5 -20.5q143 0 253 49t185.5 132t115.5 191.5t44 229.5v16q0 90 -48 154t-123 110t-165 76.5t-172 55.5q-86 27 -146.5 48t-60.5 36v2v8q37 35 76 67.5t82 57t89 40t97 15.5q27 0 47.5 -7t40.5 -17 q25 -12 50.5 -21.5t56.5 -9.5q53 0 81.5 32.5t33.5 79.5v11q0 49 -27 91t-69 71.5t-92 46t-97 16.5q-57 0 -129 -22.5t-145.5 -61.5t-145.5 -90t-127 -109.5t-91 -120t-40 -118.5v-10q0 -61 32 -102.5t84 -70t118.5 -47t138.5 -36.5q70 -16 136.5 -35t118.5 -46.5t85 -68.5 t33 -100v-11q-8 -141 -94.5 -211.5t-235.5 -70.5q-59 0 -97 14t-63 38t-39 51.5t-27 54.5q-25 55 -55.5 96t-103.5 41q-135 0 -135 -129v-19z" />
<glyph unicode="T" horiz-adv-x="1341" d="M47 1227q0 -31 9.5 -58.5t64.5 -48.5h24q4 0 12.5 -1t16.5 -1h45q43 0 77 1t65.5 4t67.5 8.5t81 15.5q2 -2 4 -2t4 -2v-31q-4 -104 -19.5 -209.5t-33.5 -214.5q-18 -104 -34.5 -204.5t-20.5 -211.5v-65q0 -18 -2 -29v-31q0 -47 27.5 -76.5t78.5 -29.5q45 0 72.5 11 t44 30.5t27 48.5t18.5 63.5t14 67.5t15 68q47 217 84.5 424t60.5 438q18 35 75.5 45t118.5 18q47 6 92.5 13.5t80 24t57 45t26.5 77.5v4q0 12 -6 29.5t-16 34t-24.5 29t-32.5 12.5h-134q-31 -8 -108.5 -24.5t-173.5 -36t-194.5 -39t-170.5 -31.5l-86 -19q-16 -4 -48 -8 t-67.5 -7t-66.5 -6t-43 -3q-29 -12 -45 -23.5t-24.5 -26t-10.5 -31t-2 -36.5v-6z" />
<glyph unicode="U" horiz-adv-x="1064" d="M84 575q0 -90 11 -184t46 -172t99.5 -128t173.5 -50q113 0 205 41t161.5 110.5t116.5 160.5t74 190q4 47 7 89t7 81v-2q10 119 18.5 225t14.5 229l2 80v-2q2 20 3 40t1 36q0 18 -1 35.5t-1 40.5q0 16 -1 38.5t-1 45.5q-33 86 -123 86q-59 0 -97 -31t-42 -84l-4 -33 q0 -18 -2 -36.5t-7 -39.5v-41q-2 -20 -2 -40v-41v-56q0 -27 2.5 -53.5t2.5 -52.5v-53v-41q0 -18 -3 -39q-2 -35 -9 -92.5t-19 -124t-32.5 -133t-50.5 -121t-72 -89t-97 -34.5q-37 0 -59.5 27.5t-35 68.5t-17.5 91t-5 95v125q2 10 4 25.5t2 25.5l2 7q2 23 8.5 65.5t15.5 96 t19.5 111.5t20.5 109.5t18 93.5t15 60v-2l6 25q0 25 -5 48t-17.5 41.5t-33 30t-53.5 11.5q-43 0 -70.5 -24.5t-48.5 -49.5q-61 -176 -97 -333.5t-44 -336.5q-2 -35 -4 -78t-2 -88z" />
<glyph unicode="V" horiz-adv-x="1040" d="M80 1352q0 -6 3 -31t7 -49.5t6 -49t2 -20.5q2 -16 2 -33q0 -16 2 -32v2q6 -139 14.5 -252t24 -220.5t44 -220t77.5 -247.5q10 -27 24.5 -54.5t35 -51t49 -38t67.5 -14.5q43 0 70 23.5t37 54.5q45 125 87 247.5t85 247.5q66 193 133.5 387.5t144.5 384.5v13q0 4 1 9t1 9 t1 7t1 8q0 51 -33.5 78.5t-86.5 27.5q-66 0 -118 -64.5t-95 -166t-78 -223t-66 -238.5q-18 -68 -33.5 -128.5t-29 -105.5t-23.5 -71.5t-16 -26.5q-12 0 -21.5 27.5t-17.5 71.5t-14.5 95.5t-10.5 97.5t-6 82t-2 46q-2 10 -2 27v38q0 47 1 104.5t3 108.5q2 35 2 64v45 q-4 27 -12 54.5t-24.5 49t-42 35t-64.5 13.5q-53 0 -90 -26t-39 -79v-16z" />
<glyph unicode="W" horiz-adv-x="1570" d="M72 844q0 -137 13 -269.5t38 -269.5v6q2 -37 12 -82t31.5 -85t58.5 -66.5t92 -26.5q29 0 45.5 3t51.5 20q49 33 99 83t96 105t86 109l71 94q10 -10 27.5 -41t42.5 -74q29 -49 62.5 -104.5t73.5 -100.5t87 -74.5t104 -29.5q53 0 98.5 47t81 121t63.5 162t46 171 t29.5 149.5t13.5 94.5v23l2 53q0 10 1 20.5t3 24.5q2 20 4 44t2 46l4 66l2 53l3 68v-2q4 35 4 75q0 41 2 80q0 8 1 18.5t1 20.5l6 76q-4 27 -11.5 52.5t-21.5 46t-37.5 32.5t-60.5 12q-88 0 -129 -84q-2 -143 -7.5 -284.5t-20.5 -282.5t-44 -280.5t-80 -278.5q0 -4 -14 -8 q-14 0 -30.5 23.5t-31 59.5t-29 79t-24.5 81.5t-17 68.5t-9 40v-2q-2 10 -2 16v17q0 27 3 61.5t7 75.5q4 49 8 102.5t4 110.5q0 55 -7 103.5t-24.5 84t-48.5 57t-78 21.5q-37 0 -82 -18.5t-61 -71.5l-68 -475v2q-2 -12 -15 -44t-31.5 -72t-43 -84t-47 -80.5t-44 -60 t-36.5 -23.5q-10 8 -17 48t-10 93t-4 112.5t-1 108.5v98q4 51 14 104.5t20 108.5q12 59 22.5 118.5t14.5 127.5v14q0 49 -20.5 79t-91.5 30q-86 0 -134.5 -53.5t-73 -128t-31.5 -157.5t-9 -142q0 -14 -1 -25.5t-1 -21.5v2q-2 -29 -2 -62v-59z" />
<glyph unicode="X" horiz-adv-x="1294" d="M63 152q0 -49 29 -80t88 -31q31 0 54.5 11t41.5 30l197 330l1 1l5 5q8 14 22.5 35.5t29 42t27.5 35t20 14.5l49 -49q10 -12 45 -56.5t76 -93.5h-3q25 -31 52.5 -64.5t50 -61t37 -46t14.5 -20.5q23 -31 52.5 -41.5t58.5 -10.5q41 0 74.5 24t37.5 71v22 q-39 102 -106.5 201.5t-136.5 189.5q-29 39 -53.5 73t-47.5 67l-10 8v14q0 4 6 14l7 8q3 3 12 13l-2 -2q16 16 51 58t67 79q20 23 34 40l13 17q16 16 38 40t50 51q33 33 70 68.5t67.5 72.5t50 73.5t21.5 73.5v6q0 41 -27.5 76t-80.5 35q-45 0 -90 -27.5t-90 -70.5t-88 -97.5 t-82 -107.5q-51 -63 -92 -113.5t-62 -60.5l-12 12l-13 10q0 2 -2 2l-2 5v-3q-8 14 -27.5 48t-41 71t-40 70t-24.5 45q-4 8 -10 16.5t-10 12.5q-16 27 -32.5 54.5t-38 51t-49.5 38.5t-67 15q-72 0 -99.5 -31.5t-33.5 -91.5q0 -53 25.5 -93t54.5 -76q10 -10 16.5 -18.5 t8.5 -12.5q10 -23 35.5 -69t56.5 -98t59.5 -100.5t44.5 -70.5q0 -4 2 -6l4 -17q0 -10 -4 -14q-10 -12 -21 -23.5t-22 -25.5q-49 -57 -106 -125t-106.5 -140.5t-84 -147.5t-39.5 -142v-12z" />
<glyph unicode="Y" d="M66 1057q0 -55 15 -102.5t39.5 -88.5t53.5 -74.5t55 -62.5q23 -25 39.5 -43t16.5 -22v-2q-2 -53 -13.5 -113t-23.5 -119t-21.5 -119.5t-13.5 -128.5v-2q0 -23 4 -46t16.5 -44.5t36 -35t60.5 -13.5q57 0 106 32.5t58 92.5v-2q14 80 29.5 151.5t33.5 141t44 138.5t63 142 l-2 -2q16 27 49.5 87.5t74.5 133.5q27 51 56.5 104.5t56.5 100.5t49.5 84t36.5 58q27 47 34 83.5t13 77.5v15q0 43 -20.5 74.5t-83.5 31.5q-47 0 -79 -19.5t-54.5 -49t-38 -66.5t-27.5 -72q-8 -18 -13 -33.5t-7 -19.5q-8 -12 -22.5 -38.5t-34 -58.5t-40 -68t-41.5 -68v2 q-33 -53 -60.5 -103.5t-39.5 -70.5q0 2 -8 2h-17h-6q-45 0 -65.5 15t-30.5 50v74l2 16q2 45 11.5 83t19.5 77q10 41 20.5 78t14.5 78v6q0 47 -31 88t-90 41q-70 0 -112 -42t-64.5 -102.5t-31.5 -129t-11 -119.5v2l-6 -62v-18z" />
<glyph unicode="Z" horiz-adv-x="1214" d="M57 166q0 -43 20.5 -65.5t55.5 -45.5l12 -14h56q2 0 5 -1t7 -1h41q70 0 141.5 15.5t143.5 37.5h24l12 8l15 4l-2 -2q33 8 64.5 16.5t64.5 14.5q47 10 95 15.5t95 9.5q14 2 27 2q14 0 29 2h-2q4 0 8 1t8 1q6 2 12 2h33q14 0 22 2q4 0 7.5 1t7.5 1q10 2 20 2h17 q35 0 53 28.5t22 63.5v8q0 41 -33.5 75t-70.5 48h-113q-76 0 -147.5 -12t-149.5 -29h-16l-10 -6h-4q-51 -12 -101.5 -20.5t-101.5 -12.5q8 29 28.5 63t46 67.5t55.5 68.5t58 66v2h11q8 16 13 24t5 10l12 11q23 31 61 68.5t85 78.5q61 66 125.5 137.5t118 148.5t90 160 t41.5 169q0 150 -168 149q-18 0 -87 -9t-163 -25.5t-197.5 -40t-191.5 -50.5t-145.5 -57.5t-57.5 -61.5v-18q0 -39 18.5 -60.5t81.5 -44.5q-4 0 -7 -1l-3 -1h41q4 0 6 -1t4 -1h25q66 0 128 7.5t128 19.5h8q2 0 3 1t5 1q14 0 31 10l-4 -4q2 0 3 1l1 1l37 6q35 4 72.5 8.5 t72.5 6.5q-6 -14 -18.5 -28.5t-26.5 -31.5l-11 -11q-5 -5 -7 -9l-2 -2l-21 -19l-6 -14l-361 -428l-28 -35l-8 -14q-4 -4 -5 -6l-2 -2l-2 -2h-12l-6 -27q-41 -47 -82 -97t-74.5 -103.5t-56.5 -108t-27 -105.5v-2q0 -4 -1 -7t-1 -7zM625 1202h4h-4z" />
<glyph unicode="[" horiz-adv-x="782" d="M59 170q0 -23 12.5 -45.5t31 -40.5t42 -30.5t45.5 -12.5h332q20 0 40 12.5t35 28.5t25.5 35.5t12.5 34.5q0 16 -9.5 38.5t-24.5 44t-33.5 37t-37.5 15.5h-190l-4 4v33q2 10 2 12v8v21q2 27 7 79t11 118.5t13.5 143t13.5 154.5l12 152q6 76 12.5 140.5t11.5 115.5t9 82 q4 10 4 12q0 4 -4 6h203q63 0 86.5 38t23.5 83v16q0 29 -11 47.5t-56 40.5q-12 2 -25.5 3t-23.5 3h2q-39 6 -69 10.5t-59.5 7.5t-60 4t-69.5 1h-82q-41 -16 -57.5 -34.5t-32.5 -41.5q-4 -4 -7.5 -9t-5.5 -7q-12 -346 -36.5 -675t-84.5 -660l3 2l-7 -23v-4z" />
<glyph unicode="\" horiz-adv-x="874" d="M47 1454q0 -18 4 -32.5t15 -32.5l-3 2q16 -35 50 -110t75 -168t86 -196.5t86 -196.5t73 -168t46 -112q4 -14 18.5 -54t31 -83t31.5 -81t22 -50q16 -53 51 -92t102 -39q33 0 51.5 10t28.5 26.5t13 37t3 43.5q0 6 1.5 13t1.5 11q0 49 -15.5 92t-34.5 91q-2 4 -2 6t-2 4v-2 q-20 53 -38.5 102t-39.5 100q-96 250 -199.5 491t-240.5 478q-18 33 -50 47.5t-62 14.5q-35 0 -54.5 -11.5t-30 -28t-13.5 -38t-3 -41.5v-10q0 -6 -1 -11.5t-1 -11.5z" />
<glyph unicode="]" horiz-adv-x="718" d="M51 154q0 -23 2 -43.5t11.5 -36t28 -24.5t48.5 -9h17l313 27q25 16 48.5 40.5t33.5 61.5q8 168 24.5 335t36.5 335q20 162 37 324.5t25 332.5v-4l2 14v86q-16 59 -51 92t-101 33q-47 0 -100 -11t-107 -28q-33 -10 -66.5 -18t-64.5 -12q-41 -29 -59 -57.5t-23 -75.5v-19 q0 -29 11.5 -47t56.5 -37h37q6 0 11 -1t11 -1h9q27 0 52 5t50 14q16 4 35.5 8t38.5 6l-2 -82q-6 -131 -21.5 -258t-32 -256t-31 -260t-22.5 -260q-10 -16 -38.5 -23.5t-57.5 -11.5t-57.5 -10.5t-51 -20.5t-37 -38.5t-16.5 -67.5v-2z" />
<glyph unicode="^" horiz-adv-x="913" d="M51 1024q39 -59 101 -59q49 0 94 28.5t92 67.5q41 35 82 62.5t84 27.5q2 0 6 -2l178 -184q14 -12 27.5 -16.5t29.5 -4.5h23q35 0 68.5 27.5t35.5 62.5v6v17q-2 10 -5 20t-7 15q-45 49 -98 108.5t-96 114.5q-4 4 -10.5 11t-12.5 17q-23 29 -49.5 59t-50.5 30h-39 q-4 0 -41 -21.5t-87 -50.5t-101.5 -60.5t-79.5 -52.5q-12 -8 -21 -12q-29 -16 -50.5 -30.5t-36.5 -32t-24.5 -40t-11.5 -57.5v-51z" />
<glyph unicode="_" horiz-adv-x="1435" d="M68 -33v-4q0 -33 33.5 -48t72.5 -21h916q10 0 38.5 1t59.5 3q29 2 56.5 4t43.5 2q35 16 71 38.5t36 55.5v8q0 16 -8.5 24.5t-43.5 24.5h-81h-189h-86q-45 0 -92 2t-94 2h-92q-53 0 -99.5 1t-85.5 1h-157q-37 0 -87.5 -3t-96.5 -12t-78.5 -28.5t-36.5 -50.5z" />
<glyph unicode="`" horiz-adv-x="526" d="M182 1677q0 -31 14.5 -54.5t30.5 -47.5q8 -14 17.5 -26.5t13.5 -24.5q2 -4 2 -8t4 -11q4 -18 11.5 -40.5t20.5 -41t35.5 -32t59.5 -13.5q47 0 78 25l14 29q0 4 1 7t1 7v18q0 27 -13 74t-41 94t-68.5 82t-94.5 35q-41 0 -63.5 -19.5t-22.5 -46.5v-6z" />
<glyph unicode="a" horiz-adv-x="1075" d="M66 283q0 -29 4 -57.5t16 -52t36.5 -39t65.5 -15.5q70 0 113 59q8 16 9 30.5t1 35.5q0 20 1 45.5t3 50.5t4.5 44t2.5 30l4 28q2 14 12 21q86 14 172 22.5t174 8.5q2 0 8 -1t15 -1v-15q0 -12 1 -25.5t1 -29.5q2 -16 2 -35v-37v-94v-20q0 -10 -4 -23v-37q0 -18 -2 -33 q0 -6 -1.5 -12t-1.5 -10l3 -10q12 -49 29.5 -59.5t53.5 -10.5h25q51 0 80 20.5t44 52t21.5 68.5t10.5 72q0 10 2 14v-2q2 10 2 21v26q0 23 -1 46.5t-3 46.5q-2 18 -2 36v39v41l8 51v5q31 23 43 42t16 60v8q0 37 -14 61.5t-35 47.5v-2q-10 10 -18.5 19t-12.5 24v-4 q-2 16 -6 55t-9 81t-8 78.5t-3 53.5q0 4 -1 6t-1 6q-2 23 -3 48.5t-1 58.5q0 61 -9.5 126.5t-34 120t-66.5 90t-107 35.5q-37 0 -76 -20.5t-74 -48t-63 -56.5l-48 -47l-12 -14q-106 -104 -174 -237.5t-108.5 -276.5t-59 -288.5t-24.5 -272.5v-49zM373 719q2 20 17.5 66 t39 103.5t53 119t61 111.5t63.5 83t61 33q8 0 13 -30.5t8 -77t4 -99.5t1 -98v-117q-4 -10 -4 -20v-19v-33q-16 -16 -48 -24t-67.5 -11.5t-70.5 -4.5t-55 -1h-43q-12 0 -21.5 4.5t-11.5 14.5z" />
<glyph unicode="b" horiz-adv-x="1284" d="M66 209q0 -51 32.5 -84t79.5 -51.5t98.5 -25.5t85.5 -7q72 0 163 21.5t187.5 59.5t188.5 92t167 117.5t122 135.5t53 147v13q0 61 -21.5 102t-57.5 68.5t-80 46t-87 35.5q-41 16 -73.5 29.5t-49.5 29.5q4 4 11.5 8t17.5 15l-2 -3q39 29 81 62t78 70.5t59.5 83t27.5 96.5 v10q0 49 -21.5 89t-57.5 69.5t-82 49t-93 28.5h-86q-12 0 -24.5 1t-22.5 1h-33q-45 0 -107.5 -1t-130 -9.5t-135 -24t-122 -44t-88 -73.5t-38.5 -109q0 -6 1.5 -14t1.5 -14v-25l79 -74v-32v-33l-4 -31q-8 -211 -40.5 -404.5t-73.5 -393.5zM340 301v14l2 9q0 31 2 34v11 q2 18 9 61t16.5 92t18.5 93t13 63v-2q4 14 15.5 27.5t27.5 19.5h127q37 0 103.5 -4t130 -16.5t111 -35t47.5 -59.5v-2q-4 -72 -66.5 -129t-148.5 -98t-180.5 -62.5t-164.5 -21.5h-20h-16q-4 0 -23 4zM459 1061v106l2 29q0 29 34.5 46.5t82 26.5t93.5 12t70 3q8 0 29 -2 t42.5 -6t37.5 -11.5t18 -15.5l-12 -12l4 4q-31 -29 -79 -73t-102 -86t-111.5 -72.5t-106.5 -32.5v8q0 16 -1 37t-1 39zM862 930q0 2 2 2z" />
<glyph unicode="c" horiz-adv-x="1257" d="M68 489q0 -127 35.5 -213t105.5 -138t171 -74.5t230 -22.5q41 0 101.5 10t127 30.5t132 49.5t120 64.5t88 78.5t38.5 91v6q0 47 -32 75.5t-87 28.5q-57 0 -113.5 -29.5t-120.5 -66.5q-68 -41 -144.5 -79t-166.5 -38q-55 0 -96 19.5t-68 52.5t-39 76t-12 90q0 16 2 26 q4 111 43 212.5t103.5 193.5t147.5 174t175 156q14 12 20.5 14t20.5 2q31 0 39 -24.5t12 -55.5q4 -29 9 -55.5t18.5 -48t39 -34.5t68.5 -13q39 0 60.5 11t34 30.5t16.5 45t8 54.5v29q0 49 -12.5 109t-40 113.5t-70.5 89.5t-106 36q-84 0 -167 -36t-160 -95.5t-147.5 -135 t-131 -154.5t-106.5 -155t-77 -135q-41 -82 -52 -168t-17 -164v-33z" />
<glyph unicode="d" horiz-adv-x="1378" d="M63 1305q0 -41 24 -67t69 -26q39 0 67 11q14 6 37 6q6 0 10 -8.5t6.5 -20.5t2.5 -24v-19v2l-7 -98v-37v-12q0 -6 -4 -17l-12 -286v4q-4 -23 -5 -40.5t-3 -33.5l-4 -139q0 -2 -3 -19.5t-6.5 -40t-7.5 -44t-6 -31.5q-4 -20 -15 -43t-24 -46q-18 -33 -32.5 -63.5 t-14.5 -62.5v-5q0 -33 26.5 -68.5t65.5 -35.5h86q203 0 384.5 70.5t319.5 193.5t223 287t93 348v-2l2 27v34l2 70q-27 123 -119 218t-215.5 162t-263 100.5t-260.5 33.5q-51 0 -120.5 -18.5t-134 -53t-110.5 -85t-51 -113.5v-8zM504 334q0 23 1 44t1 42q4 125 6 236.5 t8 228.5l15 250q0 20 1 41.5t1 37.5l4 80l2 2h8h16q100 0 192.5 -25.5t162 -74.5t110.5 -119.5t41 -161.5v-14q-4 -45 -27.5 -105.5t-62.5 -126t-90 -130t-108.5 -114.5t-120 -82t-123.5 -32q-25 0 -37 23z" />
<glyph unicode="e" horiz-adv-x="1312" d="M68 178q0 -47 20.5 -74.5t53 -41t72.5 -17.5t77 -4h67q33 0 111 12.5t176 37t203.5 58t192.5 75.5t145.5 92.5t60.5 105.5v10q0 49 -23.5 79t-84.5 30q-43 0 -83 -17.5t-79 -44.5q-14 -10 -32.5 -20t-35.5 -19q-111 -59 -244 -105t-268 -46h-30l2 78v-2q2 49 6 88t7 77.5 t8 81.5t11 101q27 16 110 22t194 10q96 2 195 9.5t180 24t134.5 47t57.5 83.5v9q0 109 -119 108q-72 0 -136.5 -7t-129.5 -15h-23q-10 0 -20 -3h2q-78 -10 -154 -17t-149 -7h-33q-27 0 -51.5 1t-40.5 11v15v10v8v8q4 78 22.5 124t55 72.5t93 37t138.5 14.5q25 0 83 1t124 5 q72 4 131 7t88 3q39 2 76 29t37 68v8q0 49 -26 78.5t-65.5 47t-88 22.5t-93.5 5h-55h-29q-10 0 -20 -2q-8 0 -13.5 -1t-11.5 -1h-18q-168 0 -327 -23.5t-318 -76.5q-61 -25 -74.5 -54.5t-15.5 -70.5q-2 -10 -2 -18v-19q0 -35 8 -62.5t30 -62.5l-32 -704q-6 -12 -11.5 -35 t-9.5 -49.5t-8 -55t-6 -51.5q-2 -10 -3 -17t-3 -16v-6l-6 -10v-39z" />
<glyph unicode="f" horiz-adv-x="1320" d="M63 195q0 -63 28 -108.5t106 -45.5q41 0 70.5 37t51 94t36 127t26.5 137q4 18 6 33.5t4 32.5q8 47 14.5 85t12.5 56q10 4 69.5 11.5t141.5 19.5q84 12 176 26.5t169 38t128 59.5t55 89v6q0 59 -38 80.5t-89 21.5q-53 0 -110.5 -11t-110.5 -28h-10q-4 -2 -5 -3l-1 -1h-11 q-6 0 -16 -4h4q-8 -2 -20 -6l-9 -4v2q-111 -37 -227 -37h-53l-2 2q0 6 2 15q0 4 -1 6t-1 4l2 37q2 35 7 80t20.5 87t44 71.5t79.5 33.5q143 23 291 32t295 15q25 10 53.5 28.5t28.5 59.5v8q0 45 -21.5 71t-56.5 40t-77 18.5t-81 4.5h-194q-10 0 -18.5 1t-16.5 1 q-80 0 -171 -5.5t-175 -24t-151.5 -51t-102.5 -87.5q-16 -37 -21.5 -60.5t-5.5 -48.5v-111q0 -14 -4 -48.5t-8 -74.5t-10 -75t-8 -47v-6q-4 -4 -6 -9l-5 -8h-4q-23 -35 -37 -63.5t-16 -65.5v-10q0 -4 -1 -10t-1 -11q0 -18 6 -34.5t23 -28.5l-2 -37v-24q-4 -39 -10.5 -83 t-14.5 -85q-2 -10 -2 -25l-1 3q-1 3 -1 -1q0 -2 -1 -5t-1 -7v4q-4 -20 -5 -42t-5 -42q-2 -18 -4 -37.5t-7 -40.5v-22zM741 940q4 0 9 2q8 2 16 6q-16 0 -20.5 -2t-4.5 -6z" />
<glyph unicode="g" horiz-adv-x="1406" d="M70 612q0 -123 46 -228t130 -181t201.5 -119t259.5 -43q135 0 252.5 52t205.5 139t141.5 198t57.5 227q0 10 1 18.5t1 18.5q0 47 -9 104.5t-33 106.5t-63.5 83t-101.5 34q-4 0 -11 -1t-15 -1h-33q-10 -4 -40 -13.5t-63 -19.5q-31 -8 -62.5 -17t-60 -18.5t-50 -17.5 t-29.5 -12q-4 -2 -6.5 -1t-4.5 -1l2 2q-41 -8 -79.5 -18.5t-71.5 -31t-53.5 -53.5t-24.5 -88q0 -31 12.5 -49t32 -28.5t42 -13.5t42.5 -3q92 0 182 34t166 74h13q8 0 16 -5t10 -11l-14 -209q-2 -47 -47 -82t-104.5 -59.5t-122 -36.5t-99.5 -12q-66 0 -126 20.5t-107 55 t-75 84t-28 106.5v18q4 78 36 144.5t81 126t110.5 114t127.5 107.5v-2q14 12 26 23.5t29 23.5q18 16 46 35.5t57.5 37t60 29t55.5 11.5q8 0 12 -4l96 -78q27 -4 31 -4h12q45 0 91.5 19.5t89.5 59.5v74q0 109 -74 171.5t-190 62.5q-102 0 -213 -43t-218.5 -115t-205 -166 t-172 -195.5t-119.5 -203t-47 -189.5v-2q0 -10 -1 -19.5t-1 -19.5zM795 922l6 2q-2 -2 -6 -2z" />
<glyph unicode="h" horiz-adv-x="1343" d="M59 715q0 -53 31 -78t68 -41q16 -10 28.5 -16.5t16.5 -10.5l-21 -383v-4q0 -51 34 -77.5t81 -26.5q55 0 88 43t50.5 106.5t21.5 138t4 136.5q0 63 6 100q4 4 10 7t15 5l-19 -2q2 0 3 1t3 1q23 4 53.5 14.5t59.5 20.5q68 25 145.5 47.5t139.5 22.5h4q10 0 16 2v-35v2 q2 -23 3 -40t1 -27q0 -27 -1 -93.5t-3 -144.5v-238q0 -104 109 -104q88 0 116.5 40t38.5 112q2 10 2 28t2 41q2 29 3 60.5t6 68.5l4 144l6 143v-2q6 68 10 121t4 80q0 8 4 43.5t8 83.5q4 41 9.5 78.5t7.5 54.5q4 45 14 85t21 81v-3q12 47 24 93.5t17 91.5v10q0 59 -28 93 t-97 34q-57 0 -92 -30.5t-55.5 -81t-31 -114t-18.5 -128.5q-6 -45 -12 -87t-15.5 -76t-20.5 -56.5t-30 -28.5h2l-385 -107q-10 -4 -24.5 -7t-22.5 -3q10 0 10 10q0 12 1 25.5t1 22.5v4q4 47 9.5 96t15.5 102q10 49 16 101.5t11 111.5v13q0 20 -6.5 42.5t-18.5 42t-32.5 32 t-51.5 12.5q-41 0 -71.5 -20.5t-52 -49.5t-35 -62.5t-17.5 -60.5q0 -14 -3 -46t-7 -73q-6 -53 -11.5 -104t-5.5 -78q0 -4 -1 -17.5t-3 -29.5q-2 -23 -4 -48.5t-2 -43.5v-21q-10 -8 -22.5 -13t-24.5 -11q-39 -18 -72 -41t-37 -76v-8z" />
<glyph unicode="i" horiz-adv-x="423" d="M51 143q14 -68 39 -85t76 -17q45 0 76.5 30.5t40.5 80.5q35 248 57 488.5t33 494.5v-2l4 43q0 23 1 57.5t1 58.5l4 43q0 29 -6 60.5t-21.5 57.5t-39 42t-56.5 16q-37 0 -55.5 -17t-46.5 -64q-6 -150 -20.5 -288t-31 -279.5t-31 -282t-20.5 -289.5v-23q-2 -10 -2 -24v-27 v-20q0 -10 -2 -23v-31z" />
<glyph unicode="j" horiz-adv-x="1208" d="M53 471q0 -59 36 -113.5t94.5 -101.5t132 -87t149.5 -68.5t147.5 -44t122.5 -15.5q68 0 124 35t100.5 90t78 125.5t56 141.5t35 135.5t14.5 109.5l24 461v24q0 45 -10 116t-33.5 138.5t-62.5 116.5t-94 49q-37 0 -61.5 -13.5t-38 -35t-19.5 -49t-6 -53.5v-35 q0 -72 7 -136.5t17 -125.5q10 -66 17.5 -130.5t7.5 -130.5v-16q-2 -33 -7 -82t-14.5 -104.5t-25 -111.5t-39 -101t-55 -74t-74.5 -29t-85 13.5t-81 34t-75 45t-68 49.5q-53 41 -101.5 71.5t-95.5 30.5q-53 0 -83 -38t-34 -81v-10z" />
<glyph unicode="k" horiz-adv-x="1171" d="M66 119q4 -55 36.5 -66.5t75.5 -11.5q55 0 89 41t52.5 102.5t26.5 134t12 138.5v-2q2 16 2 30t2 27v41q0 6 -2 8q70 -2 139.5 -63.5t141.5 -139.5q41 -45 83 -88t86 -76.5t91 -54t98 -20.5t90 26.5t41 85.5v5q0 53 -45 102t-110 100q-35 27 -73 52.5t-77 50.5 q-45 29 -87 56.5t-75.5 53t-56 47t-26.5 39.5q41 37 97 87t115.5 109.5t117 125t103.5 132t75.5 131t33.5 122.5q0 49 -16 77.5t-76 28.5h-35q-16 0 -28.5 -7t-26.5 -13q-113 -147 -228.5 -282.5t-252.5 -246.5q-6 -6 -19.5 -15t-23.5 -13q-2 27 -3 62.5t-3 76.5 q-2 53 -4.5 98t-2.5 62v12q0 27 -3 64.5t-15 73.5t-40 61.5t-77 25.5q-31 0 -57.5 -17t-47 -42t-33.5 -53.5t-17 -50.5v-273q0 -37 -3.5 -109.5t-7.5 -166.5l-12 -199l-8 -197q-2 -41 -4 -78.5t-4 -72.5q-4 -41 -5 -74t-3 -53v-4z" />
<glyph unicode="l" horiz-adv-x="1138" d="M63 262q0 -33 9.5 -70.5t29 -71.5t52 -56.5t82.5 -22.5h14q16 4 56 10t81 12q43 8 81 14.5t48 8.5q37 6 94.5 17.5t121 30t127 43t115.5 57t86 73.5t38 90v15q0 55 -28 73.5t-93 18.5q-8 0 -32.5 -3t-35.5 -7l-96 -39q-92 -35 -183 -68t-188 -33h-63q-10 6 -12 29t-2 47 q0 16 1 40t3 40q2 10 2 20v17q4 115 21.5 230.5t37.5 234.5q18 111 34.5 221t20.5 227v39q0 39 -15 72t-77 33q-49 0 -79.5 -20.5t-49 -50.5t-27 -65.5t-12.5 -66.5v4q-10 -43 -23.5 -107.5t-28.5 -137.5t-29.5 -147.5t-27 -137t-20.5 -106.5t-8 -56v4l-4 -31 q0 -14 -1 -36.5t-3 -51.5q0 -6 -1 -13t-1 -14l-4 -45v-63q-2 -18 -2 -39v-39v-29q0 -14 -4 -30l-2 -41q0 -4 -1.5 -10.5t-1.5 -12.5z" />
<glyph unicode="m" horiz-adv-x="1310" d="M59 104l17 -14q16 -18 36.5 -33.5t51.5 -15.5q43 0 82 26.5t53 67.5q23 133 45.5 262t50.5 250q6 -16 13.5 -41.5t15.5 -54.5q12 -43 25.5 -87t35 -80t51 -58.5t74.5 -22.5q53 0 98.5 31t83 79t69.5 105t61 113q16 31 29 57l24 47q2 -14 3 -25.5t1 -15.5l-4 -26 q-2 -47 -6 -97l-8 -98l-9 -102l-8 -103l-10 -123q43 -53 98 -53q41 0 69.5 23.5t57.5 52.5q47 211 62.5 412.5t25.5 406.5q2 41 4 80t4 80l5 57v-4q4 23 4 47v47v45q0 23 2 43v-2l4 70q-31 100 -133 100q-33 0 -60.5 -20.5t-49 -49t-37 -58t-25.5 -50.5q-2 -6 -7 -14l-5 -10 l-7 -15l2 2q-10 -25 -28 -66l-37 -84q-18 -42 -33.5 -76t-24.5 -42q-2 -6 -22.5 -46t-47 -90t-53 -99.5t-40.5 -75.5q-4 -10 -14.5 -33t-14.5 -23q-6 0 -10.5 13.5t-7.5 29t-5 28.5t-2 15q-6 25 -18 71l-25 92q-12 46 -20 82t-8 42q0 4 -1 23.5t-6 42.5q-4 37 -8 76.5 t-4 62.5q-2 10 -3 36.5t-1 55.5v109q-16 45 -46 52t-58 7q-59 0 -89 -30.5t-47 -82.5q-2 -6 -4 -18t-6 -27h2q-6 -29 -14 -62.5t-16.5 -65t-13.5 -58.5t-5 -39v2q-2 -18 -10 -71.5t-19.5 -126t-23.5 -153.5t-23.5 -152.5t-19.5 -125t-10 -69.5q0 -10 -6.5 -35t-12.5 -51 q-8 -35 -14 -61.5t-6 -35.5q-4 -14 -5 -26t-1 -29l-3 -18v-17q-2 -10 -2 -24q0 -16 -2 -25v-33z" />
<glyph unicode="n" horiz-adv-x="1120" d="M59 207q4 -27 11.5 -55.5t23 -53t41 -41t66.5 -16.5q14 0 34.5 5t39 16.5t33 27.5t14.5 41l24 531q20 -43 34 -70l22 -45q9 -18 17.5 -33.5t18.5 -38.5v2l68 -149l12 -25q8 -16 17.5 -37.5t19.5 -44t20 -41.5q8 -14 12.5 -25.5t8.5 -15.5q51 -61 121 -61q37 0 61.5 17.5 t40 43t24.5 53t13 50.5q12 53 25.5 106t25.5 107q59 242 109.5 477t62.5 483v129q0 45 -32.5 82t-85.5 37q-41 0 -68 -23.5t-43 -56.5t-24.5 -68.5t-10.5 -58.5v2q-6 -27 -14 -83t-19.5 -127.5t-22.5 -149.5t-22 -150l-18 -129q-8 -57 -10 -84q-4 -10 -6.5 -19t-2.5 -14v3 q-8 -35 -16 -78t-18 -56q0 8 -4 17l-9 16q-29 72 -59.5 157t-50.5 152q-2 12 -6.5 35t-9.5 50.5t-11 58t-10 59.5q-6 31 -11.5 53.5t-7.5 32.5q-2 14 -4 55t-3 88.5t-2 88.5t-1 57q-12 45 -50 74.5t-79 29.5q-43 0 -74.5 -27.5t-42.5 -56.5q-68 -274 -107.5 -546.5 t-55.5 -550.5l-2 -41q-2 -23 -3 -45v-47v-39q0 -14 -2 -19z" />
<glyph unicode="o" horiz-adv-x="1484" d="M66 586q0 -86 19 -172t62 -160t113 -130t172 -83h133q123 0 224.5 31.5t185.5 89t151.5 139.5t122.5 180q37 63 71 127t60.5 128.5t43 131t20.5 138.5v30q0 88 -29 177.5t-85 162t-141 117.5t-198 45q-51 0 -100 -13.5t-96 -31.5q-147 -61 -276.5 -146t-226.5 -192.5 t-156.5 -239t-67.5 -284.5v-2q0 -10 -1 -21.5t-1 -21.5zM334 547q0 8 1 17t1 20q6 113 53 232.5t130 218t197.5 160.5t254.5 62q59 0 101 -23.5t68.5 -60t39 -84t12.5 -94.5v-18q-2 -55 -28.5 -128t-70.5 -150.5t-103.5 -153.5t-126 -135.5t-139.5 -96.5t-144 -37 q-70 0 -117 21.5t-76 58.5t-41 86.5t-12 104.5z" />
<glyph unicode="p" horiz-adv-x="1320" d="M55 123q23 -35 43.5 -58.5t67.5 -23.5q20 0 45 7t46.5 19.5t35.5 30t18 39.5l47 307q0 -12 7.5 -14t19.5 3t29.5 14.5t40.5 17.5q70 25 165 60.5t187 79.5t170 97.5t117 112.5l-2 -2q6 10 13 21.5t15 21.5q61 90 108.5 176t51.5 195v20q0 80 -36 142.5t-95 104.5 t-136 63.5t-159 21.5q-47 0 -116.5 -7t-146.5 -22.5t-155 -39t-141.5 -58.5t-104 -80t-43.5 -102q0 -29 8.5 -49.5t18.5 -40.5q6 -12 11 -23.5t5 -19.5q-8 -98 -24 -202t-35 -214q-23 -121 -42 -240t-23 -248v3l-3 -21v-57zM399 733l2 15v40q6 25 14.5 81.5t15.5 118 t13.5 114.5t8.5 74v-2q8 57 50 90.5t99 52t124 24t126 5.5h16q4 0 9.5 -1.5t11.5 -1.5q10 -2 37 -2h16q31 -4 45 -31.5t14 -58.5q0 -4 -1 -10t-1 -10q-4 -94 -58 -183.5t-138 -159t-189.5 -112.5t-214.5 -43z" />
<glyph unicode="q" horiz-adv-x="1648" d="M68 590q0 -98 30.5 -199.5t91 -183.5t151.5 -133t212 -51q86 0 166 22.5t151 50.5q51 18 94.5 32.5t75.5 14.5q18 0 32.5 -16t29.5 -37q23 -35 51.5 -64.5t83.5 -29.5q41 0 63.5 8t32.5 24.5t13.5 41t3.5 59.5q0 4 1 8t1 8q0 23 -6.5 41.5t-10.5 34.5q-4 14 -7 26.5 t-3 28.5q0 4 6 11l8 8l60 82q37 51 71.5 102t64.5 105.5t49.5 113t23.5 123.5v29q0 129 -42 248t-122 210t-194.5 146t-260.5 55h-26h-39q-20 0 -37 -2h4q-10 0 -20.5 -1t-14.5 -1q-154 -31 -293 -121t-246.5 -213.5t-174 -268t-74.5 -286.5v-26zM383 575v23q8 106 48 194.5 t105.5 160t151.5 133t184 116.5q23 14 48.5 20.5t50.5 6.5q78 0 141.5 -36t107.5 -91t67.5 -124t23.5 -134v-8q-4 -23 -15.5 -71t-32 -97.5t-46 -87t-56.5 -37.5q-29 0 -53.5 33.5t-52.5 80.5q-23 35 -46.5 71t-54 64.5t-68.5 47t-87 18.5q-66 0 -90.5 -24.5t-28.5 -90.5v-6 q0 -70 41 -124t84 -101q33 -35 57.5 -65.5t24.5 -55.5v-2q-2 -20 -38 -37.5t-83 -30t-93 -18.5t-71 -6q-63 0 -105 23.5t-68 62.5t-36 89t-10 103z" />
<glyph unicode="r" horiz-adv-x="1259" d="M63 147q18 -43 45 -74.5t87 -31.5q37 0 59 8t34.5 23.5t17.5 37t9 48.5v-2q2 16 7.5 54t13.5 81q6 33 10 61.5t8 50.5q12 0 19 -2q55 -55 112.5 -104t123 -88t143 -61.5t170.5 -22.5q18 0 44.5 1t52 9t45 23.5t26.5 46.5q0 35 -19.5 60.5t-51.5 46t-74 35.5t-87 32h2 q-43 14 -85 30.5t-75.5 35t-54 39t-20.5 44.5v4q55 47 114.5 90.5t118.5 90.5q47 35 96.5 71.5t98.5 75.5q76 78 117.5 149.5t46.5 168.5v45q0 8 2 18v29q-12 53 -56.5 86t-99.5 50t-113.5 23.5t-101.5 6.5q-27 0 -83 -6.5t-125 -17.5t-142.5 -25.5t-137 -32t-107.5 -34.5 t-52 -36q-16 -33 -19.5 -61.5t-3.5 -59.5q0 -10 -1 -22.5t-3 -26.5q-4 -23 -15.5 -105.5t-25.5 -185.5l-16 -118q-8 -59 -15.5 -108.5t-12.5 -85.5t-7 -48l-4 -23q0 -23 -1 -48t-3 -48l-2 -39v4l-4 -28v-56v-20q0 -8 -2 -19zM373 702l4 -4zM389 702v15q0 8 2 18v23 q6 127 19.5 209t57.5 130t134 66.5t250 18.5h10q8 0 14.5 -1t12.5 -1h16v-4q0 -23 -29.5 -63t-75.5 -90t-104.5 -102.5t-116 -98.5t-108.5 -79t-82 -41z" />
<glyph unicode="s" horiz-adv-x="1523" d="M68 422q0 -94 67.5 -165t164.5 -119t204.5 -72.5t187.5 -24.5q131 0 267.5 45t250 124t189.5 188.5t84 238.5v8q0 94 -51.5 167t-129 123t-173 77.5t-181.5 36.5l-409 22h-7h9q-12 4 -17 4q100 88 224 151.5t264 63.5q25 0 47 -6t45 -14q29 -8 55.5 -15.5t61.5 -7.5 q57 0 81.5 33t24.5 80v10q0 45 -23.5 85t-62.5 70.5t-86 49t-92 18.5q-66 0 -156 -20.5t-189.5 -56t-197.5 -86t-177 -110.5t-129 -130t-52 -141v-11q0 -51 24.5 -89t63.5 -64.5t88 -42t100 -17.5h-2l529 -57q31 -2 70.5 -15.5t75.5 -34t60.5 -49t24.5 -61.5v-4 q-2 -33 -29.5 -65.5t-71.5 -63.5t-99.5 -56.5t-111 -45t-105.5 -30.5t-83 -11q-66 0 -126 19.5t-114.5 52t-101.5 75.5t-88 88h-20q-12 0 -17 2q-6 0 -11 1t-7 1q-74 0 -106.5 -35.5t-36.5 -101.5v-12z" />
<glyph unicode="t" horiz-adv-x="1474" d="M49 1245q0 -47 22.5 -76.5t82.5 -52.5h84q47 0 93 10.5t93 26.5q37 10 75 19.5t76 13.5v-41q-8 -78 -20 -157t-27 -161q-16 -96 -32.5 -190t-20.5 -199v-61v2q-2 -12 -2 -29v-31q0 -51 7 -100t27.5 -89t58.5 -64.5t98 -24.5q68 0 96 29.5t31 89.5v20q0 84 -13 162 q-6 39 -11 77t-5 73v18q0 10 2 20q0 33 5 95.5t16.5 137.5t25.5 156.5t31.5 152.5t39 125t44.5 75q27 25 85 32t124 11q55 2 107 8t93 21.5t68 45t31 80.5v13q0 41 -17.5 65.5t-45.5 36.5t-61.5 16.5t-66.5 4.5q-27 0 -91.5 -11.5t-153.5 -30t-193.5 -43t-210 -53 t-203.5 -58.5t-174 -57.5t-122 -53t-46 -46.5v-8z" />
<glyph unicode="u" horiz-adv-x="1169" d="M63 422q6 -80 42 -149.5t94.5 -121t136.5 -81t166 -29.5q82 0 167 22.5t158.5 65.5t132 104.5t87.5 141.5q2 25 5 66.5t7 96t9 117t11 127.5q6 72 11.5 143.5t11.5 134t10 111t6 74.5l2 98v-2l8 107q-8 59 -49 88t-98 29q-45 0 -85 -30t-46 -81l-78 -997v2 q-4 -31 -25.5 -58.5t-51 -49t-63.5 -34t-65 -12.5q-66 0 -105.5 25.5t-61 67.5t-30 94.5t-8.5 105.5q0 47 3.5 89t7.5 79q2 72 10 143.5t18 143.5q10 74 17.5 145.5t11.5 149.5q0 4 1 9t1 9q0 61 -37 97t-108 36q-59 0 -92 -31.5t-50.5 -79t-21.5 -99.5t-6 -93q0 -27 -2 -37 q-4 -23 -9.5 -79t-11.5 -117.5t-10 -116.5t-4 -76v-18q-2 -23 -4 -52l-4 -57v2l-4 -47l-2 -39v-49v-25q0 -10 -3 -24v-39z" />
<glyph unicode="v" horiz-adv-x="1208" d="M74 1257q0 -109 13 -223t34.5 -228t47.5 -222.5t50 -206.5l-2 2q8 -43 20.5 -88t31 -89t47 -85t69.5 -76h12q10 0 19 -2q10 -2 21.5 -3t19.5 -1q66 0 116 35.5t85.5 89t59 112t34.5 105.5q2 12 14 60t26.5 103.5t28 103.5t19.5 61q10 29 36.5 104.5t57.5 161.5 q18 47 34.5 94t32 88t25.5 74t16 51l-2 -4q4 12 15.5 30.5t23.5 41.5q29 49 55.5 104t32.5 96q0 55 -34.5 93t-90.5 38q-57 0 -103 -37.5t-80 -92t-56.5 -112t-32.5 -94.5v2q-8 -27 -27 -67q-16 -47 -33.5 -93t-23.5 -69l2 4q-8 -25 -22.5 -73t-33 -109.5t-38 -128 t-35.5 -128t-29.5 -108.5t-17.5 -69q0 -4 -6 -22.5t-12 -18.5q-10 0 -18.5 31.5t-14.5 86t-11.5 126l-11.5 149.5q-8 117 -18 235.5t-34 214t-62.5 156t-104.5 60.5q-43 0 -70.5 -16.5t-43 -41t-22.5 -55.5t-7 -59q-2 -23 -2 -45v-46z" />
<glyph unicode="w" horiz-adv-x="1671" d="M68 520q0 -145 70.5 -263t199.5 -216h51q41 0 82 11t72 40h-2l268 227h8q14 -20 37 -49.5t47.5 -59.5t45 -54.5t30.5 -34.5l-2 2q6 -8 11 -14.5t9 -10.5q14 -18 23.5 -29.5t21 -18.5t27.5 -9t41 -2q68 0 127 36t108.5 94t87 131t65.5 146.5t43 141t20 112.5q2 18 5 53 t6 81.5t7 98.5t8 105q6 94 10 175t9 118q16 37 19 62.5t5 66.5q2 10 2 25q0 53 -28.5 95t-102.5 42q-37 0 -68.5 -17.5t-53 -44t-34 -60.5t-12.5 -66v4l-74 -754l-12 -69t-21.5 -92t-31.5 -80.5t-39 -34.5q-18 0 -33.5 16t-27 40.5t-18.5 51.5t-9 45q2 23 4 73t2 109v242 q2 16 2 35v37q0 47 -7 95t-26.5 87t-56.5 63.5t-96 24.5q-49 0 -84 -14.5t-60 -69.5q0 -10 -1 -32.5t-3 -45.5q-2 -27 -2 -55q0 -29 -2 -59v2q-4 -37 -6 -74t-4 -66v-45q-4 -27 -15.5 -71.5t-28.5 -98t-42 -106.5t-52.5 -97t-60 -72t-67.5 -28q-16 0 -30.5 14.5t-26 35 t-19.5 42t-12 35.5l2 13v83q12 246 88 486q10 29 21.5 57.5t21.5 57.5q23 53 42 104t23 109v12q0 53 -29.5 88t-95.5 35q-61 0 -113 -70t-93 -177.5t-74 -234.5t-53.5 -240.5t-31.5 -198.5t-11 -105v-21z" />
<glyph unicode="x" horiz-adv-x="1447" d="M57 186q0 -57 27 -82.5t94 -25.5q57 0 106.5 33.5t91.5 87t79 119t71 131.5q23 43 44.5 81.5t41 69.5t37 48.5t31.5 17.5q-2 0 -2 -2h2q10 -12 30.5 -43t44 -66t43 -66.5t27.5 -44.5q6 -10 14.5 -27.5t18.5 -39.5q23 -47 51.5 -105.5t63.5 -109.5t73.5 -86t79.5 -35 q63 0 88 18.5t33 77.5v25q0 80 -23.5 157.5t-62.5 152.5t-86 146.5t-92 137.5q-25 35 -45 66.5t-41 62.5v-2q-6 10 -7 13t-1 11q2 23 21.5 51.5t52 59.5t73.5 63.5t84 67.5q51 41 101.5 83t90.5 84t65.5 85t29.5 86q0 51 -32 79.5t-85 28.5q-57 0 -114.5 -28.5t-111.5 -73.5 t-105.5 -99.5t-96.5 -105.5q-55 -61 -98 -105t-64 -44l-8 8l-8 8q-2 2 -16.5 21.5t-32.5 42.5q-14 18 -27.5 36.5t-17.5 22.5l-195 182q-18 16 -36.5 21.5t-34.5 5.5h-21q-59 0 -88 -21.5t-39 -81.5v-10q0 -37 14.5 -60.5t36.5 -51.5v2l51 -65q36 -46 77.5 -96t78.5 -94 t53 -63q6 -6 7 -16v-31q0 2 -5 -2l-3 -4q-3 -4 -5 -8l4 4q-20 -25 -42.5 -53.5t-49.5 -59.5q-53 -63 -111.5 -134t-107.5 -144.5t-82 -148.5t-35 -148v-15z" />
<glyph unicode="y" horiz-adv-x="1144" d="M66 1034q0 -74 25.5 -131t65.5 -103t87 -83t90 -66q35 -27 59.5 -45t24.5 -26v2q-2 -41 -16.5 -85t-28.5 -87q-18 -47 -31.5 -94.5t-17.5 -100.5v-8q0 -31 8 -60.5t25.5 -53t45 -38t66.5 -14.5q35 0 54.5 10t47.5 58q18 129 58.5 259t92.5 258t111.5 253t118.5 243 q29 59 56.5 115.5t54.5 110.5q6 16 11 29.5t9 23.5q10 25 15.5 40t5.5 54v61q-20 29 -47 47.5t-64 18.5q-39 0 -73.5 -34t-61.5 -77t-44 -82.5t-21 -54.5l2 10q-12 -23 -41 -85t-59.5 -132.5t-58.5 -134t-38 -86.5v4q-4 -6 -11 -19t-15.5 -26.5t-16.5 -23t-14 -9.5 q-43 0 -78 17.5t-57.5 46.5t-35 63.5t-12.5 69.5v14q4 39 19.5 76t36.5 74q23 41 42 86t23 94v17q0 113 -121 112q-47 0 -87 -28.5t-71.5 -73.5t-56 -100.5t-41 -110.5t-25.5 -104.5t-11 -80.5v-10z" />
<glyph unicode="z" horiz-adv-x="1368" d="M61 190q0 -47 20.5 -79.5t74.5 -69.5h92q106 0 207.5 24.5t201.5 55.5h-2q51 14 99.5 27.5t97.5 23.5l18 2q18 2 37 6q33 4 74 10.5t81 13.5t72.5 13t47.5 10h2h-4h2h2q0 2 2 2l-2 -2q18 4 42.5 13.5t47 25t38 36t15.5 48.5v6q0 41 -15.5 67t-41 41t-58 21.5t-65.5 6.5 q-88 0 -178 -13.5t-180.5 -35t-177.5 -48t-169 -51.5q16 41 54.5 86t76.5 86q33 37 62 68l215 254q25 29 52.5 56.5t58.5 55.5q45 45 90 92.5t81.5 97.5t62.5 104t30 112v30q0 20 -3 44t-13.5 44.5t-29 34t-49.5 13.5h-202q-2 0 -32 -5.5t-78 -14.5t-106.5 -21.5 t-117.5 -23.5t-113.5 -22.5t-93.5 -19.5h2q-35 -6 -79 -22.5t-84 -42t-67.5 -59.5t-31.5 -74v-11q0 -111 121 -110h18q4 0 11.5 1t11.5 1q121 45 251 84t259 39h30h9q6 0 10 -2q-4 -23 -33 -52.5t-55 -52.5q-6 -8 -14.5 -14t-14.5 -13q-20 -23 -59 -67.5t-89.5 -102 t-105.5 -123t-108 -126.5q-70 -82 -128.5 -147.5t-84.5 -96.5q-31 -35 -47.5 -58.5t-25.5 -43t-12 -42t-8 -53.5v2q-2 -10 -2 -20v-19z" />
<glyph unicode="{" horiz-adv-x="733" d="M49 686l12 -27q29 -33 61 -92t62 -131q33 -70 69 -140.5t78 -126.5t94 -92t118 -36q55 0 101 29.5t48 93.5v16q0 10 -2 21.5t-14 23.5q-59 53 -100 105.5t-72 108t-55.5 117.5t-53.5 136l2 -2l-12 29q-6 14 -12 31v41q6 25 27.5 83t45 120.5t43 111.5t23.5 55 q8 16 24.5 34.5t34.5 41.5q33 39 62 82t33 96v6q0 90 -86 90q-51 0 -110.5 -28.5t-111 -71.5t-88.5 -96t-45 -103q-4 -23 -6 -45t-6 -45q-4 -53 -11 -100t-30 -92q-6 -14 -20.5 -31.5t-30.5 -36.5q-27 -31 -47.5 -61.5t-24.5 -75.5v-18v-21z" />
<glyph unicode="|" horiz-adv-x="436" d="M39 -20q6 -35 16.5 -56.5t23.5 -32t32.5 -13.5t44.5 -3q45 0 77.5 31t40.5 80q12 84 23.5 193.5t23 233.5t21.5 254t18.5 253.5t14.5 234.5t10 195l10 202q0 29 -6 61t-21.5 57.5t-39 43t-58.5 17.5t-54 -18.5t-48 -65.5q-4 -94 -12.5 -217t-18.5 -259.5t-21.5 -279.5 t-23.5 -279.5t-24.5 -259.5t-22.5 -217z" />
<glyph unicode="}" horiz-adv-x="720" d="M55 41h226q39 0 69.5 37t54 96t43 131t37.5 144q20 78 38 139t34 76q8 12 29 26q31 25 62.5 57.5t31.5 75.5v8q0 47 -23.5 77t-52.5 59h2q-18 18 -34.5 35.5t-20.5 33.5q-14 35 -19.5 79t-11.5 91q-8 72 -19.5 143.5t-42 128t-87 92.5t-154.5 36q-59 0 -106.5 -30 t-47.5 -95v-4q0 -45 36 -68t81 -45q23 -10 44.5 -22.5t27.5 -22.5q4 -12 14 -48t21.5 -85t23 -104.5t20.5 -104.5t15 -87t6 -52q0 -8 -2 -15q0 -2 -1 -4t-1 -4q-12 -47 -28.5 -100t-35 -107.5t-36 -108t-31.5 -96.5q-4 -12 -8 -26.5t-8 -24.5q-2 -2 -8.5 -19.5t-14.5 -33.5 q-4 -10 -4 -14v-2q-10 -20 -23.5 -39t-25.5 -35v2q-12 -14 -23.5 -28.5t-20.5 -34t-16.5 -45t-9.5 -62.5z" />
<glyph unicode="~" horiz-adv-x="1165" d="M76 1030q0 -76 71 -76q39 0 75 17.5t79 40.5q45 23 91 44t95 21q29 0 60 -15l63 -32q43 -25 89 -46t110 -21q51 0 105.5 15t100.5 46t75.5 78t31.5 110q0 4 1 10.5t1 10.5q0 39 -18.5 62.5t-67.5 23.5q-29 0 -51 -19.5t-47 -44.5q-23 -27 -51.5 -51t-63.5 -24 q-29 0 -56.5 14t-55.5 35q-33 23 -68 41t-82 24h-33q-8 0 -18 1t-23 1q-47 0 -116.5 -14t-135 -45t-112.5 -80t-49 -119v-8z" />
<glyph unicode="&#xa1;" horiz-adv-x="716" d="M14 -45q0 -57 31 -84t82 -27q55 0 84 29t53 70q12 23 29.5 60.5t36 76.5t32 69.5t15.5 40.5l-2 -12q8 23 23.5 67t35 99t41 115.5t39.5 116t33.5 99.5t21.5 64q10 31 13.5 53.5t7.5 45.5q2 10 3 19t3 20v14q0 20 -4 46t-15.5 46.5t-31 34.5t-49.5 14q-35 0 -54.5 -10 t-42.5 -55q-51 -115 -94 -230.5t-86 -232.5q-35 -98 -71.5 -195.5t-77.5 -197.5q-4 -10 -9.5 -17.5t-9.5 -17.5v2q-16 -33 -24.5 -58.5t-12.5 -64.5zM375 1352q0 -31 5 -61.5t19.5 -55.5t37 -40t59.5 -15q41 0 72.5 22.5t54 54t36 69.5t17.5 69v4q0 20 -4 49t-16.5 54.5 t-34 44t-54.5 18.5q-41 0 -74.5 -20.5t-58 -52.5t-41 -69.5t-18.5 -70.5z" />
<glyph unicode="&#xa2;" horiz-adv-x="1042" d="M78 668q0 -82 25.5 -144.5t67.5 -105.5t97.5 -66.5t114.5 -25.5l-4 -90v4q-2 -20 -3 -37t-1 -33q0 -35 6 -54.5t19.5 -28.5t34 -11t48.5 -2h6q39 0 60.5 8t33 25.5t14.5 41t5 54.5q0 6 1 16t3 23l12 135q43 14 86.5 37.5t82 51.5t71.5 54.5t57 48.5q37 35 55.5 78 t18.5 78q0 41 -19.5 65.5t-58.5 24.5h9q-8 2 -13 2h-22q-29 0 -77 -14.5t-95 -67.5q-8 -14 -25.5 -33.5t-44.5 -39.5l35 391q8 4 29 4q14 0 35.5 -5t43.5 -10q16 -6 29.5 -10t24.5 -4q10 -2 18 -2h23q66 0 91 32t29 77l-2 32v4q0 43 -14 69t-39.5 40t-59.5 19.5t-71 5.5h-72 q-27 0 -47 -2l4 40v21q2 10 3.5 24.5t1.5 30.5q0 45 -19.5 80t-79.5 35q-45 0 -69.5 -9t-38 -25.5t-18.5 -40t-7 -52.5q-2 -10 -3 -25.5t-1 -19.5l-8 -125q-168 -68 -266.5 -196t-114.5 -326v2q-2 -10 -2 -25v-24zM334 707q0 4 1 8t1 8q6 78 30.5 129t67.5 88l-31 -360 q-29 10 -49 44t-20 83z" />
<glyph unicode="&#xa3;" horiz-adv-x="1206" d="M25 662q0 -51 27.5 -92.5t88.5 -41.5q25 0 76 23h78q-4 -23 -9 -44.5t-10 -43.5l3 2q-10 -41 -19.5 -83t-19.5 -83q0 -4 -1 -12t-1 -13q-2 -16 -4.5 -34.5t-2.5 -32.5q0 -53 22.5 -85t88.5 -32h12q51 4 78 26.5t43 57.5q63 -33 144 -61.5t151 -34.5q14 -2 27 -2h26 q100 0 166 34.5t105 87t55 114t16 112.5q0 63 -21.5 102t-51.5 39h-7q-33 -4 -55 -10t-37.5 -23.5t-25 -48t-11.5 -80.5v-2q0 -29 -17 -45t-45 -23t-63.5 -9t-70.5 -2q-51 0 -101.5 19t-97.5 42q-14 6 -27.5 13t-25.5 14q4 23 10 44t10 44q4 14 5.5 26.5t5.5 26.5h235 q20 -10 31.5 -11t21.5 -1h2q37 0 67 14t50.5 37.5t30.5 51.5t10 54q0 51 -31.5 90t-99.5 39q-33 0 -43 -2t-27 -16h-204q4 29 5 60.5t3 66.5h209q20 -10 35.5 -12t31.5 -2q72 0 105 36.5t39 98.5v18q0 53 -30 95t-87 42q-33 0 -44 -3t-32 -17h-239q-4 31 -5.5 63.5 t-3.5 69.5v4q0 74 -30.5 117t-87.5 43h-13q-37 0 -59.5 -13.5t-35.5 -36t-19.5 -53t-12.5 -69.5v-10l13 -58q6 -29 10 -57h-70q-23 12 -41 14t-26 2q-35 0 -61.5 -14t-44 -36.5t-27 -50.5t-9.5 -56q0 -53 29 -94.5t88 -41.5q20 0 39.5 5.5t36.5 15.5h102q-2 -33 -4 -64.5 t-6 -62.5h-111q-16 10 -33.5 12t-31.5 2q-35 0 -60.5 -14t-43 -36.5t-26.5 -51t-9 -57.5z" />
<glyph unicode="&#xa4;" horiz-adv-x="1181" d="M68 449q0 -199 116.5 -303.5t333.5 -104.5q41 0 101.5 12.5t129 34t137 52t124 68.5t91.5 82t40 93v6q0 45 -27 74t-72 29q-53 0 -104 -27t-107 -62q-63 -41 -136.5 -77.5t-159.5 -36.5q-78 0 -114 30.5t-48 81.5h8q68 0 154 7.5t163.5 29t132 61.5t58.5 103 q0 53 -21.5 87t-68.5 34q-18 0 -41 -8q-29 -10 -72 -19.5t-93 -18.5t-104.5 -17.5t-105.5 -14.5q6 25 14.5 51.5t18.5 55.5q6 0 16 6q16 4 36.5 10t70.5 14h-4l61 6q45 4 98.5 10.5t99.5 23t77.5 46t35.5 80.5v13q0 33 -9 54t-60 44h-64q-66 0 -124 -4t-111 -15 q27 47 57.5 90.5t62 75t62.5 51t61 19.5q6 0 9 -2l-3 -39q0 -29 2.5 -61.5t13.5 -61.5t33.5 -47t65.5 -18q51 0 85 24.5t54.5 60t29.5 76.5t9 76q0 14 -2 52t-12 79t-31.5 77t-58.5 46q-74 20 -143 21q-133 0 -237.5 -63.5t-184.5 -159t-137.5 -208t-94.5 -213.5l2 3 q-27 -66 -45 -120.5t-30.5 -106.5t-21.5 -103t-17 -107v-32z" />
<glyph unicode="&#xa5;" horiz-adv-x="1079" d="M-4 600q0 -47 52 -71.5t114 -24.5h57q25 0 45 4q-2 -16 -5 -30.5t-7 -31.5q-98 -16 -163.5 -44.5t-72.5 -69.5q-4 -6 -4 -13v-8q0 -53 40 -64t112 -11h51q0 -16 -1 -28.5t-1 -27.5q0 -23 4 -46t17.5 -44.5t37 -35t60.5 -13.5q57 0 106 32.5t60 92.5v-2q2 14 3 28.5 t5 28.5l-2 -2q2 6 3 11.5t3 11.5q80 4 157.5 15t141 29.5t104.5 46t45 68.5q0 61 -32.5 81t-114.5 20q-41 0 -105.5 -3t-138.5 -12q4 14 8.5 27.5t8.5 26.5q57 2 124.5 7t127 18.5t100.5 39t45 68.5v14q0 29 -13.5 47.5t-78.5 34.5h-64q-10 0 -19 1t-20 1h-30h-33 q-16 0 -37 -2q18 35 46 83t59 103q27 51 56.5 104.5t56 100.5t49 84t38.5 58q25 47 33 83.5t14 77.5v15q0 43 -20.5 74.5t-83.5 31.5q-47 0 -79 -19.5t-55.5 -49t-39 -66.5t-27.5 -72q-8 -18 -13 -33.5t-9 -19.5q-6 -12 -21.5 -38.5t-34 -58.5t-39 -68t-41.5 -68v2 q-35 -53 -62.5 -103.5t-39.5 -70.5q0 2 -8 2h-16h-7q-45 0 -65.5 15t-30.5 50v74l2 16q2 45 11.5 83t19.5 77q10 41 20.5 78t14.5 78v6q0 47 -32 88t-91 41q-70 0 -112 -42t-64.5 -102.5t-31.5 -129t-11 -119.5v2l-6 -62v-22q0 -53 15 -100.5t38.5 -87.5t52.5 -73.5 t55 -60.5q-96 -16 -161.5 -47t-69.5 -78v-6z" />
<glyph unicode="&#xa8;" horiz-adv-x="929" d="M297 1380q0 -43 35 -74.5t96 -31.5q27 0 54.5 13t48 33.5t34 44.5t13.5 44v8q0 47 -45.5 73t-98.5 26q-68 0 -101.5 -39t-35.5 -84v-13zM608 1382q0 -45 36 -76.5t95 -31.5q27 0 54.5 13t48 33.5t34 44.5t13.5 46v8q0 47 -45 73t-99 26q-68 0 -101.5 -39t-35.5 -84v-13z " />
<glyph unicode="&#xa9;" horiz-adv-x="1341" d="M70 551q0 -104 25.5 -197.5t81.5 -162t147.5 -109.5t222.5 -41q182 0 320.5 65.5t231.5 174t143 249t58 289.5v39q0 111 -29.5 219.5t-93 194.5t-160.5 139t-233 53q-121 0 -219 -40t-176 -107.5t-135 -155.5t-96 -185t-60.5 -195.5t-25.5 -186.5v-2q0 -10 -1 -20.5 t-1 -20.5zM303 489v39l4 56q4 86 32 197.5t83 212t140 170t206 69.5q84 0 142.5 -36t95 -93t53 -127t16.5 -137v-23q-6 -102 -44 -197.5t-104.5 -169t-160.5 -117.5t-213 -44h-109q-16 0 -33.5 12t-34 27.5t-27.5 30t-13 20.5q-20 20 -26.5 49.5t-6.5 60.5zM348 524 q23 -92 87.5 -136t162.5 -44q51 0 113.5 14.5t118 44t94.5 73.5t45 104q0 41 -24.5 79.5t-86.5 38.5h-10q-2 0 -19 -2q-16 -14 -41.5 -33.5t-53 -38t-56.5 -30.5t-51 -12q-23 0 -38.5 10t-15.5 29v4q2 27 10.5 65.5t24 75.5t36 68.5t48.5 46.5q12 -8 27.5 -20.5t21.5 -16.5 q4 0 7.5 -1t5.5 -1l6 -3l10 -5q35 0 67.5 25.5t45.5 37.5v21q0 4 1 10t1 16q0 4 1 7t1 7v13q0 27 -6.5 61.5t-21.5 66t-41.5 54.5t-69.5 23q-88 0 -160 -60.5t-124 -146.5t-82 -180.5t-32 -159.5v-13q-2 -8 -2 -18v-23v-51z" />
<glyph unicode="&#xab;" horiz-adv-x="1032" d="M72 782q6 -16 29.5 -49t57.5 -72.5t75.5 -82.5t83.5 -78t80 -57.5t65 -22.5l59 2q29 14 43.5 32.5t14.5 47.5v4q0 47 -36 85t-77 75q-35 29 -63.5 60.5t-30.5 59.5q-2 -2 -11 -4l11 9v-3v3l190 143q18 14 23.5 29.5t5.5 31.5v17q-4 31 -35 57.5t-70 30.5l-20 -6q4 2 0 2 q-8 -2 -26 -10l-17 -7l4 4q-4 -4 -19.5 -14t-43.5 -27q-39 -25 -88.5 -55.5t-93.5 -62t-75.5 -59t-33.5 -46.5v2zM469 768q8 -25 55 -84t108.5 -120.5t124 -109.5t103.5 -48l62 2q55 27 55 77v7q0 47 -35 84.5t-76 74.5q-35 29 -63.5 60.5t-32.5 60.5l-1 -1q-1 -1 -7 -3l8 8 v-2v2l193 144q18 14 23 29.5t5 31.5v16q-4 31 -34.5 57.5t-71.5 30.5l-19 -6q4 2 0 2q-8 -2 -25 -9l-18 -7l4 4q-4 -4 -19 -14.5t-44 -26.5q-39 -25 -88 -55.5t-93 -62t-76 -59.5t-36 -46z" />
<glyph unicode="&#xac;" horiz-adv-x="2017" d="M70 164q0 -29 11 -49.5t32 -42.5q4 -4 7 -6.5t11 -8.5q12 -10 23.5 -19t23.5 -17.5t26.5 -16.5t47.5 -8q27 0 53 10l-2 -2q57 12 120.5 24.5t125.5 24.5q8 4 14 4q8 0 15 2q4 -4 9 -8t11 -8q4 -4 16 -12l23 -11q18 -10 24.5 -11t14.5 -5q18 -8 39 -8q25 0 37 11t26 36 l10 29l21 41q10 20 22 43q39 10 92.5 18t108.5 12q0 -10 2 -16q4 -20 6 -42t4 -38q8 -41 23.5 -56.5t52.5 -25.5h-4q29 -10 53.5 -12t53.5 -2q49 0 63 15.5t14 53.5q0 4 -1 9.5t-1 9.5q23 -18 44.5 -32.5t56.5 -29.5q18 -12 34.5 -18t39.5 -6t65 12q35 8 75 22.5t80 32 t75.5 38t62.5 44.5h-2q33 29 52.5 60t19.5 71q0 12 -1.5 20.5t-3.5 14.5v-2q-4 29 -19 56.5t-40 50.5q14 10 25.5 17t21.5 18q39 31 65.5 69.5t26.5 85.5q0 20 -6 45v-2q-12 49 -37.5 85t-60.5 65q-29 25 -68 37q39 14 39 51q0 14 -10 35l2 -7q-12 47 -33 82 q-16 23 -33.5 32t-50.5 9h-20q-29 0 -56.5 -2t-54.5 -6q4 16 4 25q39 10 81 15t83 11l35 6q35 8 51.5 20.5t16.5 41.5q0 8 -11 33q-6 16 -13 33.5t-17 37.5q-16 27 -36 36t-50 9h-13h-28q-12 0 -27 -2q14 39 25 78q35 4 66.5 8t64.5 9l32 4l33 4q37 4 53.5 15t16.5 44v8 q0 6 -2 15q-4 23 -11.5 39t-17.5 39q-29 53 -100 53q-102 -4 -203.5 -21.5t-179.5 -34.5l-29 -28q-6 10 -15.5 19t-27.5 20h2q-25 16 -54.5 28.5t-60.5 18.5q-14 2 -25 4t-13 2q-29 0 -42.5 -12.5t-23.5 -44.5v2q-14 -47 -27.5 -103.5t-27.5 -115.5l-19 -78q-14 -2 -28 -2 t-29 -2q4 14 7 28.5t7 30.5l-2 -2q10 35 16.5 64.5t22.5 70.5q0 4 1 12.5t1 12.5q0 23 -10 40t-41 33q-59 33 -115 50q-25 6 -41 6q-57 0 -69 -62q0 -2 -1 -3t-1 -3q-8 14 -14.5 24.5t-14.5 20.5q-18 16 -35.5 24.5t-56.5 8.5q-49 -2 -112.5 -6t-129 -10.5t-130 -14.5 t-114.5 -16q-27 -4 -41 -16.5t-14 -38.5l2 -13q2 -12 6 -22q4 -6 13 -23l18 -31.5t33 -37.5q31 -33 67 -33q14 0 20.5 1t12.5 3q8 2 29 2q-12 -55 -26.5 -117.5t-26 -122t-20.5 -114t-11 -92.5l2 8q-4 -8 -4 -17v-12q0 -37 20 -61q-37 -2 -59 -54q-20 -59 -42 -140t-40 -166 t-33.5 -162.5t-23.5 -131.5v-18zM358 256q31 113 64 228.5t61 201.5q2 6 4 13.5t2 15.5q0 18 -9 31.5t-27 27.5q18 4 30.5 16.5t16.5 38.5q27 131 62.5 284t70.5 288q20 4 39 4q20 0 41 2q12 2 24 2t23 2h12q-4 -16 -7 -34.5t-7 -37.5q-18 -113 -40 -226.5t-42 -188.5 q-4 -10 -4 -19v-10q0 -29 12 -46.5t41 -33.5l-2 2q18 -14 41.5 -20t46.5 -13q8 -4 14 -4q6 -2 4 -3t29 -1q16 0 21 2q-35 -55 -75 -127.5t-80 -151.5t-77 -157t-63 -143q-4 6 -6.5 11l-4.5 9q-25 29 -42 37t-46 8h-14q-29 -2 -56.5 -3t-56.5 -5zM457 518q0 -49 61 -61 q2 0 6 -1t8 -1h-2q8 -2 19 -2h20q16 0 25 2q27 0 45 10t39 27l4 2q12 14 27.5 35.5t30 46t27.5 49t21 47.5q0 2 1.5 10t1.5 12q2 10 2 15v4q0 10 -5.5 26.5t-19.5 32.5q-16 14 -32.5 27.5t-33.5 21.5l3 -2q-25 16 -52 17q-43 0 -63 -43q-16 -35 -43 -85.5t-51 -95.5l-17 -32 l-14 -29q-8 -21 -8 -33zM788 70l3 2h-3v-2zM811 784h4h-4zM879 776v2v-2zM918 819q2 4 2 8t2 9l-2 -5q4 18 9 40t9 44q6 31 11 61t12 54q12 2 24 2t27 4l18 2q-6 -35 -8 -64.5t-4 -58.5q-2 -8 -2 -22q0 -35 20 -57q-10 2 -28 2h-15q-48 -1 -75 -19zM963 408q12 23 25 46 t26 48q0 -23 1 -45.5t3 -44.5q-14 -2 -29 -2q-14 0 -26 -2zM1243 788q14 10 19 43q20 104 46.5 220t53.5 223l-57 -311v4q-2 -10 -2 -27q0 -29 11 -50.5t27 -37.5q14 -14 25.5 -22.5t22.5 -16.5l14 -12q-23 -6 -42.5 -14.5t-37.5 -18.5q-6 -78 -17.5 -166t-25.5 -174v-4 q-2 49 -3 95t-1 87v53q0 27 2 50q0 29 -6 47t-29 32zM1511 246q2 16 9 33l6 24q45 10 69 10h31q-6 -14 -36 -32.5t-79 -34.5zM1587 541q6 35 19 65q31 14 56.5 19.5t45.5 5.5h8q-10 -18 -44 -42.5t-85 -47.5zM1720 649q0 -2 1 -3t1 -3v-4z" />
<glyph unicode="&#xad;" horiz-adv-x="862" d="M70 545q0 -39 40 -59.5t85 -32.5h90q63 0 117.5 1t108.5 5t114.5 9t134.5 15q37 16 47 36t14 42q0 41 -42 63.5t-93 22.5h-463q-57 0 -104 -23.5t-49 -68.5v-10z" />
<glyph unicode="&#xae;" horiz-adv-x="1351" d="M74 608q0 -115 28.5 -217t91 -180t162 -124t238.5 -46q162 0 292 66.5t222 173t144.5 240.5t56.5 270v-3q2 14 2 27v29q0 119 -33 230.5t-101.5 198.5t-176 139t-255.5 52q-111 0 -201.5 -37.5t-164.5 -100t-130 -145.5t-94 -174.5t-58.5 -182.5t-22.5 -173v-43zM305 578 q0 8 1 17t1 19q2 55 16.5 123t40 136.5t63.5 133t88 114.5t112.5 81t138.5 31q88 0 151.5 -37t105.5 -95.5t62.5 -131t20.5 -146.5v-16q-6 -90 -41 -186.5t-96.5 -176t-148.5 -131t-197 -51.5q-166 0 -242 87.5t-76 228.5zM367 410q18 -23 44.5 -44.5t59.5 -21.5t52.5 11.5 t31.5 28.5t18.5 38.5t10.5 44.5q4 20 10 36.5t18 16.5q10 0 18.5 -12t16.5 -29q18 -31 41 -57.5t72 -26.5q14 0 24.5 1t18.5 6.5t17 16.5t22 34v36q0 8 1 16.5t1 12.5v6q0 23 -5 38.5t-10 31.5v-2q-4 14 -8 26.5t-4 22.5q0 8 2 12q2 20 15.5 39t29.5 41q29 35 56.5 77 t31.5 105v21q0 111 -65.5 170t-188.5 59q-113 0 -168 -46t-73 -144q-8 -35 -14.5 -65.5t-14.5 -61.5q-23 -98 -39 -185.5t-22 -179.5v-73zM653 831q0 27 7.5 54.5t35.5 27.5q18 0 19 -6v-2q0 -20 -18.5 -45t-43.5 -29z" />
<glyph unicode="&#xaf;" horiz-adv-x="817" d="M133 1245q0 -39 39 -58.5t84 -29.5h215h61q29 0 57.5 2t59.5 4t68 6q37 16 47 36t12 40q0 41 -41 62.5t-90 21.5h-360q-55 0 -101.5 -14.5t-50.5 -61.5v-8z" />
<glyph unicode="&#xb0;" horiz-adv-x="569" d="M80 1071q0 -31 14.5 -54.5t37 -41t50 -25.5t54.5 -8q59 0 111 20.5t91 55.5t62.5 82t27.5 100v6q0 37 -12 74t-35.5 66.5t-58.5 47t-82 17.5q-78 0 -128 -30.5t-79 -79t-41 -106.5t-12 -116v-8zM250 1124v9q2 16 8 36.5t18.5 38t29 29.5t36.5 12q16 0 20.5 -18.5 t4.5 -34.5q-4 -35 -31 -56.5t-68 -21.5q-4 0 -6 -1t-6 1z" />
<glyph unicode="&#xb1;" horiz-adv-x="1236" d="M47 352q0 -45 34 -70.5t75 -25.5h256q76 6 157 6q45 0 86 -1t82 -3q33 0 63.5 -1t59.5 -1q80 0 130 16.5t54 65.5l5 92q0 16 -10.5 29.5t-24.5 23.5q-4 0 -16.5 2t-26 3t-25.5 2.5t-14 1.5q-104 -6 -170 -7q-41 0 -75 1t-62 3q-18 0 -36 1.5t-34 1.5q-25 0 -42 -1.5 t-28 -3.5q-20 -6 -35.5 -8t-27.5 -2q-20 0 -49 3t-58 7q-49 6 -102 7q-70 0 -116 -27t-50 -111v-4zM111 1026q0 -43 33.5 -69.5t74.5 -26.5h238v-15q-2 -29 -8.5 -61.5t-14.5 -65.5q-4 -25 -9 -50t-9 -60v-2l-2 -41v-8q0 -41 20.5 -73t77.5 -32q51 0 84 23.5t51.5 61.5 t27.5 85t15 96q8 41 14.5 78t18.5 56q10 6 61.5 9t112.5 7q51 2 103.5 5t94.5 13.5t68.5 27.5t28.5 48l4 94q0 16 -11 29.5t-24 24.5q-4 0 -16 2l-25 4q-12 2 -23.5 3t-13.5 1h-301q4 29 12.5 58.5t18.5 60.5q14 41 25.5 83t11.5 87v49q-23 29 -48.5 46t-53.5 17 q-45 0 -76 -22.5t-51.5 -55t-31.5 -68.5t-18 -63l2 4q0 -2 -2 -2v-2v-2v2q-6 -12 -14 -40.5t-16.5 -59.5t-14.5 -59.5t-8 -40.5q-10 -16 -41 -19.5t-65 -3.5h-54q-14 0 -29.5 1t-29.5 1q-37 0 -70.5 -5t-59.5 -18.5t-41 -39t-17 -68.5v-4z" />
<glyph unicode="&#xb4;" horiz-adv-x="587" d="M244 1442q0 -27 22.5 -46.5t63.5 -19.5q53 0 94 35t68.5 81t41 94t13.5 73v18q0 4 -1 8.5t-1 8.5l-15 28q-14 8 -33.5 16.5t-43.5 8.5q-37 0 -59.5 -13.5t-36 -33t-20.5 -41t-11 -39.5q-4 -6 -4 -10t-3 -8q-4 -14 -13 -26.5t-17 -25.5q-16 -25 -30.5 -48t-14.5 -54v-6z " />
<glyph unicode="&#xb6;" horiz-adv-x="1021" d="M53 821q0 -150 70 -235.5t205 -85.5h28q14 0 27 2l-29 -445v-16q0 -66 30 -99.5t71 -33.5h12q6 0 16 4h-2q37 10 60.5 27.5t39 47t24.5 77t16 114.5l81 1061q4 0 9.5 1t9.5 1q6 0 18 -14l-96 -1151v-19q0 -66 29.5 -99.5t70.5 -33.5h11q8 0 18 4h-2q37 8 60.5 25.5 t39 48.5t24.5 77t15 114l72 1146v7q0 43 -28.5 69.5t-68.5 40.5t-84 19.5t-73 5.5q-106 0 -221 -41t-212 -120t-164 -192.5t-77 -259.5v2v-49z" />
<glyph unicode="&#xb7;" horiz-adv-x="344" d="M63 653q0 -45 30 -76.5t83 -31.5q23 0 45.5 13t41 33.5t29.5 44t11 46.5v8q0 47 -38 71.5t-85 24.5q-57 0 -85.5 -37.5t-31.5 -82.5v-13z" />
<glyph unicode="&#x2219;" horiz-adv-x="344" d="M63 653q0 -45 30 -76.5t83 -31.5q23 0 45.5 13t41 33.5t29.5 44t11 46.5v8q0 47 -38 71.5t-85 24.5q-57 0 -85.5 -37.5t-31.5 -82.5v-13z" />
<glyph unicode="&#xb8;" horiz-adv-x="628" d="M352 -109q0 -35 13.5 -66.5t54.5 -41.5q4 0 7 -1t7 -1q41 0 77 49t46 121l-2 -4l29 110q0 6 1 15.5t1 17.5t1 16.5t1 16.5q0 41 -16.5 72.5t-71.5 31.5q-33 0 -55.5 -15t-37 -40t-22.5 -56.5t-12 -64.5v2l-11 -86q-8 -25 -9 -35t-1 -41z" />
<glyph unicode="&#xba;" horiz-adv-x="815" d="M45 557q0 -51 39 -76.5t84 -42.5h231q80 0 143.5 4t141.5 15q37 23 47 48t14 54q0 53 -41.5 84t-93.5 31h-413q-55 0 -101.5 -19.5t-50.5 -85.5v-12zM90 889q0 -47 21.5 -83t55.5 -60.5t75 -37t80 -12.5q92 0 172.5 32t141 86t96.5 128t42 160v12q0 57 -18.5 113.5 t-54 100.5t-88 71.5t-121.5 27.5q-117 0 -195 -48t-124 -123.5t-64.5 -169t-18.5 -183.5v-14zM281 967q2 39 17 86t43 88t66.5 68.5t88.5 27.5q25 0 41 -14.5t25 -35t12.5 -45t3.5 -44.5v4q-8 -92 -71 -143.5t-161 -51.5h-39l-24 27q0 8 -1 16.5t-1 16.5z" />
<glyph unicode="&#xbb;" horiz-adv-x="1034" d="M74 981q0 -16 4 -31.5t20 -29.5l195 -144l10 -8q-10 2 -10 4q-4 -29 -34 -59.5t-64 -61.5q-41 -37 -75 -74.5t-34 -84.5v-7q0 -51 57 -77l58 -2q27 0 64.5 22.5t79.5 57t84 77.5t77 83t58.5 73t29.5 49l-2 39v-10q4 16 -25.5 44.5t-76 61.5t-98.5 67t-93 58 q-23 10 -38 21.5t-23 17.5l2 -2q-23 20 -28 16t-15 0q-4 0 0 -2l-19 6q-41 -4 -70.5 -30.5t-33.5 -57.5v-16zM471 995q0 -16 5 -31.5t22 -29.5l194 -143l8 -9q-8 2 -8 4q-4 -29 -33.5 -59.5t-64.5 -60.5q-41 -37 -75 -75t-34 -85v-4q0 -53 56 -80l59 -2q27 0 64.5 22.5 t79.5 57.5t84 78t77 82.5t58.5 72.5t29.5 49l-2 39v-2q-4 18 -35.5 46t-75.5 59.5t-94.5 62.5t-89.5 55q-20 10 -35.5 21.5t-23.5 17.5l2 -2q-25 20 -30 16.5t-13 0.5q-4 0 0 -2l-18 6q-41 -4 -72 -31t-35 -57v-17z" />
<glyph unicode="&#xbf;" horiz-adv-x="1220" d="M53 86q0 -76 26.5 -131t74 -91t111 -53.5t136.5 -17.5q43 0 116 13.5t158 37t174 58.5t160.5 76.5t119 91t51.5 104.5v21q0 39 -13.5 63.5t-60.5 54.5h-31q-8 0 -18 1t-13 1q-74 0 -132 -31.5t-119 -74.5q-66 -47 -138.5 -87t-173.5 -40h-12q-8 0 -15.5 1t-15.5 1h-37 q-23 10 -31 24.5t-8 36.5q2 51 35 99.5t80 91.5t104.5 83t110.5 75q78 53 133.5 97t59.5 91l8 215v4q0 31 -10.5 46.5t-25.5 23.5t-33.5 9t-37.5 1q-45 0 -72.5 -9t-43 -25.5t-21.5 -39t-12 -49.5l2 2q-8 -31 -22.5 -68.5t-67.5 -74.5q-20 -16 -41 -31.5t-43 -32.5 q-74 -55 -146.5 -112.5t-131 -123t-95.5 -143t-39 -174.5v-14zM608 1307q0 -29 14.5 -56.5t37 -49t52 -35t58.5 -13.5q37 0 68.5 14.5t55.5 39t38 55t16 63.5v16q0 63 -40 96t-103 33q-37 0 -73 -12t-62.5 -33.5t-44 -51t-17.5 -66.5z" />
<glyph unicode="&#xc0;" horiz-adv-x="1130" d="M68 367q0 -49 4 -104.5t16 -102.5t38 -78t69 -31q47 0 74.5 17.5t43 46t20.5 65.5t9 76q4 41 11 78t28 47q33 20 75 32.5t86 18.5t88 8t83 2h92q20 -10 26.5 -25.5t8.5 -41.5v-2v2v-4v2q0 -4 1 -6t1 -5q0 -4 1 -15t1 -21q2 -16 2 -37v-39v-125q10 -33 33.5 -58.5 t70.5 -25.5q27 0 48.5 12.5t35 31.5t21.5 42t8 43l27 520q-10 41 -17.5 114t-13.5 163q-6 98 -15.5 205.5t-28 199.5t-51 158.5t-83.5 87.5q12 4 20 9t19 11l16 33q0 4 1 9.5t1 9.5v22q0 31 -16.5 86t-48 109.5t-80 95.5t-109.5 41q-47 0 -74.5 -22.5t-27.5 -53.5v-8 q0 -35 16 -63.5t37 -57.5q10 -16 20.5 -29.5t14.5 -29.5q4 -4 4 -8t4 -13q4 -18 10 -38.5t17.5 -41t28 -37t42.5 -24.5q-80 -25 -150.5 -99.5t-128 -163.5t-100.5 -177t-65 -142q-10 -25 -38 -92t-58 -141q-23 -61 -45.5 -115.5t-34.5 -85.5q-43 -29 -65.5 -55.5 t-22.5 -83.5v-96zM500 682q10 53 34.5 125t58.5 142.5t74 133t81 99.5q31 -37 40 -104.5t9 -135.5q0 -41 -1 -82t-5 -74q0 -8 -1.5 -15t-1.5 -13v2l-2 -33q-12 -10 -46.5 -18.5t-76.5 -13.5t-86 -8t-77 -5z" />
<glyph unicode="&#xc1;" horiz-adv-x="1130" d="M68 367q0 -49 4 -104.5t16 -102.5t38 -78t69 -31q47 0 74.5 17.5t43 46t20.5 65.5t9 76q4 41 11 78t28 47q33 20 75 32.5t86 18.5t88 8t83 2h92q20 -10 26.5 -25.5t8.5 -41.5v-2v2v-4v2q0 -4 1 -6t1 -5q0 -4 1 -15t1 -21q2 -16 2 -37v-39v-125q10 -33 33.5 -58.5 t70.5 -25.5q27 0 48.5 12.5t35 31.5t21.5 42t8 43l27 520q-10 41 -17.5 114t-13.5 163q-6 109 -16.5 225.5t-34 212.5t-62.5 158.5t-104 62.5q-10 0 -20.5 -1t-20.5 -3q45 20 79.5 63.5t58.5 90.5t35 92t11 71v23q0 4 -1 8t-1 8l-16 35q-16 10 -40 19.5t-53 9.5 q-43 0 -68.5 -15.5t-41.5 -38t-24.5 -49t-14.5 -47.5q-4 -8 -4 -14q0 -4 -2 -8q-4 -14 -15.5 -28.5t-21.5 -29.5q-20 -31 -36.5 -58.5t-16.5 -61.5v-9q0 -31 27.5 -53t74.5 -22q16 0 25 2q-76 -31 -142.5 -105.5t-122 -161t-96.5 -171.5t-63 -136q-10 -25 -38 -92t-58 -141 q-23 -61 -45.5 -115.5t-34.5 -85.5q-43 -29 -65.5 -55.5t-22.5 -83.5v-96zM500 682q10 53 34.5 125t58.5 142.5t74 133t81 99.5q31 -37 40 -104.5t9 -135.5q0 -41 -1 -82t-5 -74q0 -8 -1.5 -15t-1.5 -13v2l-2 -33q-12 -10 -46.5 -18.5t-76.5 -13.5t-86 -8t-77 -5z" />
<glyph unicode="&#xc2;" horiz-adv-x="1130" d="M68 365q0 -49 4 -103.5t16 -101.5t38 -78t69 -31q47 0 74.5 17.5t43 46t20.5 65.5t9 76q4 41 11 77t28 48q33 20 75 32.5t86 18.5t88 8t83 2h92q20 -10 26.5 -26.5t8.5 -40.5q0 -4 1 -7t1 -8q0 -4 1 -14t1 -20q2 -16 2 -37v-39v-125q10 -33 33.5 -58.5t70.5 -25.5 q27 0 48.5 12.5t35 31.5t21.5 42t8 43l27 520q-10 41 -17.5 114t-13.5 163q-6 106 -16.5 223t-34 214t-62.5 159.5t-104 62.5q-59 0 -115.5 -32.5t-108 -85t-95.5 -118t-80.5 -131t-65.5 -125t-45 -98.5q-10 -27 -38 -94.5t-58 -140.5q-23 -59 -45.5 -113.5t-34.5 -85.5 q-43 -29 -65.5 -56.5t-22.5 -84.5v-96zM500 682q10 53 34.5 125t58.5 142.5t74 133t81 99.5q31 -37 40 -104.5t9 -135.5q0 -41 -1 -82t-5 -74q0 -8 -1.5 -16t-1.5 -14v2l-2 -31q-12 -10 -46.5 -18.5t-76.5 -13.5t-86 -8t-77 -5zM567 1688q27 -55 70 -56q35 0 59.5 23.5 t48.5 54.5q16 18 32 35.5t30 21.5l84 -125l-4 5q8 -14 23.5 -20.5t31.5 -6.5q6 0 11 1t12 1h28q29 41 38 66.5t9 37.5q0 4 -1 10.5t-1 8.5q-8 10 -18 25l-19 28q-16 23 -33.5 52.5t-33.5 58.5l4 -13q-4 4 -7 11.5t-7 11.5l4 -2q-6 8 -18.5 21.5t-27 27.5t-27.5 24.5 t-21 10.5h-19q-4 0 -24.5 -16.5t-48 -39t-55.5 -46t-44 -39.5q-4 -4 -8 -7.5t-8 -7.5l2 2q-29 -27 -44.5 -48t-17.5 -73v-38zM793 1790l8 -14q-6 6 -8 14zM938 1892v4v-4z" />
<glyph unicode="&#xc3;" horiz-adv-x="1075" d="M66 285q0 -29 4 -58.5t16 -53t36.5 -39t65.5 -15.5q68 0 113 61q8 16 9 30.5t1 35.5q0 20 1 46.5t3 51.5t4.5 44.5t2.5 29.5l4 28q2 14 12 21q86 14 172 22.5t174 8.5q2 0 8 -1t15 -1v-15q0 -12 1 -26.5t1 -28.5q2 -18 2 -37v-37v-94v-20q0 -10 -4 -25v-37q0 -18 -2 -31 q0 -8 -1.5 -14t-1.5 -10l3 -8q12 -51 29.5 -61.5t53.5 -10.5h25q51 0 80 20.5t44 52t21.5 69.5t10.5 73q0 10 2 14v-2q2 10 2 23v24q0 23 -1 46.5t-3 46.5q-2 20 -2 38v39v41l8 54v4q31 23 43 42t16 58v10q0 37 -14 61.5t-35 47.5v-2q-10 10 -18.5 19t-12.5 24v-4 q-2 18 -6 56t-9 81t-8 80t-3 53q0 4 -1 7t-1 7q-2 23 -3 48.5t-1 58.5q0 61 -9.5 127.5t-34 122t-66.5 91.5t-107 36q-37 0 -76 -20.5t-74 -48.5t-63.5 -57.5t-47.5 -47.5l-12 -15q-106 -104 -174 -238t-108.5 -279.5t-59 -292t-24.5 -275.5v-49zM373 725q2 20 17.5 66.5 t39 104.5t53 119.5t61 114t63.5 85t61 32.5q8 0 13 -31.5t8 -77.5t4 -100.5t1 -99.5v-117q-4 -10 -4 -20v-21v-32q-16 -16 -48 -24.5t-67.5 -11.5t-70.5 -4t-55 -1h-43q-12 0 -21.5 4t-11.5 14zM381 1679q0 -37 13.5 -52t41.5 -15q23 0 48.5 15t50.5 38l-3 -2 q23 16 44.5 33.5t39.5 17.5q12 0 25.5 -11t28.5 -24q27 -23 53.5 -41t64.5 -18q31 0 63 13.5t58.5 40t45 67.5t18.5 96v18q0 37 -11.5 58.5t-50.5 21.5q-25 0 -40 -18.5t-29 -44.5v2q-10 -16 -21.5 -34.5t-21.5 -18.5t-21.5 9t-23.5 23q-18 18 -41 38t-51 24h-21q-4 0 -9 1 t-14 1q-29 0 -68.5 -12.5t-76.5 -39t-64.5 -69.5t-27.5 -106v-11z" />
<glyph unicode="&#xc4;" horiz-adv-x="1214" d="M68 365q0 -49 4 -103.5t17 -101.5t38 -78t68 -31q49 0 76.5 17.5t43 46t20.5 65.5t9 74q4 41 11 78t28 49q33 20 75 32.5t87 18.5t89 8t83 2h92q23 -10 28 -27.5t7 -41.5q0 -4 1 -7.5t1 -5.5q0 -4 1 -14t1 -20q2 -16 2 -37v-39v-125q10 -33 34.5 -58.5t71.5 -25.5 q27 0 47.5 12.5t35 31.5t22.5 42t8 43l27 518q-10 41 -17.5 113.5t-13.5 163.5q-6 106 -16.5 223t-34 213t-63.5 158.5t-105 62.5q-59 0 -115.5 -33t-108 -84t-96.5 -116.5t-82.5 -131t-65.5 -125t-46 -98.5q-10 -25 -38 -92.5t-56 -140.5q-25 -59 -47.5 -114.5t-34.5 -86.5 q-43 -29 -65.5 -55.5t-22.5 -83.5v-96zM502 680q10 53 34.5 125t58.5 142.5t75 133t82 99.5q31 -37 41 -104.5t10 -135.5q0 -41 -2 -82t-6 -74q0 -8 -1 -14t-1 -12l-2 -33q-12 -10 -47 -18.5t-78 -13.5t-87 -8t-77 -5zM547 1755q0 -57 37 -97t102 -40q29 0 57.5 16.5t51 43 t36 56t13.5 58.5v10q0 59 -47 92t-105 33q-72 0 -107.5 -49t-37.5 -109v-14zM877 1757q0 -57 36.5 -97t102.5 -40q29 0 57.5 16.5t51 43t36 56t13.5 58.5v10q0 59 -47.5 92t-104.5 33q-72 0 -107.5 -49t-37.5 -108v-15z" />
<glyph unicode="&#xc5;" horiz-adv-x="1138" d="M68 362q0 -49 4 -103t16 -100t38 -77t69 -31q47 0 74.5 17.5t43 46t20.5 64.5t9 75q4 41 11 77t28 46q33 20 75 32.5t86 18.5t88 8t83 2h92q20 -10 26.5 -25.5t8.5 -39.5v-2v2v-4v2q0 -4 1 -7.5t1 -5.5q0 -4 1 -14t1 -20q2 -16 2 -37v-39v-123q10 -33 33.5 -58.5 t70.5 -25.5q27 0 48.5 12.5t35 31.5t21.5 42t8 43l27 514q-10 39 -17.5 111.5t-13.5 162.5q-6 106 -16.5 221t-34 210.5t-62.5 158t-104 62.5q-59 0 -115.5 -33t-108 -84t-95.5 -115.5t-80.5 -130t-65.5 -124t-45 -97.5q-10 -25 -38 -92.5t-58 -138.5q-23 -59 -45.5 -113.5 t-34.5 -85.5q-43 -29 -65.5 -55.5t-22.5 -83.5v-95zM500 676q10 53 34.5 122.5t58.5 140.5t74 132.5t81 97.5q31 -37 40 -103.5t9 -133.5q0 -41 -1 -81t-5 -73q0 -8 -1.5 -15t-1.5 -13v2l-2 -31q-12 -12 -46.5 -19.5t-76.5 -12.5t-86 -8t-77 -5zM651 1655q0 -66 43 -111 t111 -45q59 0 111.5 20.5t91.5 55.5t62.5 82t27.5 100v4q0 39 -12.5 76t-35 65.5t-58.5 47t-81 18.5q-63 0 -111 -28.5t-80 -72.5t-49.5 -96.5t-19.5 -101.5v-14zM821 1681v9q0 16 7.5 36.5t19.5 38t28.5 29.5t36.5 12q14 0 18.5 -17t4.5 -34q-2 -37 -29.5 -58.5 t-68.5 -21.5q-9 0 -17 6z" />
<glyph unicode="&#xc6;" horiz-adv-x="1871" d="M68 362q0 -49 4 -103t17 -100t40 -77t70 -31q49 0 77.5 17.5t44 46t21.5 64.5t10 75q4 41 11.5 77t27.5 46q35 20 78 32.5t89 18.5t91 8t84 2h96q23 -10 28 -26.5t7 -40.5q0 -4 1 -7.5t1 -5.5q0 -4 1 -14t1 -20q2 -16 2 -37v-39v-123q12 -33 37 -58.5t74 -25.5q23 0 36 1 t23 3q14 2 28.5 3t35.5 1q45 0 112.5 14.5t140.5 39t146.5 60.5t133 78t97.5 91t42 102q0 117 -123 117q-72 0 -128.5 -37t-109.5 -84q-47 -41 -94 -74.5t-107 -33.5q-66 0 -108 49l16 284q33 35 79 59.5t100.5 42t110.5 30t112 22.5q61 12 116.5 25.5t97.5 32t66.5 45 t26.5 67.5v4q0 29 -14.5 54.5t-38 44t-52 28.5t-59.5 10q-63 0 -120.5 -12t-116.5 -29h2q-53 -14 -103.5 -26.5t-105.5 -12.5h-4q-8 0 -11 -6v33l4 14q2 72 29 115t70 66.5t100 32t123 8.5q47 0 94 -3l94 -4q98 29 103 107v8q0 49 -22.5 80t-59.5 47t-83 21.5t-91 5.5 q-16 0 -32.5 -1t-33.5 -1q-14 0 -26.5 -1t-22.5 -1h-57q-20 0 -43 1t-49 1q-78 0 -163 -7.5t-151 -35.5q-23 41 -53.5 65.5t-71.5 24.5q-61 0 -118.5 -33t-110.5 -84t-98 -115.5t-84 -130t-68 -124t-47 -97.5q-10 -25 -38 -92.5t-60 -138.5q-25 -59 -47.5 -113.5 t-36.5 -85.5q-43 -29 -66.5 -55.5t-23.5 -83.5v-95zM514 676q10 53 35.5 122.5t60.5 140.5t76 132.5t84 97.5q33 -37 42 -103.5t9 -133.5q0 -41 -2 -81t-4 -73q0 -8 -1 -15t-1 -13v2l-2 -31q-14 -12 -50 -19.5t-80 -12.5t-89 -8t-78 -5z" />
<glyph unicode="&#xc7;" horiz-adv-x="1181" d="M68 455q0 -162 77.5 -264.5t225.5 -133.5v-8v2l-15 -98q-4 -14 -7 -22.5t-4 -16.5t-1 -18v-27q0 -41 16.5 -78t69.5 -47h16q25 0 50.5 15.5t47 41t36 60.5t20.5 73l-2 -6l37 127q74 14 162 44t162.5 73t126 97.5t55.5 115.5v6q0 47 -27 76t-72 29q-53 0 -104 -27 t-107 -61q-63 -41 -136.5 -79t-159.5 -38q-53 0 -87 16.5t-52.5 44t-26 64.5t-7.5 80q0 10 1.5 21t1.5 24q0 33 16 101.5t44 152.5t67.5 171t86 158.5t98.5 117.5t105 46q6 0 9 -2l-3 -41q0 -29 2.5 -62.5t13.5 -62t33.5 -47t65.5 -18.5q51 0 85 24.5t54.5 60.5t29.5 78 t9 76v25q0 25 -2 61.5t-12 72.5t-31.5 63.5t-60.5 35.5q-59 12 -123 13q-143 0 -256 -64.5t-199 -167t-147.5 -227.5t-101 -246t-59 -223t-21.5 -158v-24z" />
<glyph unicode="&#xc8;" horiz-adv-x="1153" d="M68 367q0 -59 30.5 -118t79.5 -105t108.5 -74.5t119.5 -28.5q45 0 109.5 14.5t136 40t142 60t128 79t94.5 93.5t41 102q0 119 -119 119q-72 0 -125 -38t-104 -85q-45 -41 -92.5 -76t-102.5 -35q-35 0 -62.5 16.5t-47 41t-29.5 56.5t-10 63v12q2 80 45 132t108.5 86 t144 53.5t152.5 35.5q59 12 112.5 24.5t93.5 31t64.5 46t26.5 68.5v4q0 31 -14.5 56.5t-37 44t-51 28.5t-57.5 10q-61 0 -117.5 -13t-113.5 -30h2q-49 -12 -98.5 -25.5t-102.5 -13.5h-4q-10 0 -12 -6v33l4 16q2 72 28.5 116t68.5 67.5t98.5 32t117.5 8.5q45 0 91.5 -2 t91.5 -4q94 25 98 108v6q0 51 -22.5 82t-57.5 47.5t-79 21.5t-87 5q-16 0 -32.5 -1t-32.5 -1q-12 0 -24.5 -1t-23.5 -1h-55q-23 0 -45 1t-47 1q-66 0 -137.5 -6t-131 -25.5t-99.5 -58.5t-44 -103v-14q0 -31 3.5 -57.5t7.5 -51.5v2q0 -12 2 -31.5t4 -37t4 -30.5l2 -13 q-2 -6 -2 -17q-4 -98 -26.5 -192t-45.5 -186q-25 -96 -44 -187.5t-23 -181.5v-14zM512 1956q0 -35 16.5 -63.5t36.5 -57.5q10 -16 21.5 -29.5t15.5 -29.5q2 -4 2 -9q0 -4 4 -12q6 -23 14.5 -48.5t25 -48t43 -37.5t69.5 -15q29 0 51.5 8t38.5 20l16 33q0 4 1 9t1 10v22 q0 31 -16 86t-48 109.5t-79 95.5t-111 41q-47 0 -74.5 -22.5t-27.5 -53.5v-8z" />
<glyph unicode="&#xc9;" horiz-adv-x="1153" d="M68 365q0 -59 30.5 -117t79.5 -104t108.5 -74.5t119.5 -28.5q45 0 109.5 14.5t136 40t142 60t128 79t94.5 93.5t41 102q0 119 -119 119q-72 0 -125 -38t-104 -85q-45 -41 -92.5 -76t-102.5 -35q-35 0 -62.5 16.5t-47 41t-29.5 56.5t-10 63v12q2 80 45 132t108.5 86 t144 52.5t152.5 34.5q59 12 112.5 25.5t93.5 32t64.5 46t26.5 68.5v4q0 29 -14.5 54.5t-37 44t-51 29.5t-57.5 11q-61 0 -117.5 -13t-113.5 -30h2q-49 -14 -98.5 -26.5t-102.5 -12.5h-4q-10 0 -12 -6v33l4 16q2 72 28.5 115t68.5 66.5t98.5 32t117.5 8.5q45 0 91.5 -1 t91.5 -3q94 25 98 106v8q0 51 -22.5 82t-57.5 47.5t-79 21.5t-87 5q-16 0 -32.5 -1t-32.5 -1q-12 0 -24.5 -1t-23.5 -1h-55q-23 0 -45 1t-47 1q-66 0 -137.5 -6t-131 -25.5t-99.5 -58.5t-44 -103v-16q0 -29 3.5 -55.5t7.5 -51.5q0 -12 2 -30.5t4 -36t4 -30.5l2 -13 q-2 -6 -2 -17q-4 -98 -26.5 -192t-45.5 -186q-25 -96 -44 -187.5t-23 -181.5v-16zM553 1665q0 -31 27.5 -53.5t74.5 -22.5q61 0 109.5 41t80.5 95.5t48 109.5t16 86v23q0 4 -1 8t-1 8l-16 35q-18 10 -41 19t-51 9q-43 0 -70 -15t-43 -37.5t-23.5 -49.5t-13.5 -47 q-4 -8 -4 -14q0 -4 -4 -9q-4 -14 -15.5 -28.5t-21.5 -28.5q-20 -31 -35.5 -58.5t-15.5 -62.5v-8z" />
<glyph unicode="&#xca;" horiz-adv-x="1153" d="M68 365q0 -59 30.5 -117t79.5 -104t108.5 -74.5t119.5 -28.5q45 0 109.5 14.5t136 40t142 60t128 79t94.5 93.5t41 102q0 117 -119 117q-72 0 -125 -37t-104 -84q-45 -41 -92.5 -76t-102.5 -35q-35 0 -62.5 15.5t-47 41t-29.5 57.5t-10 63v10q2 82 45 134t108.5 86 t144 52.5t152.5 34.5q59 12 112.5 24.5t93.5 31t64.5 46t26.5 68.5v4q0 31 -14.5 56.5t-37 44t-51 28.5t-57.5 10q-61 0 -117.5 -13t-113.5 -30h2q-49 -12 -98.5 -25.5t-102.5 -13.5h-4q-10 0 -12 -6v35l4 14q2 72 28.5 116t68.5 67.5t98.5 32t117.5 8.5q45 0 91.5 -2 t91.5 -5q94 25 98 107v8q0 51 -22.5 82t-57.5 47.5t-79 21.5t-87 5q-16 0 -32.5 -1t-32.5 -1q-12 0 -24.5 -1t-23.5 -1h-55q-23 0 -45 1t-47 1q-66 0 -137.5 -6.5t-131 -25.5t-99.5 -58t-44 -103v-16q0 -29 3.5 -55.5t7.5 -51.5v2q0 -12 2 -31.5t4 -37t4 -30.5l2 -13 q-2 -6 -2 -17q-4 -98 -26.5 -191t-45.5 -187q-25 -94 -44 -186.5t-23 -180.5v-16zM485 1647q23 -57 68 -58q37 0 61.5 23.5t49.5 54.5q16 20 31.5 36.5t29.5 20.5l84 -125l-4 5q8 -14 23.5 -20.5t31.5 -6.5q4 0 10.5 1t12.5 1h28q29 41 38 66.5t9 37.5q0 4 -1 10.5t-1 8.5 q-8 10 -18 26.5t-18 26.5q-16 25 -34 53.5t-34 57.5l4 -13q-4 4 -7 11.5t-7 11.5l4 -2q-6 8 -18.5 21.5t-27 27.5t-27.5 24.5t-21 10.5h-19q-4 0 -24.5 -16.5t-48 -39t-56.5 -46t-45 -39.5l-14 -15l2 2q-31 -27 -45.5 -48t-16.5 -73v-36zM709 1747l10 -14q-8 8 -10 14z M856 1849v4v-4z" />
<glyph unicode="&#xcb;" horiz-adv-x="1153" d="M68 365q0 -59 30.5 -118t79.5 -105t108.5 -73.5t119.5 -27.5q45 0 109.5 14.5t136 40t142 60t128 79t94.5 93.5t41 102q0 117 -119 117q-72 0 -125 -37t-104 -84q-45 -41 -92.5 -76t-102.5 -35q-35 0 -62.5 15.5t-47 41t-29.5 56.5t-10 61v13q2 82 45 134t108.5 86 t144 52.5t152.5 34.5q59 12 112.5 24.5t93.5 31t64.5 46t26.5 68.5v4q0 29 -14.5 54.5t-37 44t-51 29.5t-57.5 11q-61 0 -117.5 -13t-113.5 -30h2q-49 -14 -98.5 -26.5t-102.5 -12.5h-4q-10 0 -12 -6v33l4 16q2 72 28.5 115t68.5 66.5t98.5 32t117.5 8.5q45 0 91.5 -2.5 t91.5 -4.5q94 27 98 109v8q0 49 -22.5 80t-57.5 48.5t-79 22.5t-87 5q-16 0 -32.5 -1t-32.5 -1q-12 0 -24.5 -1t-23.5 -1h-55q-23 0 -45 1t-47 1q-66 0 -137.5 -6.5t-131 -26.5t-99.5 -58t-44 -102v-16q0 -29 3.5 -55.5t7.5 -53.5v2q0 -12 2 -30.5t4 -36t4 -30.5l2 -13 q-2 -6 -2 -17q-4 -98 -26.5 -192t-45.5 -186q-25 -94 -44 -186.5t-23 -180.5v-16zM395 1749q0 -57 36 -97t101 -40q29 0 57.5 16.5t51.5 43t36 56t13 58.5v10q0 59 -47 92t-104 33q-72 0 -108 -49t-36 -109v-14zM723 1751q0 -57 37 -97t102 -40q29 0 57.5 16.5t51 43t36 56 t13.5 58.5v10q0 59 -47 92t-107 33q-35 0 -61.5 -13.5t-45 -36t-27.5 -51t-9 -57.5v-14z" />
<glyph unicode="&#xcc;" d="M59 1438q0 -33 16.5 -57.5t41 -42t55.5 -26.5t59 -9q29 0 52.5 4t50.5 14h-2q18 6 38.5 11t45.5 5h2v-2l-49 -1024q-2 -16 -32 -19t-65 -3t-67.5 -2t-58 -12.5t-44 -32t-20.5 -62.5v-4q0 -37 18.5 -63.5t47 -42t62.5 -22.5t64 -7q20 0 80 8t135.5 22.5t158.5 33t153.5 39 t117 42t50.5 41.5v13q0 45 -20.5 72.5t-52.5 42t-71 19.5t-77 5q-16 0 -32 -1t-30 -1h-24h-3l5 55v94q0 25 1 46.5t3 43.5l4 60v-2q2 14 2 31v34q8 166 19.5 334t45.5 338h13q16 0 34.5 -2t38.5 -6q39 -6 86 -6h25q8 0 17.5 1t13.5 1q47 14 55 37.5t10 48.5v16 q0 66 -39 103.5t-104 60.5h-19q-8 0 -16 1t-18 1t-20.5 1t-18.5 1h-31q-8 0 -19.5 -1t-21.5 -1h-25q-4 0 -18 -2h4q-10 0 -43 -6t-70.5 -13.5t-70.5 -15.5t-45 -10l2 2q-37 -4 -82 -6q-49 -2 -103.5 -8t-100.5 -23.5t-79 -51.5t-35 -93v-2zM342 2028q0 -35 16.5 -64 t36.5 -57q10 -16 20.5 -29.5t14.5 -30.5q4 -4 4 -10q0 -4 4 -10q6 -23 13.5 -48.5t24 -49t43 -39t69.5 -15.5q29 0 51.5 9.5t38.5 21.5l16 33q0 4 1 9t1 9v21q0 31 -16 87t-48 110.5t-79 95t-109 40.5q-47 0 -74.5 -22.5t-27.5 -54.5v-6z" />
<glyph unicode="&#xcd;" d="M59 1438q0 -33 16.5 -57.5t41 -42t55.5 -26.5t59 -9q29 0 52.5 5t50.5 13h-2q18 6 38.5 11t45.5 5h2v-2l-49 -1024q-2 -16 -32 -19t-65 -3t-67.5 -2t-58 -12.5t-44 -32t-20.5 -62.5v-4q0 -37 18.5 -63.5t47 -42t62.5 -22.5t64 -7q20 0 80 8t135.5 22.5t158.5 33t153.5 39 t117 42t50.5 41.5v13q0 45 -20.5 72.5t-52.5 42t-71 19.5t-77 5h-62q-8 0 -14 -1t-10 -1h-3v2l5 53v94q0 25 1 46.5t3 43.5l4 60v-2q2 14 2 31v34q8 166 19.5 334t45.5 338h13q16 0 34.5 -2t38.5 -6q39 -6 86 -6h25q8 0 17.5 1t13.5 1q47 14 55 37.5t10 48.5v16 q0 66 -39 103.5t-104 60.5h-19q-8 0 -16 1t-18 1t-20.5 1t-18.5 1h-31q-8 0 -19.5 -1t-21.5 -1h-25q-4 0 -18 -2q-14 0 -47 -6t-69 -13.5t-67.5 -14.5t-41.5 -9l2 2q-16 -4 -37 -5t-45 -3q-49 -2 -103.5 -8t-100.5 -23.5t-79 -51.5t-35 -93v-2zM420 1759q0 -31 27.5 -54.5 t74.5 -23.5q61 0 109.5 41t80 96.5t48 111t16.5 85.5v23q0 4 -1 8t-1 8l-16 35q-16 10 -40 19.5t-52 9.5q-43 0 -69 -15.5t-42 -38t-23.5 -49t-13.5 -47.5q-4 -8 -4 -14q0 -4 -4 -8q-4 -14 -15.5 -28.5t-21.5 -31.5q-20 -29 -36.5 -56.5t-16.5 -62.5v-8z" />
<glyph unicode="&#xce;" d="M59 1436q0 -33 16.5 -57.5t41 -42t55.5 -27t59 -9.5q29 0 52.5 5.5t50.5 15.5h-2q18 4 38.5 9t45.5 5h2v-2l-49 -1022q-2 -16 -32 -19t-65 -3t-67.5 -2t-58 -12.5t-44 -32t-20.5 -62.5v-4q0 -37 18.5 -63.5t47 -42t62.5 -22.5t64 -7q20 0 80 8t135.5 22.5t158.5 33 t153.5 39t117 42t50.5 41.5v13q0 45 -20.5 72.5t-52.5 42t-71 19.5t-77 5q-16 0 -32 -1t-30 -1q-8 0 -14 -1t-10 -1h-3v2l5 55v92q0 27 1 48.5t3 43.5l4 58v-2q2 16 2 33v32q8 168 19.5 335t45.5 337h13q16 0 34.5 -2t38.5 -6q39 -6 86 -6h25q8 0 17.5 1t13.5 1 q47 16 55 38.5t10 47.5v16q0 66 -39 103.5t-104 60.5h-19q-8 0 -16 1t-18 1t-20.5 1t-18.5 1h-31q-8 0 -19.5 -1t-21.5 -1h-25q-4 0 -18 -2h4q-10 0 -43 -6t-70.5 -13.5t-70.5 -14.5t-45 -9l2 2q-16 -4 -37 -5t-45 -3q-49 -2 -103.5 -8.5t-100.5 -23.5t-79 -51t-35 -93v-2z M350 1739q27 -57 70 -58q35 0 58.5 25t49.5 55q16 18 30.5 36t31.5 22l82 -125l-4 4q8 -16 23.5 -21.5t31.5 -5.5q6 0 11 1t11 1h29q29 41 38 66.5t9 36.5q0 4 -1 11t-1 9q-6 10 -17 25.5t-18 27.5q-16 23 -34.5 52.5t-34.5 58.5l4 -12q-4 4 -6 11t-6 11l4 -2 q-6 8 -19.5 21.5t-27 28t-27.5 24.5t-23 10h-18q-2 0 -22.5 -16.5t-48 -39t-56.5 -46t-45 -39.5q-6 -10 -12 -13q-31 -27 -45.5 -48t-16.5 -74v-37zM573 1841l11 -14q-9 4 -11 14zM719 1944v4v-4z" />
<glyph unicode="&#xcf;" d="M59 1434q0 -33 16.5 -57.5t41 -42t55.5 -27t59 -9.5q29 0 52.5 5.5t50.5 15.5h-2q18 6 38.5 11t45.5 5h2v-2l-49 -1024q-2 -16 -32 -18t-65 -2t-67.5 -2t-58 -12.5t-44 -32t-20.5 -62.5v-4q0 -37 18.5 -63.5t47 -42t62.5 -22.5t64 -7q20 0 80 8t135.5 22.5t158.5 33 t153.5 39t117 42t50.5 41.5v13q0 45 -20.5 71.5t-52.5 42t-71 20.5t-77 5q-16 0 -32 -1t-30 -1q-8 0 -14 -1t-10 -1h-3v2l5 55v92q0 25 1 47.5t3 42.5l4 60v-2q2 16 2 30v35q8 166 19.5 334t45.5 336h13q16 0 34.5 -2t38.5 -6q39 -6 86 -6h25q8 0 17.5 1t13.5 1 q47 16 55 38.5t10 49.5v14q0 66 -39 103.5t-104 60.5h-19q-8 0 -16 1t-18 1t-20.5 1t-18.5 1h-31q-8 0 -19.5 -1t-21.5 -1h-25q-4 0 -18 -2h4q-10 0 -43 -5t-70.5 -13.5t-70.5 -15.5t-45 -9l2 2q-16 -4 -37 -5t-45 -3q-49 -2 -103.5 -8.5t-100.5 -23.5t-79 -51t-35 -93v-2z M272 1823q0 -57 36 -98.5t102 -41.5q29 0 57.5 17.5t50 43t34.5 56.5t13 60v10q0 59 -46 92t-103 33q-72 0 -108 -49.5t-36 -108.5v-14zM598 1825q0 -57 37 -98t102 -41q29 0 56.5 17t50 43t36 56.5t13.5 59.5v10q0 59 -47 92t-105 33q-35 0 -61.5 -13.5t-45 -36t-27.5 -51 t-9 -57.5v-14z" />
<glyph unicode="&#xd0;" horiz-adv-x="1183" d="M-41 791q0 -27 11.5 -46.5t29.5 -34t40.5 -25.5t45.5 -19v-7q-4 -25 -5 -49t-3 -49l-2 -63q-2 -20 -2 -41v-39v-64l-2 -37q0 -16 -1 -30.5t-1 -28.5q0 -72 10 -114t41 -65.5t84 -30.5t139 -7q147 0 287.5 54.5t251 148.5t181.5 218t77 263v-2q2 12 2 25v28 q0 137 -42 274.5t-125 245t-207 175t-290 67.5h-127q-29 -10 -58.5 -20.5t-57 -26.5t-49 -38.5t-31.5 -53.5q-4 -123 -15.5 -239t-25.5 -232q-59 -2 -106.5 -34t-49.5 -91v-12zM334 350q0 8 1 18.5t1 22.5v21q0 12 2 22q0 8 1 17.5t1 15.5q2 53 5 102t7 99q74 4 148.5 13 t173.5 26q39 23 49 49t14 55q0 55 -44 86t-97 31h-211q12 61 24.5 124.5t28.5 133.5q16 23 30.5 29t43.5 6q84 0 147.5 -43t106.5 -107.5t65.5 -141.5t22.5 -145v-14q-6 -82 -46 -158.5t-104.5 -137t-148.5 -97.5t-176 -37q-6 0 -17.5 1t-21.5 3z" />
<glyph unicode="&#xd1;" horiz-adv-x="1247" d="M104 315q0 -37 1 -76.5t4 -80.5q0 -39 31.5 -78t72.5 -39q70 0 97.5 44t35.5 93q2 23 5 70t7 107.5t9.5 127t9.5 127t7 108.5t5 70q0 10 5 44t9 61l95 -223h-2q8 -20 27.5 -61.5t41 -84.5t41 -80.5t27.5 -52.5v2q4 -6 7 -13t7 -18q16 -33 39 -72.5t52.5 -74.5t65.5 -58.5 t79 -23.5q59 0 100 33t67.5 79t42 97t25.5 88v-2q2 4 3 11t3 12l6 55q6 41 13.5 96t14.5 109.5t12.5 100.5t5.5 69l2 37v-3q6 63 6 164l4 68l4 55q0 8 1 16.5t1 16.5q2 33 2 65q0 33 6 62l4 61q-2 8 -3 17.5t-3 17.5q-6 31 -13 59.5t-21.5 51t-40 36t-68.5 13.5 q-41 0 -65.5 -24.5t-38 -60.5t-19.5 -75t-10 -67v4l-4 -21q-2 -10 0 -8q-4 -66 -5.5 -135.5t-1.5 -134.5v-131q0 -66 -4 -134v-53q0 -16 -1 -34.5t-3 -38.5q0 -6 -1 -9.5t-2 -8.5t-2 -16.5t-1 -31.5l-4 -45v-6l-9 -37q-5 -20 -3 -21q-16 0 -37 28t-43.5 70t-44 94t-39 101 t-30.5 89t-17 61l-49 164q-4 10 -16.5 45t-28.5 75q-14 39 -27.5 77t-18.5 50q-41 53 -99 90t-130 37q-39 0 -63.5 -20.5t-40 -49t-22.5 -58t-11 -50.5q-2 -18 -7 -59t-9.5 -88t-8.5 -89t-4 -61l-2 -41q0 -16 -1 -35.5t-3 -39.5q-2 -23 -3 -47.5t-3 -49.5l-2 -69l-10 -156 q-4 -72 -6.5 -140.5t-2.5 -142.5zM403 1651q0 -37 13.5 -52.5t42.5 -15.5q25 0 49 15.5t49 37.5l-2 -2q23 16 45.5 34t40.5 18q12 0 25.5 -11.5t27.5 -23.5q27 -23 54.5 -41.5t66.5 -18.5q31 0 62.5 13.5t58.5 40t45 67.5t18 96v19q0 37 -10 58.5t-51 21.5q-25 0 -40 -18.5 t-30 -45.5v2q-10 -16 -21 -34.5t-22 -18.5q-10 0 -21 9t-26 24q-18 18 -40.5 37.5t-51.5 23.5h-20q-4 0 -9.5 1t-13.5 1q-29 0 -68.5 -12t-77.5 -39t-66 -70t-28 -106v-10z" />
<glyph unicode="&#xd2;" horiz-adv-x="1722" d="M74 559q0 -125 44 -221t121.5 -162.5t184 -100.5t231.5 -34q190 0 369.5 64.5t321 180t231.5 275.5t102 348q0 8 1 17.5t1 19.5q0 129 -48 238.5t-132 188.5t-198.5 124t-247.5 45q-127 0 -247 -39t-227.5 -105.5t-198.5 -158.5t-157.5 -197.5t-105.5 -222.5t-45 -233 v-27zM379 627v24q4 94 60.5 207t143.5 210t194.5 162.5t211.5 65.5q88 0 162 -38.5t127 -102t84 -142.5t31 -159v-12q-4 -104 -64.5 -201.5t-154 -173.5t-207 -121t-219.5 -45q-80 0 -148 22.5t-117 63.5t-76.5 101.5t-27.5 138.5zM752 1944q0 -35 17 -64t38 -57 q10 -14 21.5 -28.5t15.5 -31.5q4 -4 4 -8t4 -12q6 -23 14 -48.5t24.5 -48t44.5 -38t71 -15.5q29 0 52 8.5t42 20.5l16 33q0 4 1 9t1 9v23q0 31 -16.5 86t-49 109.5t-81.5 95.5t-113 41q-49 0 -77.5 -23t-28.5 -53v-8z" />
<glyph unicode="&#xd3;" horiz-adv-x="1722" d="M74 559q0 -125 44 -221t121.5 -162.5t184 -100.5t231.5 -34q190 0 369.5 64.5t321 180t231.5 274.5t102 347q0 10 1 19.5t1 19.5q0 129 -48 238.5t-132 188.5t-198.5 124t-247.5 45q-127 0 -247 -39t-227.5 -105.5t-198.5 -158.5t-157.5 -197.5t-105.5 -222.5t-45 -233 v-27zM379 627v24q4 94 60.5 207t143.5 210t194.5 162.5t211.5 65.5q88 0 162 -38.5t127 -102t84 -142.5t31 -159v-12q-4 -104 -64.5 -201.5t-154 -173.5t-207 -121t-219.5 -45q-80 0 -148 22.5t-117 63.5t-76.5 101.5t-27.5 138.5zM811 1659q0 -31 28.5 -53.5t75.5 -22.5 q63 0 112.5 41t83.5 95.5t50.5 109.5t16.5 86v22q0 4 -1 8.5t-1 8.5l-19 35q-16 10 -39.5 19t-52.5 9q-45 0 -72.5 -15t-44 -37.5t-25 -49.5t-14.5 -47q-4 -8 -4 -15q0 -4 -2 -8q-4 -14 -15 -28.5t-22 -28.5q-23 -31 -39 -58.5t-16 -62.5v-8z" />
<glyph unicode="&#xd4;" horiz-adv-x="1722" d="M74 557q0 -125 44 -221t121.5 -161.5t184 -99.5t231.5 -34q127 0 250 28.5t234.5 83t207 132t167 174t114.5 210t51 238.5q0 10 1 18.5t1 18.5q0 129 -48 238.5t-132 188.5t-198.5 124t-247.5 45q-127 0 -247 -39t-227.5 -105.5t-198.5 -158.5t-157.5 -197.5 t-105.5 -221.5t-45 -232v-29zM379 627v22q4 94 60.5 207t143.5 210t194.5 162.5t211.5 65.5q88 0 162 -38.5t127 -101t84 -142.5t31 -160v-12q-4 -104 -64.5 -200.5t-154 -172.5t-207 -121t-219.5 -45q-80 0 -148 22.5t-117 63.5t-76.5 101.5t-27.5 138.5zM788 1655 q27 -55 72 -56q35 0 60.5 24t52.5 54q16 20 31.5 37t29.5 21l86 -125l-4 4q8 -14 24.5 -20.5t33.5 -6.5q6 0 11 1t11 1h31q29 41 38 66.5t9 38.5q0 4 -1 10t-1 8q-6 10 -17.5 26.5t-19.5 26.5q-35 51 -70 111l4 -12q-4 4 -7 11t-7 11l4 -2q-6 8 -18.5 21.5t-26.5 28 t-28.5 24.5t-22.5 10h-21q-4 0 -25.5 -16.5t-49 -39t-56 -46t-45.5 -39.5q-4 -4 -8 -7t-8 -8l2 3q-31 -27 -46 -48.5t-18 -72.5v-39zM1020 1757l8 -14q-2 4 -4 7t-4 7zM1169 1860v4v-4z" />
<glyph unicode="&#xd5;" horiz-adv-x="1722" d="M74 557q0 -125 44 -221t121.5 -161.5t184 -99.5t231.5 -34q127 0 250 28.5t234.5 83t207 132t167 174t114.5 209t51 237.5q0 10 1 19.5t1 19.5q0 129 -48 237.5t-132 187.5t-198.5 124t-247.5 45q-127 0 -247 -39t-227.5 -105.5t-198.5 -158.5t-157.5 -197.5 t-105.5 -221.5t-45 -232v-27zM379 625v24q2 63 28.5 135t71.5 143.5t103.5 137t126 117t139.5 81t141 29.5q88 0 162 -39t127 -101t84 -141t31 -159v-12q-4 -104 -64.5 -201.5t-154 -172.5t-207 -121t-219.5 -46q-80 0 -148 22.5t-117 64.5t-76.5 102.5t-27.5 136.5z M713 1653q0 -37 14 -52.5t43 -15.5q25 0 50.5 15.5t49.5 37.5l-2 -2q23 16 46.5 34t41.5 18q12 0 25.5 -11.5t30.5 -23.5q27 -23 54.5 -41.5t68.5 -18.5q31 0 63.5 13.5t60 40t46 67.5t18.5 96v19q0 37 -11.5 58.5t-49.5 21.5q-27 0 -42.5 -18.5t-31.5 -45.5v2 q-10 -16 -21.5 -34.5t-21.5 -18.5t-22.5 9t-24.5 24q-20 18 -44 37.5t-53 23.5h-18q-4 0 -10 1t-15 1q-29 0 -70.5 -12t-79.5 -39t-66.5 -70t-28.5 -106v-10z" />
<glyph unicode="&#xd6;" horiz-adv-x="1722" d="M74 557q0 -125 44 -221t121.5 -161.5t184 -99.5t231.5 -34q127 0 250 28.5t234.5 83t207 132t167 174t114.5 210t51 238.5q0 8 1 17.5t1 19.5q0 129 -48 237.5t-132 187.5t-198.5 124t-247.5 45q-127 0 -247 -39t-227.5 -105.5t-198.5 -158.5t-157.5 -197.5 t-105.5 -221.5t-45 -232v-27zM379 627v22q2 63 28.5 135t71.5 143.5t103.5 137t126 117t139.5 81t141 29.5q88 0 162 -39t127 -101t84 -141t31 -159v-12q-4 -104 -64.5 -201.5t-154 -172.5t-207 -121t-219.5 -46q-80 0 -148 22.5t-117 64.5t-76.5 102.5t-27.5 138.5z M733 1743q0 -57 38 -97t103 -40q31 0 60 16t51.5 43t36.5 56.5t14 58.5v10q0 59 -48 92t-107 33q-72 0 -109 -49t-39 -109v-14zM1069 1745q0 -57 39 -97t104 -40q31 0 59.5 16t51.5 43t37 56.5t14 58.5v10q0 59 -48 92t-107 33q-74 0 -111 -49t-39 -109v-14z" />
<glyph unicode="&#xd7;" horiz-adv-x="929" d="M111 565q0 -41 34 -69q33 -33 74 -33q49 0 93 41t85 86q23 27 43.5 48t36.5 30q14 -4 44 -29t69 -55q53 -47 105.5 -85t90.5 -38q33 0 50 24l-2 -2q35 45 45 68.5t10 34.5q0 12 -1 15t-11 13q-2 2 -14.5 18.5t-12.5 20.5l-201 178q18 23 38 40.5t42 33.5l-2 -2 q31 23 58.5 48.5t48.5 58.5l22 34v25q0 49 -33 78q-37 31 -71 31q-45 0 -84 -28t-68 -50l-4 -4v2q-6 -6 -23.5 -21.5t-37 -34t-38 -36t-26.5 -25.5h-2q-20 0 -46 21.5t-54 50.5q-35 35 -73 64.5t-79 29.5q-45 0 -80 -43q-8 -16 -13 -29.5t-5 -25.5q0 -47 35 -82l153 -138v-2 h2l-14 -16q-14 -20 -32.5 -39.5t-37 -38t-35 -36t-32.5 -35.5h2l-27 -31q-10 -16 -16 -32t-6 -34z" />
<glyph unicode="&#xd8;" horiz-adv-x="1720" d="M74 551q0 -186 96 -306t254 -171q6 -29 28.5 -49.5t63.5 -20.5q35 0 60.5 10.5t48.5 26.5h30q190 0 369.5 64.5t321 178t231.5 270.5t102 343v37q0 145 -62.5 266t-172.5 201q0 2 1 3t1 5v14q0 53 -24.5 79t-90.5 26q-33 0 -76 -33q-98 29 -200 29q-127 0 -247 -38 t-227.5 -104.5t-198.5 -156.5t-157.5 -195.5t-105.5 -220.5t-45 -229v-29zM379 618v25q4 94 60.5 204.5t143.5 207t194.5 161t211.5 64.5q33 0 68 -6q-72 -96 -149 -214t-150.5 -241t-139 -241.5t-110.5 -217.5q-61 39 -95 104.5t-34 153.5zM784 297l67 120q36 65 73 129 t72.5 124.5t63 108.5t46 80t22.5 38l-4 -4l25 33q18 25 40.5 58.5t49.5 70.5t49 71q49 -59 77 -132.5t28 -149.5v-13q-4 -98 -60.5 -191t-143.5 -167t-194 -121t-211 -55z" />
<glyph unicode="&#xd9;" horiz-adv-x="1064" d="M84 582q0 -90 11 -185.5t46 -174.5t99.5 -130t173.5 -51q113 0 205 42t161.5 111.5t116.5 162t74 192.5q4 47 7 89t7 83v-2q10 121 18.5 227.5t14.5 231.5l2 82v-3q2 18 3 39t1 37q0 18 -1 37t-1 41q0 16 -1 39t-1 45q-33 86 -123 86q-59 0 -97 -30.5t-42 -84.5l-4 -34 q0 -16 -2 -36t-7 -40v-41q-2 -23 -2 -43v-39v-57q0 -27 2.5 -53.5t2.5 -53.5v-55v-41q0 -18 -3 -39q-2 -35 -9 -93.5t-19 -125t-32.5 -135t-50.5 -123t-72 -89t-97 -34.5q-37 0 -59.5 27.5t-35 69.5t-17.5 92t-5 95v127q2 10 4 25.5t2 26.5l2 6q2 23 8.5 66.5t15.5 97 t19.5 112t20.5 111.5t18 95t15 61v-3l6 25q0 25 -5 48.5t-17.5 42t-33 30.5t-53.5 12q-43 0 -70.5 -24.5t-48.5 -49.5q-31 -90 -55 -173t-41.5 -164.5t-29 -165.5t-15.5 -176q-2 -35 -4 -77t-2 -89zM403 1905q0 -35 16.5 -64t35.5 -57q10 -14 21 -28.5t16 -31.5q4 -4 4 -8 t4 -12q6 -23 13 -48.5t23.5 -48t42 -38t68.5 -15.5q29 0 51.5 9.5t38.5 19.5l19 35q0 4 1 8t1 8v23q0 31 -16.5 86t-48 109.5t-80 95.5t-109.5 41q-47 0 -74 -22.5t-27 -53.5v-8z" />
<glyph unicode="&#xda;" horiz-adv-x="1064" d="M84 582q0 -90 11 -185.5t46 -174.5t99.5 -130t173.5 -51q113 0 205 42t161.5 111.5t116.5 160.5t74 192q4 47 7 90t7 84v-2q10 121 18.5 227.5t14.5 229.5l2 84v-3q2 18 3 39t1 37q0 18 -1 37t-1 41q0 16 -1 39t-1 45q-33 86 -123 86q-59 0 -97 -30.5t-42 -86.5l-4 -32 q0 -16 -2 -36t-7 -40v-41q-2 -23 -2 -43v-41v-55q0 -27 2 -54q2 -29 3 -55v-53v-41q0 -18 -3 -39q-2 -37 -9 -95.5t-19 -125t-32.5 -134t-50.5 -122t-72 -89t-97 -34.5q-37 0 -59.5 27.5t-35 69.5t-17.5 92t-5 95v125q2 12 4 27.5t2 26.5l2 6q2 23 8.5 66.5t15.5 97 t19.5 112t20.5 111.5t18 95t15 61v-3l6 25q0 25 -5 48.5t-17.5 42t-33 30.5t-53.5 12q-43 0 -70.5 -24.5t-48.5 -51.5q-61 -178 -97 -337.5t-44 -339.5q-2 -35 -4 -77t-2 -89zM465 1612q0 -31 27.5 -53.5t74.5 -22.5q61 0 108.5 41t79 95t48 109.5t16.5 86.5v22q0 4 -1 8.5 t-1 8.5l-16 35q-16 10 -39 19t-51 9q-43 0 -70 -15.5t-43 -38t-23.5 -49t-13.5 -46.5q-4 -8 -4 -13q0 -4 -4 -8q-4 -16 -14 -31l-21 -28q-20 -29 -36.5 -57.5t-16.5 -63.5v-8z" />
<glyph unicode="&#xdb;" horiz-adv-x="1064" d="M84 582q0 -90 11 -185.5t46 -174.5t99.5 -130t173.5 -51q113 0 205 42t161.5 111.5t116.5 160.5t74 192q4 47 7 90t7 84v-2q10 119 18.5 225.5t14.5 231.5l2 81v-2q2 20 3 40t1 38q0 16 -1 34.5t-1 41.5q0 16 -1 38.5t-1 45.5q-33 86 -123 86q-59 0 -97 -30.5t-42 -84.5 l-4 -32q0 -18 -2 -37t-7 -41v-41q-2 -20 -2 -41v-41v-55q0 -29 2.5 -55.5t2.5 -53.5v-55v-39q0 -18 -3 -41q-2 -35 -9 -93.5t-19 -125t-32.5 -134t-50.5 -122t-72 -89t-97 -34.5q-37 0 -59.5 27.5t-35 68.5t-17.5 91t-5 97v125q2 12 4 26.5t2 27.5l2 6q2 23 8.5 65.5 t15.5 97t19.5 113t20.5 110.5t18 94t15 60v-2l6 25q0 49 -22.5 91t-86.5 42q-43 0 -70.5 -24.5t-48.5 -49.5q-61 -178 -97 -337.5t-44 -339.5q-2 -35 -4 -78t-2 -88zM371 1620q23 -57 67 -57q35 0 59.5 23.5t49.5 53.5q16 20 31.5 37t29.5 21l82 -123l-2 2q6 -14 21.5 -20.5 t31.5 -6.5q6 0 12.5 1t10.5 1h29q29 41 38 67t9 38q0 4 -1 10t-1 8q-6 10 -17.5 26.5t-17.5 27.5q-16 25 -33.5 53t-34.5 57l2 -12q-2 4 -5 11t-7 11l4 -2q-6 8 -18.5 21.5t-26.5 28t-27.5 24.5t-21.5 10h-19q-4 0 -24.5 -16.5t-48 -39t-55 -46t-44.5 -39.5q-4 -4 -8 -7 t-6 -7v2q-29 -27 -43 -48.5t-16 -72.5v-37zM594 1720l8 -14q-8 8 -8 14zM737 1823v4v-4z" />
<glyph unicode="&#xdc;" horiz-adv-x="1064" d="M84 582q0 -90 11 -185.5t46 -174.5t99.5 -130t173.5 -51q113 0 205 42t161.5 111.5t116.5 160.5t74 192q4 47 7 90t7 84v-2q10 119 18.5 225.5t14.5 231.5l2 81v-2q2 20 3 40t1 38q0 16 -1 34.5t-1 41.5q0 16 -1 38.5t-1 45.5q-33 86 -123 86q-59 0 -97 -30.5t-42 -84.5 l-4 -32q0 -18 -2 -37t-7 -41v-41q-2 -20 -2 -41v-41v-55q0 -29 2.5 -55.5t2.5 -53.5v-55v-39q0 -18 -3 -41q-2 -35 -9 -93.5t-19 -125t-32.5 -134t-50.5 -122t-72 -89t-97 -34.5q-37 0 -59.5 27.5t-35 68.5t-17.5 91t-5 97v125q2 12 4 26.5t2 27.5l2 6q2 23 8.5 65.5 t15.5 97t19.5 113t20.5 110.5t18 94t15 60v-2l6 25q0 49 -22.5 91t-86.5 42q-43 0 -70.5 -24.5t-48.5 -49.5q-61 -178 -97 -337.5t-44 -339.5q-2 -35 -4 -78t-2 -88zM309 1757q0 -57 36 -97t101 -40q29 0 57.5 16.5t50 43t35 56t13.5 58.5v10q0 59 -47 92t-102 33 q-35 0 -61.5 -13t-45 -35.5t-28 -51.5t-9.5 -57v-15zM635 1759q0 -57 37 -97t100 -40q29 0 57.5 16.5t50 43t35 56t13.5 58.5v10q0 59 -46 92t-104 33q-35 0 -61.5 -13t-45 -35.5t-27.5 -51.5t-9 -57v-15z" />
<glyph unicode="&#xdd;" d="M66 1067q0 -55 15 -102t39.5 -88t53.5 -76t55 -64q23 -25 39.5 -44t16.5 -23q-2 -53 -13.5 -114.5t-23.5 -121t-21.5 -121t-13.5 -129.5v-2q0 -23 4 -47t16.5 -45.5t36 -35t60.5 -13.5q57 0 106 32.5t58 92.5q14 82 29.5 154.5t33.5 141t44 138.5t63 145l-2 -2 q16 27 49.5 87.5t74.5 136.5q27 51 56.5 105t56.5 101.5t49.5 85t36.5 58.5q27 47 34 85t13 79v14q0 45 -20.5 77t-83.5 32q-47 0 -79 -19.5t-54.5 -50.5t-38 -67.5t-27.5 -71.5q-16 -41 -20 -56q-8 -12 -22.5 -38.5t-34 -58.5t-40 -68.5t-41.5 -69.5v2 q-33 -55 -60.5 -105.5t-39.5 -70.5q0 2 -8 2h-17h-6q-45 0 -65.5 15.5t-30.5 49.5v74l2 19q2 45 11.5 83.5t19.5 77.5q10 41 20.5 79t14.5 77v6q0 47 -31 89t-90 42q-70 0 -112 -42t-64.5 -103.5t-31.5 -130t-11 -121.5v2l-6 -62v-20zM430 1667q0 -31 27.5 -53.5t74.5 -22.5 q61 0 108.5 41t79.5 95.5t48 109.5t16 86v23q0 4 -1 8t-1 8l-16 35q-16 10 -38.5 19t-51.5 9q-43 0 -69.5 -15t-42 -37.5t-24 -49.5t-14.5 -47q-4 -8 -4 -14q0 -4 -4 -9q-4 -14 -14 -28l-21 -29q-20 -31 -36.5 -58.5t-16.5 -62.5v-8z" />
<glyph unicode="&#xde;" horiz-adv-x="1236" d="M53 145q16 -70 45 -87t88 -17q53 0 90 30.5t46 80.5v-2q2 8 2 16t2 16v-2q0 6 4 27l24 47l20 8q19 8 49 19.5t65.5 26t70.5 26.5q45 16 79 29.5t58 25.5l-2 -2q82 43 169 105.5t159 139.5t120 167t54 186v25q0 94 -41 161.5t-108.5 110.5t-155.5 63.5t-180 20.5 q-35 0 -103.5 -8t-146.5 -25q2 27 3 47.5t1 36.5l4 41q0 29 -8 60.5t-24.5 57.5t-44 43t-66.5 17q-41 0 -62.5 -16t-50.5 -57l-6 -21q-6 -135 -27.5 -292.5t-46.5 -323.5q-25 -164 -46 -324t-30 -307zM391 555q4 63 11.5 123.5t16.5 113t17 95.5t15 69l-2 -2q2 4 3 9 q9 43 37.5 67.5t67.5 38.5t85 18.5t89 4.5q72 0 113 -17.5t41 -77.5v-16q-2 -66 -52.5 -138.5t-124 -135t-158.5 -105.5t-159 -47z" />
<glyph unicode="&#xdf;" horiz-adv-x="2185" d="M68 438q0 -111 45 -186.5t119.5 -122.5t174 -67.5t209.5 -20.5q135 0 242 42t184 118q72 -98 202 -140.5t282 -42.5q147 0 261 49.5t191.5 132.5t119.5 191.5t46 229.5v16q0 90 -50 153.5t-127 109.5t-170 77t-177 55q-90 27 -151.5 48.5t-61.5 35.5v2v8q76 72 162 126.5 t192 54.5q27 0 48.5 -7.5t41.5 -17.5q27 -12 52.5 -21.5t58.5 -9.5q53 0 84 34t35 79v10q0 49 -28 91t-71 72t-95 46t-101 16q-59 0 -133 -22.5t-151 -61t-149.5 -90t-130 -110t-94 -119.5t-41.5 -119v-10q0 -61 32 -102t86.5 -70t123 -47.5t141.5 -36.5q72 -16 140.5 -34.5 t123 -46.5t88 -68.5t33.5 -100.5v-12q-8 -139 -97 -211t-242 -72q-86 0 -140.5 23.5t-86.5 57.5t-47 74t-23 73l2 -2l-4.5 9l-4.5 9q16 61 21 133v19q0 90 -50 153.5t-127 108.5t-169 76.5t-178 56.5q-90 27 -151.5 47t-61.5 37v2v6q37 35 77.5 67.5t83.5 58t91.5 41 t101.5 15.5q29 0 49.5 -8t42.5 -18q25 -10 50.5 -20.5t60.5 -10.5q53 0 82.5 33.5t33.5 78.5v11q0 51 -27.5 93t-70.5 71.5t-95 46t-99 16.5q-59 0 -133 -22.5t-151 -61.5t-150.5 -90t-131 -109.5t-94.5 -120t-41 -118.5v-10q0 -61 33 -103.5t86 -71t122.5 -47t143.5 -36.5 q70 -16 139.5 -35t124 -46.5t88 -68.5t33.5 -100v-11q-8 -141 -98 -211.5t-244 -70.5q-61 0 -100 14t-63.5 38t-40 51.5t-28 54t-25.5 52t-31.5 44t-44 30t-62.5 11.5q-141 0 -141 -127v-21z" />
<glyph unicode="&#xe0;" horiz-adv-x="1075" d="M66 285q0 -29 4 -57.5t16 -53t36.5 -40t65.5 -15.5q68 0 113 61q8 16 9 30.5t1 35.5q0 20 1 46.5t3 51.5t4.5 44.5t2.5 29.5q2 14 4 29.5t12 19.5q86 14 172 23.5t174 9.5q2 0 8 -1t15 -1v-17q0 -10 1 -24.5t1 -30.5q2 -16 2 -35v-37v-94v-22q0 -10 -4 -23v-37 q0 -18 -2 -33q0 -8 -1.5 -14t-1.5 -10l3 -8q12 -51 29.5 -61.5t53.5 -10.5h25q51 0 80 20.5t44 53t21.5 70.5t10.5 73q0 8 2 12v-2q2 10 2 23v24q0 23 -1 47.5t-3 47.5q-2 18 -2 36v39v41l8 54v4q31 25 43 43t16 59v10q0 37 -14 61.5t-35 47.5v-2q-10 10 -18.5 19t-12.5 24 v-4q-2 18 -6 56t-9 81t-8 81t-3 54q0 2 -1 5t-1 7q-2 23 -3 48.5t-1 58.5q0 57 -8.5 118.5t-29 115t-56 92t-91.5 49.5q18 4 33.5 10t30.5 16l16 33q0 4 1 9t1 10v22q0 31 -16.5 86t-48 109.5t-78.5 95.5t-111 41q-47 0 -73.5 -22.5t-26.5 -53.5v-8q0 -35 16.5 -63.5 t34.5 -57.5q10 -14 21.5 -28.5t15.5 -30.5q4 -4 4 -9q0 -4 4 -12q4 -18 11.5 -41.5t19.5 -45t32.5 -38t53.5 -22.5q-35 -6 -70 -27.5t-65.5 -48.5t-56 -53.5t-42.5 -42.5l-12 -15q-106 -104 -174 -238t-108.5 -280.5t-59 -293t-24.5 -275.5v-49zM373 725q2 20 17.5 67.5 t39 105.5t53 119.5t61 114t63.5 85t61 32.5q8 0 13 -31.5t8 -77.5t4 -100.5t1 -99.5v-119q-4 -10 -4 -20v-19v-32q-16 -16 -48 -24.5t-67.5 -11.5t-70.5 -4t-55 -1h-43q-12 0 -21.5 3t-11.5 13z" />
<glyph unicode="&#xe1;" horiz-adv-x="1075" d="M66 285q0 -29 4 -57.5t16 -53t36.5 -40t65.5 -15.5q68 0 113 61q8 16 9 30.5t1 35.5q0 20 1 46.5t3 51.5t4.5 44.5t2.5 29.5q2 14 4 29.5t12 19.5q86 14 172 23.5t174 9.5q2 0 8 -1t15 -1v-17q0 -10 1 -24.5t1 -30.5q2 -16 2 -35v-37v-94v-22q0 -10 -4 -23v-37 q0 -18 -2 -33q0 -8 -1.5 -14t-1.5 -10l3 -8q12 -51 29.5 -61.5t53.5 -10.5h25q51 0 80 20.5t44 53t21.5 70.5t10.5 73q0 8 2 12v-2q2 10 2 23v26q0 23 -1 46.5t-3 46.5q-2 18 -2 36v39v41l8 54v4q31 25 43 43t16 59v10q0 37 -14 61.5t-35 47.5v-2q-10 10 -18.5 19t-12.5 24 v-4q-2 18 -6 56t-9 81t-8 81t-3 54q0 4 -1 6t-1 6q-2 23 -3 48.5t-1 58.5q0 61 -9.5 127.5t-34 123t-66.5 92.5t-107 36q-37 0 -76 -20.5t-74 -48t-63.5 -58.5t-47.5 -49l-12 -15q-106 -104 -174 -238t-108.5 -280.5t-59 -293t-24.5 -275.5v-49zM373 725q2 20 17.5 67.5 t39 105.5t53 119.5t61 114t63.5 85t61 32.5q8 0 13 -31.5t8 -77.5t4 -100.5t1 -99.5v-119q-4 -10 -4 -20v-19v-32q-16 -16 -48 -24.5t-67.5 -11.5t-70.5 -4t-55 -1h-43q-12 0 -21.5 3t-11.5 13zM539 1690q0 -31 27.5 -53.5t74.5 -22.5q61 0 109.5 41t80 95t48 109.5 t16.5 86.5v22q0 4 -1 8t-1 9l-16 34q-16 10 -40 19.5t-53 9.5q-43 0 -68.5 -15.5t-42 -38t-23.5 -49t-13 -47.5q-4 -8 -4 -14q0 -4 -4 -8q-4 -14 -15.5 -28.5t-21.5 -28.5q-20 -31 -36.5 -58.5t-16.5 -62.5v-8z" />
<glyph unicode="&#xe2;" horiz-adv-x="1075" d="M66 285q0 -29 4 -57.5t16 -53t36.5 -40t65.5 -15.5q68 0 113 61q8 16 9 30.5t1 35.5q0 20 1 46.5t3 51.5t4.5 44.5t2.5 29.5l4 28q2 14 12 21q86 14 172 23.5t174 9.5q2 0 8 -1t15 -1v-17q0 -12 1 -25.5t1 -29.5q2 -16 2 -35v-37v-94v-22q0 -10 -4 -25v-37q0 -18 -2 -31 q0 -8 -1.5 -14t-1.5 -10l3 -8q12 -51 29.5 -61.5t53.5 -10.5h25q51 0 80 20.5t44 52t21.5 70.5t10.5 74q0 8 2 12v-2q2 10 2 23v24q0 23 -1 46.5t-3 46.5q-2 20 -2 38v39v41l8 54v4q31 23 43 42t16 60v10q0 37 -14 60.5t-35 46.5v-2q-10 10 -18.5 20t-12.5 23v-2 q-2 18 -6 56t-9 81t-8 80t-3 53q0 4 -1 7t-1 7q-2 20 -3 46t-1 61q0 61 -9.5 127.5t-34 122t-66.5 91.5t-107 36q-37 0 -76 -20.5t-74 -48.5t-63.5 -58.5t-47.5 -48.5l-12 -13q-106 -104 -174 -239t-108.5 -280.5t-59 -292t-24.5 -275.5v-49zM373 725q2 20 17.5 66.5 t39 104.5t53 119.5t61 114t63.5 85t61 32.5q8 0 13 -31.5t8 -77.5t4 -99.5t1 -98.5v-119q-4 -10 -4 -20v-19v-34q-16 -16 -48 -24.5t-67.5 -11.5t-70.5 -4t-55 -1h-43q-12 0 -21.5 4t-11.5 14zM471 1673q27 -55 68 -55q37 0 60.5 23.5t49.5 54.5q16 18 30.5 35.5t31.5 21.5 l82 -125l-5 4q8 -14 23.5 -20t32.5 -6q6 0 11 1t11 1h29q29 41 38 66.5t9 37.5q0 4 -1 10.5t-1 8.5q-8 10 -18.5 26.5t-16.5 26.5q-18 25 -35.5 53.5t-33.5 56.5l4 -12q-4 4 -6.5 11.5t-6.5 11.5l4 -2q-6 8 -19 21l-28 28q-14 14 -27.5 24.5t-21.5 10.5h-18 q-2 0 -23.5 -16.5t-49.5 -39t-55.5 -46t-43.5 -40.5q-4 -4 -6 -7t-7 -5q-31 -27 -45 -48.5t-16 -72.5v-39zM694 1776l11 -15q-9 9 -11 15zM840 1878v4v-4z" />
<glyph unicode="&#xe3;" horiz-adv-x="1075" d="M66 285q0 -29 4 -58.5t16 -53t36.5 -39t65.5 -15.5q68 0 113 61q8 16 9 30.5t1 35.5q0 20 1 46.5t3 51.5t4.5 44.5t2.5 29.5l4 28q2 14 12 21q86 14 172 22.5t174 8.5q2 0 8 -1t15 -1v-15q0 -12 1 -26.5t1 -28.5q2 -18 2 -37v-37v-94v-20q0 -10 -4 -25v-37q0 -18 -2 -31 q0 -8 -1.5 -14t-1.5 -10l3 -8q12 -51 29.5 -61.5t53.5 -10.5h25q51 0 80 20.5t44 52t21.5 69.5t10.5 73q0 10 2 14v-2q2 10 2 23v24q0 23 -1 46.5t-3 46.5q-2 20 -2 38v39v41l8 54v4q31 23 43 42t16 58v10q0 37 -14 61.5t-35 47.5v-2q-10 10 -18.5 19t-12.5 24v-4 q-2 18 -6 56t-9 81t-8 80t-3 53q0 4 -1 7t-1 7q-2 23 -3 48.5t-1 58.5q0 61 -9.5 127.5t-34 122t-66.5 91.5t-107 36q-37 0 -76 -20.5t-74 -48.5t-63.5 -57.5t-47.5 -47.5l-12 -15q-106 -104 -174 -238t-108.5 -279.5t-59 -292t-24.5 -275.5v-49zM373 725q2 20 17.5 66.5 t39 104.5t53 119.5t61 114t63.5 85t61 32.5q8 0 13 -31.5t8 -77.5t4 -100.5t1 -99.5v-117q-4 -10 -4 -20v-21v-32q-16 -16 -48 -24.5t-67.5 -11.5t-70.5 -4t-55 -1h-43q-12 0 -21.5 4t-11.5 14zM383 1681q0 -39 13.5 -53t41.5 -14q23 0 48.5 15.5t50.5 37.5l-2 -2 q23 16 44 33.5t39 17.5q12 0 25.5 -11t28.5 -24q27 -23 53.5 -41t65.5 -18q31 0 62.5 13.5t58 40t45 67.5t18.5 96v19q0 37 -11.5 58t-50.5 21q-25 0 -40 -18t-29 -45v2q-10 -16 -21.5 -34.5t-21.5 -18.5t-21.5 9t-23.5 23q-18 18 -42 38t-52 24h-19q-4 0 -9 1t-13 1 q-29 0 -69 -12.5t-77 -39t-64.5 -69.5t-27.5 -106v-11z" />
<glyph unicode="&#xe4;" horiz-adv-x="1077" d="M66 285q0 -29 4 -58.5t16 -53t36.5 -39t65.5 -15.5q68 0 113 61q8 16 9 30.5t1 35.5q0 20 1 46.5t3 51.5t4.5 44.5t2.5 29.5l4 28q2 14 12 21q86 14 172 22.5t174 8.5q2 0 8 -1t15 -1v-15q0 -12 1 -26.5t1 -28.5q2 -18 2 -37v-37v-94v-20q0 -10 -4 -25v-37q0 -18 -2 -31 q0 -8 -1.5 -14t-1.5 -10l3 -8q12 -51 29.5 -61.5t53.5 -10.5h25q51 0 80 20.5t44 52t21.5 69.5t10.5 73q0 10 2 14v-2q2 10 2 23v24q0 23 -1 46.5t-3 46.5q-2 20 -2 38v39v41l8 54v4q31 23 43 41t16 59v10q0 37 -14 61.5t-35 47.5v-2q-10 10 -18.5 19t-12.5 24v-4 q-2 18 -6 56t-9 81t-8 80t-3 53q0 4 -1 7t-1 7q-2 20 -3 47t-1 60q0 61 -9.5 127.5t-33 122t-65.5 91.5t-109 36q-37 0 -76 -20.5t-74 -48.5t-63.5 -57.5t-47.5 -47.5l-12 -15q-104 -104 -173 -238t-108.5 -279.5t-59 -292t-25.5 -275.5v-49zM373 725q2 20 17.5 66.5 t39 103.5t53 119.5t61 114t63.5 84t61 32.5q8 0 13 -31.5t8 -77.5t4 -99.5t1 -98.5v-119q-4 -10 -4 -20v-19v-32q-16 -16 -48 -24.5t-67.5 -11.5t-70.5 -4t-55 -1h-43q-12 0 -21.5 4t-11.5 14zM416 1753q0 -57 35.5 -97t101.5 -40q29 0 57.5 16.5t51 43t36 56t13.5 58.5v10 q0 59 -47.5 92t-104.5 33q-35 0 -61.5 -13.5t-45 -36t-27.5 -51t-9 -57.5v-14zM741 1755q0 -57 37 -97t103 -40q29 0 56.5 16.5t50 43t35.5 56t13 58.5v10q0 59 -47 92t-104 33q-35 0 -61.5 -13t-45 -36t-28 -51.5t-9.5 -57.5v-14z" />
<glyph unicode="&#xe5;" horiz-adv-x="1075" d="M66 283q0 -29 4 -57.5t16 -52t36.5 -39t65.5 -15.5q70 0 113 59q8 16 9 30.5t1 35.5q0 20 1 45.5t3 50.5t4.5 44t2.5 30l4 28q2 14 12 21q86 14 172 22.5t174 8.5q2 0 8 -1t15 -1v-15q0 -12 1 -25.5t1 -29.5q2 -16 2 -35v-37v-94v-20q0 -10 -4 -23v-37q0 -18 -2 -33 q0 -6 -1.5 -12t-1.5 -10l3 -10q12 -49 29.5 -59.5t53.5 -10.5h25q51 0 80 20.5t44 52t21.5 68.5t10.5 72q0 10 2 14v-2q2 10 2 21v26q0 23 -1 46.5t-3 46.5q-2 18 -2 36v39v41l8 51v5q31 23 43 42t16 60v8q0 37 -14 61.5t-35 47.5v-2q-10 10 -18.5 19t-12.5 24v-4 q-2 16 -6 55t-9 81t-8 78.5t-3 53.5q0 4 -1 6t-1 6q-2 23 -3 48.5t-1 58.5q0 61 -9.5 126.5t-34 120t-66.5 90t-107 35.5q-37 0 -76 -20.5t-74 -48t-63 -56.5l-48 -47l-12 -14q-106 -104 -174 -237.5t-108.5 -276.5t-59 -288.5t-24.5 -272.5v-49zM373 719q2 20 17.5 66 t39 103.5t53 119t61 111.5t63.5 83t61 33q8 0 13 -30.5t8 -77t4 -99.5t1 -98v-117q-4 -10 -4 -20v-19v-33q-16 -16 -48 -24t-67.5 -11.5t-70.5 -4.5t-55 -1h-43q-12 0 -21.5 4.5t-11.5 14.5zM573 1663q0 -66 43 -111t111 -45q59 0 111.5 20.5t91.5 55.5t62.5 82t27.5 100v4 q0 39 -12.5 76t-35 65.5t-58 47t-80.5 18.5q-63 0 -111.5 -28.5t-80.5 -72.5t-49.5 -96.5t-19.5 -101.5v-14zM743 1690v8q0 16 7.5 36.5t19.5 38t28.5 30t37.5 12.5q14 0 18 -17.5t4 -34.5q-2 -37 -29.5 -58.5t-68.5 -21.5q-9 1 -17 7z" />
<glyph unicode="&#xe6;" horiz-adv-x="1994" d="M66 283q0 -29 4 -57.5t17 -52t39 -39t69 -15.5q70 0 116 59q8 16 9.5 30.5t1.5 35.5q0 20 1 45.5t3 50.5t4 44t4 30l4 28q2 14 10 21q92 14 180 22.5t181 8.5q4 0 10 -1t12 -1v-15q0 -12 1 -25.5t1 -29.5q2 -16 2 -35v-37v2l-8 -233q16 -55 33.5 -66.5t58.5 -11.5h19 q23 -4 52.5 -6t57.5 -2h70q33 0 112.5 12t180 36.5t208 58.5t197.5 76t149.5 92t61.5 106v10q0 49 -23.5 78.5t-88.5 29.5q-43 0 -83 -17t-81 -42q-16 -12 -34 -21.5t-36 -17.5q-113 -61 -248 -106t-276 -45h-31q2 78 6 132t8 100t9.5 91t11.5 101q25 14 110.5 20t200.5 12 q98 2 199.5 8.5t184.5 23.5t138.5 48t59.5 84v8q0 109 -123 109q-74 0 -139.5 -7t-132.5 -16h-23q-10 0 -20 -2h2q-80 -10 -158 -17t-154 -7h-35q-27 0 -52 1t-42 11l2 14v11q0 2 -1 3t-1 5l2 8q4 78 23.5 124t56.5 72.5t94.5 37t141.5 14.5q27 0 86 1t127 5q74 4 134 7 t89 3q39 2 78 28.5t39 69.5v7q0 49 -27 78.5t-68 47t-90 22.5t-96 5h-55h-29q-12 0 -22 -2q-8 0 -14.5 -1t-12.5 -1h-16q-158 0 -306.5 -19.5t-296.5 -64.5q-27 59 -70.5 97t-115.5 38q-37 0 -77 -20.5t-76.5 -48t-66.5 -56t-48 -47.5l-15 -14q-109 -104 -179 -237.5 t-112 -276.5t-61.5 -288.5t-27.5 -272.5v-49zM387 719q2 20 17.5 66t40 103.5t55 119t63.5 111.5t67 83t62 33q8 0 14.5 -30.5t9.5 -77t4 -99.5t1 -98v-117q-4 -10 -4 -20v-19v-33q-18 -16 -51 -24t-70 -11.5t-73 -4.5t-58 -1h-45q-31 1 -33 19z" />
<glyph unicode="&#xe7;" horiz-adv-x="1257" d="M68 492q0 -213 100 -314.5t289 -126.5q-6 -18 -6 -39l-15 -98q-4 -14 -7 -22.5t-4 -16.5t-1 -18v-27q0 -41 16.5 -78t69.5 -47q4 0 8 -1t8 -1q53 0 98.5 56.5t57.5 136.5l-2 -7l37 127v37q72 12 158 40t160.5 68t125.5 93t56 115v6q0 47 -32 75.5t-87 28.5 q-57 0 -113.5 -29.5t-120.5 -66.5q-68 -43 -144.5 -81t-166.5 -38q-55 0 -96 19.5t-68 53.5t-39 77t-12 90v12q0 6 2 16q4 111 43 213.5t103.5 194.5t147.5 176t175 158q14 10 20.5 13t20.5 3q31 0 39 -25.5t12 -56.5q4 -29 9 -55.5t18.5 -49t39 -35.5t68.5 -13 q39 0 60.5 11t34 31.5t16.5 46t8 54.5v31q0 49 -12.5 109.5t-40 113.5t-70.5 90t-106 37q-84 0 -167 -37t-160 -96.5t-147.5 -136t-131 -156.5t-106.5 -155.5t-77 -135.5q-41 -80 -52 -169t-17 -167v-34z" />
<glyph unicode="&#xe8;" horiz-adv-x="1312" d="M68 180q0 -47 20.5 -74.5t53 -42t72.5 -18.5t77 -4h67q33 0 111 13.5t176 37t203.5 57t192.5 76.5t145.5 94.5t60.5 106.5v10q0 51 -23.5 81t-84.5 30q-43 0 -83 -18.5t-79 -43.5q-14 -12 -33 -21l-35 -18q-111 -63 -244 -108t-268 -45h-30l2 78v-2q2 51 6 90t7 77.5 t8 82t11 102.5q27 16 110 22.5t194 12.5q96 2 195 8t180 22.5t134.5 48t57.5 85.5v8q0 111 -119 110q-72 0 -136.5 -7t-129.5 -15q-10 -2 -23 -2q-10 0 -20 -2h2q-78 -8 -154 -15.5t-149 -7.5h-33q-27 0 -51.5 1t-40.5 11v13v12v8v8q4 80 22.5 127.5t55 73t93 35.5t138.5 16 q25 0 83 1t124 5q72 4 131 6.5t88 2.5q39 2 76 29.5t37 68.5v8q0 49 -26 80t-65.5 48.5t-88 22.5t-93.5 5h-55h-29q-10 0 -20 -2h6q-10 0 -17.5 -1t-13.5 -1h-18q-168 0 -327 -23.5t-318 -79.5q-61 -25 -74.5 -54.5t-15.5 -70.5q-2 -10 -2 -20v-16q0 -35 8 -64t30 -63 l-32 -713q-6 -12 -11.5 -36t-9.5 -51l-8 -55q-4 -28 -6 -53q-2 -10 -3 -17t-3 -15v-7l-6 -10v-39zM569 1939q0 -35 17.5 -63.5t38.5 -56.5l20 -29q10 -14 14 -31q4 -4 5 -8q0 -4 4 -12q6 -23 14 -48.5t24.5 -48t43 -38t69.5 -15.5q29 0 52.5 8.5t39.5 20.5l19 33q0 4 1 9 t1 9v23q0 31 -16.5 86t-49 109.5t-81 95t-111.5 40.5q-47 0 -76 -22.5t-29 -52.5v-9z" />
<glyph unicode="&#xe9;" horiz-adv-x="1312" d="M68 180q0 -47 20.5 -74.5t53 -42t72.5 -18.5t77 -4h67q33 0 111 13.5t176 37t203.5 57t192.5 76.5t145.5 94.5t60.5 106.5v10q0 51 -23.5 81t-84.5 30q-43 0 -83 -18.5t-79 -43.5q-14 -12 -33 -21l-35 -18q-111 -63 -244 -108t-268 -45h-30l2 78v-2q2 51 6 90t7 77.5 t8 82t11 102.5q27 16 110 22.5t194 10.5q96 2 195 9t180 23.5t134.5 48t57.5 85.5v8q0 111 -119 110q-72 0 -136.5 -7t-129.5 -15q-10 -2 -23 -2q-10 0 -20 -2h2q-78 -10 -154 -16.5t-149 -6.5h-33q-27 0 -51.5 1t-40.5 9v15v12v8v8q4 78 22.5 125t55 74t93 37t138.5 16h82 q59 0 125 4q72 4 131 7.5t88 3.5q39 2 76 28.5t37 69.5v8q0 49 -26 80t-65.5 47.5t-88 22.5t-93.5 6h-55h-29q-10 0 -20 -2h6q-10 0 -17.5 -1t-13.5 -1h-18q-168 0 -327 -23.5t-318 -79.5q-61 -25 -74.5 -55.5t-15.5 -69.5q-2 -10 -2 -20v-19q0 -35 8 -62.5t30 -61.5 l-32 -715q-6 -12 -11.5 -35t-9.5 -50l-8 -55q-4 -28 -6 -53q-2 -10 -3 -17t-3 -15v-7l-6 -10v-39zM602 1649q0 -31 28.5 -53.5t76.5 -22.5q63 0 110 41t80 95t49.5 109.5t16.5 86.5v22v17l-19 34q-16 10 -39.5 19.5t-52.5 9.5q-43 0 -69.5 -15.5t-43 -38t-24.5 -49 t-15 -46.5q-4 -8 -4 -15q0 -4 -4 -8q-4 -14 -14 -29l-21 -28q-20 -31 -37.5 -58.5t-17.5 -62.5v-8z" />
<glyph unicode="&#xea;" horiz-adv-x="1312" d="M68 180q0 -47 20.5 -74.5t53 -42t72.5 -18.5t77 -4h67q33 0 111 13.5t176 37t203.5 57t192.5 76.5t145.5 94.5t60.5 106.5v10q0 49 -23.5 80t-84.5 31q-43 0 -83 -18.5t-79 -43.5q-14 -12 -32.5 -22t-35.5 -17q-111 -63 -244 -108t-268 -45h-30l2 78v-2q2 49 6 89t7 78.5 t8 82t11 102.5q27 16 110 21.5t194 11.5q96 2 195 9t180 23.5t134.5 48t57.5 85.5v8q0 109 -119 108q-72 0 -136.5 -6t-129.5 -14q-10 -2 -23 -2q-10 0 -20 -2h2q-78 -10 -154 -17.5t-149 -7.5h-33q-27 0 -51.5 1t-40.5 11v15v12v6v8q4 80 22.5 127t55 73t93 36t138.5 16 q25 0 83 1t124 5q72 4 131 7.5t88 3.5q39 2 76 28.5t37 69.5v6q0 49 -26 80t-65.5 48.5t-88 22.5t-93.5 5h-55h-29q-10 0 -20 -2h6q-10 0 -17.5 -1t-13.5 -1h-18q-168 0 -327 -23.5t-318 -79.5q-61 -25 -74.5 -54.5t-15.5 -70.5q-2 -10 -2 -18v-19q0 -35 8 -63.5t30 -62.5 l-32 -713q-6 -12 -11.5 -35t-9.5 -50l-8 -55q-4 -28 -6 -53q-2 -10 -3 -17t-3 -15v-7l-6 -10v-39zM512 1653q27 -55 70 -56q37 0 61.5 24t48.5 54q16 20 31.5 37t30.5 21l86 -125l-4 4q6 -14 22 -20.5t33 -6.5q6 0 11 1t11 1h29q29 41 39 66.5t10 38.5q0 4 -1 10t-1 8 q-8 10 -18 26.5t-19 26.5q-35 51 -69 111l4 -12q-4 4 -7 11t-8 11l5 -2q-6 8 -18.5 21.5t-27 28t-29 24.5t-22.5 10h-18q-4 0 -25.5 -16.5t-49.5 -39t-55.5 -46t-43.5 -39.5q-4 -4 -8.5 -7t-8.5 -8l2 2q-29 -27 -44 -48t-17 -72v-39zM739 1755l11 -14q-9 8 -11 14zM887 1858 v4v-4z" />
<glyph unicode="&#xeb;" horiz-adv-x="1312" d="M68 180q0 -47 20.5 -74.5t53 -42t72.5 -18.5t77 -4h67q33 0 111 13.5t176 37t203.5 57t192.5 76.5t145.5 94.5t60.5 106.5v10q0 49 -23.5 79t-84.5 30q-43 0 -83 -17.5t-79 -44.5q-14 -10 -32.5 -20t-35.5 -19q-111 -61 -244 -106t-268 -45h-30l2 78v-2q2 49 6 89t7 78.5 t8 82t11 100.5q27 16 110 22.5t194 12.5q96 2 195 8t180 23.5t134.5 48t57.5 84.5v8q0 111 -119 110q-72 0 -136.5 -7t-129.5 -15q-10 -2 -23 -2q-10 0 -20 -2h2q-78 -10 -154 -16.5t-149 -6.5h-33q-27 0 -51.5 1t-40.5 9v15v12v8v8q4 78 22.5 125t55 73t93 36t138.5 16 q25 0 83 1t124 5q72 4 131 7.5t88 3.5q39 2 76 28.5t37 69.5v8q0 49 -26 79t-65.5 47t-88 22.5t-93.5 5.5h-55h-29q-10 0 -20 -2h6q-10 0 -17.5 -1t-13.5 -1h-18q-168 0 -327 -23.5t-318 -79.5q-61 -25 -74.5 -54.5t-15.5 -70.5q-2 -10 -2 -18v-19q0 -35 8 -62.5t30 -61.5 l-32 -713q-6 -12 -11.5 -35t-9.5 -50l-8 -55q-4 -28 -6 -53q-2 -10 -3 -17t-3 -15v-7l-6 -10v-39zM446 1726q0 -57 37 -97t103 -40q29 0 57.5 17.5t51 43t36.5 56.5t14 57v11q0 59 -48 91.5t-105 32.5q-72 0 -107.5 -49t-38.5 -108v-15zM778 1729q0 -57 37 -97.5t103 -40.5 q29 0 57.5 16.5t51 43t36.5 56.5t14 58v11q0 59 -48 92t-105 33q-72 0 -108 -49.5t-38 -108.5v-14z" />
<glyph unicode="&#xec;" horiz-adv-x="464" d="M51 145q14 -70 40 -87t77 -17q47 0 80 30.5t41 82.5q35 252 57.5 495.5t34.5 499.5v-2l2 43q2 25 3 59.5t1 59.5l4 43q0 29 -7 60.5t-22.5 57t-39 43t-58.5 17.5q-37 0 -56.5 -17.5t-47.5 -64.5q-6 -154 -20.5 -294t-31 -281.5t-32 -284t-21.5 -293.5v-25v-51v-20 q0 -10 -4 -23v-31zM109 1905q0 -35 14 -64t33 -57q10 -14 18 -28.5t12 -31.5q4 -4 4 -8t5 -12q4 -23 11 -48.5t21.5 -48t38 -38t62.5 -15.5q25 0 44 9.5t36 19.5l14 35q0 4 1 8t1 8v23q0 31 -14.5 86t-43 109.5t-70.5 95.5t-97 41q-41 0 -65.5 -22.5t-24.5 -53.5v-8z" />
<glyph unicode="&#xed;" horiz-adv-x="507" d="M51 145q14 -70 41 -87t80 -17q47 0 80 30.5t41 82.5q37 252 59.5 495.5t34.5 499.5v-2l4 45q0 23 1 57.5t1 59.5l4 43q0 31 -7 62.5t-22.5 57t-40 43t-59.5 17.5q-37 0 -57.5 -18.5t-48.5 -65.5q-6 -154 -21.5 -294t-32 -281.5t-31 -284t-20.5 -293.5v-25q-2 -10 -2 -24 v-27v-20q0 -10 -4 -23v-31zM145 1642q0 -31 26 -53t67 -22q57 0 100 41t71.5 95t43 109.5t14.5 85.5v23q0 4 -1 8t-1 8l-14 35q-16 10 -37 19.5t-45 9.5q-39 0 -62.5 -15.5t-39 -38t-22.5 -49t-12 -47.5q-4 -8 -4 -14q0 -4 -4 -8q-4 -14 -13 -28.5t-19 -28.5 q-16 -31 -32 -58.5t-16 -62.5v-9z" />
<glyph unicode="&#xee;" horiz-adv-x="565" d="M51 145q14 -70 42 -87t81 -17q47 0 81 30.5t42 82.5q39 252 62.5 495.5t33.5 499.5v-2l4 43q2 23 3 57.5t1 59.5l2 43q0 31 -7 61.5t-22.5 57t-40 43t-61.5 16.5t-57 -17.5t-49 -64.5q-8 -152 -23.5 -293t-32 -282.5t-32 -284t-21.5 -291.5v-25q-2 -10 -2 -24v-27v-20 q0 -10 -4 -23v-31zM90 1618q23 -57 64 -57q33 0 55 23.5t45 53.5q14 20 28.5 37t26.5 21l78 -123l-4 2q6 -14 20.5 -20.5t30.5 -6.5q4 0 10.5 1t10.5 1h26q27 41 35 66.5t8 38.5q0 4 -1 10t-1 8q-6 10 -16 26.5t-17 26.5q-16 25 -31.5 53.5t-31.5 57.5l4 -12q-4 4 -6 11 t-6 11l4 -2q-6 8 -17.5 21.5t-24.5 28t-25.5 24.5t-20.5 10h-17q-4 0 -23.5 -16.5t-44 -39t-51 -46t-40.5 -39.5q-6 -10 -13 -12q-29 -27 -41 -48.5t-14 -72.5v-37zM295 1718l10 -14q-8 8 -10 14zM430 1821v4v-4z" />
<glyph unicode="&#xef;" horiz-adv-x="665" d="M33 1692q0 -57 34.5 -97.5t96.5 -40.5q27 0 54.5 17.5t48 43t33.5 56.5t13 58v10q0 59 -45 92t-100 33q-68 0 -101.5 -49.5t-33.5 -108.5v-14zM51 145q14 -70 43 -87t84 -17q47 0 83 30.5t44 82.5q41 250 64.5 493.5t36.5 499.5v-2l2 43q2 23 3 57.5t1 59.5l4 43 q0 31 -7.5 61.5t-23.5 57t-42 43t-62 16.5q-41 0 -61.5 -17.5t-51.5 -64.5q-6 -152 -21.5 -292t-33.5 -282q-16 -141 -33 -283.5t-23 -293.5v-23q-2 -10 -2 -24v-27v-20q0 -10 -4 -23v-31zM344 1694q0 -57 35 -97.5t96 -40.5q27 0 54.5 17.5t48 43t34 56.5t13.5 58v10 q0 59 -45 92t-99 33q-68 0 -101.5 -49.5t-35.5 -108.5v-14z" />
<glyph unicode="&#xf0;" horiz-adv-x="1245" d="M72 700q0 -92 27.5 -186t79.5 -179t126 -157t166 -117q98 -45 191 -45q86 0 157.5 36t130 94.5t103.5 131t75 148.5q76 188 76 381q0 125 -30.5 248t-90.5 245q49 41 80 86.5t31 92.5q0 25 -6 43q-29 76 -90 75q-27 0 -66 -16l2 2l-41 -20q-25 -12 -55 -29 q-25 31 -54.5 55.5t-72.5 46.5q-8 4 -27.5 13.5t-42.5 15.5q-4 0 -9 1t-9 1q-43 0 -58.5 -18.5t-25.5 -51.5v2q0 -8 -2 -10q-16 -37 -16 -65q0 -37 24 -76q4 -6 12.5 -15.5t14.5 -13.5h-2q8 -12 16 -21l16 -18q-63 -53 -107 -105t-44 -95q0 -16 6 -29q10 -41 29.5 -56.5 t48.5 -15.5q16 0 32.5 5.5t39.5 13.5l8 4l4 2l74 33l-2 -2q33 10 61 26q41 -76 64.5 -153.5t23.5 -155.5q0 -53 -16 -119q-37 53 -72 99.5t-75 86t-89 75.5t-113 67l-20 10h2l-25 10l-28 13h-8l-27 18q-35 8 -72 8q-104 0 -175.5 -61.5t-108.5 -153.5q-23 -47 -32 -99.5 t-9 -105.5zM367 676q0 53 16 88q14 33 43 33q16 0 35.5 -7.5t42.5 -17.5q43 -18 93 -59t94 -91.5t73 -105.5t29 -104q0 -12 -1 -20.5t-4 -18.5h-2q-14 -35 -39.5 -49.5t-60.5 -14.5q-29 0 -59.5 8.5t-59.5 22.5h2q-43 20 -80.5 57t-64.5 82t-42 96.5t-15 100.5z" />
<glyph unicode="&#xf1;" horiz-adv-x="1120" d="M59 209q4 -27 11.5 -56.5t23 -54t41 -41t66.5 -16.5q14 0 34.5 5t39 16.5t33 27.5t14.5 41l24 535q20 -43 34 -70l22 -45q9 -18 17.5 -33.5t18.5 -38.5v2l68 -151q8 -16 29.5 -63.5t39.5 -86.5q8 -14 12.5 -24.5t8.5 -16.5q51 -61 121 -61q37 0 61.5 17.5t40 44t24.5 54 t13 50.5q12 53 25.5 106t25.5 107q59 244 109.5 482.5t62.5 485.5v129q0 47 -32.5 84t-85.5 37q-41 0 -68 -23.5t-43 -57t-24.5 -69.5t-10.5 -59v2q-6 -29 -14 -85t-19.5 -127.5t-22.5 -150.5l-22 -151l-18 -129q-8 -57 -10 -86q-4 -8 -6.5 -18t-2.5 -14v2q-8 -35 -16 -78 t-18 -56q0 8 -4 17l-9 16q-29 72 -59.5 157t-50.5 157v-2q-2 12 -6.5 34.5t-9.5 51t-11 59.5t-10 59q-6 31 -11.5 53.5t-7.5 32.5q-2 14 -4 56.5t-3 89.5t-2 88t-1 57q-12 45 -50 75t-79 30q-43 0 -74.5 -28t-42.5 -56q-68 -276 -107.5 -551t-55.5 -555l-2 -41 q-2 -20 -3 -45v-47v-39q0 -14 -2 -19zM360 1694q0 -39 14.5 -53.5t41.5 -14.5q25 0 50.5 15.5t47.5 37.5l-2 -2q23 16 45.5 34t40.5 18q12 0 25.5 -11.5t27.5 -23.5q27 -23 53.5 -41.5t65.5 -18.5q31 0 62.5 13.5t58.5 40t45 67.5t18 96v19q0 37 -10 58.5t-49 21.5 q-27 0 -41 -18.5t-31 -45.5v2q-10 -16 -21 -34.5t-22 -18.5q-10 0 -21 9t-24 24q-18 18 -41.5 37.5t-52.5 23.5h-18q-4 0 -9.5 1t-13.5 1q-29 0 -68.5 -12t-77.5 -39t-66 -70t-28 -106v-10z" />
<glyph unicode="&#xf2;" horiz-adv-x="1484" d="M66 594q0 -88 19 -175t62 -162t113 -132t172 -84h133q123 0 224.5 31.5t185.5 90t151.5 141.5t122.5 183q37 66 71 130.5t60.5 129t43 132t20.5 139.5v33q0 88 -29 179t-85 163.5t-141 119t-198 46.5q-51 0 -100 -14.5t-96 -33.5q-147 -63 -276.5 -148t-226.5 -194.5 t-156.5 -241.5t-67.5 -288v-2q0 -10 -1 -21.5t-1 -21.5zM334 553q0 10 1 19.5t1 19.5q6 115 53 235.5t130 220t197.5 163t254.5 63.5q59 0 101 -23.5t68.5 -61.5t39 -85t12.5 -94v-21q-2 -55 -28.5 -129t-70.5 -153.5t-103.5 -155.5t-126 -137.5t-139.5 -98t-144 -36.5 q-70 0 -117 22.5t-76 60t-41 87t-12 104.5zM750 1952q0 -35 17 -63.5t38 -57.5q10 -16 21.5 -29.5t15.5 -29.5q4 -4 4 -9q0 -4 4 -12q6 -23 14 -48.5t24.5 -48t43 -37.5t69.5 -15q29 0 52.5 8t40.5 20l18 33q0 4 1 9t1 9v23q0 31 -16.5 86t-49 109.5t-81.5 95.5t-113 41 q-47 0 -75.5 -22.5t-28.5 -53.5v-8z" />
<glyph unicode="&#xf3;" horiz-adv-x="1484" d="M66 594q0 -88 19 -175t62 -162t113 -132t172 -84h133q123 0 224.5 31.5t185.5 90t151.5 141.5t122.5 183q37 66 71 130.5t60.5 129t43 132t20.5 139.5v33q0 88 -29 179t-85 162.5t-141 117.5t-198 46q-51 0 -100 -13t-96 -32q-147 -63 -276.5 -148t-226.5 -194.5 t-156.5 -241.5t-67.5 -288v-2q0 -10 -1 -21.5t-1 -21.5zM334 553q0 8 1 18.5t1 20.5q6 115 53 235.5t130 220t197.5 163t254.5 63.5q59 0 101 -23.5t68.5 -61.5t39 -85t12.5 -96v-19q-2 -55 -28.5 -129t-70.5 -153.5t-103.5 -155.5t-126 -137.5t-139.5 -98t-144 -36.5 q-70 0 -117 22.5t-76 60t-41 87t-12 104.5zM797 1667q0 -31 28.5 -53.5t75.5 -22.5q63 0 112.5 41t82 95.5t49 109.5t16.5 86v23q0 4 -1 8t-1 8l-18 35q-16 10 -40 19t-52 9q-43 0 -71 -15t-44 -37.5t-24.5 -49.5t-14.5 -47q-4 -8 -4 -14q0 -4 -4 -9q-4 -14 -15 -28l-20 -29 q-23 -31 -39 -58.5t-16 -62.5v-8z" />
<glyph unicode="&#xf4;" horiz-adv-x="1484" d="M66 592q0 -88 19 -175t62 -162t113 -131t172 -83h133q123 0 224.5 31.5t185.5 90t151.5 141.5t122.5 183q72 129 130.5 258t64.5 273v31q0 88 -29 179t-85 162.5t-141 117.5t-198 46q-51 0 -100 -13t-96 -32q-147 -63 -276.5 -148t-226.5 -194.5t-156.5 -240.5 t-67.5 -287v-2q0 -10 -1 -22.5t-1 -22.5zM334 551q0 10 1 20.5t1 20.5q6 115 53 235.5t130 219t197.5 162t254.5 63.5q59 0 101 -23.5t68.5 -61.5t39 -85t12.5 -94v-21q-2 -55 -28.5 -129t-70.5 -152.5t-103.5 -155.5t-126 -137.5t-139.5 -97t-144 -36.5q-70 0 -117 22.5 t-76 59t-41 86t-12 104.5zM758 1642q27 -57 69 -57q37 0 61.5 23.5t51.5 54.5q16 20 31.5 36.5t29.5 20.5l86 -125l-4 4q8 -14 23.5 -20t32.5 -6q6 0 12 1t12 1h29q29 41 38 66.5t9 37.5q0 4 -1 10.5t-1 8.5q-6 10 -17.5 26.5t-19.5 26.5q-16 25 -33.5 53.5t-36.5 57.5 l5 -13q-4 4 -6.5 11.5t-6.5 11.5l4 -2q-6 8 -19 21l-28 28q-14 14 -28.5 24.5t-22.5 10.5h-18q-4 0 -25.5 -16.5t-49.5 -39t-56.5 -46t-44.5 -40.5q-10 -10 -15 -12q-29 -27 -44 -48t-17 -73v-37zM987 1743l8 -14q-6 4 -8 14zM1135 1845v4v-4z" />
<glyph unicode="&#xf5;" horiz-adv-x="1484" d="M66 592q0 -88 19 -175t62 -162t113 -131t172 -83h133q123 0 224.5 31.5t185.5 90t151.5 140.5t122.5 182q37 66 71 130.5t60.5 129t43 132t20.5 139.5v31q0 88 -29 179t-85 163.5t-141 118.5t-198 46q-51 0 -100 -14t-96 -31q-147 -63 -276.5 -149t-226.5 -195.5 t-156.5 -240.5t-67.5 -287v-2q0 -10 -1 -21.5t-1 -21.5zM334 551q0 10 1 19.5t1 19.5q6 115 53 235.5t130 220t197.5 163t254.5 63.5q59 0 101 -23.5t68.5 -61.5t39 -85t12.5 -96v-19q-2 -55 -28.5 -129t-70.5 -152.5t-103.5 -155.5t-126 -137.5t-139.5 -97t-144 -36.5 q-70 0 -117 22.5t-76 59t-41 86t-12 104.5zM627 1657q0 -37 13 -52.5t42 -15.5q25 0 50.5 15.5t49.5 37.5v-2q23 16 45.5 34t40.5 18q12 0 25.5 -11.5t28.5 -23.5q27 -23 54.5 -41.5t67.5 -18.5q31 0 64 13.5t60.5 40t45 67.5t17.5 97v18q0 37 -10.5 58.5t-51.5 21.5 q-27 0 -41 -18.5t-30 -45.5v2q-10 -16 -21.5 -34.5t-21.5 -18.5t-22.5 9.5t-24.5 23.5q-18 18 -42 37.5t-53 23.5h-20q-4 0 -9 1t-14 1q-29 0 -69.5 -12t-79.5 -38.5t-66.5 -69.5t-27.5 -107v-10z" />
<glyph unicode="&#xf6;" horiz-adv-x="1484" d="M66 592q0 -88 19 -175t62 -162t113 -131t172 -83h133q123 0 224.5 31.5t185.5 90t151.5 141.5t122.5 183q72 129 130.5 257t64.5 272v33q0 88 -29 179t-85 162.5t-141 117.5t-198 46q-51 0 -100 -14t-96 -31q-147 -63 -276.5 -149t-226.5 -195.5t-156.5 -240.5 t-67.5 -287v-2q0 -10 -1 -21.5t-1 -21.5zM334 551q0 10 1 19.5t1 19.5q6 115 53 235.5t130 220t197.5 163t254.5 63.5q59 0 101 -23.5t68.5 -61.5t39 -85t12.5 -96v-19q-2 -55 -28.5 -129t-70.5 -152.5t-103.5 -155.5t-126 -137.5t-139.5 -97t-144 -36.5q-70 0 -117 22.5 t-76 59t-41 86t-12 104.5zM639 1745q0 -57 38 -97t103 -40q29 0 57.5 16t51 43t37 56.5t14.5 58.5v10q0 59 -48 92t-108 33q-72 0 -107.5 -49t-37.5 -109v-14zM973 1747q0 -57 38 -97t103 -40q31 0 59.5 16t51 43t36 56.5t13.5 58.5v10q0 59 -48 92t-106 33 q-72 0 -108.5 -49t-38.5 -109v-14z" />
<glyph unicode="&#xf7;" horiz-adv-x="862" d="M70 700q0 -51 40 -77.5t85 -42.5h90q63 0 117.5 2t108.5 6t114.5 12t134.5 21q37 23 47 47t14 53q0 53 -42 84t-93 31h-463q-57 0 -104 -32t-49 -91v-13zM250 360q0 -53 36 -93t99 -40q29 0 56.5 16.5t49 41t35 54.5t13.5 56v11q0 57 -47.5 88.5t-102.5 31.5 q-70 0 -103.5 -48t-35.5 -103v-15zM344 1012q0 -53 36 -92t99 -39q29 0 56.5 16t49 41t35 54.5t13.5 56.5v8q0 59 -47 90t-103 31q-70 0 -103.5 -48.5t-35.5 -103.5v-14z" />
<glyph unicode="&#xf8;" horiz-adv-x="1484" d="M66 588q0 -72 12 -142.5t39.5 -136t71.5 -121t110 -94.5q4 -35 23.5 -59.5t68.5 -24.5q55 0 96 31h78q123 0 224.5 31.5t185.5 89t151.5 139.5t122.5 180q72 129 130.5 257t64.5 270v30q0 98 -34 193.5t-101 167.5q0 4 4 16v15q0 53 -24.5 78.5t-90.5 25.5q-23 0 -59 -21 q-35 12 -72 19.5t-76 7.5q-51 0 -100 -14.5t-96 -30.5q-147 -63 -276.5 -148t-226.5 -192.5t-156.5 -238t-67.5 -283.5v-2q0 -10 -1 -21.5t-1 -21.5zM334 547q0 8 1 18t1 21q4 106 47 219t119 208t179 161.5t230 80.5q-70 -96 -144.5 -211.5t-145 -235.5t-133 -235.5 t-107.5 -210.5q-25 35 -36 83.5t-11 101.5zM643 285q31 55 68 119.5t74.5 131t74.5 130t65.5 113.5t47 83t22.5 39l-4 -4q6 6 24.5 30.5t43 60.5t52.5 76t52 75q29 -68 29 -142v-18q-2 -51 -25.5 -117.5t-61.5 -139.5t-90 -144.5t-112.5 -132t-126 -103.5t-133.5 -57z" />
<glyph unicode="&#xf9;" horiz-adv-x="1169" d="M63 426q6 -82 42 -151.5t94.5 -122t136.5 -82t166 -29.5q82 0 167 22.5t158.5 65.5t132 106.5t87.5 143.5q2 25 5 66.5t7 96t9 118t11 128.5q6 74 11.5 147t11.5 135.5t10 112.5t6 77l2 96l8 106q-8 61 -49 90t-98 29q-45 0 -85 -29.5t-46 -83.5l-78 -1007v2 q-4 -31 -25.5 -58.5t-51 -49t-63.5 -35t-65 -13.5q-66 0 -105.5 26.5t-61 68.5t-30 95.5t-8.5 106.5q0 47 3.5 90t7.5 80q2 74 10 146.5t18 144.5q10 74 17.5 146.5t11.5 148.5q0 4 1 10t1 10q0 61 -37 97t-108 36q-59 0 -92 -32.5t-50.5 -79.5t-21.5 -99.5t-6 -93.5v-20 q0 -8 -2 -19q-4 -23 -9.5 -79t-11.5 -118.5t-10 -117.5t-4 -76v-18q-2 -23 -4 -52.5t-4 -58.5v2l-4 -47l-2 -39v-51v-25q0 -10 -3 -24v-39zM424 1870q0 -35 16.5 -63.5t36.5 -57.5l21 -29q10 -14 14 -28q4 -4 4 -11q0 -4 4 -12q6 -23 14.5 -48.5t23.5 -48t42 -37.5t70 -15 q29 0 52 9t40 19l16 35q0 4 1 8t1 8v23q0 31 -16 86t-48 109.5t-80 95.5t-110 41q-47 0 -74.5 -22.5t-27.5 -53.5v-8z" />
<glyph unicode="&#xfa;" horiz-adv-x="1169" d="M63 426q6 -82 42 -151.5t94.5 -122t136.5 -82t166 -29.5q82 0 167 22.5t158.5 65.5t132 106.5t87.5 143.5q2 25 5 66.5t7 96t9 118t11 128.5q6 74 11.5 147t11.5 135.5t10 112.5t6 77l2 98v-2l8 106q-8 61 -49 90t-98 29q-45 0 -85 -29.5t-46 -83.5l-78 -1007v2 q-4 -31 -25.5 -58.5t-51 -49t-63.5 -35t-65 -13.5q-66 0 -105.5 26.5t-61 68.5t-30 95.5t-8.5 106.5q0 47 3.5 90t7.5 80q2 74 10 146.5t18 144.5q10 74 17.5 146.5t11.5 148.5q0 4 1 10t1 10q0 61 -37 97t-108 36q-59 0 -92 -32.5t-50.5 -79.5t-21.5 -99.5t-6 -93.5v-20 q0 -8 -2 -19q-4 -23 -9.5 -79t-11.5 -118.5t-10 -117.5t-4 -76v-18q-2 -23 -4 -52.5t-4 -58.5v2l-4 -47l-2 -39v-51v-25q0 -10 -3 -24v-39zM473 1597q0 -31 27.5 -53t74.5 -22q63 0 110.5 41t79.5 95t48 109.5t16 85.5v23q0 4 -1 8t-1 8l-16 35q-16 10 -39.5 19.5t-52.5 9.5 q-43 0 -68.5 -15.5t-42 -38t-25 -49t-14.5 -47.5q-4 -8 -4 -12t-4 -8q-4 -16 -14 -31l-21 -29q-20 -29 -36.5 -57.5t-16.5 -62.5v-9z" />
<glyph unicode="&#xfb;" horiz-adv-x="1169" d="M63 426q6 -82 42 -152.5t94.5 -122t136.5 -81t166 -29.5q82 0 167 22.5t158.5 65.5t132 106.5t87.5 143.5q2 25 5 66.5t7 96t9 118t11 128.5q6 74 11.5 147t11.5 135.5t10 111.5t6 75l2 99v-2l8 108q-8 59 -49 89t-98 30q-45 0 -85 -30.5t-46 -82.5l-78 -1007v2 q-4 -31 -25.5 -58.5t-51 -49t-63.5 -35t-65 -13.5q-66 0 -105.5 26.5t-61 68.5t-30 95.5t-8.5 106.5q0 47 3.5 90t7.5 80q2 72 10 144.5t18 144.5q10 74 17.5 146.5t11.5 150.5q0 4 1 10t1 10q0 61 -37 97t-108 36q-59 0 -92 -32.5t-50.5 -79.5t-21.5 -100.5t-6 -94.5v-18 q0 -8 -2 -19q-4 -23 -9.5 -79t-11.5 -118.5t-10 -118.5t-4 -77v-16q-2 -23 -4 -52.5t-4 -58.5v2l-4 -47l-2 -39v-51v-25q0 -10 -3 -24v-39zM389 1624q23 -57 68 -57q37 0 60.5 23.5t49.5 54.5q16 20 31.5 36.5t30.5 20.5l84 -123l-4 2q8 -14 23.5 -20.5t31.5 -6.5q6 0 11 1 t11 1h29q29 41 38 67t9 38q0 4 -1 10t-1 8q-6 10 -17.5 26.5t-17.5 27.5q-18 25 -35.5 53.5t-33.5 56.5l4 -12q-4 4 -7 11t-8 11l5 -2q-6 8 -18.5 21.5t-27 28t-27.5 24.5t-22 10h-18q-4 0 -25.5 -16t-49 -38.5t-55.5 -46.5t-44 -40l-12 -12q-31 -27 -45.5 -48.5 t-16.5 -72.5v-37zM612 1724l11 -14q-9 8 -11 14zM760 1827v4v-4z" />
<glyph unicode="&#xfc;" horiz-adv-x="1169" d="M63 426q6 -82 42 -152.5t94.5 -122t136.5 -81t166 -29.5q82 0 167 22.5t158.5 65.5t132 106.5t87.5 143.5q2 23 5 65.5t7 97t9 118t11 128.5q6 74 11.5 146t11.5 135.5t10 112.5t6 75l2 99v-2l8 106q-8 61 -49 90t-98 29q-45 0 -85 -29.5t-46 -83.5l-78 -1005v2 q-4 -31 -25.5 -58.5t-51 -49t-63.5 -35t-65 -13.5q-66 0 -105.5 26.5t-61 68.5t-30 95.5t-8.5 106.5q0 47 3.5 89t7.5 79q2 74 10 146.5t18 144.5q10 74 17.5 146.5t11.5 150.5q0 4 1 9t1 9q0 61 -37 97t-108 36q-59 0 -92 -31.5t-50.5 -78.5t-21.5 -100.5t-6 -94.5 q0 -27 -2 -37q-4 -23 -9.5 -79t-11.5 -118.5t-10 -118.5t-4 -77v-16q-2 -23 -4 -52.5t-4 -58.5v2l-4 -47l-2 -39v-51v-25q0 -12 -3 -24v-39zM340 1722q0 -57 37 -97t102 -40q29 0 57.5 17.5t51 43t36 56.5t13.5 57v10q0 59 -48 92t-106 33q-35 0 -61.5 -13t-45 -35.5 t-27.5 -51.5t-9 -57v-15zM668 1724q0 -57 36.5 -97t102.5 -40q29 0 57.5 16.5t51 43t36 56.5t13.5 58v11q0 59 -47.5 91.5t-104.5 32.5q-72 0 -107.5 -49t-37.5 -108v-15z" />
<glyph unicode="&#xfd;" horiz-adv-x="1144" d="M66 1042q0 -74 25.5 -132t65.5 -105t87 -83t90 -67q33 -23 57.5 -42t26.5 -25q-2 -43 -16.5 -87t-28.5 -89q-18 -47 -31.5 -95.5t-17.5 -101.5v-6q0 -31 8 -61.5t25.5 -54t45 -38t66.5 -14.5q35 0 54.5 10t47.5 60q18 129 58.5 260t92.5 260t111.5 255t118.5 244 q29 59 56.5 117t54.5 113q6 16 11 29.5t9 23.5q10 25 15.5 40t5.5 56v60q-20 29 -47 48t-64 19q-39 0 -73.5 -33.5t-61.5 -76.5t-44 -84t-21 -56l2 11q-12 -23 -41 -86.5t-59.5 -135t-58.5 -135t-38 -86.5v4q-4 -6 -11 -19t-15.5 -26.5t-16.5 -22.5t-14 -9q-43 0 -78 17 t-57.5 46t-35 64.5t-12.5 70.5v15q4 39 19.5 75.5t36.5 73.5q23 43 42 88t23 94v17q0 115 -121 114q-47 0 -87 -28.5t-71.5 -73.5t-56 -102.5t-41 -112.5t-25.5 -105.5t-11 -80.5v-11zM522 1616q0 -31 28 -53.5t75 -22.5q61 0 109 41t80 95.5t48.5 109.5t16.5 86v22 q0 4 -1 8.5t-1 8.5l-17 35q-18 10 -40.5 19t-51.5 9q-43 0 -69.5 -15t-43 -38t-23.5 -49.5t-14 -46.5q-4 -8 -4 -13q0 -4 -4 -8q-4 -16 -15 -30.5t-22 -28.5q-18 -29 -34.5 -57.5t-16.5 -63.5v-8z" />
<glyph unicode="&#xfe;" horiz-adv-x="1236" d="M53 145q16 -70 45 -87t88 -17q53 0 90 30.5t46 80.5v-2q2 8 2 16t2 16v-2q0 6 4 27l24 47l20 8q19 8 49 19.5t65.5 26t70.5 26.5q45 16 79 29.5t58 25.5l-2 -2q82 43 169 105.5t159 139.5t120 167t54 186v25q0 94 -41 161.5t-108.5 110.5t-155.5 63.5t-180 20.5 q-35 0 -103.5 -8t-146.5 -25q2 27 3 47.5t1 36.5l4 41q0 29 -8 60.5t-24.5 57.5t-44 43t-66.5 17q-41 0 -62.5 -16t-50.5 -57l-6 -21q-6 -135 -27.5 -292.5t-46.5 -323.5q-25 -164 -46 -324t-30 -307zM391 555q4 63 11.5 123.5t16.5 113t17 95.5t15 69l-2 -2q2 4 3 9 q9 43 37.5 67.5t67.5 38.5t85 18.5t89 4.5q72 0 113 -17.5t41 -77.5v-16q-2 -66 -52.5 -138.5t-124 -135t-158.5 -105.5t-159 -47z" />
<glyph unicode="&#xff;" horiz-adv-x="1144" d="M66 1042q0 -74 25.5 -132t65.5 -105t87 -84t90 -66q35 -25 59.5 -44t24.5 -27q-2 -41 -16.5 -85t-28.5 -87q-18 -47 -31.5 -95.5t-17.5 -101.5v-8q0 -31 8 -60.5t25.5 -53t45 -38t66.5 -14.5q35 0 54.5 10t47.5 60q18 129 58.5 260t92.5 260t111.5 255t118.5 244 q57 117 111 228q6 16 11 29.5t9 23.5q10 25 15.5 40t5.5 56v60q-20 29 -47 48t-64 19q-39 0 -73.5 -33.5t-61.5 -76.5t-44 -84t-21 -56l2 11q-12 -23 -41 -86.5t-59.5 -135t-58.5 -134t-38 -85.5v2q-4 -6 -11 -19t-15.5 -25.5t-16.5 -22.5t-14 -10q-43 0 -78 18t-57.5 47 t-35 63.5t-12.5 69.5v15q4 39 19.5 75.5t36.5 73.5q23 43 42 88t23 94v17q0 115 -121 114q-47 0 -87 -28.5t-71.5 -73.5t-56 -101.5t-41 -112.5t-25.5 -106.5t-11 -80.5v-9zM356 1741q0 -57 37 -97t103 -40q29 0 57.5 16t50 43t34.5 56.5t13 58.5v10q0 59 -47 92t-104 33 q-35 0 -61.5 -13.5t-45 -36t-28 -51t-9.5 -57.5v-14zM684 1743q0 -57 37 -97t102 -40q29 0 57.5 16t51 43t36 56.5t13.5 58.5v10q0 59 -47 92t-105 33q-72 0 -107.5 -49t-37.5 -109v-14z" />
<glyph unicode="&#x152;" horiz-adv-x="2455" d="M74 553q0 -123 45 -219t124 -160.5t186.5 -98.5t234.5 -34q188 0 365 60.5t321 166.5q20 -45 56 -85t81 -69.5t94 -47t98 -17.5q47 0 115 14.5t141.5 39t148.5 60.5t134 78t97 91t42 102q0 117 -123 117q-74 0 -130 -37t-109 -84q-47 -41 -95.5 -74.5t-107.5 -33.5 q-35 0 -63.5 15t-49 39.5t-32 55.5t-11.5 62v12q4 80 48.5 131t112 85t149.5 52.5t159 34.5q61 12 117.5 24.5t98.5 31t67 45t27 67.5v4q0 29 -14.5 54.5t-38 44t-53.5 29.5t-60 11q-63 0 -123 -13t-119 -30h2q-51 -14 -102.5 -26.5t-106.5 -12.5h-4q-10 0 -12 -6v33l4 16 q2 70 29.5 114t71.5 66.5t102.5 30.5t124.5 8q47 0 94 -2l94 -4q100 29 104 107v8q0 49 -23.5 80t-60 47t-83 21.5t-91.5 5.5q-18 0 -34.5 -1t-32.5 -1q-14 0 -26.5 -1t-22.5 -1h-58q-23 0 -46 1t-50 1q-63 0 -132 -5.5t-128 -20.5t-103 -46t-59 -80q-80 55 -179 85t-210 30 q-193 0 -369 -83t-313 -216t-221 -303t-92 -342v-27zM383 621v22q4 94 61.5 204.5t146.5 207t197.5 161t217.5 64.5q88 0 162.5 -39t130 -100.5t86 -139t30.5 -157.5v-15q0 -6 -1 -10t-1 -10v-12l-12 -43q-4 -10 -6 -21.5t-6 -21.5v4q-33 -86 -100.5 -162t-153.5 -132 t-184.5 -90t-190.5 -34q-82 0 -151.5 22.5t-120 63.5t-78 101.5t-27.5 136.5z" />
<glyph unicode="&#x153;" horiz-adv-x="2418" d="M68 588q0 -86 19 -173t63.5 -161t115 -130t174.5 -83h138q186 0 327.5 68.5t245.5 191.5q-2 -10 -2 -18q0 -6 -2 -15q-2 -10 -3 -17t-3 -15q0 -2 -1 -3.5t-1 -3.5l-4 -10v-39q0 -47 21.5 -74.5t55 -41t73.5 -17.5t79 -4h72q33 0 113.5 12.5t181 37t209 58t199.5 75.5 t150.5 92.5t61.5 105.5v10q0 49 -23.5 79t-89.5 30q-45 0 -84.5 -18.5t-80.5 -43.5q-35 -25 -70 -39q-115 -59 -251 -105t-277 -46h-31l2 78v-2q2 49 5 88t7 77.5t9.5 81.5t11.5 101q29 16 113.5 22t199.5 11q98 2 200.5 9t186.5 23.5t139.5 47t59.5 83.5v9q0 109 -123 108 q-76 0 -141.5 -7t-135.5 -15h-22q-10 0 -21 -2h2q-80 -10 -157.5 -17.5t-153.5 -7.5h-37q-27 0 -52.5 2t-41.5 10l2 47q4 76 23.5 122t56.5 70.5t95.5 35t142.5 14.5q27 0 86 1t129 5q74 4 135 7t90 3q39 2 78 29t39 68v8q0 49 -27 78.5t-68 47t-91 22.5t-97 5h-55h-31 q-12 0 -23 -2h7q-8 0 -15.5 -1t-15.5 -1h-19q-172 0 -331.5 -22.5t-325.5 -75.5q-53 41 -119.5 63.5t-146.5 22.5q-53 0 -102.5 -13.5t-98.5 -29.5q-152 -63 -284 -148t-232 -194t-159.5 -240t-67.5 -284q0 -10 -1 -20.5t-1 -20.5zM342 547q0 8 1 18t1 21q6 113 54 232.5 t133 218t202 161t260 62.5q49 0 87 -17.5t66 -46.5t44 -65.5t24 -75.5l-8 -152l2 8q-25 -90 -86 -200.5t-146 -206.5t-185.5 -162t-198.5 -66q-72 0 -119 21.5t-76.5 58.5t-42 86.5t-12.5 104.5zM1266 1448l1 1q1 1 5 1q-2 -2 -6 -2z" />
<glyph unicode="&#x160;" horiz-adv-x="1236" d="M68 442q0 -111 43 -187.5t115.5 -123.5t169 -68.5t202.5 -21.5q143 0 253 49t185.5 133t115.5 193.5t44 230.5v19q0 90 -48 154.5t-123 110.5t-165 77.5t-172 56.5q-86 27 -146.5 48.5t-60.5 35.5v2v8q37 35 76 68t82 58.5t89 40.5t97 15q27 0 47 -8l41 -16 q25 -12 50.5 -22.5t56.5 -10.5q53 0 81.5 34t33.5 81v10q0 51 -27 93t-69 72t-92 46t-97 16q-27 0 -59 -6q33 25 71.5 57.5t61.5 55.5l12 12q31 27 45 48.5t16 70.5v37q-23 59 -67 59q-37 0 -61.5 -23.5t-49.5 -54.5q-16 -20 -32.5 -36.5t-28.5 -22.5l-84 125l4 -2 q-6 12 -22.5 19t-34.5 7q-4 0 -10.5 -1t-12.5 -1h-29q-29 -41 -38 -67.5t-9 -36.5q0 -4 1 -10t1 -8q8 -10 17.5 -28t17.5 -28q25 -35 42 -63.5t28 -44.5l-4 12l-2 8l4 -12q4 -12 10 -21l-2 5q10 -14 31.5 -38t42.5 -38q-86 -29 -179.5 -84.5t-172 -124t-130 -144 t-55.5 -147.5v-10q0 -61 32 -103.5t84 -71t118.5 -47t138.5 -36.5q70 -16 136.5 -36t118.5 -47.5t85 -68.5t33 -100v-12q-8 -141 -94.5 -213t-235.5 -72q-59 0 -97 14.5t-63 38t-39 51t-27 56.5q-12 27 -24 52t-30.5 44.5t-43 31t-61.5 11.5q-135 0 -135 -131v-19zM762 1827 q4 -8 10 -15z" />
<glyph unicode="&#x161;" horiz-adv-x="1523" d="M68 426q0 -96 67.5 -168t164.5 -120t204.5 -72.5t187.5 -24.5q131 0 267.5 45t250 125t189.5 190.5t84 239.5v10q0 96 -51.5 169t-129 123t-173 78t-181.5 36l-409 24h-7h9q-12 4 -17 4q100 88 224 151.5t264 63.5q25 0 47 -6l45 -12q29 -10 55.5 -17.5t61.5 -7.5 q57 0 81.5 34t24.5 81v8q0 45 -23.5 86t-62.5 73t-86 50.5t-92 18.5q-37 0 -86 -8.5t-103 -22.5q29 23 62 51.5t51 44.5q4 4 7 6t7 7q31 27 45.5 48t16.5 70v39q-23 57 -70 58q-35 0 -60.5 -24t-51.5 -54q-16 -20 -31.5 -37t-30.5 -23l-86 127l4 -4q-4 12 -21.5 19.5 t-33.5 7.5q-6 0 -12 -1t-11 -1h-30q-29 -41 -38 -67.5t-9 -37.5q0 -4 1 -10t1 -8q6 -10 16 -26.5t18 -28.5q25 -35 43.5 -63t28.5 -46l-4 12l-2 9l4 -13q4 -12 10 -20l-2 4q8 -10 27.5 -32.5t40.5 -37.5q-104 -35 -211 -87t-193 -115.5t-141 -136t-57 -150.5v-10 q0 -51 24.5 -90t63.5 -66t88 -42t100 -18h-2l529 -57q31 -2 70.5 -15.5t75.5 -33.5t60.5 -49t24.5 -62v-6q-2 -33 -29.5 -65.5t-71.5 -63t-99.5 -57.5t-111 -46.5t-105.5 -30.5t-83 -11q-66 0 -126 19.5t-114.5 53t-101.5 76.5t-88 90h-20q-12 0 -17 2q-6 0 -11 1.5t-7 1.5 q-74 0 -106.5 -37t-36.5 -103v-12zM823 1757q8 -8 13 -14z" />
<glyph unicode="&#x178;" d="M66 1065q0 -55 15 -102.5t39.5 -88t53.5 -75.5t55 -64q23 -25 39.5 -43t16.5 -22q-2 -53 -13.5 -114.5t-23.5 -121t-21.5 -121t-13.5 -129.5v-2q0 -23 4 -47t16.5 -45.5t36 -35t60.5 -13.5q57 0 106 32.5t58 92.5v-2q14 82 29.5 154.5t33.5 142t44 138.5t63 144l-2 -2 q16 27 49.5 87.5t74.5 136.5q27 51 56.5 104t56.5 101.5t49.5 86t36.5 58.5q27 47 34 84t13 78v14q0 45 -20.5 76.5t-83.5 31.5q-47 0 -79 -19t-54.5 -50t-38 -68t-27.5 -71q-8 -18 -13 -35t-7 -21q-8 -12 -22.5 -38.5t-34 -58.5t-40 -68.5t-41.5 -69.5v2 q-33 -53 -60.5 -103.5t-39.5 -70.5q0 2 -8 2h-17h-6q-45 0 -65.5 15.5t-30.5 49.5v74l2 18q2 43 11.5 82t19.5 78q10 41 20.5 79t14.5 79v6q0 47 -31 88t-90 41q-70 0 -112 -42t-64.5 -103.5t-31.5 -130t-11 -121.5v2l-6 -60v-20zM297 1741q0 -57 37 -97t102 -40 q29 0 57.5 16t50 43t35 56.5t13.5 58.5v10q0 59 -47 92t-103 33q-72 0 -107.5 -49t-37.5 -109v-14zM625 1743q0 -57 36.5 -97t100.5 -40q29 0 57.5 16t51 43t36 56.5t13.5 58.5v10q0 59 -47.5 92t-104.5 33q-35 0 -61.5 -13.5t-45 -36t-27.5 -51t-9 -57.5v-14z" />
<glyph unicode="&#x2c6;" horiz-adv-x="804" d="M336 1389q23 -47 63 -48q33 0 54.5 19.5t44.5 46.5l29 30q13 13 26 17l76 -102l-4 2q8 -12 21 -17.5t30 -5.5q4 0 9 1t11 1h25q27 35 35 55.5t8 30.5v17q-8 10 -17.5 22t-15.5 23q-16 18 -31.5 41.5t-31.5 48.5l4 -10q-4 4 -6 9t-7 9l5 -2q-6 6 -17.5 18.5t-24 23.5 t-24.5 19.5t-20 8.5h-19q-2 0 -21.5 -13.5t-44 -32t-50 -38t-40.5 -33.5q-6 -6 -14 -10h2q-27 -23 -40 -40.5t-15 -60.5v-30zM539 1473l10 -13l-6 6q-2 3 -4 7zM672 1559v2v-2z" />
<glyph unicode="&#x2dc;" horiz-adv-x="759" d="M160 1319q0 -53 51 -53q23 0 46.5 12t45.5 29l-2 -2q23 16 43.5 28.5t38.5 12.5q10 0 22.5 -8.5t26.5 -18.5q25 -18 51.5 -32.5t61.5 -14.5q29 0 59.5 10t55 31.5t42 53.5t17.5 77v14q0 29 -10.5 46.5t-46.5 17.5q-25 0 -39.5 -15.5t-26.5 -36.5v3q-10 -14 -20.5 -27.5 t-20.5 -13.5q-18 0 -43 24q-18 16 -39.5 30.5t-48.5 18.5h-18q-4 0 -9.5 1t-11.5 1q-27 0 -64.5 -10t-73.5 -31.5t-61.5 -55.5t-25.5 -83v-8z" />
<glyph unicode="&#x2000;" horiz-adv-x="1058" />
<glyph unicode="&#x2001;" horiz-adv-x="2117" />
<glyph unicode="&#x2002;" horiz-adv-x="1058" />
<glyph unicode="&#x2003;" horiz-adv-x="2117" />
<glyph unicode="&#x2004;" horiz-adv-x="704" />
<glyph unicode="&#x2005;" horiz-adv-x="528" />
<glyph unicode="&#x2006;" horiz-adv-x="352" />
<glyph unicode="&#x2007;" horiz-adv-x="352" />
<glyph unicode="&#x2008;" horiz-adv-x="264" />
<glyph unicode="&#x2009;" horiz-adv-x="421" />
<glyph unicode="&#x200a;" horiz-adv-x="116" />
<glyph unicode="&#x2010;" horiz-adv-x="862" d="M70 545q0 -39 40 -59.5t85 -32.5h90q63 0 117.5 1t108.5 5t114.5 9t134.5 15q37 16 47 36t14 42q0 41 -42 63.5t-93 22.5h-463q-57 0 -104 -23.5t-49 -68.5v-10z" />
<glyph unicode="&#x2011;" horiz-adv-x="862" d="M70 545q0 -39 40 -59.5t85 -32.5h90q63 0 117.5 1t108.5 5t114.5 9t134.5 15q37 16 47 36t14 42q0 41 -42 63.5t-93 22.5h-463q-57 0 -104 -23.5t-49 -68.5v-10z" />
<glyph unicode="&#x2012;" horiz-adv-x="862" d="M70 545q0 -39 40 -59.5t85 -32.5h90q63 0 117.5 1t108.5 5t114.5 9t134.5 15q37 16 47 36t14 42q0 41 -42 63.5t-93 22.5h-463q-57 0 -104 -23.5t-49 -68.5v-10z" />
<glyph unicode="&#x2013;" horiz-adv-x="1159" d="M72 547q0 -39 40 -59.5t87 -32.5h694q51 0 79.5 1t45 4t27 10t22.5 19l4 3q29 16 37 32.5t10 36.5q0 41 -43 63.5t-96 22.5l-750 2q-59 0 -107 -23.5t-50 -70.5v-8z" />
<glyph unicode="&#x2014;" horiz-adv-x="1476" d="M72 547q0 -39 41 -59.5t88 -32.5h24l881 2h59q70 0 108 1t58.5 4t30.5 10t22 20l-4 -3q2 2 4 3q2 0 5 4q29 16 37 31.5t10 37.5q0 41 -44 63.5t-98 22.5l-1063 -2q-59 0 -108 -23.5t-51 -70.5v-8z" />
<glyph unicode="&#x2018;" horiz-adv-x="446" d="M51 1077q12 -23 37 -43t53 -20q41 0 70 28.5t47 67.5t27.5 81t15.5 71l-2 -2q2 6 2 10t2 8q4 18 17.5 44t25.5 52v-2q23 41 39 84t21 92v8q0 37 -23 64t-61 27q-37 0 -72 -32t-64.5 -81t-54.5 -108.5t-42 -117t-27.5 -103.5t-10.5 -68v-60z" />
<glyph unicode="&#x2019;" horiz-adv-x="448" d="M53 1104q0 -37 22.5 -63.5t61.5 -26.5q37 0 72 31.5t64.5 81t54 108.5t42 116.5t28 103.5t10.5 69v59q-12 20 -37 42t-54 22q-43 0 -70.5 -29t-46 -68t-28.5 -82t-14 -69l2 2q-2 -6 -2 -10t-2 -9q-4 -18 -17.5 -43.5t-25.5 -52.5v2q-23 -41 -40.5 -84t-19.5 -94v-6z" />
<glyph unicode="&#x201a;" horiz-adv-x="448" d="M53 -115v-8q0 -37 22.5 -63.5t61.5 -26.5q37 0 72 31.5t64.5 81t54 109t42 116.5t28 104t10.5 70v57q-12 20 -37 42t-54 22q-43 0 -70.5 -27.5t-46 -67.5t-28.5 -82t-14 -69l2 2q-2 -6 -2 -10t-2 -8q-4 -20 -17.5 -45t-25.5 -52v2q-23 -43 -40.5 -85t-19.5 -93z" />
<glyph unicode="&#x201c;" horiz-adv-x="835" d="M57 1509q0 -41 19.5 -77.5t46.5 -71.5l-2 2q14 -20 27.5 -41t19.5 -37q2 -4 11 -30.5t19.5 -61.5t20.5 -68.5t17 -52.5v2q6 -25 11 -46t17 -37.5t33.5 -26t58.5 -9.5q102 0 119 105v4q0 29 -10 83t-29.5 118.5t-47.5 133t-61.5 124t-72.5 91.5t-82 36q-33 0 -54.5 -12.5 t-34.5 -31t-19.5 -42t-6.5 -43.5v-11zM403 1491q0 -12 3 -21q2 -4 2 -6v-2q12 -25 28.5 -66.5t34.5 -92.5v2q20 -61 45 -127t51.5 -120t57 -90t63.5 -36q53 0 79 36t28 70v15q0 37 -9.5 91t-28 114.5t-44 121t-58 108.5t-71.5 77.5t-82 29.5q-55 0 -73.5 -22.5t-22.5 -63.5 q-3 -8 -3 -18z" />
<glyph unicode="&#x201d;" horiz-adv-x="890" d="M57 1036q0 -37 22.5 -70.5t78.5 -33.5q33 0 65.5 32.5t64 84t61.5 114t57 121.5q23 53 44 98t44 76q0 29 2 29t4 6q0 4 1 6l1 2v6q0 88 -92 88q-45 0 -88 -31.5t-82 -81.5t-71 -112.5t-56.5 -124t-39 -116t-16.5 -87.5v-6zM385 1051q0 -47 30.5 -72t82.5 -25 q63 0 82.5 25t33.5 59q4 10 6.5 17.5t6.5 13.5q6 18 20.5 53t29.5 70t26.5 62.5t15.5 31.5q12 23 25.5 42.5t29.5 39.5q27 35 49.5 70t26.5 82v14q0 43 -21.5 79t-80.5 36q-43 0 -86.5 -36t-82 -91.5t-73.5 -123t-60.5 -132t-41 -118.5t-17.5 -81v-4q0 -4 -1 -7t-1 -5z" />
<glyph unicode="&#x201e;" horiz-adv-x="890" d="M57 -135v-8q0 -35 22.5 -69t78.5 -34q33 0 65.5 33t64 83t61.5 112.5t57 121.5q23 53 44 99.5t44 77.5q0 29 2 28q2 0 4 6q0 4 1 5.5t1 3.5v6q0 88 -92 88q-45 0 -88 -32t-82 -82t-71 -113.5t-56.5 -125t-39 -114.5t-16.5 -86zM385 -129q0 -47 30.5 -70.5t82.5 -23.5 q63 0 82.5 24.5t33.5 59.5q4 18 13 28q6 20 20.5 55.5t29.5 70t26.5 61t15.5 30.5q12 25 25.5 44.5t29.5 39.5q27 35 49.5 70t26.5 80v14q0 43 -21.5 80t-80.5 37q-43 0 -86.5 -36t-82 -91t-73.5 -122.5t-60.5 -132t-41 -119t-17.5 -81.5v-4q0 -4 -1 -7t-1 -7z" />
<glyph unicode="&#x2020;" horiz-adv-x="1024" d="M35 1001q0 -8 13 -26.5t28 -22.5q2 0 13 -2l23 -4q11 -2 21 -3t14 -1l175 -2l-107 -588q-2 -41 -12 -73.5t-21 -67.5v2q-14 -41 -24.5 -82t-10.5 -86v-47q45 -66 101 -66q47 0 77.5 24t50 56.5t30 68.5t16.5 62l-2 -6q2 6 15.5 65.5t30.5 145.5t36.5 185.5t37 186.5 t30 149.5t14.5 74.5q12 16 41.5 20.5t64.5 4.5h51q16 0 28.5 -1t25.5 -1q37 0 70.5 5t59 18.5t41 39t17.5 68.5v6q0 41 -31.5 67.5t-74.5 26.5h-230q0 37 7.5 77t15.5 75l-2 -2q12 66 18 100l4 39q0 49 -19.5 85t-76.5 36q-51 0 -82 -23.5t-49.5 -61.5t-27.5 -86t-15 -96 q-6 -45 -13.5 -80.5t-21.5 -54.5q-4 -6 -43 -9t-82 -5q-39 -2 -77 -5t-68.5 -13.5t-51 -28t-22.5 -47.5z" />
<glyph unicode="&#x2021;" horiz-adv-x="1122" d="M27 381q0 -45 32.5 -71.5t73.5 -26.5h160q-4 -20 -9 -39t-12 -35v2q-14 -41 -23 -81t-9 -85v-47q41 -66 100 -66q45 0 74.5 21.5t49 53.5t31 67t17.5 61q4 8 14.5 50t24.5 106h14h53q25 0 47.5 -2t43.5 -2h39q66 0 105.5 15t43.5 67l4 96q0 14 -11 28.5t-24 24.5 q-4 0 -16 2t-25.5 3t-26 2t-14.5 1q-70 -4 -112.5 -6t-69.5 -2h-6q14 70 27.5 139.5t24.5 128t18.5 99.5t11.5 57q10 16 41 21.5t65 5.5h54q14 0 27.5 -1t25.5 -1q37 0 70.5 5t59.5 18.5t42 39t18 68.5v6q0 41 -31.5 67.5t-76.5 26.5h-232q2 37 8.5 77t14.5 75l-2 -2 q12 66 18 100l4 39q0 49 -18 85t-78 36q-51 0 -83 -23.5t-50 -61.5t-27.5 -86t-15.5 -96q-6 -45 -13 -80.5t-22 -54.5q-4 -6 -43 -9t-84 -5q-39 -2 -76.5 -5t-68.5 -13.5t-51.5 -28t-22.5 -47.5l-6 -97q0 -8 13.5 -26.5t25.5 -22.5q4 0 14 -2t22.5 -4t22.5 -3t15 -1l176 -2 l-80 -430q-10 2 -20.5 3t-20.5 3q-53 6 -107 6q-66 0 -111.5 -26.5t-47.5 -110.5v-4z" />
<glyph unicode="&#x2022;" horiz-adv-x="692" d="M113 715q0 -47 17 -89t49 -75t78 -51.5t103 -18.5q53 0 104.5 30t92.5 76t66.5 100t25.5 104q2 8 2 22q0 51 -23.5 90t-63.5 65.5t-90 41t-101 14.5q-63 0 -110.5 -23.5t-80 -62.5t-49 -88t-18.5 -98q-2 -8 -2 -19v-18z" />
<glyph unicode="&#x2026;" horiz-adv-x="1036" d="M66 147q0 -45 36.5 -76.5t100.5 -31.5q29 0 57.5 13.5t50 33.5t34.5 44t13 46v8q0 47 -46 73t-103 26q-72 0 -106.5 -39t-36.5 -84v-13zM391 147q0 -43 37 -74.5t100 -31.5q29 0 57.5 13.5t50 34t35 44t13.5 45.5v6q0 47 -46 73t-103 26q-72 0 -107 -38t-37 -85v-13z M702 147q0 -45 36 -76.5t102 -31.5q29 0 56.5 13.5t50 33.5t35.5 44t13 46v8q0 47 -47 73t-102 26q-72 0 -106.5 -39t-37.5 -84v-13z" />
<glyph unicode="&#x202f;" horiz-adv-x="421" />
<glyph unicode="&#x2030;" horiz-adv-x="2009" d="M66 1157q0 -49 18 -95t52 -82t81 -57.5t102 -21.5q72 0 135.5 28.5t118 70.5t98.5 91.5t79 90.5q25 29 41 48l16 19q35 0 76 -6q-6 -10 -14 -17l-15 -16l-145 -161q-72 -88 -146 -187.5t-135 -206t-101 -218t-46 -224.5v-80q27 -33 55.5 -57.5t69.5 -24.5q45 0 79.5 35 t62 87t49 114.5t40.5 118.5q12 37 21.5 65.5t17.5 38.5q109 215 256 402.5t323 361.5q10 10 19.5 17t19.5 18q41 37 72 75.5t35 94.5v6q0 35 -13.5 58.5t-36 36.5t-51 19.5t-59.5 6.5q-55 0 -103 -15.5t-95.5 -32t-92.5 -32t-92 -15.5q-37 0 -67.5 14.5t-59.5 35.5 q-35 23 -74 42t-94 19q-104 0 -194 -38t-156 -100.5t-105.5 -144.5t-41.5 -170v-12zM324 1167v7q2 31 15 60.5t35.5 54t53.5 38.5t66 14q18 0 30.5 -4t12.5 -14q-2 -29 -20.5 -58.5t-46.5 -54t-60.5 -40t-65.5 -15.5q-20 0 -20 12zM702 219q25 -78 97.5 -128t156.5 -50 q100 0 187.5 34t154 92t106.5 135t44 165v20q0 72 -28.5 139.5t-82.5 114.5q31 -16 67 -26t71 -10q100 0 187 33.5t153.5 92t106.5 135t46 164.5v21q0 61 -20.5 119.5t-59.5 104.5t-96 74t-131 28q-104 0 -185 -47.5t-136.5 -120t-85 -159.5t-31.5 -169v-10q-2 -6 -2 -17 v-20v-49q23 -66 77 -113q-68 39 -155 39q-104 0 -185 -47t-136.5 -119t-85 -159t-31.5 -169v-10q-2 -10 -3 -37v-51zM963 344q2 33 15 73t36.5 75.5t56.5 59t76 23.5q18 0 30.5 -11t19.5 -28.5t9 -38t2 -36.5v2q-4 -72 -58 -117t-134 -45h-15q-10 0 -20 2l-16 19q0 6 -1 12 t-1 10zM1481 1010q2 33 15 72.5t36.5 74.5t56.5 58.5t76 23.5q18 0 30.5 -11t19.5 -28.5t10.5 -37t3.5 -36.5v2q-4 -74 -59.5 -117.5t-135.5 -43.5h-14q-10 0 -21 2l-16 16q0 6 -1 12.5t-1 12.5z" />
<glyph unicode="&#x2039;" horiz-adv-x="598" d="M72 766q8 -25 52 -84t101.5 -120.5t115.5 -108.5t95 -47h58q51 27 51 79v4q0 47 -32 85t-71 75q-33 29 -59.5 60.5t-30.5 60.5q-2 -2 -8 -4l8 8v-2v2l180 144q16 14 20.5 29.5t4.5 31.5v16q-4 29 -32.5 56.5t-65.5 31.5l-17 -6q4 2 0 2q-8 -2 -24 -9l-17 -7l5 4 q-4 -4 -18.5 -14.5t-41.5 -26.5q-37 -25 -82 -55.5t-86 -62t-70.5 -59.5t-33.5 -46z" />
<glyph unicode="&#x203a;" horiz-adv-x="598" d="M72 979q0 -16 4 -31.5t20 -29.5l180 -144l9 -8q-8 2 -9 4q-4 -29 -31.5 -59.5t-60.5 -61.5q-39 -37 -69.5 -74.5t-30.5 -85.5v-4q0 -53 51 -79h55q37 0 95.5 47t116 108.5t102.5 120.5t53 84l-2 39v-2q-4 18 -33.5 46t-70.5 59.5t-87 62.5l-83 55q-20 10 -35 21.5 t-21 17.5l2 -2q-23 18 -27.5 15t-13.5 1q-4 0 0 -2l-18 6q-35 -4 -63.5 -31.5t-32.5 -56.5v-16z" />
<glyph unicode="&#x205f;" horiz-adv-x="528" />
<glyph unicode="&#x2122;" horiz-adv-x="1384" d="M41 1460q0 -10 4 -28.5t13.5 -37t25.5 -31.5t39 -13h123l6 -11l-14 -286q0 -6 9 -18.5t22.5 -27t27.5 -25.5t25 -17h24q27 0 42 8t23.5 20.5t12.5 28.5t8 35q0 10 4 18q4 16 7 57.5t8 88.5q4 43 8 82.5t8 58.5q0 2 1 10t3 19l4 20q2 10 6 16q14 10 43 11.5t60 1.5 q39 0 74.5 3t64.5 15q-41 -106 -61.5 -222t-24.5 -198q0 -47 18.5 -67.5t77.5 -20.5q20 0 36.5 15.5t29 41t21.5 57.5l18 64q2 10 3 20.5t5 20.5l6 -26q6 -27 11 -52.5t14.5 -45t22.5 -32t32 -12.5q27 0 51.5 18.5t49 48.5t47 65.5t44.5 72.5l-37 -213v-10q0 -23 10.5 -34 t25 -16t31.5 -6t30 -1q41 0 64.5 9t47.5 56q4 92 11.5 166t17.5 146q4 47 9 98t9 104v37q0 41 -19 78t-81 37q-45 0 -77.5 -30t-53.5 -56l-2 -4q-6 -10 -18.5 -32t-28.5 -44q-12 -18 -27.5 -44t-29 -45.5t-20.5 -30.5t-3 -1l10 12l-20 -16q-4 12 -5 28.5t-3 35.5 q-4 31 -9.5 59.5t-17.5 51t-34.5 36.5t-61.5 14h-19q-29 0 -45 -22l-2 -2q-4 27 -19.5 42t-36 22t-45 8t-48.5 1q-10 0 -57.5 -6t-112 -17t-138 -26.5t-135 -36t-102.5 -44t-41 -50.5z" />
<glyph unicode="&#xe000;" horiz-adv-x="1595" d="M0 1595h1595v-1595h-1595v1595z" />
</font>
</defs>
</svg>
