<?xml version="1.0" encoding="UTF-8" standalone="no"?>
<!DOCTYPE svg  PUBLIC '-//W3C//DTD SVG 1.1//EN'  'http://www.w3.org/Graphics/SVG/1.1/DTD/svg11.dtd'>
<svg version="1.1" xmlns="http://www.w3.org/2000/svg">
<defs>
<font id="KomikaBoo" horiz-adv-x="499">
<font-face underline-position="-125" underline-thickness="50" panose-1="2 0 0 0 0 0 0 0 0 0" unicode-range="U+0006-2122" ascent="800" font-family="Komika Boo" x-height="724" descent="-200" cap-height="786" font-weight="400" units-per-em="1000" bbox="-75 -171 1247.06 1025.35"/>
<missing-glyph horiz-adv-x="500"/>
<glyph glyph-name=".notdef" horiz-adv-x="500"/>
<glyph glyph-name=".null" horiz-adv-x="0"/>
<glyph glyph-name="nonmarkingreturn" horiz-adv-x="500"/>
<glyph glyph-name="space" unicode=" " horiz-adv-x="324"/>
<glyph glyph-name="space" unicode=" " horiz-adv-x="324"/>
<glyph d="M128 856q6 -8 10 -18t8.5 -19.5t12 -15.5t20.5 -4q12 0 26.5 6t24.5 15t13 21.5t-7 26.5q-5 19 -18.5 35t-35.5 14q-11 0 -25 -4.5t-24 -12.5t-13 -19.5t8 -24.5z" glyph-name="dotaccent" horiz-adv-x="331"/>
<glyph d="M391 925q-8 13 -13.5 30.5t-12.5 33.5t-18.5 26.5t-32.5 9.5q-30 -1 -58.5 -12t-51.5 -31q-14 -15 -17.5 -29.5t-1 -28t8 -26.5t8.5 -25q3 -11 5 -25t6.5 -26t13 -20t25.5 -7q26 0 51 6.5t48 17.5q19 8 32 21t18.5 27.5t3.5 29.5t-14 28zM256 884q-4 14 -9.5 27t-2.5 27 q10 19 22.5 26.5t26.5 7.5q10 0 17 -5.5t12.5 -13t9 -16t8.5 -15.5q6 -11 10 -24.5t-7 -24.5q-14 -11 -26.5 -13.5t-23.5 -3.5q-9 -1 -16 4t-15 9z" glyph-name="ring" horiz-adv-x="539"/>
<glyph d="M269 872l-10 3q-9 6 -18.5 13t-17 15.5t-11 19t-1.5 22.5q-6 4 -12.5 2.5t-13.5 -0.5q-10 -7 -21.5 -15t-11.5 -22q9 -13 21.5 -22t25.5 -17t25.5 -17.5t20.5 -22.5q8 -8 9 -18t6 -19h11q12 6 25 12t25 13.5t22 17t15 23.5t3.5 27t0.5 27q2 4 2.5 7.5t2.5 7.5q3 11 -8 13 q-17 -2 -30.5 -11t-24.5 -21q-11 -14 -16.5 -26t-18.5 -12z" glyph-name="caron" horiz-adv-x="545"/>
<glyph d="M12 34q-2 -19 12.5 -28t31.5 -6q19 -1 35 10.5t23 29.5q23 61 30 124t6.5 126.5t-3.5 127.5t0 127q1 5 1.5 11t0.5 11q2 15 3 30t3 30q2 5 2 11t2 11q2 11 0 23.5t-7.5 22.5t-15.5 16.5t-23 6.5q-16 2 -27 -8t-20 -21q-20 -71 -25 -143.5t-6 -145.5t-1.5 -146t-10.5 -145 q0 -4 -0.5 -7.5t-0.5 -7.5q-2 -5 -2 -12q0 -6 -2 -11q-1 -6 -1.5 -12t-2.5 -11q-1 -4 -1.5 -7t-0.5 -7z" glyph-name="dotlessi" unicode="" horiz-adv-x="177"/>
<glyph d="M326 276l-1 2h1q4 11 10 16q13 21 29 40t31 39q41 69 70 145t37 157q2 14 -3.5 25t-15 18.5t-22 10.5t-24.5 2q-53 -4 -105 -12.5t-104 -16.5q-32 -8 -63 -13.5t-59.5 -12.5t-52.5 -18.5t-40 -32.5q-1 -19 13 -29.5t30 -13.5h10q1 0 1 -1h1h1q2 0 3.5 -0.5t3.5 -0.5h11 q63 0 128 14h8l5 1q2 1 4 1.5t4 1.5q1 0 2 0.5t2 0.5q29 4 59 8.5t60 3.5q2 -2 3 -3.5t3 -3.5q1 -20 -8.5 -36.5t-20.5 -31.5l-2 -4l-6 -6v-7q-28 -56 -53 -113t-63 -108q-3 -4 -5.5 -7.5t-4.5 -7.5q-2 -2 -2.5 -4.5t-2.5 -4.5q-2 -4 -5 -7t-5 -7h-1v-4q-20 -25 -41.5 -49 t-41.5 -48.5t-38.5 -51t-32.5 -55.5q-10 -13 -5.5 -27.5t15.5 -24.5h17q2 0 5 -0.5t5 -0.5h22q41 0 80.5 9t79.5 18h8l6 3q22 5 43 9.5t43 8.5q34 7 68 9.5t68 5.5q5 1 8 1q4 0 9 1h17q2 0 3 0.5t3 0.5q8 1 17 2t17 1q11 2 18 10t10 18q5 15 -4 28t-23 18h-56 q-38 0 -75.5 -6t-75.5 -14q-2 0 -3.5 -0.5t-3.5 -0.5h-5l-9 -3h-1q-67 -16 -132 -17q-1 2 -1.5 4t-1.5 4q10 22 23.5 42t28.5 39t31 37t31 37q2 4 4 7.5t6 6.5h2zM273 827l-6 3q-8 17 -12.5 34.5t-9.5 35.5q-6 4 -13 2.5t-14 -0.5q-9 -8 -17.5 -16.5t-12.5 -20.5 q7 -20 13.5 -39.5t14.5 -39.5q7 -10 13 -20.5t17 -16.5h10q23 16 46 32.5t46 33.5q16 11 30.5 23t20.5 31q2 4 3 7.5t3 7.5q1 11 -11 13q-18 -4 -32 -14.5t-28 -22t-28.5 -21t-32.5 -12.5z" glyph-name="Zcaron" horiz-adv-x="563"/>
<glyph d="M46 74q-5 -8 -9 -18t-4.5 -20t2.5 -19.5t12 -16.5h41q44 1 87 8.5t85.5 18t84.5 22t85 19.5q45 7 90 13t90 15q21 4 42.5 13t29.5 31q4 14 -1.5 24.5t-16 17t-24 9t-24.5 1.5q-49 0 -96.5 -7.5t-94.5 -18.5t-94 -24t-93 -26h-26q9 24 23.5 44t31.5 38.5t34 36.5t32 38 q48 62 76 131q12 33 29.5 63t34 61t29 63t15.5 68v15q0 7 -0.5 15.5t-3.5 16t-8.5 13t-14.5 5.5h-105q-70 -14 -140 -27t-140 -29q-17 -3 -35.5 -9.5t-34.5 -16t-27.5 -24t-12.5 -34.5q2 -20 18 -31.5t35 -9.5q5 1 8 1q4 0 9 1q61 25 124.5 44.5t130.5 19.5h7q6 -1 12 -1h12 h8q4 -4 7 -8t3 -9q1 -13 -3 -24t-10.5 -21t-14 -19.5t-13.5 -19.5q-33 -97 -86 -185t-129 -158q-46 -37 -67 -90zM293 824l-6 3q-12 35 -18 70q-6 4 -13 2.5t-14 -0.5q-10 -8 -18.5 -16.5t-13.5 -20.5q6 -20 11.5 -39.5t13.5 -39.5l12 -20t16 -17h10q46 31 93 66 q17 10 31.5 22.5t22.5 31.5q2 4 3.5 7.5t3.5 7.5q2 11 -10 13q-18 -4 -32.5 -14t-29 -21.5t-29.5 -21.5t-33 -13z" glyph-name="zcaron" horiz-adv-x="646"/>
<glyph d="M71 329q2 -18 10.5 -37t30.5 -20q25 -3 33 22q15 55 24.5 111.5t22.5 112t32 109.5t52 103q12 18 25 36t19 39q5 17 -6.5 27t-26.5 8q-22 0 -39 -13t-31 -29q-21 -29 -40.5 -57.5t-36.5 -59.5q-30 -68 -49 -139.5t-22 -146.5q-2 -17 -0.5 -33t2.5 -33zM22 64 q-2 -8 -3 -19t0.5 -21t7 -17t17.5 -7q38 3 67 29.5t41 61.5q2 10 1.5 22t-5 21.5t-13 16t-21.5 6.5q-18 -2 -32.5 -10.5t-26 -22t-19.5 -29.5t-14 -31z" glyph-name="exclam" unicode="!" horiz-adv-x="330"/>
<glyph d="M219 536q-2 -8 -6 -14.5t0 -14.5q8 -7 13.5 -8.5t10.5 -1.5q24 0 44 14.5t31 34.5q20 26 22 59.5t-11 62.5q-4 16 0.5 31t12.5 29.5t17 28t14 28.5q3 6 6.5 14.5t4.5 16.5t-2.5 13.5t-14.5 5.5q-24 -5 -48 -15.5t-44 -27t-34.5 -38t-18.5 -47.5q0 -15 3 -27t7 -22.5 t7.5 -20t3.5 -19.5q0 -27 -4.5 -46t-13.5 -36zM36 524q-2 -5 -4.5 -10t-4.5 -10q3 -21 16 -19q43 13 78.5 45.5t43.5 78.5q-4 21 -9 41.5t-7 39t1.5 36t17.5 32.5q2 5 3.5 9t3.5 8q2 5 2.5 10.5t1.5 10.5q-8 7 -12 9t-9 1q-21 -3 -42.5 -12.5t-38 -25t-26.5 -35.5t-9 -43 q20 -46 19 -88.5t-25 -77.5z" glyph-name="quotedbl" unicode='&quot;' horiz-adv-x="404"/>
<glyph d="M182 192q15 2 20 -11.5t-1 -24.5q-5 -14 -7.5 -20t-4.5 -11q-2 -14 3.5 -17.5t10.5 -4.5q17 2 33 8t27 20q11 17 20.5 35t14.5 38q6 10 15.5 15.5t20 8.5t22 3.5t21.5 1.5h4q3 -2 6 -3.5t6 -3.5q-1 -17 -4.5 -32.5t-7.5 -32.5q-3 -10 -6 -20.5t-4 -19.5t2 -14.5t14 -5.5 q23 3 43 15.5t34 30.5t22 40.5t8 45.5q11 18 32 21t40 5q14 0 27.5 2t23 7t13.5 13.5t0 20.5q-9 16 -23 25t-30.5 13.5t-34 6t-33.5 1.5h-31q-14 8 -23 20q-4 5 -7.5 10.5t-7.5 11.5q-11 15 -10 31q9 11 17 14.5t15 5.5q26 2 43 13t12 33q0 2 0.5 4t0.5 4q0 8 -2.5 17.5 t-12.5 10.5h-76q-3 5 -6 9t-5 9q5 14 10.5 27.5t10.5 27.5q4 9 6 17.5t2 15.5t-4 11t-12 3q-25 0 -42 -11t-29.5 -28t-23.5 -36t-24 -35.5t-30 -26.5t-42 -8q-7 0 -15 0.5t-10 8.5q1 29 11 56.5t26 51.5q8 9 5.5 22t-17.5 12q-28 -1 -51.5 -17t-40.5 -38 q-18 -23 -27.5 -51.5t-11.5 -57.5q-2 -3 -3 -6.5t-3 -6.5q-11 -5 -25 -11.5t-25 -15t-15.5 -20.5t3.5 -27q4 -5 8 -11t8 -11q4 -3 7.5 -6t7.5 -5h85l10 -8t9 -9t7.5 -11t5.5 -12q4 -6 6 -12.5t4 -12.5q-11 -18 -32 -23t-42 -9.5t-38 -14t-20 -35.5q-4 -14 4 -29q12 -4 19 -5 t12 -1q21 0 41 4.5t41 4.5zM290 417h21l6 -2l6 -2l10 -9l1 -1q4 -6 7.5 -12t8.5 -11q9 -11 15 -23.5t3 -26.5q-14 -13 -28 -15t-27 -2h-11h-2l-11 5l-1 3q-10 20 -23.5 38t-26.5 36q-1 2 -0.5 5t-0.5 5l15 8q14 2 22.5 3t15.5 1z" glyph-name="numbersign" unicode="#" horiz-adv-x="591"/>
<glyph d="M123 136q-10 -55 -32 -109q-4 -11 6.5 -18.5t20.5 -8.5q26 -1 49 14t34 38q16 29 26.5 52t33.5 32q10 4 19.5 7t19.5 6q22 11 42.5 28.5t34.5 39t20.5 46t2.5 51.5q-15 40 -44.5 67.5t-66 46.5t-76.5 32.5t-77 26.5q-1 13 5.5 21.5t16.5 14.5t22 9t22 5q29 4 51 4t43 -2 q8 5 16.5 11.5t7.5 17.5q1 21 -10.5 32t-27.5 18.5l-32 15t-25 21.5q1 14 3 27t3 27q2 20 -3 35.5t-21 13.5q-19 -3 -39 -10t-31 -24q-10 -23 -15.5 -48t-10.5 -49q-15 -21 -36 -39t-39.5 -38t-30.5 -42.5t-9 -52.5q14 -28 38 -40.5t52.5 -18t59 -7.5t58.5 -9t50 -22.5 t34 -47.5q6 -17 2 -33t-13.5 -28t-24.5 -19t-32 -5q-24 0 -41 13t-32 28.5t-32 28.5t-41 13q-10 1 -17 -3.5t-11 -11.5t-5.5 -16t0.5 -17q1 -20 9 -37t19.5 -32.5t25.5 -29t28 -25.5z" glyph-name="dollar" unicode="$" horiz-adv-x="387"/>
<glyph d="M143 34q3 -11 7.5 -20.5t18.5 -8.5q37 11 66.5 34.5t52 54t38 66.5t24.5 71q10 23 15.5 47.5t8.5 49.5t5 50t6 49q20 66 58.5 114t82.5 86q26 23 53.5 43t44.5 50q7 10 5.5 18.5t-8 15t-16.5 9.5t-19 1q-29 -1 -56.5 -8.5t-54.5 -16t-54.5 -16t-56.5 -8.5q-19 -2 -33 7 t-26.5 21t-26 21.5t-32.5 7.5q-46 -3 -96 -17t-93 -40t-72.5 -64.5t-34.5 -90.5q2 -26 15 -47t33 -36.5t44 -24.5t48 -10q40 1 68.5 22t52 49.5t46.5 58.5t53 49q16 0 31.5 -2t31.5 -5q0 -2 -0.5 -3.5t-0.5 -3.5q-2 -12 -10 -22t-17 -18q-16 -20 -31 -40t-28 -42 q-12 -21 -18 -43.5t-9 -46t-4.5 -47.5t-5.5 -47q-16 -68 -39 -123.5t-49 -109.5q-7 -17 -18 -34zM379 75q-3 -15 1.5 -29t13.5 -25t22.5 -17t29.5 -4q45 2 94 15t91.5 37.5t73 61t39.5 86.5q-2 34 -18.5 62.5t-43 49t-58.5 32t-64 12.5q-47 1 -73.5 -23.5t-42.5 -60.5 t-26 -76.5t-22 -73.5l-3 -9q-2 -8 -5.5 -15t-5.5 -15q-1 -2 -1.5 -4t-1.5 -4zM490 138q7 20 15.5 43t20.5 43.5t29 34.5t43 15q15 0 27 -7.5t20.5 -18.5t12.5 -25t4 -27q-2 -25 -15.5 -44t-33 -32t-43 -19.5t-45.5 -6.5q-6 1 -12 1.5t-12 0.5q-5 4 -7.5 10t-7.5 10q1 5 2 11 t2 11zM41 564q1 22 12.5 41t28 32.5t37.5 21.5t42 9q7 1 13.5 -1t12 -6.5t7.5 -11t0 -13.5q-7 -19 -18.5 -37t-27 -32.5t-34.5 -23.5t-40 -11q-14 -2 -25 7.5t-8 24.5z" glyph-name="percent" unicode="%" horiz-adv-x="693"/>
<glyph d="M20 367q24 -47 64.5 -80t80.5 -65q5 -6 4 -13t-3 -14q-9 -16 -3 -23.5t14 -5.5q25 3 48 15t40.5 30.5t28 42t11.5 49.5l6 8t7 6q20 2 41 3.5t41 5.5q14 4 21.5 6.5t14.5 5.5q16 10 16 22t-5 20q-16 20 -37.5 29t-45.5 12t-49 1.5t-47 -2.5l-12 12q-2 5 -3 9.5t-3 9.5 q-5 20 -6 41t5 41q3 8 4.5 16t5.5 16q5 16 1.5 25t-14.5 8q-18 -2 -35.5 -8.5t-29.5 -20.5q-19 -32 -24.5 -70t11.5 -73q3 -8 -1 -14.5t-12 -7.5h-135q-11 0 -16 -6q2 -10 4 -14t4 -6q2 -3 4 -5.5t4 -5.5zM189 317q1 0 2 0.5t2 0.5t1.5 -0.5t1.5 -0.5q2 -2 4.5 -4t4.5 -4 q-2 -2 -3.5 -3t-3.5 -3q-1 0 -1 -1h-1t-2 0.5t-2 0.5l-9 6q2 2 2.5 5t3.5 3z" glyph-name="ampersand" unicode="&amp;" horiz-adv-x="450"/>
<glyph d="M22 534q-2 -8 -4 -15.5t1 -15.5q11 -7 17.5 -8.5t12.5 -1.5q37 2 59 23.5t31 52.5t6.5 65.5t-12.5 61.5q-5 23 -5.5 45.5t-2.5 45.5q-1 14 -2.5 27.5t-6 24.5t-12 17.5t-20.5 6.5q-22 -1 -41.5 -15t-25.5 -36q-5 -27 0.5 -54.5t6.5 -54.5q16 -83 -2 -169z" glyph-name="quotesingle" unicode="&apos;" horiz-adv-x="159"/>
<glyph d="M21 367q1 -14 4 -27t4 -27q7 -43 11 -86.5t11 -86.5q4 -23 8.5 -47.5t13 -45t23 -33.5t38.5 -14q21 -2 36.5 13.5t17.5 35.5q1 5 1.5 9.5t2.5 9.5q-4 27 -9.5 54.5t-10.5 54.5q-13 54 -22.5 108.5t-18.5 109.5q-15 67 -1.5 134t45.5 127q10 18 23 34t26 31.5t24.5 32.5 t18.5 37q7 17 -3.5 31t-28.5 12q-68 -23 -113 -74.5t-70.5 -117t-32.5 -138t2 -137.5z" glyph-name="parenleft" unicode="(" horiz-adv-x="283"/>
<glyph d="M14 36q-3 -18 12 -27t30 -9q64 15 108 59t70.5 101.5t36.5 122.5t4 124q-14 58 -25.5 116t-20.5 117q-8 31 -12 65.5t-12 64.5t-24 51t-48 27q-19 0 -32 -13t-18 -30l-3 -15q20 -104 50 -204t52 -203q10 -58 -6 -116t-54 -103q-12 -17 -28 -31t-31.5 -28.5t-28.5 -31 t-20 -37.5z" glyph-name="parenright" unicode=")" horiz-adv-x="281"/>
<glyph d="M292 795q-5 13 -17 19t-25 6q-8 0 -16 -2.5t-16 -6.5q-6 -6 -13.5 -10.5t-12.5 -10.5q1 6 2.5 12.5t3.5 12.5q2 4 3.5 7.5t4.5 6.5q5 10 5 19q-18 12 -29 11q-44 0 -76 -29q-11 -9 -19.5 -21t-7.5 -27q-11 5 -20.5 11.5t-21.5 6.5q-4 -1 -8 -1t-8 -1q-14 -3 -24.5 -14 t-6.5 -25q2 -13 11 -22.5t20 -15.5l14 -6t14 -7q11 -4 23 -11q-5 -5 -8 -10t-8 -10q-8 -10 -13 -21t-4 -24q-1 -5 1.5 -10t4.5 -10q7 -8 16.5 -15t21.5 -6q14 1 27.5 6.5t25.5 13.5q0 -12 -6 -21q-1 -6 -4 -13t-4.5 -14t-0.5 -13.5t9 -10.5q32 3 64.5 16.5t46.5 45.5 q0 3 0.5 5.5t0.5 5.5q13 -5 26 -10.5t27 -4.5q13 0 25 5t18 18q6 10 4 22q-6 25 -29.5 38.5t-46.5 17.5q-14 1 -27 6q7 5 10.5 12t8.5 13q14 8 24 20t12 29q-1 5 -2 8.5t0 8.5z" glyph-name="asterisk" unicode="*" horiz-adv-x="331"/>
<glyph d="M200 204q-3 -5 -6 -9.5t-6 -9.5t-6.5 -11.5t-4.5 -13t1.5 -11t12.5 -4.5q36 3 62.5 22t43 47.5t23 62.5t3.5 66q20 13 45 13q26 0 50 3q25 2 39.5 2.5t28.5 1.5q9 1 18.5 3t16 4.5t9.5 7t0 10.5q-8 11 -16 23t-14 25q-2 2 -5 3t-5 3q-9 2 -17.5 2.5t-17.5 2.5h-168 q-2 2 -4 2.5t-4 2.5q-1 2 -2 4.5t-2 4.5q-6 21 -3 41t11 39t19 37t20 35q5 10 11 19q1 8 -5 13.5t-14 5.5q-41 -3 -72 -30.5t-48 -62.5q-13 -23 -16.5 -48.5t1.5 -50.5q-4 -14 -15 -20t-24.5 -7.5t-27.5 -0.5t-26 1h-37q-13 0 -25 -3q-11 -4 -15 -9.5t-4 -12.5q0 -6 3 -12 t6 -10q10 -14 25 -22t32 -9h130q9 -1 14 -6.5t8 -13.5q1 -2 1.5 -4t1.5 -4q11 -32 -0.5 -63t-25.5 -59z" glyph-name="plus" unicode="+" horiz-adv-x="532"/>
<glyph d="M15 -125q-6 -13 4.5 -18.5t20.5 -3.5q36 4 65.5 25.5t49.5 50.5q9 18 12 36t3 35v33t3 32q0 2 0.5 4t0.5 4q1 8 2 17t5 17q1 11 -6 20.5t-19 7.5q-20 0 -35.5 -9.5t-26 -24.5t-15 -33.5t-2.5 -36.5q-1 -42 -13.5 -82t-45.5 -69q-1 -2 -1.5 -2.5t-1.5 -2.5z" glyph-name="comma" unicode="," horiz-adv-x="199"/>
<glyph d="M10 335q8 -3 19 -7t20 -9.5t14.5 -13t2.5 -19.5h46q72 -1 144 4.5t144 16.5q2 2 4 3.5t4 3.5q-14 12 -24.5 18t-21.5 11q-7 5 -13.5 11t-4.5 16q0 8 -3.5 10t-7.5 2h-251l-24 -2t-23 -4q-19 -5 -25.5 -7t-11.5 -4q-5 -8 -4.5 -12.5t3 -7.5t6.5 -5t7 -5z" glyph-name="hyphen" unicode="-" horiz-adv-x="394"/>
<glyph d="M15 56q6 -8 10 -18t8.5 -19.5t12 -15.5t20.5 -4q12 0 26.5 6t24.5 15t13 21.5t-7 26.5q-5 19 -18.5 35t-35.5 14q-11 0 -25 -4.5t-24 -12.5t-13 -19.5t8 -24.5z" glyph-name="period" unicode="." horiz-adv-x="140"/>
<glyph d="M22 39q-3 -5 -5 -12t-1.5 -13t4 -10t12.5 -4q21 0 38.5 8.5t32.5 21t28 28t25 30.5q34 41 62.5 85.5t45.5 95.5q9 26 12.5 50t6 46.5t6 43.5t11.5 41q20 42 43 81t52 75q22 23 43 47t35 53l4 10t2 11q-6 13 -13.5 14.5t-14.5 2.5q-48 -22 -91.5 -55t-79.5 -73.5 t-63 -87.5t-43 -98q-8 -116 -51 -211.5t-101 -179.5z" glyph-name="slash" unicode="/" horiz-adv-x="491"/>
<glyph d="M67 251q11 -42 18.5 -84t22.5 -83q9 -24 24.5 -40.5t35 -26.5t40.5 -14t42 -3q83 2 160 32.5t142 81.5q40 35 61.5 66t32.5 65q5 28 2 52t-9.5 45t-15.5 40t-15 39q-19 44 -32.5 89t-27.5 90q-6 25 -16.5 47.5t-26 39t-35.5 25t-44 6.5q-95 -2 -184.5 -39t-157.5 -103 q-35 -39 -51 -75.5t-15 -72.5q2 -26 8.5 -48.5t14.5 -44t15.5 -42t10.5 -42.5zM185 272q-6 25 -16.5 49.5t-19 50t-10.5 51t8 52.5q15 34 37 60t49 43.5t57.5 27t61.5 9.5q39 0 64.5 -20t43.5 -49.5t31 -63.5t27 -62q7 -23 16 -46t14 -47t3.5 -48t-13.5 -47 q-33 -59 -83.5 -94.5t-108.5 -37.5q-37 -3 -64 12.5t-46.5 41t-31.5 57.5t-19 61z" glyph-name="zero" unicode="0" horiz-adv-x="655"/>
<glyph d="M115 120q-2 -8 -3.5 -16t-2.5 -16q-1 -11 -3.5 -25t-2 -27.5t6.5 -23.5t22 -12q26 0 46.5 16t30.5 39q20 66 20 133t-6 134t-10.5 134t6.5 134q1 4 1.5 7t0.5 7q3 12 3.5 24.5t3.5 24.5q2 10 4 15q-3 21 -20 35.5t-38 14.5q-64 -42 -114.5 -104.5t-75.5 -135.5 q-1 -17 13 -24.5t28 -5.5q9 0 16.5 3.5t14 8.5t13.5 8.5t16 3.5q5 -1 8.5 -2t5.5 -6q0 -11 2 -22t2 -22q14 -75 18.5 -150t-6.5 -150z" glyph-name="one" unicode="1" horiz-adv-x="252"/>
<glyph d="M61 122q-10 -44 -32 -88q-5 -11 -0.5 -17.5t12.5 -10.5t18.5 -5t17.5 -1q26 0 51.5 5t50.5 10.5t50.5 11t51.5 7.5q23 2 46 2h46t45 -0.5t45 -1.5q15 4 28 13t18 24q7 19 0 32t-21.5 20.5t-32.5 10.5t-32 2q-28 0 -55.5 -2.5t-54.5 -6.5t-54.5 -6.5t-55.5 -2.5q2 8 2 12 q54 38 103 81t81 101q24 72 36 136t23 127q4 20 4.5 44t-6 45t-21.5 35.5t-42 16.5h-14q-10 -1 -20 1t-20 1h-15q-38 -5 -79.5 -8.5t-81 -12t-75 -25t-62.5 -47.5q-6 -14 -4 -27t10 -22.5t20.5 -14.5t26.5 -3q26 1 49 11t46 22t46.5 21t49.5 9q14 1 29.5 -2t28 -11t19 -20.5 t3.5 -29.5q-8 -57 -28 -109.5t-49 -101.5q-35 -58 -83 -105.5t-99 -92.5q-4 -8 -10 -13.5t-10 -13.5z" glyph-name="two" unicode="2" horiz-adv-x="503"/>
<glyph d="M48 74q-8 -14 -5.5 -27t11 -23t21.5 -16.5t26 -7.5h76q63 0 124 12.5t119 35.5q33 14 63.5 32t53.5 40.5t36.5 49.5t11.5 60q-8 40 -31 68.5t-54 51t-65.5 40.5t-64.5 38q-11 6 -19 13q15 29 37.5 52t46.5 45t46.5 45t37.5 53q9 26 -3.5 50.5t-38.5 32.5q-39 15 -73 18.5 t-66 4.5q-42 -5 -89 -8.5t-91.5 -13.5t-84 -30t-67.5 -56q-2 -21 16.5 -32.5t36.5 -12.5q2 0 3.5 0.5t3.5 0.5q51 23 105 38.5t111 14.5h9q8 1 15 -0.5t15 -0.5h9q11 -5 21.5 -12.5t8.5 -21.5q-8 -23 -23 -41t-33 -33t-38 -28.5t-38 -27.5q-17 -15 -36.5 -28t-35 -27 t-24 -30t-3.5 -37q8 -19 25.5 -31.5t38.5 -11.5q15 0 29.5 3t29 7.5t29 8t29.5 3.5q23 -2 48.5 -8.5t47.5 -18t39 -29t24 -42.5q2 -18 -4 -33.5t-17.5 -27.5t-26 -21t-29.5 -15q-46 -17 -85 -22t-77 -6q-30 0 -60 3.5t-60 4.5h-30q-14 -7 -20.5 -19.5t-11.5 -26.5z" glyph-name="three" unicode="3" horiz-adv-x="575"/>
<glyph d="M322 329h73q4 -2 8 -2q5 0 6 -5q28 -64 24.5 -134t-33.5 -133q-5 -8 -8 -16t-7 -16q2 -17 11.5 -20t17.5 -4q17 -2 32 3.5t26 18.5q38 66 55.5 142t0.5 151q-4 13 -3 26.5t2.5 27t2 27t-5.5 26.5q-7 15 -17 27.5t-15 28.5q-5 25 -2 49.5t9.5 48.5t16 47t18.5 46 q3 10 9 19q4 13 10 28.5t-4 27.5q-12 3 -24 3h-16q-14 0 -26.5 -5.5t-20.5 -16.5q-40 -55 -66.5 -119.5t-22.5 -133.5q4 -25 -14.5 -38t-40.5 -10q-48 0 -95.5 -0.5t-95.5 -0.5l-9 7l-3 9q-9 36 2 66.5t30 58.5t40 56t32 58q8 15 5 30q-10 8 -17 11t-14 2q-42 -11 -77 -36.5 t-61 -60.5t-41.5 -76.5t-18.5 -83.5q1 -23 4.5 -46.5t11.5 -45.5q5 -17 11.5 -32.5t15.5 -27.5t21 -18.5t28 -6.5q9 -1 17 2.5t15 8.5t14 9.5t15 6.5q42 12 86 14t88 2z" glyph-name="four" unicode="4" horiz-adv-x="581"/>
<glyph d="M76 153q-5 -18 -5.5 -37.5t5 -37t17 -32t31.5 -21.5q39 -17 76 -21t72 -4q64 1 125.5 18.5t117.5 48.5q29 18 55 40t43 47t24 53.5t-2 58.5q-15 38 -40 73.5t-57.5 63.5t-71.5 46t-81 21h-253q-2 4 -4.5 7t-4.5 7q0 2 -0.5 2.5t-0.5 2.5q-3 24 0 48.5t8 47.5 q14 18 33 28.5t40.5 16t44 8t43.5 3.5q54 0 107 -8.5t107 -8.5q22 -2 44.5 7t30.5 32q7 12 5 23.5t-10 20.5t-19.5 14.5t-22.5 6.5q-35 7 -62.5 8t-53.5 1q-85 -1 -168 -17.5t-165 -37.5q-9 -6 -18 -12.5t-16 -15.5q-15 -32 -23 -67t-8.5 -70.5t8 -70.5t26.5 -66 q8 -17 21 -31t31 -21q10 -2 15 -2h15q26 0 51 7t49 15t49 15t51 6h11h1q9 1 18.5 -0.5t18.5 -0.5h12q21 -8 43.5 -17.5t42 -23.5t33.5 -32.5t18 -43.5q3 -39 -16.5 -67.5t-50 -47t-67.5 -27.5t-70 -9t-67.5 3t-60.5 27q-11 9 -19 21t-16.5 23.5t-19 20t-26.5 10.5 q-21 1 -32 -16.5t-12 -35.5z" glyph-name="five" unicode="5" horiz-adv-x="627"/>
<glyph d="M53 294q13 -46 20.5 -92.5t16.5 -93.5q4 -28 17 -49t31 -35t40.5 -20.5t45.5 -3.5q68 2 132 22.5t122 55.5q30 20 56.5 43.5t44 50.5t24 56t-1.5 61q-9 29 -26.5 54t-40.5 44.5t-50.5 33.5t-56.5 22h-13q-9 -1 -18 0.5t-18 1.5h-12q-59 3 -112.5 -19.5t-95.5 -62.5h-14 q-13 22 -17.5 47t-0.5 49.5t15 47t30 39.5q54 51 112 79.5t118 50.5q15 8 25.5 20.5t17.5 27.5q6 9 9 22t-12 17q-8 -1 -15 0.5t-15 0.5q-45 0 -86 -17.5t-80 -36.5q-60 -29 -113 -70t-88 -99q-19 -34 -23 -66t0.5 -63t14 -60.5t17.5 -57.5zM178 194q6 36 28 61.5t52 42.5 t64.5 26t66.5 11q14 1 29 -1.5t28 -9t23 -17t13 -25.5q4 -39 -13.5 -70.5t-47.5 -54t-66.5 -35t-70.5 -13.5q-19 -2 -38.5 3t-35 16t-25 27.5t-7.5 38.5z" glyph-name="six" unicode="6" horiz-adv-x="573"/>
<glyph d="M67 47l-4 -14t0 -15q8 -12 16.5 -14.5t16.5 -3.5q35 7 62 27t47 48t34.5 60t25.5 63q22 45 37 92t27 95q24 61 60 106t77 83q4 8 7.5 14.5t6.5 14.5q1 8 3 14t3 14q1 2 1.5 4t1.5 4q1 3 1.5 5.5t1.5 5.5q2 3 2.5 6t2.5 5q1 2 1.5 4t1.5 4q3 22 -11.5 38.5t-32.5 24.5h-51 q-43 0 -85.5 -4.5t-85 -9.5t-85 -8t-85.5 1q-32 -8 -57 -31.5t-33 -55.5q-3 -8 -4 -15t-3 -15q-2 -11 2 -18t11.5 -11t17 -5.5t17.5 -0.5q16 -2 26.5 5.5t19.5 17.5t18.5 19.5t22.5 13.5q64 21 131 22.5t133 1.5q-1 -6 -2.5 -12t-2.5 -12q-27 -22 -53 -47.5t-47.5 -54.5 t-37 -61.5t-22.5 -68.5q-8 -89 -36 -161t-72 -134q-8 -9 -14.5 -19.5t-11.5 -21.5z" glyph-name="seven" unicode="7" horiz-adv-x="529"/>
<glyph d="M72 153q-5 -27 -5 -56t17 -53q26 -29 58 -36t61 -8q70 2 137.5 20t132.5 44q35 17 69.5 35t62.5 40t45 49t18 63q-8 36 -29.5 62t-49.5 46.5t-59.5 37t-59.5 33.5q-1 2 -2 4.5t-2 4.5q-2 28 7 53.5t21 50.5t24 50.5t16 52.5q3 18 4.5 41t-3 44t-17.5 36t-38 17h-129 q-56 -5 -105.5 -29t-96.5 -53q-26 -20 -50.5 -39.5t-44 -40.5t-31.5 -45t-13 -52q6 -25 23 -42t36.5 -32t38.5 -30.5t30 -37.5q4 -30 -5 -58.5t-21.5 -56.5t-24.5 -56.5t-15 -58.5zM172 122q2 6 2.5 12t2.5 12q6 38 22.5 77.5t42 71t60.5 51t79 17.5q25 -1 50 -9.5t46 -23.5 t35.5 -36.5t18.5 -47.5q-3 -41 -27 -70t-59 -47.5t-75 -28t-75 -12.5q-15 1 -32.5 1.5t-34 3.5t-31.5 9t-25 20zM132 520q3 38 23.5 68.5t50.5 52.5t66.5 35.5t70.5 18.5q13 0 26 -1t26 -6q18 -15 17 -32t-3 -31q-3 -17 -6.5 -35.5t-9 -35.5t-14 -33t-22.5 -28 q-36 -28 -73.5 -35.5t-73.5 -7.5q-28 3 -49 23.5t-29 46.5z" glyph-name="eight" unicode="8" horiz-adv-x="624"/>
<glyph d="M318 299h4q2 -2 4 -2.5t4 -2.5q19 -69 6 -140t-48 -133q-5 -11 1 -18q9 -2 13 -2.5t6 -0.5q33 1 57.5 24t38.5 51q14 26 24.5 52.5t17.5 55.5q14 57 13.5 114.5t-14.5 114.5q-6 74 12 135.5t51 113.5l3 12q8 22 3 45.5t-26 36.5q-27 16 -52.5 19.5t-49.5 5.5 q-72 -2 -140 -22t-131 -54q-33 -20 -62.5 -44t-50 -52.5t-29.5 -60t-1 -66.5q11 -38 33 -73t52.5 -62.5t67.5 -43.5t78 -16q29 0 57.5 6.5t57.5 6.5zM72 481q-4 51 21.5 90t66.5 66t90 41.5t92 17.5q14 1 27.5 -2t24.5 -11l-2 -8l-2 -8q-6 -16 -14 -31t-17 -29.5t-17 -29.5 t-12 -31q-9 -28 -14.5 -56t-13.5 -56q-6 -18 -17 -30t-24.5 -19t-28.5 -9.5t-29 -2.5q-23 1 -44 10.5t-38 24t-30 33.5t-19 40z" glyph-name="nine" unicode="9" horiz-adv-x="564"/>
<glyph d="M16 412q-3 -10 -1 -20.5t8 -19t15 -13.5t20 -4q29 0 51.5 17.5t42.5 36.5q2 5 3 10.5t3 10.5q3 12 0.5 23.5t-9 20.5t-16.5 13.5t-23 3.5q-16 -1 -32 -7t-28.5 -16.5t-21.5 -25t-12 -30.5zM22 75q-1 -8 -4 -15t-1 -15q7 -11 13.5 -15t13.5 -3q18 1 37.5 6t36.5 14.5 t29.5 23.5t18.5 33q-1 13 -8.5 22.5t-18 16t-23 10t-23.5 4.5q-17 0 -29 -7.5t-20.5 -19.5t-14 -26.5t-7.5 -28.5z" glyph-name="colon" unicode=":" horiz-adv-x="179"/>
<glyph d="M12 -81q-5 -14 5 -21t22 -5q35 0 67 15t56.5 39.5t39 56.5t14.5 67l-3 33v8q-5 11 -14.5 18t-21.5 5q-26 -1 -37.5 -16t-18 -35.5t-12.5 -42t-19 -36.5q-9 -12 -20.5 -21.5t-22.5 -19t-20.5 -20.5t-14.5 -25zM87 399q-4 -9 -3.5 -19.5t5 -19t13 -13.5t20.5 -3q31 0 58 18 t33 50q4 12 2 24t-9 22t-18 15t-24 4q-15 0 -28.5 -6.5t-24 -17.5t-17 -25t-7.5 -29z" glyph-name="semicolon" unicode=";" horiz-adv-x="235"/>
<glyph d="M249 5q2 -2 4.5 -4t5.5 -1h14q20 -1 37 10t23 30q15 53 0 98.5t-46.5 85.5t-72 74.5t-74.5 64.5q-1 3 -2 5.5t-2 5.5q1 37 15 68.5t35.5 59t48.5 52t54 49.5t51 51.5t41 56.5q5 7 5.5 16t-10.5 11h-26q-20 0 -39 -4t-34 -17q-79 -66 -147.5 -141.5t-118.5 -166.5 q-11 -18 -5 -36q2 -3 3.5 -6t1.5 -7q13 -34 36.5 -60t50.5 -49t54.5 -45t50.5 -49q24 -33 34.5 -72.5t11.5 -79.5z" glyph-name="less" unicode="&lt;" horiz-adv-x="403"/>
<glyph d="M-24 427q5 -21 24.5 -30.5t39.5 -10.5q15 -1 29.5 2t29 6.5t28.5 8t29 6.5q24 3 50.5 4.5t52 6.5t46.5 17t34 38q5 8 10 18.5t-7 17.5h-9q-8 -1 -14.5 0.5t-14.5 0.5h-12q-38 -1 -75.5 -4t-75.5 -9q-25 -6 -50.5 -10t-48 -10.5t-40 -18.5t-26.5 -33zM42 244 q-2 -8 -8 -14.5t-3 -14.5q13 -4 21 -4h17h40q35 0 69.5 2.5t69.5 7.5q22 5 45 10t43 12.5t34.5 19.5t19.5 33q-3 20 -20.5 30.5t-36.5 8.5q-37 -4 -77 -8.5t-78 -13.5t-73 -25t-63 -44z" glyph-name="equal" unicode="=" horiz-adv-x="376"/>
<glyph d="M29 44q-6 -9 -5.5 -17.5t6 -15t14 -10t17.5 -1.5q31 -5 49 21q71 97 143 190.5t149 184.5q8 12 5.5 25.5t-4.5 26.5q-5 23 -17 42t-27.5 35.5t-33.5 31.5t-34 30q-45 43 -86 88.5t-75 97.5q-7 3 -13 6t-13 6h-3q-19 0 -35.5 -10t-23.5 -28q-10 -29 9 -51q34 -39 67.5 -78 t73.5 -72q12 -12 26 -23t26.5 -23t22.5 -25.5t16 -30.5q2 -8 2 -13q-25 -36 -47.5 -73.5t-50.5 -71.5q-43 -58 -86 -116.5t-72 -125.5z" glyph-name="greater" unicode="&gt;" horiz-adv-x="426"/>
<glyph d="M384 658q-9 -47 -39 -83t-64 -67q-16 -17 -35 -31t-35 -28t-26.5 -30t-10.5 -37q11 -26 19.5 -53t11.5 -56q2 -15 15 -19t25 -3q9 -2 18.5 0.5t17 8.5t11.5 14t2 19q-1 29 3 52t21 38q29 33 60 66.5t58 69.5t46.5 76t26.5 87q5 26 5.5 53.5t-16.5 49.5q-26 23 -52.5 28.5 t-51.5 6.5q-61 -3 -120 -16.5t-117 -30.5q-32 -12 -64 -23.5t-59.5 -26t-48.5 -33.5t-31 -47q-3 -15 2.5 -29t19.5 -21q7 -1 14 -1.5t14 -0.5q42 6 78 26.5t72 42.5t73.5 38.5t82.5 13.5q6 -1 11 -1h12h22q17 -5 24.5 -20.5t4.5 -32.5zM152 53q-5 -9 -7.5 -19.5t2.5 -20.5 q11 -8 19 -10.5t16 -2.5q16 1 33 5.5t32 12t27.5 19t19.5 27.5q4 11 1 21.5t-10 18.5t-17.5 13t-21.5 5q-32 -1 -56 -22t-38 -47z" glyph-name="question" unicode="?" horiz-adv-x="564"/>
<glyph d="M62 299q20 -48 33.5 -97.5t30.5 -98.5q10 -29 28 -49t40 -32.5t47 -18t50 -3.5q31 1 65.5 4.5t67 12.5t60.5 26.5t46 47.5q6 9 4.5 16.5t-7.5 13t-14.5 8.5t-16.5 2q-18 0 -35 -5t-33.5 -11t-33.5 -10.5t-35 -4.5q-35 -1 -70.5 11.5t-55.5 44.5q-26 46 -41 88t-34 80 q-15 24 -26 51t-14.5 55t2.5 55.5t26 51.5q54 62 121 93.5t137 33.5h9q8 -1 15.5 -1.5t15.5 -1.5q30 -17 49 -43.5t32.5 -57t24 -62.5t25.5 -60q10 -19 17.5 -38.5t18.5 -38.5q4 -12 6.5 -25t1 -23.5t-7.5 -17.5t-18 -8q-24 2 -42.5 19t-32.5 34q-20 25 -35 43t-23 38 q-8 16 -9 32t1 32.5t5.5 33t3.5 33.5q1 22 -17.5 32.5t-37.5 9.5q-50 0 -96 -22t-77 -62q-18 -25 -23 -50.5t-1 -50.5t13.5 -48t20.5 -43q9 -23 22.5 -45.5t31 -41t40 -30t50.5 -10.5q18 -1 34 4.5t32 12t32 12.5t33 6q11 0 21.5 -3.5t21 -7.5t21 -7.5t21.5 -3.5 q19 0 37.5 5.5t34 17t26 27t13.5 35.5q3 24 -2 45t-12.5 40t-16 37t-14.5 37q-20 50 -34.5 101.5t-32.5 102.5q-11 29 -29.5 49t-41.5 32.5t-48 17t-50 3.5h-13q-11 1 -20.5 -0.5t-20.5 -1.5h-12q-86 -17 -165.5 -57t-138.5 -106q-27 -36 -40 -66t-15 -61q1 -27 7.5 -49 t15 -41t17 -37t14.5 -36zM329 334q-9 16 -17 38t-9.5 44t6 40.5t28.5 28.5h22q7 -20 16 -39t20 -38q8 -12 16 -24.5t17 -23.5l7 -11l7 -11l3 -9l4 -8q5 -11 2.5 -19t-10 -13.5t-17 -8.5t-18.5 -2q-27 -2 -48 14t-29 42z" glyph-name="at" unicode="@" horiz-adv-x="724"/>
<glyph d="M437 27q-2 -11 5 -20t18 -7q21 2 36.5 16t24.5 31q29 61 35 128t-11 133q-17 28 -33.5 57t-30.5 59t-24.5 61.5t-13.5 64.5q-5 39 -7 66.5t-1 52.5q-1 16 -0.5 33t-2 30.5t-9 22.5t-21.5 11q-53 -9 -100 -36t-84.5 -66t-64 -87t-38.5 -99q-5 -28 -4.5 -56.5t1.5 -57 t-0.5 -57t-10.5 -56.5q-15 -9 -27 -23.5t-10 -33.5q0 -23 -3.5 -46.5t-6.5 -46.5q-1 -15 -5 -30t-5.5 -28.5t2.5 -23.5t18 -14q34 1 52 20.5t30 46t22.5 53.5t30.5 45q43 23 90 28.5t95 5.5h53q21 -5 28 -24t4 -37q-2 -14 -3.5 -28.5t-6.5 -28.5l-10 -30t-12 -29zM307 586 q22 -25 35.5 -55t24 -62t20.5 -64t25 -61q2 -5 4.5 -11t3.5 -12q-19 -14 -41.5 -20.5t-46 -9t-48 -3t-46.5 -2.5q-9 38 -13 80.5t2 83t24.5 76t55.5 60.5z" glyph-name="A" unicode="A" horiz-adv-x="526"/>
<glyph d="M56 101q-9 -23 -1.5 -42t24 -32.5t38.5 -20.5t42 -6q66 3 128 23t121 47q31 17 62 35.5t55.5 40t39.5 47t15 58.5q-9 39 -35.5 60.5t-59 36.5t-66 28.5t-57.5 36.5q-4 30 6 56t25 51t29.5 50.5t19.5 53.5q6 24 1 50.5t-28 41.5q-29 17 -57.5 22.5t-55.5 5.5 q-36 -3 -76 -5.5t-78 -12.5t-70 -29t-51 -55q-5 -11 -4 -22t9 -19q-2 -10 -2.5 -19.5t-0.5 -19.5q0 -14 0.5 -26.5t1.5 -26.5v-12t2 -11q5 -45 21.5 -86t27.5 -84q11 -54 4.5 -102.5t-23.5 -91.5q-2 -5 -4 -10.5t-3 -10.5zM168 116q2 7 2.5 13.5t2.5 13.5q3 15 4 31 t1.5 31.5t2.5 30.5t8 30q14 15 29.5 22.5t31.5 12t32.5 7t31.5 5.5q6 1 11.5 1.5t11.5 0.5q18 -1 38 -3t39 -7.5t34.5 -16t24.5 -28.5q0 -21 -8.5 -37.5t-22.5 -30.5t-31 -25.5t-33 -20.5q-42 -22 -79.5 -35.5t-75.5 -15.5q-15 -1 -31.5 1.5t-23.5 19.5zM266 641h9q6 1 12 0 t12 -1h9q14 -2 16.5 -14t-0.5 -23q-6 -31 -19 -63.5t-33.5 -59.5t-48.5 -44t-64 -17q-7 20 -12 39.5t-10 39.5q-8 49 13 91q25 32 55.5 42t60.5 10z" glyph-name="B" unicode="B" horiz-adv-x="545"/>
<glyph d="M67 204q1 -36 3 -73.5t19 -70.5q13 -20 30 -32t36 -18t38.5 -8t37.5 -2q49 2 96 13.5t94 26.5q27 11 53.5 21.5t49.5 23.5t40.5 30t25.5 42q3 14 -7 25t-24 10q-37 -7 -70.5 -25l-67 -36t-68.5 -31.5t-75 -11.5q-22 0 -44.5 7t-34.5 27q-13 32 -14.5 59.5t-5.5 53.5 q1 27 -3 54.5t-8.5 54.5t-6.5 54.5t3 54.5q9 35 24.5 66t36.5 55.5t47 40.5t57 20q8 1 15 -3t7 -13q-2 -7 -2.5 -13t-2.5 -13q-2 -11 -1.5 -24.5t4.5 -25t12.5 -19.5t23.5 -8q20 0 33.5 10t22.5 25.5t14.5 33.5t8.5 34q2 14 6.5 28t5.5 29q5 20 3 35.5t-16 19.5 q-53 10 -106.5 2t-102.5 -30.5t-91.5 -57t-73.5 -76.5q-35 -44 -41 -90t-1 -92t14 -92t6 -91z" glyph-name="C" unicode="C" horiz-adv-x="549"/>
<glyph d="M65 247q2 -8 2.5 -16.5t1.5 -16.5v-40q1 -8 0 -17t-2 -17q-2 -5 -3 -9t-1 -9q-5 -23 -13 -46t-9 -47q9 -13 21 -18.5t25 -7.5t26 -2t25 -1q75 2 147 23.5t137 58.5q36 22 67 50.5t50.5 61.5t23.5 68.5t-12 71.5q-34 63 -65 126.5t-62 128.5q-32 71 -90 109.5t-124 33.5 h-63q-30 -9 -60.5 -19t-51.5 -36q-20 -48 -29 -99t-5 -103q3 -33 13 -62.5t20.5 -56.5t19.5 -54t11 -55zM168 200q0 32 -7.5 64t-17.5 63.5t-20 62.5t-15.5 62.5t-3 63.5t16.5 65q11 14 27 22t34 6q51 -3 87 -29.5t64 -64.5t50.5 -81t46.5 -79q23 -52 7 -96.5t-53.5 -77 t-87.5 -50.5t-95 -17q-7 2 -13 1t-13 1l-14 14q3 8 3.5 15t1.5 15q-1 10 1 20t1 20z" glyph-name="D" unicode="D" horiz-adv-x="552"/>
<glyph d="M64 152q-5 -25 1 -52t20 -49t36 -36.5t51 -14.5q53 3 103.5 16.5t99.5 30.5q28 12 56 24.5t51 27.5t40.5 34.5t24.5 45.5q1 18 -13.5 29.5t-31.5 9.5q-34 -3 -61 -22t-53 -40.5t-54 -38.5t-64 -17q-23 0 -39.5 10.5t-27.5 28t-17 38t-6 39.5q-5 29 3 55.5t24.5 47.5 t40.5 35.5t52 19.5q38 11 67.5 17t56.5 13q13 4 26 9t22 11.5t13.5 14.5t2.5 20q-8 23 -29 37t-45 15q-29 0 -56 -6.5t-54 -14.5t-54.5 -14.5t-55.5 -6.5q-8 -1 -16 0.5t-14 8.5q0 2 -0.5 3.5t-0.5 3.5q-1 5 -1.5 11t-2.5 11q0 2 0.5 4.5t0.5 4.5q-3 23 5 43.5t23 36.5 t35 26.5t42 13.5q51 9 95.5 8t88.5 -3q15 4 27 13.5t17 23.5q6 10 5.5 20.5t-5.5 19t-14.5 13.5t-20.5 5q-32 5 -57.5 3.5t-50.5 -1.5q-38 -1 -81.5 0.5t-85.5 -3.5t-78.5 -21.5t-60.5 -53.5q-5 -16 -6.5 -32t-0.5 -32l2 -32t0 -32q-2 -48 6.5 -95t17 -94.5t11.5 -95 t-10 -95.5z" glyph-name="E" unicode="E" horiz-adv-x="533"/>
<glyph d="M68 139q-11 -42 -18 -82q-4 -24 3.5 -42t27.5 -15q12 0 23 5t18 16q21 32 36 66t25 70v5q1 2 1 3q0 2 1 4v1q5 19 6 39t1 40q0 21 1 40.5t6 39.5q14 14 33 14q20 0 38 1q62 0 123 0.5t123 0.5q16 4 16.5 21t-4.5 29q-13 24 -38.5 35t-51.5 12q-18 1 -35.5 -1t-35.5 -2 q-4 -1 -8 -1h-8q-14 -2 -28.5 -3.5t-28.5 -0.5q-8 0 -16.5 -0.5t-16.5 -0.5q-26 2 -53 5t-47 22v1l-3 6q-2 5 -3 11l-2 12q-1 2 -1 4q0 3 -1 5q-1 5 -1 8q0 4 -1 9q-1 18 0 37.5t6 37.5t14.5 34t24.5 28q17 7 35 9t35 2h22q6 1 12 0t12 -1q10 -3 21 -3h19q16 1 31.5 -1 t31.5 -4q2 0 2.5 -0.5t2.5 -0.5t3.5 -0.5t3.5 -0.5q18 -3 36.5 -5t36.5 -2q20 -1 36.5 11.5t23.5 31.5q6 10 5 20t-6.5 18t-14.5 13.5t-19 6.5q-30 8 -55.5 9.5t-50.5 1.5h-14q-66 -5 -130.5 -7.5t-130.5 -5.5q-10 -2 -15 -2h-9q-28 -6 -53 -22.5t-36 -44.5q-8 -17 -10 -36 t6 -36q-2 -17 -2.5 -33t1.5 -33q0 -10 1 -15q2 -48 15.5 -94t28.5 -91l1 -1q1 -3 0.5 -6t1.5 -5q10 -47 8.5 -94t-12.5 -93z" glyph-name="F" unicode="F" horiz-adv-x="595"/>
<glyph d="M71 196q-2 -37 3.5 -74.5t28.5 -67.5q31 -34 68 -44t72 -10q60 1 119 14.5t115 36.5q31 14 61 31.5t53 39t37 47.5t13 58q-3 31 -16.5 61.5t-35 54.5t-49.5 40t-60 20h-11q-15 -4 -29.5 -10t-28.5 -11q-12 -1 -24.5 -1.5t-24.5 -0.5q-13 0 -25 0.5t-25 1.5 q-11 -3 -16.5 -10t-6.5 -16.5t1 -19.5t5 -18q8 -23 28 -37.5t44 -15.5q16 0 30.5 4.5t28.5 10t28.5 10t29.5 4.5q6 0 13.5 -1t10.5 -7q1 -2 1.5 -4t1.5 -4q2 -7 2.5 -13.5t2.5 -13.5q1 -2 1 -5q0 -2 1 -4q3 -41 -17 -71t-52 -48.5t-70 -27t-72 -7.5q-21 -2 -42 4.5t-38 19.5 t-28.5 31t-13.5 40q0 11 -0.5 22t-1.5 22q0 3 -1 6t1 6q2 28 -1.5 56l-7 56t-6 56t2.5 56q10 34 26.5 64t38.5 53.5t48.5 38t57.5 17.5q10 1 16 -3t9 -11t4.5 -16t1.5 -16q2 -29 16 -48.5t38 -17.5q15 -1 25.5 5.5t17 17t10 23t4.5 24.5q2 25 3.5 49.5t-1.5 49.5 q-2 32 -19 52.5t-43 18.5q-35 -2 -66 -16.5t-60 -31.5q-33 -20 -65 -41.5t-61.5 -47t-54 -55t-42.5 -64.5q-18 -40 -19 -79.5t4 -78.5t10.5 -77.5t0.5 -76.5z" glyph-name="G" unicode="G" horiz-adv-x="597"/>
<glyph d="M51 95q-2 -7 -5 -12.5t-5 -12.5q-3 -9 -5 -21.5t-0.5 -23.5t8 -18.5t21.5 -6.5q23 1 44.5 12t34.5 31q17 40 30.5 81t17.5 85q-2 19 6.5 33t22 23t30.5 14t33 7l10 3h1h2q11 3 20 9h9q17 -6 26.5 -18.5t14.5 -29t6 -34.5t1 -33q2 -23 -1 -44.5t-5 -43.5 q-2 -14 -3.5 -27.5t1 -24.5t8.5 -17.5t19 -6.5q17 2 34 6t28 18q27 50 35 103t2 106.5t-23 106t-41 100.5q-11 36 -3.5 72t21.5 69q13 35 31 67t32 67q4 7 5.5 17t-1 18t-9 13t-18.5 4q-30 -2 -52.5 -17t-39 -37t-28 -48.5t-19.5 -50.5q-12 -40 -17 -80.5t-15 -81.5 q-5 -26 -18.5 -44.5t-32 -30t-39.5 -16.5t-42 -3q-14 2 -23 11t-17 20q-14 35 -17 71.5t5 72.5q7 35 16.5 68.5t18.5 68.5q4 9 6.5 21.5t1 23.5t-8.5 18.5t-22 6.5q-26 -1 -45.5 -18.5t-33.5 -37.5q-30 -54 -44.5 -115.5t-3.5 -123.5q10 -37 21 -71.5t19 -68t12 -66.5t0 -66 q0 -20 -4 -39.5t-9 -38.5q-2 -5 -3 -9.5t-1 -9.5z" glyph-name="H" unicode="H" horiz-adv-x="541"/>
<glyph d="M43 49q-5 -14 0 -23.5t15 -15.5t22.5 -8.5t23.5 -1.5q48 6 96.5 11t97 13t95 20.5t90.5 33.5q4 11 1.5 20.5t-9.5 16t-17 10.5t-20 4q-29 3 -50.5 2t-41.5 -1q-7 2 -9 7.5t-4 11.5q2 8 3.5 16t2.5 16q0 11 0.5 22.5t-1.5 22.5q-2 12 -2.5 23.5t-1.5 23.5q0 8 -2.5 15 t-2.5 15q-17 45 -32.5 92t-23.5 95t-4 96t28 95q4 8 12 11t16 2q21 1 41.5 -3.5t41.5 -3.5q7 -1 13.5 0t13.5 1q11 3 17 12t9 19q2 10 3.5 20.5t-3.5 20.5q-11 11 -19 16t-16 8q-6 1 -13 1h-12q-7 -1 -13.5 0t-13.5 1q-8 1 -15.5 -0.5t-15.5 -0.5h-11t-11 -1q-32 -3 -63 -9 t-63 -12q-28 -5 -60 -5.5t-63 -5.5t-56.5 -18.5t-39.5 -44.5q-3 -13 2.5 -22.5t15.5 -15.5t21.5 -9t22.5 -3q26 1 50 9t50 9q4 -1 8 -1t8 -2l2 -10l1 -4q-11 -46 -7 -89.5t15.5 -86.5t26.5 -85.5t25 -85.5t11 -87t-15 -90q-9 -16 -22.5 -22t-29.5 -7.5t-33.5 -0.5 t-33.5 -1.5t-29.5 -10t-21.5 -25.5z" glyph-name="I" unicode="I" horiz-adv-x="494"/>
<glyph d="M60 177q-1 -17 -2.5 -35t-0.5 -35.5t5.5 -34t15.5 -30.5q17 -15 35.5 -23.5t37.5 -12.5t38 -5t37 -1h57q39 13 79 31.5t75 44t61 59t36 77.5q5 49 -7.5 95t-28.5 91.5t-27 92t-3 96.5q0 3 0.5 6.5t0.5 6.5q2 13 3.5 25.5t5.5 24.5q4 11 5 19q2 5 3.5 8.5t1.5 8.5 q3 6 4.5 12t3.5 13q4 11 7.5 20.5t7.5 20.5q5 15 -6.5 25.5t-26.5 8.5q-35 0 -61 -24t-39 -55q-11 -36 -16.5 -74t-1.5 -76q6 -79 34 -149q22 -45 33.5 -94t-2.5 -99q-20 -60 -65 -94t-98 -33q-14 -1 -29.5 1.5t-28.5 9.5t-21 19t-6 29q1 19 -0.5 38.5t-8.5 35t-19 24.5 t-32 7q-16 1 -30 -6.5t-24 -19.5v-10q-1 -4 -1 -8v-8t0.5 -7.5t-1.5 -6.5q0 -2 -0.5 -4.5t-0.5 -4.5z" glyph-name="J" unicode="J" horiz-adv-x="536"/>
<glyph d="M56 110q-1 -3 -2 -5.5t-2 -5.5q-2 -12 -4.5 -29t-1 -32.5t9.5 -26.5t27 -12q14 -2 26 3.5t21 14.5q3 6 6 12.5t6 12.5v1q1 0 1 1l2 4l2 4q2 5 3.5 10.5t3.5 10.5q4 10 6 21q2 5 3 9t1 9q2 8 3 15t2 15q3 15 3 30q2 5 2 10v10q-3 20 8.5 36t33.5 14q13 2 24.5 -4t22.5 -11 l6 -6v-1q1 0 1 -1q4 -3 8 -6.5t9 -5.5q24 -22 49 -45.5t52 -43t57.5 -32t65.5 -12.5q15 0 30 3.5t26 14.5q1 3 1.5 5.5t1.5 5.5l3 6q1 2 1.5 4t1.5 4q3 16 -3.5 28t-17.5 20.5t-25 14.5t-26 11h-1q0 1 -1 1h-1q-16 6 -30.5 13.5t-27.5 18.5q-30 24 -60 47t-62 45l-11 6 l-11 5l-1 1q-14 8 -27 18t-19 26l-2 6l-1 2h1l-1 3h2q5 17 14 32t17 31l6 7l4 8l1 1q28 37 59.5 72t62 70.5t58.5 72.5t50 79q5 11 3.5 26.5t-16.5 17.5q-31 -5 -58.5 -18.5t-52 -33t-46.5 -42.5t-41 -46q-2 -2 -2.5 -3t-2.5 -3q-13 -19 -28.5 -35t-30.5 -33 q-20 -17 -38.5 -35t-38.5 -35h-22q-2 1 -4.5 2t-4.5 2q-7 50 -1.5 99t22.5 97q4 11 1.5 20.5t-10 16.5t-18 10t-20.5 2q-21 0 -37 -14.5t-27 -31.5q-21 -48 -32.5 -98.5t-7.5 -102.5q3 -35 10.5 -65.5t16.5 -59t17 -55.5t11 -55q1 -2 1 -5q0 -2 1 -4q-1 -15 0 -30l2 -30 q-2 -11 -1 -21t-2 -20q-2 -14 -4.5 -26.5t-4.5 -25.5q0 -3 -0.5 -5.5t-0.5 -5.5zM297 331v-2h3zM271 218l-1 1z" glyph-name="K" unicode="K" horiz-adv-x="547"/>
<glyph d="M62 162q-5 -23 -5.5 -52.5t8 -54.5t27.5 -41.5t52 -13.5q45 1 86 15.5t82 31.5q45 21 90 42.5t89 46.5q15 7 22 21.5t7 30.5q2 20 -15 29.5t-34 8.5q-39 -6 -72.5 -26t-66.5 -42t-67.5 -39t-75.5 -18q-9 4 -12.5 12.5t-7.5 16.5q1 2 2 5t2 5q0 4 0.5 8t0.5 8q1 5 1 8 q0 4 1 9v10q4 54 -4 107.5t-25 104.5q-13 68 -7 127t20 115q2 8 3 16t4 16q5 11 6 14.5t2 6.5l4 11l2 3q4 12 -3.5 22.5t-20.5 11.5q-24 -3 -42.5 -16t-32.5 -31t-23.5 -40t-14.5 -43q-7 -32 -9.5 -64.5t-1.5 -65.5q-1 -35 6.5 -69t15.5 -67.5t12 -68t-4 -69.5v-5 q1 -7 0 -13t-1 -13v-11z" glyph-name="L" unicode="L" horiz-adv-x="476"/>
<glyph d="M99 149q-5 -21 -13 -41l-16 -40q-5 -12 -9 -24.5t-4.5 -22.5t4.5 -16t17 -5q20 1 40 6t31 23q15 20 20.5 43.5t14.5 45.5q15 51 16.5 105t-15.5 105q0 5 1 11t6 8q3 -2 5.5 -2.5t5.5 -2.5q26 -25 49 -53t45 -56.5t44.5 -57t48.5 -53.5h14q34 8 59.5 30t41.5 52t23 64.5 t5 66.5q3 7 8 13l3 1l4 -1q4 -3 8 -6.5t8 -6.5q12 -16 22.5 -33.5t19.5 -35.5q9 -33 9 -66t-7.5 -65.5t-21.5 -63t-33 -57.5q-5 -8 3 -11t14 -3h9q35 1 62 19.5t45 45.5t26 60t7 65q2 50 -19 91.5t-46.5 81t-47 80.5t-21.5 91q1 41 14.5 79.5t33.5 73.5q4 6 5.5 14t-1 15.5 t-8 12t-14.5 3.5q-20 -2 -37.5 -12.5t-32.5 -23.5q-42 -43 -72.5 -94t-47.5 -108q-9 -30 -9.5 -59t0 -56.5t-0.5 -54t-10 -51.5l-6 -7h-1l-2 -1q-56 41 -105 95t-80 118q-19 53 -17.5 110t24.5 108q1 5 3.5 12.5t3 14t-2.5 11t-12 4.5q-41 -13 -74.5 -41t-56.5 -65 t-34.5 -79.5t-7.5 -84.5q9 -43 24 -82.5t27.5 -78.5t17.5 -78t-7 -80z" glyph-name="M" unicode="M" horiz-adv-x="684"/>
<glyph d="M55 40q-2 -5 -3 -12t0.5 -13t5.5 -10.5t12 -4.5q26 1 45.5 17.5t31.5 37.5q35 72 37.5 153.5t-31.5 154.5q-8 18 -14.5 36t-9.5 38q1 3 1 7t2 6h8q6 -5 11.5 -10t10.5 -10q26 -32 55 -61t55 -61q24 -33 47 -67t41 -71q10 -15 16 -35t14 -38.5t20.5 -32.5t34.5 -17 q28 2 50.5 15.5t40 34t29 45.5t17.5 50q9 57 -3.5 111.5t-36.5 105.5q-3 9 -8 19q-5 20 -10.5 40.5t-8.5 41.5q-1 9 -2.5 17.5t-0.5 17.5q0 7 -0.5 14t1.5 14q1 21 4 41.5t10 40.5q4 7 5 14t5 13q1 13 3.5 25.5t3.5 26.5q-2 19 -11.5 24.5t-19.5 5.5q-20 -3 -35 -14.5 t-26 -27.5t-19 -34t-14 -35q-20 -69 -7.5 -138.5t44.5 -132.5q4 -6 6.5 -13t6.5 -13q8 -17 13 -35.5t9 -37.5q2 -6 2 -12t2 -11q-1 -14 -3 -29t-16 -22q-16 7 -28.5 18.5t-23.5 25.5t-21 28.5t-22 26.5q-34 42 -65 73.5t-54 68.5q-14 19 -24 40t-21 42q-14 29 -24 60t-15 63 q-13 23 -35.5 40t-50.5 15q-29 -3 -46.5 -26t-25.5 -48q-12 -36 -14.5 -74.5t4.5 -76.5q1 -5 2 -10.5t2 -10.5q6 -22 13.5 -44t18.5 -42q5 -8 8.5 -17.5t8.5 -18.5q8 -19 12.5 -39t8.5 -40q10 -57 1 -113.5t-30 -109.5z" glyph-name="N" unicode="N" horiz-adv-x="582"/>
<glyph d="M83 256q7 -23 12.5 -46l11 -46t12 -45.5t16.5 -43.5q13 -24 31.5 -38.5t40 -23t44.5 -11t44 -2.5q106 2 207.5 31t193.5 81q43 28 74.5 59t44.5 72q6 28 1.5 51.5t-14 45.5t-22 42t-21.5 40q-25 51 -44 103t-42 103q-14 27 -33 45.5t-41.5 30t-47.5 16.5t-50 4 q-107 -4 -208.5 -40t-186.5 -101q-38 -32 -63 -68.5t-25 -79.5q1 -27 9.5 -50t19 -44.5t21 -42t15.5 -42.5zM183 291q-14 23 -26.5 49.5t-18 54.5t-1 55t24.5 52q53 63 117.5 97.5t134.5 39.5q52 -2 89 -28.5t65.5 -65t53 -81.5t53.5 -77q15 -22 29 -45.5t13 -51.5 q-5 -35 -18.5 -57.5t-32.5 -39.5q-63 -49 -129 -74t-134 -27q-45 -5 -80 12t-61.5 46.5t-46 67t-32.5 73.5z" glyph-name="O" unicode="O" horiz-adv-x="831"/>
<glyph d="M28 21q0 -8 3 -17q9 -3 13.5 -4t7.5 -1q23 3 44.5 13t35.5 28q19 35 30.5 73.5t12.5 78.5q20 14 42 24t44.5 19t45.5 17.5t44 20.5q39 21 66.5 53.5t46 71t29 81t15.5 83.5q2 18 2 38t-4.5 38.5t-14 35t-25.5 28.5q-35 22 -70 28.5t-70 6.5q-45 -2 -87.5 -9t-86.5 -15 q-27 -8 -53.5 -14.5t-50 -15t-43 -21t-31.5 -33.5q-6 -20 2 -39.5t24 -31.5q0 -3 -0.5 -6t-0.5 -6v-19q1 -5 1.5 -9t-1.5 -9q2 -8 2 -12q1 -24 6.5 -46.5t13.5 -44t17.5 -43t17.5 -43.5q17 -55 17 -105t-11 -97q-2 -8 -4.5 -17t-5.5 -17q-5 -16 -10.5 -32t-13.5 -31z M159 328q-1 2 -1 3q0 2 -1 4q-7 13 -14 25.5t-14 26.5q-6 14 -9 28q-1 2 -1.5 3.5t-1.5 3.5q-8 34 -6.5 68.5t9.5 67.5q9 27 29 42.5t44.5 23t51.5 9.5t51 2q17 0 33 -1.5t31 -7.5q22 -15 25 -33t1 -35q-8 -39 -25 -80t-43.5 -75t-62 -56.5t-79.5 -25.5h-8q-2 2 -4.5 3.5 t-4.5 3.5z" glyph-name="P" unicode="P" horiz-adv-x="569"/>
<glyph d="M467 39q11 -23 20.5 -45.5t11.5 -48.5q7 -11 23 -11q21 2 40.5 12t33.5 27q11 19 6.5 35.5t-13.5 33t-17 33t-5 35.5q6 32 25 57.5t35 52.5q11 29 10 58t-6.5 58.5t-12.5 58.5t-7 59q-8 38 -13.5 76t-16.5 76q-9 44 -39 70t-69 22q-46 -2 -89 -16.5t-85 -34.5 q-67 -31 -130 -71t-108 -100q-26 -36 -31 -71t1 -69t17 -67t18 -64q10 -38 15 -77.5t23 -75.5q26 -39 62 -49t71 -10q54 1 106 16.5t102 35.5h9q3 -2 7 -2.5t6 -3.5zM170 191q-3 26 -10.5 51t-15 50.5t-11.5 51t1 52.5q11 35 30 63t43 50t51.5 38.5t55.5 30.5q23 10 45.5 20 t47.5 12q35 -2 53 -21.5t28 -47.5t14.5 -59.5t12.5 -55.5q3 -27 8 -54t10 -53q4 -17 5.5 -35t-2 -33t-12.5 -25t-24 -13q-19 2 -33 13t-27.5 24t-28.5 23t-35 10q-16 2 -28 -6l-3 -8l3 -10l3 -11l1 -2q4 -15 14 -28t19.5 -26t17.5 -26.5t8 -30.5q-9 -17 -25 -27t-34.5 -15 t-38.5 -7.5t-37 -4.5q-24 -3 -43 6t-32.5 25t-21.5 37t-9 42z" glyph-name="Q" unicode="Q" horiz-adv-x="682"/>
<glyph d="M35 38q-4 -11 -0.5 -25t18.5 -13q37 3 64 23t44 49.5t23 64.5t2 68q6 8 15.5 10t18.5 2q21 -15 38 -36.5t33 -44.5l32 -46t35.5 -40.5t43.5 -28t56 -9.5q26 0 53 6.5t43 29.5q4 9 1.5 16.5t-8 13t-13.5 10t-14 7.5q-21 10 -37 16.5t-30 13.5q-42 18 -71 46.5t-33 67.5 q28 37 57 74.5t55.5 77t47 81.5t31.5 89q10 34 -3 68.5t-48 48.5q-38 16 -69.5 20t-62.5 4q-51 0 -110.5 -6.5t-112.5 -27t-92.5 -58t-49.5 -98.5q-3 -28 1.5 -54.5t13.5 -52t21.5 -50t25.5 -47.5q2 -5 4 -10.5t4 -10.5q3 -20 9 -39.5t4 -39.5q3 -8 1.5 -17t-0.5 -18 q1 -8 0 -14.5t-1 -14.5q-3 -10 -5 -20t-5 -20q-3 -11 -8 -21.5t-10 -20.5q-2 -7 -6 -12.5t-6 -11.5zM125 369q-23 42 -30 90.5t7 95.5q17 26 42.5 40.5t55.5 22.5t61.5 11t59.5 6q14 0 31 -0.5t32 -5.5t26 -15t14 -28q-2 -5 -3 -9t-2 -9t-1 -9t-1 -9q-8 -42 -25 -87t-45 -81 t-66.5 -58t-88.5 -19q-6 1 -12 1t-12 2q-3 2 -6 3.5t-6 3.5l-3 6l-3.5 7l-3.5 7q-5 8 -10.5 16.5t-10.5 17.5z" glyph-name="R" unicode="R" horiz-adv-x="608"/>
<glyph d="M69 194v-39t3.5 -39.5t11.5 -37t23 -31.5q38 -31 81 -38.5t85 -8.5q58 0 122.5 19t116 56.5t80 91.5t15.5 123q-13 37 -39 62.5t-59 44t-70 32t-70 25.5q-34 13 -67 20.5t-63 15.5t-56 20.5t-44 34.5l1 10l-1 4q42 42 95.5 72.5t114.5 30.5q13 1 25 -3.5t23.5 -10 t23.5 -10.5t25 -5q17 0 30 12t18 27q8 21 2.5 39.5t-19.5 32.5t-33.5 21.5t-38.5 6.5q-61 -4 -118 -25t-111 -49q-29 -17 -56.5 -35.5t-49.5 -39.5t-35.5 -45t-14.5 -54q9 -34 33 -53.5t55 -31t64.5 -18t62.5 -14.5q43 -11 87.5 -21t83 -26t66.5 -41t38 -67q6 -42 -12 -73.5 t-49 -52.5t-69.5 -30.5t-73.5 -7.5q-14 0 -29.5 2t-29 7.5t-25 15t-17.5 23.5q-8 18 -15.5 36.5t-17.5 33.5t-23 24.5t-32 9.5q-20 3 -35 -11.5t-13 -34.5z" glyph-name="S" unicode="S" horiz-adv-x="585"/>
<glyph d="M212 35q-3 -5 -4.5 -11.5t0 -12.5t6 -9.5t12.5 -1.5q32 -2 58 18t43 46q35 53 49.5 115.5t-2.5 125.5q-33 72 -49.5 139t0.5 134q17 20 39.5 29.5t48 14t51.5 6t50 7t45 17.5t36 37q3 8 6 20t-8 15h-68q-104 -22 -208 -39.5t-209 -37.5q-30 -5 -60.5 -8t-61.5 -5 q-15 -3 -24.5 -14.5t-12.5 -25.5q-5 -12 0.5 -23.5t18.5 -14.5h8q8 1 15 -0.5t15 -0.5h9q80 -2 153 16q6 -3 12.5 -5.5t9.5 -9.5v-24q-2 -54 14.5 -105t39.5 -99q21 -63 18.5 -120.5t-21.5 -108.5q-3 -8 -6 -17t-7 -17q-2 -5 -4 -9t-5 -9q-4 -8 -7 -12z" glyph-name="T" unicode="T" horiz-adv-x="545"/>
<glyph d="M41 339q18 -49 25 -100t11 -103q4 -30 7 -52t12 -41q16 -26 38 -35t44 -8q52 1 105 18t97 48t75.5 75t41.5 98q-2 41 -14.5 80l-25 78t-20.5 79t-2 82q2 11 1.5 21t2.5 21q7 29 12.5 58.5t16.5 57.5q1 14 -10 21.5t-24 6.5q-22 0 -41.5 -10.5t-29.5 -30.5q-2 -5 -4 -8.5 t-4 -8.5q-3 -11 -7.5 -22t-7.5 -22l-2 -8l-2 -8q-11 -48 -4.5 -96.5t18.5 -96.5q6 -23 13.5 -46.5t13.5 -47.5t7.5 -48t-4.5 -49q-14 -56 -49.5 -94t-86.5 -39q-12 -1 -22 3.5t-17 13t-12 19t-8 20.5q-9 32 -14.5 58t-11.5 51q-5 17 -9.5 34t-12.5 34q-2 7 -3.5 14t-6.5 13 q0 2 -0.5 2.5t-0.5 2.5q-22 67 -16 138.5t35 135.5l6 9q2 7 2.5 15.5t-2 16t-8.5 11.5t-16 3q-16 -1 -29.5 -9t-24.5 -18q-26 -36 -42.5 -78t-21.5 -86t2.5 -88.5t29.5 -84.5z" glyph-name="U" unicode="U" horiz-adv-x="493"/>
<glyph d="M-5 663q-1 -2 -1 -4q0 -1 -1 -3q-2 -19 -3.5 -37.5t0.5 -37.5q-3 -47 8 -90t28.5 -84.5t38.5 -81.5t39 -81.5t29.5 -85t10.5 -90.5q0 -11 2.5 -23.5t7.5 -22.5t14 -16.5t23 -5.5q32 2 51 27q54 66 86.5 147.5t24.5 167.5q-8 47 -4.5 92.5t17 88t34.5 81.5t47 73 q2 3 3.5 6t2.5 7q2 8 5 15t-2 15q-11 8 -17.5 10t-12.5 2q-41 -11 -72.5 -37t-54 -60.5t-36.5 -74.5t-19 -79q-6 -38 0 -75.5t10.5 -73.5t0.5 -68.5t-29 -59.5q-14 9 -22.5 22t-15.5 27.5t-13 29.5t-14 28q-20 37 -38 65.5t-27 60.5q-5 9 -6 18.5t-4 18.5q-8 41 -5.5 82 t11.5 81q3 10 2 21t-5.5 20.5t-13 15t-20.5 4.5q-18 0 -35.5 -8.5t-24.5 -26.5z" glyph-name="V" unicode="V" horiz-adv-x="476"/>
<glyph d="M422 220q16 -8 27 -22t19 -30.5t13.5 -34t11.5 -33.5q5 -17 9 -35t11 -33t18 -24t29 -8q56 13 101 53t70 92.5t25 110.5q0 59 -35 110q-2 3 -4 5.5t-4 5.5q-5 6 -8.5 13t-8.5 14q-8 17 -15.5 34t-13.5 35q-2 8 -4.5 16.5t-3.5 16.5q-3 7 -2.5 14t-1.5 14q-2 8 -1.5 17 t0.5 17q2 26 8 51t15 50q5 9 9.5 18t9.5 17q2 8 4.5 15.5t4.5 15.5q0 16 -7.5 21t-15.5 4q-18 -1 -35 -8t-30 -20q-38 -58 -50 -128t8 -137l38 -80t29.5 -79.5t8.5 -78.5t-25 -76q-12 -14 -25 -19q-13 1 -21 9.5t-13.5 20t-10.5 24t-11 21.5q-20 39 -38 68t-39 54 q-26 38 -48 77.5t-31 85.5q-6 29 -8 48.5t-5 38.5q-2 27 -13 47t-34 18q-17 0 -34 -5.5t-27 -20.5q-23 -62 -12.5 -127t44.5 -120q10 -26 10.5 -56.5t-8.5 -59t-26.5 -52.5t-43.5 -36q-12 12 -18 26.5t-10 30t-8.5 31.5t-13.5 30q-20 44 -44 75.5t-42 65.5q-14 28 -17 58.5 t0.5 60.5t13 59.5t20.5 57.5q2 8 5.5 15.5t1.5 15.5q-9 8 -15 9.5t-12 1.5q-44 -3 -75.5 -29t-47.5 -63.5t-15.5 -80.5t19.5 -79q21 -39 46.5 -78t46.5 -80t32.5 -84.5t4.5 -91.5q-3 -17 -6.5 -34.5t-5.5 -34.5q-4 -23 7.5 -35.5t27.5 -10.5q11 -1 22 1.5t22 7.5 q72 34 136.5 84.5t106.5 119.5z" glyph-name="W" unicode="W" horiz-adv-x="762"/>
<glyph d="M36 42q-3 -7 -6 -14.5t-2 -15.5q8 -8 14 -10t11 -2q12 0 23 4t21 10q43 35 81 75t67 88q8 10 14 22.5t12.5 24.5t14.5 21.5t21 14.5h8q23 -17 43 -34q36 -40 69 -83t47 -96q3 -10 12.5 -12.5t18.5 -2.5q16 1 31 7.5t22 21.5q1 2 1.5 3.5t1.5 3.5q-2 45 -21.5 82t-48.5 69 t-63.5 60t-65.5 55q-18 10 -25 25l-3 10l2 9l2 9v2q13 26 26.5 52t30.5 49q19 25 42.5 46.5t47.5 42.5t47 43t41 49q4 6 5 13t-1 13t-7 10t-13 3q-53 -10 -94.5 -38t-78.5 -63.5t-70.5 -74.5t-69.5 -71l-5 1q-7 5 -13 10.5t-13 10.5q-20 27 -37 56t-28 61q-6 12 -8.5 28 t-7 30t-13.5 24.5t-27 10.5q-23 1 -42.5 -12.5t-30.5 -33.5q-5 -13 -3 -25t7 -23t12 -21.5t14 -20.5q23 -53 61 -96t81 -81q4 -5 8 -9.5t8 -9.5q5 -12 5 -21q-12 -42 -32.5 -80.5t-45 -75t-50.5 -72t-48 -72.5z" glyph-name="X" unicode="X" horiz-adv-x="602"/>
<glyph d="M114 52q-4 -7 -6 -16.5t-0.5 -18t7.5 -13.5t18 -4q26 0 50 12t38 35q40 69 58.5 145.5t26.5 154.5q5 81 35.5 157t84.5 138q14 17 23 35.5t19 37.5q5 6 6 13.5t-1 14t-8 10t-15 1.5q-27 -2 -48 -15t-38 -32t-31 -41t-27 -42q-32 -45 -59.5 -94t-40.5 -104 q-2 -11 -12.5 -11.5t-18.5 -1.5q-27 -2 -51.5 12.5t-35.5 39.5q-2 11 -4 20.5t-4 20.5v9q-2 22 2.5 42.5t12 40t16.5 39t15 39.5q3 7 3 16t-3.5 16.5t-10 12t-16.5 3.5q-33 -3 -57 -21t-40 -44t-24 -57.5t-7 -60.5v-31q6 -39 28 -67t50.5 -50.5t59 -44.5t52.5 -49 q8 -32 6 -63.5t-10 -62.5t-19.5 -61.5t-23.5 -59.5z" glyph-name="Y" unicode="Y" horiz-adv-x="489"/>
<glyph d="M314 276l-1 2h1l2 9l4 7q10 20 20 39.5t21 39.5q17 40 39 77t44.5 74t44.5 74t39 77q2 10 5.5 19.5t-1.5 19.5q-13 12 -23.5 14t-21.5 3q-59 -9 -120 -15t-121 -15.5t-117.5 -27t-107.5 -49.5q-9 -16 2.5 -28t25.5 -15h10l2 -1h1q2 0 3.5 -0.5t3.5 -0.5h11q65 0 133 14h8 l5 1l8 3q2 0 2.5 0.5t2.5 0.5q31 4 61 8.5t61 3.5q1 -2 2 -3.5t2 -3.5q-6 -21 -20 -37t-28 -31q-1 -1 -1.5 -2t-1.5 -2l-7 -6l-2 -7q-41 -47 -64 -104.5t-44 -115.5q-2 -4 -3.5 -7.5t-3.5 -7.5l-3 -9q-6 -8 -7 -14h-1v-4q-17 -26 -36 -51t-37.5 -49.5t-36 -50.5t-32.5 -53 q-10 -12 -7 -27t14 -25h17q2 0 4.5 -0.5t4.5 -0.5h22q42 0 82 9t81 18h8q2 1 2.5 1.5t2.5 1.5q22 5 43.5 9.5t44.5 8.5q34 7 68 9.5t69 5.5q5 1 8 1q4 0 9 1h17q2 0 3 0.5t3 0.5q9 1 17.5 2t17.5 1q11 2 17 10.5t11 17.5q5 15 -4.5 28t-23.5 18h-56q-38 0 -75 -6t-75 -14 q-2 0 -3.5 -0.5t-3.5 -0.5h-5l-9 -3h-1q-67 -16 -132 -17q-1 2 -1.5 4t-1.5 4q9 21 21 41t25.5 38.5l27 37t25.5 38.5l3 9l4 5h2z" glyph-name="Z" unicode="Z" horiz-adv-x="563"/>
<glyph d="M24 47q-3 -17 9 -32t29 -15h182q17 2 31.5 14t23.5 26q1 14 -5 29t-22 17h-115q-2 4 -4.5 7.5t-5.5 7.5q2 7 2 13t2 13q1 2 1 4q0 3 1 5q0 3 0.5 6.5t0.5 6.5q10 43 9.5 85.5t-6.5 85t-14 85t-12 85t-1.5 85t17.5 85.5q5 5 8 12t10 10h115q18 -1 33 11.5t17 30.5 q5 10 2 20t-14 13q-40 6 -79.5 11t-79.5 4h-42q-15 -5 -27 -14.5t-23 -20.5q-26 -84 -29 -171t17 -172q24 -90 16 -176t-43 -163l-2 -4z" glyph-name="bracketleft" unicode="[" horiz-adv-x="350"/>
<glyph d="M-15 682q15 -73 51 -134t79 -118.5l86 -115t73 -122.5q12 -34 21 -68t14 -69q-1 -10 1.5 -20.5t8.5 -18.5t14.5 -13t20.5 -3q18 -1 30 11.5t17 28.5q11 25 8 51.5t-11 51.5q-19 54 -47 103.5t-60.5 96.5t-66.5 93.5t-63.5 95t-52.5 100.5t-34 110q-2 13 -13.5 17.5 t-22.5 4.5q-18 1 -30.5 -12t-17.5 -29q-5 -10 -7 -20t2 -21z" glyph-name="backslash" unicode="\" horiz-adv-x="391"/>
<glyph d="M16 38q-2 -6 -2.5 -13t1.5 -13t6.5 -9.5t13.5 -2.5h8q44 4 86.5 7t86.5 7q12 6 22.5 14t17.5 19q21 56 27.5 112.5t5 113.5t-7 114t-9 114t-0.5 114t19 113q1 2 1 3q0 2 1 4q2 10 3.5 19t3.5 19q1 21 -15 35.5t-37 11.5q-48 -1 -94 -14.5t-94 -20.5q-15 -8 -27.5 -20.5 t-15.5 -29.5q-5 -11 0.5 -20t16.5 -12h7q5 -1 10 -1h11h5q26 0 51.5 8t51.5 9q9 -2 11.5 -4t4.5 -4q-3 -14 -3.5 -28t-3.5 -28q-11 -67 -7 -133.5t10 -133.5t7.5 -133.5t-15.5 -132.5q-14 -21 -37.5 -26t-47.5 -8.5t-44.5 -12.5t-28.5 -37z" glyph-name="bracketright" unicode="]" horiz-adv-x="321"/>
<glyph d="M229 634l11 -1l12 -4q15 -9 34 -18.5t34.5 -22.5t25 -29t6.5 -38q2 -7 8.5 -6t11.5 0q19 2 37 10t31 22l1 1q0 1 1 2q3 8 1 19q-18 22 -42 36t-48.5 27t-48 27t-41.5 36q-7 6 -9 13t-2 15t0.5 16t-1.5 15h-22q-24 -9 -48.5 -18t-47.5 -20.5t-43.5 -26.5t-36.5 -36 q-7 -9 -8 -19.5t-0.5 -21.5t2 -22t-0.5 -21q0 -7 -3 -12.5t-6 -11.5q-2 -8 3.5 -13.5t13.5 -5.5q65 8 115 53q10 9 16 19t12 18.5t13.5 13.5t18.5 4z" glyph-name="asciicircum" unicode="^" horiz-adv-x="415"/>
<glyph d="M59 -75q3 -2 7.5 -3.5t8 -3.5t5.5 -4.5t-1 -7.5q-11 -5 -14.5 -7t-5.5 -3l-6 -3h470q34 1 67.5 3.5t67.5 3.5q6 2 13.5 3t14 2.5t12 5t8.5 9.5q-35 10 -58 15.5t-43 13.5q-5 10 2.5 14.5t15.5 6.5q-32 0 -65 1t-65 0q-44 -1 -86.5 1t-86.5 2q-32 -1 -63 0t-63 1h-45 q-50 0 -101 -6q-27 -4 -43 -6t-29 -7q15 -17 38 -20.5t45 -10.5z" glyph-name="underscore" unicode="_" horiz-adv-x="676"/>
<glyph d="M241 809q2 4 3.5 7.5t3.5 7.5q3 16 -2.5 28.5t-14.5 24t-20 21.5t-19 21q-17 24 -32 42.5t-38 17.5q-12 -1 -24.5 -4.5t-19.5 -14.5q-4 -15 2 -27t16.5 -22t22.5 -19t21 -19q9 -8 13 -21.5t8 -25.5t11.5 -21t24.5 -8q12 0 22.5 3.5t21.5 8.5z" glyph-name="grave" unicode="`" horiz-adv-x="356"/>
<glyph d="M361 21q-2 -12 2 -19l28 -2q20 0 36 9t28.5 23.5t21 32t13.5 34.5q11 29 10 60.5t-3 62.5v8q-2 7 -1 13.5t1 13.5q-1 2 -1 4q0 3 -1 5q10 8 18 19t3 25q-4 13 -13 22.5t-19.5 17t-21 15.5t-18.5 18q-20 33 -35 68.5t-22 73.5q-6 32 -5 61q2 26 3 51t2 51q0 30 -14.5 52 t-40.5 19q-48 -7 -87 -34t-76 -56q-29 -22 -53.5 -49.5t-42.5 -59.5t-26.5 -67.5t-5.5 -72.5q19 -81 25 -152t-10 -139q-2 -11 -4.5 -22.5t-4.5 -22.5q-5 -23 5.5 -34.5t24.5 -9.5q27 0 50 21q7 10 9 23q8 23 12 46.5t9 46.5q0 12 5 23.5t18 16.5q46 7 92.5 11.5t93.5 4.5 q7 -2 13.5 -1t13.5 -1l3.5 -7l3.5 -7q0 -3 0.5 -6.5t0.5 -6.5q1 -17 1 -33q0 -15 -2 -32l-4 -24t-6 -24q-3 -15 -10 -27q-4 -11 -8.5 -22t-10.5 -21zM157 331q-9 38 -7.5 81.5t15.5 83t40 71.5t66 47q11 -8 16 -19.5t7 -24.5t3.5 -26.5t5.5 -25.5q8 -41 18.5 -73t23.5 -62 q1 -2 2 -4.5t2 -4.5l3 -10l3 -6q3 -5 5 -11.5t5 -11.5q-12 -15 -28 -22.5t-34.5 -10t-38.5 -2.5q-19 0 -36 -1h-23q-16 -1 -29.5 7.5t-18.5 24.5z" glyph-name="a" unicode="a"/>
<glyph d="M47 65q-9 -17 0 -32t25 -20q23 -8 41 -10t35 -3q73 3 143 23t137 47q37 18 75 38t68 44.5t46.5 55t11.5 69.5q-11 29 -30 48t-43 31.5t-51 21t-54.5 17t-53 19.5t-45.5 29q0 4 -0.5 7.5t4.5 5.5q19 18 39.5 35t39 36t34 40t24.5 47q8 19 5 37t-13.5 33t-27 25t-35.5 12 h-18q-12 -1 -24 0.5t-24 0.5h-17q-45 -2 -96 -3.5t-100 -11t-90.5 -32.5t-66.5 -68q-1 -5 -1.5 -9t-0.5 -9q18 -21 39 -39v-9q0 -9 -1 -17.5t1 -17.5q1 -4 1 -8v-8q2 -27 10 -51.5t18 -49t20.5 -48.5t17.5 -49q15 -63 2 -118t-41 -101l-2 -4zM168 125l1 2q0 1 1 3q1 5 1.5 9 t2.5 8v5q11 39 11.5 80t-9.5 80q-4 12 1 24t18 16h67q33 -3 70.5 -4.5t73 -8.5t66.5 -22.5t52 -46.5q5 -24 -3.5 -43.5t-24.5 -35.5t-36 -28t-38 -21q-57 -24 -107.5 -36.5t-101.5 -14.5h-10q-7 1 -14 1.5t-14 1.5q-5 6 -11 11q2 12 4 20zM137 450q-4 14 -7.5 28t-5.5 28 t-1.5 28.5t0.5 28.5q1 3 1.5 6.5t1.5 6.5q12 24 33 36.5t46.5 18t52.5 7t50 3.5q10 -1 22.5 -2.5t23.5 -5.5t19.5 -11.5t10.5 -19.5q-7 -10 -9 -13t-4 -5q-26 -19 -50.5 -42t-50 -44t-53.5 -36.5t-62 -19.5q-10 -1 -18 8z" glyph-name="b" unicode="b" horiz-adv-x="602"/>
<glyph d="M68 226q3 -21 3.5 -43.5t3 -44t8 -42.5t17.5 -40q18 -20 40 -31t45.5 -16.5t47 -6.5t46.5 -2q48 2 94 12.5t91 23.5q27 10 53 20t48 22.5t39 29t26 40.5q4 17 -10.5 26.5t-29.5 8.5q-40 -8 -76.5 -26t-73.5 -37t-75 -33t-81 -13q-33 -3 -55.5 11.5t-36 39t-18.5 54 t-5 55.5q-2 25 -6.5 50.5t-8.5 50.5t-5 50.5t6 50.5q26 65 70.5 107.5t92.5 75.5q20 18 42 17q12 1 19.5 -4t12 -13t6 -18t0.5 -19q1 -30 15 -49t37 -17q12 -1 19.5 4t12 13.5t6.5 19t3 19.5q2 24 3 48.5t1 48.5q0 15 -3 29t-9 24.5t-16 16.5t-23 5q-69 -9 -138 -38 t-126 -75t-95.5 -107.5t-45.5 -134.5q5 -42 16 -81.5t13 -81.5z" glyph-name="c" unicode="c" horiz-adv-x="585"/>
<glyph d="M71 36q-6 -8 -6.5 -21t12.5 -15h45q106 2 208.5 32.5t190.5 90.5q42 30 71.5 63.5t42.5 74.5q7 27 5 50.5t-9 46t-16.5 43.5t-16.5 42q-1 3 -2 6.5t-2 6.5q-2 5 -3 9t-3 9q-3 8 -3.5 16t-3.5 16q-21 57 -59 103.5t-87.5 79t-107.5 49.5t-118 16q-34 -4 -70.5 -11 t-70 -20.5t-62 -34.5t-46.5 -54q-5 -11 2 -22.5t20 -9.5q8 1 15 1t14 4q12 4 27 4q9 -2 14.5 -8t7.5 -14.5t2.5 -18t0.5 -16.5q0 -25 3 -50q2 -5 2.5 -9t1.5 -9q2 -5 3 -9t1 -9q10 -40 31 -74.5t38 -71.5q8 -20 11 -36q5 -17 8 -34.5t5 -35.5q-1 -36 -14 -74q-7 -16 -17 -29 t-21.5 -25.5l-23 -25t-20.5 -26.5zM257 127v1q1 0 1 1q10 38 7.5 75.5t-13.5 73.5t-28.5 70.5t-36.5 66.5q-28 60 -30 128q0 11 0.5 20.5t1.5 20.5q2 11 3.5 22.5t5.5 22.5q3 4 6 7.5t6 6.5l2 2h4q5 1 9 1h9q54 4 102.5 -12.5t88.5 -47t70 -73.5t47 -91q30 -57 19.5 -113 t-46 -101.5t-88.5 -75t-108 -33.5q-14 -2 -22 7t-10 21z" glyph-name="d" unicode="d" horiz-adv-x="642"/>
<glyph d="M45 56q-7 -10 -9 -23.5t9 -21.5q20 -8 35.5 -9.5t29.5 -1.5h36q63 5 125.5 17t124.5 27q38 13 76.5 23.5t72.5 24t61 33.5t42 52q4 18 -9 30t-30 10q-20 -1 -37.5 -10t-34.5 -19q-11 -8 -26 -15q-70 -36 -146 -59.5t-156 -25.5h-18q-9 1 -14 11v1l6 24t5 24q9 47 4 94 t-23 92v1q16 13 35.5 18t40.5 6.5t42.5 1t41.5 2.5q35 1 68.5 3t68.5 5q23 4 39.5 6.5t31.5 7.5q19 7 30 18t5 25q-5 18 -21 28.5t-34 9.5q-39 -1 -77.5 -4.5t-76.5 -8.5q-39 -4 -78.5 -7.5t-78.5 -3.5h-18q-18 2 -37.5 2.5t-34.5 12.5l-1 1q-2 10 -4 17q-1 3 -2 5.5t-2 5.5 v6q-5 32 5 65t39 50q38 19 73.5 23t68.5 6q27 0 54.5 1t54.5 2q29 2 58 3.5t58 1.5q16 1 29 9t21 22q7 12 5.5 28.5t-16.5 21.5q-24 9 -43.5 11.5t-37.5 1.5h-28q-6 0 -12 -0.5t-12 -0.5q-6 1 -12.5 0t-12.5 -1q-91 -1 -180 -13t-177 -38q-18 -5 -32 -18t-19 -31 q-9 -18 -5 -38t15 -36q-6 -35 0 -66.5t17.5 -61.5t26.5 -59.5t27.5 -59.5t20 -61.5t4.5 -65.5q-8 -29 -17.5 -58t-24.5 -55q-1 -2 -1.5 -2.5t-1.5 -2.5q-1 -1 -1.5 -2t-1.5 -2q-1 -2 -2 -5t-2 -5z" glyph-name="e" unicode="e" horiz-adv-x="611"/>
<glyph d="M49 68q-4 -11 -10 -21t-5 -22q2 -17 10 -21t17 -4q33 12 58 35.5t42.5 54t27 65t11.5 67.5q-1 19 -2.5 37.5t-5.5 36.5l-1 2q12 9 26 13t28.5 6t29.5 4t29 5l58 10t58 12q16 4 33.5 9.5t31.5 13t22 19t5 28.5q-7 18 -24.5 26.5t-35.5 7.5q-27 0 -53 -5.5t-52 -12.5l-9 -3 l-8 -2q-30 -13 -62.5 -19t-65.5 -6h-36q-5 3 -9 6t-8 7l-5 8l-2 9q-1 2 -1.5 2.5t-1.5 2.5q-1 8 -5 19q-8 25 -6 53t14 51t33.5 38.5t50.5 16.5q78 11 156.5 16.5t157.5 8.5q11 5 21.5 10t16.5 16q7 11 7 24q0 14 -14 20q-21 6 -37 8t-31 1h-87q-8 -1 -16 0.5t-16 0.5 q-42 -2 -86.5 -3.5t-88 -8.5t-84.5 -22.5t-75 -44.5q-8 -10 -15 -21t-9 -24q-6 -27 -6 -56q-3 -33 1 -66t12 -65q1 -1 1 -2l1 -1q-1 -6 -1.5 -12.5t-2.5 -12.5h-1q-2 -12 1.5 -23.5t8.5 -22.5q1 -1 1 -2l1 -1q5 -11 12 -20.5t18 -14.5l1 -1l2 -2q2 -7 4.5 -13.5t3.5 -13.5 l2 -6l2 -6q10 -44 -1 -93q-1 -2 -1 -4q0 -1 -1 -3t-2 -3t-2 -3q-5 -22 -12.5 -42.5t-18.5 -40.5z" glyph-name="f" unicode="f" horiz-adv-x="611"/>
<glyph d="M58 294q19 -51 33 -102t42 -98q17 -28 39.5 -46t48 -29t53 -15t53.5 -4q69 2 134.5 23.5t122.5 59.5q30 20 54.5 44.5t40 52.5t19 58t-8.5 60q-14 26 -31 53t-38 50.5t-47 40.5t-57 22q-7 1 -13 0t-13 -1q-34 -12 -68.5 -22t-66.5 -26q-14 -3 -28.5 -7t-28.5 -10 q-19 -15 -16 -32.5t10 -30.5q9 -16 26.5 -23t34.5 -5q40 0 77 15t67 41h12q14 -2 28.5 -9.5t22.5 -19.5q13 -25 20 -52.5t10 -55.5q0 -17 -7 -30t-19 -23t-26 -17.5t-27 -13.5q-42 -16 -75.5 -24t-66.5 -9q-36 -2 -69 11t-59.5 36t-45 54t-25.5 66q-5 18 -10.5 37t-8.5 38.5 t-3 38.5q0 20 7 39q25 46 58.5 77t67.5 60q30 23 64 41t72 21q3 -1 6 -1q4 0 7 -1q21 -22 44 -41q4 0 7 -0.5t7 -0.5q21 1 41 8t36 21q2 6 3 11.5t3 11.5q5 18 8.5 37t-4.5 37q-16 21 -34.5 27.5t-37.5 6.5q-95 -5 -182.5 -43t-163.5 -93q-39 -30 -66.5 -59.5t-44.5 -64.5 q-13 -26 -15.5 -51t1 -48.5t11 -46.5t15.5 -44z" glyph-name="g" unicode="g" horiz-adv-x="662"/>
<glyph d="M465 34q-10 -11 -4.5 -24t21.5 -10q31 -2 55.5 16.5t38.5 44.5q24 48 33 101q2 18 3 36t-1 36q-2 19 -6 37.5t-10 36.5q-8 27 -20.5 51.5t-25.5 49.5q-28 67 -28 136q0 25 7 48t17 44.5t22 43t23 42.5q4 8 6.5 15.5t4.5 15.5q-7 13 -14.5 15t-15.5 3q-25 -3 -45.5 -15.5 t-36.5 -30.5t-28 -40t-20 -44q-8 -31 -12 -53t-5 -42q-2 -14 -3 -26.5t-3 -23.5t-6.5 -19.5t-13.5 -13.5q-45 -13 -88 -27t-88 -28q-14 -6 -28 -6q-10 2 -16 9.5t-11 15.5q-3 7 -5.5 13.5t-4.5 13.5q-9 26 -11 53t1 54t10 53t15 52q3 7 4.5 15.5t-0.5 16.5t-7.5 13.5 t-15.5 5.5q-34 -2 -59.5 -27t-36.5 -55q-10 -37 -12 -75t6 -76q5 -18 10.5 -36.5t14.5 -35.5q2 -5 5 -9t5 -9q-4 -9 -14 -15.5t-19 -13.5t-13.5 -15.5t1.5 -21.5q6 -17 19 -26t28.5 -15.5t29.5 -14t22 -22.5q7 -51 -3 -101t-33 -95q-5 -10 -5 -20q7 -11 13.5 -13t12.5 -3 q31 7 54 28t37 48.5t20 59.5t4 62q-3 15 -4 30.5t-3 30.5q4 5 8.5 9.5t10.5 6.5q23 7 45.5 16.5t45 18t46 14t48.5 5.5q8 2 17.5 0.5t15.5 -6.5q8 -16 15.5 -31.5t12.5 -32.5q17 -62 7.5 -125.5t-40.5 -118.5z" glyph-name="h" unicode="h" horiz-adv-x="629"/>
<glyph d="M33 34q-2 -19 12.5 -28t31.5 -6q19 -1 35 10.5t23 29.5q23 61 30 124t6.5 126.5t-3.5 127.5t0 127q1 5 1.5 11t0.5 11q2 15 3 30t3 30q2 5 2 11t2 11q2 11 0 23.5t-7.5 22.5t-15.5 16.5t-23 6.5q-16 2 -27 -8t-20 -21q-20 -71 -25 -143.5t-6 -145.5t-1.5 -146t-10.5 -145 q0 -4 -0.5 -7.5t-0.5 -7.5q-2 -5 -2 -12q0 -6 -2 -11q-1 -6 -1.5 -12t-2.5 -11q-1 -4 -1.5 -7t-0.5 -7z" glyph-name="i" unicode="i" horiz-adv-x="220"/>
<glyph d="M60 204q8 -48 37 -84.5t69 -62t87 -39.5t91 -18q52 6 100 35t81 72t46.5 96t-2.5 106q-11 29 -24 57.5t-24 57.5t-17.5 59t-4.5 62q-1 29 -1.5 58t0.5 58v31t-2 29t-9 22t-21 11q-26 -1 -45 -18t-28 -40q-16 -37 -17.5 -75t6 -76t21.5 -74.5t30 -70.5q22 -33 32 -78 t3 -87t-32.5 -74t-74.5 -39q-39 -1 -71.5 15.5t-63.5 38.5t-62 42.5t-67 28.5q-17 1 -26 -13.5t-11 -29.5z" glyph-name="j" unicode="j" horiz-adv-x="564"/>
<glyph d="M24 21q-3 -7 -1 -11.5t7 -7t11 -3t11 0.5q36 8 60.5 32t40 56t21.5 68t5 69q-1 5 -1.5 9.5t-1.5 9.5q-2 8 0.5 17t13.5 7q25 -2 48 -12t43.5 -24t39 -31.5t35.5 -35.5q19 -20 35 -42t33 -40t36 -30t45 -13q20 0 38.5 9.5t25.5 29.5q4 15 -1 28t-14 24t-20.5 20.5 t-21.5 17.5q-30 24 -64.5 43t-68.5 38t-65.5 41.5t-56.5 52.5l-2 3q28 48 61 92t67.5 87.5t68 87t62.5 90.5q2 5 3.5 10.5t3.5 10.5q-6 8 -10 10.5t-9 2.5h-18q-5 -2 -9.5 -3t-9.5 -3q-80 -60 -150 -131.5t-140 -142.5q-8 -7 -17 -13t-20 -8h-3q-2 2 -5 3t-5 3 q-14 42 -19 85.5t1 86.5q3 14 5.5 27t4.5 27q4 22 -4.5 36t-23.5 12q-29 -4 -51 -23.5t-36 -43.5q-10 -34 -12.5 -69t1.5 -70q5 -38 14.5 -73.5t26.5 -69.5q12 -24 21.5 -50t14.5 -52q7 -25 7 -50t-1 -51q-5 -38 -18 -74.5t-32 -69.5z" glyph-name="k" unicode="k" horiz-adv-x="547"/>
<glyph d="M66 227q1 -8 1.5 -16t0.5 -16q-2 -10 -1.5 -19t-1.5 -19q-2 -9 -2 -18t-5 -17q-2 -5 -3 -8.5t-1 -8.5q-4 -13 -8 -30.5t-3 -34t9.5 -28t29.5 -12.5h5q38 6 76 11.5t76 11.5q41 7 81 14.5t80 19.5q26 9 52.5 18t49.5 20.5t40 28t25 40.5q3 10 -0.5 17t-10 11t-15.5 5.5 t-17 0.5q-6 -1 -13 -1q-6 0 -12 -2q-32 -12 -64 -25t-65 -24t-66.5 -18t-68.5 -7h-36q-13 10 -16.5 24.5t-2.5 30.5t3 32.5t-1 31.5q-2 29 -9 56.5t-15.5 55t-17 54.5t-12.5 56q-6 72 7 132.5t36 116.5q2 6 6 15t5.5 17t-1 14.5t-14.5 6.5q-38 -1 -65 -27.5t-39 -59.5 q-23 -41 -33.5 -85.5t-11 -89.5t8 -90.5t24.5 -87.5q1 -4 2.5 -7.5t0.5 -7.5q6 -14 7.5 -29t3.5 -29q-1 -6 0 -12t1 -12z" glyph-name="l" unicode="l" horiz-adv-x="520"/>
<glyph d="M23 21q2 -8 7 -14.5t14 -6.5q20 1 38.5 10.5t32.5 23.5q40 57 60 126t8 139q-1 5 -1 11v11h3q31 -11 46.5 -38t27.5 -56.5t27.5 -55.5t46.5 -36q21 1 39 10.5t32 24.5t24.5 33t18.5 36q8 24 11 41.5t5 34.5q1 10 1 20t0.5 18t3 14.5t9.5 9.5l2 -1q1 0 3 -1 q11 -15 20.5 -30t17.5 -32q1 -3 2 -6.5t2 -6.5q18 -50 14.5 -102.5t-20.5 -101.5q-13 -31 -27 -56q2 -7 8.5 -10.5t14.5 -3.5q17 1 32.5 10t29.5 19q35 49 49 110t-5 120q-14 36 -29.5 69t-28.5 65.5t-20 64.5t-3 67q2 8 1.5 15t1.5 15l9 45q3 12 7 24t9 23q4 8 8 15.5 t9 15.5q5 15 -5.5 26t-25.5 8q-38 -7 -65 -34t-51 -54q-26 -35 -46 -72.5t-34 -78.5q-12 -38 -16.5 -77t0.5 -79q1 -11 -0.5 -25t-14.5 -19q-11 4 -20 11.5t-16.5 16.5t-14.5 18.5t-15 17.5q-29 33 -55 69.5t-40 78.5q-6 26 -8.5 52t2.5 52q2 13 5 25.5t8 24.5 q5 14 10.5 26.5t12.5 25.5q1 5 -1.5 8t-7 4.5t-9 2t-8.5 0.5q-23 1 -41 -12t-31 -30q-21 -32 -38.5 -66t-22.5 -72q-8 -32 -5 -62.5t12 -59.5t20.5 -58t20.5 -58.5t13 -59.5t-2 -62q-4 -24 -13 -46.5t-19 -44.5q0 -1 -0.5 -2t-0.5 -2q-3 -7 -6.5 -13t-5.5 -13q-2 -2 -2.5 -5 t-2.5 -5q-1 -2 -2 -4.5t-2 -4.5q-4 -6 -7 -11.5t-7 -11.5l-2 -4z" glyph-name="m" unicode="m" horiz-adv-x="612"/>
<glyph d="M39 68q-3 -9 -5 -21t-0.5 -23t8.5 -18t22 -6q16 2 31.5 7.5t25.5 19.5q35 71 44 151t-15 156h23q24 -29 45.5 -59.5t39.5 -62.5q9 -19 16.5 -37.5t12.5 -38.5q9 -23 14 -47.5t7 -48.5q5 -11 16 -15.5t22 -5.5q29 2 48 24t32 45q35 68 49 145t-7 152q-20 84 -18.5 157.5 t21.5 142.5q4 17 8.5 33t10.5 33q4 7 4 14q0 8 -4 14t-10.5 10t-14.5 3q-17 -2 -31 -11t-25 -21.5t-19.5 -27.5t-14.5 -30q-21 -44 -29.5 -90.5t-6.5 -93.5t12.5 -93.5t27.5 -90.5q0 -13 2 -28t1 -30t-6 -27t-19 -19q-6 0 -9.5 3t-6 8t-4.5 10t-6 9q-25 44 -55.5 83.5 t-61.5 78.5q-21 35 -38.5 72t-26.5 78q-7 38 -2 76t15 75q1 14 -10 24t-25 10q-17 -2 -31 -11.5t-25 -22.5q-33 -58 -49 -124t-4 -133q12 -41 22.5 -78.5t18 -74t9 -72t-4.5 -71.5q-1 -5 -2 -10.5t-1 -10.5q-2 -11 -4.5 -23t-4.5 -23q-3 -9 -5 -18t-7 -17z" glyph-name="n" unicode="n" horiz-adv-x="517"/>
<glyph d="M62 283q14 -39 22.5 -80t16.5 -82q7 -43 25.5 -77t56.5 -44h68q58 2 118 15.5t114 40t98.5 66.5t72.5 95q18 33 18.5 65.5t-7 65.5t-18 66t-16.5 65q-8 41 -16 80.5t-19 79.5q-13 48 -47 72.5t-76 20.5q-28 0 -55 -6.5t-53 -14.5q-39 -14 -78 -29t-76.5 -33.5t-72 -41.5 t-64.5 -52q-55 -61 -61 -116q1 -25 6.5 -46t13.5 -39.5t16 -35.5t13 -35zM169 261q-7 28 -18.5 57t-19.5 58t-7 58t19 58q51 70 122 102t144 34q34 2 57.5 -14t38.5 -41t24.5 -55t16.5 -56q5 -27 13 -55t12.5 -55.5t2.5 -55t-17 -54.5q-47 -72 -112.5 -114t-138.5 -47 q-29 -1 -56.5 9.5t-42.5 36.5q-17 37 -23.5 69.5t-14.5 64.5z" glyph-name="o" unicode="o" horiz-adv-x="702"/>
<glyph d="M25 26q0 -9 4.5 -18t15.5 -8q20 2 40.5 8.5t34.5 23.5q23 36 41 75.5t24 83.5q40 21 88.5 37t93.5 36t82 49t55 77q4 25 11 50t14.5 50t13.5 50t9 51q4 29 1.5 60t-22.5 54q-29 29 -61 38t-64 9q-51 -1 -101.5 -7.5t-100.5 -17.5q-32 -9 -63 -17.5t-58 -21t-48.5 -31 t-32.5 -45.5q-2 -10 1 -18.5t7 -16.5t8 -16.5t4 -17.5q-2 -57 14 -110.5t38 -105.5q17 -70 9.5 -132t-30.5 -117q-2 -2 -2.5 -5t-2.5 -5q-4 -8 -7.5 -16t-7.5 -16q-2 -2 -4 -5t-4 -5zM177 321q-7 12 -11 23q-4 6 -6.5 12.5t-7.5 11.5q-20 47 -31 96.5t-3 100.5q12 38 40 59 t63 31t73.5 12.5t71.5 4.5h9q15 -3 29 -3h10q15 -1 22.5 -9t10.5 -20t2 -25.5t-4 -23.5q-5 -49 -23 -99.5t-49 -91t-75 -65t-101 -19.5h-3q-5 2 -9 2.5t-8 2.5z" glyph-name="p" unicode="p" horiz-adv-x="615"/>
<glyph d="M544 53q18 0 22 -11.5t4.5 -26t3.5 -26.5t21 -12q25 -2 43.5 13.5t29.5 35.5q13 16 14 36t6 39q0 8 5.5 12.5t10.5 9.5q23 26 42 54t30 61q5 23 3.5 43t-7.5 38t-14.5 34t-17.5 31q-31 52 -54 107t-46 111q-22 60 -70 90t-101 25h-14q-14 0 -26.5 -1t-26.5 -1 q-83 -16 -161 -49.5t-144 -87.5q-39 -35 -61 -67.5t-28 -68.5q-2 -27 3.5 -49.5t14 -42.5t18 -38t17.5 -36q20 -44 35.5 -89.5t29.5 -91.5q11 -51 46.5 -80.5t80.5 -24.5q38 0 74.5 8t72.5 18.5t71.5 21t72.5 15.5zM187 268q-8 21 -20 43.5t-20 45.5t-8.5 46t13.5 47 q17 28 38.5 49.5t45.5 38.5t49 30.5t50 26.5q32 16 65 16q46 -1 78.5 -24t58 -56.5t46 -72t42.5 -70.5q8 -22 19.5 -43t16.5 -44q2 -14 1 -28.5t-5 -26t-12 -19.5t-20 -9q-36 16 -68 42t-64.5 52t-68.5 46t-79 23q-7 0 -13.5 -0.5t-11.5 -6.5l-2 -8l4 -10l7 -10l3 -4 q18 -28 44.5 -48l53 -40t49 -42.5t32.5 -54.5q-14 -20 -35 -31.5t-45 -17.5t-49.5 -9.5t-47.5 -6.5q-38 -3 -61.5 14.5t-38.5 44.5t-25 59t-22 58z" glyph-name="q" unicode="q" horiz-adv-x="784"/>
<glyph d="M35 38q-5 -14 1.5 -27.5t23.5 -10.5q22 -1 40 11.5t28 31.5q21 31 35.5 66t19.5 73q4 2 7 4t8 1q11 1 24 -5q25 -25 51.5 -50.5t56.5 -46t63.5 -33t72.5 -9.5q20 1 42.5 3.5t35.5 21.5q6 15 -5 26.5t-24 16.5q-21 11 -37.5 17.5t-32.5 11.5q-21 8 -42 16.5t-39 19t-31 25 t-19 34.5q-1 2 -1 4q0 3 -1 5q20 21 37.5 43.5l35 45t35.5 45t39 42.5q24 34 41.5 71t27.5 78q1 2 1 4q0 3 1 5q3 13 9 27q1 2 2 5t2 5q-1 25 -16 38.5t-36.5 19.5t-45.5 7t-42 2q-45 -5 -90.5 -9t-90.5 -11t-89 -18t-85 -29q-16 -17 -21 -39l-10 -44q-16 -45 -7.5 -87 t24.5 -82.5t31 -82t12 -85.5q0 -3 0.5 -6t-1.5 -6q1 -12 -1 -23.5t-3 -23.5q-2 -5 -3 -10l-2 -10q-2 -4 -2.5 -7.5t-2.5 -7.5q-3 -6 -4.5 -13t-4.5 -13q-2 -6 -5 -11.5t-5 -10.5q-2 -4 -4 -7.5t-4 -7.5zM162 307q-2 2 -2.5 4.5t-2.5 4.5q-5 6 -8 13t-8 14q-2 2 -2.5 4.5 t-2.5 4.5q-12 22 -21.5 48.5t-11 53.5t7 51.5t31.5 42.5q28 16 56.5 24.5t56 12t55 4.5t53.5 2h5h10t10 -1h9q8 -3 9 -9.5t-1 -13.5q-12 -21 -26.5 -40.5t-30.5 -37.5t-31.5 -36.5t-29.5 -38.5q-15 -17 -27.5 -35t-25 -34t-26.5 -28t-32 -17l-5 2q-2 2 -4.5 2.5t-4.5 2.5z " glyph-name="r" unicode="r" horiz-adv-x="582"/>
<glyph d="M84 181q-5 -47 16.5 -81t57 -56.5t78 -33t81.5 -10.5q74 2 145.5 21t137.5 51q34 18 67 40.5t56.5 49t34 58t-0.5 67.5q-27 46 -67.5 79t-88.5 55.5t-100.5 35.5t-102.5 21l-216 12q-10 3 -21.5 6.5t-15.5 14.5q1 2 1 4t1 4q55 57 128.5 89t151.5 34q27 0 51.5 -11 t51.5 -11q17 -1 29 10.5t15 27.5q9 17 7 35.5t-11 33.5t-25 24t-36 7q-75 -4 -148 -24t-143 -46q-37 -17 -75 -34.5t-69 -39.5t-50.5 -50t-18.5 -66q8 -26 26 -43t41 -27.5t48.5 -16t49.5 -8.5q74 -8 147 -14.5t147 -14.5q27 -5 55 -12.5t54.5 -19.5t48 -30t34.5 -44 q1 -20 -8 -36t-24 -28.5t-32.5 -22.5t-32.5 -18q-51 -22 -94.5 -36.5t-88.5 -17.5q-35 -1 -65.5 9.5t-58 28t-52 40t-47.5 44.5q-5 1 -10 1q-4 0 -9 1q-11 1 -20.5 -3t-16.5 -11.5t-10.5 -17.5t-2.5 -20z" glyph-name="s" unicode="s" horiz-adv-x="719"/>
<glyph d="M293 183q1 -8 -0.5 -15.5t-3.5 -15.5q-5 -23 -10.5 -44.5t-11.5 -43.5q-10 -28 1.5 -48t33.5 -16q23 -1 42.5 11t30.5 31q26 44 27.5 93.5t-3.5 98.5q-5 51 -25.5 97.5t-41.5 92.5q-17 58 -11 113t44 90q33 21 72.5 24t79 5t75.5 13t60 47q4 9 8 18.5t-4 18.5 q-17 7 -29.5 9t-24.5 2q-84 -14 -169.5 -26.5t-169.5 -29.5t-165.5 -42t-157.5 -63q-5 -18 8 -32.5t30 -18.5h40q23 0 45.5 6t44.5 12.5t44.5 12t45.5 5.5l10 -1l3 -7v-18q0 -8 1 -17q-2 -48 13.5 -92.5t33.5 -88t30.5 -88t3.5 -93.5z" glyph-name="t" unicode="t" horiz-adv-x="595"/>
<glyph d="M64 177q-2 -34 8.5 -67.5t31.5 -59t51 -40t67 -10.5q45 2 91 11.5t89 28.5t78.5 47.5t59.5 69.5q9 39 5 76.5t-15 73.5t-24.5 71.5t-23.5 72t-12.5 73.5t9.5 77q4 12 5.5 24.5t6.5 24.5q6 14 10 27.5t12 25.5q4 9 1.5 17.5t-8.5 14t-14.5 8t-17.5 1.5q-21 -1 -39 -12.5 t-29 -28.5q-28 -56 -38 -117.5t1 -123.5q10 -37 24 -71t25 -67t17 -65.5t2 -66.5q-6 -22 -20.5 -39t-34 -29t-42 -19t-43.5 -9q-22 -3 -40.5 4t-32.5 21t-23 32.5t-12 38.5q-11 47 -20 86.5t-26 76.5q-19 34 -28 71t-10 75.5t5 76.5t18 74q6 9 6 19q0 11 -1 22 q-11 11 -21 14.5t-19 2.5q-28 -3 -48 -19t-32 -39t-17.5 -50t-5.5 -51q-5 -51 5.5 -101t34.5 -95q2 -3 3.5 -6t2.5 -6q5 -13 9 -26.5t7 -27.5q2 -6 2.5 -12t2.5 -11q0 -10 3 -19q2 -7 2 -13t2 -13t1 -13.5t-1 -13.5v-17z" glyph-name="u" unicode="u" horiz-adv-x="543"/>
<glyph d="M-30 649q-10 -48 -2 -90.5t26.5 -82t42.5 -77.5t47 -76.5t40 -79.5t20 -86q2 -20 2.5 -40.5t2 -40.5t6 -39.5t15.5 -36.5q7 -1 14 -1.5t14 -1.5q33 3 62 17.5t53.5 36.5t43 49.5t30.5 56.5q16 41 22 84t4 87q-4 36 -6.5 73.5t-1 74.5t9 73t23.5 71q20 36 47 67t47 67 q4 7 4 15q0 9 -3.5 15.5t-10 11t-15.5 3.5q-31 -5 -57 -20.5t-47.5 -37t-38.5 -47.5t-29 -53q-12 -28 -24 -56.5t-14 -59.5q-7 -39 -2.5 -78.5t10.5 -78.5t7.5 -78t-10.5 -78q-4 -11 -11.5 -21.5t-19.5 -15.5q-17 4 -21.5 20t-9.5 30q-9 28 -14 45t-10 31q-16 44 -36.5 77 t-35.5 68q-18 42 -29 76.5t-17 69.5q-5 19 -7.5 39.5t-7 38.5t-14 31.5t-28.5 16.5q-29 1 -49 -20.5t-22 -48.5z" glyph-name="v" unicode="v" horiz-adv-x="555"/>
<glyph d="M87 237q4 -30 8 -60.5t9.5 -60.5t14 -59.5t22.5 -56.5h19q21 -1 41.5 5.5t39.5 15.5q51 28 101 57.5t98 64.5h22q13 -26 23.5 -53t15.5 -56q1 -5 1 -9t1 -9q4 -14 11.5 -14.5t13.5 -2.5q54 7 109 36t95 72.5t56.5 98.5t-5.5 115q-23 36 -45.5 75t-36.5 81t-15.5 85.5 t16.5 87.5q11 14 18.5 30t17.5 31q7 10 11 20.5t8 21.5q-5 14 -12 17.5t-15 2.5q-35 -4 -65.5 -25t-47.5 -52q-23 -42 -33.5 -88t-2.5 -93q5 -32 16.5 -59t25.5 -51.5t28 -48t23 -48.5q7 -20 9 -44.5t-3.5 -47.5t-19 -41.5t-36.5 -26.5q-16 4 -26 15t-17 25t-12 29.5 t-12 28.5q-4 26 -13.5 50t-23.5 46q-16 25 -33.5 47.5t-31.5 48.5q-5 7 -8 14.5t-6 15.5q-10 19 -15 45t-13 49.5t-23 40.5t-44 19q-17 1 -33.5 -5.5t-24.5 -22.5q-2 -24 0 -48.5t8 -47.5q7 -26 17.5 -49.5t24.5 -45.5q25 -31 33.5 -72.5t-0.5 -80.5t-35 -69.5t-69 -38.5 q-14 3 -23.5 12.5t-16 21.5t-12 25.5t-11.5 24.5q0 2 -0.5 4.5t-0.5 4.5q-2 11 -5 21.5t-6 21.5q-9 33 -26 63t-32.5 60.5t-24.5 62.5t-1 68q3 23 11.5 44t20 41t23.5 39.5t22 39.5q4 8 6.5 15.5t3.5 15.5q-5 12 -12.5 14.5t-14.5 3.5q-38 -10 -70.5 -33.5t-55.5 -56 t-35.5 -71.5t-11.5 -78q3 -39 17.5 -72.5t30.5 -65t29.5 -63.5t14.5 -68z" glyph-name="w" unicode="w" horiz-adv-x="790"/>
<glyph d="M364 313q30 -26 57 -54t49 -61q14 -26 22 -53.5t14 -56.5q4 -13 5 -27.5t3.5 -27t8 -21.5t19.5 -12q20 -2 36.5 6.5t27.5 25.5q15 21 20.5 45t3 49t-11.5 48t-24 43q-45 62 -98 104.5t-105 82.5q-13 10 -19 23q-6 24 2.5 43.5t23.5 36t33.5 31t33.5 28.5q27 21 52.5 40 t48.5 37.5t43.5 38.5t37.5 43q9 11 3 24.5t-22 10.5q-58 -6 -106.5 -32t-92 -61t-84.5 -73.5t-84 -69.5q-8 -2 -13 4t-10 11q-14 14 -26 30t-23 33q-22 21 -40 45t-35 49q-5 8 -13 8h-16q-19 2 -36 -7.5t-25 -27.5q-8 -26 10 -49q29 -48 68 -87.5t82 -74.5q8 -5 12.5 -12.5 t8.5 -15.5l4 -9q1 -5 2 -9t-1 -9q-6 -49 -24 -92.5t-42 -85t-50.5 -81.5t-48.5 -82q-4 -8 -7.5 -15.5t-3.5 -16.5q10 -8 17 -9.5t13 -1.5q28 3 54 15t48.5 28.5t42.5 37.5t37 42q23 32 35 58t21 51q5 12 8.5 24t8 22t11 16.5t16.5 7.5l12 -4z" glyph-name="x" unicode="x" horiz-adv-x="677"/>
<glyph d="M179 68q-5 -9 -7 -21t0.5 -23t10.5 -18t22 -6q14 -1 24.5 5.5t19.5 15.5q43 69 74 143.5t39 155.5q-8 97 18.5 182.5t79.5 157.5q10 17 22.5 32t17.5 35q3 6 5.5 12t4.5 12q-2 11 -10 16t-18 5q-43 -10 -74 -43t-53 -69q-35 -49 -57.5 -106t-28.5 -117q-3 -14 -7 -30 t-20 -20q-27 1 -53.5 11t-48 27t-37 40.5t-20.5 50.5q-1 25 7.5 46t21 41.5t25.5 40.5t20 42q2 8 4.5 15t-0.5 15q-10 10 -17.5 12t-15.5 3q-38 -8 -68.5 -31.5t-51 -56.5t-30 -72t-5.5 -76q13 -48 46 -79.5t72.5 -56t81 -47.5t71.5 -55q3 -26 -4 -50t-17.5 -47.5t-22.5 -46 t-21 -45.5z" glyph-name="y" unicode="y" horiz-adv-x="524"/>
<glyph d="M53 74q-10 -17 -16 -37t10 -37h41q45 1 88.5 8.5t86.5 18t86 22t87 19.5q45 8 90.5 13.5t90.5 14.5q20 5 41.5 13.5t29.5 30.5q3 15 -3.5 25t-17.5 16.5t-24.5 9t-25.5 1.5q-48 0 -95 -7.5t-93.5 -18.5t-92.5 -24l-92 -26h-26q8 22 21 42t27 38.5t28.5 37t25.5 39.5 q18 30 24.5 64.5t17.5 66.5q16 36 40 66.5t49 60.5t49 61t41 67q2 4 3.5 7.5t3.5 7.5q2 6 5.5 13.5t5.5 15t0 13.5t-12 8h-105q-78 -13 -154.5 -27t-153.5 -28q-21 -4 -42.5 -10t-41 -16t-35.5 -24.5t-26 -34.5q-6 -19 7.5 -31.5t31.5 -9.5q5 1 9 1t9 1q67 24 136 43t141 20 h7q6 -1 11 -1h12h8q7 -9 4 -17q-8 -27 -28.5 -45.5t-38.5 -38.5q-26 -35 -46 -74t-28 -83q-17 -60 -44.5 -104t-62.5 -81q-21 -19 -37.5 -41.5t-26.5 -48.5z" glyph-name="z" unicode="z" horiz-adv-x="638"/>
<glyph d="M19 313q42 -35 67.5 -82t49.5 -95q11 -24 21.5 -48t24 -44t31 -32t43.5 -12q23 0 45.5 10.5t30.5 33.5q1 2 1 4t1 4q0 2 0.5 4.5t0.5 4.5q-30 30 -53.5 65t-44.5 72t-42 73.5t-46 70.5q-2 7 -4.5 13t-4.5 13q2 52 16 102t37 97q11 16 25.5 30.5l28.5 28.5t27 29t21 34 q2 5 2 10v10l-12 7.5t-8 1.5q-31 -4 -62 -15t-58 -28.5t-49 -41.5t-35 -53q-5 -18 -7 -37t-3.5 -38t-3.5 -38t-8 -37q-3 -13 -10.5 -24.5t-14.5 -23t-11.5 -24t-1.5 -27.5q2 -5 3.5 -9t2.5 -9z" glyph-name="braceleft" unicode="{" horiz-adv-x="330"/>
<glyph d="M4 -51q-1 -9 3 -16t10.5 -11.5t15 -6.5t16.5 0q19 0 35 11t22 29q28 84 35.5 170.5t6.5 173.5t-3.5 174t6.5 174q3 26 6 52.5t7 52.5q3 11 1 23.5t-8 22.5t-16 16.5t-23 6.5q-15 1 -26.5 -8.5t-19.5 -20.5q-23 -95 -27 -191t-3.5 -193t-2.5 -193t-24 -191 q-2 -19 -5.5 -37.5t-5.5 -37.5z" glyph-name="bar" unicode="|" horiz-adv-x="163"/>
<glyph d="M170 389l3 -15q0 -62 -15.5 -122t-41.5 -116q-5 -10 -10 -20.5t-12 -19.5q-8 -14 -20 -25t-24 -21.5t-22.5 -22.5t-17.5 -27h102q43 21 68 57.5t40 79.5t25 89t23 87q6 8 14.5 15.5t16 15.5t12 17t2.5 21q-4 18 -16 30.5t-26.5 23t-28 22t-21.5 27.5q-19 38 -22.5 79.5 t-8.5 83.5q0 27 -8.5 50t-24 38.5t-36.5 23t-44 4.5q-23 1 -46 -9.5t-31 -34.5q2 -16 13 -24.5t25.5 -15t28.5 -13t22 -18.5q26 -136 81 -260z" glyph-name="braceright" unicode="}" horiz-adv-x="318"/>
<glyph d="M63 575q-3 -3 -6 -5.5t-6 -5.5l-13 -10q-4 -5 -4 -7q0 -1 2 -1q36 4 70.5 14t66.5 26q23 13 38.5 24.5t33.5 9.5q25 -1 48 -9t45 -19q10 -7 16.5 -15t12.5 -14.5t12.5 -10t16.5 -1.5q32 2 64.5 8t62.5 20q22 12 23.5 25.5t-9.5 19.5q-24 14 -39.5 26t-16.5 31q5 12 12 20 q11 10 15 13.5t6 5.5l-8 4q-27 -6 -53.5 -16.5t-45.5 -32.5q-5 -10 -6 -15t-1 -9q-9 -12 -18 -10q-45 2 -85 21.5t-72 47.5q-8 -1 -16.5 0.5t-16.5 0.5q-36 -2 -72 -8.5t-70 -20.5q-17 -8 -22.5 -18.5t1.5 -19.5q11 -8 21 -16t15.5 -17t5.5 -18t-8 -18z" glyph-name="asciitilde" unicode="~" horiz-adv-x="559"/>
<glyph d="M173 149q-4 8 -10.5 14.5t-16.5 6.5q-23 -3 -40 -16t-28.5 -32t-16 -41t-2.5 -43q2 -20 -2 -38t-10.5 -36t-14 -35t-13.5 -35q-5 -11 0 -23.5t19 -10.5q40 6 69 36.5t41 66.5q5 45 5.5 84.5t12.5 75.5q2 7 3 13.5t4 12.5z" glyph-name="quotesinglbase" unicode="‚" horiz-adv-x="185"/>
<glyph d="M219 -105q-2 -8 -6 -14.5t0 -14.5q8 -7 13.5 -8.5t10.5 -1.5q24 0 44 14.5t31 34.5q20 26 22 59.5t-11 62.5q-4 16 0.5 31t12.5 29.5t17 28t14 28.5q3 6 6.5 14.5t4.5 16.5t-2.5 13.5t-14.5 5.5q-24 -5 -48 -15.5t-44 -27t-34.5 -38t-18.5 -47.5q0 -15 3 -27t7 -22.5 t7.5 -20t3.5 -19.5q0 -27 -4.5 -46t-13.5 -36zM36 -117q-2 -5 -4.5 -10t-4.5 -10q3 -21 16 -19q43 13 78.5 45.5t43.5 78.5q-4 21 -9 41.5t-7 39t1.5 36t17.5 32.5q2 5 3.5 9t3.5 8q2 5 2.5 10.5t1.5 10.5q-8 7 -12 9t-9 1q-21 -3 -42.5 -12.5t-38 -25t-26.5 -35.5t-9 -43 q20 -46 19 -88.5t-25 -77.5z" glyph-name="quotedblbase" unicode="„" horiz-adv-x="404"/>
<glyph d="M19 56q6 -3 15 -6.5t16 -8t10.5 -11t0.5 -15.5q-4 -7 -4.5 -8.5t-1.5 -3.5q5 -4 11 -4q42 3 78 19l14 9q2 9 0.5 12.5t-3.5 5.5q-22 11 -32.5 15t-17.5 9q-10 5 -18.5 15t-3.5 22q2 10 -4 10.5t-10 1.5q-19 -1 -37.5 -5.5t-35.5 -10.5q-13 -9 -15.5 -13t-4.5 -6 q15 -13 24.5 -19t18.5 -8zM189 57q7 -3 15.5 -6.5t16 -8t12 -10.5t3.5 -16q-8 -11 -3.5 -14t9.5 -2q20 2 39 6.5t37 12.5q14 12 13.5 17.5t-4.5 9.5q-23 12 -33.5 15.5t-17.5 8.5q-10 5 -17.5 15.5t-0.5 21.5q2 9 -3.5 10t-9.5 2q-20 -2 -38.5 -6t-36.5 -10 q-11 -11 -11.5 -18.5t4.5 -13t13 -8.5t13 -6zM357 57q6 -3 14.5 -7t16 -8.5t11 -11t0.5 -15.5q-4 -7 -4.5 -8.5t-1.5 -3.5q5 -4 11 -4q42 3 78 19l14 9q2 9 0.5 12.5t-3.5 5.5q-22 11 -32 15.5t-18 8.5q-10 5 -18.5 15t-3.5 22q2 10 -4 10.5t-10 1.5q-19 -1 -37.5 -5.5 t-35.5 -10.5q-11 -11 -10.5 -18.5t6 -13t13.5 -8.5t14 -5z" glyph-name="ellipsis" unicode="…" horiz-adv-x="485"/>
<glyph d="M280 703q3 9 8 19q3 6 4 13t0 13.5t-5.5 10.5t-13.5 3q-36 -5 -57.5 -26.5t-35 -51t-23.5 -62t-23 -58.5q-20 -12 -44.5 -13.5t-48.5 -2t-46.5 -5t-37.5 -23.5q0 -12 1 -24l2 -24l9 -6q8 -2 16.5 -2.5t16.5 -2.5q28 1 55.5 -0.5t55.5 -0.5q2 -2 3.5 -2.5t3.5 -2.5 q3 -40 10.5 -80t13.5 -80t6 -81q0 -40 -12 -80q-2 -21 -10 -40.5t-18 -37.5t-20 -36.5t-17 -37.5q-2 -5 -4 -9.5t-4 -9.5q7 -19 25 -19q19 1 35 10t29 22.5t23.5 29.5t18.5 31q27 48 37 99t9.5 103.5t-8.5 105t-17 103.5q7 13 18.5 19t26 7.5t29 1t27.5 -0.5q18 -1 36 0 t32.5 5.5t23 14t7.5 27.5q-1 14 -12.5 22.5t-25.5 8.5h-130q-8 1 -10.5 7t-1.5 13q2 35 15.5 66.5t27.5 63.5z" glyph-name="dagger" unicode="†" horiz-adv-x="437"/>
<glyph d="M462 198l-7 7q-8 1 -17 2.5t-17 1.5q-32 -2 -62.5 -4t-62.5 0q4 31 -0.5 61.5t-11.5 60.5l-14 60t-9 61q7 13 19 19t26 7.5t29 1t27 -0.5q18 -1 36 0t32.5 5.5t23 14t7.5 27.5q-1 15 -13 23t-26 8h-130q-8 1 -10.5 7t-0.5 13q2 35 16.5 66.5t28.5 63.5q3 10 9 19 q2 5 3.5 12.5t0.5 14t-5 10.5t-13 3q-37 -5 -59 -26.5t-36.5 -50.5t-25.5 -61.5t-24 -59.5q-20 -12 -44.5 -13.5t-49 -2t-46.5 -5t-37 -23.5q1 -12 1.5 -24t2.5 -24q2 -2 4 -3t4 -3q8 -2 17 -2.5t17 -2.5q28 1 55.5 -0.5t55.5 -0.5q2 -2 3.5 -2.5t3.5 -2.5q1 -33 8.5 -64.5 l15 -63t12.5 -63.5t1 -65q-20 2 -41 4t-41 4q-16 2 -30 -1t-24.5 -10t-16 -17t-3.5 -23q-1 -14 10.5 -23t25.5 -9h109q-4 -20 -12.5 -37.5t-18 -35t-19.5 -34.5t-18 -35q-2 -5 -4 -9.5t-4 -9.5q2 -9 9 -14t15 -5q19 1 35.5 10t30 22t24.5 29t20 32q24 44 36 91h45 q23 0 46 -2q15 1 29 0.5t26 1t21 6t13 16.5q2 12 0 24t-1 24z" glyph-name="daggerdbl" unicode="‡" horiz-adv-x="475"/>
<glyph d="M284 870l10 -3q9 -5 19 -12t17.5 -16t11 -19.5t0.5 -22.5q6 -4 12.5 -2.5t13.5 0.5q10 8 22 15.5t12 21.5q-9 13 -21.5 21.5t-25.5 17t-25 17.5t-20 23q-8 8 -10 18t-7 19h-11q-25 -11 -50 -25.5t-37 -40.5q-5 -13 -3 -26.5t1 -27.5q-2 -4 -2.5 -7.5t-2.5 -7.5 q-1 -2 -1 -5q0 -2 -1 -4l8 -4q17 2 31.5 11t25.5 21q8 10 10.5 15t3.5 10l6 7l6 5z" glyph-name="circumflex" unicode="ˆ" horiz-adv-x="545"/>
<glyph d="M152 34q1 -4 1 -8v-8q8 -13 18 -13q38 11 72 33t61 52t45.5 66t26.5 75q9 24 11 48.5t0.5 49t-5.5 49.5t-7 49q4 34 16 63t29.5 53.5t38.5 45t43 38.5q28 23 58 43.5t52 49.5q4 7 8 13.5t2 14.5q-10 11 -19.5 13.5t-18.5 2.5q-30 -1 -59 -8.5t-57.5 -16.5t-57.5 -16 t-59 -8q-19 -3 -31 6.5t-22.5 21.5t-22 21.5t-29.5 7.5q-48 -4 -101 -17.5t-99.5 -38.5t-80 -63.5t-40.5 -92.5q3 -27 18 -48.5t37 -36.5t47.5 -23.5t50.5 -9.5q26 1 46 11.5t36.5 27t30 36t28 39t30.5 37t36 28.5q16 0 31.5 -2t31.5 -5l-1 -7q-3 -12 -11 -22t-16 -18 q-16 -19 -29.5 -39t-23.5 -43q-11 -23 -12 -45.5t2 -45.5t7 -46.5t3 -46.5q-6 -71 -32 -127t-59 -106q-5 -9 -11.5 -17.5t-12.5 -16.5zM396 75q-6 -13 -5 -27.5t8 -26t19 -18t28 -3.5q47 4 99.5 16t98.5 35.5t80.5 60t46.5 88.5q-3 36 -23 64t-49 48t-63.5 31t-67.5 13 q-33 3 -60 -15.5t-36 -50.5q-14 -47 -25 -88.5t-28 -79.5l-3 -9q-3 -8 -7.5 -15t-8.5 -15l-2 -4zM576 416q38 -29 81.5 -50.5t91.5 -24.5q14 0 29.5 2t30 7t26 14t18.5 23q12 43 10 80.5t-6 73.5q-3 24 -8 52t-16.5 52t-31 39t-51.5 13q-43 1 -89 -17.5t-79 -51t-46 -75 t10 -90.5l5 -9q5 -8 9 -15.5t10 -14.5zM629 479q-10 23 -6 47.5t17.5 44t35 32t46.5 12.5q15 0 24.5 -8t15 -20t8.5 -25.5t5 -24.5q2 -17 2.5 -35t-8.5 -34q-14 -21 -32.5 -27t-35.5 -6q-7 1 -13 1.5t-13 0.5q-9 4 -17 9.5t-17 10.5q-3 5 -6.5 10.5t-5.5 11.5zM515 138 q9 19 17 42t19 43.5t27 34.5t42 16q30 -1 49.5 -25t19.5 -53q-3 -26 -17.5 -44.5t-35 -31.5t-44.5 -19.5t-47 -6.5q-6 1 -12 1.5t-12 0.5q-5 5 -6 10t-6 10q1 6 2.5 11.5t3.5 10.5zM15 564q2 23 14 42t29.5 32.5t39.5 21t43 8.5q14 2 25 -7.5t5 -24.5q-17 -38 -47.5 -69 t-73.5 -35q-14 -2 -25.5 7.5t-9.5 24.5z" glyph-name="perthousand" unicode="‰" horiz-adv-x="894"/>
<glyph d="M68 194q-3 -19 -3.5 -39t3 -39.5t12 -37t23.5 -31.5q41 -31 84.5 -39t85.5 -8q60 0 122.5 20t113 57.5t81.5 91.5t29 121q-5 38 -27 64.5t-52.5 45t-65.5 31t-66 23.5q-36 13 -70.5 20.5t-66 16t-59 21t-48.5 33.5q-1 4 -1.5 7t-1.5 7q32 43 78.5 73t102.5 29q14 0 27 -4 t26 -9.5t25.5 -10.5t26.5 -5q16 -1 27 11.5t9 27.5q-1 24 -13 42t-30.5 31t-40.5 20t-43 7q-54 -2 -104.5 -23.5t-95.5 -50.5q-24 -17 -46 -36.5t-37.5 -41.5t-22.5 -45.5t-1 -49.5q14 -32 40 -51.5t57 -31.5t64.5 -19.5t63.5 -14.5q39 -10 81 -20t76.5 -26.5t58 -42 t25.5 -66.5q0 -41 -19.5 -72.5t-50.5 -52.5t-69.5 -31t-74.5 -8q-29 0 -59 9.5t-43 38.5q-7 18 -13 36.5t-14 33.5t-20.5 24.5t-31.5 9.5q-21 3 -37 -11t-15 -35zM324 872l-7 3q-8 17 -13 34.5t-10 35.5q-6 4 -13 2.5t-14 -0.5q-9 -8 -17.5 -16.5t-12.5 -20.5 q7 -20 14.5 -40t14.5 -40q7 -10 12.5 -20t16.5 -17h11q23 16 46 32.5t45 34.5q16 11 30.5 23t20.5 31q2 4 3 7.5t3 7.5q0 2 -0.5 4.5t-0.5 4.5l-10 4q-18 -4 -32 -14t-27.5 -21.5t-27.5 -21.5t-32 -13z" glyph-name="Scaron" unicode="Š" horiz-adv-x="585"/>
<glyph d="M130 381l-3 10l3 4q22 24 47.5 43.5t51.5 38.5q5 5 8 11l6 12q2 10 -3.5 19.5t-16.5 11.5q-1 0 -2 -0.5t-2 -0.5q-12 0 -20 -4q-25 -14 -52 -27t-53 -28t-49 -33t-40 -41q2 -11 6 -18q26 -26 54 -48t52 -50q13 -12 23.5 -25t20.5 -24.5t21 -20t25 -12.5q7 -1 13 0t13 1 q20 8 29 26q0 28 -16 47.5t-38 36t-44 32.5t-34 39z" glyph-name="guilsinglleft" unicode="‹" horiz-adv-x="269"/>
<glyph d="M116 256q10 -21 15.5 -43.5t10 -45.5t8 -46.5t8.5 -45.5q7 -25 22 -40t34.5 -23t40.5 -10t40 -2q121 5 239.5 36.5t223.5 94.5q-3 -17 -4.5 -39.5t3.5 -42.5t18 -33.5t39 -11.5q59 3 116 16.5t114 30.5q32 12 64 23.5t60 26t48.5 34t30.5 48.5q1 19 -14.5 30t-32.5 9 q-34 -6 -62 -25.5t-55.5 -40.5t-57 -37t-66.5 -15q-23 0 -37 11.5t-22.5 29t-13 38t-7.5 37.5q-5 24 -9.5 49t0.5 49q10 27 26 40.5t36 19.5q33 11 58.5 17t48.5 13q25 7 39.5 22.5t1.5 33.5q-13 23 -36.5 37t-49.5 15q-27 1 -53 -5.5t-52 -14.5t-52 -15t-53 -7 q-9 -1 -17.5 1t-15.5 8l-3 7q-2 6 -4 11.5t-4 10.5v9q-5 25 4.5 46t26.5 36t39.5 25t44.5 13q52 9 97 8t89 -3q33 9 57 36q5 8 11.5 16t8.5 18q-2 14 -9 18t-15 6q-31 5 -56.5 3.5t-50.5 -1.5q-44 0 -90.5 0.5t-92 -5.5t-87 -22.5t-75.5 -49.5q-7 -8 -12 -20 q-10 22 -26.5 37.5t-36.5 25t-43 13.5t-45 3q-109 -5 -215 -39.5t-194 -100.5q-37 -32 -57 -70t-9 -79q11 -27 27 -49t32 -43t30 -42t23 -45zM211 291q-15 24 -35 48t-35.5 50t-20 54t12.5 59q47 66 112 99.5t134 37.5q42 2 77.5 -19t59.5 -53q42 -52 81 -96t81 -84 l11.5 -11.5t12.5 -10.5q9 -11 17.5 -22t16.5 -22q13 -23 11.5 -45.5t-12.5 -43t-28.5 -37.5t-36.5 -28q-62 -35 -121.5 -54t-119.5 -21q-30 -1 -60.5 7t-53.5 28q-19 20 -32.5 41t-25 42.5t-22.5 42t-24 38.5z" glyph-name="OE" unicode="Œ" horiz-adv-x="1168"/>
<glyph d="M14 558q7 -19 26 -21q23 3 40.5 16t28.5 31.5t16 41t2 43.5q-2 19 2 37.5t11 36.5t14.5 35t13.5 35q5 11 -0.5 23.5t-19.5 10.5q-39 -6 -67.5 -36.5t-42.5 -66.5q-6 -46 -5.5 -85t-11.5 -75q-2 -7 -3.5 -13t-3.5 -13z" glyph-name="quoteleft" unicode="‘" horiz-adv-x="185"/>
<glyph d="M173 825q-4 8 -10.5 14.5t-16.5 6.5q-23 -3 -40 -16t-28.5 -32t-16 -41t-2.5 -43q2 -20 -2 -38t-10.5 -36t-14 -35t-13.5 -35q-5 -11 0 -23.5t19 -10.5q40 6 69 36.5t41 66.5q5 45 5.5 84.5t12.5 75.5q2 7 3 13.5t4 12.5z" glyph-name="quoteright" unicode="’" horiz-adv-x="185"/>
<glyph d="M225 536q7 26 0 47.5t-22 40.5t-33.5 36t-33.5 34q-19 26 -29 45t-17 38q-3 10 -6 20.5t-7 19t-10 13.5t-16 5q-23 -1 -42 -15t-28 -35q-6 -20 1 -36t20 -30t29 -26.5t28 -24.5q13 -12 27 -25.5t25.5 -28.5t18.5 -32t7 -36l-3 -30q5 -14 12 -16.5t14 -2.5q20 0 38.5 10 t26.5 29zM394 524q12 23 8.5 45t-15.5 42t-29.5 37t-33.5 30q-20 17 -32.5 37.5t-23.5 39t-24 32.5t-33 19q-15 1 -27 -8t-17 -23q-1 -5 -2 -8.5t0 -8.5q7 -22 19.5 -40t27.5 -34t31.5 -31.5t31.5 -31.5q19 -23 27 -41.5t12 -36.5q5 -19 4 -35.5t13 -22.5q20 1 36.5 12 t26.5 27z" glyph-name="quotedblleft" unicode="“" horiz-adv-x="382"/>
<glyph d="M219 536q-2 -8 -6 -14.5t0 -14.5q8 -7 13.5 -8.5t10.5 -1.5q24 0 44 14.5t31 34.5q20 26 22 59.5t-11 62.5q-4 16 0.5 31t12.5 29.5t17 28t14 28.5q3 6 6.5 14.5t4.5 16.5t-2.5 13.5t-14.5 5.5q-24 -5 -48 -15.5t-44 -27t-34.5 -38t-18.5 -47.5q0 -15 3 -27t7 -22.5 t7.5 -20t3.5 -19.5q0 -27 -4.5 -46t-13.5 -36zM36 524q-2 -5 -4.5 -10t-4.5 -10q3 -21 16 -19q43 13 78.5 45.5t43.5 78.5q-4 21 -9 41.5t-7 39t1.5 36t17.5 32.5q2 5 3.5 9t3.5 8q2 5 2.5 10.5t1.5 10.5q-8 7 -12 9t-9 1q-21 -3 -42.5 -12.5t-38 -25t-26.5 -35.5t-9 -43 q20 -46 19 -88.5t-25 -77.5z" glyph-name="quotedblright" unicode="”" horiz-adv-x="404"/>
<glyph d="M44 375q12 -18 21 -41t20.5 -43.5t28.5 -33.5t46 -10q32 1 60 14t54 31q16 12 23.5 26.5t8 29.5t-4 29t-13.5 26q-5 21 -15 42t-25 37t-35 25t-45 6q-28 -1 -55 -9t-50 -25q-31 -24 -35 -54t16 -50z" glyph-name="bullet" unicode="•" horiz-adv-x="335"/>
<glyph d="M8 335q18 -6 37.5 -10.5t33.5 -18.5q1 -11 -3 -13.5t-6 -6.5h310q22 1 45.5 0t46 0t44.5 5.5t43 15.5q2 2 4 3.5t4 3.5l-67 27q-8 5 -18.5 10t-7.5 17q5 8 2 10t-6 2q-98 -1 -195.5 0.5t-195.5 0.5l-26 -2t-26 -4q-21 -5 -29 -7t-13 -4q-3 -9 -1 -13.5t6 -7t9 -4t9 -4.5z " glyph-name="endash" unicode="–" horiz-adv-x="545"/>
<glyph d="M11 335q20 -6 43 -9.5t39 -19.5q-8 -11 -14.5 -14t-12.5 -6h9q116 -1 231 0.5t231 0.5q24 1 49 0.5t50 0.5t48.5 5.5t46.5 15.5q2 2 2.5 3.5t2.5 3.5l-91 27q-4 2 -10.5 4.5t-11 5.5t-6 7t4.5 10l13 9q-3 3 -5 3q-140 1 -278 -0.5t-278 -0.5q-30 -2 -58 -6 q-23 -5 -31.5 -7t-14.5 -4q1 -18 14.5 -21t26.5 -8z" glyph-name="emdash" unicode="—" horiz-adv-x="696"/>
<glyph d="M90 809q-2 -3 -5 -5.5t-5 -5.5l-5 -9q32 2 58.5 20t52.5 32q14 -2 27.5 -6.5t24.5 -13.5q10 -13 15.5 -21t16.5 -7q18 2 35.5 6.5t33.5 14.5q6 13 2.5 22t-10 16.5t-12.5 14.5t-5 18q0 9 8.5 15.5t7.5 14.5q-14 -3 -25.5 -9.5t-22.5 -14.5q-5 -6 -7 -12.5t-3.5 -11 t-3.5 -7.5t-8 -3q-26 2 -46 16.5t-37 31.5q-5 1 -9 1h-8q-20 -1 -39 -6t-36 -13q-13 -13 -10.5 -22.5t8.5 -18.5t10.5 -17.5t-3.5 -19.5z" glyph-name="tilde" unicode="˜" horiz-adv-x="401"/>
<glyph d="M533 698q18 -26 40 -41q17 -14 31 -31.5t16 -40.5q-2 -34 -20.5 -55t-38.5 -36q-2 -2 -4 -5t-4 -5q8 -3 12 -3.5t8 -0.5q18 -2 34.5 5t31.5 16q16 11 26 28t12.5 36t-3 37t-21.5 32q-20 15 -37.5 32t-28.5 35t-13.5 37t8.5 39q5 10 11 19q4 5 7.5 10t7.5 10q6 10 7 13 t2 5q-11 4 -12 4q-26 -3 -50 -15t-46 -26q-12 -9 -24 -20t-21 -23.5t-13.5 -27.5t-1.5 -32q-3 -11 -3 -21q-22 7 -39.5 22t-25.5 37q-4 12 -3.5 24t0.5 22q0 11 -3.5 17.5t-15.5 7.5h-10q-3 -2 -6.5 -3t-6.5 -3q-12 -10 -22.5 -21t-18.5 -25q-8 -30 0.5 -49t21.5 -33 q21 -17 35.5 -36t20 -39t1.5 -38.5t-19 -33.5q-4 -5 -7 -10t-7 -10q5 -6 8.5 -7t7.5 -1q26 8 47.5 26.5t30.5 44.5q3 13 1.5 24t-5 21t-7 18t-3.5 16q18 -7 32.5 -20t23.5 -29.5t12.5 -35t-1.5 -37.5q29 6 52 28t28 52q0 17 -7 30t-14.5 23.5t-12 20.5t-1.5 22zM73 691 q9 -11 19.5 -20t22 -18t21.5 -18.5t18 -21.5q14 -26 12.5 -47t-13.5 -37q-1 -8 1.5 -14t4.5 -13h7q19 1 34 13.5t24 28.5q13 27 5.5 48t-24.5 39t-37 35t-32 35q-6 11 -7 24.5t7 24.5q19 10 41 10q23 0 45.5 1t42.5 6.5t34 26.5q4 7 9 13.5t3 14.5q-11 7 -19.5 7.5 t-16.5 0.5q-42 -7 -86.5 -10.5t-88 -10.5t-85 -19.5t-76.5 -37.5q2 -14 10 -26t22 -14h75q6 -6 13 -11z" glyph-name="trademark" unicode="™" horiz-adv-x="664"/>
<glyph d="M81 181q-7 -48 14.5 -82.5t58 -56t81 -32t82.5 -10.5q72 2 142 21t135 51q35 19 68 41.5t58 49t39 57.5t12 67q-16 51 -52.5 85t-83.5 55t-99 32.5t-99 18.5q-55 3 -109 6t-109 6q-11 3 -23 6.5t-19 14.5v8q42 57 106.5 90t135.5 33q29 0 55.5 -10.5t55.5 -11.5 q16 -2 24.5 11t6.5 27q-1 21 -10.5 39t-25.5 31.5t-35.5 21.5t-39.5 8q-68 -3 -132.5 -22.5t-125.5 -47.5q-32 -16 -63.5 -35.5t-55 -42.5t-34 -51t0.5 -61q12 -24 31.5 -41t43 -28t49.5 -17.5t51 -8.5q72 -8 143 -14.5t143 -14.5q24 -4 50 -11.5t49 -20t41 -30.5t25 -44 q-3 -21 -14.5 -36.5t-27.5 -27.5t-34.5 -22t-34.5 -19q-51 -22 -95.5 -36t-89.5 -18q-33 -1 -63 9t-56.5 27t-50 39.5t-43.5 46.5q-5 1 -10 1q-4 0 -9 1q-23 2 -39 -14t-18 -38zM342 838l-6 3q-6 17 -9.5 35t-6.5 35q-6 4 -13 2.5t-14 -0.5q-10 -8 -19 -16.5t-14 -20.5 q5 -20 10 -39.5t12 -39.5q6 -10 11.5 -20t16.5 -17h10q24 16 47.5 32.5t47.5 33.5q17 11 32.5 23t23.5 31l6 11l2 4q0 2 -0.5 4.5t-0.5 4.5l-8 4q-19 -3 -34 -13.5t-30 -21.5t-30 -21.5t-34 -13.5z" glyph-name="scaron" unicode="š" horiz-adv-x="719"/>
<glyph d="M126 380q9 -26 -0.5 -45.5t-26.5 -36.5t-35.5 -34t-26.5 -38q-3 -7 -3 -15t8 -11q6 1 12 0t12 -1q31 9 62.5 25t57.5 39t43 52t19 65q-7 10 -8 18q-20 17 -42 32t-44.5 30t-43.5 30.5t-40 35.5q-4 2 -7.5 3t-8.5 1h-1q0 1 -1 1q-31 -5 -48 -31q-2 -5 -2.5 -11.5 t2.5 -11.5q26 -23 54 -44t58 -39l7 -10z" glyph-name="guilsinglright" unicode="›" horiz-adv-x="269"/>
<glyph d="M613 57q-8 -9 -17 -20.5t-4 -24.5q17 -9 31.5 -10t27.5 -1h36q69 5 137 17t136 27q42 13 84.5 23t80 23.5t68 33.5t49.5 53q2 9 -1 16.5t-9 13t-14 8.5t-16 2q-20 0 -37 -9.5t-34 -19.5q-11 -8 -26 -15q-74 -37 -153.5 -60t-162.5 -25h-18q-9 1 -12 11l1 1q6 11 11.5 23 t8.5 25q16 51 -1.5 100.5t-51.5 86.5l-1 1l1 7l5 4l7 3q13 5 21 5.5t15 2.5l52.5 3.5t43.5 2.5q33 1 66.5 2.5t66.5 5.5q20 4 35 6t28 8q18 7 22 20.5t-5 22.5q-11 17 -29 28t-39 10q-38 -1 -75 -4.5t-75 -8.5q-38 -4 -76 -7.5t-76 -3.5h-11h-7q-20 1 -40.5 2.5t-37.5 12.5 l-1 1q-5 8 -8.5 17t-7.5 17q-6 16 -5.5 33t6.5 32.5t17 28.5t26 21q41 18 77 22.5t71 6.5q27 0 54.5 1t54.5 2q29 2 59 3.5t59 1.5q36 3 59 31q4 5 9 11t8 13t2.5 13.5t-6.5 12.5q-22 9 -40 11.5t-35 1.5h-28q-6 0 -12 -0.5t-12 -0.5q-7 1 -13 0t-13 -1q-97 -1 -192.5 -14 t-189.5 -37q-2 -1 -4 -1q-1 0 -3 -1q-3 14 -12.5 23.5t-21.5 15t-25.5 7.5t-26.5 1q-30 -1 -58.5 -7t-57.5 -14q-42 -13 -85 -28t-83.5 -33.5t-78.5 -42t-71 -53.5q-55 -63 -41 -115q10 -26 24 -46.5t29 -38.5t29 -35t24 -36q23 -36 34 -77.5t12 -84.5v-38t3.5 -35.5t12 -29 t26.5 -18.5h68q60 4 123 15.5t121.5 35t109 59.5t86.5 89v-10q-15 -63 -60 -113l-5 -5q-2 -1 -2.5 -2t-2.5 -2q-2 -2 -4 -5t-4 -5zM207 261q-10 30 -32 56.5t-41.5 53.5t-30 56t2.5 65q23 37 54 62t66 41t72 23.5t73 8.5q27 3 46.5 -8.5t33.5 -30t24 -41.5t19 -43 q5 -23 16.5 -42.5t25.5 -37.5q13 -25 30.5 -47.5t29.5 -47.5q11 -35 8 -62.5t-17 -49.5q-51 -63 -116 -97t-134 -39q-26 -2 -52.5 8.5t-37.5 37.5q-11 38 -18.5 71t-21.5 63z" glyph-name="oe" unicode="œ" horiz-adv-x="1143"/>
<glyph d="M110 52q-3 -8 -4.5 -17.5t1 -17.5t8.5 -13.5t18 -3.5q25 1 49 12.5t36 34.5q37 72 61 148.5t48 152.5q13 36 21 74.5t16.5 76t21 74t35.5 69.5q8 17 11.5 36t8.5 37q4 15 -5.5 28.5t-26.5 10.5q-26 -1 -42.5 -14.5t-27.5 -32.5t-19 -41.5t-15 -41.5q-23 -48 -40.5 -97 t-25.5 -101l-4 -9q-11 -3 -16.5 -3.5t-10.5 -0.5q-29 -2 -52.5 13t-37.5 39q-4 11 -7.5 20.5t-7.5 20.5q0 2 -0.5 4.5t-0.5 4.5q-6 20 -5.5 40t3 40t6 40.5t4.5 40.5q1 18 -10.5 33.5t-31.5 14.5q-33 -2 -51.5 -21.5t-27 -47.5t-7.5 -58.5t7 -55.5q0 -8 2 -15.5t3 -15.5 q10 -35 32.5 -61.5t48.5 -50.5t52 -47.5t45 -51.5q3 -33 -2.5 -64.5t-15 -62t-21.5 -60.5t-23 -60zM115 854q-6 -11 -5 -21.5t7 -19t15.5 -13.5t21.5 -3q27 4 49 24t32 45q6 10 3.5 20t-9.5 16.5t-17 10t-20 2.5q-26 -1 -47.5 -18.5t-29.5 -42.5zM288 855q-5 -11 -4 -21.5 t7 -19t15.5 -13.5t21.5 -3q28 4 48.5 24t31.5 45q6 10 3.5 20t-9.5 16.5t-17 10t-20 2.5q-27 -2 -48 -19t-29 -42z" glyph-name="Ydieresis" unicode="Ÿ" horiz-adv-x="489"/>
<glyph d="M244 409q-2 18 -10.5 37t-30.5 20q-11 1 -20 -5t-13 -17q-16 -55 -26 -111.5t-22 -112.5t-31 -109.5t-52 -102.5q-12 -18 -25 -35.5t-19 -38.5q-7 -16 5 -26.5t27 -8.5q23 0 40 13.5t31 28.5q20 28 40.5 56.5t36.5 59.5q64 137 70 287q2 16 1 32t-2 33zM293 675 q1 8 2.5 19t-0.5 21t-7.5 17t-17.5 7q-38 -3 -67 -30t-40 -62q-3 -10 -2 -22t5.5 -21.5t13 -16t21.5 -6.5q18 1 33 10t26 22.5t19.5 29.5t13.5 32z" glyph-name="exclamdown" unicode="¡" horiz-adv-x="311"/>
<glyph d="M426 557q3 16 -3 27t-17.5 17.5t-26 8.5t-26.5 1h-42t-42 -4q4 22 12 45q3 11 8 21.5t9 21.5q5 18 -1 27.5t-17 7.5q-12 0 -24 -2.5t-23 -9.5q-14 -20 -21 -34.5t-14 -27.5q-6 -18 -11 -36.5t-7 -37.5q-39 -14 -74.5 -36t-59.5 -56q-14 -23 -18.5 -44.5t-3 -42t6.5 -40.5 t11 -38q7 -31 20.5 -63.5t34.5 -58.5t50 -42t66 -14h13q-3 -17 -8.5 -34t-10.5 -34q-4 -11 -9.5 -20.5t-8.5 -20.5q0 -9 3 -13t7.5 -5.5t9.5 -1.5q6 0 10 -1q15 -2 26.5 4.5t19.5 16.5t13.5 22.5t10.5 24.5q16 40 24 83q45 14 85 39.5t72 59.5q10 10 14 24.5t1.5 28.5 t-11 25t-24.5 14q-22 5 -43 -3.5t-32 -28.5q-7 -21 -23 -37t-36 -26q-4 32 -14 63t-20.5 62t-18 62.5t-5.5 64.5q8 2 16.5 4.5t17.5 2.5q20 -2 38 -7t37 -8q10 -2 21 -1.5t20 4.5t14.5 12t5.5 20q-1 4 -1 7t-1 7zM234 236h-8q-19 1 -33.5 10.5t-25.5 24t-19 31t-13 32.5 q-11 19 -14 41.5t2 43t18 37.5t35 26q2 -32 11.5 -62t20 -60t19 -60.5t7.5 -63.5z" glyph-name="cent" unicode="¢" horiz-adv-x="475"/>
<glyph d="M405 366q-14 0 -23 -9q-35 0 -68.5 -0.5t-68.5 -0.5q-14 25 -24 51.5t-18 53.5h137q13 -9 31 -7q22 -3 35.5 14t9.5 38q0 9 -2 19.5t-7 19t-13 14t-19 5.5q-9 -1 -17.5 -3.5t-16.5 -6.5h-151q0 22 4 44t9 43q4 8 8 19.5t4 22.5t-5.5 18.5t-20.5 6.5q-15 0 -27.5 -7 t-23 -17.5t-18.5 -23.5t-14 -25l-1 -1q-2 -20 -2 -40v-40h-65q-6 5 -13.5 6t-15.5 2q-26 1 -39 -16t-13 -38t12.5 -39t38.5 -18q8 1 16.5 2.5t13.5 7.5h80q8 -27 17.5 -53.5t23.5 -51.5h-82q-17 8 -34 7q-10 1 -16 -3.5t-9 -12t-3 -16.5t3 -16q10 -27 25.5 -44.5t38.5 -18.5 q9 -1 17 3l16 8h70q2 -41 -8.5 -80t-28.5 -74q-5 -14 -12 -26.5t-12 -26.5q-6 -20 4.5 -26.5t20.5 -4.5q25 2 45 17.5t33 35.5q30 -23 65 -38.5t73 -20.5q52 -5 102.5 12t88.5 52q16 17 28 37t16.5 40.5t1 38.5t-19.5 32q-14 1 -23 -4.5t-14 -15.5t-7.5 -22t-3.5 -22 q-3 -24 -18 -36.5t-34.5 -18t-42 -6.5t-40.5 -1q-20 0 -38 5.5t-35.5 14t-35 17.5t-35.5 16q8 26 12.5 52t2.5 53h144q7 -2 13.5 -4t13.5 -2q18 -1 32.5 12.5t11.5 32.5q-11 31 -33 47t-47 17z" glyph-name="sterling" unicode="£" horiz-adv-x="550"/>
<glyph d="M559 192q-37 -8 -70.5 -25.5t-67 -35.5t-68.5 -31.5t-75 -11.5q-19 0 -37.5 4.5t-32.5 16.5q-14 21 -18.5 40t-6.5 36h29q32 0 65 2.5t65 7.5q18 4 37.5 9.5t35 13.5t25 20.5t8.5 31.5q-4 18 -19.5 33t-35.5 6q-53 -17 -107.5 -26t-109.5 -14q-1 46 -11 95q17 4 33 9 t33 9q21 2 41.5 4.5t41.5 4.5q14 2 28 6.5t24 11.5t14.5 16.5t1.5 22.5q-3 28 -31 36l-96 -2t-92 -23q8 30 23 59.5t36 54t48 41.5t59 22q8 1 15 -3t7 -13q-1 -7 -3 -13t-2 -13q-2 -11 -1.5 -24.5t5 -25t13 -19.5t23.5 -8q20 0 33 10.5t22 25.5t14 33t9 34q0 13 4 28.5 t6 30.5t0.5 28.5t-12.5 24.5q-71 16 -143 -2.5t-131.5 -62.5t-98 -107.5t-42.5 -136.5q1 -27 6 -54.5t9.5 -54.5t6.5 -54.5t-2 -55.5q1 -36 3 -73.5t19 -70.5q13 -20 30 -32t36 -18t38.5 -8t37.5 -2q49 2 96 13.5t94 26.5q27 11 53.5 21.5t49.5 23.5t40.5 30t25.5 42 q3 14 -7 25t-24 10z" glyph-name="currency" unicode="¤" horiz-adv-x="549"/>
<glyph d="M18 269q4 -11 12.5 -16.5t18.5 -8.5t21 -4t21 -2q20 0 39.5 1t39.5 4l-4 -36t-6 -35q-17 -4 -34.5 -6.5t-35 -7t-32.5 -12t-27 -20.5q-4 -7 -1.5 -14.5t11.5 -8.5q18 -3 30 -3h24h40l-10 -24l-10 -24q-2 -8 -5.5 -15.5t-1.5 -15.5q4 -14 10.5 -17.5t14.5 -3.5 q26 1 51 12.5t39 34.5q9 13 15 27t13 28q30 4 64 5.5t66.5 6.5t61.5 16.5t51 36.5q1 12 -5 18t-15 8.5t-19 3t-18 0.5q-77 -1 -155 -9q5 17 8.5 34.5t6.5 34.5q27 1 53.5 2t53.5 5q14 3 28.5 5t26.5 6.5t20 11.5t8 20q-2 14 -15.5 19.5t-25.5 8.5h-12q-10 0 -20 1t-20 0h-17 q-17 0 -35 -0.5t-35 -1.5q0 3 0.5 6.5t0.5 6.5q2 81 32 158t85 137q13 17 23 35.5t20 37.5q2 5 4 10.5t3 10.5q-5 11 -11 15t-13 3q-27 -2 -48.5 -15t-38.5 -31.5t-31.5 -41t-27.5 -42.5q-33 -45 -60.5 -94t-39.5 -104q0 -6 -3.5 -8.5t-8 -3.5t-10.5 -1h-9q-28 -2 -52.5 12 t-35.5 40q-3 10 -5 20t-4 21v9q-2 22 2.5 42.5t12 40t16.5 39t16 39.5q4 7 4 16t-3.5 16.5t-10 12t-16.5 3.5q-33 -3 -57.5 -21t-41 -44t-24.5 -57.5t-7 -60.5v-31q6 -35 25.5 -61t45 -47.5t54 -40.5t52.5 -40q-16 -4 -35 -6.5t-37 -7t-32.5 -13.5t-22.5 -25z" glyph-name="yen" unicode="¥" horiz-adv-x="489"/>
<glyph d="M146 861q11 -7 22 -17t9 -24q1 -12 7 -14t11 -2q35 3 64 19q10 11 10.5 19t-4 13.5t-12 10t-11.5 8.5q-8 5 -11.5 14t-7 17t-8.5 13.5t-17 4.5q-16 -1 -31.5 -5t-29.5 -11q-9 -9 -10.5 -16.5t1 -13.5t8 -10t10.5 -6zM318 863q11 -8 22.5 -17.5t11.5 -24.5q2 -11 8 -13.5 t11 -2.5q35 3 62 19q9 11 9 18q0 8 -4.5 14t-11.5 10.5t-11 8.5q-8 5 -11 14t-5.5 17t-7.5 13.5t-17 4.5q-30 -1 -62 -16q-10 -9 -12 -16t0.5 -12.5t7.5 -9.5t10 -7z" glyph-name="dieresis" unicode="¨" horiz-adv-x="485"/>
<glyph d="M60 265q14 -43 21.5 -87.5t19.5 -88.5q7 -27 22.5 -44.5t35 -28t41.5 -14t43 -2.5q71 1 139.5 20t129.5 55q45 31 74 60t43 65q9 28 8.5 53t-6.5 48t-16 43.5t-20 39.5q-23 49 -40.5 99.5t-33.5 101.5q-9 28 -24.5 50t-36 36t-44 20.5t-48.5 4.5q-78 -2 -151 -31 t-131 -81q-39 -38 -57.5 -76t-20.5 -76q1 -27 7.5 -49.5t15 -42t16.5 -38t13 -37.5zM144 261q-7 26 -18.5 51.5t-20 51.5t-11.5 52.5t8 54.5q32 71 92 107t125 38q48 1 78.5 -23.5t51 -60.5t36 -77t34.5 -74q14 -21 23.5 -46t11.5 -50.5t-4.5 -50.5t-24.5 -46 q-49 -53 -109.5 -76t-122.5 -24h-57q-22 4 -35.5 21t-24.5 34q-14 20 -17.5 44t-8.5 47q1 8 -2 14t-4 13zM214 231q13 -35 45.5 -56t70.5 -19q23 1 51.5 6.5t53 17t40 31t14.5 49.5q-7 17 -22 28.5t-33 12.5l-6 -1q-16 -23 -39 -40.5t-52 -20.5q-20 2 -38 12.5t-25 30.5 q-6 18 -14.5 40t-12 43.5t2 41t28.5 31.5q10 -5 19 -11t19 -11l12 -4l4 -2q9 2 14 8.5t11 12.5l-3 10l-1 6l-2 10l-1 4q-3 12 -7 26.5t-10 27.5t-15.5 22t-25.5 10q-42 -1 -75.5 -29t-47.5 -66q-8 -25 -7 -47.5t6.5 -43t14 -40t15.5 -38.5q1 -2 2 -5t2 -5q2 -5 2.5 -8.5 t2.5 -8.5q2 -6 3.5 -12.5t3.5 -12.5z" glyph-name="copyright" unicode="©" horiz-adv-x="632"/>
<glyph d="M338 381q-2 4 -5 6.5t-1 7.5q16 26 39 45.5t49 36.5q6 5 9.5 10.5t6.5 12.5q4 8 2 19t-13 12q-1 0 -2 -0.5t-2 -0.5q-12 0 -21 -4q-26 -12 -54.5 -24t-55 -27t-49.5 -33.5t-36 -44.5l6 -10l7 -8q34 -23 68.5 -45t62.5 -53q12 -11 19.5 -24t14 -24.5t14.5 -20.5t20 -13 q7 -1 13 0t13 1q23 8 40 26q7 9 6.5 19t-5.5 19t-13 16.5t-15 12.5q-35 28 -64.5 46.5t-53.5 41.5zM118 388q-2 4 -5 7t1 7q17 27 43 46.5t52 36.5q13 10 19 23q5 8 4 18.5t-12 12.5q-1 0 -2 -0.5t-2 -0.5q-6 0 -11.5 -1t-10.5 -3q-27 -13 -57 -25t-58 -26.5t-52 -33 t-39 -44.5q2 -5 4.5 -9.5t6.5 -8.5q35 -25 71 -46.5t66 -51.5q13 -11 21.5 -23.5t16.5 -24t17 -21t21 -13.5q7 -1 13.5 0t13.5 1q23 8 38 26q6 11 4 20.5t-8 18t-14.5 15.5t-16.5 13q-36 28 -68 45.5t-56 41.5z" glyph-name="guillemotleft" unicode="«" horiz-adv-x="470"/>
<glyph d="M954 173q24 13 44 32q20 15 23 39.5t-14 43.5q-18 22 -41.5 38.5t-49.5 28.5q-56 26 -119.5 22t-115.5 -36q24 -30 35 -65.5t10.5 -72.5t-12.5 -73t-34 -66q-8 -10 -12.5 -21.5t-0.5 -23.5q3 -10 8.5 -18.5t15.5 -13.5q10 -13 24.5 -10t27.5 5q50 11 97.5 26.5t92.5 40.5 q19 11 37 26.5t20 39.5q3 19 -8.5 34.5t-27.5 23.5zM575 78q-8 -18 -16 -35t-19 -33q-4 -6 -6.5 -15t7.5 -13q10 -5 20 -5.5t21 -0.5q10 0 18.5 4.5t15.5 11.5q31 34 48 76.5t19 87t-11 88t-41 80.5q-8 12 -20 19t-26 11q-27 5 -54 9t-55 6q-11 2 -22.5 -3t-6.5 -19 q11 -46 3.5 -89.5t-27 -83.5t-48 -75.5t-61.5 -64.5q-8 -8 -17 -18t-1 -23q5 -2 9 -6.5t9 -6.5q8 -5 17 -1t16 9q22 16 42.5 33.5t40.5 34.5q36 8 72.5 12.5t72.5 9.5zM620 719q5 5 9.5 13t-3.5 15q-14 16 -34 22q-11 5 -22 0t-19 -13q-38 -34 -68 -75t-46 -90 q-19 -2 -37.5 -3t-37.5 -3q13 35 32.5 67.5t45.5 58.5q5 6 8.5 14.5t-4.5 14.5q-15 15 -36 23q-11 5 -22 0t-19 -13q-32 -30 -57 -68t-38 -80.5t-12 -87t19 -86.5q5 -13 16 -20.5t24 -12.5q15 -6 30.5 -9t30.5 -7l11 -2l8 3l-5 9q-15 27 -27.5 55.5t-12.5 60.5q19 4 37 6 t37 5q3 -47 28 -89q9 -20 29 -28t40 -13q7 -2 13 -3t13 -3l11 -2l10 1l-2 9l-2 2q-29 39 -36.5 83.5t1.5 89t31.5 85t55.5 71.5zM671 739q-28 -28 -50 -62t-34.5 -72t-13 -77.5t14.5 -78.5q5 -13 16 -21.5t22 -16.5q13 -8 26 -14t27 -12q13 -5 26 -7.5t27 2.5q26 5 52 11.5 t52 12.5q2 1 4 1.5t4 1.5l-8 17q-8 10 -17.5 18t-18.5 17q-18 16 -41 13q-20 -1 -41 -3t-41 -7q-2 14 -4 27.5t-1 27.5q27 6 54.5 10.5t54.5 9.5q8 1 14 6.5t-1 13.5q-2 10 -6 18.5t-9 16.5q-5 9 -13.5 11.5t-17.5 1.5q-14 1 -28 -0.5t-28 -3.5q10 23 23 43.5t28 39.5 q30 4 60 7l60 6q9 1 17 6t11 13q4 8 6.5 16.5t4.5 17.5q5 9 -2.5 14t-15.5 3q-54 -3 -107 -10t-106 -18zM293 704q19 0 26 17l4 20t2 20q-2 7 -9 8.5t-13 1.5q-133 -6 -265 -24q-17 -2 -22 -17q-1 -11 -2.5 -22t3.5 -21q4 -9 13 -10t17 1q12 2 23.5 3.5t23.5 3.5 q-22 -27 -36 -59t-19 -65.5t0.5 -67.5t23.5 -65q10 -21 31 -29.5t41 -13.5q6 -2 12.5 -3t12.5 -3l22 -2l1 8l-2 3q-26 35 -35 76t-4 82.5t23.5 80.5t46.5 70q20 2 40.5 4t40.5 3zM261 6q9 1 18 5.5t12 14.5q6 16 6 35q-3 9 -10.5 12.5t-16.5 1.5q-23 -2 -45 -4t-44 -5 q21 26 36 56.5t22.5 63t6 66t-14.5 65.5q-4 11 -14 17t-20 11q-38 14 -76 21q-3 1 -6 1q-2 0 -5 1q-13 -7 -8 -14q22 -36 29.5 -76.5t3 -80.5t-20.5 -78.5t-43 -69.5q-6 -8 -9.5 -17.5t-1.5 -19.5q2 -7 5.5 -12.5t5.5 -13.5q8 -10 20 -8.5t23 3.5q37 8 73.5 12.5t73.5 12.5z M378 226q12 18 15 40t-1 43l-6 10l-3 6q-9 8 -19 16q-11 6 -23 11l-24 10q-3 2 -8 3.5t-10 1.5q-4 0 -6.5 -2t0.5 -8q11 -30 13 -61.5t-6 -62.5q-2 -8 3.5 -13.5t13.5 -6.5t16.5 -2t16.5 1q17 0 28 14zM831 205q2 20 -0.5 40.5t-4.5 40.5q20 11 44.5 16t45.5 -9 q6 -19 -1.5 -33t-21.5 -24.5t-31.5 -17.5t-30.5 -13zM504 143q23 32 37 70.5t14 78.5q37 -65 37 -140l-44 -4t-44 -5zM808 130q10 2 22.5 5.5t24.5 4.5t22.5 -2t18.5 -12q-10 -18 -25.5 -29t-34 -18.5t-38 -12.5t-37.5 -10q29 34 47 74z" glyph-name="logicalnot" unicode="¬" horiz-adv-x="949"/>
<glyph d="M48 294q23 -47 35 -96.5t29 -97.5q9 -29 25.5 -48.5t37.5 -31.5t45 -17t48 -3q80 2 155.5 29t138.5 76q35 27 55 61t26 69.5t-3 70t-32 63.5q-28 51 -46 105t-40 108q-10 31 -28.5 53.5t-42 37t-50 20t-53.5 3.5q-78 -2 -151 -33t-130 -85q-33 -33 -48 -70.5t-15.5 -75 t11.5 -73t33 -65.5zM138 277q-9 24 -20 48.5t-18 50t-7 50.5q0 26 12 52q16 33 39.5 58.5t51.5 43t59 26.5t62 10q51 2 84 -22.5t56.5 -62t42 -80t39.5 -76.5q14 -21 23 -45t11 -49t-4 -49.5t-22 -45.5q-45 -56 -103 -83.5t-119 -28.5q-34 -1 -68 9t-56 38q-13 21 -21.5 41 t-15.5 39.5t-13 38.5t-13 37zM231 177q6 -8 14.5 -14t18.5 -6q15 -1 25 10t11 25l2 20t3.5 18t8 12.5t14.5 4.5q16 -1 25.5 -10.5t18.5 -21.5t18.5 -21.5t25.5 -10.5q8 -2 13 3.5t9 11.5q-2 7 -1.5 14t-2.5 14q-4 20 -17.5 36t-21.5 36q-6 17 -4 34t4.5 34t3 34t-6.5 34 q-3 23 -14 44t-27.5 36t-38 23t-46.5 5q-18 2 -37 -3t-34 -16t-23.5 -27.5t-5.5 -37.5q0 -33 9.5 -64t21 -61t21.5 -61t10 -64q2 -8 1.5 -15.5t1.5 -15.5zM256 387q-5 7 -8 18.5t-2 22t7.5 17.5t19.5 6q12 0 23 -6t15 -18q3 -8 2.5 -18t-4 -19t-11 -15.5t-17.5 -6.5 q-9 -2 -15.5 4.5t-9.5 14.5z" glyph-name="registered" unicode="®" horiz-adv-x="640"/>
<glyph d="M34 849q9 -5 20.5 -8.5t21.5 -8.5t18 -12t10 -19h133q67 0 134 10q4 2 8 3.5t8 3.5q-4 14 -12.5 19.5t-18.5 9.5q-8 5 -17.5 10.5t-9.5 16.5q-1 8 -5 9.5t-8 2.5h-199q-20 0 -41 -3q-20 -5 -26 -6t-11 -3q-10 -11 -10 -17q0 -5 5 -8z" glyph-name="macron" unicode="¯" horiz-adv-x="409"/>
<glyph d="M232 647q-8 13 -13.5 30.5t-12.5 33.5t-18.5 26.5t-32.5 9.5q-34 0 -68 -12t-56 -40q-11 -19 -9.5 -35t7.5 -30.5l12 -29t3 -29.5q-4 -22 10.5 -39t37.5 -15q26 0 51.5 6.5t48.5 17.5q19 8 32 21t18.5 27.5t3.5 29.5t-14 28zM96 606q-4 14 -9.5 27t-2.5 27 q11 19 23.5 26.5t26.5 7.5q10 0 17 -5.5t12.5 -13t9 -16t8.5 -15.5q6 -11 10 -24.5t-7 -24.5q-15 -11 -27.5 -13.5t-23.5 -3.5q-4 1 -8 1h-8l-15 12z" glyph-name="degree" unicode="°" horiz-adv-x="259"/>
<glyph d="M250 308v-10t1 -10q-2 -14 6 -27t24 -12q15 -1 26.5 6t19.5 18t12 24.5t4 26.5q0 20 -4.5 37t-9.5 32t-9.5 29t-5.5 28q12 7 25 10t27 3.5t28 0.5t28 2q22 1 36 1.5t28 2.5q19 3 33 7.5t11 18.5q-3 12 -7 23.5t-6 24.5l-7 7q-8 0 -16.5 2t-17.5 2h-170l-8 6l-1 9 q-1 22 5.5 42t16.5 39t21.5 37t20.5 37q2 5 5 9.5t5 9.5q0 8 -6.5 13t-14.5 6q-20 -2 -37.5 -10.5t-32.5 -21.5t-27 -29.5t-21 -32.5q-15 -23 -23.5 -49t-10.5 -53q-6 -14 -17.5 -19.5t-25 -7t-28 -0.5t-26.5 0q-17 1 -37 1q-19 0 -34.5 -4.5t-23 -15t-1.5 -28.5 q8 -15 22.5 -22.5t30.5 -9.5h132q9 -1 15.5 -7t9.5 -14q2 -2 2.5 -4t2.5 -4q20 -27 24 -59.5t6 -64.5zM526 183q-1 2 -2 3.5t-2 3.5q-8 1 -15.5 2.5t-15.5 1.5q-30 -3 -59.5 -3.5t-59 0.5t-59.5 1q-29 0 -59 -2q-29 -7 -62 -2.5t-64.5 6t-59 -7.5t-45.5 -43q-9 -10 -3 -22 t20 -10h132q40 8 82.5 5.5t84.5 -4.5t83 1t78 22q8 11 13.5 23.5t12.5 24.5z" glyph-name="plusminus" unicode="±" horiz-adv-x="534"/>
<glyph d="M266 966q-12 10 -30 12q-15 0 -29.5 -6t-25.5 -16.5t-16.5 -24.5t-2.5 -30q2 -12 -1 -23t-7.5 -21.5t-10 -20.5t-8.5 -21q-5 -11 5.5 -15t18.5 -4q27 2 52.5 14.5t40.5 35.5q5 15 5 29t-0.5 27t-0.5 25t5 24q2 4 2.5 7.5t2.5 7.5z" glyph-name="acute" unicode="´" horiz-adv-x="356"/>
<glyph d="M345 701q-40 -2 -84 -11.5t-86.5 -26.5t-80 -41.5t-65 -57t-42.5 -72.5t-11 -88q6 -33 23 -63t41.5 -53.5t55.5 -37.5t66 -14q13 1 25 1q13 0 26 3q14 -63 8 -127.5t-31 -124.5q-6 -15 -9 -32q2 -17 11.5 -21t17.5 -2q21 4 37 16t28 28.5t19.5 36t12.5 38.5q16 48 14 95 t-12 93.5t-23.5 92.5t-21 92.5t-5 93.5t25.5 95q8 -1 15.5 0t15.5 2q11 -6 15.5 -11.5t6.5 -10.5q-20 -72 -17 -146t31 -143q28 -85 25 -162.5t-31 -146.5q-6 -15 -9 -32q2 -17 12 -21t18 -2q21 4 37 16t27 28.5t18.5 36t12.5 38.5q16 70 6.5 141t-38.5 136q-26 86 -22 164 t31 148q8 15 -3 27.5t-25 15.5q-21 5 -36.5 7.5t-29.5 1.5z" glyph-name="paragraph" unicode="¶" horiz-adv-x="456"/>
<glyph d="M17 387q6 -8 10 -18t8.5 -19.5t12 -15.5t20.5 -4q12 0 26.5 6t24.5 15t13 21.5t-7 26.5q-5 19 -18.5 35t-35.5 14q-11 0 -25 -4.5t-24 -12.5t-13 -19.5t8 -24.5z" glyph-name="periodcentered" unicode="·" horiz-adv-x="140"/>
<glyph d="M17 387q6 -8 10 -18t8.5 -19.5t12 -15.5t20.5 -4q12 0 26.5 6t24.5 15t13 21.5t-7 26.5q-5 19 -18.5 35t-35.5 14q-11 0 -25 -4.5t-24 -12.5t-13 -19.5t8 -24.5z" glyph-name="periodcentered" unicode="∙" horiz-adv-x="140"/>
<glyph d="M308 -69q2 15 0 30.5t0 30.5q-3 20 2 43q1 20 -8.5 26.5t-20.5 6.5q-16 0 -30 -7t-24 -19t-14.5 -27t-2.5 -31q1 -14 5 -26.5t5 -25.5q0 -10 -2 -19t-2 -19q-2 -12 -1 -26t17 -17q15 0 29 6.5t24.5 18t16.5 26t6 29.5z" glyph-name="cedilla" unicode="¸" horiz-adv-x="500"/>
<glyph d="M326 542q-2 23 -6.5 50t-15 50.5t-29.5 38t-50 12.5q-51 -1 -100 -20.5t-84 -57.5q-19 -23 -26.5 -47.5t-6.5 -49t9.5 -48t21.5 -42.5q18 -36 53 -58.5t75 -23.5q32 0 64.5 8t58.5 28q20 18 28.5 38t10 41t-0.5 41.5t-2 39.5zM80 471q-12 29 -5 58t25.5 52t45.5 37t56 14 q19 0 29.5 -9.5t16 -23.5t7.5 -30.5t5 -29.5q1 -21 0 -42t-9 -41q-19 -24 -42 -31t-46 -7q-8 -1 -14.5 0t-14.5 1q-10 5 -18.5 12t-18.5 12q-5 7 -10 13.5t-7 14.5zM25 258q-10 -17 1.5 -30t26.5 -18q69 1 138 0t138 10q11 5 20.5 14t14.5 21q4 9 0.5 16.5t-10 13t-15.5 8 t-17 1.5h-224q-21 2 -43 -6t-30 -30z" glyph-name="ordmasculine" unicode="º" horiz-adv-x="360"/>
<glyph d="M123 380q15 -14 18.5 -34.5t-12.5 -36.5q-23 -26 -43.5 -44.5t-37.5 -38.5q-4 -5 -8 -12.5t2 -13.5q6 1 12 0t12 -1q41 8 77.5 27t68.5 43q28 25 39 55t-7 56l-10 10l-5 8q-21 15 -44.5 28.5t-45.5 28t-42.5 31.5t-35.5 40q-10 4 -15 4h-1q0 1 -1 1q-34 -6 -57 -31 q-2 -5 -4.5 -11.5t2.5 -11.5q26 -26 58 -46t64 -37l7.5 -7.5t8.5 -6.5zM329 389q13 -15 18.5 -35t-8.5 -37q-21 -26 -39.5 -44t-32.5 -39q-3 -6 -7.5 -13.5t3.5 -12.5q6 1 12 0t12 -1q39 8 74 26.5t65 43.5q27 26 33 55.5t-9 55.5q-4 5 -7 9t-6 9q-20 15 -42 28.5t-43 28.5 t-39.5 32t-31.5 39q-7 4 -15 4h-1q0 1 -1 1q-17 -3 -32.5 -10.5t-27.5 -20.5q-2 -5 -5 -11.5t0 -11.5q25 -26 54.5 -45.5t61.5 -36.5z" glyph-name="guillemotright" unicode="»" horiz-adv-x="470"/>
<glyph d="M181 34q9 47 38.5 82.5t62.5 67.5q16 17 34.5 31t34.5 28.5t26.5 30.5t11.5 37q-11 26 -18.5 53t-11.5 55q-1 15 -14 19t-25 3q-19 3 -36 -9t-14 -33q2 -29 -4 -51.5t-22 -37.5q-30 -33 -60 -67t-56 -70.5t-45.5 -76.5t-27.5 -86q-5 -26 -5.5 -52.5t15.5 -49.5 q26 -23 52.5 -29t51.5 -6q61 4 120 17t118 30q32 12 64 23.5t59.5 25.5t48.5 33t31 47q3 15 -2.5 29t-19.5 21q-7 1 -14 1.5t-14 0.5q-42 -6 -78 -26.5t-72 -42.5t-73.5 -38t-82.5 -13q-6 1 -12 1h-11h-22q-17 5 -24 20.5t-4 31.5zM412 640q4 10 6.5 20t-2.5 20 q-11 8 -19 10.5t-16 2.5q-33 -2 -65 -17t-46 -47q-4 -11 -1 -21.5t10.5 -19t17.5 -13.5t21 -5q32 0 56 22t38 48z" glyph-name="questiondown" unicode="¿" horiz-adv-x="564"/>
<glyph d="M434 27q-1 -11 7 -20t19 -7q20 2 34.5 16t21.5 31q26 62 36 128t8 133q-18 63 -42 122.5t-50 119.5q-14 39 -23.5 66t-17.5 52q-7 18 -13.5 34.5t-14 30t-18 22t-25.5 10.5q-49 -7 -86 -36t-61.5 -70t-38 -88.5t-15.5 -92.5q1 -59 -13.5 -116t-35.5 -111q-16 -9 -30 -23 t-14 -34q-2 -23 -6.5 -46.5t-7.5 -46.5q-2 -15 -5 -30.5t-3.5 -29t4.5 -23.5t19 -13q23 1 37.5 10.5t24.5 24.5t17 33l14 36t16 34t23 27q44 22 92 28t96 6h53q10 -2 16.5 -8.5t9.5 -15.5t3 -19q0 -9 -1 -18q-2 -14 -4.5 -28.5t-6.5 -28.5q-4 -15 -8.5 -30t-10.5 -29z M324 586q53 -45 79 -110t33 -132q2 -6 2 -12v-11q-21 -13 -44 -19.5t-47.5 -9t-49 -3.5t-48.5 -3q6 37 8.5 77.5t8 80t18.5 76t40 66.5zM389 808q1 4 2 7.5t1 7.5q1 21 0 46.5t-8.5 49t-22.5 40t-42 19.5q-12 0 -23.5 -4t-17.5 -15q-5 -12 -3.5 -23t6 -21.5t10 -21 t7.5 -21.5q0 -12 2.5 -26t8.5 -25.5t16 -18.5t26 -6q11 0 20.5 3.5t17.5 8.5z" glyph-name="Agrave" unicode="À" horiz-adv-x="526"/>
<glyph d="M435 27q-2 -11 6 -20t19 -7q20 2 34.5 16t21.5 31q26 62 36.5 128t7.5 133q-18 63 -42 123t-50 120q-14 39 -23.5 66t-17.5 53q-7 18 -13.5 34.5t-14 30t-18 22t-25.5 10.5q-49 -8 -86 -37t-61.5 -70t-38 -89t-15.5 -93q-1 -59 -14 -116t-35 -111q-16 -9 -30 -23t-14 -34 q-2 -23 -6.5 -46.5t-7.5 -46.5q-1 -15 -4 -30.5t-3.5 -29t4 -23.5t18.5 -13q23 1 37.5 10.5t24.5 24.5t17 33l14 36t16 34t23 27q44 22 92 28t96 6h53q10 -2 16.5 -8.5t9.5 -15.5t3 -19q0 -9 -1 -18q-2 -14 -4.5 -28.5t-6.5 -28.5q-4 -15 -8.5 -29.5t-9.5 -29.5zM324 587 q53 -45 79 -110.5t33 -132.5q2 -6 2 -12v-11q-21 -13 -44 -19.5t-47.5 -9t-49 -3.5t-48.5 -3q6 37 8.5 77.5t8 80.5t18.5 76.5t40 66.5zM453 966q-7 6 -15.5 8.5t-17.5 3.5q-17 0 -30.5 -6.5t-24.5 -18t-19.5 -25t-15.5 -26.5q-7 -11 -17 -21l-19.5 -19.5t-16.5 -20.5 t-9 -25q0 -12 11.5 -15t20.5 -4q29 4 51.5 19.5t40.5 37.5t31.5 47.5t24.5 49.5q2 4 2.5 7.5t2.5 7.5z" glyph-name="Aacute" unicode="Á" horiz-adv-x="526"/>
<glyph d="M435 27q-2 -11 6 -20t19 -7q20 2 34.5 16t22.5 31q24 63 35.5 128.5t6.5 132.5q-18 63 -43.5 123t-50.5 120q-14 38 -23 65t-16 53q-7 18 -12.5 34.5t-13 30t-18 22t-25.5 10.5q-50 -8 -87 -37t-62.5 -69.5t-39.5 -88.5t-17 -93q1 -59 -11.5 -116t-33.5 -111 q-17 -9 -30 -23t-14 -34q-2 -23 -5.5 -46.5t-8.5 -46.5q-1 -15 -4 -30.5t-3.5 -29t4 -23.5t18.5 -13q34 1 51 21t28 46.5t21.5 53.5t31.5 44q44 22 92 28t96 6h53q21 -5 27 -24t1 -37q-2 -14 -4.5 -28.5t-5.5 -28.5q-5 -15 -9.5 -29.5t-9.5 -29.5zM321 586 q26 -22 45.5 -50.5t33 -60t22 -65t13.5 -66.5q1 -6 1.5 -11.5t0.5 -11.5q-21 -14 -44 -20t-47.5 -8.5t-49 -3.5t-48.5 -3q6 37 7.5 77.5t6.5 80t17.5 76t41.5 66.5zM362 880q2 -1 3.5 -1.5t3.5 -1.5q8 -18 16.5 -36t17.5 -35q7 -4 14 -2.5t14 0.5q7 8 13.5 17.5t6.5 20.5 q-9 20 -17 39t-13 40q-5 10 -9.5 20t-13.5 17h-10q-26 -16 -50.5 -32t-48.5 -34q-14 -10 -29 -22t-17 -32q-1 -4 -1.5 -8t-1.5 -8l3 -9l10 -4h1q16 4 28.5 15t24.5 22.5t25 21.5t30 12z" glyph-name="Acircumflex" unicode="Â" horiz-adv-x="526"/>
<glyph d="M360 21q-2 -12 2 -19l28 -2q20 0 35.5 9t27.5 23.5t20 32t13 34.5q9 30 10 61t3 62v8q0 7 2 13.5t1 13.5v9q11 8 21 18t6 25q-1 13 -7.5 22t-15 17.5t-18 16t-15.5 17.5q-14 37 -32.5 71t-31.5 72l-10 30t-7 31q-6 23 -10.5 52t-14.5 55t-27.5 44.5t-49.5 20.5 q-21 -3 -39 -11.5t-34.5 -21.5t-31.5 -27.5t-28 -29.5q-51 -48 -71.5 -114t-10.5 -134q3 -82 -2 -153t-21 -138q-2 -11 -4.5 -22.5t-4.5 -22.5q-4 -22 6 -34t24 -10q14 -1 26.5 5t23.5 16q4 5 5.5 11t3.5 12q7 23 12 46.5t10 46.5q2 13 7.5 24.5t19.5 15.5q47 7 93.5 11.5 t94.5 4.5q7 -2 13 -1t13 -1q4 -10 6 -14q0 -3 -0.5 -6.5t-0.5 -6.5q1 -17 -0.5 -32.5t-3.5 -32.5q-2 -12 -5 -24t-5 -24q-3 -15 -10 -27q-3 -11 -7 -21.5t-9 -21.5zM175 331q6 36 7 77.5t8.5 81.5t25.5 73t57 51q12 -7 20 -18t13 -24.5t9.5 -27.5t10.5 -26q14 -40 27.5 -72 t20.5 -64l3 -9v-8t2 -8q1 -6 2 -11.5t2 -11.5q-13 -15 -30 -22t-36 -9.5t-39 -2.5t-38 -1h-23q-15 -1 -27.5 7.5t-14.5 24.5zM148 820q-1 -3 -1 -6q0 -2 -1 -5l4 -9h3q15 3 27.5 11.5t25.5 17t26 15.5t29 8q13 -1 22 -9t17.5 -16.5t18 -15.5t23.5 -7q19 1 35 9t28.5 20.5 t22 28.5t15.5 33q2 7 6 16.5t-7 13.5q-12 -5 -20.5 -14t-17.5 -18.5t-19 -17t-23 -8.5q-11 1 -18 8t-13 15t-13 15.5t-17 9.5q-5 1 -9 1h-9q-21 -2 -43 -8.5t-40.5 -18.5t-32 -29.5t-19.5 -39.5z" glyph-name="Atilde" unicode="Ã"/>
<glyph d="M436 27q-2 -11 5.5 -20t18.5 -7q20 2 35.5 15.5t23.5 31.5q27 62 38 128t5 133q-10 31 -23.5 61.5t-27.5 60.5t-28 59.5t-26 60.5q-13 39 -21.5 66t-15.5 53q-6 18 -11 34.5t-11.5 30t-16.5 22.5t-25 10q-50 -8 -88.5 -36.5t-65.5 -69t-42 -88.5t-16 -94q5 -58 -4 -115.5 t-30 -111.5q-15 -10 -29.5 -23.5t-13.5 -33.5q-5 -47 -15 -93q-2 -14 -5.5 -29.5t-4 -29t3 -23.5t17.5 -14q34 1 52 21t30 46t23 53.5t32 44.5q44 22 92 28t96 6h53q21 -5 26 -24t2 -37q-5 -29 -12 -57q-10 -32 -21 -59zM314 586q51 -47 79.5 -111.5t41.5 -130.5q2 -5 3 -11 t1 -12q-20 -14 -43 -20t-47 -8.5t-49 -3.5t-48 -3q4 37 3 78t2 80.5t15 76t42 65.5zM241 860q-6 -10 -5 -21t6.5 -19.5t15 -13.5t21.5 -3q28 4 49.5 24t32.5 45q6 10 4.5 19.5t-8.5 16.5t-16.5 10.5t-19.5 2.5q-27 -2 -49 -18.5t-31 -42.5zM415 861q-6 -10 -5.5 -21t6 -19.5 t15 -13.5t21.5 -3q29 3 50 24t33 45q6 10 4 19.5t-8.5 16.5t-16.5 10.5t-20 2.5q-27 -1 -48.5 -18.5t-30.5 -42.5z" glyph-name="Adieresis" unicode="Ä" horiz-adv-x="543"/>
<glyph d="M434 27q-2 -11 6.5 -20t19.5 -7q20 2 34.5 16t21.5 31q48 125 45 261q-17 63 -37 123.5t-49 118.5q-15 39 -25 66t-20 52q-8 18 -14.5 35t-15 30t-19.5 21.5t-26 10.5q-49 -8 -84.5 -37t-59 -70t-35 -88.5t-13.5 -91.5q-3 -59 -19 -116t-38 -111q-16 -9 -30.5 -23 t-14.5 -34q-2 -23 -7 -46.5t-7 -46.5q-2 -15 -4.5 -30.5t-2.5 -29.5q0 -13 4.5 -23t18.5 -13q34 2 51 22t27.5 46.5t21 53.5t31.5 43q44 22 92 28t96 6h53q21 -5 26 -24t2 -37q-2 -14 -4.5 -28.5t-6.5 -28.5q-8 -32 -18 -59zM330 586q27 -21 47 -49t32.5 -60t19.5 -66t9 -67 q2 -6 2 -12v-11q-21 -13 -44 -19.5t-48 -9t-49.5 -3.5t-48.5 -3q1 36 7.5 71.5t12.5 70.5q5 24 9 46.5t10 42.5t15.5 37.5t25.5 31.5zM484 920q6 16 5 34t-8 33.5t-21 25t-34 7.5q-31 -1 -59 -14t-50.5 -34t-38 -48t-21.5 -56q-5 -15 -1.5 -29t12 -25.5t22 -18t28.5 -5.5 q29 0 56 10t49 27.5t38 41.5t23 51zM316 879q11 31 34.5 58t58.5 30q10 0 15.5 -5t7.5 -12.5t1 -16.5t-2 -16q-8 -29 -33 -48.5t-56 -17.5q-8 -1 -14.5 3.5t-12.5 9.5q0 4 0.5 7.5t0.5 7.5z" glyph-name="Aring" unicode="Å" horiz-adv-x="526"/>
<glyph d="M448 27q-7 -8 -3 -18.5t16 -8.5q17 0 33.5 2.5t33.5 1.5q56 3 109.5 16.5t106.5 30.5q31 12 61 24t55.5 26.5t45 34t28.5 47.5q2 19 -13 30t-32 9q-34 -5 -62 -24t-55 -40t-56 -37.5t-66 -16.5q-20 -2 -37.5 9.5t-26.5 29.5q13 40 8 82t-23 79q6 20 19.5 33.5t31 23.5 t36.5 16t37 11q26 7 45.5 10.5t36.5 9.5q12 4 22.5 9.5t17 12t8.5 15t-3 18.5q-12 23 -35 37t-49 15q-28 1 -54 -5.5t-52 -14.5t-52.5 -15t-53.5 -7q-8 -1 -17 0.5t-15 8.5q-1 2 -1 3q0 2 -1 4q-2 6 -4 11.5t-4 10.5v9q-6 24 0.5 44.5t21.5 36t36 26t42 13.5q51 9 95.5 8 t88.5 -3q30 7 48 36q2 8 6 16.5t2 17.5q-7 14 -15.5 18t-17.5 6q-32 5 -57.5 3.5t-50.5 -1.5q-67 1 -135 -1t-131 -28q2 7 4 16t1.5 17.5t-5 14.5t-15.5 6q-54 -9 -107.5 -33.5t-97.5 -61.5t-73.5 -86t-34.5 -107q0 -30 9.5 -57.5t19.5 -55t16.5 -56t0.5 -58.5 q-15 -9 -25.5 -23.5t-8.5 -33.5q0 -24 -5 -47t-13 -46q-8 -20 -13.5 -33t-10.5 -24q-7 -17 -6 -28t12 -11q36 1 59.5 19t41.5 43.5t33.5 53.5t35.5 49q43 22 90.5 28t95.5 6h54q21 -4 27.5 -23.5t1.5 -37.5q-2 -15 -7 -29t-11 -28q-16 -29 -38 -59zM272 586q22 -28 39 -59.5 t34.5 -63.5t36.5 -62.5t45 -56.5l7 -11l6 -10l1 -2q-18 -14 -39 -20.5t-44 -9t-46.5 -3t-45.5 -2.5q-11 37 -29 70.5t-28 71.5q-8 51 9.5 93t53.5 65z" glyph-name="AE" unicode="Æ" horiz-adv-x="875"/>
<glyph d="M286 -71q8 15 16.5 30t15.5 31q1 4 1.5 7t0.5 7q38 5 74.5 16.5t72.5 24.5l41 20.5t37.5 23.5t27 29.5t10.5 38.5q-2 15 -13.5 25t-26.5 10q-34 -6 -63.5 -24.5t-58.5 -37t-60.5 -32t-68.5 -10.5q-32 -4 -56 9t-40.5 35t-26.5 49.5t-15 53.5q-21 56 -18.5 120t26.5 121 t67.5 100.5t104.5 59.5q8 1 15.5 -3.5t5.5 -12.5q-1 -7 -3 -13t-2 -13q-2 -11 -2.5 -24t2.5 -24.5t11 -20t23 -8.5q20 0 34 10.5t24 25.5t16 33t10 34q3 14 7 28t5 28q3 21 0.5 36t-16.5 19q-69 12 -135.5 -4t-123 -52.5t-100 -90t-66.5 -116t-22.5 -130.5t31.5 -134 q6 -35 20 -69t35.5 -62t51.5 -47t69 -22q-1 -6 -3 -11.5t-3 -10.5q-4 -14 -9.5 -26.5t-10.5 -25.5q-5 -9 -10.5 -18.5t-9.5 -19.5q-2 -6 -4 -12.5t-2 -12.5t3.5 -11t11.5 -7q35 2 59.5 27t39.5 53z" glyph-name="Ccedilla" unicode="Ç" horiz-adv-x="549"/>
<glyph d="M58 152q-6 -26 0.5 -53t22.5 -49t39.5 -36t51.5 -14q51 2 100.5 16t97.5 31q28 13 55.5 25.5t51 27.5t41 34t25.5 45q4 18 -9.5 29.5t-30.5 9.5q-35 -3 -63.5 -21.5t-55.5 -40t-56 -39t-65 -17.5q-23 -1 -39.5 9.5t-27 28t-14.5 38.5t-1 40q1 32 15 58.5t36 46.5t50 33 t57 19q42 11 72 17t59 13q29 8 50 20t16 36q-11 24 -35 37.5t-50 14.5q-27 1 -53 -5.5t-52 -15t-52 -15t-53 -6.5q-8 -1 -17 0.5t-15 8.5q-1 2 -1.5 3.5t-1.5 3.5q-1 6 -3.5 11.5t-4.5 10.5q-1 2 -1 4q0 3 -1 5q-8 19 -7 39.5t10.5 37.5t25.5 29t38 14q50 10 94 8.5t88 -3.5 q12 4 21 13t8 23q-5 30 -24.5 43t-45 16.5t-53 2t-49.5 -1.5q-36 1 -72 1t-72 -2q-21 -3 -43 -7t-40 -12.5t-30 -22t-13 -34.5q3 -34 17 -64.5t22 -63.5q18 -47 22.5 -94.5t0 -95.5t-14.5 -96t-21 -94zM351 807l3 15q1 21 0 46.5t-8 48.5t-22 39.5t-42 19.5q-11 -1 -23 -4.5 t-18 -14.5q-6 -12 -4.5 -22.5t6 -21t10 -21t7.5 -21.5q0 -12 2 -26t8 -25.5t16 -18.5t26 -6q11 0 20.5 3.5t18.5 8.5z" glyph-name="Egrave" unicode="È" horiz-adv-x="533"/>
<glyph d="M59 152q-7 -26 -0.5 -53t22 -49t39.5 -36t52 -14q51 2 100.5 16t97.5 31q28 13 55.5 25.5t51 27.5t41 34t25.5 45q4 18 -9.5 29.5t-30.5 9.5q-35 -3 -63.5 -21.5t-55.5 -40t-56 -39t-65 -17.5q-23 -1 -39.5 10t-27 28t-14.5 38t-1 40q1 32 14.5 58.5t36 46.5t50.5 33 t57 19q41 11 71 17t59 13q14 4 27 9t23 11.5t14.5 15t0.5 20.5q-11 23 -34.5 36.5t-49.5 15.5q-27 1 -53.5 -5.5t-52 -15t-52 -15t-53.5 -6.5q-8 0 -16.5 1t-14.5 8q-1 2 -1.5 3.5t-1.5 3.5q-3 11 -9 22q0 2 -0.5 4.5t-0.5 4.5q-9 19 -7.5 39.5t11 37.5t26 29t37.5 14 q51 10 95 8.5t87 -3.5q13 3 21.5 12.5t7.5 23.5q1 26 -19 41t-43 17q-32 5 -58 3.5t-51 -1.5q-36 1 -72 1t-72 -2q-21 -3 -43 -7t-40 -12.5t-30 -22t-13 -34.5q2 -34 16.5 -64.5t21.5 -63.5q18 -47 22.5 -94.5t0.5 -95.5t-14 -96t-20 -94zM411 956q-12 10 -32 12 q-17 0 -30.5 -6.5t-24.5 -18t-20 -25t-16 -26.5q-7 -11 -17 -20.5t-19.5 -19.5t-16.5 -21t-9 -25q-1 -12 10.5 -15t20.5 -4q29 4 52 19.5t41 37.5t31.5 47.5t25.5 49.5q2 10 4 15z" glyph-name="Eacute" unicode="É" horiz-adv-x="533"/>
<glyph d="M59 152q-6 -26 0.5 -53t22 -49t39 -36t51.5 -14q52 2 101.5 16t97.5 31q28 13 55.5 25.5t51 27.5t41 34t25.5 45q4 18 -9.5 29.5t-30.5 9.5q-35 -3 -63.5 -21.5t-55.5 -40t-56 -39t-65 -17.5q-23 -1 -39.5 10t-27 28t-14.5 38t-2 40q0 32 13.5 58.5t35 46.5t49 33 t56.5 19q42 11 71.5 17t58.5 13q13 4 26.5 9t23 11.5t13.5 15t0 20.5q-11 23 -34.5 36.5t-49.5 15.5q-27 1 -53.5 -5.5t-52 -14.5t-52 -15t-53.5 -7q-8 -1 -17 0.5t-15 8.5q-1 2 -1.5 3.5t-1.5 3.5q-2 6 -4 11.5t-4 10.5q0 2 -0.5 4.5t-0.5 4.5q-9 19 -7 39.5t12 37.5 t27 28.5t38 13.5q51 10 95 8t88 -3q28 8 30 36q1 26 -18 41t-42 17q-32 5 -58 3.5t-51 -1.5q-36 1 -72 1t-72 -2q-21 -3 -43.5 -7t-41 -12t-31 -21.5t-13.5 -35.5q0 -17 4 -33t10 -31.5t11.5 -31t8.5 -31.5q18 -47 23.5 -94.5t3 -95.5t-11 -96t-20.5 -94zM317 858l6 -3 l16 -36t18 -35q7 -4 14 -3t14 1q7 8 13 17t8 20q-19 37 -30 80q-5 10 -9.5 19.5t-12.5 17.5h-10q-26 -15 -51 -32l-50 -34q-15 -10 -29.5 -22.5t-16.5 -32.5l-3 -15q0 -6 4.5 -9t9.5 -4q16 4 29 14.5t25 22.5t25 22t30 12z" glyph-name="Ecircumflex" unicode="Ê" horiz-adv-x="533"/>
<glyph d="M60 152q-6 -26 0 -53t21.5 -49t39 -36t51.5 -14q52 2 101.5 16t97.5 31q28 12 55.5 24.5t51 28t41 34.5t25.5 45q4 18 -9.5 30t-30.5 9q-35 -3 -63.5 -21.5t-55.5 -40t-56 -39t-65 -17.5q-22 -1 -39 10t-27.5 28t-14.5 38t-1 40q-1 32 12 58.5t34.5 47t49 33.5t56.5 19 q40 11 70 17t58 13q14 4 27 9t22.5 11.5t13 15t-0.5 20.5q-11 23 -34.5 37t-49.5 15q-27 0 -53.5 -6.5t-52 -14.5t-52 -15t-53.5 -7h-11l-11 2l-10 7l-2 7q-1 6 -3.5 11.5t-4.5 10.5l-1 9q-8 20 -6 40.5t12.5 37.5t27.5 28.5t38 13.5q51 10 95 8.5t87 -3.5q13 3 22.5 12.5 t8.5 23.5q3 26 -16 41t-42 17q-32 5 -58 3.5t-51 -1.5q-36 1 -72 1t-72 -2q-21 -3 -43.5 -7t-41.5 -12t-31.5 -21.5t-14.5 -35.5q1 -34 13.5 -65t18.5 -63q17 -47 23.5 -94.5t5 -95.5t-9.5 -95.5t-20 -94.5zM164 858q-6 -10 -5.5 -21t6 -20t15.5 -14t22 -3q28 4 49 24.5 t32 45.5q6 10 4 19.5t-8.5 16.5t-16.5 10.5t-20 2.5q-26 -2 -48 -18.5t-30 -42.5zM337 859q-6 -10 -5 -21t6.5 -20t15 -14t21.5 -3q28 4 49.5 24.5t32.5 45.5q6 10 4 20t-9 16.5t-17 10t-20 2.5q-27 -2 -48.5 -19t-29.5 -42z" glyph-name="Edieresis" unicode="Ë" horiz-adv-x="533"/>
<glyph d="M39 49q-4 -14 1.5 -23.5t16 -15.5t23.5 -8t24 -2q47 6 95 11t96 13t94 20.5t88 33.5q4 11 1.5 20t-9.5 15.5t-16.5 10.5t-19.5 5q-30 3 -51.5 2t-41.5 -1q-12 7 -12 19q1 8 3.5 16t3.5 16q1 11 2.5 22.5t0.5 22.5q1 12 1.5 23.5t1.5 23.5v30q1 48 -9 95t-21.5 94t-19 94 t-0.5 96q2 9 9 11.5t15 1.5q22 1 42.5 -3.5t42.5 -3.5q7 -1 13 0t13 1q11 2 14 11.5t2 18.5q1 26 -18 42.5t-42 22.5q-6 1 -13 1h-12q-7 -1 -13.5 0t-13.5 1q-8 1 -15.5 -0.5t-15.5 -0.5h-11t-11 -1q-29 -3 -58.5 -9t-58.5 -12q-26 -5 -53 -5t-53 -4q-17 -2 -33 -7 t-28 -12.5t-19 -18.5t-6 -26q2 -13 10 -22.5t19 -15.5t23.5 -9t24.5 -3q24 0 47 8.5t47 9.5q5 -1 9 -1t8 -2q2 -4 3.5 -7.5t4.5 -6.5q13 -65 29.5 -130t27 -131t9.5 -132t-23 -132q-13 -24 -36.5 -27t-49.5 -3q-25 0 -48 -5t-34 -32zM266 842q1 4 2 7.5t1 7.5q1 21 -0.5 47 t-9.5 49t-23.5 39.5t-42.5 19.5q-11 0 -23 -4t-17 -15q-5 -12 -3 -22.5t6.5 -21t10.5 -21t8 -21.5q0 -12 2 -26t8 -26t16.5 -19t26.5 -6q11 0 20.5 3.5t17.5 8.5z" glyph-name="Igrave" unicode="Ì" horiz-adv-x="494"/>
<glyph d="M39 49q-4 -14 1.5 -23.5t16 -15.5t23.5 -8t24 -2q47 6 95 11t96 13t94 20.5t88 33.5q4 11 1.5 20.5t-9.5 16t-17 10.5t-20 4q-29 3 -50.5 2t-41.5 -1q-12 7 -12 19q1 8 3.5 16t3.5 16q1 11 2.5 22.5t0.5 22.5q1 12 1.5 23.5t1.5 23.5v30q1 48 -9 95t-21.5 93.5t-19 93.5 t-0.5 96q2 8 9 11t15 2q22 1 43 -3.5t43 -3.5q7 -1 13 0t13 1q9 3 13 12t2 18q1 13 -4 23.5t-14 19t-20 14t-22 8.5q-7 1 -13 1h-13q-7 -1 -13.5 0t-13.5 1q-8 1 -15.5 -0.5t-15.5 -0.5h-11q-5 0 -10 -1q-29 -3 -58.5 -9t-58.5 -12q-26 -5 -53 -5t-53 -4q-17 -2 -33 -7 t-28 -12.5t-19 -18.5t-6 -26q2 -13 10 -22.5t19.5 -15.5t24 -9t24.5 -3q24 1 47 9t47 9q5 -1 9 -1t8 -2q4 -10 7 -14q14 -64 30.5 -129t26.5 -131t8.5 -132t-22.5 -132q-13 -24 -36.5 -27t-49.5 -3q-25 0 -48 -5t-34 -32zM345 1002q-7 6 -15.5 8.5t-17.5 3.5 q-17 0 -30.5 -6.5t-24.5 -18t-19.5 -25t-14.5 -26.5q-8 -11 -17.5 -20.5t-18.5 -20t-16 -21.5t-9 -25q1 -12 11.5 -15t20.5 -4q29 4 52 19.5t40.5 37.5t30.5 48t24 50q2 10 4 15z" glyph-name="Iacute" unicode="Í" horiz-adv-x="494"/>
<glyph d="M39 49q-4 -14 2 -23.5t16.5 -15.5t23 -8t23.5 -2q47 6 95 11t96 13t94 20.5t89 33.5q8 22 -8.5 36t-36.5 15q-29 3 -51 2t-42 -1q-6 2 -8.5 7.5t-2.5 11.5q2 8 3.5 16t3.5 16q2 11 2 22q0 12 1 23q-1 12 0.5 24t0.5 23q2 8 0.5 15t-0.5 15q0 48 -11.5 95l-23 94t-18.5 94 t2 96q2 8 9 11t15 2q22 1 43 -3.5t43 -3.5q7 -1 13 0t13 1q10 3 14 12t2 18q2 26 -16 42.5t-41 22.5q-7 1 -13 1h-13q-7 -1 -13.5 0t-13.5 1q-8 1 -15.5 -0.5t-15.5 -0.5h-11q-5 0 -10 -1q-30 -3 -59.5 -9t-58.5 -12q-26 -5 -54 -5q-27 0 -53 -4q-17 -3 -33 -7.5t-28.5 -12 t-19.5 -18.5t-7 -26q2 -13 9.5 -22.5t18.5 -15.5t23.5 -9t24.5 -3q25 0 47.5 8.5t47.5 9.5q5 -1 9 -1t8 -2q4 -10 7 -14q11 -65 28 -130t28.5 -131t12 -132t-21.5 -132q-9 -16 -22.5 -22t-30 -7.5t-33.5 -0.5t-33 -1.5t-29 -10t-21 -25.5zM250 904l6 -3q8 -18 17 -35.5 t20 -34.5q7 -4 13.5 -2.5t13.5 0.5q8 8 13.5 17t7.5 20q-11 19 -18.5 39t-14.5 40q-5 10 -10 19.5t-14 17.5h-10q-53 -31 -98 -66q-15 -10 -29.5 -22t-16.5 -32q-2 -10 -2 -15q1 -11 13 -13q16 4 28.5 14.5t24.5 22.5t25.5 21.5t30.5 11.5z" glyph-name="Icircumflex" unicode="Î" horiz-adv-x="494"/>
<glyph d="M40 49q-5 -14 0.5 -23.5t16 -15.5t23.5 -8t24 -2q47 6 95 11t96 13t94 20.5t89 33.5q4 11 1.5 20t-9.5 16t-16.5 11t-19.5 4q-30 3 -51.5 2t-41.5 -1q-6 2 -8 7.5t-4 11.5l4 16t3 16q2 11 2 22q0 12 1 23q-1 12 0 23.5t1 23.5q1 8 -0.5 15t-0.5 15q-1 48 -13.5 95 t-24.5 93.5t-18 94t5 96.5q2 8 9 11t15 2q22 1 43 -3.5t43 -3.5q7 -1 13 0t13 1q10 3 14 12t3 18q2 26 -15 42.5t-40 22.5q-7 1 -13 1h-13q-7 -1 -13.5 0t-13.5 1q-8 1 -15.5 -0.5t-15.5 -0.5h-11q-5 0 -10 -1q-30 -3 -60 -9t-59 -12q-26 -5 -54 -5q-27 0 -53 -4 q-17 -3 -33 -7.5t-29 -12t-20.5 -18.5t-7.5 -26q1 -13 8.5 -22.5t18.5 -15.5t23.5 -9t24.5 -3q25 1 47.5 9t47.5 9q5 -1 9 -1t8 -2q2 -4 3 -7.5t3 -6.5q8 -65 25.5 -130.5t31 -130.5t15 -131t-21.5 -133q-13 -24 -36.5 -27t-49.5 -3q-25 0 -47.5 -5t-34.5 -32zM102 894 q-5 -11 -4 -21.5t6.5 -19.5t15 -14t21.5 -3q28 4 48.5 24.5t31.5 45.5q6 10 3.5 20t-9.5 16.5t-17 10t-20 2.5q-26 -1 -47 -18.5t-29 -42.5zM275 895q-5 -11 -4 -22t7 -19.5t16 -13.5t22 -3q28 4 48.5 25t31.5 45q6 10 3.5 20t-9.5 16.5t-17.5 10t-20.5 2.5 q-26 -2 -47.5 -18.5t-29.5 -42.5z" glyph-name="Idieresis" unicode="Ï" horiz-adv-x="494"/>
<glyph d="M-47 371q12 -21 34 -31.5t44 -17.5h18q8 -18 12.5 -36.5t8.5 -38.5q2 -8 2.5 -16.5t2.5 -16.5v-40q1 -8 0 -17t-3 -17q-1 -5 -1.5 -9t-2.5 -9q-5 -23 -14 -46t-11 -47q9 -13 20.5 -18.5t24.5 -7.5t25 -2q13 0 25 -1q76 1 149.5 23t139.5 59q37 21 68 49.5t50.5 61.5 t23 69t-14.5 72q-38 62 -71 125.5t-63 129.5q-31 71 -87.5 109.5t-122.5 33.5h-63q-31 -9 -62 -19t-53 -36q-29 -60 -36 -128t13 -132h-16q-10 1 -19.5 -2t-16 -9.5t-8.5 -15.5t4 -19zM174 200q0 32 -7 63t-18 60q43 2 85 7.5t84 13.5q8 8 5.5 17.5t-7.5 17.5 q-11 19 -31.5 28.5t-41.5 10.5q-33 0 -66.5 -0.5t-66.5 -0.5q-11 41 -9.5 82.5t14.5 81.5q11 14 27.5 22t34.5 6q51 -3 87.5 -30t65 -65t52 -81t50.5 -78q17 -35 15.5 -66.5t-17 -58.5t-41 -49t-56.5 -37t-64 -23t-63 -7q-7 2 -13 1t-13 1q-4 3 -7 6.5t-6 7.5q2 8 3 15t2 15 q-1 10 1 20t1 20z" glyph-name="Eth" unicode="Ð" horiz-adv-x="552"/>
<glyph d="M52 40q-5 -11 -1 -25.5t19 -14.5q25 0 43.5 17t29.5 38q32 72 41.5 151t-6.5 157q-4 19 -7.5 37t-7.5 37q0 3 -0.5 6.5t1.5 6.5h8q12 -8 24 -20q24 -29 46.5 -59.5t42.5 -62.5q20 -34 38 -68.5t35 -69.5q8 -16 13.5 -36t14 -38.5t21.5 -32t35 -16.5q28 3 50.5 17 t39.5 34.5t29 45t20 48.5q11 54 10.5 109t-16.5 109q-3 12 -7 19q-8 20 -15.5 40.5t-14.5 41.5q-2 9 -4 17.5t-4 17.5q-1 8 -3.5 14t-1.5 14q-3 20 -6 40.5t0 41.5q0 7 -0.5 13.5t1.5 13.5q-2 12 -4 26.5t-6.5 27.5t-14 21t-26.5 7q-19 -3 -30 -15t-17 -28t-8 -34.5 t-3 -33.5q-1 -36 6.5 -70.5t18.5 -68t24.5 -67t24.5 -66.5q4 -6 4.5 -13t2.5 -13q5 -18 6 -36.5t3 -36.5v-23q-3 -14 -7 -29.5t-18 -21.5q-29 23 -51.5 53.5t-43 62.5t-41.5 64.5t-46 60.5q-16 20 -29.5 40.5t-27.5 41.5q-20 29 -37 60t-31 63q-20 23 -46 40t-57 16 q-14 -1 -23 -8.5t-15 -18.5t-8.5 -24t-3.5 -24q-2 -38 4.5 -76t17.5 -75q2 -5 3.5 -10.5t3.5 -10.5q8 -21 16 -42.5t13 -43.5q4 -8 5.5 -17.5t3.5 -18.5q5 -20 5.5 -39.5t2.5 -39.5q1 -57 -9.5 -113t-29.5 -110zM154 807q-2 -5 -2 -12q0 -6 6 -8q15 3 28 11.5t25.5 17 t26 15.5t29.5 8q12 -2 21 -9.5t17.5 -16.5t17.5 -15.5t23 -6.5q19 1 35 9t29.5 20.5t23.5 28.5t17 33q2 7 6 16.5t-6 13.5q-12 -5 -21 -14l-18 -18t-19.5 -16.5t-23.5 -9.5q-11 1 -17.5 7.5t-12.5 15t-12.5 15.5t-16.5 10q-5 1 -9 1h-9q-21 -2 -43 -9t-41 -19t-33.5 -29 t-20.5 -39z" glyph-name="Ntilde" unicode="Ñ" horiz-adv-x="582"/>
<glyph d="M96 256q0 -23 0.5 -46.5t3 -46.5t8 -45t17.5 -43q15 -23 35 -38t42.5 -23t46 -11t46.5 -3q103 2 201.5 31.5t187.5 80.5q42 24 79.5 58.5t61 75t28.5 85.5t-16 91q-33 55 -75 109t-93.5 97t-112 69t-130.5 26q-42 0 -84 -9t-81 -26.5t-73 -43.5t-59 -61 q-22 -39 -28 -80.5t-5.5 -83t2.5 -82.5t-2 -81zM209 291q-4 104 14 211q12 31 30.5 56.5t42 43.5t51 27t56.5 9q55 -5 105.5 -28t94.5 -57.5t80 -77.5t63 -89q11 -29 7.5 -56.5t-16.5 -52t-32.5 -46.5t-41.5 -38q-67 -47 -134 -73t-137 -28q-32 -1 -63 7t-57 28 q-19 18 -30.5 38.5t-18 41.5t-9.5 42t-5 42zM445 801q1 4 2 7.5t2 7.5q4 23 5 47t-3 47q-3 26 -16.5 44t-35.5 16q-13 0 -25 -4.5t-20 -14.5t-8 -21t3 -22t6.5 -22t4.5 -21q-2 -12 -1 -26t6 -25.5t15 -19t26 -5.5q11 0 20.5 3.5t18.5 8.5z" glyph-name="Ograve" unicode="Ò" horiz-adv-x="831"/>
<glyph d="M96 256q1 -46 3.5 -92.5t25.5 -88.5q15 -24 35 -38.5t42.5 -22.5t46 -11t46.5 -3q103 2 202 31.5t188 80.5q42 24 79 58.5t60.5 75.5t28.5 86t-17 91q-33 55 -75.5 109t-93.5 96.5t-111 69t-130 26.5q-42 0 -84.5 -9t-81.5 -27t-73.5 -44t-59.5 -61q-22 -39 -28 -80.5 t-5 -83t3.5 -82.5t-1.5 -81zM209 291q-3 53 0.5 105.5t11.5 105.5q24 63 73.5 100t107.5 37q55 -5 105.5 -28t94.5 -57.5t80 -78t63 -89.5q11 -28 7.5 -55.5t-16 -53t-32 -47t-41.5 -37.5q-67 -47 -134 -73t-137 -28q-32 0 -63 7.5t-56 27.5q-19 18 -30.5 38.5t-18.5 41.5 t-10 42t-5 42zM535 954q-10 10 -29 12q-35 -1 -61 -25t-44 -51q-9 -11 -20 -20.5t-21.5 -19t-19 -21t-12.5 -25.5q-1 -12 11 -15t21 -4q30 4 54 20.5t44 38.5t37 47t33 48q2 4 3.5 7.5t3.5 7.5z" glyph-name="Oacute" unicode="Ó" horiz-adv-x="831"/>
<glyph d="M96 256q1 -46 4 -93t26 -88q15 -23 35 -38t42 -23t45.5 -11t46.5 -3q103 2 202 31.5t189 80.5q42 24 79 58.5t59.5 76t26 86.5t-20.5 90q-34 53 -75 107t-90.5 97.5t-109 70.5t-129.5 26q-43 0 -85.5 -9.5t-82.5 -27t-74.5 -44t-61.5 -60.5q-24 -39 -30 -80.5t-3.5 -83 t7 -82.5t0.5 -81zM208 291q-4 53 -3.5 106t9.5 105q26 63 76 100t109 37q55 -5 105 -28t93.5 -58.5t79.5 -78.5t64 -88q12 -28 9.5 -55.5t-14.5 -52.5t-31.5 -47t-40.5 -38q-67 -48 -134.5 -73.5t-136.5 -27.5q-32 -1 -63 7t-56 28q-38 37 -50 80t-16 84zM453 864l6 -3 q5 -18 11.5 -35.5t14.5 -34.5q7 -4 14 -2.5t14 0.5q8 8 14.5 17t9.5 20q-15 37 -18 79q-4 9 -5.5 19t-8.5 18h-10q-29 -15 -57 -31.5t-56 -34.5q-17 -10 -33.5 -22t-21.5 -32q-2 -10 -4 -15q0 -11 13 -13q17 4 30.5 15t27 22.5t27.5 21t32 11.5z" glyph-name="Ocircumflex" unicode="Ô" horiz-adv-x="831"/>
<glyph d="M95 256q1 -23 2 -46.5t4 -46.5t9 -45t17 -43q15 -23 34.5 -38t42 -23t45.5 -11t46 -3q104 2 203 31.5t189 80.5q43 23 79.5 58t58 76.5t23.5 86.5t-25 89q-34 52 -74 106t-88 97.5t-105.5 70.5t-127.5 26q-44 -1 -87.5 -10t-84 -26.5t-76 -43.5t-63.5 -60 q-28 -39 -34 -79.5t-2 -82t10.5 -83t3.5 -81.5zM206 291q-3 53 -7.5 106t7.5 105q28 63 79.5 99t110.5 36q55 -5 104 -28.5t91.5 -59t78 -78t65.5 -85.5q14 -27 13 -54.5t-12.5 -53t-30.5 -47.5t-40 -38q-67 -48 -134.5 -73.5t-136.5 -27.5q-32 -1 -63 7t-56 28 q-19 18 -31 38.5t-19.5 41.5t-11.5 42t-7 42zM292 806q-2 -5 -3 -11.5t5 -8.5q16 3 29.5 11.5t27 17.5t28 16t31.5 8q12 -2 20 -10t15.5 -17t15.5 -16t22 -6q20 1 37.5 9.5t31.5 21.5t26 29t22 32q2 7 8 16t-2 14q-13 -5 -23.5 -14t-21.5 -18t-22.5 -16.5t-25.5 -9.5 q-11 1 -16.5 7.5t-10 14.5t-9.5 15.5t-14 10.5q-5 1 -9 1h-9q-23 -2 -46.5 -9t-44 -19t-37 -29.5t-25.5 -39.5z" glyph-name="Otilde" unicode="Õ" horiz-adv-x="831"/>
<glyph d="M95 256q1 -23 2 -46.5t4 -46.5t9 -45t17 -43q15 -23 34.5 -38t42 -23t45.5 -11t46 -3q104 2 203 31.5t189 80.5q42 24 78.5 58.5t58.5 76t24 86.5t-24 89q-34 52 -74 106t-88.5 98t-106 71t-127.5 26q-44 0 -87.5 -9t-84 -26.5t-76 -44t-63.5 -60.5q-27 -39 -32.5 -80 t-2 -82.5t10 -83t2.5 -81.5zM207 291q-5 53 -8 106t8 105q27 63 78 99.5t111 36.5q56 -4 105 -28t91.5 -59t78 -78.5t65.5 -86.5q13 -27 12 -54.5t-12.5 -53t-30.5 -47.5t-40 -38q-67 -48 -134.5 -73.5t-136.5 -27.5q-32 -1 -63 7t-56 28q-38 37 -50 79.5t-18 84.5zM320 854 q-5 -9 -7.5 -19.5t2.5 -21.5q11 -10 19 -13t16 -3q29 5 53 25t39 44q6 8 7.5 18.5t-4.5 18.5q-11 8 -19 10t-16 2q-29 -2 -53 -18.5t-37 -42.5zM494 855q-8 -9 -8.5 -19.5t4 -19.5t13.5 -14.5t21 -3.5q29 5 52.5 25t39.5 44q5 8 7.5 18.5t-5.5 18.5q-11 8 -18.5 10t-15.5 2 q-29 -2 -52.5 -19t-37.5 -42z" glyph-name="Odieresis" unicode="Ö" horiz-adv-x="831"/>
<glyph d="M97 305q-3 -4 -6.5 -7t-7.5 -6q-8 -11 -17.5 -23t-5.5 -27q9 -10 21 -10t24.5 4.5t24.5 12t22 12.5q17 10 29.5 21.5t23.5 22t21 20t22 16.5q24 -5 42.5 -20.5t35.5 -31.5q9 -10 17 -22.5t16 -22t17 -13.5t21 2q14 10 29 19.5t23 25.5q-3 6 -5.5 12t-6.5 11 q-32 33 -70 58t-79 45l-8 8l-1 8q3 16 12.5 29t21.5 24t24.5 22t22.5 24q3 4 6 7.5t7 6.5q4 8 7.5 17.5t1.5 18.5q-5 11 -16.5 10.5t-20.5 -2.5q-27 -10 -44.5 -19t-32.5 -18q-23 -12 -42 -28.5t-36 -35.5q-13 -5 -25 -2t-22.5 10.5t-20 18t-16.5 19.5q-10 14 -15.5 22.5 t-12.5 13.5q-19 6 -31 0.5t-22 -12.5q-11 -8 -14.5 -22t8.5 -24q24 -25 53 -44.5t59 -36.5q5 -5 9.5 -10t5.5 -13v-6q0 -13 -4.5 -24.5t-12 -22t-16.5 -20t-16 -18.5z" glyph-name="multiply" unicode="×" horiz-adv-x="427"/>
<glyph d="M78 256q13 -32 22.5 -69.5t23 -72t35.5 -62t61 -40.5q-3 -3 -5.5 -8.5t-3 -10.5t2 -8.5t10.5 -3.5q32 1 62 19h24q103 2 202.5 30.5t188.5 81.5q40 28 69.5 59t40.5 72q5 28 0 51.5t-14.5 45t-21 41.5t-19.5 41q-15 31 -26.5 63.5t-23.5 65t-27.5 63t-37.5 57.5 q3 4 6.5 8t6.5 8q4 5 6.5 10t4.5 11q-3 13 -10 14.5t-13 2.5q-14 -2 -25.5 -7.5t-23.5 -11.5q-23 10 -47 13.5t-48 3.5q-106 -4 -206.5 -40.5t-185.5 -100.5q-38 -33 -63.5 -69t-27.5 -79q0 -27 7.5 -50t18 -44t21 -41.5t16.5 -42.5zM177 291q-15 23 -27 49.5t-16 54t1.5 55 t25.5 51.5q53 62 118 97.5t135 38.5q17 1 32.5 -3t30.5 -9q-26 -23 -50 -50t-42 -58t-27.5 -65t-7.5 -70q21 -73 7.5 -142t-54.5 -124q-25 14 -43 34t-32 43.5t-26 48.5t-25 49zM670 386q19 -20 29 -46t10.5 -52.5t-10.5 -51.5t-34 -43q-121 -98 -255 -101h-17q33 38 58 82 t32 95q1 24 -2 45.5t-6 41t-5 38t2 37.5q23 79 74 140q35 -44 64 -91t60 -94z" glyph-name="Oslash" unicode="Ø" horiz-adv-x="831"/>
<glyph d="M64 339q5 -51 5.5 -101.5t2.5 -101.5q-1 -28 5.5 -54t20.5 -45.5t34 -29.5t46 -7q53 0 104.5 18t95 49.5t75.5 75.5t47 96q6 41 2.5 81.5t-11.5 80.5t-18.5 79.5t-19.5 78.5q-2 11 -4 21t-3 21q-2 29 -6 57.5t-3 57.5q-5 14 -18.5 21t-27.5 7q-19 1 -35.5 -10t-18.5 -31 q-1 -5 -1 -9q0 -3 -1 -8q2 -11 0.5 -21.5t-1.5 -21.5q1 -4 1 -8t1 -8q4 -51 21 -98t32 -95q13 -45 11.5 -99t-19.5 -102t-53 -82.5t-90 -41.5q-12 -1 -21.5 4t-16.5 13t-12 18t-7 21q-12 62 -13 109q1 17 -2 34l-6 34q2 16 -2 27v5q-3 34 -9 68.5t-10.5 68.5t-5.5 68.5 t5 69.5l2 9q-1 17 -10.5 32t-29.5 13q-14 0 -25 -8t-19 -19q-16 -41 -19 -83.5t1 -85t12 -84.5t14 -84zM299 782l3 15q1 21 -0.5 47t-9.5 49t-23.5 39.5t-42.5 19.5q-11 0 -23 -4t-17 -15q-5 -12 -3.5 -22.5t6.5 -21t10.5 -21t7.5 -21.5q0 -12 2.5 -26t8.5 -26t16.5 -19 t26.5 -6q11 0 20 3.5t18 8.5z" glyph-name="Ugrave" unicode="Ù" horiz-adv-x="493"/>
<glyph d="M64 339q5 -51 5.5 -101.5t2.5 -101.5q-1 -27 5.5 -53t20 -45.5t34 -30t46.5 -7.5q53 0 104.5 18t95 49.5t76 75.5t46.5 96q6 41 2 81.5t-12 80.5t-19 79.5t-19 78.5q-2 11 -4 20.5t-3 20.5q-1 29 -5 57.5t-3 57.5q-5 14 -18 21t-27 7q-19 1 -36 -10t-19 -31q-1 -5 -1 -9 q0 -3 -1 -8q1 -11 0.5 -21.5t-1.5 -21.5q0 -4 0.5 -8t0.5 -8q4 -51 20.5 -98t32.5 -95q13 -45 12 -98.5t-19 -101.5t-53 -82.5t-90 -41.5q-12 -1 -21.5 4t-16.5 13t-12 18.5t-7 20.5q-12 62 -13 109q-2 17 -3 34t-5 34q0 7 -0.5 13.5t-1.5 13.5q0 2 -0.5 2.5t-0.5 2.5 q-3 34 -9 68t-10.5 68.5t-5.5 68.5t5 69l3 9q-1 17 -10.5 32t-29.5 13q-14 0 -25.5 -8t-19.5 -19q-15 -41 -18.5 -83t0.5 -84.5t12 -84.5t15 -84zM368 930q-17 12 -33 12q-17 0 -30.5 -6.5t-24 -18t-19 -25t-15.5 -26.5q-7 -11 -16.5 -21l-19 -20t-16.5 -21t-9 -25 q1 -12 12 -15t21 -4q29 4 51.5 19.5t40 38t30.5 48t24 49.5q2 10 4 15z" glyph-name="Uacute" unicode="Ú" horiz-adv-x="493"/>
<glyph d="M62 339q8 -51 8 -102q0 -50 3 -101q-1 -27 5.5 -53t20 -45.5t33.5 -30t46 -7.5q53 0 104.5 18t95 49.5t76 75.5t46.5 96q6 42 1.5 82.5t-13.5 80t-20.5 79t-18.5 79.5q-1 11 -3 21t-3 21q-1 29 -4 57.5t-2 57.5q-5 14 -17.5 21.5t-26.5 6.5q-19 1 -36.5 -10t-19.5 -31 q-1 -5 -1 -9q0 -3 -1 -8q0 -22 -3 -43q1 -4 1 -8t1 -8q3 -51 18.5 -98.5t32.5 -95.5q14 -45 13.5 -98.5t-17.5 -101.5t-52 -83t-90 -42q-24 -2 -38 16.5t-19 39.5q-7 32 -10 58t-4 51q-3 32 -9 68q1 7 -0.5 13.5t-2.5 13.5q0 2 -0.5 2.5t-0.5 2.5q-5 34 -11 68.5t-10 69 t-4.5 68.5t6.5 69l3 9q0 17 -9.5 32.5t-29.5 13.5q-14 0 -25.5 -8.5t-19.5 -19.5q-17 -41 -21 -83.5t-0.5 -85t12 -84.5t16.5 -84zM261 846l6 -3q8 -18 16.5 -35.5t19.5 -34.5q7 -4 14 -2.5t14 0.5q6 8 12.5 17t6.5 20q-11 19 -18 39l-14 40q-5 10 -9.5 20t-13.5 17h-10 q-53 -31 -98 -66q-15 -10 -29.5 -22t-16.5 -32q-2 -10 -2 -15q1 -11 14 -13q16 4 28.5 14.5t24.5 22t25 21.5t30 12z" glyph-name="Ucircumflex" unicode="Û" horiz-adv-x="493"/>
<glyph d="M62 339q8 -51 8 -102q0 -50 3 -101q-1 -27 5.5 -53t20 -45.5t33.5 -30t46 -7.5q53 0 104.5 18t95 49.5t76 75.5t46.5 96q6 42 1.5 82.5t-13.5 80t-20.5 79t-18.5 79.5q-1 11 -3 21t-3 21q-1 29 -4 57.5t-2 57.5q-5 14 -17.5 21.5t-26.5 6.5q-19 1 -36.5 -10t-19.5 -31 q-1 -5 -1 -9q0 -3 -1 -8q0 -22 -3 -43q1 -4 1 -8t1 -8q3 -51 18.5 -98.5t32.5 -95.5q14 -45 13.5 -98.5t-17.5 -101.5t-52 -83t-90 -42q-24 -2 -38 16.5t-19 39.5q-7 32 -10 58t-4 51q-3 32 -9 68q1 7 -0.5 13.5t-2.5 13.5q0 2 -0.5 2.5t-0.5 2.5q-5 34 -11 68.5t-10 69 t-4.5 68.5t6.5 69l3 9q0 17 -9.5 32.5t-29.5 13.5q-14 0 -25.5 -8.5t-19.5 -19.5q-17 -41 -21 -83.5t-0.5 -85t12 -84.5t16.5 -84zM122 862q-6 -11 -5 -21.5t7 -19t15.5 -13.5t21.5 -3q27 4 48.5 24t31.5 45q6 10 3.5 20t-9.5 16.5t-17 10t-20 2.5q-26 -1 -47 -18.5 t-29 -42.5zM295 863q-5 -11 -4 -21.5t7 -19t15.5 -13.5t21.5 -3q28 4 48.5 24t31.5 45q5 10 2.5 20t-9.5 16.5t-17 10t-20 2.5q-26 -2 -47 -19t-29 -42z" glyph-name="Udieresis" unicode="Ü" horiz-adv-x="493"/>
<glyph d="M109 52q-3 -8 -4 -17.5t1.5 -17.5t8.5 -13.5t18 -3.5q25 0 48.5 12t35.5 35q37 72 61.5 148.5t52.5 151.5q16 36 25 73.5t17.5 75.5t19.5 75t31 71q8 17 11 35.5t5 37.5q4 16 -7 28.5t-27 10.5q-26 -1 -41.5 -14.5t-25.5 -33t-16.5 -41.5t-12.5 -41q-21 -48 -35.5 -97.5 t-27.5 -100.5q-2 -11 -13 -11.5t-19 -1.5q-28 -2 -51 13t-36 39q-4 11 -7.5 20.5t-7.5 20.5q-1 2 -1 4q0 3 -1 5q-6 20 -6.5 40t1 40t4 40.5t2.5 40.5q0 19 -13 34t-33 14q-33 -3 -50 -23t-23.5 -48t-4.5 -58t9 -54q2 -8 3 -15.5t4 -15.5q10 -34 31 -61t46 -51t50 -47.5 t43 -51.5q1 -33 -5 -64t-15.5 -62t-22 -61t-22.5 -60zM349 958q-7 6 -15.5 8.5t-17.5 3.5q-17 0 -30.5 -6.5t-24 -18t-19 -25t-15.5 -26.5q-7 -11 -17 -21t-19 -20t-16.5 -21t-9.5 -25q1 -12 12 -15t20 -4q29 4 51.5 19.5t40.5 38t31.5 48t24.5 49.5q2 10 4 15z" glyph-name="Yacute" unicode="Ý" horiz-adv-x="489"/>
<glyph d="M73 751q-40 -73 -54.5 -156.5t9.5 -164.5q35 -81 44 -162.5t-18 -158.5q-5 -20 -13 -38.5t-17 -36.5q-2 -7 -2.5 -14t3.5 -14q11 -5 18 -5.5t13 -0.5q21 1 40.5 11.5t31.5 28.5q5 8 9 16.5t9 16.5q5 5 10 11t10 11q24 14 49.5 24t51.5 19t52 17.5t51 20.5q41 21 78 47 t65 63q17 22 24 45t7.5 46.5t-3.5 46t-9 43.5q-7 44 -31.5 78t-59 56.5t-76 32.5t-83.5 7q-39 -2 -78 -8t-77 -14q4 18 8 35.5t9 34.5q2 6 4.5 11t4.5 11q4 9 6.5 21t0.5 23t-9 18t-21 7q-17 1 -30.5 -8.5t-26.5 -20.5zM196 231q0 30 -6.5 59t-15 57.5t-17.5 56.5t-13 58 q-1 28 14.5 43.5t38 23t48.5 9.5t46 2q19 2 39.5 -1.5t37.5 -13t28.5 -25t14.5 -37.5q15 -47 2 -89.5t-44 -75t-73.5 -52.5t-85.5 -22h-8q-2 2 -3 3.5t-3 3.5z" glyph-name="Thorn" unicode="Þ" horiz-adv-x="537"/>
<glyph d="M116 194q1 -18 0 -37.5t-0.5 -38t4.5 -37t15 -34.5q16 -17 34 -26t37.5 -13.5t39 -6t38.5 -1.5q78 2 152.5 26t137.5 69q-3 -33 12 -55t39.5 -34t54 -16t55.5 -2q71 2 139 22t130 55q31 19 56.5 43t41 52t18 58t-12.5 60q-32 43 -73.5 71.5t-88 48t-97.5 33t-100.5 27 t-97 31t-88.5 44.5q-1 4 -0.5 7t-0.5 7q41 45 95.5 73.5t115.5 29.5q13 1 24.5 -3.5t22.5 -10t22 -10.5t24 -5q18 0 31.5 12t21.5 27q12 17 11.5 36t-10 34t-26 24t-37.5 6q-66 -5 -128 -25.5t-122 -48.5q-30 -17 -60.5 -34t-54 -38t-37 -46t-9.5 -56q17 -34 46 -53.5 t63.5 -31t71 -18t69.5 -14.5q48 -12 97.5 -21.5t93 -25t77.5 -41t53 -67.5q7 -44 -12.5 -75.5t-53 -51.5t-74.5 -29t-76 -8q-26 0 -53 6t-45 27q-20 30 -27.5 58.5t-20.5 53.5q2 18 -3 35.5t-13 33.5q-32 42 -73.5 70t-88.5 47.5t-97 33t-99.5 28t-96.5 32t-87 44.5 q0 9 -1 14q43 44 98.5 72.5t118.5 30.5q13 1 24 -3.5t22.5 -10.5t22.5 -10.5t24 -4.5q19 0 33 12t22 27t12 31.5t-2 33.5q-12 22 -30.5 28.5t-35.5 6.5q-67 -5 -130.5 -26t-124.5 -48q-31 -17 -61.5 -34t-55.5 -37.5t-40 -45.5t-14 -57q15 -35 43 -54.5t61.5 -30.5t70 -17.5 t68.5 -14.5q49 -12 99 -22t94 -25.5t79.5 -40.5t56.5 -67q11 -44 -7 -75.5t-51 -51.5t-73.5 -29.5t-74.5 -7.5q-14 0 -28.5 2t-27.5 7.5t-23 14.5t-15 24q-7 19 -15 37.5t-18.5 33.5t-24.5 24t-33 9q-21 4 -34.5 -11t-8.5 -35z" glyph-name="germandbls" unicode="ß" horiz-adv-x="1050"/>
<glyph d="M359 21q-1 -10 3 -19l28 -2q20 0 35.5 9t27 23.5t19 32t12.5 34.5q11 29 11 60q0 32 4 63v8q0 7 1.5 13.5t2.5 13.5v9q10 8 20.5 18t7.5 25q0 13 -6 22t-14.5 17.5t-17.5 16t-15 17.5q-13 37 -30 72.5t-31 71.5q-7 15 -11 30t-8 31q-7 24 -13 53t-17 54.5t-30 43.5 t-50 21q-21 -2 -38.5 -11.5t-33.5 -22t-30 -28t-27 -29.5q-25 -24 -41 -53t-25 -61.5t-11.5 -66.5t0.5 -67q-2 -83 -8.5 -153.5t-22.5 -137.5q-2 -11 -5 -22.5t-4 -22.5q-4 -23 6.5 -34.5t24.5 -9.5q28 0 49 21q4 5 5.5 11t3.5 12q7 23 12 46.5t10 46.5q2 13 8 24t19 16 q48 7 94.5 11.5t94.5 4.5q7 -2 13 -1t13 -1q2 -4 3 -7t2 -7v-13q-2 -17 -2 -33t-4 -32l-4 -24t-6 -24q-1 -8 -3.5 -14.5t-5.5 -12.5q-3 -11 -7 -21.5t-9 -21.5zM178 331q2 38 9 75.5t12 75.5q5 22 10.5 43.5t14 40t21.5 31.5t33 18q13 -7 21 -18t14 -24.5t10.5 -27.5 t10.5 -26q16 -39 28 -71.5t17 -65.5q1 -2 1 -5q0 -2 1 -4v-8t2 -8q0 -6 1 -11.5t2 -11.5q-14 -15 -31 -22t-36.5 -9.5t-39.5 -2.5t-38 -1h-23q-14 -2 -26.5 7.5t-13.5 24.5zM331 808q1 4 2 7.5t1 7.5q1 21 -0.5 47t-9.5 49t-23.5 39.5t-42.5 18.5q-11 0 -23 -4t-18 -15 q-5 -12 -3 -22.5t7 -21t10.5 -21t7.5 -21.5q0 -12 2.5 -26t8.5 -25.5t16.5 -18.5t26.5 -6q11 0 20 3.5t18 8.5z" glyph-name="agrave" unicode="à"/>
<glyph d="M359 21q-1 -10 3 -19l28 -2q20 0 35.5 9t27 23.5t19 32t12.5 34.5q11 30 11.5 61t3.5 62v8q0 7 1.5 13.5t2.5 13.5v9q11 8 21 17.5t8 25.5q-1 13 -7.5 22t-14.5 17t-17 16t-14 19q-14 36 -30.5 71.5t-30.5 71.5q-12 29 -20 60q-6 24 -12.5 53t-18 54.5t-30.5 44t-50 20.5 q-21 -3 -38.5 -11.5t-33.5 -21.5t-29.5 -27.5t-26.5 -29.5q-25 -24 -41 -53.5t-24.5 -61.5t-11 -66t-0.5 -67q-2 -83 -8.5 -153.5t-23.5 -137.5q-2 -11 -4.5 -22.5t-3.5 -22.5q-4 -23 6.5 -34.5t24.5 -9.5q14 0 26.5 6t22.5 15q4 5 5.5 11t3.5 12q6 23 11.5 46.5t10.5 46.5 q2 13 8 24t19 16q48 7 94.5 11.5t94.5 4.5q7 -2 13 -1t13 -1q2 -4 3 -7t2 -7v-13q-2 -17 -2 -33t-4 -32l-4 -24t-6 -24q-2 -7 -3.5 -14t-5.5 -13q-3 -11 -7 -21.5t-9 -21.5zM178 331q4 38 10 75.5t12 75.5q4 22 9.5 43.5t14.5 39.5t22 31t33 18q21 -22 36.5 -50t27 -58 t20 -61.5t17.5 -61.5q1 -2 1 -5q0 -2 1 -4v-9q0 -3 1 -8q2 -5 2 -12q0 -6 2 -11q-14 -15 -31 -22t-36.5 -9.5t-39.5 -2.5t-38 -1h-23q-15 -2 -27.5 7t-13.5 25zM408 969q-7 6 -15.5 8.5t-17.5 3.5q-17 0 -30.5 -6.5t-24 -18t-18.5 -25t-15 -26.5q-8 -11 -18 -20.5 t-19.5 -19.5t-16.5 -21.5t-9 -25.5q0 -12 12 -15t21 -4q29 4 51.5 19.5t40 37.5t31 48t24.5 50q2 10 4 15z" glyph-name="aacute" unicode="á"/>
<glyph d="M359 21q-1 -10 3 -19l28 -2q21 0 36.5 9t26.5 23.5t19 32t13 34.5q10 30 11 61t3 62v8q0 7 1.5 13.5t2.5 13.5q0 2 -0.5 4.5t-0.5 4.5q11 8 21 18t8 25q-1 12 -7.5 21.5t-15 17.5t-17.5 16.5t-15 18.5q-14 36 -31.5 71t-31.5 72q-6 14 -11 29t-7 31q-6 24 -11.5 53 t-16 54.5t-29 44t-49.5 20.5q-21 -3 -39 -11.5t-34 -21.5t-30.5 -27.5t-27.5 -29.5q-51 -48 -69 -114.5t-11 -133.5q1 -83 -4.5 -153.5t-22.5 -137.5q-2 -11 -4.5 -22.5t-4.5 -22.5q-4 -23 6.5 -34.5t24.5 -9.5q27 0 50 21q7 11 8 23q8 23 12 46.5t11 46.5q2 13 7.5 24.5 t19.5 15.5q47 7 93.5 11.5t94.5 4.5q7 -2 13 -1t13 -1q4 -10 6 -14q0 -3 -0.5 -6.5t-0.5 -6.5q-1 -17 -1.5 -32.5t-3.5 -32.5l-4 -24t-6 -24q-2 -7 -4.5 -13.5t-4.5 -13.5q-5 -11 -8.5 -21.5t-8.5 -21.5zM176 331q3 38 8.5 75.5t9.5 75.5q5 22 11 43.5t15 40t22.5 31.5 t33.5 17q12 -7 20 -18.5t13.5 -24.5t10 -26.5t10.5 -25.5l27.5 -71.5t19.5 -64.5q1 -2 1 -5q0 -2 1 -4v-10l2 -6l2 -12l2 -12q-14 -15 -31 -22t-36.5 -9.5t-39.5 -2.5q-19 0 -37 -1h-23q-15 -1 -27.5 7.5t-14.5 24.5zM315 873l6 -3q8 -18 16.5 -36t18.5 -35q7 -4 13.5 -3 t14.5 1q7 8 13 17.5t7 20.5q-11 19 -18 39l-14 40q-5 10 -9.5 20t-13.5 17h-10q-26 -16 -50.5 -32t-48.5 -34q-14 -11 -29 -22.5t-17 -31.5q-1 -4 -1 -8t-1 -8l3 -9l10 -4h1q16 4 28.5 15t24.5 23t25 21.5t31 11.5z" glyph-name="acircumflex" unicode="â"/>
<glyph d="M360 21q-2 -12 2 -19l28 -2q20 0 35.5 9t27.5 23.5t20 32t13 34.5q9 30 10 61t3 62v8q0 7 2 13.5t1 13.5v9q11 8 21 18t6 25q-1 13 -7.5 22.5t-15 17.5t-18 16t-15.5 18q-14 37 -32.5 71t-31.5 72q-13 30 -17 60q-6 23 -10.5 52t-14.5 55t-27.5 44.5t-49.5 20.5 q-21 -3 -39 -11.5t-34.5 -21.5t-31.5 -27.5t-28 -29.5q-51 -48 -71.5 -114t-10.5 -134q3 -82 -2 -153t-21 -138q-2 -11 -4.5 -22.5t-4.5 -22.5q-4 -22 6 -34t24 -10q14 -1 26.5 5t23.5 16q4 5 5.5 11t3.5 12q7 23 12 46.5t10 46.5q2 13 7.5 24.5t19.5 15.5q47 7 93.5 11.5 t94.5 4.5q7 -2 13 -1t13 -1q4 -10 6 -14q0 -3 -0.5 -6.5t-0.5 -6.5q1 -17 -0.5 -32.5t-3.5 -32.5q-2 -12 -5 -24t-5 -24q-3 -15 -10 -27q-3 -11 -7 -21.5t-9 -21.5zM175 331q6 36 7 77.5t8.5 81.5t25.5 73t57 51q12 -7 20 -18t13 -24t9.5 -27t10.5 -26q14 -40 27.5 -72 t20.5 -64l3 -9v-10l2 -6l2 -12l2 -12q-13 -15 -30 -22t-36 -9.5t-39 -2.5t-38 -1h-23q-15 -1 -27.5 7.5t-14.5 24.5zM149 822q-1 -3 -1 -6q0 -2 -1 -5l4 -10h3q15 4 27.5 12t25.5 17t26 16t29 8q13 -1 22.5 -9t18 -16.5t17.5 -15.5t23 -7q19 1 35 9t28.5 21t22 28.5 t15.5 32.5q2 7 6 16.5t-7 13.5q-11 -5 -20 -14t-17.5 -18t-18.5 -16.5t-23 -9.5q-11 1 -18 7.5t-13 15t-13 15.5t-17 10q-5 1 -10 1h-9q-21 -2 -43 -8.5t-40.5 -18.5t-32 -29.5t-19.5 -39.5z" glyph-name="atilde" unicode="ã"/>
<glyph d="M359 21q-2 -12 2 -19l28 -2q20 0 35.5 9t27.5 23.5t20 32t13 34.5q9 30 10 61t3 62v8q0 7 2 13.5t1 13.5v9q11 8 21 18t6 25q-1 13 -7.5 22t-15.5 17l-18 16t-15 18q-15 37 -33.5 71t-31.5 72q-6 15 -10 30t-7 31q-5 23 -9.5 52t-14 55t-27.5 44.5t-49 20.5 q-21 -3 -39.5 -12t-35 -21.5t-31 -27.5t-28.5 -29q-51 -48 -71 -114t-11 -134q4 -82 -0.5 -153t-21.5 -138q-2 -11 -4.5 -22.5t-4.5 -22.5q-4 -23 6.5 -34.5t24.5 -9.5q14 0 26.5 6t22.5 15q4 5 5.5 11t3.5 12q7 23 12 46.5t11 46.5q0 13 7 24t19 16q47 7 93 11.5t94 4.5 q7 -2 13 -1t13 -1q4 -10 6 -14q0 -3 0.5 -6.5t-1.5 -6.5q1 -17 -0.5 -32.5t-3.5 -32.5q-2 -12 -5 -24t-5 -24q-3 -15 -10 -27q-3 -11 -7 -21.5t-9 -21.5zM175 331q5 36 6.5 77.5t8.5 81t25 73t57 51.5q12 -7 19.5 -18t13 -24.5t9.5 -27.5t10 -26q14 -40 27.5 -71.5 t21.5 -64.5q1 -2 1 -5q0 -2 1 -4q1 -4 1 -8t1 -8q2 -6 3 -11.5t2 -11.5q-13 -15 -30 -22t-36 -9.5t-39 -2.5q-19 0 -37 -1h-23q-15 -1 -28 7.5t-14 24.5zM177 859q-6 -11 -4.5 -21.5t7.5 -19t15.5 -13.5t21.5 -3q27 4 48 24t32 45q6 10 3.5 19.5t-9.5 16.5t-17 10.5t-20 2.5 q-26 -1 -47.5 -18t-29.5 -43zM350 860q-5 -11 -4 -21.5t7 -19t15.5 -13.5t21.5 -3q28 4 48.5 24t31.5 45q6 10 3.5 19.5t-9.5 16.5t-17 10.5t-20 2.5q-26 -1 -47.5 -18.5t-29.5 -42.5z" glyph-name="adieresis" unicode="ä"/>
<glyph d="M359 21q-3 -10 3 -19l28 -2q20 0 35.5 9.5t26.5 23.5t18.5 31.5t12.5 34.5q11 30 11.5 61t3.5 62q0 2 0.5 4t0.5 4q0 7 1.5 13.5t2.5 13.5v9q11 8 21.5 18t8.5 25q0 12 -6 21.5t-14.5 17.5l-17 16t-13.5 18q-26 73 -57 144q-13 31 -21 61q-7 24 -14.5 53.5t-19.5 55 t-31.5 43.5t-51.5 20q-20 -3 -37.5 -12t-32.5 -21.5t-28.5 -27.5t-25.5 -30q-25 -24 -39.5 -54t-22.5 -62t-11 -65.5t-3 -66.5q-5 -83 -13 -153.5t-25 -137.5q-2 -11 -4.5 -22.5t-3.5 -22.5q-4 -23 6.5 -34.5t24.5 -9.5q28 0 49 21q4 5 5.5 11t3.5 12q6 23 10.5 46.5 t12.5 46.5q2 13 7.5 24.5t19.5 15.5q48 7 94.5 11.5t94.5 4.5q7 -2 13 -1t13 -1q2 -4 2.5 -7.5t2.5 -6.5q0 -3 -0.5 -6.5t-0.5 -6.5q-2 -17 -2 -33t-4 -32l-4 -24t-6 -24q-1 -8 -3.5 -14.5t-5.5 -12.5q-6 -21 -15 -43zM180 331q4 38 12.5 75.5t14.5 75.5q5 21 10.5 43 t13.5 40.5t20.5 31.5t32.5 18q22 -22 38 -49.5t27.5 -58.5t19.5 -63t14 -62q1 -2 1 -5q0 -2 1 -4q0 -4 -1 -8t1 -8q3 -12 3 -23q-14 -15 -31 -22t-36.5 -9.5t-39.5 -2.5t-38 -1h-23q-14 -2 -27.5 7t-12.5 25zM446 925q5 16 4 34.5t-8.5 33.5t-21.5 24.5t-34 7.5 q-31 -2 -58.5 -14.5t-50 -33t-38 -47.5t-21.5 -56q-5 -15 -1 -29.5t13 -25.5t22.5 -17.5t28.5 -5.5q28 0 55 10t48.5 27.5t37.5 41t24 50.5zM278 885q5 15 14 30.5t20.5 27.5t26.5 20t32 9q10 0 15.5 -5.5t7 -13t1 -16t-2.5 -15.5q-8 -29 -33 -48t-55 -17q-8 -1 -14.5 3.5 t-12.5 9.5q0 4 0.5 7.5t0.5 7.5z" glyph-name="aring" unicode="å"/>
<glyph d="M373 21q-7 -11 -7 -19l28 -2q12 -3 24 -3q13 0 25 -1h36q67 5 132 17t131 27q41 13 82 23t77.5 23.5t66 33.5t47.5 53q4 18 -9 30t-30 10q-20 -1 -37.5 -10t-34.5 -19q-12 -9 -27 -15q-73 -37 -151.5 -60t-160.5 -25h-18q-9 1 -12 11v1q15 27 21 58t4 61.5t-11.5 60 t-27.5 55.5q15 13 34 18t39 6.5t41 1t40 2.5q34 1 67.5 3t67.5 5q21 4 36.5 6.5t28.5 7.5q18 7 24.5 19.5t-2.5 23.5q-10 18 -27.5 28.5t-37.5 9.5q-38 -2 -75.5 -4.5t-75.5 -7.5q-38 -4 -76.5 -8.5t-76.5 -3.5h-18q-20 1 -40 3t-37 13h-1q0 1 -1 1q-2 4 -3.5 8t-3.5 8 q-2 3 -3 5.5t-3 5.5q0 2 -0.5 3t-0.5 3q-6 15 -7 31.5t3 32.5t13 29t24 22q39 19 74.5 23t68.5 6q27 0 54.5 1t54.5 2q29 2 58.5 3.5t58.5 1.5q15 2 29.5 9t22.5 21q7 11 9.5 27t-13.5 24q-23 9 -42 11.5t-37 1.5h-28h-12q-5 0 -11 -1q-7 1 -13 0t-13 -1q-180 0 -352 -48 q3 12 5 24t1 25q-3 17 -14 21t-20 4q-54 -8 -101.5 -34.5t-92.5 -56.5q-30 -18 -58.5 -45t-46.5 -59.5t-22 -69t14 -73.5q25 -36 44.5 -72t31 -73t12 -73.5t-13.5 -72.5q-5 -11 -9 -22.5t-9 -22.5q-11 -20 -5 -33.5t21 -10.5q16 0 30.5 6t27.5 15q8 10 15 23 q13 22 20.5 45.5t12.5 47.5q1 12 5 24t17 16q45 7 91 11.5t92 4.5q7 -2 13.5 -1t13.5 -1q2 -4 4 -7.5t5 -6.5q0 -3 0.5 -6.5t0.5 -6.5q2 -17 2 -33t-5 -32q-9 -34 -27 -63t-41 -55zM175 331q-20 35 -37 71.5t-12 78.5q11 48 36 85.5t67 46.5q10 -8 14.5 -19.5t7 -24.5 t4.5 -26.5t7 -25.5q15 -43 35.5 -75t43.5 -60l9 -9q6 -9 13 -16q5 -5 9 -11t9 -12q-8 -16 -22.5 -23t-32 -9t-36.5 -2q-18 0 -33 -1h-23q-18 -1 -33.5 8.5t-25.5 23.5z" glyph-name="ae" unicode="æ" horiz-adv-x="935"/>
<glyph d="M329 -91q9 15 17.5 30t15.5 31q1 8 3.5 16.5t3.5 16.5q38 6 74.5 15t71.5 25q19 9 39 19t35.5 22.5t25 28t8.5 35.5q-2 18 -17.5 26.5t-32.5 8.5q-36 -6 -68 -25t-63.5 -38.5t-64.5 -34t-73 -11.5q-34 -2 -61 12t-48 37t-35 52.5t-21 58.5q-21 39 -24.5 78t6.5 75.5 t31 70.5t48.5 63.5t59 54.5t63.5 44q20 18 43 17q12 1 19.5 -4t11.5 -13t4.5 -18t-0.5 -19q-2 -29 11 -49t36 -17q24 -2 34 17.5t12 38.5q3 24 5.5 48t0.5 48q-1 31 -15 54t-41 21q-72 -9 -140 -40t-125.5 -78t-101 -107.5t-67.5 -129.5q-5 -21 -3 -41.5t7 -41t12.5 -40.5 t13.5 -40q13 -42 29 -83t45 -74q38 -37 79 -50t82 -17q-5 -10 -8 -19.5t-6 -20.5q-6 -13 -10 -26t-11 -26q-5 -9 -11 -18t-9 -20q-5 -11 -6 -25t14 -18q35 1 60 26.5t41 53.5z" glyph-name="ccedilla" unicode="ç" horiz-adv-x="585"/>
<glyph d="M38 56q-5 -11 -5.5 -24t10.5 -21q20 -8 36.5 -9.5t30.5 -1.5h36q63 5 123.5 17t121.5 27q38 13 76 23.5t72 24.5t61 34t44 51q5 17 -5.5 29.5t-27.5 10.5q-21 -1 -40 -10t-37 -19q-14 -10 -28 -15q-72 -35 -148 -59t-157 -26h-18q-9 1 -14 11v1q3 12 6.5 24t5.5 24 q12 46 16.5 92.5t2.5 93.5l-1 1q18 12 39 17t43 6.5t44.5 2t43.5 2.5q35 1 70 2.5t70 5.5q25 4 42.5 6.5t33.5 7.5q20 8 33 17.5t8 25.5q-5 20 -22 30t-36 9q-38 -1 -76 -4.5t-76 -8.5q-39 -4 -77.5 -8.5t-77.5 -3.5h-18q-19 1 -38.5 2.5t-35.5 13.5l-1 1q-2 5 -3.5 8.5 t-3.5 8.5q-2 3 -3.5 5.5t-2.5 5.5q-1 2 -1 3t-1 3q-5 13 -9.5 28.5t-5 31t4 30t16.5 25.5q33 20 66 23.5t64 5.5q27 0 54 1l54 2q29 2 57 3.5t57 1.5q12 1 23.5 8.5t11.5 21.5q-2 23 -15 35.5t-32 18.5t-40 7.5t-38 1.5h-28h-12q-5 0 -11 -1q-6 1 -12.5 0t-12.5 -1 q-84 -1 -167 -12.5t-163 -38.5q-16 -5 -24 -18.5t-4 -29.5q1 -22 12.5 -40.5t26.5 -33.5q16 -45 32.5 -90.5t28 -92.5t14.5 -95t-7 -97q-11 -29 -21.5 -57.5t-24.5 -55.5q-1 -2 -1.5 -2.5t-1.5 -2.5q-1 -1 -1.5 -2t-1.5 -2q-1 -2 -2 -5t-2 -5zM373 799l3 15q1 20 1 45 q0 26 -6 49t-20 40t-41 20q-12 -1 -24 -4.5t-18 -14.5t-5 -21.5t5 -21.5t8.5 -21.5t6.5 -21.5q-1 -12 1 -26t8 -25.5t16 -19t26 -5.5q11 0 20.5 3.5t18.5 8.5z" glyph-name="egrave" unicode="è" horiz-adv-x="611"/>
<glyph d="M38 56q-5 -11 -5.5 -24t10.5 -21q20 -8 36.5 -9.5t30.5 -1.5h36q63 5 124 17t121 27q39 13 77 23.5t71.5 24.5t60.5 34t44 51q5 17 -5.5 29.5t-27.5 10.5q-21 -1 -40 -10t-37 -19q-6 -5 -13 -8t-14 -7q-72 -35 -148.5 -59t-157.5 -26h-18q-9 1 -14 11v1q3 12 6.5 24 t6.5 24q11 46 16 92t1 94v1q18 12 39 17t43 6.5t44.5 2t43.5 2.5q35 1 70 3t70 5q24 4 41.5 6.5t33.5 7.5q20 8 33 17.5t8 25.5q-6 19 -23 29.5t-36 9.5q-38 -1 -76 -4.5t-76 -8.5q-39 -4 -77.5 -8.5t-77.5 -3.5h-18q-19 1 -38 3t-36 13l-1 1q-2 5 -3.5 8.5t-3.5 8.5 q-2 3 -3.5 5.5t-2.5 5.5q-1 2 -1 3t-1 3q-5 13 -9 28.5t-5 31t3.5 29.5t17.5 25q33 20 66 23.5t64 5.5q27 0 54 1l54 2q29 2 57 3.5t57 1.5q12 1 24 8.5t11 21.5q-1 23 -14 35.5t-32 18.5t-40 7.5t-38 1.5h-28h-12q-5 0 -11 -1q-6 1 -12.5 0t-12.5 -1q-84 -1 -167 -12.5 t-163 -38.5q-16 -5 -24 -18.5t-5 -29.5q1 -22 12.5 -40.5t26.5 -32.5q16 -45 32.5 -91t28 -93t15 -94.5t-6.5 -96.5q-11 -29 -21.5 -57t-24.5 -56q-1 -2 -1 -3l-1 -2l-4 -4q-1 -2 -2 -5t-2 -5zM435 948q-12 10 -32 12q-17 0 -31 -6.5t-25.5 -18t-21 -25t-17.5 -26.5 q-8 -11 -18 -21l-19.5 -19.5t-17 -21t-10.5 -25.5q0 -12 11.5 -15t20.5 -4q30 4 53 20t41 38t32.5 47.5t27.5 49.5q2 4 3 8t3 7z" glyph-name="eacute" unicode="é" horiz-adv-x="611"/>
<glyph d="M39 56q-5 -11 -6.5 -24t10.5 -21q20 -8 36.5 -9.5t30.5 -1.5h36q63 5 124 17t121 27q39 13 77 23.5t72 24.5t61 34t44 51q6 17 -5.5 29.5t-28.5 10.5q-21 -1 -39.5 -9.5t-36.5 -19.5q-7 -4 -13.5 -8t-14.5 -7q-72 -35 -148 -59t-157 -26h-18q-10 1 -15 11l1 1 q3 12 6.5 24t5.5 24q11 46 15.5 92.5t0.5 93.5v1q18 12 39 17.5t42.5 7t43.5 1.5q23 0 44 2q35 1 69.5 2.5t69.5 5.5q24 4 41.5 6.5t33.5 7.5q20 8 33.5 17.5t6.5 25.5q-5 19 -22.5 29t-36.5 10q-38 -1 -76 -4.5t-76 -8.5q-39 -4 -77.5 -8.5t-77.5 -3.5h-18q-19 1 -38.5 3 t-35.5 13h-1q0 1 -1 1q-2 5 -3 9t-4 8q-2 3 -3 6t-3 5q0 2 -0.5 3t-0.5 3q-5 13 -9 28.5t-4.5 31t4.5 30t17 25.5q34 20 67 23.5t64 5.5q27 0 54 1l54 2q29 2 57 3.5t57 1.5q13 1 24.5 8.5t11.5 21.5q0 23 -13 35.5t-31.5 18.5t-40 7.5t-37.5 1.5h-28h-12q-5 0 -11 -1 q-7 1 -13 0t-13 -1q-85 0 -168 -12t-163 -39q-16 -5 -24.5 -18t-5.5 -30q0 -22 11.5 -40.5t25.5 -33.5q15 -45 32 -91t30 -92.5t17.5 -94.5t-5.5 -97q-12 -29 -22 -57.5t-24 -55.5q-1 -2 -1.5 -2.5t-1.5 -2.5q-1 -1 -1.5 -2t-1.5 -2q-1 -2 -2 -5t-2 -5zM325 862l6 -3 q8 -18 15.5 -35.5t17.5 -34.5q7 -4 13.5 -2.5t13.5 0.5q7 8 13.5 17t8.5 20q-18 37 -27 79q-5 9 -8.5 19t-11.5 18h-10q-56 -31 -104 -66q-15 -10 -30.5 -22t-18.5 -32l-3 -15l3 -9l9 -4h1q16 4 29 14.5t25.5 22t26 21.5t31.5 12z" glyph-name="ecircumflex" unicode="ê" horiz-adv-x="611"/>
<glyph d="M40 56q-6 -10 -7.5 -24t11.5 -21q20 -8 36 -9.5t30 -1.5h36q63 5 124 17t122 27q38 13 76.5 23.5t72 24.5t61 33.5t43.5 51.5q7 17 -5 29.5t-29 10.5q-21 -1 -39.5 -10t-35.5 -19q-7 -5 -14 -8t-14 -7q-72 -35 -148 -59t-157 -26h-18q-10 1 -15 11l1 1q3 12 6.5 24 t5.5 24q11 46 14.5 92.5t-2.5 93.5v1q18 12 38.5 17t42.5 6.5t44 1.5t43 3q35 1 69.5 2.5t69.5 5.5q24 4 41.5 6.5t33.5 7.5q19 7 31.5 17.5t6.5 25.5q-7 19 -24 29.5t-37 9.5q-38 -1 -76 -4.5t-76 -8.5q-38 -4 -76.5 -8.5t-77.5 -3.5h-18q-20 1 -39 3t-36 13l-1 1 q-2 5 -3.5 8.5t-3.5 8.5q-2 3 -3.5 5.5t-2.5 5.5q-1 2 -1 3t-1 3q-5 14 -8 29.5t-3 30.5q0 16 5.5 30t18.5 25q34 20 67 23.5t65 5.5q27 0 53.5 1t53.5 2q29 2 57.5 3.5t57.5 1.5q13 1 24.5 8.5t13.5 21.5q0 23 -12.5 35.5t-31 18.5t-39.5 7.5t-37 1.5h-28h-12q-5 0 -11 -1 q-6 1 -12.5 0t-12.5 -1q-85 -1 -169 -12.5t-165 -38.5q-16 -5 -26 -18t-6 -30q-2 -22 9 -40.5t25 -33.5q13 -46 30.5 -91.5t32 -92t21 -94t-3.5 -97.5q-12 -28 -22 -57t-24 -56q-1 -2 -1.5 -2.5t-1.5 -2.5l-4 -4q-1 -2 -1.5 -5t-1.5 -5zM184 846q-6 -10 -5.5 -20.5t6 -19.5 t14.5 -14t21 -3q28 4 50.5 24t34.5 45q7 10 5.5 19.5t-8 16.5t-16 10.5t-19.5 2.5q-28 -1 -50 -18.5t-33 -42.5zM358 847q-6 -10 -5.5 -20.5t5.5 -19.5t14.5 -14t21.5 -3q29 4 50.5 24.5t34.5 44.5q7 10 5.5 19.5t-8 16.5t-16.5 11t-20 2q-28 -2 -50 -18.5t-32 -42.5z" glyph-name="edieresis" unicode="ë" horiz-adv-x="611"/>
<glyph d="M11 34q-1 -9 3 -16t10.5 -11.5t15 -6.5t16.5 0q19 -1 35.5 10.5t22.5 29.5q38 123 46 250.5t-6 255.5v21q-1 15 -1 30t-1 30q0 5 0.5 11t0.5 11q0 12 -3.5 24.5t-11 22.5t-18 16t-24.5 6q-15 2 -24.5 -8t-17.5 -21q-3 -73 -3.5 -145.5t-2.5 -145t-7.5 -145t-18.5 -144.5 q-1 -4 -0.5 -7.5t-1.5 -7.5q-3 -12 -3 -23q-1 -6 -1.5 -12t-2.5 -11q-1 -4 -1.5 -7t-0.5 -7zM172 782q2 10 2 15q0 23 -5.5 49.5t-17.5 49t-31 38.5t-46 18q-11 0 -21.5 -4t-15.5 -15q-2 -13 2 -23.5t10.5 -21t13.5 -20.5t10 -21q2 -13 5.5 -27t10.5 -25.5t18 -19t28 -5.5 q10 0 19.5 3.5t17.5 8.5z" glyph-name="igrave" unicode="ì" horiz-adv-x="177"/>
<glyph d="M11 34q-1 -19 13.5 -28t31.5 -6q19 0 35.5 11t21.5 29q41 123 48 250.5t-8 255.5q-1 5 -1 10v11l-3 60q1 5 1 11v11q0 12 -3.5 24.5t-11 22.5t-18 16t-23.5 6q-15 2 -25 -8t-17 -21q-2 -73 -1.5 -145.5t-1 -145t-7 -145t-19.5 -144.5q0 -4 -0.5 -7.5t-0.5 -7.5 q-1 -6 -2 -11.5t-2 -11.5t-1 -12t-4 -11q-1 -4 -0.5 -7.5t-1.5 -6.5zM206 946q-8 6 -16.5 8.5t-18.5 3.5q-16 0 -28.5 -6.5t-21.5 -18t-15 -25t-10 -26.5q-6 -11 -14.5 -21l-17 -20t-14.5 -21t-6 -25q1 -12 12 -15t21 -4q28 3 49.5 19t37 38t25.5 48t16 50q0 10 1 15z" glyph-name="iacute" unicode="í" horiz-adv-x="177"/>
<glyph d="M12 34q-1 -19 13 -28.5t31 -5.5q19 0 36.5 10.5t22.5 29.5q44 121 48.5 250t-13.5 255v22q0 15 -1.5 30t-1.5 30q0 5 0.5 11t0.5 11q0 24 -14.5 46.5t-41.5 22.5q-15 2 -25.5 -7.5t-17.5 -21.5q-4 -72 -2.5 -145t2.5 -145.5t-3 -145t-20 -144.5q-1 -4 -0.5 -7.5 t-1.5 -7.5q-1 -6 -2 -11.5t-2 -11.5q0 -11 -5 -23q-1 -4 -1 -8q0 -3 -2 -6zM126 844l6 -3q11 -17 21.5 -35t22.5 -35q7 -4 14 -3t14 1q5 8 11 17t6 20q-12 19 -23 38.5t-19 40.5q-8 9 -14 20t-17 17h-10q-23 -15 -45 -32t-43 -34q-14 -11 -26 -23.5t-13 -30.5 q0 -4 -0.5 -7.5t-0.5 -7.5q1 -11 15 -13q16 3 27.5 14t22 22.5t22.5 21.5t29 12z" glyph-name="icircumflex" unicode="î" horiz-adv-x="177"/>
<glyph d="M14 34q-2 -18 11.5 -28t30.5 -6q20 0 37 11.5t25 28.5q26 60 37.5 123t12.5 127t-6.5 128t-18.5 127q-1 5 -1 11v11l-3 60q1 5 1 11v11q1 24 -12.5 46.5t-40.5 22.5q-15 2 -25.5 -7.5t-17.5 -21.5q-8 -72 -4 -145t8.5 -145.5t3 -145t-20.5 -144.5l-3 -15q-1 -6 -2 -11.5 t-2 -11.5q-2 -6 -2.5 -12t-4.5 -11q-1 -4 -1 -8q0 -3 -2 -6zM-18 830q-4 -11 -2 -22t8.5 -19t16 -13t21.5 -4q26 4 46 24.5t28 45.5q4 11 0.5 20.5t-11 16.5t-18 10t-20.5 2q-26 -1 -45 -18.5t-24 -42.5zM155 831q-8 -22 7 -40.5t38 -16.5q26 3 46.5 23.5t27.5 45.5 q5 11 1.5 20.5t-11.5 16.5t-18.5 10t-20.5 2q-26 -1 -45.5 -18.5t-24.5 -42.5z" glyph-name="idieresis" unicode="ï" horiz-adv-x="177"/>
<glyph d="M218 555q3 -12 10 -17t16 -5t18 3t17 8q9 4 18.5 8t18.5 8q11 5 23 10t23 10q18 -34 40 -67t42 -67.5t33.5 -70.5t14.5 -76q-4 2 -7.5 3t-7.5 3q-57 57 -123.5 102.5t-139.5 77.5q-3 2 -6 2.5t-6 2.5q-9 5 -18.5 7t-18.5 6q-3 2 -6 3.5l-7 3.5q-23 7 -47 3t-43.5 -17.5 t-30.5 -34t-8 -46.5q15 -54 32 -110t40 -109t54.5 -101t75.5 -86q53 -25 107.5 -18.5t103.5 34t88.5 70.5t62.5 90q24 50 16.5 105.5t-35.5 101.5q-36 66 -63.5 124.5t-52.5 115.5q26 20 52 42.5t31 57.5q1 7 -1 13.5t-8 11.5q-15 1 -23 -1.5t-15 -4.5q-19 -7 -37 -15 l-36 -16q-7 18 -18 34.5t-29 25.5q-5 5 -11 7.5t-12 4.5q-15 4 -27.5 -5.5t-20.5 -20.5q-11 -11 -17 -25t-1 -29q8 -13 15.5 -25t15.5 -24q-14 -10 -30.5 -21t-31 -23.5t-23.5 -28.5t-7 -35zM443 142q-11 -19 -28.5 -29.5t-38 -13.5t-41 1.5t-38.5 14.5q-30 19 -53.5 46.5 t-40.5 60t-28.5 67t-17.5 69.5q-2 9 3 17.5t15 10.5q23 0 37 -4t28 -9q39 -15 75 -37.5t68 -49.5q16 -16 31 -33t24 -35.5t11.5 -37.5t-6.5 -38z" glyph-name="eth" unicode="ð" horiz-adv-x="565"/>
<glyph d="M35 68q-3 -9 -4 -21.5t1.5 -23t10 -17.5t21.5 -6q15 2 31 7.5t24 19.5q32 72 44 150.5t1 156.5h23q20 -29 37.5 -59.5t33.5 -62.5q8 -19 14 -37.5t12 -38.5q8 -23 13.5 -47t8.5 -49q5 -11 16.5 -16t22.5 -5q28 3 46.5 24.5t30.5 44.5q35 69 55 144t15 153q-14 84 -25 157 t-6 144v32q0 16 2 33t-9.5 29.5t-28.5 11.5q-16 -2 -27 -11t-18.5 -22t-12 -28t-6.5 -28q-11 -47 -9 -93t9.5 -92t17.5 -92t14 -92q-2 -13 -2.5 -28.5t-3 -30t-9 -27t-20.5 -18.5q-6 0 -9.5 3t-5.5 8t-3 10t-4 9q-21 42 -44 82.5t-49 79.5q-22 37 -43.5 73.5t-37.5 77.5 q-12 36 -16 74t-3 76q-5 15 -17.5 24.5t-28.5 9.5q-15 -2 -27 -11t-18 -23q-18 -46 -20.5 -92t3 -91.5t15 -91.5t16.5 -92.5t7.5 -92.5t-12.5 -93q-2 -5 -3 -10.5t-1 -10.5q-4 -11 -5.5 -23t-4.5 -23q-3 -9 -5 -18t-7 -17zM135 827q-2 -5 -1.5 -11.5t6.5 -8.5q15 3 28 11.5 t25.5 17t26 15.5t29.5 8q13 -2 22 -9.5t17.5 -16.5t17.5 -15.5t23 -6.5q19 1 35 9t28.5 21t22.5 29t16 32q2 7 5 16.5t-6 13.5q-12 -5 -21 -14t-18 -18.5t-19 -17t-23 -8.5q-11 1 -18 8t-13 15t-12.5 15.5t-16.5 9.5q-5 1 -9 1h-9q-21 -2 -43 -9t-40.5 -19t-32.5 -29 t-20 -39z" glyph-name="ntilde" unicode="ñ" horiz-adv-x="517"/>
<glyph d="M80 283q4 -36 4 -80q0 -43 7.5 -83t27.5 -72.5t64 -47.5h68q59 0 117.5 15.5t111.5 43.5t98 68t77 90q19 28 33.5 60.5t20.5 66.5t2.5 68t-20.5 66q-22 42 -48.5 86.5t-60.5 82t-77 61t-97 23.5q-24 0 -47 -6.5t-46 -14.5q-60 -26 -116.5 -62.5t-91.5 -93.5 q-16 -35 -21.5 -70t-6.5 -68.5t0.5 -67t0.5 -65.5zM181 261q2 58 4.5 116t13.5 115q13 36 36 61.5t51.5 42t60 24t62.5 7.5q36 0 66.5 -15t55 -39t44 -53.5t34.5 -58.5q14 -47 8 -91.5t-26.5 -85t-52.5 -75.5t-71.5 -61.5t-83 -44t-86.5 -22.5q-28 -1 -56.5 9t-42.5 37 q-15 37 -16 69.5t-1 64.5zM456 805q1 4 2 7.5t2 7.5q2 20 3 45t-4 48.5t-18 40.5t-40 20q-13 0 -24.5 -4t-19.5 -15q-6 -11 -5.5 -22t4 -21.5t8 -21.5t5.5 -21q-1 -12 0.5 -26t6.5 -25.5t15 -18.5t26 -6q11 0 20.5 3.5t18.5 8.5z" glyph-name="ograve" unicode="ò" horiz-adv-x="702"/>
<glyph d="M80 283q4 -36 4 -80q0 -43 7.5 -83t27.5 -72.5t64 -47.5h68q60 0 118.5 15.5t111 43.5t97.5 68t78 90q19 28 33 61t19.5 67t1.5 68t-21 66q-22 42 -48.5 86.5t-60 81.5t-76 60.5t-96.5 23.5q-24 0 -47 -6.5t-46 -14.5q-30 -13 -60 -28t-57 -34t-50.5 -42.5t-41.5 -51.5 q-16 -35 -21.5 -70t-6.5 -68.5t1 -67t1 -65.5zM181 261q1 58 3.5 116t13.5 115q13 36 36 61.5t51 42t60 24t63 7.5q36 0 66.5 -15t55 -38.5t43.5 -53t34 -58.5q15 -47 9.5 -92t-25.5 -85.5t-52.5 -75.5t-71.5 -61.5t-83 -44t-87 -22.5q-28 -1 -56.5 9.5t-42.5 36.5 q-14 37 -16 69.5t-1 64.5zM532 958q-6 6 -14 8.5t-16 3.5q-35 0 -59 -24.5t-40 -51.5q-9 -11 -19.5 -20.5t-20.5 -19.5t-18 -21.5t-11 -25.5q0 -12 11 -15t20 -4q30 4 53.5 20t42.5 38.5t34.5 48t30.5 48.5z" glyph-name="oacute" unicode="ó" horiz-adv-x="702"/>
<glyph d="M79 283q6 -36 6.5 -79t7.5 -83t26.5 -73t63.5 -48h68q59 1 117.5 15.5t112 42.5t98.5 68t77 91q19 28 32 61t17.5 67t-1 68t-24.5 65q-20 41 -45 86t-57 82.5t-73.5 61.5t-95.5 23q-25 0 -48.5 -6.5t-46.5 -14.5q-61 -26 -119 -62.5t-96 -93.5q-18 -35 -23 -69.5 t-4.5 -69t4 -67.5t3.5 -65zM180 261q1 58 -0.5 116t9.5 115q15 36 38.5 61.5t52 42t60.5 24t64 7.5q36 0 65.5 -15t53 -39t42 -54t33.5 -58q18 -46 14.5 -90.5t-23 -85.5t-51.5 -76t-71 -62t-83 -44t-86 -22q-28 -1 -56.5 9.5t-42.5 36.5q-14 37 -15.5 69.5t-3.5 64.5z M446 856q2 -1 2.5 -1.5t2.5 -1.5q7 -18 14 -35.5t16 -34.5q7 -4 14 -2.5t14 0.5q8 8 14 17t8 20q-8 19 -13.5 39t-9.5 40q-4 10 -6.5 19.5t-10.5 17.5h-10q-56 -30 -108 -66q-16 -10 -31 -22t-20 -32l-3 -15l3 -9l9 -4h1q16 4 29.5 14.5t26.5 22t26.5 21.5t31.5 12z" glyph-name="ocircumflex" unicode="ô" horiz-adv-x="702"/>
<glyph d="M78 283q6 -36 7 -79t8.5 -83t26.5 -73t63 -48h68q59 1 118 15.5t112 42.5t98 68t77 91q19 28 31.5 61t16 67t-3 68t-25.5 65q-20 41 -43.5 86t-55 82.5t-72 61.5t-93.5 23q-25 0 -49 -6.5t-47 -14.5q-62 -26 -121.5 -62.5t-98.5 -93.5q-20 -35 -25 -70t-3 -68.5t6.5 -67 t4.5 -65.5zM180 261q0 58 -3.5 116t7.5 115q15 36 39 61.5t53 42t61 24t64 7.5q36 1 65.5 -14.5t52.5 -39.5t41.5 -54t32.5 -58q19 -46 16.5 -91t-21 -85.5t-50 -75.5t-70.5 -62t-83 -44t-86 -22q-28 -1 -56.5 9.5t-42.5 36.5q-15 37 -16.5 69.5t-3.5 64.5zM257 809l-3 -11 l7 -9q15 3 28.5 11.5l27 17t27.5 15.5t30 8q12 -2 20.5 -9.5t16 -16.5t16.5 -15.5t22 -6.5q19 1 36 9.5t31 21t25 28.5t19 32q3 7 8 16t-4 14q-12 -5 -22.5 -14t-20 -18t-20.5 -16.5t-25 -9.5q-11 1 -17 7.5t-11 14.5t-10.5 15.5t-15.5 10.5q-5 1 -9 1h-9q-22 -2 -44.5 -9 t-42.5 -19t-36 -29t-24 -39z" glyph-name="otilde" unicode="õ" horiz-adv-x="702"/>
<glyph d="M78 283q6 -36 7 -79t8.5 -83t26.5 -73t63 -48h68q59 1 118 15.5t112 42.5t98 68t77 91q19 28 31.5 61t16 67.5t-3 68.5t-25.5 65q-20 41 -43.5 86t-55 82.5t-72 61.5t-93.5 23q-25 0 -49 -6.5t-47 -14.5q-62 -26 -121.5 -63t-98.5 -94q-19 -35 -24 -69.5t-3.5 -68.5 t6 -67.5t4.5 -65.5zM180 261q0 29 -1.5 58t-2 58t1 57.5t6.5 57.5q15 36 39 62t53 42.5t61.5 24t64.5 7.5q36 0 65 -15t52.5 -39t41.5 -54t32 -58q19 -46 17 -90.5t-20.5 -85.5t-50.5 -76.5t-71 -62.5t-83 -44.5t-86 -21.5q-28 -1 -56.5 9.5t-42.5 36.5q-15 37 -16.5 69.5 t-3.5 64.5zM279 856q-7 -10 -7 -21q0 -10 5 -19t14.5 -14t21.5 -3q29 4 51.5 24.5t36.5 44.5q7 9 6.5 18.5t-6.5 17t-16 11.5t-20 2q-28 -2 -51.5 -19t-34.5 -42zM453 857q-6 -9 -6.5 -20t4.5 -20t14 -14t21 -3q29 4 51.5 24.5t36.5 44.5q7 9 6.5 18.5t-6.5 17t-15.5 11.5 t-19.5 2q-28 -2 -51.5 -18.5t-34.5 -42.5z" glyph-name="odieresis" unicode="ö" horiz-adv-x="702"/>
<glyph d="M14 335q11 -21 32.5 -31.5t42.5 -17.5h46q62 -1 122.5 4.5t120.5 16.5q8 8 5.5 17.5t-6.5 17.5q-11 19 -30 29t-40 10h-252q-9 1 -19.5 -2t-17.5 -9.5t-9 -15.5t5 -19zM140 156q-4 -10 -6 -20t0 -21q9 -11 17 -13.5t16 -2.5q29 5 55.5 23t38.5 46q4 12 0 21.5t-13 16 t-20 9.5t-21 2q-26 0 -43 -19t-24 -42zM137 502q-5 -11 -3 -22t9 -19.5t17.5 -13t22.5 -2.5q27 3 45.5 24.5t29.5 44.5q6 10 5 19.5t-7.5 16.5t-16 11t-19.5 2q-27 -2 -51 -18.5t-32 -42.5z" glyph-name="divide" unicode="÷" horiz-adv-x="394"/>
<glyph d="M57 283q16 -32 23.5 -67t16 -70t21 -67.5t38.5 -59.5q-3 -4 -5.5 -10.5t-3.5 -12t2 -9.5t12 -3q14 1 27.5 5t26.5 11h47q57 1 115.5 15t111 40.5t95.5 66.5t68 95q16 33 16 65q0 33 -7 65.5t-17 65t-14 65.5q-11 50 -19 99.5t-29 96.5q3 5 6 8.5t6 8.5t5 10t4 11 q-5 13 -12 14.5t-13 2.5q-10 -1 -19 -4.5t-17 -8.5q-16 9 -33.5 12.5t-35.5 3.5q-28 0 -55 -6.5t-53 -14.5q-79 -26 -154.5 -62.5t-136.5 -94.5q-29 -31 -44 -58.5t-19 -56.5q-1 -25 4 -46t12.5 -39.5t15.5 -35.5t14 -35zM165 261q-8 28 -20 57t-19 58t-5 58.5t21 57.5 q53 69 123.5 101t144.5 34h10q-25 -24 -48 -51t-41 -57.5t-28.5 -63.5t-10.5 -69q11 -78 -8 -148.5t-61 -127.5q-14 16 -22.5 34.5t-14 38t-10.5 39.5t-11 39zM544 461q4 -27 11 -54.5t11.5 -55.5t3 -55t-15.5 -54q-44 -72 -107 -114t-135 -47h-4q35 39 62.5 84t38.5 97 q5 25 5 48t-1.5 44t-1.5 40q0 20 5 40q14 41 35 78t48 70q18 -28 27 -59z" glyph-name="oslash" unicode="ø" horiz-adv-x="702"/>
<glyph d="M61 177q-5 -35 6 -68.5t33 -59t53.5 -39.5t68.5 -10q44 2 89.5 12t87.5 29t77.5 47.5t59.5 68.5q18 57 15.5 113t-14.5 111.5t-27.5 110.5t-24.5 110q0 12 -2.5 24.5t-1.5 24.5v26t2 26q-2 20 -20 31.5t-37 9.5q-18 0 -32.5 -11.5t-17.5 -29.5q-6 -44 -1 -86.5t15 -84.5 t22.5 -84t21 -84t10.5 -85t-8 -87q-17 -44 -58.5 -68t-86.5 -28q-21 -3 -39.5 4t-33 20.5t-22.5 32.5t-8 39q-7 46 -8 85.5t-8 77.5q-8 37 -17.5 74t-18 73.5t-14 74t-4.5 76.5q3 25 -15 43t-43 14q-29 -3 -42 -21t-16.5 -41.5t0 -49.5t8.5 -46q3 -25 10 -49.5t14.5 -49 t14.5 -49t10 -49.5l3 -12q2 -14 2 -27t2 -27q0 -6 -0.5 -11.5t-0.5 -11.5v-19v-26q1 -7 -0.5 -13.5t-1.5 -13.5q-1 -5 -1 -9q0 -3 -1 -8zM302 765q1 4 2.5 7.5t0.5 7.5q1 20 0 45.5t-7.5 48.5t-21 40t-41.5 20q-12 0 -23.5 -4t-18.5 -15q-6 -11 -4.5 -22t6 -21.5t9.5 -21 t7 -21.5q0 -12 2 -26t8 -25.5t16.5 -18.5t26.5 -6q11 0 20.5 3.5t17.5 8.5z" glyph-name="ugrave" unicode="ù" horiz-adv-x="543"/>
<glyph d="M61 177q-5 -35 6 -68.5t33 -59t53.5 -39.5t68.5 -10q44 2 89.5 12t87.5 29t77.5 47.5t59.5 68.5q18 57 15.5 113.5t-14.5 112t-27.5 110.5t-24.5 110q0 12 -2.5 24.5t-1.5 24.5v26t2 26q-2 20 -20 31.5t-37 9.5q-18 0 -32.5 -11.5t-17.5 -29.5q-6 -44 -1 -86.5t15 -85 t22.5 -84t21 -84t10.5 -85.5t-8 -87q-17 -44 -58.5 -68t-86.5 -28q-21 -3 -39.5 4t-33 20.5t-22.5 32.5t-8 39q-7 46 -8 85.5t-8 77.5q-8 37 -17.5 74t-18 73.5t-14 74t-4.5 76.5q1 12 -3 23.5t-12 19.5t-19.5 12.5t-23.5 2.5q-28 -4 -41.5 -21.5t-17 -41.5t0 -50t8.5 -46 q3 -26 10 -50.5t14.5 -48.5t14.5 -48.5t10 -49.5l3 -12q2 -14 2 -27t2 -27q0 -6 -0.5 -11.5t-0.5 -11.5v-19v-26q1 -7 -0.5 -13.5t-1.5 -13.5q-1 -5 -1 -9q0 -3 -1 -8zM369 924q-12 10 -32 12q-17 0 -30.5 -7t-25 -18t-20.5 -24.5t-16 -26.5q-7 -11 -17 -21l-19.5 -19.5 t-17 -20.5t-9.5 -25q1 -11 12 -14.5t20 -4.5q29 4 51.5 20t40.5 37.5t32.5 47t26.5 49.5q2 10 4 15z" glyph-name="uacute" unicode="ú" horiz-adv-x="543"/>
<glyph d="M62 177q-6 -35 5 -68.5t33 -59t54 -39.5t68 -10q44 2 89.5 12t87.5 29t77.5 47.5t59.5 68.5q18 57 15 113t-15 111t-28 110t-24 111q-1 12 -2.5 24.5t-1.5 24.5q1 13 1 26t2 26q-2 20 -19.5 31.5t-36.5 9.5q-18 0 -33 -11.5t-18 -29.5q-7 -44 -2.5 -87t14.5 -85t23 -83.5 t22 -83.5t11 -85t-8 -87q-8 -22 -23.5 -39t-35 -29t-41.5 -19t-44 -9q-21 -3 -40 4t-33 20.5t-22 32.5t-9 39q-7 46 -8.5 85.5t-8.5 77.5q-8 37 -18 73.5t-18 74t-13.5 75t-4.5 75.5q4 25 -14 43t-43 14q-29 -3 -42.5 -20.5t-17 -41.5t-0.5 -50t8 -46q3 -26 10 -50.5 t14.5 -48.5t14.5 -48.5t11 -49.5l3 -12q2 -14 2.5 -27t1.5 -27v-23v-19v-26q1 -7 -0.5 -13.5t-1.5 -13.5q0 -5 -0.5 -8.5t-0.5 -8.5zM265 848l7 -3l16 -36t18 -35q6 -4 13 -2.5t14 0.5q8 8 13.5 17t7.5 20q-10 19 -17 39t-12 41q-5 10 -9.5 19.5t-12.5 17.5h-10 q-26 -15 -51 -31.5t-50 -34.5q-15 -10 -29.5 -22.5t-17.5 -32.5l-3 -15q3 -11 14 -13q16 4 29 14.5t25 22.5t25 22t30 12z" glyph-name="ucircumflex" unicode="û" horiz-adv-x="543"/>
<glyph d="M62 177q-5 -35 5.5 -68.5t32.5 -59t53.5 -39.5t68.5 -10q45 2 90.5 12t87.5 29t77.5 47.5t59.5 68.5q18 57 14 113t-17.5 111t-29.5 109.5t-22 110.5q1 13 -1.5 25t-1.5 24q2 13 2 26t2 26q-1 20 -18 31.5t-36 9.5q-18 1 -33.5 -11.5t-19.5 -29.5q-9 -44 -5 -87t14 -84.5 t22.5 -83.5t22.5 -83.5t13 -84.5t-7 -87q-8 -22 -23.5 -39t-35 -29t-41.5 -19t-44 -9q-21 -3 -40 4t-33 20.5t-22 32.5t-9 39q-7 46 -9 85.5t-9 77.5q-10 36 -20.5 73t-18.5 74t-12.5 74.5t-2.5 75.5q3 12 -1 23t-12 19t-19.5 12t-23.5 3q-28 -3 -42 -20.5t-18.5 -41.5 t-2 -50t7.5 -46q6 -51 23.5 -98.5t28.5 -97.5q1 -3 1 -7q0 -3 2 -5q2 -14 3 -27t2 -27v-23v-19v-26v-14q0 -6 -2 -13v-9q0 -3 -1 -8zM134 844q-6 -10 -5.5 -21t6.5 -20t15.5 -14t21.5 -3q29 4 49.5 25t32.5 45q6 10 4 20t-9 16.5t-16.5 10t-19.5 2.5q-27 -1 -49 -18t-30 -43 zM307 845q-6 -10 -5 -21t6.5 -20t15 -14t21.5 -3q28 4 49.5 25t32.5 45q6 10 4 19.5t-8.5 16.5t-16.5 10.5t-20 2.5q-27 -1 -48.5 -18.5t-30.5 -42.5z" glyph-name="udieresis" unicode="ü" horiz-adv-x="543"/>
<glyph d="M174 68q-5 -10 -6 -22t2.5 -22.5t12 -17.5t22.5 -6q14 -1 24.5 5.5t18.5 15.5q38 72 72.5 146t57.5 153q12 45 18.5 89t13 86.5t16 84t28.5 80.5q5 17 12.5 33t5.5 34q2 6 1 12t1 12q-6 9 -15.5 15t-20.5 6q-19 -4 -33.5 -16t-25 -27.5t-18 -33.5t-12.5 -35 q-23 -53 -32.5 -109.5t-11.5 -113.5q-3 -14 -9 -30.5t-23 -19.5q-28 1 -53.5 12t-46.5 28.5t-37 40.5t-25 48q-6 22 -2 43.5t11.5 42t15 41.5t7.5 43q4 20 -10 33.5t-34 11.5q-38 -8 -61 -34t-33.5 -60.5t-10 -72.5t9.5 -69q15 -44 44.5 -75t65 -57.5t71.5 -51t65 -54.5 q-2 -26 -10.5 -50t-20 -47t-24 -45.5t-21.5 -46.5zM395 932q-12 10 -32 12q-17 0 -30.5 -6.5t-24.5 -18t-20 -25t-16 -26.5q-8 -11 -17.5 -20.5t-19 -19.5t-17 -21t-9.5 -25q1 -12 12.5 -15t20.5 -4q29 4 51.5 19.5t40.5 37.5t31.5 47.5t25.5 49.5q2 10 4 15z" glyph-name="yacute" unicode="ý" horiz-adv-x="522"/>
<glyph d="M73 751q-40 -73 -54.5 -156.5t9.5 -164.5q35 -81 44 -162.5t-18 -158.5q-5 -20 -13 -38.5t-17 -36.5q-2 -7 -2.5 -14t3.5 -14q11 -5 18 -5.5t13 -0.5q21 1 40.5 11.5t31.5 28.5q5 8 9 16.5t9 16.5q5 5 10 11t10 11q24 14 49.5 24t51.5 19t52 17.5t51 20.5q41 21 78 47 t65 63q17 22 24 45t7.5 46.5t-3.5 46t-9 43.5q-7 44 -31.5 78t-59 56.5t-76 32.5t-83.5 7q-39 -2 -78 -8t-77 -14q4 18 8 35.5t9 34.5q2 6 4.5 11t4.5 11q4 9 6.5 21t0.5 23t-9 18t-21 7q-17 1 -30.5 -8.5t-26.5 -20.5zM196 231q0 30 -6.5 59t-15 57.5t-17.5 56.5t-13 58 q-1 28 14.5 43.5t38 23t48.5 9.5t46 2q19 2 39.5 -1.5t37.5 -13t28.5 -25t14.5 -37.5q15 -47 2 -89.5t-44 -75t-73.5 -52.5t-85.5 -22h-8q-2 2 -3 3.5t-3 3.5z" glyph-name="thorn" unicode="þ" horiz-adv-x="537"/>
<glyph d="M175 68q-5 -9 -6 -21.5t2.5 -23.5t11.5 -18t22 -5q14 -1 24.5 5.5t18.5 15.5q39 72 73 146t55 153q10 45 15.5 89.5t12 87t17.5 83.5t32 80q5 17 13.5 32.5t7.5 34.5q1 6 1.5 12t0.5 12q-11 21 -35 21q-19 -5 -34 -16.5t-26.5 -27t-19.5 -33.5t-13 -35 q-25 -52 -36.5 -108.5t-11.5 -113.5q-2 -14 -8 -31t-23 -20q-28 1 -53.5 12t-47 28.5t-38 40t-25.5 48.5q-6 23 -1 44t13 41.5t16 41.5t9 43q5 20 -8.5 34t-33.5 11q-38 -8 -61.5 -33.5t-35.5 -60t-12.5 -72.5t7.5 -70q16 -44 46.5 -75t66.5 -57t72.5 -50.5t65.5 -55.5 q-1 -26 -9.5 -50t-20 -47t-23.5 -45.5t-21 -46.5zM317 855q-6 -10 -5 -21t6.5 -19.5t15 -13.5t21.5 -3q28 4 49.5 24t32.5 45q6 10 4 20t-9 16.5t-17 10t-20 2.5q-27 -2 -48.5 -19t-29.5 -42zM143 854q-6 -10 -5 -21t7 -19.5t15.5 -13.5t21.5 -3q28 4 49.5 24t32.5 45 q6 10 4 19.5t-9 16.5t-17 10.5t-20 2.5q-27 -1 -48.5 -18.5t-30.5 -42.5z" glyph-name="ydieresis" unicode="ÿ" horiz-adv-x="531"/>
</font>
</defs>
</svg>
