<?xml version="1.0" encoding="UTF-8" standalone="no"?>
<!DOCTYPE svg  PUBLIC '-//W3C//DTD SVG 1.1//EN'  'http://www.w3.org/Graphics/SVG/1.1/DTD/svg11.dtd'>
<svg version="1.1" xmlns="http://www.w3.org/2000/svg">
<defs>
<font id="KomikaTitle-Ghost" horiz-adv-x="1019">
<font-face underline-thickness="50" panose-1="2 0 5 6 0 0 0 2 0 4" units-per-em="1000" font-weight="400" bbox="-178 -283 2096 1142" x-height="774" descent="-200" unicode-range="U+0020-FB02" cap-height="771" ascent="800" font-family="Komika Title - Ghost" underline-position="-125"/>
<missing-glyph horiz-adv-x="530"/>
<glyph horiz-adv-x="530" glyph-name=".notdef"/>
<glyph horiz-adv-x="0" glyph-name=".null"/>
<glyph horiz-adv-x="530" glyph-name="nonmarkingreturn"/>
<glyph unicode=" " horiz-adv-x="530" glyph-name="space"/>
<glyph unicode=" " horiz-adv-x="530" glyph-name="space"/>
<glyph unicode="˙" horiz-adv-x="486" d="M88 930v-9q0 -24 13 -43.5t35.5 -33.5t52.5 -21.5t64 -7.5h9q36 0 64.5 8.5t48.5 20.5t32.5 25.5t17.5 23.5l-1 -1q9 16 9 36q0 28 -30 55t-95 41q-14 2 -28.5 3.5t-28.5 1.5q-36 0 -65 -8t-50 -22t-33 -32t-15 -37zM95 936q3 20 18.5 38.5t42 30.5t62.5 16t80 -4 q58 -12 85 -35t27 -46q0 -16 -7 -29q-4 -9 -15.5 -21t-30 -22.5t-44.5 -18t-59 -7.5q-34 -1 -64 5.5t-51.5 19.5t-33.5 31.5t-10 41.5z" glyph-name="dotaccent"/>
<glyph unicode="˚" d="M636 974q0 8 -4 14.5t-13 7.5h-4q-13 0 -29.5 -6.5t-33 -16.5t-31 -22t-24.5 -24q-8 -11 -12 -21.5t-4 -19.5q0 -8 6 -14t21 -8q4 -1 6 -1q28 0 57 18.5t46 46.5q19 24 19 46zM612 1019q15 -2 22.5 -11t8 -22.5t-4.5 -28.5t-15 -28q-11 -17 -26 -31.5t-32.5 -24 t-36 -14.5t-34.5 -2q-18 2 -26.5 11t-9.5 21.5t4 27.5t16 28t27.5 27t35.5 25t37.5 17t33.5 5zM725 1044q-25 6 -61 11t-76 7q-29 2 -63.5 -1.5t-59.5 -10.5q-57 -17 -95.5 -41.5t-57.5 -51.5t-16.5 -53.5t28.5 -46.5q10 -9 30.5 -16t40.5 -11q26 -6 58.5 -8.5t62.5 -3.5 q46 -2 80.5 1t66.5 13q45 16 74 38.5t44 46.5t16.5 47.5t-9.5 43.5q-8 11 -21.5 19.5t-41.5 16.5zM737 1050q31 -8 46 -18t25 -23q13 -24 13 -47q0 -40 -35 -82t-111 -70q-51 -16 -115 -16h-18q-9 0 -19 1q-32 1 -64.5 3.5t-58.5 8.5q-22 4 -44 11.5t-33 18.5q-34 27 -34 65 q0 42 46.5 85t133.5 69q23 7 52 10t57 3h18q42 -2 79.5 -7t61.5 -11v-1z" glyph-name="ring"/>
<glyph unicode="ˇ" horiz-adv-x="983" d="M285 1131q-22 1 -28 -3.5t-1 -15.5q9 -19 20.5 -43t23 -51t22 -54.5t18.5 -52.5q3 -16 10 -23t20 -16q15 -8 32 -14t34 -14q17 -6 31 -5.5t31 11.5q34 19 69 42.5t67 47t59 45t45 37.5q20 17 -2 36q-14 11 -25.5 19t-25.5 16q-8 5 -14 7t-12 2q-13 0 -22 -9 q-35 -26 -76 -55.5t-89 -60.5q-17 36 -30.5 68t-27.5 54q-17 22 -52 26q-22 4 -40.5 5t-36.5 1zM293 1138q20 0 39 -1t41 -5q40 -4 63 -34q8 -13 18.5 -36t22.5 -49l-1 1q2 -5 5 -11t5 -12q35 23 66.5 45.5l59.5 42.5l24 18l-2 -1q13 13 33 13q14 0 33 -11q14 -8 27 -16.5 t27 -20.5q17 -15 17 -30q0 -17 -15 -29v1q-18 -16 -45 -37.5t-59.5 -45.5t-68 -47.5t-70.5 -43.5l1 1q-23 -15 -42 -15q-17 0 -34 7l-30 12h1q-11 5 -21.5 9t-19.5 9q-15 11 -23 19.5t-12 28.5l1 -1q-7 23 -17.5 49.5t-22 53.5t-23.5 51.5t-21 44.5l1 -1q-5 12 -5 16 q0 25 40 25h7z" glyph-name="caron"/>
<glyph unicode="ı" horiz-adv-x="458" d="M344 715q-35 14 -81 26.5t-86 18.5q-40 7 -59.5 2t-30.5 -27q-16 -37 -34 -90t-37 -113t-37 -124t-33.5 -123t-26.5 -109.5t-15 -84.5q-5 -26 5 -40.5t43 -25.5q32 -11 66.5 -18t72.5 -14q38 -6 51 -1t19 22q13 44 30 98.5t36.5 113.5t40.5 120t42 117.5t41 106.5t37 87 q4 10 5 18t-3.5 14.5t-15.5 12.5t-30 13zM357 721q33 -13 46 -23.5t13 -28.5q0 -6 -2 -13t-6 -17q-17 -37 -37 -86t-40.5 -105.5t-41 -117t-40 -119t-36.5 -112.5t-30 -98q-7 -18 -17 -26t-33 -8q-16 0 -37 3q-38 7 -72 14t-69 19q-32 11 -46 25t-14 38q0 5 0.5 9.5t1.5 9.5 q4 34 15 85t26.5 110.5t33.5 123t36.5 123.5t37 112.5t33.5 89.5q12 23 27 32.5t40 9.5q22 0 42 -4h-1q41 -6 88.5 -19t82.5 -27h-1z" glyph-name="dotlessi"/>
<glyph unicode="∕" horiz-adv-x="1239" d="M1044 704q-9 9 -12.5 11t-5.5 2t-6 1t-16 9q-45 32 -103 2q-41 -20 -97 -51t-121.5 -70t-137 -82.5t-143.5 -88.5t-141 -88.5t-129.5 -82t-108 -69.5t-77.5 -51q-31 -20 -38 -36q-2 -8 0 -16t14 -16q7 -6 7.5 -4.5t1 3.5t3.5 2q2 0 14 -7q23 -14 42 -13.5t44 17.5 q52 32 131.5 79t172 101t192 111t192 109.5t171 96.5t129.5 71q28 15 35 27t-13 33zM1063 707q18 -18 18 -37q0 -14 -11.5 -24.5t-32.5 -22.5q-51 -27 -129.5 -71t-171 -96.5t-191.5 -109.5t-191.5 -111t-172 -101t-131.5 -79v1q-30 -20 -54 -20q-23 0 -48 15q-3 -1 -11 -1 t-17 8q-11 8 -15.5 16.5t-4.5 18.5q0 3 0.5 7t2.5 11q9 18 43 40v-1q30 20 78 51t108.5 69.5t129.5 82.5t141.5 89t144 89t137 82.5t121.5 69.5t96 51q32 17 60 17q29 0 58 -20v1q9 -5 11 -6.5t3 -1.5q5 0 10.5 -2t18.5 -15z" glyph-name="fraction"/>
<glyph unicode="ﬁ" horiz-adv-x="1329" d="M-35 4q18 -5 40 -10.5t45 -10.5t45.5 -8.5t40.5 -3.5q27 0 44.5 8t21.5 29l-1 -3q17 52 39.5 117t48.5 135q77 11 156.5 20.5t154.5 17.5q35 2 50.5 10t15.5 26q0 11 -8 25l1 -1q-9 18 -19.5 36.5t-31.5 38.5q-31 31 -94 31h-12q-69 -1 -137 -6q5 14 11.5 30t12.5 31 q7 19 13.5 36.5t14.5 32.5q33 3 81 7.5t103.5 9.5t114.5 10.5t112 10.5q7 1 13.5 1.5t12.5 1.5q-22 -66 -44.5 -141.5t-42 -148t-33.5 -135.5t-19 -103q-1 -5 -1.5 -9t-0.5 -9q0 -24 14 -38.5t47 -25.5q35 -13 69 -19.5t71 -13.5q21 -3 37 -3q24 0 33.5 6.5t15.5 21.5 q13 44 30 99t36.5 114.5t40.5 120.5t42 118.5t41 108t38 87.5l-1 -1q3 6 5 11.5t2 12.5q0 24 -26 47t-69 41.5t-97 30t-111 11.5h-18q-8 0 -16 -1q-50 -3 -120.5 -8t-150 -11t-162 -13t-157.5 -13.5t-136 -13.5t-98 -13q-13 -2 -13 -15v-15q0 -39 -9.5 -91.5t-24 -110.5 t-32 -118t-34.5 -115q-19 -61 -33 -110t-19 -75v-16q0 -25 10.5 -39t45.5 -27h1zM-39 26q-17 6 -27 12t-14.5 13.5t-5 17.5t0.5 23q4 27 18 74t31.5 105t36.5 122t34.5 126t24.5 116.5t7 93.5q37 6 98 13t136 13.5t157.5 13.5t161.5 13t149.5 11t120.5 8q63 4 125.5 -7 t109.5 -30.5t70.5 -44.5t10.5 -49q-18 -37 -37.5 -87t-40.5 -106.5t-41.5 -117.5t-40 -120t-36.5 -113.5t-30 -98.5q-3 -9 -7.5 -14.5t-12 -8t-20 -2t-31.5 3.5q-38 7 -72 14t-66 18q-33 11 -43.5 25.5t-5.5 40.5q3 28 11.5 67.5t19.5 86t25 97.5t29 102.5t30.5 101 t30.5 92.5q-56 -5 -123 -11.5t-132 -12.5t-121 -11t-91 -8q-18 -33 -32 -74.5t-36 -87.5q40 3 79.5 5t81.5 3q67 3 96 -27q19 -18 29 -35.5t18 -34.5q11 -20 1 -28t-48 -11q-78 -8 -159.5 -18t-159.5 -21q-28 -72 -51 -139.5t-41 -121.5q-3 -18 -26.5 -22t-57 0t-70 13 t-64.5 17z" glyph-name="fi"/>
<glyph unicode="ﬂ" horiz-adv-x="1551" d="M1349 50q22 3 34 6t15.5 7t1 10.5t-8.5 17.5q-7 17 -18.5 35t-29.5 35q-18 18 -39.5 23.5t-59.5 3.5q-66 -3 -124 -7t-123 -11q22 64 48 132t53 134t53.5 127t50.5 110q11 21 3.5 38.5t-29 30.5t-52.5 22.5t-65.5 15.5t-69.5 8.5t-64 1.5q-51 -1 -124 -4.5t-156 -8 t-170 -10.5t-165.5 -12.5t-142 -13t-100.5 -12.5q2 -39 -7 -93.5t-24.5 -116.5t-34.5 -126t-36.5 -122t-31.5 -105t-18 -74q-1 -13 -0.5 -23t5 -17.5t14.5 -13.5t27 -12q28 -8 64.5 -17t70 -13t57 0t26.5 22q18 54 41 121.5t51 139.5q78 11 159.5 21t159.5 18q38 3 48 11 t-1 28q-8 17 -18 34.5t-29 35.5q-29 30 -96 27q-42 -1 -81.5 -3t-79.5 -5q22 46 36 87.5t32 74.5q31 3 83.5 6.5t114.5 7.5t128 8t125 8q-25 -62 -49.5 -131.5t-45.5 -137t-37.5 -128t-23.5 -105.5q-7 -24 5 -41.5t37 -31.5q33 -18 52.5 -29.5t44.5 -22.5q10 -5 21 -9 t27 -6.5t38 -1.5t54 7q88 12 184.5 24.5t189.5 24.5zM1359 27q-24 -3 -48.5 -6.5t-49.5 -6.5q-71 -9 -140.5 -18t-135.5 -18h1q-38 -7 -69 -7q-30 0 -48 5.5t-32 12.5q-17 8 -31.5 16t-31.5 17q-8 5 -16.5 9.5t-19.5 10.5q-23 14 -37 30.5t-14 39.5v8q0 5 2 11q7 43 22 101 t35.5 122.5t43.5 131.5t47 127q-7 0 -13.5 -0.5t-13.5 -0.5q-54 -3 -111.5 -7t-110 -7.5t-97 -7t-74.5 -5.5q-8 -15 -14.5 -32.5t-13.5 -36.5q-6 -15 -12.5 -31t-11.5 -30q68 5 137 6h12q65 0 95 -32q20 -20 30.5 -38.5t19.5 -35.5l-1 1q8 -14 8 -25q0 -18 -15.5 -26 t-50.5 -10q-75 -8 -154.5 -17.5t-156.5 -20.5q-26 -70 -48.5 -135t-39.5 -117l1 3q-4 -21 -21.5 -29t-44.5 -8q-19 0 -41.5 3.5t-45.5 8.5t-45 10.5t-40 10.5q-35 13 -45.5 27t-10.5 39v16q5 26 19 75t33 110q17 55 34.5 115t32 118t24 110.5t9.5 91.5v15q0 13 13 15 q36 6 100 12.5t142.5 13t165.5 12.5t170.5 10.5t157 8t124.5 4.5h14q42 0 92 -6.5t92.5 -20t71.5 -34t29 -48.5q0 -7 -2.5 -14.5t-6.5 -15.5q-23 -47 -48 -104t-50.5 -119.5t-50.5 -128t-47 -127.5q57 6 110.5 9.5t113.5 6.5q6 0 11.5 0.5t10.5 0.5q31 0 51.5 -7.5 t37.5 -24.5h-1q20 -19 32 -38t20 -38l-1 3q5 -9 8.5 -15.5t3.5 -14.5q0 -17 -14 -23t-51 -11z" glyph-name="fl"/>
<glyph unicode="Ł" horiz-adv-x="968" d="M-111 371q-89 -27 -9 -53q29 -11 65.5 -20t81.5 -18q29 -5 51 -6t42 1q-12 -40 -20 -75.5t-13 -64.5q-7 -24 4.5 -41.5t36.5 -31.5q33 -18 52.5 -29.5t44.5 -22.5q10 -5 21.5 -9t27 -6.5t38 -1.5t54.5 7q88 12 184.5 24.5t189.5 24.5q22 3 33.5 6t15 7t1.5 10.5t-8 17.5 q-7 17 -18.5 35t-30.5 35q-18 18 -39.5 23.5t-59.5 3.5q-66 -3 -123.5 -7t-122.5 -11q18 51 38 105.5t41 109.5q80 23 161 46t160 44q45 11 55 20t-22 23q-25 10 -50 22t-66 23q-32 11 -69 10.5t-79 -10.5q-5 -2 -9.5 -2.5t-7.5 -1.5q13 31 26 59.5t27 54.5q11 20 3 31.5 t-43 25.5t-81 25.5t-86 17.5q-38 7 -58.5 2.5t-34.5 -26.5q-28 -57 -58 -132t-56 -155q-86 -26 -161 -49t-129 -41zM-108 377q54 17 126.5 39.5t156.5 47.5q26 78 56 153t59 134q11 17 26 24.5t38 7.5q10 0 21 -1t22 -3h-1q41 -6 88.5 -17.5t82.5 -26.5h-1 q30 -11 43.5 -22.5t13.5 -28.5q0 -7 -2.5 -13t-6.5 -14q-10 -18 -19.5 -39.5t-20.5 -45.5q17 4 35 5.5t36 1.5q19 0 37.5 -2.5t35.5 -8.5l-1 1q26 -7 47 -15.5t41 -18.5l30 -12q33 -14 33 -32q0 -23 -68 -40v1q-78 -21 -157 -43t-157 -45q-36 -94 -68 -186q57 6 110 9.5 t113 6.5q6 0 12 0.5t11 0.5q32 0 51.5 -7.5t36.5 -24.5h-1q20 -18 32.5 -37.5t20.5 -38.5l-1 2q5 -9 8 -15.5t3 -13.5q0 -17 -14 -23t-50 -11q-24 -3 -48.5 -6.5t-49.5 -6.5q-71 -9 -140.5 -18t-135.5 -18h1q-21 -4 -38 -5.5t-32 -1.5q-30 0 -48 5.5t-32 12.5 q-17 8 -31.5 16t-31.5 17q-8 5 -16.5 9.5t-19.5 10.5q-24 14 -37 30.5t-13 39.5v8q0 5 2 11q4 24 10.5 54.5t16.5 65.5h-8q-32 0 -67 7q-44 9 -80.5 18.5t-68.5 20.5q-47 15 -47 39t56 42z" glyph-name="Lslash"/>
<glyph unicode="ł" horiz-adv-x="968" d="M-111 371q-89 -27 -9 -53q29 -11 65.5 -20t81.5 -18q29 -5 51 -6t42 1q-12 -40 -20 -75.5t-13 -64.5q-7 -24 4.5 -41.5t36.5 -31.5q33 -18 52.5 -29.5t44.5 -22.5q10 -5 21.5 -9t27 -6.5t38 -1.5t54.5 7q88 12 184.5 24.5t189.5 24.5q22 3 33.5 6t15 7t1.5 10.5t-8 17.5 q-7 17 -18.5 35t-30.5 35q-18 18 -39.5 23.5t-59.5 3.5q-66 -3 -123.5 -7t-122.5 -11q18 51 38 105.5t41 109.5q80 23 161 46t160 44q45 11 55 20t-22 23q-25 10 -50 22t-66 23q-32 11 -69 10.5t-79 -10.5q-5 -2 -9.5 -2.5t-7.5 -1.5q13 31 26 59.5t27 54.5q11 20 3 31.5 t-43 25.5t-81 25.5t-86 17.5q-38 7 -58.5 2.5t-34.5 -26.5q-28 -57 -58 -132t-56 -155q-86 -26 -161 -49t-129 -41zM-108 377q54 17 126.5 39.5t156.5 47.5q26 78 56 153t59 134q11 17 26 24.5t38 7.5q10 0 21 -1t22 -3h-1q41 -6 88.5 -17.5t82.5 -26.5h-1 q30 -11 43.5 -22.5t13.5 -28.5q0 -7 -2.5 -13t-6.5 -14q-10 -18 -19.5 -39.5t-20.5 -45.5q17 4 35 5.5t36 1.5q19 0 37.5 -2.5t35.5 -8.5l-1 1q26 -7 47 -15.5t41 -18.5l30 -12q33 -14 33 -32q0 -23 -68 -40v1q-78 -21 -157 -43t-157 -45q-36 -94 -68 -186q57 6 110 9.5 t113 6.5q6 0 12 0.5t11 0.5q32 0 51.5 -7.5t36.5 -24.5h-1q20 -18 32.5 -37.5t20.5 -38.5l-1 2q5 -9 8 -15.5t3 -13.5q0 -17 -14 -23t-50 -11q-24 -3 -48.5 -6.5t-49.5 -6.5q-71 -9 -140.5 -18t-135.5 -18h1q-21 -4 -38 -5.5t-32 -1.5q-30 0 -48 5.5t-32 12.5 q-17 8 -31.5 16t-31.5 17q-8 5 -16.5 9.5t-19.5 10.5q-24 14 -37 30.5t-13 39.5v8q0 5 2 11q4 24 10.5 54.5t16.5 65.5h-8q-32 0 -67 7q-44 9 -80.5 18.5t-68.5 20.5q-47 15 -47 39t56 42z" glyph-name="lslash"/>
<glyph unicode="Ž" horiz-adv-x="825" d="M285 1101q-22 1 -28 -3.5t-1 -15.5q9 -19 20.5 -43t23 -51t22 -54.5t18.5 -52.5q3 -16 10 -23t20 -16q15 -8 32 -14t34 -14q17 -6 31 -5.5t31 11.5q34 19 69 42.5t67 47t59 45t45 37.5q20 17 -2 36q-14 11 -25.5 19t-25.5 16q-8 5 -14 7t-12 2q-13 0 -22 -9 q-35 -26 -76 -55.5t-89 -60.5q-17 36 -30.5 68t-27.5 54q-17 22 -52 26q-22 4 -40.5 5t-36.5 1zM293 1108q20 0 39 -1t41 -5q40 -4 63 -34q8 -13 18.5 -36t22.5 -49l-1 1q2 -5 5 -11t5 -12q35 23 66.5 45.5l59.5 42.5l24 18l-2 -1q13 13 33 13q14 0 33 -11q14 -8 27 -16.5 t27 -20.5q17 -15 17 -30q0 -17 -15 -29v1q-18 -16 -45 -37.5t-59.5 -45.5t-68 -47.5t-70.5 -43.5l1 1q-23 -15 -42 -15q-17 0 -34 7l-30 12h1q-11 5 -21.5 9t-19.5 9q-15 11 -23 19.5t-12 28.5l1 -1q-7 23 -17.5 49.5t-22 53.5t-23.5 51.5t-21 44.5l1 -1q-5 12 -5 16 q0 25 40 25h7zM428 609q-77 -60 -157.5 -128.5t-153.5 -134.5t-133 -124.5t-95 -97.5q-11 -12 -11.5 -22t5.5 -19t16 -17t20 -15q32 -18 53 -30t46 -24q12 -6 24.5 -10t28.5 -6.5t37 -1.5t51 6q44 7 93 13.5t99.5 13t100.5 12.5t97 12q38 3 48.5 11t-0.5 28q-13 33 -51 71 q-14 16 -41.5 22.5t-65.5 3.5q-58 -5 -110.5 -10.5t-105.5 -13.5q134 115 275.5 232t274.5 223q25 19 26 35.5t-11 34.5q-8 14 -16.5 30t-27.5 37q-14 17 -33 24t-57 6q-70 -2 -148.5 -5.5t-156.5 -8.5t-151 -12t-131 -15q-25 -5 -32.5 -11.5t3.5 -24.5q14 -18 35.5 -42 t35.5 -38q25 -18 54 -23t64 -1q47 6 95 10t106 10zM-114 126q33 37 88 90.5t122 115t142 126t148 123.5q-9 -1 -18 -1.5t-17 -1.5q-31 -3 -59 -5.5t-56 -6.5q-8 -1 -15.5 -1.5t-15.5 -0.5q-27 0 -51 6.5t-46 22.5q-7 7 -17 17.5t-20 22t-19.5 22.5t-16.5 20q-5 8 -8 15 t-3 12q0 17 12.5 23t35.5 11q58 8 131 15t151.5 12t157.5 8.5t150 5.5h8q38 0 58 -8t36 -28q15 -17 23.5 -31t14.5 -25q1 -3 2.5 -6t3.5 -5q14 -20 14 -39q0 -13 -7.5 -25.5t-24.5 -26.5q-124 -99 -254 -206t-256 -215q37 5 75 8.5t79 7.5q2 0 5 0.5t6 0.5q6 1 12 1h12 q67 0 96 -32v1q39 -40 53 -76q8 -14 8 -23q0 -18 -16.5 -26t-51.5 -11h1q-29 -4 -58.5 -7.5t-60.5 -7.5q-70 -8 -140 -17t-131 -19q-39 -6 -65 -6q-30 0 -49 5.5t-36 13.5q-23 11 -41 21.5t-45 25.5q-4 2 -7 4.5t-8 4.5q-17 12 -32 26.5t-15 34.5q0 16 15 34z" glyph-name="Zcaron"/>
<glyph unicode="ž" horiz-adv-x="825" d="M285 1101q-22 1 -28 -3.5t-1 -15.5q9 -19 20.5 -43t23 -51t22 -54.5t18.5 -52.5q3 -16 10 -23t20 -16q15 -8 32 -14t34 -14q17 -6 31 -5.5t31 11.5q34 19 69 42.5t67 47t59 45t45 37.5q20 17 -2 36q-14 11 -25.5 19t-25.5 16q-8 5 -14 7t-12 2q-13 0 -22 -9 q-35 -26 -76 -55.5t-89 -60.5q-17 36 -30.5 68t-27.5 54q-17 22 -52 26q-22 4 -40.5 5t-36.5 1zM293 1108q20 0 39 -1t41 -5q40 -4 63 -34q8 -13 18.5 -36t22.5 -49l-1 1q2 -5 5 -11t5 -12q35 23 66.5 45.5l59.5 42.5l24 18l-2 -1q13 13 33 13q14 0 33 -11q14 -8 27 -16.5 t27 -20.5q17 -15 17 -30q0 -17 -15 -29v1q-18 -16 -45 -37.5t-59.5 -45.5t-68 -47.5t-70.5 -43.5l1 1q-23 -15 -42 -15q-17 0 -34 7l-30 12h1q-11 5 -21.5 9t-19.5 9q-15 11 -23 19.5t-12 28.5l1 -1q-7 23 -17.5 49.5t-22 53.5t-23.5 51.5t-21 44.5l1 -1q-5 12 -5 16 q0 25 40 25h7zM428 609q-77 -60 -157.5 -128.5t-153.5 -134.5t-133 -124.5t-95 -97.5q-11 -12 -11.5 -22t5.5 -19t16 -17t20 -15q32 -18 53 -30t46 -24q12 -6 24.5 -10t28.5 -6.5t37 -1.5t51 6q44 7 93 13.5t99.5 13t100.5 12.5t97 12q38 3 48.5 11t-0.5 28q-13 33 -51 71 q-14 16 -41.5 22.5t-65.5 3.5q-58 -5 -110.5 -10.5t-105.5 -13.5q134 115 275.5 232t274.5 223q25 19 26 35.5t-11 34.5q-8 14 -16.5 30t-27.5 37q-14 17 -33 24t-57 6q-70 -2 -148.5 -5.5t-156.5 -8.5t-151 -12t-131 -15q-25 -5 -32.5 -11.5t3.5 -24.5q14 -18 35.5 -42 t35.5 -38q25 -18 54 -23t64 -1q47 6 95 10t106 10zM-114 126q33 37 88 90.5t122 115t142 126t148 123.5q-9 -1 -18 -1.5t-17 -1.5q-31 -3 -59 -5.5t-56 -6.5q-8 -1 -15.5 -1.5t-15.5 -0.5q-27 0 -51 6.5t-46 22.5q-7 7 -17 17.5t-20 22t-19.5 22.5t-16.5 20q-5 8 -8 15 t-3 12q0 17 12.5 23t35.5 11q58 8 131 15t151.5 12t157.5 8.5t150 5.5h8q38 0 58 -8t36 -28q15 -17 23.5 -31t14.5 -25q1 -3 2.5 -6t3.5 -5q14 -20 14 -39q0 -13 -7.5 -25.5t-24.5 -26.5q-124 -99 -254 -206t-256 -215q37 5 75 8.5t79 7.5q2 0 5 0.5t6 0.5q6 1 12 1h12 q67 0 96 -32v1q39 -40 53 -76q8 -14 8 -23q0 -18 -16.5 -26t-51.5 -11h1q-29 -4 -58.5 -7.5t-60.5 -7.5q-70 -8 -140 -17t-131 -19q-39 -6 -65 -6q-30 0 -49 5.5t-36 13.5q-23 11 -41 21.5t-45 25.5q-4 2 -7 4.5t-8 4.5q-17 12 -32 26.5t-15 34.5q0 16 15 34z" glyph-name="zcaron"/>
<glyph unicode="!" horiz-adv-x="587" d="M-70 72q-2 -24 10 -43t33.5 -31.5t51.5 -19t64 -6.5q33 0 59 7.5t45 18.5t31 23.5t17 21.5q6 12 5 28t-13 31.5t-36.5 29t-63.5 20.5q-45 9 -81.5 5t-62.5 -16t-41 -30.5t-18 -38.5zM-77 66q3 19 14.5 37t31.5 31.5t48 22t64 8.5q31 0 63 -6q35 -6 59 -17.5t38.5 -25.5 t21 -29.5t6.5 -29.5q0 -15 -7 -29q-6 -11 -19 -24.5t-33.5 -25.5t-48.5 -20.5t-64 -8.5h-4q-35 0 -66 7t-54 21t-36.5 34t-13.5 46v9zM443 769q-35 14 -80 25.5t-83 17.5q-41 8 -60 2.5t-30 -28.5q-22 -50 -48 -116t-51 -135.5t-46.5 -137t-34.5 -119.5q-8 -26 1.5 -40 t42.5 -25q31 -11 64.5 -18t71.5 -12q33 -5 48.5 -0.5t21.5 24.5q20 55 46 117t55.5 126.5t61 129t62.5 125.5q11 21 2 35.5t-44 28.5zM457 775q29 -13 43 -26t14 -31q0 -10 -8 -28q-31 -60 -62.5 -124.5t-60.5 -128.5t-55 -126t-46 -117v1q-6 -21 -18 -29.5t-35 -8.5 q-15 0 -33 3q-39 5 -73 12.5t-66 18.5q-31 10 -44.5 23t-13.5 34q0 6 1 13t4 14l-1 -1q13 52 34.5 119.5t46.5 137.5t51 136.5t49 116.5q10 21 24 30.5t39 9.5q11 0 21 -1.5t23 -3.5h-1q40 -6 86 -17.5t81 -26.5z" glyph-name="exclam"/>
<glyph unicode='&quot;' horiz-adv-x="823" d="M610 580q18 13 40 33t43.5 43t39.5 46.5t29 43.5q11 27 11 33q0 11 -24 32q-18 11 -40 22t-50 21q-62 25 -84 -10q-17 -26 -42 -60t-51.5 -69.5t-52.5 -67.5t-45 -53q-27 -32 39 -39q25 -2 50.5 -3.5t50.5 0.5q51 2 86 28zM291 610q15 15 33 36.5t33 45.5q13 17 24 36 t18.5 36.5t10.5 32t0 22.5q-3 15 -31 31q-21 12 -45.5 21.5t-53.5 17.5q-32 10 -52 8t-27 -23q-11 -28 -28 -64t-36 -73t-37 -71t-31 -57q-17 -32 44 -36q25 -2 52 -1t47 4q48 4 79 34zM309 591q-17 -16 -38.5 -26t-47.5 -12q-13 -2 -30 -3t-37 -1h-19t-17 1q-62 4 -62 38 q0 6 1 9t3 7q13 23 31.5 57t37.5 71.5t36 74t28 64.5v-1q5 19 17.5 26.5t31.5 7.5q18 0 48 -9t55.5 -18.5t46.5 -21.5q35 -19 39 -41l-2 3q2 -5 2.5 -9t0.5 -6q0 -22 -16 -58.5t-41 -68.5l1 1q-16 -25 -34 -47t-34 -38h-1zM627 560q-40 -29 -94 -31q-8 -1 -15 -1h-15 q-20 0 -38.5 1t-35.5 3q-60 7 -60 38q0 8 3 14t8 12q21 22 47 54.5t52.5 67.5t50.5 68.5t41 57.5h-1q18 28 52 28q20 0 50 -12q31 -11 53 -21.5t39 -21.5q32 -27 32 -46q0 -6 -3 -14.5t-8 -21.5q-12 -21 -31 -46t-41 -49t-44.5 -45.5t-41.5 -34.5z" glyph-name="quotedbl"/>
<glyph unicode="#" horiz-adv-x="1052" d="M506 342q7 22 14.5 41t15.5 39q-6 -1 -12.5 -1.5t-12.5 -0.5q-30 -2 -58 -4t-55 -6q-8 -20 -16 -39.5t-16 -39.5q36 3 71 5.5t69 5.5zM553 447q-14 -29 -25 -56t-19 -55q-42 -3 -85.5 -6.5t-88.5 -7.5q12 29 22.5 55t21.5 55q42 5 84.5 8t89.5 7zM914 469q33 2 40 8 t-12 23q-12 12 -23.5 21t-27.5 15t-38 9.5t-56 3.5q12 17 18.5 32t14.5 29q20 36 -3 62.5t-74 47.5q-55 24 -75 -10q-20 -35 -41.5 -78t-41.5 -89q-40 -2 -82.5 -4.5t-87.5 -4.5q8 14 15 28t12 27q18 37 -7.5 62.5t-76.5 46.5q-53 23 -72 -11q-20 -36 -40 -79t-40 -91 q-58 -7 -108 -11t-90 -11q-35 -5 -39.5 -12t15.5 -24q16 -15 31.5 -26t35 -17.5t44.5 -8t61 2.5h6q-11 -29 -19.5 -56t-19.5 -53q-45 -7 -84 -11t-77 -11q-33 -5 -36.5 -12.5t14.5 -24.5q31 -26 64 -39.5t86 -8.5l-2 -14q-12 -44 15 -67.5t75 -37.5q28 -8 40.5 -6.5 t20.5 19.5q12 29 22.5 61.5t24.5 69.5q45 7 89 10.5t89 10.5q-5 -12 -6.5 -21.5t-6.5 -19.5q-2 -12 -3.5 -22t0.5 -18q5 -24 26.5 -39.5t59.5 -26.5q26 -8 41 -6.5t23 19.5q11 32 26 69.5l33 82.5q38 2 73 4.5t70 4.5q33 3 39 10t-12 23q-12 12 -23.5 20t-26 13.5t-34 8.5 t-48.5 3q11 29 24 58.5t26 58.5q42 2 81.5 3.5t77.5 3.5zM923 446q-20 -2 -40 -2.5t-41 -1.5l-69 -3q-2 -5 -4.5 -10t-4.5 -10q-8 -17 -15.5 -34t-14.5 -34q24 -1 41.5 -4.5t31 -9t25 -14t23.5 -20.5q19 -17 19 -30q0 -14 -13 -20t-42 -9q-32 -2 -65 -4.5t-69 -4.5l-6 -15 q-15 -37 -27 -68t-22 -59q-8 -16 -17.5 -23t-25.5 -7q-13 0 -39 8q-42 13 -66.5 30.5t-30.5 46.5l1 -2q-2 5 -2 8v7q0 11 1 18t3 16q2 4 3 9.5t3 9.5q-17 -2 -33.5 -3.5t-32.5 -3.5q-20 -2 -39.5 -4.5t-39.5 -5.5q-5 -12 -9 -24t-8 -23q-7 -20 -13.5 -38.5t-14.5 -38.5 q-8 -15 -16 -21.5t-23 -6.5q-12 0 -39 8q-47 14 -75.5 35t-28.5 60v10q0 6 2 12h-9q-45 0 -74.5 14t-58.5 38q-20 17 -20 33q0 22 50 31h-1q22 4 43.5 6.5t44.5 5.5q15 2 31.5 4t33.5 4q5 14 9.5 26t9.5 26v-1q2 8 4.5 14.5t4.5 13.5q-8 -1 -16 -1h-14q-50 0 -79.5 15 t-56.5 41q-21 19 -21 32t12.5 19t40.5 11q24 4 52.5 7t60.5 6h-1q18 2 37.5 3.5t39.5 4.5q20 45 38.5 85.5t39.5 77.5q8 15 20.5 21.5t27.5 6.5q22 0 43 -10q45 -18 72.5 -41t27.5 -55q0 -15 -9 -34l1 1q-6 -17 -15 -33q35 2 68 3.5t65 3.5q19 42 40 83t41 77q17 28 48 28 q10 0 21.5 -2.5t24.5 -8.5q44 -18 69.5 -40t25.5 -53q0 -19 -11 -38q-3 -5 -5.5 -11t-5.5 -11l-9 -18q28 -1 47 -5t33 -10.5t25.5 -15.5t23.5 -21q19 -17 19 -30q0 -15 -14 -20t-42 -7z" glyph-name="numbersign"/>
<glyph unicode="$" horiz-adv-x="812" d="M313 676q-26 -1 -48 -5t-40 -10q-78 -28 -132.5 -74t-82.5 -91q-11 -26 -8.5 -49t15.5 -44t35.5 -38.5t51.5 -32.5q42 -22 94.5 -41t96 -35t66.5 -29t7 -22q-12 -7 -37.5 -8t-60 3.5t-75.5 15t-84 27.5q-16 7 -37 11.5t-43 5.5t-44 -1.5t-39 -9.5q-20 -8 -20 -23 q0 -13 44 -43q33 -23 69 -39t74 -28q-8 -22 -11 -49q-5 -36 14 -71t70 -52q28 -10 43.5 -7.5t20.5 20.5q6 26 18 61t26 67q2 -1 17 -1h20q58 0 101 10.5t73.5 26t49.5 34t31 33.5q13 25 5.5 45t-29.5 37.5t-55 33t-70 30t-75.5 30t-70.5 32.5q-28 17 -34.5 36.5t1.5 38.5 t26.5 36.5t39.5 30.5t42 19.5t33 3.5q11 -3 11 -14q5 -17 -0.5 -41.5t-10.5 -42.5q-2 -18 7 -32.5t26 -26t41.5 -20.5t53.5 -16q43 -9 64 13q9 13 17 31.5t14 38t9.5 39t3.5 35.5q0 9 -1.5 19.5t-8 21.5t-19.5 22.5t-35 23.5q-17 8 -32 15t-30 12q8 19 15 38t12 34 q11 36 -12 62.5t-68 43.5q-53 23 -77 -10q-14 -23 -32 -59.5t-36 -71.5zM228 667q18 6 39 10t45 6q5 8 8.5 16.5t8.5 16.5q14 27 26.5 53t20.5 38q17 26 51 26q10 0 22 -2.5t23 -7.5h-1q43 -16 68 -40.5t25 -57.5q0 -14 -4 -27l-3 -9q-5 -11 -9 -23.5t-9 -26.5 q11 -5 23.5 -10t25.5 -12q25 -13 39 -26.5t21.5 -26t9.5 -24.5t2 -23q0 -17 -4 -37.5t-11 -42t-16 -41.5t-19 -35q-18 -19 -50 -19q-15 0 -27 3q-30 7 -55 16.5t-44 22t-29.5 28.5t-10.5 36v11q4 14 8.5 32t4.5 31q0 8 -2 13q0 2 -2 4h-2q-14 0 -35 -8.5t-40.5 -22 t-33 -31.5t-13.5 -36q0 -10 6.5 -20t23.5 -20h-1q23 -12 55 -25t65 -27q37 -15 71.5 -29.5t61 -31t42.5 -36t16 -43.5q0 -8 -2 -17.5t-7 -17.5q-12 -17 -33 -36.5t-53 -36.5t-77 -28.5t-106 -11.5h-27q-13 -32 -24 -62.5t-16 -53.5q-9 -32 -42 -32q-16 0 -41 9 q-51 18 -73 52t-22 70v9q0 5 1 9q1 21 7 36q-35 12 -68 27.5t-65 37.5h1q-24 17 -37.5 30.5t-13.5 24.5q0 24 30 37h-1q16 7 35.5 10t39.5 3q27 0 54 -5t46 -14h-1q60 -23 114 -34t90 -11q11 0 20 0.5t15 2.5q-8 5 -36 15.5t-65 24.5q-38 14 -80 30t-77 34 q-50 25 -80.5 59.5t-30.5 76.5q0 21 11 48q29 48 85.5 95.5t137.5 76.5z" glyph-name="dollar"/>
<glyph unicode="%" horiz-adv-x="1305" d="M335 624q0 13 -2 22.5t-8 11.5q-1 0 -1.5 0.5l-0.5 0.5q-10 0 -23.5 -9t-27.5 -23t-26.5 -31.5t-20.5 -33.5v1q-19 -49 -19 -82q0 -32 17 -35q4 -1 8 -1q22 0 46 24t41 71v-1q6 23 11.5 44.5t5.5 40.5zM920 293q-11 0 -25 -8.5t-28 -22t-26.5 -30t-19.5 -32.5 q-16 -27 -22.5 -49.5t-6.5 -41.5q0 -27 17 -31h6q21 0 46.5 25.5t46.5 70.5q22 46 22 87q0 13 -1.5 21.5t-5.5 9.5zM320 681q13 -3 17.5 -16.5t4.5 -32.5t-5.5 -42t-12.5 -47q-21 -57 -52.5 -84t-59.5 -20q-28 6 -29 44.5t20 92.5q9 19 24.5 39t32.5 35.5t33 24.5t27 6z M918 315q10 -3 14.5 -17t4 -34t-6.5 -43.5t-16 -44.5q-25 -55 -58 -83t-59 -21q-28 7 -28 45q0 20 6.5 43.5t21.5 49.5q9 19 24.5 39t33 36t34.5 24.5t29 5.5zM1085 289q-5 18 -20 35.5t-43 31.5q-20 10 -54.5 19.5t-69.5 14.5q-26 3 -59.5 -1t-58.5 -14q-69 -30 -111.5 -80 t-54 -102.5t9.5 -98t79 -66.5q25 -10 54.5 -15.5t61.5 -8.5q82 -9 145 20q33 16 57.5 38.5t40.5 48.5t24 54t8 55q0 19 -2 36t-7 33zM1107 286q6 -17 8 -35.5t2 -38.5q0 -29 -8.5 -59.5t-25.5 -58t-43 -51.5t-61 -41q-25 -12 -54 -17.5t-61 -5.5q-9 0 -18.5 0.5t-19.5 1.5 q-32 3 -63 8.5t-57 16.5q-53 20 -78 58t-25 84q0 32 12 65.5t34.5 64.5t56 58t76.5 45q20 8 47.5 12.5t53.5 4.5h13q7 0 12 -1q36 -5 71.5 -15t57.5 -21q32 -17 49 -36.5t22 -39.5zM1000 618q39 29 30.5 57.5t-46.5 54.5q-40 30 -77 4q-35 -24 -76.5 -41.5t-84.5 -29 t-83 -16.5t-70 -3q-79 3 -117 37q-15 13 -28 23t-25 18q-23 11 -54 20t-73 14q-25 3 -57.5 -1t-57.5 -14q-53 -24 -91 -61.5t-56.5 -79t-17 -83t28.5 -73.5q15 -14 33.5 -28t38.5 -22q25 -10 57 -16t60 -10q84 -7 147 22q33 16 56 39t37.5 49.5t21 55t6.5 55.5 q55 -11 114.5 -7.5t112.5 21.5q-77 -59 -160.5 -126t-160.5 -132.5t-142 -122.5t-105 -95q-19 -20 -24.5 -35.5t-0.5 -28.5t18.5 -24.5t33.5 -22.5q25 -10 37.5 -11.5t30.5 11.5q35 34 91.5 83t124.5 105t142 115.5t145 115t133.5 103t107.5 80.5zM1017 598 q-45 -33 -107.5 -80.5t-133.5 -103t-145 -115t-142 -115.5t-124.5 -105t-91.5 -83q-20 -14 -38 -14q-10 0 -20 3t-25 9q-29 16 -46 33.5t-17 40.5q0 14 7 29t24 32q36 35 93.5 86t126.5 109.5t145 120.5t148 118q-19 -3 -37.5 -4t-37.5 -1t-37 1t-35 3q-2 -27 -10 -54.5 t-23.5 -53t-39 -48t-56.5 -38.5q-51 -24 -121 -24h-18q-8 0 -16 1q-29 4 -62 10.5t-59 16.5q-20 8 -40 23t-37 31q-17 20 -25 43.5t-8 48.5q0 32 12 65t34.5 63.5t54.5 56.5t73 44q20 8 47.5 12.5t51.5 4.5h13t11 -1q43 -5 74.5 -14t54.5 -20q16 -10 30 -20.5t29 -24.5 q34 -30 108 -33q4 0 7.5 -0.5t8.5 -0.5q30 0 67.5 5.5t76.5 17t76.5 28t68.5 37.5h-1q21 15 44 15q26 0 51 -19q25 -17 39.5 -35.5t14.5 -39.5q0 -15 -9 -31t-29 -30z" glyph-name="percent"/>
<glyph unicode="&amp;" horiz-adv-x="1142" d="M267 126q35 0 88 10t116 30q-29 19 -57 40t-57 44q-75 -35 -106 -62t-31 -46q0 -4 5 -9q10 -7 42 -7zM399 527q0 -23 26 -54q41 14 75.5 28t58.5 29q26 13 45 32t19 39t-24 37q-27 -4 -55.5 -12t-54 -18.5t-45.5 -22.5t-30 -24q-15 -17 -15 -34zM498 170 q-53 -18 -100 -29.5t-85 -17t-65 -4.5t-40 10q-11 8 -11 21q0 23 34.5 55.5t119.5 70.5q38 -29 73.5 -55.5t73.5 -50.5zM406 471q-54 62 -11 108q11 13 33 26.5t49.5 24.5t58 19.5t59.5 12.5q25 -17 31.5 -36t-0.5 -37t-24 -34.5t-38 -26.5q-28 -17 -67.5 -33t-84.5 -31z M667 64q22 -10 40 -21q22 -11 38.5 -17.5t31 -10.5t28 -5t30.5 0q33 4 52 10.5t44 17.5t26.5 20.5t-30.5 26.5q-25 14 -48 28.5t-51 31.5q11 7 19.5 15t20.5 16q17 16 30 32.5t19 33t2.5 33t-18.5 33.5q-14 14 -38 14q-20 0 -55 -16q-35 -18 -64.5 -34t-62.5 -31 q-38 26 -74 53t-69 55q35 13 71.5 27t70 28t63.5 29.5t52 31.5q85 57 75.5 123t-115.5 130q-44 27 -83 41.5t-77 20t-77 4t-82 -6.5q-46 -6 -91 -17t-84 -27t-71 -36.5t-53 -44.5q-45 -52 -38 -100.5t65 -112.5q8 -8 19.5 -20t26.5 -26q-65 -23 -119.5 -48t-94.5 -54 q-39 -30 -58 -60.5t-14 -61t36.5 -62t95.5 -62.5q59 -27 114 -39.5t105 -14.5t95 3.5t86 13.5q115 18 211 56zM707 22q-8 5 -15.5 8.5t-16.5 8.5q-48 -19 -100 -32t-109 -22h1q-35 -8 -74.5 -12.5t-83.5 -4.5q-58 0 -120.5 11.5t-131.5 43.5q-75 37 -108 75t-33 76 q0 32 20.5 62t58.5 59q37 27 86.5 50.5t108.5 45.5l-9.5 9.5t-8.5 9.5v-1l-11 11q-69 75 -69 137q0 49 42 97q22 25 55 46.5t73.5 38t86.5 28t93 17.5q26 3 50 5t49 2q57 0 112 -15t118 -53q123 -74 123 -156q0 -65 -83 -122h1q-42 -31 -106 -58t-131 -51q28 -23 57 -44.5 t58 -41.5q22 11 41.5 21t41.5 21q9 5 17.5 9.5t18.5 9.5q40 18 62 18q30 0 49 -19q13 -14 18.5 -27.5t5.5 -27.5q0 -26 -16.5 -51t-42.5 -48q-5 -4 -9 -7.5t-9 -7.5v1q-2 -1 -2.5 -2t-2.5 -2q21 -13 40.5 -25t39.5 -23q38 -20 38 -39q0 -20 -35 -35q-13 -6 -23.5 -10.5 t-22 -8t-24.5 -6t-30 -4.5q-5 0 -9.5 -0.5t-8.5 -0.5q-14 0 -27 2t-26.5 6.5t-29.5 11.5t-37 16z" glyph-name="ampersand"/>
<glyph unicode="&apos;" horiz-adv-x="466" d="M276 580q18 13 40 33t43 43t39.5 46.5t29.5 43.5q5 13 8 21t3 12q0 12 -25 32q-18 11 -39.5 22t-50.5 21q-61 25 -83 -10q-18 -26 -43 -60t-52 -69t-52 -67t-43 -54q-25 -31 38 -39q26 -2 51 -3.5t50 0.5q51 2 86 28zM293 560q-40 -29 -94 -31q-8 -1 -15 -1h-15 q-17 0 -36 1t-38 3q-58 7 -58 38q0 13 10 26v-1q18 22 43 54t52 66.5t52 68.5t43 60h-1q18 28 51 28q20 0 50 -12q31 -11 53 -21.5t39 -21.5q33 -27 33 -46q0 -7 -2.5 -11.5t-4.5 -11.5q2 2 0 -4t-4 -9q-12 -21 -31 -46t-41 -49t-45 -45.5t-41 -34.5z" glyph-name="quotesingle"/>
<glyph unicode="(" horiz-adv-x="535" d="M293 820q-112 -80 -181.5 -178t-92.5 -201.5t2 -205.5t103 -189q45 -45 99.5 -59t109.5 -12q32 3 37.5 7.5t-8.5 21.5q-64 73 -85 158t-8 171.5t56.5 168.5t108.5 150q76 78 -46 164q-53 38 -95 4zM292 824q25 19 51 19q27 0 61 -23q82 -58 82 -115q0 -39 -33 -72v1 q-76 -79 -121 -177t-45 -200q0 -67 22.5 -130.5t71.5 -120.5q14 -15 14 -28q0 -15 -12.5 -19t-39.5 -7h-20q-54 0 -106.5 15.5t-95.5 59.5q-62 69 -91 146.5t-29 159.5q0 65 19 131t55.5 129t91 121.5t125.5 109.5z" glyph-name="parenleft"/>
<glyph unicode=")" horiz-adv-x="596" d="M386 678q-25 51 -86 88t-169 48q-27 3 -41 1.5t-19 -7t-3 -14t8 -19.5q49 -93 59 -201t-16 -213.5t-86 -198.5t-149 -156q-35 -29 31 -34q130 -8 207 36q90 54 155.5 134t101.5 171t39 186t-32 179zM408 676q17 -40 25 -83t8 -89q0 -73 -21 -147t-60 -142t-95.5 -127 t-127.5 -101q-71 -39 -177 -39h-18q-10 0 -20 1q-57 4 -57 31q0 13 19 31q59 42 105 98t77.5 121t48 136t16.5 142q0 67 -14.5 131t-45.5 121q-5 8 -8 15.5t-3 15.5q0 16 11 24t38 8h15t17 -2q112 -12 176 -51t90 -93z" glyph-name="parenright"/>
<glyph unicode="*" horiz-adv-x="1045" d="M863 513q57 6 20 35q-16 13 -34 23t-41 15.5t-52.5 7t-68.5 -1.5q-25 -2 -51 -4.5t-52 -5.5q7 18 15.5 37t19.5 39q18 36 -7 62.5t-77 47.5q-53 23 -72 -11q-42 -76 -68 -147q-25 12 -46 25t-49 27q-53 30 -105.5 33.5t-103.5 -10.5q-52 -15 -9 -41q55 -32 103.5 -59 t94.5 -51q-71 -12 -133 -25t-113 -25q-33 -7 -35 -15t19 -23q38 -28 83.5 -41.5t110.5 0.5q32 7 61.5 12.5t61.5 11.5q-5 -11 -6.5 -23t-6.5 -26q-6 -23 -1.5 -39.5t17 -28.5t31.5 -20.5t43 -14.5q32 -10 43.5 -8t18.5 20q13 35 22.5 66t21.5 63q25 -11 50.5 -23.5 t57.5 -25.5q70 -32 116 -32t88 15q25 11 27 17.5t-27 20.5q-53 26 -99.5 48t-91.5 45q58 8 112 16t112 14zM872 490q-46 -5 -89 -10.5t-88 -12.5q15 -8 30 -14.5t31 -14.5q21 -10 43.5 -21t45.5 -22q17 -9 26 -16.5t9 -16.5q0 -11 -8.5 -17t-24.5 -14q-49 -17 -97 -17 q-52 0 -122 33q-22 9 -40.5 17.5t-35.5 16.5q-5 2 -9 4t-9 4q-5 -13 -9 -25t-8 -25q-5 -15 -10 -30.5t-11 -32.5q-6 -16 -14 -23t-24 -7q-12 0 -42 9q-47 13 -75.5 33.5t-28.5 60.5q0 14 3 26q2 5 3.5 12.5t3.5 14.5q-2 -1 -5 -1q-23 -5 -46.5 -9.5t-47.5 -9.5 q-16 -4 -31.5 -5.5t-30.5 -1.5q-45 0 -79.5 14t-64.5 37q-12 9 -18.5 16.5t-6.5 16.5q0 22 47 32q43 10 94 20.5t109 21.5q-38 20 -77.5 42t-82.5 48q-26 16 -26 34q0 25 39 35q20 5 41 8.5t44 3.5q68 0 135 -37q13 -7 24 -13l22 -12q8 -5 16.5 -9.5t16.5 -9.5q26 65 64 133 q8 15 20.5 21.5t27.5 6.5q22 0 43 -10q46 -18 73 -42t27 -55q0 -15 -9 -34q-14 -25 -25 -52q16 2 31.5 3.5t31.5 3.5q4 0 8.5 0.5t8.5 0.5h-2q14 2 26 2h25q58 0 93 -13.5t64 -36.5q19 -17 19 -30q0 -27 -48 -31z" glyph-name="asterisk"/>
<glyph unicode="+" horiz-adv-x="1074" d="M819 324q32 0 40.5 6.5t-2.5 23.5q-12 15 -21.5 29.5t-27.5 31.5q-30 28 -88 30q-70 2 -174 0q8 20 19 38.5t19 35.5q11 17 7 27.5t-29 24.5q-22 14 -57.5 27t-68.5 21q-26 6 -45 -1.5t-27 -21.5q-20 -30 -38.5 -71t-36.5 -89q-88 -3 -167 -8.5t-137 -12.5 q-12 -2 -24 -4.5t-19.5 -6.5t-10 -10t3.5 -15q11 -17 33 -39.5t44 -36.5q12 -8 22 -12t20 -6t21 -2q12 0 29 2q33 4 68 7.5t73 5.5q-8 -28 -11.5 -51t-8.5 -41q-3 -33 44 -50q32 -11 57 -18.5t51 -15.5q31 -8 42 -5t17 22q12 37 25.5 82t32.5 93q85 5 165.5 6.5t159.5 3.5z M827 301q-24 -1 -48 -1t-49 -1q-54 -1 -107.5 -2.5t-110.5 -5.5q-14 -35 -23 -64t-17 -54q-4 -12 -7 -24t-7 -23v1q-6 -18 -14 -26t-25 -8q-10 0 -42 8q-9 3 -16 5l-14 4q-17 5 -35.5 10.5t-39.5 13.5q-54 19 -54 60v4q2 7 4 16t4 22q2 8 3 17t4 21q-32 -2 -61.5 -5.5 t-58.5 -6.5q-9 -1 -16 -1.5t-15 -0.5q-20 0 -35 4.5t-35 17.5q-23 15 -46.5 38.5t-35.5 42.5q-6 9 -6 19q0 20 20.5 28.5t46.5 11.5q57 7 133 12t162 8q17 45 35.5 84t38.5 70h-1q8 14 24.5 23.5t39.5 9.5q13 0 25 -3q34 -8 70.5 -21.5t59.5 -28.5h-1q20 -11 29 -21t9 -23 q0 -8 -2.5 -14.5t-7.5 -14.5q-3 -7 -7.5 -13.5t-7.5 -13.5q-3 -5 -6.5 -11t-6.5 -13q19 0 37.5 0.5t35.5 0.5q22 0 41.5 -0.5t36.5 -0.5q64 -2 98 -34q14 -12 22 -23t15 -21v1q4 -5 7 -10.5t7 -10.5q9 -14 9 -24q0 -17 -14.5 -23t-44.5 -6z" glyph-name="plus"/>
<glyph unicode="," horiz-adv-x="460" d="M76 -111q15 10 36.5 26.5t43.5 35t42.5 38t33.5 36.5q15 17 13.5 29.5t-26.5 26.5q-29 17 -61 29.5t-65 22.5q-32 10 -52.5 8t-35.5 -20q-33 -54 -80 -105.5t-87 -99.5q-27 -30 29 -40q28 -7 60.5 -11t64.5 -3q25 2 43.5 7.5t40.5 19.5zM92 -132q-24 -16 -44 -21.5 t-47 -7.5h-10q-31 0 -62 4t-57 10q-50 11 -50 37q0 12 13 28q12 14 25 29.5t27 30.5q29 33 58.5 68t53.5 74q24 28 58 28q18 0 48 -9q35 -11 68.5 -23.5t61.5 -29.5q34 -20 34 -43q0 -10 -4.5 -18t-12.5 -17q-13 -17 -33.5 -36.5t-43.5 -39t-45 -36t-38 -27.5v-1z" glyph-name="comma"/>
<glyph unicode="-" horiz-adv-x="869" d="M-131 500q-65 -8 -22 -54q18 -20 38.5 -39t49.5 -39q28 -21 52.5 -27t52.5 -1q53 9 111 15t118.5 11t121.5 8t120 6q35 1 43.5 8t-5.5 29q-15 18 -29 37t-35 41q-43 37 -101 37q-66 0 -138 -3t-141 -7.5t-130 -10t-106 -11.5zM-125 507q45 6 106.5 11.5t130.5 10 t141.5 7.5t138.5 3q64 0 111 -41q15 -16 26 -29.5t20 -24.5q5 -7 9 -12t9 -11q14 -22 14 -33q0 -17 -15 -23.5t-46 -7.5q-58 -3 -119 -6t-121.5 -8t-118.5 -11t-111 -15h1q-14 -3 -28 -3q-43 0 -89 34q-29 20 -50 39.5t-40 40.5q-21 24 -21 40q0 33 52 39z" glyph-name="hyphen"/>
<glyph unicode="­" horiz-adv-x="869" d="M-131 500q-65 -8 -22 -54q18 -20 38.5 -39t49.5 -39q28 -21 52.5 -27t52.5 -1q53 9 111 15t118.5 11t121.5 8t120 6q35 1 43.5 8t-5.5 29q-15 18 -29 37t-35 41q-43 37 -101 37q-66 0 -138 -3t-141 -7.5t-130 -10t-106 -11.5zM-125 507q45 6 106.5 11.5t130.5 10 t141.5 7.5t138.5 3q64 0 111 -41q15 -16 26 -29.5t20 -24.5q5 -7 9 -12t9 -11q14 -22 14 -33q0 -17 -15 -23.5t-46 -7.5q-58 -3 -119 -6t-121.5 -8t-118.5 -11t-111 -15h1q-14 -3 -28 -3q-43 0 -89 34q-29 20 -50 39.5t-40 40.5q-21 24 -21 40q0 33 52 39z" glyph-name="hyphen"/>
<glyph unicode="." horiz-adv-x="486" d="M-57 75v-9q0 -24 13 -43.5t35 -33.5t52 -21.5t64 -7.5h10q36 0 64.5 8.5t48.5 20.5t32.5 25.5t17.5 23.5l-1 -1q9 16 9 36q0 28 -30 55t-95 41q-14 2 -28.5 3.5t-28.5 1.5q-36 0 -65 -8t-50 -22t-33 -32t-15 -37zM-50 81q3 20 18.5 38.5t42 30.5t62.5 16t80 -4 q58 -12 85 -35t27 -46q0 -16 -7 -29q-4 -9 -15.5 -21t-30 -22.5t-44.5 -18t-59 -7.5q-34 -1 -64 5.5t-52 19.5t-33.5 31.5t-9.5 41.5z" glyph-name="period"/>
<glyph unicode="/" horiz-adv-x="779" d="M700 721q-28 15 -58.5 28.5t-62.5 25.5q-62 26 -99 -11q-36 -32 -85.5 -86.5t-104.5 -120t-112 -136.5t-107.5 -135.5t-91 -118t-62.5 -83.5q-16 -23 -13 -40q3 -18 31 -29q21 -9 43 -18.5t54 -20.5q33 -11 50 -7.5t31 21.5q31 37 78.5 92.5t103.5 119t116.5 131 t117.5 130t105.5 114t81.5 84.5q18 18 17 30.5t-33 29.5zM715 726q41 -23 41 -46q0 -11 -5 -19t-16 -19q-33 -33 -81.5 -84.5t-105 -113.5t-117 -129.5t-116.5 -131.5t-103.5 -119t-78.5 -92v1q-11 -14 -23 -21t-29 -7q-10 0 -21 2t-25 7q-28 10 -49 18.5t-40 16.5h1 q-2 1 -5 2t-5 2q-35 14 -40 40v9q0 20 16 43q22 30 62.5 83.5t91 118.5t108 136t113 136.5t105 120.5t85.5 87h-1q26 26 63 26q26 0 53 -12h-1q32 -12 63 -25.5t60 -29.5z" glyph-name="slash"/>
<glyph unicode="0" horiz-adv-x="1005" d="M533 605q-4 1 -7 1q-27 0 -59 -19t-63.5 -50.5t-59.5 -71.5t-46 -81q-17 -37 -25.5 -75t-8.5 -72q0 -42 14 -72t44 -37q10 -2 14 -2q27 0 56 16.5t56.5 45.5t51 68.5t38.5 86.5q14 42 23 86.5t9 85.5q0 37 -8 61.5t-28 28.5h-1zM529 628q26 -5 37 -34t11 -71t-9 -88.5 t-24 -88.5q-17 -53 -44.5 -96.5t-59.5 -74.5t-65.5 -45.5t-63.5 -8.5q-32 7 -48.5 34.5t-20.5 66.5t5 85t29 91t51.5 88.5t67 76.5t71 51.5t63.5 13.5zM729 709q-45 20 -110.5 33.5t-138.5 20.5q-53 5 -114 -4.5t-108 -30.5q-107 -51 -175 -128.5t-99.5 -162.5t-27 -169 t44.5 -150q10 -14 25.5 -26.5t33.5 -23.5t36 -19.5t35 -14.5q51 -17 107.5 -26t109.5 -12q85 -5 148 4t121 43q82 49 134.5 119t79 146t28.5 151.5t-18 136.5q-11 33 -36 60.5t-76 52.5zM744 714q54 -26 80.5 -55.5t38.5 -65.5q19 -58 19 -127q0 -59 -14.5 -121t-45 -120.5 t-77.5 -111t-112 -91.5q-49 -29 -100.5 -40t-114.5 -11q-15 0 -30.5 0.5t-32.5 1.5q-54 3 -111 12t-110 27q-17 6 -36.5 15.5t-38.5 21t-35.5 25.5t-28.5 30q-23 38 -34.5 82.5t-11.5 94.5q0 61 19 125.5t57.5 124.5t97 112.5t137.5 90.5q39 18 90 28t100 10q11 0 20.5 -0.5 t18.5 -1.5q75 -7 142 -21t112 -34z" glyph-name="zero"/>
<glyph unicode="1" horiz-adv-x="568" d="M450 660q11 21 2 32t-44 25q-38 16 -75 26t-75 16q-20 3 -33.5 4t-24.5 -1.5t-21 -8t-22 -14.5q-26 -21 -57 -49.5t-53 -56.5q-20 -24 -5.5 -34.5t67.5 -27.5q-23 -57 -44.5 -125.5t-39.5 -135t-31 -124.5t-17 -94q-5 -26 4 -41t35 -26q35 -12 69.5 -17.5t69.5 -11.5 q19 -3 31 -3.5t19.5 1.5t12 7.5t7.5 14.5q11 43 27 97t35 112.5t40.5 119.5t42.5 118t41.5 108t38.5 89zM472 646q-18 -38 -38.5 -88.5t-41.5 -107t-42 -116.5t-40 -118t-34.5 -111.5t-26.5 -95.5q-8 -20 -18.5 -30t-32.5 -10q-18 0 -38 4q-8 2 -15.5 2.5t-15.5 2.5h1 q-26 5 -53.5 10.5t-62.5 16.5q-23 11 -34.5 24.5t-11.5 36.5q0 5 0.5 10t1.5 10q4 35 16.5 91t29.5 120.5t38 131.5t43 124q-35 11 -52 21t-17 28q0 6 3.5 14.5t11.5 17.5q23 29 54.5 58t58.5 51q20 14 34.5 20.5t34.5 6.5q21 0 44 -4h-1q39 -7 77 -17t77 -26q29 -13 43 -23 t14 -28q0 -6 -2 -12.5t-6 -14.5z" glyph-name="one"/>
<glyph unicode="2" horiz-adv-x="909" d="M774 429q33 36 54.5 70.5t21.5 70.5q0 25 -12 50t-40 51q-21 17 -52.5 35t-72 32.5t-89 24t-101.5 9.5q-32 0 -63 -3q-108 -12 -202 -56.5t-161 -110.5q-19 -20 -27 -35.5t-8 -27.5q0 -20 14.5 -30t39.5 -15q52 -12 116 -12q38 0 75.5 6.5t68.5 20.5q28 17 56 32.5 t53.5 27.5t48 19t39.5 7q8 0 14 -2h3q-1 -15 -28.5 -44t-74.5 -67t-110 -82t-133.5 -88t-145 -86t-144.5 -75q-20 -10 -27.5 -21.5t-7.5 -22.5q0 -14 10 -27t23 -24q11 -9 26 -19.5t30.5 -21t31.5 -19.5t28 -15h-1q15 -9 31 -14.5t45 -5.5q13 0 29.5 1t36.5 4q43 6 107.5 13 t135 13t139 11t121.5 7q32 3 46 9t14 23q0 9 -8 23q-9 17 -27 37t-37 35q-21 18 -44.5 26t-55.5 8h-6q-31 -1 -71 -2.5t-82 -4.5q57 30 112 64t104 68.5t89.5 68.5t67.5 64zM318 151q29 3 60 5.5t61 4t57.5 2.5t49.5 1q33 1 55 -6.5t42 -24.5q18 -14 35 -33t25 -34 q11 -18 2 -24t-42 -9q-53 -2 -122 -7t-139.5 -11t-135 -13t-107.5 -13q-32 -4 -53 -5t-35 1t-24 6.5t-20 10.5q-12 6 -27.5 15t-31.5 19t-30.5 20.5t-24.5 19.5q-9 7 -16.5 16t-9.5 18t3.5 18t22.5 18q77 37 159.5 84.5t159 97t142 97.5t110.5 87.5t64 66.5t1 34 q-17 7 -42 3t-55.5 -16.5t-64 -31t-67.5 -38.5q-26 -12 -56.5 -18t-63.5 -7t-66 2.5t-63 9.5q-17 4 -28 9.5t-13.5 15t4.5 23.5t26 35q65 64 156.5 107t197.5 55q62 7 118.5 0.5t104 -21.5t84 -34.5t59.5 -38.5q30 -29 40 -56t4.5 -54t-24 -54.5t-45.5 -56.5 q-30 -35 -78 -73.5t-106.5 -77.5t-123.5 -76.5t-129 -68.5z" glyph-name="two"/>
<glyph unicode="3" horiz-adv-x="953" d="M764 437q36 21 58 52t22 68q0 34 -22 70t-73 73q-69 47 -134 62t-123 15q-26 0 -48.5 -2t-42.5 -4q-48 -6 -94 -18.5t-86 -29t-73 -35t-56 -35.5q-22 -17 -22 -36q0 -22 35 -42q29 -15 74.5 -24t91.5 -9q31 0 60 4t51 15h-1q38 14 78.5 27t70.5 13q17 0 19 -2 q3 -3 5 -4.5l2 -1.5q0 -12 -25 -28.5t-78 -36.5t-135 -42t-196 -45q-46 -9 -46 -38q0 -18 19 -37v1q39 -41 95.5 -64t117.5 -23h14q7 0 14 1h-1q34 3 59 3q23 0 41 -3t35 -12q8 -5 13.5 -13t5.5 -19q0 -15 -10.5 -32t-36.5 -35h1q-29 -20 -63.5 -30t-78.5 -10q-74 0 -182 34 q-24 8 -53.5 13t-58.5 5q-25 0 -49 -3.5t-45 -12.5h1q-17 -6 -27.5 -14.5t-10.5 -22.5q0 -13 15.5 -29.5t53.5 -36.5h-1q101 -59 204 -80.5t197 -21.5q123 0 224 24t178 89q29 26 45.5 55t16.5 61q0 42 -30 81t-97 74q-35 17 -74 28q96 29 156 64zM540 379q35 -7 67 -15.5 t60 -23.5q55 -29 83 -60.5t34 -64t-9 -63.5t-46 -59q-75 -63 -173 -86t-219 -23q-93 0 -193 21t-200 79q-31 16 -45 28.5t-16 21.5t6 15t22 11q45 18 99 15t96 -17q62 -20 111.5 -28.5t90 -6.5t73.5 13t62 30q26 19 38.5 38t14 35.5t-6 30t-20.5 20.5q-28 14 -59.5 16 t-83.5 -2q-64 -6 -125 16t-103 65q-37 37 19 49q133 27 224 54t144 51.5t69.5 44t0.5 31.5q-9 9 -33 9q-16 0 -34.5 -3.5t-39 -9.5t-41 -13.5t-39.5 -14.5q-26 -12 -62 -16t-73 -1.5t-71.5 10.5t-57.5 20q-46 25 -11 53q22 17 54.5 35t71.5 33.5t84 28t92 18.5q34 4 73.5 6 t82.5 -4t89 -22.5t93 -47.5q49 -35 69 -69.5t18.5 -66t-21 -58t-50.5 -44.5q-38 -22 -90.5 -41.5t-118.5 -37.5z" glyph-name="three"/>
<glyph unicode="4" horiz-adv-x="1043" d="M540 558q-75 -45 -147.5 -95t-135.5 -98q31 2 64 3.5t68 3.5q20 1 38 1q19 0 39 2q8 18 15 36.5t15 37.5q11 28 22 55zM199 354q39 30 82.5 62t90.5 64.5t96 63.5t98 58q-26 -55 -49 -114t-48 -119q-71 -4 -140.5 -7t-129.5 -8zM753 376q32 76 59.5 144t52.5 119 q12 21 4 32.5t-43 25.5q-21 7 -54.5 17.5t-69.5 21.5t-69.5 20t-53.5 13q-19 3 -33 4.5t-26 0t-24.5 -6t-28.5 -11.5q-59 -33 -133 -80.5t-147 -100t-138.5 -105.5t-107.5 -96q-21 -21 -20.5 -37.5t18.5 -34.5q26 -22 57 -43.5t64 -38.5q29 -17 55 -18.5t57 2.5 q58 6 119 10.5t126 9.5q-15 -45 -25 -79.5t-15 -58.5q-7 -26 2.5 -39.5t41.5 -27.5q32 -11 66.5 -19.5t63.5 -13.5q38 -6 52 -1t20 24q14 48 34.5 106.5t45.5 124.5l66 2l66 2q35 2 44.5 9t1.5 26q-12 17 -19.5 31.5t-22.5 32.5q-27 32 -86 33zM805 434q-6 -13 -11 -26 t-11 -27q49 -6 75 -36q11 -14 17 -23t11 -18q4 -6 8 -13.5t9 -14.5q5 -10 5 -20q0 -18 -15 -25.5t-49 -9.5q-17 -1 -33 -1t-33 -1q-14 -1 -28.5 -1.5t-28.5 -0.5q-24 -63 -43.5 -119t-32.5 -102q-6 -19 -17 -27.5t-36 -8.5q-15 0 -36 3q-28 5 -63.5 13.5t-73.5 22.5 q-28 13 -40 25.5t-12 33.5q0 12 4 24l-1 -1q5 20 13 49.5t21 68.5q-17 -2 -32 -3t-31 -2q-42 -3 -82 -6t-78 -7h1q-23 -3 -44 -3q-20 0 -39 4t-39 17h1q-36 19 -67 40.5t-57 42.5q-11 11 -17.5 21.5t-6.5 24.5q0 24 25 49q42 43 108 96t139.5 106t148 101t134.5 81 q23 11 40 15.5t34 4.5q11 0 22 -1.5t25 -3.5q20 -4 53.5 -13.5t70.5 -20t71 -21.5t55 -18q29 -12 42.5 -23t13.5 -28q0 -16 -9 -29q-19 -39 -39 -87t-42 -102z" glyph-name="four"/>
<glyph unicode="5" horiz-adv-x="865" d="M428 589q93 7 178 13.5t163 11.5q38 3 47.5 10t-1.5 27q-8 18 -15 38t-25 39q-26 35 -101 32q-94 -2 -192 -6t-204 -14q-72 -7 -99 -44q-55 -82 -93.5 -150.5t-60.5 -123.5q-11 -26 -2.5 -40.5t28.5 -24.5q16 -7 28 -12.5t23 -10t21.5 -8.5t22.5 -10q11 -6 19 -9t18 -4 t23.5 1t36.5 6q20 4 46.5 6.5t52.5 3t47 -1.5t30 -6q8 -6 15 -22t7 -37q0 -20 -11.5 -43t-32.5 -42q-16 -15 -37.5 -26.5t-51.5 -15t-71 4t-95 31.5q-19 9 -45 13.5t-54.5 5t-56 -3t-49.5 -12.5q-15 -5 -20.5 -11t-3.5 -14q3 -17 57 -53q60 -51 146 -70.5t180 -18.5 q83 1 146 15t107.5 34t72.5 43.5t41 43.5q32 45 40.5 85t-5 73.5t-46.5 60t-84 44.5q-111 39 -235 39q18 35 42 74t53 79zM563 575q-29 -2 -59 -4.5t-60 -4.5q-47 -66 -79 -123q56 -2 110 -12t106 -28q71 -25 110 -66t39 -96q0 -58 -47 -124l1 1q-14 -21 -43 -45.5 t-75.5 -46t-111.5 -36t-150 -15.5h-8q-47 0 -92.5 4.5t-87.5 15.5t-80 29t-68 44l2 -1q-59 41 -64 62v7q0 11 7 20t27 15q22 9 48.5 13t54.5 4q32 0 62 -5t51 -15q45 -19 79 -27.5t61 -8.5q35 0 58.5 11.5t40.5 27.5q19 17 29 37t10 37q0 16 -4.5 28t-10.5 17q-8 3 -24 4.5 t-36 1.5q-26 0 -54.5 -2t-50.5 -7q-35 -7 -57 -7q-16 0 -26 3.5t-24 11.5l1 -1q-12 5 -21.5 9t-20.5 9q-20 8 -53 23q-18 8 -29.5 21t-11.5 33q0 14 7 31q21 54 60 122.5t96 153.5q33 44 109 51q106 10 205 14t193 6h11q73 0 102 -38q14 -15 21 -31t13 -30v1l4 -10l4 -10 l-1 1q8 -14 8 -25q0 -17 -15.5 -24.5t-50.5 -9.5q-51 -4 -104.5 -7.5t-110.5 -8.5z" glyph-name="five"/>
<glyph unicode="6" horiz-adv-x="898" d="M397 319q-35 0 -74.5 -17.5t-71.5 -46.5q-29 -55 -29 -90q0 -31 26 -38q7 -2 14 -3t15 -1q35 0 72 23t68 65q15 21 23.5 40t8.5 34q0 24 -28 31h1q-14 3 -25 3zM232 273q20 19 44 34t49 23.5t49 11t43 -2.5q41 -11 39 -47t-35 -82q-40 -54 -90 -78.5t-95 -10.5 q-38 11 -37 51.5t33 100.5zM384 462q61 60 137.5 115.5t170.5 103.5q31 17 23.5 29t-39.5 24q-16 5 -38 10t-47 10t-49.5 9t-45.5 7q-23 3 -38 3q-14 0 -25.5 -2.5t-22.5 -7.5t-26 -12q-132 -69 -218.5 -144t-137 -147t-71 -136t-20.5 -111q-1 -36 10.5 -66t38.5 -54.5 t70.5 -44.5t107.5 -36q67 -14 119.5 -19t94 -3t74 10t59.5 19q42 18 81.5 47.5t69 67t45 80.5t9.5 88q-3 23 -12.5 43t-31 38t-56.5 33.5t-89 29.5q-35 8 -70 12.5t-73 3.5zM707 660q-81 -42 -150.5 -90t-127.5 -102q29 -2 55.5 -5.5t53.5 -9.5q57 -14 94 -31t60 -36.5 t33.5 -42t13.5 -47.5q1 -6 1.5 -12.5t0.5 -14.5q0 -44 -18.5 -85.5t-49 -77t-69.5 -63.5t-79 -46q-33 -14 -73 -22.5t-94 -8.5q-41 0 -87 5.5t-103 17.5q-66 16 -111 37t-73.5 47t-41 57.5t-12.5 69.5v5q0 48 20.5 114t72.5 139.5t140 150.5t222 147q25 12 40.5 18t39.5 6 q17 0 41 -3q20 -3 45 -7t50 -9t47.5 -10.5t39.5 -10.5q24 -8 37.5 -19t13.5 -24q0 -20 -32 -37z" glyph-name="six"/>
<glyph unicode="7" horiz-adv-x="944" d="M538 618q-66 -58 -131 -120.5t-125.5 -127.5t-114.5 -130.5t-98 -128.5q-15 -24 -13.5 -38t26.5 -31q26 -17 59.5 -31t66.5 -25q35 -10 50 -8t29 20q58 74 127 153t143 155.5t149.5 147.5t145.5 131q26 22 24.5 40t-26.5 37q-18 15 -41.5 34.5t-55.5 39.5 q-25 20 -51.5 26t-64.5 6q-69 -2 -148 -5t-157 -7.5t-150 -11t-126 -15.5q-25 -4 -31.5 -11t11.5 -24q7 -9 18 -19t23 -20t24 -19.5t21 -16.5q28 -17 59.5 -21.5t63.5 -0.5q25 2 61 4.5t75.5 5.5t80 6t76.5 5zM64 111q42 60 92.5 121.5t107 123t117.5 121t123 115.5 q-46 -3 -94.5 -6.5t-90.5 -6.5q-19 -2 -35 -3t-30 -2q-8 -1 -16 -1.5t-16 -0.5q-26 0 -51.5 6t-48.5 20q-2 2 -7.5 6t-7.5 6q-17 14 -38.5 31.5t-35.5 34.5q-17 14 -17 30q0 14 12 20.5t34 9.5q54 9 126 15.5t150.5 11t158 7.5t148.5 5q40 0 69 -6t56 -29l-1 1 q30 -20 52 -37t39 -31h-2q2 -2 4 -3.5t4 -3.5q16 -12 25 -24.5t9 -26.5q0 -25 -30 -50v1q-70 -59 -145 -130t-149 -147.5t-143 -155t-126 -152.5q-11 -14 -21 -20t-27 -6q-11 0 -22.5 2t-25.5 6q-33 11 -66.5 25t-62.5 33q-34 23 -34 48q0 10 4 20t12 22z" glyph-name="seven"/>
<glyph unicode="8" horiz-adv-x="959" d="M839 474q46 45 46 90t-39 85.5t-107 72.5q-56 26 -114 40t-118 14q-49 0 -101 -11q-102 -23 -182 -62t-129 -93q-43 -46 -43 -90q0 -76 117 -134q-46 -19 -87.5 -40.5t-74 -45.5t-54 -51t-27.5 -58l1 1q-2 -8 -2.5 -14.5t-0.5 -11.5q0 -60 62.5 -109t184.5 -72 q45 -9 90.5 -14t93.5 -5q97 0 185.5 23.5t154.5 77.5q41 35 65 70.5t24 70.5q0 40 -35 78.5t-117 76.5q70 26 123 52.5t84 58.5zM821 493q-33 -34 -94.5 -63t-142.5 -58q87 -36 128.5 -71.5t47.5 -71t-17.5 -71t-64.5 -71.5q-48 -39 -108.5 -61t-127.5 -31t-138 -5t-138 18 q-128 25 -187.5 76t-45.5 112q6 31 30 58.5t60 51.5t81 45.5t95 41.5q-106 46 -132.5 100.5t31.5 114.5q48 51 125.5 89t177.5 61q85 19 165.5 6t158.5 -48q47 -23 80 -49t47 -54.5t7.5 -59t-38.5 -60.5zM401 304q-66 -25 -111.5 -55t-70.5 -62q-12 -16 -13 -29t5 -22.5 t18 -16t25 -9.5q35 -8 83 7.5t86 53.5q16 18 26.5 35.5t10 34.5t-14 32.5t-44.5 30.5zM529 643q-67 -26 -109.5 -52.5t-61 -51t-14.5 -46t31 -37.5q153 60 195.5 104t-41.5 83zM452 231q0 -13 -9 -27.5t-23 -30.5q-29 -29 -65 -44t-67 -15q-10 0 -22 3q-14 4 -26 11t-12 18 q0 10 11 24q23 30 65 58t104 51q44 -23 44 -48zM577 581q0 -23 -49 -51t-143 -65q-19 13 -19 28q0 26 42 58.5t128 66.5q41 -19 41 -37z" glyph-name="eight"/>
<glyph unicode="9" horiz-adv-x="893" d="M15 91l1 1q-33 -16 -33 -36q0 -13 11 -22.5t28 -18.5q26 -14 49.5 -20.5t51.5 -14.5q5 -2 11 -3.5t12 -3.5v1q14 -5 26 -6.5t23 -1.5q21 0 39.5 5.5t41.5 14.5q114 49 212 118t170 144.5t113 150.5t41 136v9q0 5 -1 10q-5 39 -25 69.5t-56 54.5t-87 43t-116 36 q-45 11 -84 15.5t-74 4.5q-63 0 -109 -12t-81 -26q-44 -20 -83 -51t-68 -68t-46 -78.5t-17 -83.5q0 -32 10 -61l-1 1q14 -56 67.5 -93t164.5 -60l-1 1q10 -4 20.5 -5.5t20.5 -2.5q-51 -40 -108 -77t-123 -70zM278 258q-20 2 -39.5 3.5t-37.5 6.5q-53 11 -91.5 25t-64.5 31.5 t-41.5 38.5t-22.5 47q-16 45 -6 92.5t38 91t71 80t93 59.5q26 11 59 20.5t74.5 14t92.5 1t113 -18.5q63 -16 111.5 -34t83 -40.5t54 -51t23.5 -64.5q7 -58 -30.5 -133t-109 -151.5t-170.5 -147t-215 -120.5q-32 -13 -57.5 -18t-63.5 6q-35 10 -62.5 17.5t-58.5 22.5 q-11 6 -19.5 11.5t-11 11.5t2.5 12.5t21 14.5q78 40 143.5 83t120.5 89zM408 394q34 46 55 86.5t27 72t-2.5 52.5t-33.5 27q-21 5 -46.5 -3.5t-50.5 -25.5t-47.5 -40.5t-38.5 -49.5q-13 -24 -19.5 -47t-4 -42.5t14.5 -33t36 -18.5q53 -13 110 22zM336 375q-5 0 -12 1t-15 3 q-21 5 -30 17.5t-9 29.5q0 31 22 72v-1q13 22 32 42.5t39.5 36.5t42 25.5t40.5 9.5q3 0 13 -2q27 -6 27 -40q0 -31 -20.5 -74.5t-59.5 -96.5q-36 -23 -70 -23z" glyph-name="nine"/>
<glyph unicode=":" horiz-adv-x="541" d="M-78 89q-2 -7 -2.5 -12.5t-0.5 -10.5q0 -45 42 -71t105 -33q19 -3 41 -3q56 0 95 18.5t52 47.5q2 9 4.5 18t2.5 16q0 16 -6 33t-20 32t-39 27.5t-62 18.5q-15 2 -29.5 3.5t-28.5 1.5q-66 0 -106.5 -25t-48.5 -63zM22 387v-9q0 -25 14 -45t37.5 -34.5t55 -22t66.5 -7.5h3 q35 0 63.5 9t49.5 22t34.5 27.5t19.5 25.5q2 7 3 14t1 18q0 28 -29.5 55.5t-95.5 40.5q-14 2 -28 3.5t-28 1.5q-35 0 -64.5 -8t-51 -21.5t-34.5 -31.5t-16 -38zM29 393q3 21 19 39t43 30t63.5 16t79.5 -4q60 -11 86 -34.5t26 -46.5q0 -8 -1 -15t-3 -14q-5 -9 -17 -21.5 t-31 -24t-45 -19t-59 -7.5q-34 0 -64 7t-52.5 20.5t-34.5 32t-10 41.5zM-72 92q4 19 19.5 35.5t40.5 26.5t59.5 13t76.5 -4t66 -22t35 -32t12 -35t-3 -31q-14 -32 -61.5 -49t-112.5 -9q-32 3 -59 12t-45 22.5t-26 31.5t-2 41z" glyph-name="colon"/>
<glyph unicode=";" horiz-adv-x="572" d="M262 13q9 13 9 27q0 26 -30.5 49.5t-87.5 46.5q-36 17 -67.5 28t-56.5 11q-42 0 -51 -36l1 2q-14 -44 -34 -89.5t-40 -89.5q-8 -17 -15.5 -34t-15.5 -34q-2 -5 -4 -10.5t-2 -10.5q0 -36 61 -48h-1q29 -8 60 -12.5t63 -4.5h9q28 2 47 10t37 28q14 12 30.5 32t32.5 43 t30.5 47t24.5 45zM126 -136q-15 -17 -32.5 -24t-42.5 -9q-31 -1 -63 4t-64 13q-63 14 -44 48q25 57 54.5 119.5t50.5 128.5q4 16 18 21t34.5 1.5t46.5 -13.5t55 -23q65 -26 92.5 -51t9.5 -51q-9 -21 -23.5 -44.5t-30.5 -46t-32 -42t-29 -31.5zM-94 459q7 -30 26 -54.5 t47 -42t62 -27t70 -9.5h3q40 0 66.5 10.5t43 25.5t24.5 32t11 30v-1q1 4 1 15q0 17 -8 37t-26.5 39t-48.5 35t-75 25h1q-28 7 -59 7q-32 0 -58 -8.5t-44 -23.5t-27.5 -34t-9.5 -40v-10q0 -4 1 -7v1zM-87 470q-4 24 7 46t34 36.5t58 19.5t79 -5q45 -9 74.5 -25t46 -34.5 t22 -38t2.5 -34.5q-2 -11 -9 -26t-22 -28.5t-39 -22.5t-60 -9q-34 0 -66 8.5t-58 24.5t-44.5 38.5t-24.5 49.5z" glyph-name="semicolon"/>
<glyph unicode="&lt;" horiz-adv-x="766" d="M571 435q24 5 35.5 11.5t11.5 20.5q0 7 -6 16t-19 17h1q-31 24 -81 52q-17 9 -32.5 13.5t-32.5 4.5q-19 0 -40.5 -4t-50.5 -10q-7 -2 -15 -3.5t-16 -3.5q-33 -8 -69.5 -18t-73.5 -20.5t-71 -21t-62 -19.5l1 1q-23 -6 -36.5 -16t-21.5 -22.5t-11.5 -26.5t-6.5 -27 q-2 -11 -3 -18q-6 -11 -6 -23v-9t1 -8q9 -19 36 -28q112 -28 222 -56.5t210 -60.5q26 -10 43 -10q15 0 25.5 7t19.5 21q16 27 22 63v7q0 38 -58 58q-33 11 -75 23.5t-91 25.5q127 36 250 64zM560 458q-75 -17 -149.5 -37t-152.5 -42q65 -17 119.5 -33t96.5 -30 q26 -10 38 -20.5t10 -27.5q-6 -35 -20 -58q-11 -17 -25 -20t-45 8q-100 32 -210.5 61t-222.5 57q-20 6 -25 17q-3 19 3 28q4 14 6.5 29.5t8.5 30t18.5 26t36.5 17.5q26 9 59.5 19t70.5 20.5t74 20.5t71 18q37 8 62.5 13.5t44.5 7t35 -2t34 -13.5q45 -25 79 -51 q22 -15 18 -23.5t-35 -14.5z" glyph-name="less"/>
<glyph unicode="=" horiz-adv-x="959" d="M157 406q146 11 291.5 13.5t300.5 0.5q32 -2 42 4t2 23q-7 14 -16.5 28t-23.5 31q-22 28 -86 31q-65 4 -143.5 5.5t-160 1t-160.5 -3.5t-145 -8q-26 -2 -42 -10.5t-4 -27.5q8 -15 23 -32.5t30 -31.5q18 -17 37.5 -21.5t54.5 -2.5zM142 200q281 30 580 36q32 1 41.5 7 t-1.5 23q-8 14 -18 28t-28 30q-27 28 -86 28q-68 1 -145 -0.5t-156.5 -5.5t-157 -9.5t-146.5 -12.5q-26 -3 -40 -13t0 -28q12 -14 28 -31.5t34 -31.5q18 -15 39 -19.5t56 -0.5zM167 383q-7 -1 -13 -1h-12q-26 0 -43.5 6t-35.5 23q-16 15 -31.5 33.5t-24.5 34.5v-1 q-7 12 -7 21q0 19 19 28.5t46 11.5q77 6 171 9t189 3q68 0 132.5 -1.5t118.5 -5.5q70 -3 97 -37q14 -18 24 -32.5t18 -29.5q2 -5 3.5 -9t1.5 -10q0 -30 -47 -30q-4 0 -7.5 0.5t-8.5 0.5q-38 1 -76 1h-76q-113 0 -221.5 -3.5t-217.5 -11.5h1zM151 177q-8 -1 -15.5 -1.5 t-15.5 -0.5q-25 0 -42 6t-33 19h1q-21 16 -37.5 33.5t-27.5 31.5q-10 13 -10 26q0 17 17.5 27t42.5 13q61 6 130.5 11.5t141 9t142.5 5.5t136 2h57q64 0 96 -32q20 -17 30.5 -32t18.5 -29h-1q9 -14 9 -23q0 -17 -15 -23t-46 -7q-297 -6 -578 -36h-1z" glyph-name="equal"/>
<glyph unicode="&gt;" horiz-adv-x="814" d="M650 405q8 22 -3 30.5t-37 16.5q-59 18 -123.5 35.5t-127.5 33.5t-121 29.5t-103 22.5q-25 5 -43 2t-23 -17q-5 -17 -4 -39t6 -37q6 -9 10.5 -15t11 -10t16 -7t26.5 -6q51 -11 102 -23.5t105 -26.5q-95 -17 -183 -36.5t-149 -36.5q-20 -6 -29 -15t9 -23 q25 -17 50.5 -33.5t50.5 -27.5q26 -12 42.5 -13t41.5 7q42 12 84.5 22.5t87.5 20t94 19.5t105 20q31 7 45 14.5t26 24.5q19 28 33 68zM672 392q-8 -20 -16 -38.5t-19 -33.5q-14 -20 -30 -29t-50 -16q-58 -11 -108.5 -20.5t-95.5 -19.5t-86 -20t-80 -21h1q-20 -8 -41 -8 q-25 0 -54 14q-25 11 -51.5 28t-52.5 35q-17 14 -17 29q0 13 12 21.5t30 13.5q53 15 122 31t144 31l-70 16l-70 16q-18 3 -29.5 6.5t-19 9t-13 13t-13.5 19.5q-4 11 -5.5 23.5t-1.5 25.5q0 9 1 19t4 18q11 28 51 28q15 0 32 -3q44 -9 101 -22t120.5 -29t129 -34.5 t125.5 -36.5q26 -8 40 -16t14 -29q0 -10 -4 -21z" glyph-name="greater"/>
<glyph unicode="?" horiz-adv-x="997" d="M192 184q18 -6 39.5 -12t43 -11t41.5 -8t36 -3q25 0 40 8.5t15 28.5q8 34 30 60t53 46t68 35.5t75 29.5q44 16 84 33.5t71 40.5q34 24 58.5 57.5t24.5 74.5q0 35 -22.5 71.5t-76.5 74.5q-44 34 -122.5 59.5t-176.5 25.5q-19 0 -37.5 -1t-37.5 -3q-102 -11 -190 -49.5 t-159 -101.5q-23 -20 -33 -35.5t-10 -27.5q0 -18 14.5 -28t37.5 -16q57 -15 120 -15q40 0 77 7.5t67 21.5l20 10l20 10q51 26 99 46.5t96 20.5q16 0 30.5 -5t17.5 -16q-1 2 -1 -1q0 -19 -34.5 -46t-120.5 -61q-5 -2 -11 -4.5t-12 -4.5q-41 -17 -88.5 -38t-89.5 -49t-72 -64 t-37 -83l1 2q-2 -8 -2.5 -13t-0.5 -9q0 -20 11.5 -33.5t42.5 -24.5h1zM188 206q-32 11 -39.5 24.5t-2.5 37.5q7 47 40 83t78 63.5t94.5 48t88.5 36.5q49 19 82 37t51.5 34t25.5 30.5t4 26.5q-5 16 -23 23t-38 7q-30 0 -59.5 -8t-59.5 -21t-60.5 -28.5t-62.5 -31.5 q-24 -12 -54 -19t-63.5 -8.5t-68 2.5t-67.5 13q-17 4 -28 10t-13 15t6.5 22.5t31.5 33.5q69 60 155 98t186 49q60 7 114.5 3t101.5 -15.5t84.5 -29t62.5 -36.5q55 -39 75.5 -75.5t17 -69.5t-25.5 -60.5t-51 -48.5t-66.5 -37.5t-77.5 -31.5t-79.5 -31.5t-73 -38t-57.5 -49.5 t-33 -66q2 -18 -17.5 -22.5t-49.5 -1t-65 13t-64 18.5zM55 69q-1 -3 -1 -7v-9q0 -23 13 -41t34.5 -31t51 -20.5t62.5 -10.5q9 -1 17.5 -1.5t17.5 -0.5q64 0 105 20t53 49l-2 -2q4 5 4.5 10t0.5 10v15q0 14 -5 28t-19 27t-38.5 23.5t-63.5 18.5q-18 4 -36.5 5.5t-35.5 1.5 q-34 0 -62 -7t-48.5 -19t-32.5 -27.5t-15 -33.5v2zM62 73q3 19 19 35t44 26t66 12.5t83 -6.5q35 -7 57.5 -16.5t35 -20t17 -22t4.5 -23.5v-15q0 -9 -2 -12q-12 -28 -59 -46.5t-119 -11.5q-32 3 -60.5 10.5t-49 20t-30.5 29.5t-6 40z" glyph-name="question"/>
<glyph unicode="@" horiz-adv-x="1309" d="M1140 294q27 55 27 116q0 51 -21.5 99.5t-65.5 90.5t-113 76t-163 55q-112 26 -232 26q-96 0 -189.5 -17.5t-172.5 -53t-138 -89t-86 -125.5q-11 -29 -15.5 -56.5t-4.5 -52.5q0 -75 36 -135t94 -104t130.5 -73.5t146.5 -43.5q107 -22 193 -22q65 0 115 11q32 8 32 29 q0 14 -18 28q-23 17 -59 28t-71 16q-19 2 -37.5 2.5t-36.5 1.5q-23 1 -49 2.5t-61 7.5q-30 5 -66 19.5t-67.5 39t-53 59.5t-21.5 81q0 47 26 103q28 62 76 108t107.5 76t127 45t133.5 15q59 0 115 -12q59 -13 97.5 -34.5t61 -48t31.5 -56.5t9 -59q0 -26 -5 -50.5t-13 -44.5 v1q-15 -35 -33.5 -62t-37 -45.5t-36 -28t-32.5 -9.5q-10 0 -13 2q-2 2 -2 8q0 13 5.5 34t13 44t16.5 46.5t17 41.5q4 10 6.5 17t6.5 19v-1q6 15 6 27q0 18 -14.5 31.5t-54.5 27.5q-14 26 -44 44.5t-70 27.5q-14 2 -28 3.5t-28 1.5q-50 0 -99.5 -15t-93.5 -42t-79 -64 t-55 -81l1 1q-21 -44 -21 -77t15.5 -58.5t40.5 -44t56.5 -30t63.5 -17.5q46 -8 84 -8q65 0 118 24q46 -37 120 -49h-1q42 -9 89 -9q41 0 81.5 9t77.5 30.5t69 56.5t56 86zM1118 308q-29 -63 -70 -100t-88.5 -54.5t-98.5 -18.5t-99 9q-76 12 -119 52q-79 -42 -202 -19 q-37 7 -73.5 22t-60.5 40t-29.5 60t18.5 83q22 48 62.5 87.5t90.5 65t105.5 35.5t108.5 0q38 -8 66 -26t40 -43q25 -9 39 -16.5t20 -15t5 -16.5t-5 -21t-15 -38.5t-22 -57.5t-20 -61t-9 -49q0 -16 11 -21q16 -8 37.5 -1.5t45 25.5t47 51t42.5 75q9 23 14.5 51.5t4.5 59 t-12 61t-35 57.5t-64 49t-100 35q-77 17 -163 11t-166 -36t-146 -84t-101 -132q-24 -52 -26 -94.5t10.5 -77t37 -60.5t54 -44.5t60.5 -30t57 -16.5q30 -5 54.5 -7t46 -2.5t42 -1t42.5 -3.5q33 -5 67.5 -15.5t55.5 -25.5q14 -10 12 -18t-20 -12q-54 -11 -128 -10.5t-174 21.5 q-56 11 -111.5 30t-104.5 47.5t-88.5 65.5t-62.5 82.5t-27 100.5t18 119q23 60 70 107t110 81t139 54.5t157 28t164.5 2t160.5 -23.5q118 -26 194 -71.5t115 -102t42 -119.5t-26 -123zM687 484q-6 20 -31 26q-11 2 -35 -8.5t-52 -30.5t-55 -48t-42 -61q-16 -33 -20.5 -55.5 t-1 -37.5t13.5 -22.5t23 -9.5q23 -4 49 13.5t52 51t51.5 80.5t47.5 102zM504 243q-4 0 -7 1q-11 2 -18 9.5t-7 22.5q0 24 22 72q13 30 36.5 55t48.5 43.5t47 29.5t34 11q14 -5 18 -11q-20 -49 -42 -91.5t-45 -74t-45 -49.5t-42 -18z" glyph-name="at"/>
<glyph unicode="A" horiz-adv-x="1054" d="M559 572q-43 -51 -92 -111.5t-100 -126.5q51 5 101.5 8.5t102.5 5.5l-2 27q-3 51 -5.5 100t-4.5 97zM326 324q65 85 127 160.5t113 135.5q0 -66 4 -136t9 -142q-127 -6 -253 -18zM597 194q10 -77 24 -136q7 -28 21.5 -39t49.5 -18q35 -8 67.5 -9.5t70.5 -1.5t48.5 7 t8.5 25q-9 84 -16.5 176.5t-12.5 181.5t-6.5 168.5t0.5 136.5q1 23 -11 37.5t-53 22.5l-58 10t-63 9.5t-74.5 8t-92.5 5.5q-59 3 -90 -10t-51 -34q-37 -40 -78.5 -90t-85 -105.5t-87 -113.5t-83.5 -114.5t-75 -109t-61 -96.5q-11 -21 -11.5 -33.5t6 -20.5t19.5 -13.5 t30 -13.5q21 -8 44 -14.5t41 -11.5q33 -8 49.5 -5t30.5 20q21 32 44 65.5t55 71.5q40 7 87.5 13t99.5 11t106 10t107 10zM614 46q-6 26 -11.5 56.5t-10.5 67.5q-13 -2 -25.5 -3t-25.5 -2q-88 -8 -173.5 -17t-154.5 -20q-32 -40 -54 -71.5t-41 -60.5q-20 -27 -53 -27 q-20 0 -44 6q-5 2 -9.5 3.5t-9.5 3.5q-18 5 -37.5 11t-29.5 9q-4 2 -7.5 3.5t-7.5 3.5q-22 10 -36 20t-14 32q0 8 3.5 18.5t10.5 24.5q26 44 61.5 97t75.5 110t83.5 115t87 113.5t85.5 106t79 90.5q21 22 50.5 36t82.5 14q5 0 9.5 -0.5t9.5 -0.5q46 -1 83 -3.5t68 -6.5 t57 -8.5t51 -8.5q8 -2 16 -3t16 -3q45 -9 60.5 -25.5t15.5 -43.5v-7q-1 -16 -1 -33v-36q0 -60 2.5 -132.5t7.5 -150.5t11.5 -157t14.5 -151q0 -2 0.5 -4.5t0.5 -4.5q0 -22 -15 -31t-58 -9q-39 0 -72.5 1.5t-68.5 9.5q-41 7 -58.5 21t-24.5 47z" glyph-name="A"/>
<glyph unicode="B" d="M827 409l12 6q53 29 88.5 66t35.5 81q0 19 -7 36q-20 45 -55.5 78.5t-83.5 62.5q-42 24 -109.5 35t-146.5 11q-63 0 -130 -6t-131.5 -15.5t-123.5 -23t-106 -28.5q-8 -2 -10 -12q-8 -67 -27 -148t-39 -164q-17 -63 -30.5 -124t-22.5 -117v1q-3 -14 -3 -26q0 -26 13 -39.5 t36 -31.5q3 -2 5 -3.5t5 -3.5q22 -12 40.5 -22t36.5 -18t36.5 -15t41.5 -13h-1q26 -11 46.5 -15.5t43.5 -4.5q17 0 36.5 2t44.5 7q52 9 111.5 22.5t117 31t109 38.5t89.5 44h-1q47 26 72.5 53.5t25.5 64.5q0 7 -1 15.5t-4 16.5q-11 32 -39.5 61.5t-72.5 50.5q28 11 51.5 23 t46.5 23zM681 372q54 -18 90.5 -50.5t47.5 -67.5q12 -42 -11 -72.5t-75 -59.5q-37 -23 -88 -43.5t-108 -37.5t-115.5 -30.5t-110.5 -22.5q-28 -5 -48.5 -7.5t-38.5 -1.5t-36 5.5t-40 13.5q-22 6 -40.5 13t-35.5 14.5t-34.5 16.5t-38.5 21q-16 12 -27.5 20.5t-18 18t-8 21.5 t2.5 30q9 58 26 128.5t35.5 144t34.5 146t23 134.5q50 16 114 30t134 24t141.5 14.5t136.5 2.5t119.5 -12.5t89.5 -30.5q46 -28 79.5 -59.5t52.5 -74.5q9 -24 4 -46.5t-21 -43.5t-40 -39.5t-53 -34.5q-32 -16 -65 -32t-78 -32zM320 435q86 18 153.5 42.5t112.5 49.5t66.5 47 t14.5 35q-6 10 -29.5 15.5t-61 4t-86 -9.5t-104.5 -24q-18 -35 -33 -75t-33 -85zM263 286q-14 -38 -27 -75t-24 -75q75 13 136.5 30.5t103.5 37t62.5 38.5t14.5 35q-7 10 -28.5 17t-55.5 9.5t-80 -1.5t-102 -16zM361 472q11 29 21.5 54t21.5 49q57 16 106.5 23.5t87.5 7.5 q58 0 64 -12q0 -12 -21.5 -30t-61.5 -38.5t-97.5 -40.5t-129.5 -37zM424 282q41 0 66 -5.5t33 -13.5v-2q0 -13 -20.5 -28t-57.5 -30t-89 -29.5t-115 -26.5q8 24 16.5 47t16.5 47v-1q2 5 4 11.5t4 13.5q42 9 77.5 13t64.5 4z" glyph-name="B"/>
<glyph unicode="C" horiz-adv-x="942" d="M676 214q-135 25 -218 -32q-114 -82 -173 -68q-30 6 -45 32t-17 64.5t7.5 84.5t29.5 91q20 42 53 89t70 86t73 63t62 19q26 -6 31.5 -27.5t5.5 -47.5q0 -14 5 -32q6 -21 18.5 -37.5t34 -29t52.5 -21t75 -14.5q23 -3 36.5 -2t21 4.5t11.5 9.5t8 13q7 15 11.5 34t6.5 40 t2 42t-2 39q-5 32 -24 57t-71 50q-26 10 -58.5 20t-68.5 18t-74 13.5t-74 7.5q-48 2 -103.5 -6t-109.5 -36q-69 -36 -125.5 -85.5t-98.5 -107t-68.5 -119t-34.5 -121t3 -112.5t44 -94q10 -14 25 -26t33 -22.5t37.5 -18.5t38.5 -14q45 -10 101 -21.5t124 -15.5q33 -2 67 0 t66 7.5t60 13.5t49 17q40 20 79 50t64 65q10 15 15.5 27.5t2.5 22.5t-17 17.5t-41 12.5zM687 221q39 -7 55 -20.5t16 -32.5q0 -12 -6 -24.5t-16 -26.5q-26 -37 -66.5 -68t-82.5 -52q-38 -17 -96.5 -28.5t-121.5 -11.5h-16q-7 0 -15 1q-60 3 -110 13t-92 19q-7 2 -13.5 2.5 t-12.5 2.5q-40 12 -80 34t-62 53q-28 34 -41 76t-13 90q0 65 23.5 135.5t68 137t107 124.5t140.5 98q50 25 100 35t96 10q6 0 12 -0.5t12 -0.5q37 -2 76 -8t76 -14t70 -18t59 -20q28 -14 47 -27.5t30.5 -28t17.5 -30.5t9 -34q1 -9 1.5 -19t0.5 -21q0 -32 -6 -66t-17 -60 l-2 -2q-4 -6 -8 -11.5t-10 -9.5t-15 -6.5t-24 -2.5h-15t-17 2q-47 6 -80 15.5t-55.5 23.5t-36 32t-20.5 42q-6 19 -6 36q0 21 -3 38t-19 21q-5 2 -6 2h-2q-24 0 -57 -24.5t-66.5 -61.5t-64 -80.5t-48.5 -82.5q-17 -41 -26.5 -81t-9.5 -75q0 -38 12 -64t38 -31h-1 q5 -1 9 -1.5t7 -0.5q52 0 146 67q63 43 149 43q38 0 81 -8z" glyph-name="C"/>
<glyph unicode="D" horiz-adv-x="1076" d="M60 709l-123 -551v1q-5 -20 -5 -36t4 -27t11.5 -20t17.5 -16t21 -14v1q2 -2 6.5 -4.5t6.5 -4.5q38 -20 68 -33.5t71 -27.5q49 -18 99 -18q34 0 66 8h-1q168 32 291.5 87t204.5 121.5t120.5 140t39.5 142.5q0 45 -16 86.5t-49 76.5q-39 44 -90 74t-109.5 48.5t-122 26.5 t-127.5 8q-53 0 -105 -4.5t-100 -12.5t-91 -18.5t-78 -22.5zM67 714q49 16 115.5 30.5t140.5 21.5t152 4.5t151.5 -18.5t137.5 -48t110 -85q42 -45 55.5 -101.5t-3 -117t-63 -121.5t-125 -116t-190 -100t-257.5 -73q-76 -20 -156 9q-41 14 -71 27.5t-68 33.5 q-14 9 -26.5 17.5t-20.5 19.5t-10 26.5t5 39.5zM219 146q111 32 189.5 75t128.5 89t73.5 92t26.5 84q2 26 -4.5 46t-17.5 34q-25 28 -84.5 41.5t-144.5 -3.5q-48 -109 -88.5 -223t-78.5 -235zM404 582q43 8 75 8q49 0 83 -12t50 -30h-1q9 -11 14 -25.5t5 -34.5v-9 q-3 -35 -24.5 -77.5t-67 -85.5t-117 -84t-172.5 -72q35 109 72 213.5t83 208.5z" glyph-name="D"/>
<glyph unicode="E" horiz-adv-x="847" d="M-85 127q0 1 0.5 1.5l0.5 0.5zM-76 140q-5 -26 7 -45t37 -33q28 -18 50 -29.5t47 -22.5q10 -5 22.5 -9t28.5 -6t37.5 -1.5t51.5 5.5q88 11 184.5 24t189.5 25q38 5 45 12.5t-1 27.5q-11 18 -21.5 35t-28.5 36q-15 17 -38 23t-61 4q-71 -3 -132.5 -7.5t-127.5 -12.5 q12 26 22.5 53.5t21.5 56.5q81 11 167.5 20.5t171.5 19.5q38 5 46.5 12t-2.5 28q-8 18 -18 35t-28 35q-15 17 -37 22.5t-60 4.5q-45 -1 -85 -2.5t-82 -5.5q21 45 38.5 86t36.5 78q93 8 176.5 14t161.5 11q38 3 48 10.5t3 28.5q-8 18 -16 33t-26 34q-22 35 -94 34 q-77 -2 -154 -7.5t-150.5 -13.5t-140.5 -17t-123 -18zM97 725q56 9 123 18t140.5 17t151 13.5t155.5 7.5h6q76 0 101 -41q17 -18 24.5 -32.5t15.5 -30.5l-1 1l4 -8q4 -11 4 -21q0 -20 -15 -27.5t-53 -10.5q-12 -1 -24 -1.5t-25 -1.5q-66 -5 -135.5 -10t-145.5 -11 q-11 -20 -19.5 -41.5t-19.5 -44.5q-5 -11 -10.5 -23t-10.5 -24q35 2 70 3.5t73 2.5h11q37 0 59 -6.5t38 -25.5v1q19 -19 29.5 -37t19.5 -38l-1 1q4 -8 6.5 -14t2.5 -12q0 -17 -15 -24t-49 -12q-25 -3 -50 -5.5t-51 -5.5q-59 -7 -116.5 -13.5t-113.5 -14.5q-2 -4 -2.5 -7 t-2.5 -7q-7 -17 -13 -33.5t-12 -30.5q59 7 114.5 10.5t120.5 6.5q5 0 10.5 0.5t10.5 0.5q32 0 53.5 -8t36.5 -25q16 -17 25.5 -31t17.5 -28q2 -4 4.5 -6.5t4.5 -6.5l5 -15t2 -12q0 -17 -13.5 -24.5t-48.5 -12.5q-39 -5 -79 -10.5t-80 -10.5q-56 -8 -110 -14.5t-105 -13.5 q-38 -6 -65 -6q-31 0 -49.5 5t-33.5 13q-26 11 -48.5 22.5t-50.5 30.5h1q-25 14 -39 33t-14 44v11l169 585z" glyph-name="E"/>
<glyph unicode="F" horiz-adv-x="836" d="M742 634q38 3 46.5 10t2.5 28q-11 36 -47 69q-12 10 -22.5 17t-21.5 10.5t-24.5 4.5t-32.5 1q-76 -2 -154.5 -6t-154 -9.5t-144 -13t-123.5 -16.5q2 -39 -7 -93.5t-24.5 -116.5t-34.5 -126t-36.5 -122t-31.5 -105t-18 -74q-1 -13 -0.5 -23t5 -17.5t14.5 -13.5t27 -12 q28 -8 64.5 -17t70 -13t57 0t26.5 22q18 54 41 121.5t51 139.5q78 11 159.5 21t159.5 18q38 3 48 11t-1 28q-8 17 -18 34.5t-29 35.5q-29 30 -96 27q-42 -1 -81.5 -3t-79.5 -5q22 46 36 87.5t32 74.5q93 8 178 14t163 12zM751 611q-27 -2 -55.5 -4t-57.5 -4 q-107 -8 -221 -18q-8 -15 -14.5 -32.5t-13.5 -36.5q-6 -15 -12.5 -31t-11.5 -30q68 5 137 6h12q63 0 94 -31q21 -20 31.5 -38.5t19.5 -36.5l-1 1q8 -14 8 -25q0 -18 -15.5 -26t-50.5 -10q-75 -8 -154.5 -17.5t-156.5 -20.5q-26 -70 -48.5 -135t-39.5 -117l1 3 q-4 -21 -21.5 -29t-44.5 -8q-19 0 -41.5 3.5t-45.5 8.5t-45 10.5t-40 10.5q-35 13 -45.5 27t-10.5 39v16q5 26 19 75t33 110q17 55 34.5 115t32 118t24 110.5t9.5 91.5v15q0 13 13 15q55 9 123.5 16.5t144.5 13t155 9.5t155 6h10q18 0 31 -1.5t24.5 -6t22 -11.5t23.5 -18 q39 -36 51 -76v1q4 -11 4 -21q0 -20 -14.5 -27t-51.5 -10z" glyph-name="F"/>
<glyph unicode="G" horiz-adv-x="972" d="M826 456q4 14 7 34t4 41.5t0 43.5t-5 39q-8 32 -28.5 57.5t-65.5 46.5q-23 12 -53 21.5t-63 17t-67.5 12.5t-67.5 8q-47 4 -103.5 0t-103.5 -25q-74 -33 -136 -81t-108 -104.5t-76 -117.5t-41 -121t-1 -114.5t43 -97.5q18 -28 53 -51.5t73 -37.5q102 -32 217 -42 q129 -14 236 27q79 33 145 93t112 145q12 25 10 41t-27 37q-14 11 -29 24t-33 24q-25 17 -54 22t-76 1q-40 -4 -94.5 -8.5t-105.5 -11.5q-26 -3 -48.5 -5t-37.5 -6t-21.5 -10.5t-0.5 -18.5q25 -51 70.5 -73.5t129.5 -19.5q-22 -31 -47.5 -58.5t-52.5 -46.5t-54.5 -28 t-54.5 -3q-30 7 -46 35.5t-17.5 69t10 87.5t36.5 90q26 52 62 99t74 81.5t74 53.5t63 14q13 -2 18 -13t10 -26q2 -8 3.5 -16.5t1.5 -17.5t1 -17t3 -16q8 -43 53.5 -70t140.5 -35q34 -2 47 4t21 23zM848 442q-9 -20 -22 -28.5t-42 -8.5q-4 0 -9 0.5t-10 0.5q-101 8 -150 38.5 t-58 78.5v2q-2 8 -3 15.5t-1 18.5q0 10 -3 22l1 -1q-3 6 -3 13q-3 10 -6 16.5t-8 7.5q-3 1 -10 1q-26 0 -58.5 -20t-67 -53t-67 -76.5t-56.5 -91.5q-23 -38 -34 -80t-11 -80q0 -40 13 -67.5t39 -33.5q2 -1 7 -1h11q40 0 81.5 31t76.5 77q-74 1 -116 25.5t-67 75.5 q-5 12 -5 17q0 12 8 19.5t22.5 12t34 7t42.5 4.5h-1q5 1 9 1t9 1q38 5 80 9t78 7q12 1 22.5 2t20.5 2q11 1 21 1.5t19 0.5q32 0 55.5 -6.5t44.5 -21.5l-1 1q15 -8 30 -21t29 -24q2 -2 3 -2.5t3 -2.5h-1q17 -15 24.5 -28t7.5 -27q0 -16 -12 -41q-48 -88 -115.5 -149.5 t-149.5 -95.5q-81 -31 -178 -31q-33 0 -64 3q-59 5 -113.5 16t-107.5 27q-41 15 -77.5 40t-56.5 55l1 -1q-26 34 -38.5 74t-12.5 85q0 67 26.5 139t75.5 139.5t118.5 125.5t155.5 96q36 17 77.5 22.5t82.5 5.5q14 0 28 -0.5t26 -1.5q34 -3 69 -8t69 -13t64.5 -18t54.5 -22 l-1 1q49 -23 71.5 -51.5t31.5 -63.5q6 -26 6 -63q0 -28 -3.5 -55.5t-9.5 -46.5v-2z" glyph-name="G"/>
<glyph unicode="H" horiz-adv-x="994" d="M934 672q8 20 0.5 31.5t-42.5 25.5q-38 14 -78 25.5t-78 17.5q-40 7 -60.5 3.5t-32.5 -28.5q-26 -66 -54 -152t-60 -177q-51 -2 -106.5 -5t-113.5 -7q28 75 52.5 140t46.5 111q8 21 1 32.5t-45 25.5q-35 14 -81.5 26t-85.5 19q-38 8 -57.5 4t-30.5 -29 q-20 -67 -41.5 -151.5t-44.5 -172t-48 -171t-51 -149.5q-12 -26 1.5 -40.5t46.5 -25.5q26 -11 65 -18t74 -14q19 -3 31 -3.5t19.5 2t12 8t7.5 14.5q15 48 31.5 107t41.5 125q58 6 115.5 11t115.5 11q-15 -54 -26 -99.5t-16 -80.5q-7 -18 -1 -31t21.5 -22.5t39.5 -16.5 t54 -13q30 -5 56 -9.5t44.5 -5.5t29.5 4t11 19q24 81 54 171t61.5 178t62.5 168t58 142zM956 658q-27 -62 -58 -142.5t-62.5 -167.5t-61 -176t-53.5 -168q0 -20 -14 -28.5t-37 -8.5q-19 0 -40 3t-45 8q-5 1 -11.5 2t-11.5 2q-29 6 -52.5 12.5t-41 16t-27 22t-9.5 29.5 q0 11 4 20q5 31 14 71t23 89q-24 -2 -47.5 -4t-46.5 -4q-27 -3 -54 -5.5t-53 -4.5q-16 -44 -27.5 -84t-22.5 -76q-5 -17 -10 -35t-10 -32q-6 -16 -16 -23t-34 -7q-15 0 -36 3q-8 2 -16 3t-16 3q-30 5 -59.5 11t-50.5 16h1q-30 11 -46.5 23.5t-16.5 35.5q0 6 1 13t6 15l-1 -1 q16 42 32.5 92.5t32.5 106.5t31 114t30 115q15 59 31 116.5t30 103.5q8 20 21.5 28t36.5 8q19 0 45 -6q20 -3 42.5 -8t45 -11t43.5 -13t39 -14h-1q32 -13 45.5 -24t13.5 -28q0 -6 -2 -13t-6 -17q-20 -42 -42.5 -99.5t-47.5 -125.5q50 3 97 6t91 5q11 29 20 57.5t19 57.5 q19 57 36 107t34 93q12 24 27 34t38 10q19 0 47 -5h-1q38 -6 79 -17.5t80 -26.5q31 -13 44 -24t13 -28q0 -13 -6 -25z" glyph-name="H"/>
<glyph unicode="I" horiz-adv-x="458" d="M344 715q-35 14 -81 26.5t-86 18.5q-40 7 -59.5 2t-30.5 -27q-16 -37 -34 -90t-37 -113t-37 -124t-33.5 -123t-26.5 -109.5t-15 -84.5q-5 -26 5 -40.5t43 -25.5q32 -11 66.5 -18t72.5 -14q38 -6 51 -1t19 22q13 44 30 98.5t36.5 113.5t40.5 120t42 117.5t41 106.5t37 87 q4 10 5 18t-3.5 14.5t-15.5 12.5t-30 13zM357 721q33 -13 46 -23.5t13 -28.5q0 -6 -2 -13t-6 -17q-17 -37 -37 -86t-40.5 -105.5t-41 -117t-40 -119t-36.5 -112.5t-30 -98q-7 -18 -17 -26t-33 -8q-16 0 -37 3q-38 7 -72 14t-69 19q-32 11 -46 25t-14 38q0 5 0.5 9.5t1.5 9.5 q4 34 15 85t26.5 110.5t33.5 123t36.5 123.5t37 112.5t33.5 89.5q12 23 27 32.5t40 9.5q22 0 42 -4h-1q41 -6 88.5 -19t82.5 -27h-1z" glyph-name="I"/>
<glyph unicode="J" horiz-adv-x="920" d="M194 -5q55 -9 100 -10.5t82 2.5t66.5 12t55.5 19q63 28 114 86.5t91.5 142.5t71.5 190.5t55 231.5q3 10 2.5 17.5t-5.5 14t-15.5 12t-29.5 13.5q-38 14 -86 24.5t-86 17.5q-40 6 -60.5 1t-27.5 -28q-11 -50 -26.5 -116.5t-35.5 -137t-43 -138t-49 -121t-54 -85.5t-58 -31 q-17 1 -27 7t-15 17.5t-7.5 28.5t-5.5 41q-3 74 -163 116q-48 14 -70 -1t-33 -47q-12 -43 -10.5 -76.5t21.5 -65.5q12 -23 31 -43.5t48.5 -38.5t70.5 -32t98 -23zM200 -28q-59 9 -102 24t-73.5 34t-50.5 41t-33 46v-1q-24 39 -24 83q0 29 12 71q10 30 27.5 48t50.5 18 q16 0 43 -8v1q171 -45 174 -130v1q2 -21 4 -35.5t6 -24.5t11.5 -15t19.5 -6h1q26 0 52 32t50 84.5t46 118.5t41 134.5t34 133.5t26 114q7 23 22 33t42 10q10 0 20 -1t21 -3q19 -3 41 -7.5t45 -10t46 -12t43 -13.5q35 -14 48 -25.5t13 -29.5q0 -10 -4 -21l1 2 q-24 -126 -56 -234t-73.5 -193.5t-94 -145.5t-117.5 -89q-36 -15 -80.5 -25t-104.5 -10q-29 0 -61 2.5t-67 8.5h1z" glyph-name="J"/>
<glyph unicode="K" horiz-adv-x="975" d="M476 300q60 37 125 79.5t124 84.5t107.5 81t76.5 71q22 25 24.5 42t-10.5 34q-19 21 -39.5 39t-48.5 32t-51 14q-18 0 -40 -17q-31 -25 -82.5 -61.5t-112 -78t-124.5 -85t-121 -82.5q25 66 45.5 120t40.5 96q12 21 3 31.5t-47 25.5q-35 14 -81 26.5t-86 18.5 q-38 7 -58.5 2t-31.5 -27q-16 -37 -34.5 -90.5t-38 -115t-38.5 -126.5t-35 -125.5t-27.5 -112t-15.5 -85.5q-7 -37 21 -55t93 -30q32 -6 59 -11.5t46 -6.5t29.5 4.5t10.5 21.5q15 45 31.5 99t36.5 117q29 -29 63 -58.5t67 -55.5t60.5 -47t43.5 -33q39 -29 78.5 -33t77.5 3 q25 2 50.5 7t43.5 12q32 10 36.5 20.5t-20.5 27.5q-24 18 -55.5 44t-65 56.5t-67.5 63.5t-63 63zM928 598q-28 -31 -75 -69.5t-104 -79t-120 -82t-122 -78.5q28 -29 60 -60t64 -59.5t61 -52.5t52 -40q14 -10 20.5 -18t6.5 -18q0 -24 -48 -38h1q-19 -8 -45 -13t-51 -7 q-13 -2 -26 -3.5t-27 -1.5q-29 0 -57.5 8.5t-57.5 29.5q-3 2 -6.5 5t-7.5 6q-18 13 -42.5 32t-52.5 41t-56.5 46t-53.5 48q-4 -13 -7.5 -25.5t-7.5 -24.5q-12 -39 -23 -74t-21 -66q-1 -21 -13.5 -29.5t-35.5 -8.5q-17 0 -37.5 3t-44.5 8q-8 2 -16 3t-16 3q-65 12 -96 30.5 t-31 55.5v8q0 5 1 9v-1q4 34 15.5 85.5t27.5 112t34.5 125.5t38 126.5t38.5 114.5t34 90q13 23 28.5 33t39.5 10q21 0 41 -4h-1q41 -6 88.5 -19t82.5 -27h-1q32 -13 46.5 -23.5t14.5 -27.5q0 -15 -9 -28q-16 -35 -32.5 -77t-36.5 -93q17 11 34.5 23t35.5 24q48 32 96 65 t91.5 63.5t80.5 57.5t63 48q25 20 49 20t58 -16q29 -15 50.5 -33.5t41.5 -41.5q15 -18 15 -37q0 -26 -29 -58z" glyph-name="K"/>
<glyph unicode="L" horiz-adv-x="781" d="M553 49q22 3 33.5 6t15 7t1.5 10.5t-8 17.5q-7 17 -18.5 35t-30.5 35q-18 18 -39.5 23.5t-59.5 3.5q-66 -3 -123.5 -7t-122.5 -11q22 64 48 132t53 134t53.5 127t50.5 110q11 20 3 31.5t-43 25.5t-81 25.5t-86 17.5q-38 7 -58.5 2.5t-34.5 -26.5q-20 -41 -41 -91.5 t-41.5 -106.5t-40 -114t-36 -112.5t-28.5 -103t-19 -85.5q-7 -24 4.5 -41.5t36.5 -31.5q33 -18 52.5 -29.5t44.5 -22.5q10 -5 21.5 -9t27 -6.5t38 -1.5t54.5 7q88 12 184.5 24.5t189.5 24.5zM563 26q-24 -3 -48.5 -6.5t-49.5 -6.5q-71 -9 -140.5 -18t-135.5 -18h1 q-21 -4 -38 -5.5t-32 -1.5q-30 0 -48 5.5t-32 12.5q-17 8 -31.5 16t-31.5 17q-8 5 -16.5 9.5t-19.5 10.5q-24 14 -37 30.5t-13 39.5q0 5 0.5 9.5t2.5 11.5l-1 -2q6 37 18.5 86t29.5 104t36.5 113.5t41 115.5t43 108.5t41.5 93.5q11 17 26 24.5t38 7.5q10 0 21 -1t22 -3h-1 q41 -6 88.5 -17.5t82.5 -26.5h-1q30 -11 43.5 -22.5t13.5 -28.5q0 -7 -2.5 -13t-6.5 -14q-23 -47 -48 -104.5t-50.5 -120t-50.5 -127.5t-47 -127q57 6 110 9.5t113 6.5q6 0 12 0.5t11 0.5q32 0 51.5 -7.5t36.5 -24.5h-1q20 -18 32.5 -37.5t20.5 -38.5l-1 2q5 -9 8 -15.5 t3 -13.5q0 -17 -14 -23t-50 -11z" glyph-name="L"/>
<glyph unicode="M" horiz-adv-x="1355" d="M371 122q8 -19 15.5 -31.5t17 -20.5t22 -13.5t30.5 -9.5q22 -5 47 -9t56 -9q19 -3 32 -3t21 2.5t13.5 7t10.5 11.5t12 16q18 28 46.5 67.5t62.5 84t71 91.5t72 90q-15 -45 -28.5 -91t-24 -87.5t-18 -76.5t-10.5 -59q-2 -6 -2.5 -11.5t-0.5 -9.5q0 -23 15 -37t48 -25 q29 -10 64.5 -17.5t70.5 -12.5h-1q8 -2 15 -2h15q29 0 40.5 10.5t20.5 30.5q9 35 23.5 84.5t32.5 107.5t38.5 120t40.5 121t39 111.5t34 90.5q7 15 7 29q0 21 -16 34t-52 23q-62 17 -121.5 28.5t-111.5 19.5q-18 3 -33.5 5t-30.5 2q-27 0 -47.5 -6.5t-39 -20.5t-37 -35.5 t-41.5 -51.5l1 1q-26 -29 -54.5 -62.5t-56 -68t-54 -68t-48.5 -63.5q-5 20 -9 38.5t-8 34.5v-1q-12 50 -19 79.5t-10.5 46t-4.5 23.5t-1 12q-5 18 -10 32.5t-16 26.5t-31 21t-54 17q-23 6 -46.5 10.5t-49 8.5t-54.5 7.5t-63 6.5q-9 1 -16.5 1.5t-15.5 0.5q-33 0 -52 -10.5 t-32 -36.5q-16 -38 -34.5 -90t-38 -111t-38 -122.5t-34.5 -122.5t-27.5 -111.5t-15.5 -89.5q-1 -5 -1.5 -8t-0.5 -9q0 -23 15 -38t50 -27q29 -11 64.5 -18.5t68.5 -12.5h-1q16 -3 31 -3q24 0 35.5 10t19.5 30q8 37 20 83.5t27.5 97.5t33 105.5t37.5 108.5 q14 -75 33.5 -146.5t41.5 -130.5zM293 465q-22 -60 -43 -122t-39 -121t-32.5 -112.5t-23.5 -95.5q-7 -18 -20 -23.5t-48 -0.5q-33 5 -67.5 12.5t-62.5 17.5q-35 12 -46.5 26t-6.5 40q4 37 15.5 89t27 111t34.5 121.5t38 121.5t37.5 111t34.5 89q14 26 35 33t66 3 q67 -6 115.5 -14t95.5 -19q31 -7 48.5 -15t27.5 -18t14.5 -22t8.5 -27q0 -7 1.5 -17t7.5 -37t18 -77.5t33 -137.5q22 31 50 68t58.5 75t62 75.5t60.5 69.5q28 36 49 59t43.5 35t50.5 13.5t72 -6.5q54 -8 113.5 -19.5t117.5 -27.5q40 -11 51 -25.5t0 -40.5q-16 -39 -35 -91.5 t-39 -111.5t-40.5 -121.5t-38.5 -120t-32.5 -107.5t-23.5 -85q-8 -18 -21.5 -26t-51.5 -2q-35 5 -70 12t-62 17q-35 11 -46 26t-4 40q4 29 14 74t24 98t32 110t38 109q-38 -45 -82.5 -100.5t-86.5 -110t-78.5 -104t-58.5 -83.5q-8 -11 -13 -17.5t-12 -9.5t-18.5 -3.5 t-31.5 2.5q-53 7 -101 18q-16 4 -27 8.5t-19.5 11.5t-15 18t-13.5 28q-25 69 -47 155t-37 174z" glyph-name="M"/>
<glyph unicode="N" horiz-adv-x="1030" d="M560 322q-16 45 -31.5 93.5t-29.5 93t-25 82t-18 60.5q-8 30 -24.5 45.5t-56.5 25.5q-48 14 -93 23t-92 17q-38 6 -61.5 0t-35.5 -29q-18 -42 -37 -98t-38.5 -118.5t-37.5 -126t-33 -120.5t-26 -102.5t-15 -71.5q-7 -26 2.5 -40.5t41.5 -25.5q32 -14 68 -20.5t71 -12.5 q38 -7 51.5 -2.5t18.5 21.5q9 36 23 83t31 100t35.5 110.5t36.5 113.5q17 -47 36.5 -94t40 -91.5t41 -83.5t40.5 -69q27 -44 90 -60q35 -8 69.5 -14.5t69.5 -11.5q78 -12 86 26q19 69 44 154.5t52 172.5t54.5 168.5t51.5 142.5q4 10 5 19t-3 16.5t-14.5 14.5t-29.5 14 q-23 9 -40 14t-32.5 9t-31 6.5t-34.5 5.5q-40 6 -61.5 0.5t-29.5 -27.5q-33 -85 -68.5 -191.5t-60.5 -221.5zM478 647q6 -20 15 -51t20 -68t24 -78t27 -81q25 100 57 193t62 170q16 40 68 40q18 0 39 -3q20 -3 35.5 -5.5t31 -6.5t33 -9.5t41.5 -14.5q33 -12 45 -25t12 -30 q0 -13 -6 -28q-24 -62 -51.5 -144t-54.5 -168.5t-52 -171.5t-44 -153l1 1q-9 -41 -68 -41q-16 0 -35 3q-37 5 -72 11.5t-69 14.5q-68 18 -99 67q-36 53 -73.5 133.5t-70.5 166.5q-8 -25 -15.5 -49.5t-15.5 -48.5q-25 -78 -46.5 -147t-34.5 -120q-5 -18 -15 -26t-33 -8 q-8 0 -18.5 1t-21.5 3q-5 1 -11 2t-11 2q-32 5 -62.5 11t-57.5 19h1q-30 11 -43.5 24t-13.5 36q0 12 4 24l-1 -1q4 26 15 71.5t26 102.5t33 120.5t37 125.5t38.5 118t36.5 97q13 25 31.5 35.5t45.5 10.5q18 0 38 -3q2 -1 6.5 -1.5t6.5 -1.5l-2 1q42 -7 83.5 -15.5 t92.5 -23.5v1q44 -11 62.5 -29t28.5 -53z" glyph-name="N"/>
<glyph unicode="O" d="M538 611h-6q-25 0 -56 -21t-61.5 -54t-58 -73t-45.5 -78q-17 -38 -27 -79t-10 -77q0 -41 13 -70t42 -35h-1q5 -1 9.5 -1.5t7.5 -0.5q26 0 54.5 17t56 47t51.5 70t42 87q16 38 24.5 81.5t8.5 82.5q0 41 -9.5 69.5t-32.5 33.5zM535 633q27 -5 39.5 -35t14 -72t-7.5 -90 t-26 -90q-20 -53 -48.5 -98t-60.5 -76.5t-65 -46.5t-63 -8q-32 7 -48 36t-18.5 69.5t7.5 87.5t30 89q20 41 50.5 85t65 78.5t69 55t61.5 15.5zM740 712q-45 21 -111.5 35.5t-139.5 21.5q-27 3 -57 1.5t-60 -6.5t-57.5 -13.5t-49.5 -18.5q-105 -53 -176 -131.5t-105 -164 t-29.5 -169.5t50.5 -150q20 -28 57 -50t75 -36q48 -17 107 -25.5t113 -12.5q84 -6 148.5 4.5t122.5 41.5q82 51 135 121.5t80 147t29 152t-18 137.5q-13 35 -38 63t-76 52zM754 718q55 -26 81.5 -56t40.5 -68q19 -58 19 -126q0 -59 -15 -121t-45.5 -121.5t-78 -113 t-113.5 -94.5q-49 -26 -101.5 -38t-117.5 -12q-14 0 -29 0.5t-31 1.5q-55 4 -114.5 12.5t-109.5 26.5q-39 15 -78 38.5t-61 52.5q-28 39 -41 84.5t-13 94.5q0 62 21 126.5t61.5 125t100 114t136.5 92.5q39 19 91.5 30t103.5 11q10 0 19.5 -0.5t17.5 -1.5q75 -7 143 -21.5 t113 -36.5z" glyph-name="O"/>
<glyph unicode="P" horiz-adv-x="1038" d="M870 394q45 31 77.5 65t32.5 75q0 21 -12 47q-26 53 -67.5 89.5t-89.5 66.5q-38 23 -88 31.5t-107 8.5q-60 0 -126 -8.5t-131.5 -22.5t-127 -31t-113.5 -33h1q-14 -4 -25.5 -29.5t-22 -65t-21 -89t-20.5 -102.5q-10 -49 -19.5 -98t-19.5 -91t-20.5 -74.5t-21.5 -48.5 q-6 -15 -6 -26q0 -21 13.5 -35.5t36.5 -24t52 -15.5t61 -12l30 -6q18 -3 34 -3q25 0 36 9t21 28q14 54 29.5 102t32.5 95q85 15 169.5 36.5t161 47t141 54.5t109.5 60zM271 218q-20 -54 -37 -106t-31 -103q-8 -16 -21.5 -21t-50.5 0q-37 7 -73.5 13.5t-62.5 17t-38.5 26.5 t-1.5 42q15 23 29.5 74.5t28 116t26.5 133t26 126.5t25.5 96.5t24.5 42.5q50 16 109.5 32.5t122.5 30t127 22t122.5 9.5t109.5 -7.5t89 -30.5q47 -29 87 -64t65 -86q12 -26 9 -48.5t-16.5 -43t-36 -39.5t-49.5 -37q-44 -30 -109 -59t-142 -54.5t-162 -46.5t-170 -36z M335 390q97 20 168.5 48t116.5 57t62.5 56t6.5 45q-4 10 -28.5 15t-62 4.5t-84 -7t-95.5 -19.5q-22 -45 -42 -94.5t-42 -104.5zM438 568q49 13 94.5 19t81.5 6q30 0 49 -3.5t21 -10.5q2 -4 2 -6q0 -17 -20.5 -39t-61 -45t-100 -45.5t-137.5 -40.5q18 45 35.5 86t35.5 79z " glyph-name="P"/>
<glyph unicode="Q" horiz-adv-x="1016" d="M345 122q8 0 12 1q-3 1 -4 4q-2 2 -5 4t-5 4l2 -1q-20 14 -20 32q0 25 40 38q25 8 55 14t68 11q20 25 34.5 54t25.5 64q16 37 24.5 80t8.5 83q0 44 -12 74q-10 27 -34 27q-22 0 -51.5 -18t-61.5 -50q-54 -54 -89.5 -117.5t-52.5 -127.5l1 1q-4 -19 -5.5 -36.5t-1.5 -32.5 q0 -42 13 -70.5t43 -36.5q2 -1 6 -1h9zM381 126q-34 -17 -63 -9q-25 6 -39.5 24t-21.5 44t-6 58t7 67q18 67 54.5 132.5t90.5 119.5q27 27 53.5 45t50 24t41.5 -1.5t27 -31.5q9 -21 11.5 -51.5t-0.5 -65t-11.5 -69.5t-21.5 -66q-11 -35 -26.5 -66t-37.5 -57q-40 -5 -71 -11 t-56 -14q-52 -17 -16 -44l16 -14t19 -14zM799 46q-21 15 -38.5 31t-42.5 33q55 52 89.5 115.5t50 129t13.5 128.5t-19 114q-13 35 -37 63t-75 52q-45 21 -111.5 35.5t-139.5 21.5q-27 3 -57 1.5t-60 -6.5t-57.5 -13.5t-49.5 -18.5q-105 -53 -176 -131.5t-105 -164 t-29.5 -169.5t50.5 -150q20 -28 57 -50t75 -36q48 -17 105 -26t115 -12q54 -2 102 0t90 15l12 -6t14 -8q48 -28 114 -20q27 4 53 10t51 16q28 9 29.5 19t-23.5 27zM815 50q30 -21 30 -38q0 -23 -40 -34h1q-26 -11 -53 -17t-55 -10q-8 -1 -14.5 -1.5t-14.5 -0.5q-51 0 -94 24 q-8 6 -12.5 8t-6.5 4q-32 -9 -65.5 -12.5t-69.5 -3.5h-29q-14 0 -28 1q-59 3 -116.5 12t-107.5 27q-39 15 -78 38.5t-61 52.5q-28 39 -41 84.5t-13 94.5q0 62 21 126.5t61.5 125t100 114t136.5 92.5q39 19 91.5 30t103.5 11q10 0 19.5 -0.5t17.5 -1.5q75 -7 143 -21.5 t113 -36.5q55 -26 80.5 -56t39.5 -68q11 -29 15.5 -62.5t4.5 -68.5q0 -90 -34.5 -185.5t-110.5 -173.5q10 -8 17.5 -14.5t14.5 -11.5v1l22 -18t13 -11h-1z" glyph-name="Q"/>
<glyph unicode="R" horiz-adv-x="1067" d="M608 3q35 -14 64 -20t55 -6q27 0 50 5q10 2 14 2q21 2 38 5t40 17q15 8 24 16t9 19q0 18 -37 39q-33 18 -71 40.5t-76.5 47.5t-75.5 51t-70 49q145 45 246.5 95.5t143.5 110.5l-1 -2q20 23 20 55q0 11 -3.5 24.5t-9.5 28.5q-27 55 -68 91t-89 66q-43 25 -95.5 35.5 t-112.5 10.5q-51 0 -106 -7t-110.5 -18t-110.5 -25t-107 -28q-23 -7 -44.5 -40.5t-41.5 -83t-38.5 -109.5t-34 -121t-28.5 -117.5t-22 -97.5q-4 -17 -7 -29.5t-5 -22.5q-1 -5 -1.5 -10t-0.5 -13q0 -24 12 -38.5t38 -25.5q20 -8 42 -11.5t47 -7.5q10 -2 19.5 -3.5t20.5 -3.5 q16 -3 32 -3q24 0 34.5 7.5t17.5 22.5q17 50 33.5 101t36.5 104q37 -29 81 -58t88.5 -55.5t85.5 -49t74 -37.5zM265 236q-22 -58 -40.5 -112.5t-36.5 -108.5q-7 -16 -20 -21t-48 0q-38 7 -69 11t-57 14q-26 11 -35 26.5t-4 41.5q6 28 18 82t27.5 119.5t34.5 135t40.5 128.5 t44.5 99.5t46 47.5q80 22 166.5 42.5t170 29.5t159 1.5t133.5 -40.5q47 -29 87 -64t65 -86q11 -28 10.5 -50.5t-15.5 -41.5q-42 -60 -149 -111.5t-262 -96.5q33 -24 73 -52t82.5 -55.5t84.5 -53.5t79 -46q31 -17 28.5 -27t-24.5 -21q-25 -14 -43 -16.5t-45 -5.5 q-31 -6 -70 -3.5t-90 23.5q-34 16 -77.5 40t-89.5 52t-91.5 58.5t-82.5 60.5zM419 592q-22 -42 -43 -91.5t-47 -106.5q93 20 165 49t119.5 58t68.5 55t12 40q-17 23 -95 23q-38 0 -83.5 -6t-96.5 -21zM607 596q71 0 83 -17v-1q0 -14 -22.5 -35.5t-64.5 -45t-102.5 -47.5 t-136.5 -42q7 14 12.5 27.5t11.5 27.5q14 32 26 60t23 49q47 13 90 18.5t80 5.5z" glyph-name="R"/>
<glyph unicode="S" horiz-adv-x="882" d="M-111 209q-38 -15 -38 -42q0 -25 66 -67q110 -72 218.5 -103.5t223.5 -31.5h17q91 1 156 15.5t108.5 36t69.5 46.5t40 47q15 22 15 44q0 25 -19.5 47t-51.5 41.5t-73.5 38t-86.5 37.5q-48 20 -93.5 40.5t-82.5 42.5q-20 12 -28.5 24.5t-8.5 26.5q0 22 16.5 45.5 t40.5 44.5t51.5 37t50.5 24q21 8 27 8q2 0 2 -4q0 -11 -5.5 -28t-11.5 -34q-7 -18 -12 -34.5t-7 -28.5q0 -2 -0.5 -5t-0.5 -5q0 -79 189 -121l-1 1q13 -4 22.5 -5t17.5 -1q20 0 33.5 7.5t24.5 22.5q13 20 26 47t23.5 55.5t18 56.5t10.5 51q-2 14 -4 29.5t-10.5 31.5 t-24.5 32.5t-46 32.5q-42 23 -102 41.5t-118 30.5q-23 5 -45.5 6.5t-45.5 1.5q-49 0 -87.5 -8t-61.5 -18h1q-47 -17 -94 -43.5t-87.5 -56.5t-71.5 -62.5t-45 -61.5q-23 -40 -23 -78q0 -51 35.5 -93t94.5 -73q41 -22 87.5 -42.5t91.5 -39.5q29 -13 56 -24.5t48.5 -21 t35.5 -17t18 -11.5q-23 -10 -58 -10q-48 0 -116 17t-150 51q-25 11 -57.5 16.5t-67.5 5.5q-25 0 -50 -3t-49 -10h-1zM-114 203q26 7 55 10t57.5 1.5t54.5 -6.5t47 -14q58 -24 110.5 -40t96 -23.5t76.5 -6t53 12.5q16 7 7 18t-35 25t-65 30.5t-81.5 34.5t-85 36.5t-76.5 37.5 q-37 19 -65 43.5t-42.5 53t-14 60.5t20.5 66q13 28 42.5 59.5t69.5 61t86 55t92 42.5q16 7 40 13.5t54 9.5t65 2t72 -8q58 -12 117 -30t99 -40q27 -15 42 -29.5t22.5 -29t9.5 -28t3 -25.5q-3 -22 -10 -49t-17 -54.5t-22.5 -53.5t-25.5 -45q-14 -18 -31.5 -22.5t-50.5 3.5 q-188 42 -176 114q2 14 8.5 33l13 38t11 35.5t2.5 27t-13 12.5t-35 -9q-22 -7 -48 -22t-50 -34.5t-43 -42t-25.5 -45.5t2 -45t39.5 -40q40 -24 90 -46t99.5 -42.5t94.5 -41t74.5 -42.5t39 -46t-10.5 -52q-13 -21 -38 -44.5t-67 -44t-105 -34.5t-151 -15q-118 -2 -228 28 t-223 105q-59 38 -59 54q0 18 28 28z" glyph-name="S"/>
<glyph unicode="T" horiz-adv-x="975" d="M883 642q20 1 31 3t15 5.5t3 10t-5 15.5q-11 20 -30 41t-45 39q-13 10 -31.5 14.5t-56.5 4.5q-50 -1 -109.5 -3.5t-124 -5.5t-131 -7t-131 -9t-124.5 -10.5t-110 -11.5q-25 -4 -33.5 -10t4.5 -24q14 -17 34.5 -43t47.5 -43q25 -17 45.5 -20.5t53.5 1.5q25 4 60.5 7 t73.5 7q-23 -57 -46 -127t-43 -140t-35 -135t-21 -111q-7 -19 -0.5 -32.5t22.5 -23.5t41 -17t55 -13q31 -6 56 -11t44 -6t30 4t13 19q20 71 45.5 150t53.5 159.5t57 159t56 149.5q64 4 124 7.5t111 6.5zM892 619q-24 -2 -50.5 -3t-54.5 -3q-29 -2 -59 -4t-62 -4 q-26 -71 -54.5 -148.5t-56.5 -156.5t-53 -156t-44 -146l1 1q-3 -20 -15.5 -27.5t-35.5 -7.5q-18 0 -39.5 4t-47.5 9q-7 1 -13.5 2t-10.5 2h1q-29 6 -53.5 12.5t-42 16t-27.5 23t-10 31.5q0 9 4 22l-1 -2q6 44 20 105t32.5 128t40.5 135t44 125q-4 0 -7.5 -0.5t-7.5 -0.5 q-27 -2 -51 -4.5t-43 -5.5q-20 -3 -37 -3q-20 0 -36.5 5.5t-36.5 19.5l1 -1q-25 16 -45 39.5t-34 41.5l1 -2l-8 12v-1q-10 14 -10 26q0 17 12.5 22.5t35.5 9.5q76 9 171.5 17t195.5 14t195.5 10t170.5 6q41 0 61.5 -5.5t35.5 -16.5h-1q29 -20 49 -43.5t34 -46.5q4 -10 4 -20 q0 -18 -13.5 -23.5t-49.5 -7.5z" glyph-name="T"/>
<glyph unicode="U" horiz-adv-x="992" d="M-12 93q23 -29 56 -49.5t69 -35.5q84 -33 220 -39q11 -1 21 -1h21q52 0 95.5 7t88.5 22q74 29 129.5 89t99 144.5t77.5 191.5t65 230q2 6 3 10.5t1 13.5q0 17 -12 27.5t-46 23.5q-23 8 -49.5 16.5t-53 15t-52 11t-45.5 4.5q-28 0 -46 -10t-20 -33v3q-13 -48 -30.5 -111.5 t-40 -131.5t-48.5 -133.5t-55.5 -117.5t-62 -84t-66.5 -32q-6 0 -11 1q-20 4 -29 21.5t-9 45.5q0 40 15 94.5t37.5 112t49 114.5t49.5 102q8 18 8 30q0 43 -61 71q-34 14 -69.5 25.5t-74.5 18.5q-13 3 -23.5 4t-21.5 1q-23 0 -38 -8t-25 -28q-29 -56 -58 -118t-52 -125.5 t-37.5 -125t-14.5 -116.5q0 -45 10.5 -83t36.5 -69zM-8 110q-41 50 -43 124.5t20.5 159t61 172t78.5 164.5q11 22 31.5 26.5t60.5 -3.5q38 -7 73 -18t68 -25q69 -31 46 -80q-22 -43 -47 -96t-47 -107.5t-38 -107.5t-20 -95.5t7 -71t42 -34.5q39 -7 75 22.5t68.5 81.5 t61 120.5t52.5 139.5t43 138.5t32 117.5q2 22 27.5 27t62.5 -1t79 -18.5t77 -24.5q38 -14 44.5 -25t-0.5 -32q-30 -122 -63.5 -227t-76 -188.5t-96.5 -142.5t-125 -87q-51 -17 -102.5 -23.5t-117.5 -3.5q-131 6 -215 38q-35 14 -66 33t-53 47z" glyph-name="U"/>
<glyph unicode="V" horiz-adv-x="1025" d="M981 639v1q1 0 1 1l-1 -1q11 17 11 33q0 29 -30 47.5t-77 33.5q-30 11 -58 18.5t-52 7.5q-21 0 -37.5 -7t-26.5 -23q-21 -34 -42.5 -69t-43.5 -71q-55 -91 -111.5 -182t-118.5 -181q-16 83 -28.5 161t-22.5 145q-5 34 -9.5 64t-9.5 56q-10 61 -104 81q-35 8 -66.5 11.5 t-70.5 3.5q-24 0 -38 -3t-21 -9t-9 -16.5t-2 -25.5q13 -168 38 -319t66 -282q9 -26 38 -56.5t85 -49.5q51 -17 94.5 -27t94.5 -20q31 -6 56 -6q29 0 49 9.5t37 29.5q31 41 69 94.5t78 113.5t80 122t75 120t63 108.5t44 86.5zM960 655q-16 -36 -43.5 -86t-62.5 -108t-75 -120 t-80 -121.5t-77.5 -113t-68.5 -94.5q-22 -25 -49 -31.5t-79 3.5q-51 10 -95 20t-92 26q-26 9 -45.5 20.5t-33.5 25t-22.5 26.5t-12.5 25q-40 129 -65 279.5t-38 317.5q0 10 1.5 17.5t7 12t16.5 6.5t30 2q38 0 68.5 -3.5t65.5 -11.5q83 -18 92 -69q7 -40 15 -91.5 t17.5 -111.5t20.5 -125.5t24 -132.5q93 133 176 270t161 263q9 14 25 19t37 3.5t45 -8.5t49 -16q26 -9 47 -18t34 -19.5t15.5 -24t-8.5 -31.5z" glyph-name="V"/>
<glyph unicode="W" horiz-adv-x="1410" d="M252 262q4 54 11 112.5t14.5 111.5t13.5 95l9 63q3 11 2.5 23t-5.5 23.5t-15.5 21.5t-29.5 17q-33 12 -70.5 18.5t-83.5 12.5q-40 5 -55 -2t-20 -31q-7 -45 -12.5 -100t-9 -114t-5.5 -119.5t-2 -118.5q0 -57 3 -108.5t8 -91.5q2 -28 15.5 -41.5t48.5 -21.5 q38 -8 79 -15.5t86 -12.5q33 -4 53.5 -0.5t38.5 24.5q18 25 45.5 62.5t60 80.5t68 88.5t68.5 86.5q0 -32 4 -67t10 -68.5t12 -63t10 -49.5q5 -21 22 -38.5t59 -27.5q21 -3 37 -6.5t33 -6.5t36 -6.5t46 -6.5q48 -6 73 -0.5t39 24.5q24 41 55.5 93t67 109.5t73.5 117.5 t75 116.5t72 107.5t64 89q14 20 12 40.5t-34 37.5q-55 25 -119 42q-21 5 -35 7t-24.5 0.5t-19.5 -8t-18 -18.5q-20 -27 -56.5 -79.5t-81.5 -118t-93 -138t-90 -138.5q4 53 9 107.5t9.5 101.5t7.5 82t3 49q0 12 -1 21t-5.5 15t-15 11t-29.5 10q-17 4 -31.5 7.5t-28.5 6.5 t-29 5.5t-34 5.5q-38 5 -56.5 0t-33.5 -22q-21 -21 -57.5 -66.5t-79.5 -103t-88.5 -120.5t-84.5 -118zM314 569q-8 -52 -17.5 -121.5t-17.5 -140.5q38 54 79.5 110.5t79.5 107t70 90t51 58.5v-1q14 15 28 22.5t39 7.5q16 0 36 -3q37 -5 59.5 -10l49.5 -11q4 -1 9.5 -2.5 t10.5 -2.5q22 -6 33.5 -11.5t17 -13.5t6.5 -19t1 -27q0 -17 -3.5 -57.5t-8.5 -95.5q-3 -30 -6 -62t-6 -65q40 63 84 127.5t83.5 122t71.5 103.5t50 70q14 19 27 26t32 7q11 0 24 -2t29 -6q59 -15 122 -44q23 -12 33 -26t10 -31q0 -21 -13 -40q-30 -40 -65.5 -91t-72.5 -108 t-75.5 -117t-73.5 -117.5t-66.5 -109.5t-55.5 -92q-23 -34 -81 -34q-20 0 -45 3q-33 5 -56.5 8.5t-43.5 7.5q-12 2 -25.5 5t-29.5 5q-46 11 -66 31.5t-25 46.5q-1 4 -1.5 8.5t-2.5 10.5q-8 36 -17.5 87t-13.5 104q-31 -39 -62.5 -80t-60 -79t-52.5 -71l-40 -55 q-17 -19 -33 -26t-39 -7q-9 0 -17.5 0.5t-17.5 1.5q-46 6 -87 13t-79 15q-42 10 -58 25.5t-18 50.5q-5 40 -8 92t-3 110t2 119t5.5 120.5t9 114.5t12.5 100q5 26 18 37t42 11h15t17 -2q46 -6 84 -12.5t73 -19.5q35 -14 48 -35t13 -44q0 -6 -1 -12.5t-3 -11.5 q-2 -11 -3.5 -27t-4.5 -36z" glyph-name="W"/>
<glyph unicode="X" horiz-adv-x="1038" d="M434 553q-28 42 -53.5 80t-45.5 70q-18 22 -41.5 36t-68.5 17q-21 1 -42 1.5t-39 0.5h-38h-20q-9 0 -17 -1q-38 -3 -46.5 -12t4.5 -34q16 -25 38 -59t48.5 -73.5t56 -83t60.5 -87.5q-51 -40 -98.5 -80t-90 -77t-78.5 -70t-63 -60q-22 -21 -22 -36q0 -9 13.5 -22 t33.5 -26.5t43 -25.5t42 -20q57 -26 94 5q51 42 116.5 98.5t143.5 119.5q46 -66 80 -111.5t52 -62.5q12 -12 23 -20.5t23.5 -14t27 -9t34.5 -4.5q81 -4 154 0q33 3 39.5 12.5t-11.5 28.5q-46 66 -102 149t-118 174q100 78 188.5 146.5t154.5 119.5q22 17 27 35.5t-20 39.5 q-20 17 -49 37t-61 34q-31 11 -57 11t-51 -17q-51 -36 -117.5 -89.5t-146.5 -119.5zM418 608q7 -11 13.5 -20.5t13.5 -19.5q75 62 139 112.5t113 85.5q29 20 60 20q26 0 66 -14q32 -14 61.5 -34t49.5 -38q25 -21 25 -45q0 -28 -33 -53q-65 -50 -150.5 -116t-181.5 -141 q6 -11 12.5 -20.5t13.5 -18.5q52 -77 99 -146t87 -126l-1 2q17 -17 17 -33q0 -28 -55 -34q-19 -2 -38 -2h-38h-40t-40 2q-22 1 -38 4.5t-29 9.5t-25 15.5t-25 22.5q-18 18 -50 60.5t-75 102.5q-42 -33 -79 -65t-71 -61q-27 -23 -51.5 -44t-46.5 -38q-12 -10 -26.5 -14.5 t-29.5 -4.5q-14 0 -26.5 2.5t-26.5 9.5q-21 8 -45.5 21.5t-45.5 29t-35.5 30.5t-14.5 27q0 21 27 47h-1q25 25 59.5 57t76 68t88 75t96.5 79q-30 42 -58 83.5t-53 78.5t-46 69.5t-36 56.5q-12 22 -12 36q0 19 15 26.5t49 10.5q8 1 17 1h21h38q18 0 39.5 -0.5t42.5 -1.5 q25 -2 43 -6.5t32 -12t24.5 -17t20.5 -21.5q14 -22 31 -47t34 -51h-1z" glyph-name="X"/>
<glyph unicode="Y" horiz-adv-x="955" d="M901 635q10 14 14.5 23.5t4.5 20.5q0 14 -8 24.5t-25 22.5q-16 9 -37.5 19.5t-44 19.5t-45.5 15t-42 6q-18 0 -32.5 -6t-22.5 -21q-60 -68 -124 -136.5t-130 -136.5q-32 66 -62 123.5t-56 102.5q-11 15 -20.5 25.5t-20.5 18t-25.5 12t-35.5 7.5q-17 2 -35 3t-35 1 q-41 0 -83 -3q-32 -3 -45 -9.5t-13 -23.5q0 -12 9 -28l-1 1q29 -63 68 -143.5t80 -162.5l31.5 -63t29.5 -61q-9 -33 -17 -64t-14 -59q-5 -24 -11 -48t-11 -43q-1 -2 -1 -4v-10q0 -23 12.5 -36t41.5 -27q40 -11 79 -20.5t71 -15.5q11 -2 19 -3t19 -1q23 0 32.5 7.5t16.5 24.5 q14 54 31.5 110t43.5 121q60 58 122 119t116 117t95.5 103.5t61.5 78.5zM881 652q-20 -31 -62 -78.5t-96 -103.5t-115.5 -117t-120.5 -118q-25 -63 -42.5 -119.5t-32.5 -110.5q-8 -20 -21.5 -24.5t-50.5 1.5q-35 7 -73.5 15.5t-69.5 17.5q-32 14 -42 27.5t-5 39.5 q12 42 23.5 96.5t29.5 117.5q-26 54 -55 111.5t-57 114.5t-53.5 110.5t-45.5 97.5q-11 21 -4.5 28.5t41.5 10.5q38 2 75 3t75 -4q19 -3 32 -7t23 -10.5t18 -15.5t17 -21q29 -48 61 -111t67 -135q71 72 138.5 145.5t131.5 145.5q11 19 36 20t55 -8t60.5 -23t51.5 -26 q25 -17 27 -31t-16 -39z" glyph-name="Y"/>
<glyph unicode="Z" horiz-adv-x="825" d="M428 609q-77 -60 -157.5 -128.5t-153.5 -134.5t-133 -124.5t-95 -97.5q-11 -12 -11.5 -22t5.5 -19t16 -17t20 -15q32 -18 53 -30t46 -24q12 -6 24.5 -10t28.5 -6.5t37 -1.5t51 6q44 7 93 13.5t99.5 13t100.5 12.5t97 12q38 3 48.5 11t-0.5 28q-13 33 -51 71 q-14 16 -41.5 22.5t-65.5 3.5q-58 -5 -110.5 -10.5t-105.5 -13.5q134 115 275.5 232t274.5 223q25 19 26 35.5t-11 34.5q-8 14 -16.5 30t-27.5 37q-14 17 -33 24t-57 6q-70 -2 -148.5 -5.5t-156.5 -8.5t-151 -12t-131 -15q-25 -5 -32.5 -11.5t3.5 -24.5q14 -18 35.5 -42 t35.5 -38q25 -18 54 -23t64 -1q47 6 95 10t106 10zM-114 126q33 37 88 90.5t122 115t142 126t148 123.5q-9 -1 -18 -1.5t-17 -1.5q-31 -3 -59 -5.5t-56 -6.5q-8 -1 -15.5 -1.5t-15.5 -0.5q-27 0 -51 6.5t-46 22.5q-7 7 -17 17.5t-20 22t-19.5 22.5t-16.5 20q-5 8 -8 15 t-3 12q0 17 12.5 23t35.5 11q58 8 131 15t151.5 12t157.5 8.5t150 5.5h8q38 0 58 -8t36 -28q15 -17 23.5 -31t14.5 -25q1 -3 2.5 -6t3.5 -5q14 -20 14 -39q0 -13 -7.5 -25.5t-24.5 -26.5q-124 -99 -254 -206t-256 -215q37 5 75 8.5t79 7.5q2 0 5 0.5t6 0.5q6 1 12 1h12 q67 0 96 -32v1q39 -40 53 -76q8 -14 8 -23q0 -18 -16.5 -26t-51.5 -11h1q-29 -4 -58.5 -7.5t-60.5 -7.5q-70 -8 -140 -17t-131 -19q-39 -6 -65 -6q-30 0 -49 5.5t-36 13.5q-23 11 -41 21.5t-45 25.5q-4 2 -7 4.5t-8 4.5q-17 12 -32 26.5t-15 34.5q0 16 15 34z" glyph-name="Z"/>
<glyph unicode="[" horiz-adv-x="669" d="M452 43q-12 17 -19 33t-25 33q-30 32 -97 27q-25 -1 -47.5 -2t-47.5 -2q18 57 40 121t46.5 128.5t50 126.5t50.5 116q45 2 88.5 5t81.5 5q35 3 46 10t0 26q-8 18 -18 33t-28 33q-15 17 -36.5 26t-56.5 8q-53 -1 -115 -3t-122 -7q-64 -5 -77 -36q-29 -62 -59 -141 t-57.5 -161t-50.5 -161t-36 -141q-6 -29 3.5 -46t29.5 -32q22 -11 41 -22t41 -20q25 -11 53 -15.5t70 0.5q51 6 105.5 12t99.5 11q38 0 47.5 8t-1.5 27zM473 42q8 -14 8 -24q0 -32 -65 -33q-21 -2 -44.5 -4.5t-48.5 -5.5q-28 -3 -56.5 -6.5t-55.5 -6.5q-23 -3 -42 -3 q-28 0 -49 5t-40 14q-13 5 -27 13t-29 16q-7 4 -15 7.5t-15 7.5q-18 14 -29 30t-11 41q0 6 0.5 11t1.5 10q14 63 36.5 142.5t50.5 162t58 162t59 141.5q18 40 90 45q60 5 122.5 7t115.5 3h5q36 0 59 -10t40 -29v1q19 -19 29.5 -35t19.5 -36l-1 1q8 -14 8 -23 q0 -18 -16.5 -25t-49.5 -10q-24 -2 -51 -3q-26 -2 -53.5 -3.5t-56.5 -3.5q-24 -52 -48 -110.5t-47 -118.5t-44 -119.5t-38 -113.5q6 1 12 1q7 0 14 1q11 1 23 1t25 1q4 0 8.5 0.5t8.5 0.5q60 0 92 -32q11 -11 18.5 -22.5t13.5 -23.5q5 -11 13 -22z" glyph-name="bracketleft"/>
<glyph unicode="\" horiz-adv-x="788" d="M225 776q-40 5 -74.5 6t-72.5 0q-77 -2 -60 -43q13 -39 38 -97.5t56.5 -126t66.5 -139t69.5 -137.5t65 -120.5t52.5 -88.5q9 -12 17.5 -21t18.5 -15.5t22.5 -10t29.5 -4.5q30 -3 59 -3q30 0 62 2q38 2 46.5 10t-2.5 25q-22 43 -50 102.5t-58.5 126t-61 136.5t-58 135 t-49.5 121t-35 95q-6 12 -12 19.5t-14.5 13t-21.5 8.5t-34 6zM235 783q23 -3 37.5 -7t24.5 -10.5t17 -16t15 -23.5q13 -39 35 -95t49.5 -120.5t58 -134.5t60.5 -136.5t58 -125.5t50 -102q4 -7 6.5 -12.5t2.5 -11.5q0 -16 -15 -23.5t-50 -9.5q-14 -1 -29 -1.5t-29 -0.5 q-34 0 -65 3q-20 1 -34.5 5.5t-25.5 11.5t-20.5 17t-19.5 23q-22 34 -52.5 89t-65 120.5t-70 138t-67 140t-56.5 126.5t-38 99v-1q-4 8 -4 19q0 43 78 45h40q27 0 53.5 -1t55.5 -5z" glyph-name="backslash"/>
<glyph unicode="]" horiz-adv-x="700" d="M566 639q7 18 4 30.5t-28 29.5q-18 14 -35 25.5t-35 22.5q-22 14 -43 19t-59 3q-72 -3 -136.5 -7t-116.5 -10q-32 -3 -41.5 -13.5t-5 -25.5t19 -32t30.5 -33q14 -18 34 -23.5t60 -3.5q18 1 35 2.5t36 2.5q-22 -54 -46.5 -117t-49 -128.5t-46 -129.5t-37.5 -118 q-42 -4 -87 -10t-78 -11q-64 -11 -30 -43q14 -17 29 -32.5t30 -27.5q18 -12 37.5 -17.5t59.5 -1.5q46 5 95 9t101 9q24 0 38.5 3t23 7.5t12.5 10.5t7 13q20 61 46.5 140t55.5 160.5t60 159.5t60 137zM587 624q-29 -59 -59.5 -136t-59.5 -159t-55.5 -160.5t-46.5 -139.5 q-3 -9 -8.5 -17t-15.5 -14t-26.5 -9.5t-43.5 -3.5q-23 -2 -45.5 -4t-44.5 -4q-28 -2 -54 -4.5t-52 -5.5q-8 -1 -16 -1h-13q-27 0 -44 6t-34 17q-35 27 -62 62q-14 14 -14 29q0 28 53 39q32 5 74.5 10.5t82.5 9.5q15 53 35.5 113t42.5 120.5t44.5 119t43.5 109.5 q-3 0 -6 -0.5t-6 -0.5q-8 -1 -16.5 -1.5t-18.5 -0.5q-6 0 -11.5 -0.5t-10.5 -0.5q-32 0 -51 8t-33 26l1 -2q-20 20 -37.5 43t-17.5 43q0 17 14 29t48 15h-1q52 6 117 10t137 7q6 0 12.5 0.5t11.5 0.5q29 0 48 -6t39 -20v1l34 -22t37 -27h-1q20 -14 28 -25.5t8 -24.5 q0 -12 -6 -27z" glyph-name="bracketright"/>
<glyph unicode="^" horiz-adv-x="983" d="M714 361q31 -1 40 5.5t1 23.5q-13 28 -30 64.5t-34 76.5t-32.5 81t-26.5 79q-7 24 -17 34.5t-31 24.5q-22 11 -47.5 21t-51.5 21q-25 8 -45.5 7.5t-47.5 -17.5q-51 -29 -103 -64t-99.5 -70t-87.5 -67t-66 -56q-31 -26 2 -54q20 -17 38 -29t39 -24q23 -13 38 -13 q19 0 35 13q51 38 111.5 83t132.5 91q25 -54 46.5 -102t41.5 -80q23 -32 77 -40q33 -5 61.5 -6.5t55.5 -2.5zM722 338q-28 1 -57.5 2.5t-61.5 6.5q-60 9 -88 46q-15 24 -33.5 63t-38.5 84q-3 5 -5.5 11t-4.5 11q-60 -39 -111.5 -77t-96.5 -72q-5 -4 -10 -7.5t-10 -7.5 q-20 -16 -44 -16q-17 0 -45 15q-22 13 -40.5 25t-39.5 30q-22 20 -22 39q0 21 21 38l-1 -1q26 24 66 56t88 67.5t101 70.5t104 65h-1q31 20 61 20q11 0 21.5 -2t23.5 -7q10 -4 19.5 -7.5t18.5 -7.5q15 -6 29.5 -12t31.5 -15q25 -17 37 -29.5t20 -39.5q10 -36 25.5 -76.5 t32.5 -80.5t34 -77t31 -65l-1 1q6 -14 6 -21q0 -17 -13 -23.5t-40 -6.5h-7z" glyph-name="asciicircum"/>
<glyph unicode="_" horiz-adv-x="946" d="M980 -212q26 -2 42 3.5t25 15t14 21t9 22.5q5 12 10 23t2.5 19.5t-14.5 13.5t-42 4h-981q-33 0 -50 -7t-25 -25q-8 -15 -12.5 -29t-9.5 -28q-8 -18 4.5 -25.5t43.5 -7.5h984zM4 -235q-32 0 -49 8t-17 28q0 10 4 18v-1q2 5 3 8.5t3 8.5v-1q3 11 7 21.5t10 21.5l-1 -1 q11 23 31 32t58 9h991q35 0 48.5 -10t13.5 -27q0 -10 -2.5 -18.5t-7.5 -17.5v1l-2 -4l-2 -4q-2 -2 -2 -6q-4 -11 -9.5 -22.5t-15.5 -21.5t-25.5 -16t-39.5 -6h-996z" glyph-name="underscore"/>
<glyph unicode="`" horiz-adv-x="869" d="M183 980q36 -14 86 -31t108.5 -34t121 -33.5t122.5 -28.5q26 -7 57 -3t69 17q-1 -1 3 1l10 -23q-53 -19 -96 -19q-10 0 -19.5 1t-19.5 4l1 -1q-60 12 -122.5 28.5t-121 33.5t-109.5 34.5t-87 31.5l-10 18q6 25 19 41t43 24q26 8 45.5 11.5t36.5 3.5q31 0 51 -10 q40 -18 87.5 -35.5t98.5 -33.5t103 -31t103 -28q17 -7 24.5 -16t8.5 -18q-2 5 -10 4t-17 -5q5 6 1.5 14t-23.5 16q-51 13 -103 28t-102.5 31t-97.5 33t-87 35q-21 10 -49.5 9.5t-73.5 -14.5q-25 -7 -35.5 -20.5t-15.5 -34.5z" glyph-name="grave"/>
<glyph unicode="a" horiz-adv-x="1054" d="M559 572q-43 -51 -92 -111.5t-100 -126.5q51 5 101.5 8.5t102.5 5.5l-2 27q-3 51 -5.5 100t-4.5 97zM326 324q65 85 127 160.5t113 135.5q0 -66 4 -136t9 -142q-127 -6 -253 -18zM597 194q10 -77 24 -136q7 -28 21.5 -39t49.5 -18q35 -8 67.5 -9.5t70.5 -1.5t48.5 7 t8.5 25q-9 84 -16.5 176.5t-12.5 181.5t-6.5 168.5t0.5 136.5q1 23 -11 37.5t-53 22.5l-58 10t-63 9.5t-74.5 8t-92.5 5.5q-59 3 -90 -10t-51 -34q-37 -40 -78.5 -90t-85 -105.5t-87 -113.5t-83.5 -114.5t-75 -109t-61 -96.5q-11 -21 -11.5 -33.5t6 -20.5t19.5 -13.5 t30 -13.5q21 -8 44 -14.5t41 -11.5q33 -8 49.5 -5t30.5 20q21 32 44 65.5t55 71.5q40 7 87.5 13t99.5 11t106 10t107 10zM614 46q-6 26 -11.5 56.5t-10.5 67.5q-13 -2 -25.5 -3t-25.5 -2q-88 -8 -173.5 -17t-154.5 -20q-32 -40 -54 -71.5t-41 -60.5q-20 -27 -53 -27 q-20 0 -44 6q-5 2 -9.5 3.5t-9.5 3.5q-18 5 -37.5 11t-29.5 9q-4 2 -7.5 3.5t-7.5 3.5q-22 10 -36 20t-14 32q0 8 3.5 18.5t10.5 24.5q26 44 61.5 97t75.5 110t83.5 115t87 113.5t85.5 106t79 90.5q21 22 50.5 36t82.5 14q5 0 9.5 -0.5t9.5 -0.5q46 -1 83 -3.5t68 -6.5 t57 -8.5t51 -8.5q8 -2 16 -3t16 -3q45 -9 60.5 -25.5t15.5 -43.5v-7q-1 -16 -1 -33v-36q0 -60 2.5 -132.5t7.5 -150.5t11.5 -157t14.5 -151q0 -2 0.5 -4.5t0.5 -4.5q0 -22 -15 -31t-58 -9q-39 0 -72.5 1.5t-68.5 9.5q-41 7 -58.5 21t-24.5 47z" glyph-name="a"/>
<glyph unicode="b" d="M827 409l12 6q53 29 88.5 66t35.5 81q0 19 -7 36q-20 45 -55.5 78.5t-83.5 62.5q-42 24 -109.5 35t-146.5 11q-63 0 -130 -6t-131.5 -15.5t-123.5 -23t-106 -28.5q-8 -2 -10 -12q-8 -67 -27 -148t-39 -164q-17 -63 -30.5 -124t-22.5 -117v1q-3 -14 -3 -26q0 -26 13 -39.5 t36 -31.5q3 -2 5 -3.5t5 -3.5q22 -12 40.5 -22t36.5 -18t36.5 -15t41.5 -13h-1q26 -11 46.5 -15.5t43.5 -4.5q17 0 36.5 2t44.5 7q52 9 111.5 22.5t117 31t109 38.5t89.5 44h-1q47 26 72.5 53.5t25.5 64.5q0 7 -1 15.5t-4 16.5q-11 32 -39.5 61.5t-72.5 50.5q28 11 51.5 23 t46.5 23zM681 372q54 -18 90.5 -50.5t47.5 -67.5q12 -42 -11 -72.5t-75 -59.5q-37 -23 -88 -43.5t-108 -37.5t-115.5 -30.5t-110.5 -22.5q-28 -5 -48.5 -7.5t-38.5 -1.5t-36 5.5t-40 13.5q-22 6 -40.5 13t-35.5 14.5t-34.5 16.5t-38.5 21q-16 12 -27.5 20.5t-18 18t-8 21.5 t2.5 30q9 58 26 128.5t35.5 144t34.5 146t23 134.5q50 16 114 30t134 24t141.5 14.5t136.5 2.5t119.5 -12.5t89.5 -30.5q46 -28 79.5 -59.5t52.5 -74.5q9 -24 4 -46.5t-21 -43.5t-40 -39.5t-53 -34.5q-32 -16 -65 -32t-78 -32zM320 435q86 18 153.5 42.5t112.5 49.5t66.5 47 t14.5 35q-6 10 -29.5 15.5t-61 4t-86 -9.5t-104.5 -24q-18 -35 -33 -75t-33 -85zM263 286q-14 -38 -27 -75t-24 -75q75 13 136.5 30.5t103.5 37t62.5 38.5t14.5 35q-7 10 -28.5 17t-55.5 9.5t-80 -1.5t-102 -16zM361 472q11 29 21.5 54t21.5 49q57 16 106.5 23.5t87.5 7.5 q58 0 64 -12q0 -12 -21.5 -30t-61.5 -38.5t-97.5 -40.5t-129.5 -37zM424 282q41 0 66 -5.5t33 -13.5v-2q0 -13 -20.5 -28t-57.5 -30t-89 -29.5t-115 -26.5q8 24 16.5 47t16.5 47v-1q2 5 4 11.5t4 13.5q42 9 77.5 13t64.5 4z" glyph-name="b"/>
<glyph unicode="c" horiz-adv-x="942" d="M676 214q-135 25 -218 -32q-114 -82 -173 -68q-30 6 -45 32t-17 64.5t7.5 84.5t29.5 91q20 42 53 89t70 86t73 63t62 19q26 -6 31.5 -27.5t5.5 -47.5q0 -14 5 -32q6 -21 18.5 -37.5t34 -29t52.5 -21t75 -14.5q23 -3 36.5 -2t21 4.5t11.5 9.5t8 13q7 15 11.5 34t6.5 40 t2 42t-2 39q-5 32 -24 57t-71 50q-26 10 -58.5 20t-68.5 18t-74 13.5t-74 7.5q-48 2 -103.5 -6t-109.5 -36q-69 -36 -125.5 -85.5t-98.5 -107t-68.5 -119t-34.5 -121t3 -112.5t44 -94q10 -14 25 -26t33 -22.5t37.5 -18.5t38.5 -14q45 -10 101 -21.5t124 -15.5q33 -2 67 0 t66 7.5t60 13.5t49 17q40 20 79 50t64 65q10 15 15.5 27.5t2.5 22.5t-17 17.5t-41 12.5zM687 221q39 -7 55 -20.5t16 -32.5q0 -12 -6 -24.5t-16 -26.5q-26 -37 -66.5 -68t-82.5 -52q-38 -17 -96.5 -28.5t-121.5 -11.5h-16q-7 0 -15 1q-60 3 -110 13t-92 19q-7 2 -13.5 2.5 t-12.5 2.5q-40 12 -80 34t-62 53q-28 34 -41 76t-13 90q0 65 23.5 135.5t68 137t107 124.5t140.5 98q50 25 100 35t96 10q6 0 12 -0.5t12 -0.5q37 -2 76 -8t76 -14t70 -18t59 -20q28 -14 47 -27.5t30.5 -28t17.5 -30.5t9 -34q1 -9 1.5 -19t0.5 -21q0 -32 -6 -66t-17 -60 l-2 -2q-4 -6 -8 -11.5t-10 -9.5t-15 -6.5t-24 -2.5h-15t-17 2q-47 6 -80 15.5t-55.5 23.5t-36 32t-20.5 42q-6 19 -6 36q0 21 -3 38t-19 21q-5 2 -6 2h-2q-24 0 -57 -24.5t-66.5 -61.5t-64 -80.5t-48.5 -82.5q-17 -41 -26.5 -81t-9.5 -75q0 -38 12 -64t38 -31h-1 q5 -1 9 -1.5t7 -0.5q52 0 146 67q63 43 149 43q38 0 81 -8z" glyph-name="c"/>
<glyph unicode="d" horiz-adv-x="1076" d="M60 709l-123 -551v1q-5 -20 -5 -36t4 -27t11.5 -20t17.5 -16t21 -14v1q2 -2 6.5 -4.5t6.5 -4.5q38 -20 68 -33.5t71 -27.5q49 -18 99 -18q34 0 66 8h-1q168 32 291.5 87t204.5 121.5t120.5 140t39.5 142.5q0 45 -16 86.5t-49 76.5q-39 44 -90 74t-109.5 48.5t-122 26.5 t-127.5 8q-53 0 -105 -4.5t-100 -12.5t-91 -18.5t-78 -22.5zM67 714q49 16 115.5 30.5t140.5 21.5t152 4.5t151.5 -18.5t137.5 -48t110 -85q42 -45 55.5 -101.5t-3 -117t-63 -121.5t-125 -116t-190 -100t-257.5 -73q-76 -20 -156 9q-41 14 -71 27.5t-68 33.5 q-14 9 -26.5 17.5t-20.5 19.5t-10 26.5t5 39.5zM219 146q111 32 189.5 75t128.5 89t73.5 92t26.5 84q2 26 -4.5 46t-17.5 34q-25 28 -84.5 41.5t-144.5 -3.5q-48 -109 -88.5 -223t-78.5 -235zM404 582q43 8 75 8q49 0 83 -12t50 -30h-1q9 -11 14 -25.5t5 -34.5v-9 q-3 -35 -24.5 -77.5t-67 -85.5t-117 -84t-172.5 -72q35 109 72 213.5t83 208.5z" glyph-name="d"/>
<glyph unicode="e" horiz-adv-x="847" d="M-85 127q0 1 0.5 1.5l0.5 0.5zM-76 140q-5 -26 7 -45t37 -33q28 -18 50 -29.5t47 -22.5q10 -5 22.5 -9t28.5 -6t37.5 -1.5t51.5 5.5q88 11 184.5 24t189.5 25q38 5 45 12.5t-1 27.5q-11 18 -21.5 35t-28.5 36q-15 17 -38 23t-61 4q-71 -3 -132.5 -7.5t-127.5 -12.5 q12 26 22.5 53.5t21.5 56.5q81 11 167.5 20.5t171.5 19.5q38 5 46.5 12t-2.5 28q-8 18 -18 35t-28 35q-15 17 -37 22.5t-60 4.5q-45 -1 -85 -2.5t-82 -5.5q21 45 38.5 86t36.5 78q93 8 176.5 14t161.5 11q38 3 48 10.5t3 28.5q-8 18 -16 33t-26 34q-22 35 -94 34 q-77 -2 -154 -7.5t-150.5 -13.5t-140.5 -17t-123 -18zM97 725q56 9 123 18t140.5 17t151 13.5t155.5 7.5h6q76 0 101 -41q17 -18 24.5 -32.5t15.5 -30.5l-1 1l4 -8q4 -11 4 -21q0 -20 -15 -27.5t-53 -10.5q-12 -1 -24 -1.5t-25 -1.5q-66 -5 -135.5 -10t-145.5 -11 q-11 -20 -19.5 -41.5t-19.5 -44.5q-5 -11 -10.5 -23t-10.5 -24q35 2 70 3.5t73 2.5h11q37 0 59 -6.5t38 -25.5v1q19 -19 29.5 -37t19.5 -38l-1 1q4 -8 6.5 -14t2.5 -12q0 -17 -15 -24t-49 -12q-25 -3 -50 -5.5t-51 -5.5q-59 -7 -116.5 -13.5t-113.5 -14.5q-2 -4 -2.5 -7 t-2.5 -7q-7 -17 -13 -33.5t-12 -30.5q59 7 114.5 10.5t120.5 6.5q5 0 10.5 0.5t10.5 0.5q32 0 53.5 -8t36.5 -25q16 -17 25.5 -31t17.5 -28q2 -4 4.5 -6.5t4.5 -6.5l5 -15t2 -12q0 -17 -13.5 -24.5t-48.5 -12.5q-39 -5 -79 -10.5t-80 -10.5q-56 -8 -110 -14.5t-105 -13.5 q-38 -6 -65 -6q-31 0 -49.5 5t-33.5 13q-26 11 -48.5 22.5t-50.5 30.5h1q-25 14 -39 33t-14 44v11l169 585z" glyph-name="e"/>
<glyph unicode="f" horiz-adv-x="836" d="M742 634q38 3 46.5 10t2.5 28q-11 36 -47 69q-12 10 -22.5 17t-21.5 10.5t-24.5 4.5t-32.5 1q-76 -2 -154.5 -6t-154 -9.5t-144 -13t-123.5 -16.5q2 -39 -7 -93.5t-24.5 -116.5t-34.5 -126t-36.5 -122t-31.5 -105t-18 -74q-1 -13 -0.5 -23t5 -17.5t14.5 -13.5t27 -12 q28 -8 64.5 -17t70 -13t57 0t26.5 22q18 54 41 121.5t51 139.5q78 11 159.5 21t159.5 18q38 3 48 11t-1 28q-8 17 -18 34.5t-29 35.5q-29 30 -96 27q-42 -1 -81.5 -3t-79.5 -5q22 46 36 87.5t32 74.5q93 8 178 14t163 12zM751 611q-27 -2 -55.5 -4t-57.5 -4 q-107 -8 -221 -18q-8 -15 -14.5 -32.5t-13.5 -36.5q-6 -15 -12.5 -31t-11.5 -30q68 5 137 6h12q63 0 94 -31q21 -20 31.5 -38.5t19.5 -36.5l-1 1q8 -14 8 -25q0 -18 -15.5 -26t-50.5 -10q-75 -8 -154.5 -17.5t-156.5 -20.5q-26 -70 -48.5 -135t-39.5 -117l1 3 q-4 -21 -21.5 -29t-44.5 -8q-19 0 -41.5 3.5t-45.5 8.5t-45 10.5t-40 10.5q-35 13 -45.5 27t-10.5 39v16q5 26 19 75t33 110q17 55 34.5 115t32 118t24 110.5t9.5 91.5v15q0 13 13 15q55 9 123.5 16.5t144.5 13t155 9.5t155 6h10q18 0 31 -1.5t24.5 -6t22 -11.5t23.5 -18 q39 -36 51 -76v1q4 -11 4 -21q0 -20 -14.5 -27t-51.5 -10z" glyph-name="f"/>
<glyph unicode="g" horiz-adv-x="972" d="M826 456q4 14 7 34t4 41.5t0 43.5t-5 39q-8 32 -28.5 57.5t-65.5 46.5q-23 12 -53 21.5t-63 17t-67.5 12.5t-67.5 8q-47 4 -103.5 0t-103.5 -25q-74 -33 -136 -81t-108 -104.5t-76 -117.5t-41 -121t-1 -114.5t43 -97.5q18 -28 53 -51.5t73 -37.5q102 -32 217 -42 q129 -14 236 27q79 33 145 93t112 145q12 25 10 41t-27 37q-14 11 -29 24t-33 24q-25 17 -54 22t-76 1q-40 -4 -94.5 -8.5t-105.5 -11.5q-26 -3 -48.5 -5t-37.5 -6t-21.5 -10.5t-0.5 -18.5q25 -51 70.5 -73.5t129.5 -19.5q-22 -31 -47.5 -58.5t-52.5 -46.5t-54.5 -28 t-54.5 -3q-30 7 -46 35.5t-17.5 69t10 87.5t36.5 90q26 52 62 99t74 81.5t74 53.5t63 14q13 -2 18 -13t10 -26q2 -8 3.5 -16.5t1.5 -17.5t1 -17t3 -16q8 -43 53.5 -70t140.5 -35q34 -2 47 4t21 23zM848 442q-9 -20 -22 -28.5t-42 -8.5q-4 0 -9 0.5t-10 0.5q-101 8 -150 38.5 t-58 78.5v2q-2 8 -3 15.5t-1 18.5q0 10 -3 22l1 -1q-3 6 -3 13q-3 10 -6 16.5t-8 7.5q-3 1 -10 1q-26 0 -58.5 -20t-67 -53t-67 -76.5t-56.5 -91.5q-23 -38 -34 -80t-11 -80q0 -40 13 -67.5t39 -33.5q2 -1 7 -1h11q40 0 81.5 31t76.5 77q-74 1 -116 25.5t-67 75.5 q-5 12 -5 17q0 12 8 19.5t22.5 12t34 7t42.5 4.5h-1q5 1 9 1t9 1q38 5 80 9t78 7q12 1 22.5 2t20.5 2q11 1 21 1.5t19 0.5q32 0 55.5 -6.5t44.5 -21.5l-1 1q15 -8 30 -21t29 -24q2 -2 3 -2.5t3 -2.5h-1q17 -15 24.5 -28t7.5 -27q0 -16 -12 -41q-48 -88 -115.5 -149.5 t-149.5 -95.5q-81 -31 -178 -31q-33 0 -64 3q-59 5 -113.5 16t-107.5 27q-41 15 -77.5 40t-56.5 55l1 -1q-26 34 -38.5 74t-12.5 85q0 67 26.5 139t75.5 139.5t118.5 125.5t155.5 96q36 17 77.5 22.5t82.5 5.5q14 0 28 -0.5t26 -1.5q34 -3 69 -8t69 -13t64.5 -18t54.5 -22 l-1 1q49 -23 71.5 -51.5t31.5 -63.5q6 -26 6 -63q0 -28 -3.5 -55.5t-9.5 -46.5v-2z" glyph-name="g"/>
<glyph unicode="h" horiz-adv-x="994" d="M934 672q8 20 0.5 31.5t-42.5 25.5q-38 14 -78 25.5t-78 17.5q-40 7 -60.5 3.5t-32.5 -28.5q-26 -66 -54 -152t-60 -177q-51 -2 -106.5 -5t-113.5 -7q28 75 52.5 140t46.5 111q8 21 1 32.5t-45 25.5q-35 14 -81.5 26t-85.5 19q-38 8 -57.5 4t-30.5 -29 q-20 -67 -41.5 -151.5t-44.5 -172t-48 -171t-51 -149.5q-12 -26 1.5 -40.5t46.5 -25.5q26 -11 65 -18t74 -14q19 -3 31 -3.5t19.5 2t12 8t7.5 14.5q15 48 31.5 107t41.5 125q58 6 115.5 11t115.5 11q-15 -54 -26 -99.5t-16 -80.5q-7 -18 -1 -31t21.5 -22.5t39.5 -16.5 t54 -13q30 -5 56 -9.5t44.5 -5.5t29.5 4t11 19q24 81 54 171t61.5 178t62.5 168t58 142zM956 658q-27 -62 -58 -142.5t-62.5 -167.5t-61 -176t-53.5 -168q0 -20 -14 -28.5t-37 -8.5q-19 0 -40 3t-45 8q-5 1 -11.5 2t-11.5 2q-29 6 -52.5 12.5t-41 16t-27 22t-9.5 29.5 q0 11 4 20q5 31 14 71t23 89q-24 -2 -47.5 -4t-46.5 -4q-27 -3 -54 -5.5t-53 -4.5q-16 -44 -27.5 -84t-22.5 -76q-5 -17 -10 -35t-10 -32q-6 -16 -16 -23t-34 -7q-15 0 -36 3q-8 2 -16 3t-16 3q-30 5 -59.5 11t-50.5 16h1q-30 11 -46.5 23.5t-16.5 35.5q0 6 1 13t6 15l-1 -1 q16 42 32.5 92.5t32.5 106.5t31 114t30 115q15 59 31 116.5t30 103.5q8 20 21.5 28t36.5 8q19 0 45 -6q20 -3 42.5 -8t45 -11t43.5 -13t39 -14h-1q32 -13 45.5 -24t13.5 -28q0 -6 -2 -13t-6 -17q-20 -42 -42.5 -99.5t-47.5 -125.5q50 3 97 6t91 5q11 29 20 57.5t19 57.5 q19 57 36 107t34 93q12 24 27 34t38 10q19 0 47 -5h-1q38 -6 79 -17.5t80 -26.5q31 -13 44 -24t13 -28q0 -13 -6 -25z" glyph-name="h"/>
<glyph unicode="i" horiz-adv-x="458" d="M344 715q-35 14 -81 26.5t-86 18.5q-40 7 -59.5 2t-30.5 -27q-16 -37 -34 -90t-37 -113t-37 -124t-33.5 -123t-26.5 -109.5t-15 -84.5q-5 -26 5 -40.5t43 -25.5q32 -11 66.5 -18t72.5 -14q38 -6 51 -1t19 22q13 44 30 98.5t36.5 113.5t40.5 120t42 117.5t41 106.5t37 87 q4 10 5 18t-3.5 14.5t-15.5 12.5t-30 13zM357 721q33 -13 46 -23.5t13 -28.5q0 -6 -2 -13t-6 -17q-17 -37 -37 -86t-40.5 -105.5t-41 -117t-40 -119t-36.5 -112.5t-30 -98q-7 -18 -17 -26t-33 -8q-16 0 -37 3q-38 7 -72 14t-69 19q-32 11 -46 25t-14 38q0 5 0.5 9.5t1.5 9.5 q4 34 15 85t26.5 110.5t33.5 123t36.5 123.5t37 112.5t33.5 89.5q12 23 27 32.5t40 9.5q22 0 42 -4h-1q41 -6 88.5 -19t82.5 -27h-1z" glyph-name="i"/>
<glyph unicode="j" horiz-adv-x="920" d="M194 -5q55 -9 100 -10.5t82 2.5t66.5 12t55.5 19q63 28 114 86.5t91.5 142.5t71.5 190.5t55 231.5q3 10 2.5 17.5t-5.5 14t-15.5 12t-29.5 13.5q-38 14 -86 24.5t-86 17.5q-40 6 -60.5 1t-27.5 -28q-11 -50 -26.5 -116.5t-35.5 -137t-43 -138t-49 -121t-54 -85.5t-58 -31 q-17 1 -27 7t-15 17.5t-7.5 28.5t-5.5 41q-3 74 -163 116q-48 14 -70 -1t-33 -47q-12 -43 -10.5 -76.5t21.5 -65.5q12 -23 31 -43.5t48.5 -38.5t70.5 -32t98 -23zM200 -28q-59 9 -102 24t-73.5 34t-50.5 41t-33 46v-1q-24 39 -24 83q0 29 12 71q10 30 27.5 48t50.5 18 q16 0 43 -8v1q171 -45 174 -130v1q2 -21 4 -35.5t6 -24.5t11.5 -15t19.5 -6h1q26 0 52 32t50 84.5t46 118.5t41 134.5t34 133.5t26 114q7 23 22 33t42 10q10 0 20 -1t21 -3q19 -3 41 -7.5t45 -10t46 -12t43 -13.5q35 -14 48 -25.5t13 -29.5q0 -10 -4 -21l1 2 q-24 -126 -56 -234t-73.5 -193.5t-94 -145.5t-117.5 -89q-36 -15 -80.5 -25t-104.5 -10q-29 0 -61 2.5t-67 8.5h1z" glyph-name="j"/>
<glyph unicode="k" horiz-adv-x="975" d="M476 300q60 37 125 79.5t124 84.5t107.5 81t76.5 71q22 25 24.5 42t-10.5 34q-19 21 -39.5 39t-48.5 32t-51 14q-18 0 -40 -17q-31 -25 -82.5 -61.5t-112 -78t-124.5 -85t-121 -82.5q25 66 45.5 120t40.5 96q12 21 3 31.5t-47 25.5q-35 14 -81 26.5t-86 18.5 q-38 7 -58.5 2t-31.5 -27q-16 -37 -34.5 -90.5t-38 -115t-38.5 -126.5t-35 -125.5t-27.5 -112t-15.5 -85.5q-7 -37 21 -55t93 -30q32 -6 59 -11.5t46 -6.5t29.5 4.5t10.5 21.5q15 45 31.5 99t36.5 117q29 -29 63 -58.5t67 -55.5t60.5 -47t43.5 -33q39 -29 78.5 -33t77.5 3 q25 2 50.5 7t43.5 12q32 10 36.5 20.5t-20.5 27.5q-24 18 -55.5 44t-65 56.5t-67.5 63.5t-63 63zM928 598q-28 -31 -75 -69.5t-104 -79t-120 -82t-122 -78.5q28 -29 60 -60t64 -59.5t61 -52.5t52 -40q14 -10 20.5 -18t6.5 -18q0 -24 -48 -38h1q-19 -8 -45 -13t-51 -7 q-13 -2 -26 -3.5t-27 -1.5q-29 0 -57.5 8.5t-57.5 29.5q-3 2 -6.5 5t-7.5 6q-18 13 -42.5 32t-52.5 41t-56.5 46t-53.5 48q-4 -13 -7.5 -25.5t-7.5 -24.5q-12 -39 -23 -74t-21 -66q-1 -21 -13.5 -29.5t-35.5 -8.5q-17 0 -37.5 3t-44.5 8q-8 2 -16 3t-16 3q-65 12 -96 30.5 t-31 55.5v8q0 5 1 9v-1q4 34 15.5 85.5t27.5 112t34.5 125.5t38 126.5t38.5 114.5t34 90q13 23 28.5 33t39.5 10q21 0 41 -4h-1q41 -6 88.5 -19t82.5 -27h-1q32 -13 46.5 -23.5t14.5 -27.5q0 -15 -9 -28q-16 -35 -32.5 -77t-36.5 -93q17 11 34.5 23t35.5 24q48 32 96 65 t91.5 63.5t80.5 57.5t63 48q25 20 49 20t58 -16q29 -15 50.5 -33.5t41.5 -41.5q15 -18 15 -37q0 -26 -29 -58z" glyph-name="k"/>
<glyph unicode="l" horiz-adv-x="781" d="M553 49q22 3 33.5 6t15 7t1.5 10.5t-8 17.5q-7 17 -18.5 35t-30.5 35q-18 18 -39.5 23.5t-59.5 3.5q-66 -3 -123.5 -7t-122.5 -11q22 64 48 132t53 134t53.5 127t50.5 110q11 20 3 31.5t-43 25.5t-81 25.5t-86 17.5q-38 7 -58.5 2.5t-34.5 -26.5q-20 -41 -41 -91.5 t-41.5 -106.5t-40 -114t-36 -112.5t-28.5 -103t-19 -85.5q-7 -24 4.5 -41.5t36.5 -31.5q33 -18 52.5 -29.5t44.5 -22.5q10 -5 21.5 -9t27 -6.5t38 -1.5t54.5 7q88 12 184.5 24.5t189.5 24.5zM563 26q-24 -3 -48.5 -6.5t-49.5 -6.5q-71 -9 -140.5 -18t-135.5 -18h1 q-21 -4 -38 -5.5t-32 -1.5q-30 0 -48 5.5t-32 12.5q-17 8 -31.5 16t-31.5 17q-8 5 -16.5 9.5t-19.5 10.5q-24 14 -37 30.5t-13 39.5q0 5 0.5 9.5t2.5 11.5l-1 -2q6 37 18.5 86t29.5 104t36.5 113.5t41 115.5t43 108.5t41.5 93.5q11 17 26 24.5t38 7.5q10 0 21 -1t22 -3h-1 q41 -6 88.5 -17.5t82.5 -26.5h-1q30 -11 43.5 -22.5t13.5 -28.5q0 -7 -2.5 -13t-6.5 -14q-23 -47 -48 -104.5t-50.5 -120t-50.5 -127.5t-47 -127q57 6 110 9.5t113 6.5q6 0 12 0.5t11 0.5q32 0 51.5 -7.5t36.5 -24.5h-1q20 -18 32.5 -37.5t20.5 -38.5l-1 2q5 -9 8 -15.5 t3 -13.5q0 -17 -14 -23t-50 -11z" glyph-name="l"/>
<glyph unicode="m" horiz-adv-x="1355" d="M371 122q8 -19 15.5 -31.5t17 -20.5t22 -13.5t30.5 -9.5q22 -5 47 -9t56 -9q19 -3 32 -3t21 2.5t13.5 7t10.5 11.5t12 16q18 28 46.5 67.5t62.5 84t71 91.5t72 90q-15 -45 -28.5 -91t-24 -87.5t-18 -76.5t-10.5 -59q-2 -6 -2.5 -11.5t-0.5 -9.5q0 -23 15 -37t48 -25 q29 -10 64.5 -17.5t70.5 -12.5h-1q8 -2 15 -2h15q29 0 40.5 10.5t20.5 30.5q9 35 23.5 84.5t32.5 107.5t38.5 120t40.5 121t39 111.5t34 90.5q7 15 7 29q0 21 -16 34t-52 23q-62 17 -121.5 28.5t-111.5 19.5q-18 3 -33.5 5t-30.5 2q-27 0 -47.5 -6.5t-39 -20.5t-37 -35.5 t-41.5 -51.5l1 1q-26 -29 -54.5 -62.5t-56 -68t-54 -68t-48.5 -63.5q-5 20 -9 38.5t-8 34.5v-1q-12 50 -19 79.5t-10.5 46t-4.5 23.5t-1 12q-5 18 -10 32.5t-16 26.5t-31 21t-54 17q-23 6 -46.5 10.5t-49 8.5t-54.5 7.5t-63 6.5q-9 1 -16.5 1.5t-15.5 0.5q-33 0 -52 -10.5 t-32 -36.5q-16 -38 -34.5 -90t-38 -111t-38 -122.5t-34.5 -122.5t-27.5 -111.5t-15.5 -89.5q-1 -5 -1.5 -8t-0.5 -9q0 -23 15 -38t50 -27q29 -11 64.5 -18.5t68.5 -12.5h-1q16 -3 31 -3q24 0 35.5 10t19.5 30q8 37 20 83.5t27.5 97.5t33 105.5t37.5 108.5 q14 -75 33.5 -146.5t41.5 -130.5zM293 465q-22 -60 -43 -122t-39 -121t-32.5 -112.5t-23.5 -95.5q-7 -18 -20 -23.5t-48 -0.5q-33 5 -67.5 12.5t-62.5 17.5q-35 12 -46.5 26t-6.5 40q4 37 15.5 89t27 111t34.5 121.5t38 121.5t37.5 111t34.5 89q14 26 35 33t66 3 q67 -6 115.5 -14t95.5 -19q31 -7 48.5 -15t27.5 -18t14.5 -22t8.5 -27q0 -7 1.5 -17t7.5 -37t18 -77.5t33 -137.5q22 31 50 68t58.5 75t62 75.5t60.5 69.5q28 36 49 59t43.5 35t50.5 13.5t72 -6.5q54 -8 113.5 -19.5t117.5 -27.5q40 -11 51 -25.5t0 -40.5q-16 -39 -35 -91.5 t-39 -111.5t-40.5 -121.5t-38.5 -120t-32.5 -107.5t-23.5 -85q-8 -18 -21.5 -26t-51.5 -2q-35 5 -70 12t-62 17q-35 11 -46 26t-4 40q4 29 14 74t24 98t32 110t38 109q-38 -45 -82.5 -100.5t-86.5 -110t-78.5 -104t-58.5 -83.5q-8 -11 -13 -17.5t-12 -9.5t-18.5 -3.5 t-31.5 2.5q-53 7 -101 18q-16 4 -27 8.5t-19.5 11.5t-15 18t-13.5 28q-25 69 -47 155t-37 174z" glyph-name="m"/>
<glyph unicode="n" horiz-adv-x="1030" d="M560 322q-16 45 -31.5 93.5t-29.5 93t-25 82t-18 60.5q-8 30 -24.5 45.5t-56.5 25.5q-48 14 -93 23t-92 17q-38 6 -61.5 0t-35.5 -29q-18 -42 -37 -98t-38.5 -118.5t-37.5 -126t-33 -120.5t-26 -102.5t-15 -71.5q-7 -26 2.5 -40.5t41.5 -25.5q32 -14 68 -20.5t71 -12.5 q38 -7 51.5 -2.5t18.5 21.5q9 36 23 83t31 100t35.5 110.5t36.5 113.5q17 -47 36.5 -94t40 -91.5t41 -83.5t40.5 -69q27 -44 90 -60q35 -8 69.5 -14.5t69.5 -11.5q78 -12 86 26q19 69 44 154.5t52 172.5t54.5 168.5t51.5 142.5q4 10 5 19t-3 16.5t-14.5 14.5t-29.5 14 q-23 9 -40 14t-32.5 9t-31 6.5t-34.5 5.5q-40 6 -61.5 0.5t-29.5 -27.5q-33 -85 -68.5 -191.5t-60.5 -221.5zM478 647q6 -20 15 -51t20 -68t24 -78t27 -81q25 100 57 193t62 170q16 40 68 40q18 0 39 -3q20 -3 35.5 -5.5t31 -6.5t33 -9.5t41.5 -14.5q33 -12 45 -25t12 -30 q0 -13 -6 -28q-24 -62 -51.5 -144t-54.5 -168.5t-52 -171.5t-44 -153l1 1q-9 -41 -68 -41q-16 0 -35 3q-37 5 -72 11.5t-69 14.5q-68 18 -99 67q-36 53 -73.5 133.5t-70.5 166.5q-8 -25 -15.5 -49.5t-15.5 -48.5q-25 -78 -46.5 -147t-34.5 -120q-5 -18 -15 -26t-33 -8 q-8 0 -18.5 1t-21.5 3q-5 1 -11 2t-11 2q-32 5 -62.5 11t-57.5 19h1q-30 11 -43.5 24t-13.5 36q0 12 4 24l-1 -1q4 26 15 71.5t26 102.5t33 120.5t37 125.5t38.5 118t36.5 97q13 25 31.5 35.5t45.5 10.5q18 0 38 -3q2 -1 6.5 -1.5t6.5 -1.5l-2 1q42 -7 83.5 -15.5 t92.5 -23.5v1q44 -11 62.5 -29t28.5 -53z" glyph-name="n"/>
<glyph unicode="o" d="M538 611h-6q-25 0 -56 -21t-61.5 -54t-58 -73t-45.5 -78q-17 -38 -27 -79t-10 -77q0 -41 13 -70t42 -35h-1q5 -1 9.5 -1.5t7.5 -0.5q26 0 54.5 17t56 47t51.5 70t42 87q16 38 24.5 81.5t8.5 82.5q0 41 -9.5 69.5t-32.5 33.5zM535 633q27 -5 39.5 -35t14 -72t-7.5 -90 t-26 -90q-20 -53 -48.5 -98t-60.5 -76.5t-65 -46.5t-63 -8q-32 7 -48 36t-18.5 69.5t7.5 87.5t30 89q20 41 50.5 85t65 78.5t69 55t61.5 15.5zM740 712q-45 21 -111.5 35.5t-139.5 21.5q-27 3 -57 1.5t-60 -6.5t-57.5 -13.5t-49.5 -18.5q-105 -53 -176 -131.5t-105 -164 t-29.5 -169.5t50.5 -150q20 -28 57 -50t75 -36q48 -17 107 -25.5t113 -12.5q84 -6 148.5 4.5t122.5 41.5q82 51 135 121.5t80 147t29 152t-18 137.5q-13 35 -38 63t-76 52zM754 718q55 -26 81.5 -56t40.5 -68q19 -58 19 -126q0 -59 -15 -121t-45.5 -121.5t-78 -113 t-113.5 -94.5q-49 -26 -101.5 -38t-117.5 -12q-14 0 -29 0.5t-31 1.5q-55 4 -114.5 12.5t-109.5 26.5q-39 15 -78 38.5t-61 52.5q-28 39 -41 84.5t-13 94.5q0 62 21 126.5t61.5 125t100 114t136.5 92.5q39 19 91.5 30t103.5 11q10 0 19.5 -0.5t17.5 -1.5q75 -7 143 -21.5 t113 -36.5z" glyph-name="o"/>
<glyph unicode="p" horiz-adv-x="1038" d="M870 394q45 31 77.5 65t32.5 75q0 21 -12 47q-26 53 -67.5 89.5t-89.5 66.5q-38 23 -88 31.5t-107 8.5q-60 0 -126 -8.5t-131.5 -22.5t-127 -31t-113.5 -33h1q-14 -4 -25.5 -29.5t-22 -65t-21 -89t-20.5 -102.5q-10 -49 -19.5 -98t-19.5 -91t-20.5 -74.5t-21.5 -48.5 q-6 -15 -6 -26q0 -21 13.5 -35.5t36.5 -24t52 -15.5t61 -12l30 -6q18 -3 34 -3q25 0 36 9t21 28q14 54 29.5 102t32.5 95q85 15 169.5 36.5t161 47t141 54.5t109.5 60zM271 218q-20 -54 -37 -106t-31 -103q-8 -16 -21.5 -21t-50.5 0q-37 7 -73.5 13.5t-62.5 17t-38.5 26.5 t-1.5 42q15 23 29.5 74.5t28 116t26.5 133t26 126.5t25.5 96.5t24.5 42.5q50 16 109.5 32.5t122.5 30t127 22t122.5 9.5t109.5 -7.5t89 -30.5q47 -29 87 -64t65 -86q12 -26 9 -48.5t-16.5 -43t-36 -39.5t-49.5 -37q-44 -30 -109 -59t-142 -54.5t-162 -46.5t-170 -36z M335 390q97 20 168.5 48t116.5 57t62.5 56t6.5 45q-4 10 -28.5 15t-62 4.5t-84 -7t-95.5 -19.5q-22 -45 -42 -94.5t-42 -104.5zM438 568q49 13 94.5 19t81.5 6q30 0 49 -3.5t21 -10.5q2 -4 2 -6q0 -17 -20.5 -39t-61 -45t-100 -45.5t-137.5 -40.5q18 45 35.5 86t35.5 79z " glyph-name="p"/>
<glyph unicode="q" horiz-adv-x="1016" d="M345 122q8 0 12 1q-3 1 -4 4q-2 2 -5 4t-5 4l2 -1q-20 14 -20 32q0 25 40 38q25 8 55 14t68 11q20 25 34.5 54t25.5 64q16 37 24.5 80t8.5 83q0 44 -12 74q-10 27 -34 27q-22 0 -51.5 -18t-61.5 -50q-54 -54 -89.5 -117.5t-52.5 -127.5l1 1q-4 -19 -5.5 -36.5t-1.5 -32.5 q0 -42 13 -70.5t43 -36.5q2 -1 6 -1h9zM381 126q-34 -17 -63 -9q-25 6 -39.5 24t-21.5 44t-6 58t7 67q18 67 54.5 132.5t90.5 119.5q27 27 53.5 45t50 24t41.5 -1.5t27 -31.5q9 -21 11.5 -51.5t-0.5 -65t-11.5 -69.5t-21.5 -66q-11 -35 -26.5 -66t-37.5 -57q-40 -5 -71 -11 t-56 -14q-52 -17 -16 -44l16 -14t19 -14zM799 46q-21 15 -38.5 31t-42.5 33q55 52 89.5 115.5t50 129t13.5 128.5t-19 114q-13 35 -37 63t-75 52q-45 21 -111.5 35.5t-139.5 21.5q-27 3 -57 1.5t-60 -6.5t-57.5 -13.5t-49.5 -18.5q-105 -53 -176 -131.5t-105 -164 t-29.5 -169.5t50.5 -150q20 -28 57 -50t75 -36q48 -17 105 -26t115 -12q54 -2 102 0t90 15l12 -6t14 -8q48 -28 114 -20q27 4 53 10t51 16q28 9 29.5 19t-23.5 27zM815 50q30 -21 30 -38q0 -23 -40 -34h1q-26 -11 -53 -17t-55 -10q-8 -1 -14.5 -1.5t-14.5 -0.5q-51 0 -94 24 q-8 6 -12.5 8t-6.5 4q-32 -9 -65.5 -12.5t-69.5 -3.5h-29q-14 0 -28 1q-59 3 -116.5 12t-107.5 27q-39 15 -78 38.5t-61 52.5q-28 39 -41 84.5t-13 94.5q0 62 21 126.5t61.5 125t100 114t136.5 92.5q39 19 91.5 30t103.5 11q10 0 19.5 -0.5t17.5 -1.5q75 -7 143 -21.5 t113 -36.5q55 -26 80.5 -56t39.5 -68q11 -29 15.5 -62.5t4.5 -68.5q0 -90 -34.5 -185.5t-110.5 -173.5q10 -8 17.5 -14.5t14.5 -11.5v1l22 -18t13 -11h-1z" glyph-name="q"/>
<glyph unicode="r" horiz-adv-x="1067" d="M608 3q35 -14 64 -20t55 -6q27 0 50 5q10 2 14 2q21 2 38 5t40 17q15 8 24 16t9 19q0 18 -37 39q-33 18 -71 40.5t-76.5 47.5t-75.5 51t-70 49q145 45 246.5 95.5t143.5 110.5l-1 -2q20 23 20 55q0 11 -3.5 24.5t-9.5 28.5q-27 55 -68 91t-89 66q-43 25 -95.5 35.5 t-112.5 10.5q-51 0 -106 -7t-110.5 -18t-110.5 -25t-107 -28q-23 -7 -44.5 -40.5t-41.5 -83t-38.5 -109.5t-34 -121t-28.5 -117.5t-22 -97.5q-4 -17 -7 -29.5t-5 -22.5q-1 -5 -1.5 -10t-0.5 -13q0 -24 12 -38.5t38 -25.5q20 -8 42 -11.5t47 -7.5q10 -2 19.5 -3.5t20.5 -3.5 q16 -3 32 -3q24 0 34.5 7.5t17.5 22.5q17 50 33.5 101t36.5 104q37 -29 81 -58t88.5 -55.5t85.5 -49t74 -37.5zM265 236q-22 -58 -40.5 -112.5t-36.5 -108.5q-7 -16 -20 -21t-48 0q-38 7 -69 11t-57 14q-26 11 -35 26.5t-4 41.5q6 28 18 82t27.5 119.5t34.5 135t40.5 128.5 t44.5 99.5t46 47.5q80 22 166.5 42.5t170 29.5t159 1.5t133.5 -40.5q47 -29 87 -64t65 -86q11 -28 10.5 -50.5t-15.5 -41.5q-42 -60 -149 -111.5t-262 -96.5q33 -24 73 -52t82.5 -55.5t84.5 -53.5t79 -46q31 -17 28.5 -27t-24.5 -21q-25 -14 -43 -16.5t-45 -5.5 q-31 -6 -70 -3.5t-90 23.5q-34 16 -77.5 40t-89.5 52t-91.5 58.5t-82.5 60.5zM419 592q-22 -42 -43 -91.5t-47 -106.5q93 20 165 49t119.5 58t68.5 55t12 40q-17 23 -95 23q-38 0 -83.5 -6t-96.5 -21zM607 596q71 0 83 -17v-1q0 -14 -22.5 -35.5t-64.5 -45t-102.5 -47.5 t-136.5 -42q7 14 12.5 27.5t11.5 27.5q14 32 26 60t23 49q47 13 90 18.5t80 5.5z" glyph-name="r"/>
<glyph unicode="s" horiz-adv-x="882" d="M-111 212q-38 -15 -38 -42t68 -68q111 -73 219.5 -105t225.5 -32h17q91 1 155.5 16t108 36.5t69.5 47t40 47.5q16 24 16 45q0 26 -19.5 48.5t-52 43t-75 39t-87.5 37.5l-92 40t-84 43q-20 12 -28.5 25.5t-8.5 27.5q0 23 16.5 47t41.5 45t54 37.5t54 24.5q15 7 23 7 q2 0 2 -4q0 -11 -5.5 -28.5t-12.5 -36.5q-5 -17 -10.5 -33.5t-7.5 -29.5q-1 -5 -1 -12q0 -78 189 -120l-1 1q24 -7 41 -7q20 0 33 7.5t25 22.5q14 19 27 47t23.5 57.5t18 58.5t9.5 51q-1 14 -3 29.5t-10 32t-25 33.5t-47 33q-44 23 -104 42t-118 31q-23 5 -46 6.5t-46 1.5 q-50 0 -88.5 -8t-61.5 -18h1q-48 -18 -96 -44.5t-89 -57.5t-72 -64t-44 -64l1 1q-23 -43 -23 -78q0 -51 35.5 -94t94.5 -74q42 -23 89 -44t93 -40q30 -12 57.5 -23.5t48.5 -21.5t35 -17.5t17 -12.5q-12 -6 -27.5 -8.5t-33.5 -2.5q-48 0 -116.5 17.5t-149.5 52.5 q-25 11 -56.5 16.5t-66.5 5.5q-25 0 -50.5 -3t-50.5 -11h-1zM-114 206q26 7 55 10.5t57.5 2t54.5 -6.5t47 -14q119 -51 209 -65.5t130 7.5q16 7 7 18.5t-35 25.5t-65 30.5t-82 35t-86.5 37.5t-77.5 38q-37 20 -65 45t-42.5 53.5t-14 60.5t20.5 67q13 30 42.5 61.5t69.5 61.5 t86.5 56t93.5 43q16 7 40 13.5t54.5 9.5t65.5 2t73 -8q58 -12 117 -30.5t101 -40.5q27 -15 42.5 -30t23 -29.5t9 -28.5t2.5 -26q-2 -21 -9 -49t-17 -56.5t-23 -55t-26 -45.5q-14 -17 -31 -22t-52 4q-189 42 -176 115q2 15 8.5 34.5t13.5 38.5t11 36t2 27.5t-13 12.5t-35 -9 q-23 -8 -49.5 -23t-51 -34.5t-43 -42.5t-25 -46.5t2 -46t38.5 -40.5q41 -25 91.5 -47t100.5 -43t95 -41.5t74.5 -43t38.5 -47t-11 -53.5q-13 -21 -38 -45t-67 -45t-104.5 -35t-150.5 -15q-120 -2 -230.5 29t-223.5 106q-61 37 -61 55t28 28z" glyph-name="s"/>
<glyph unicode="t" horiz-adv-x="975" d="M883 642q20 1 31 3t15 5.5t3 10t-5 15.5q-11 20 -30 41t-45 39q-13 10 -31.5 14.5t-56.5 4.5q-50 -1 -109.5 -3.5t-124 -5.5t-131 -7t-131 -9t-124.5 -10.5t-110 -11.5q-25 -4 -33.5 -10t4.5 -24q14 -17 34.5 -43t47.5 -43q25 -17 45.5 -20.5t53.5 1.5q25 4 60.5 7 t73.5 7q-23 -57 -46 -127t-43 -140t-35 -135t-21 -111q-7 -19 -0.5 -32.5t22.5 -23.5t41 -17t55 -13q31 -6 56 -11t44 -6t30 4t13 19q20 71 45.5 150t53.5 159.5t57 159t56 149.5q64 4 124 7.5t111 6.5zM892 619q-24 -2 -50.5 -3t-54.5 -3q-29 -2 -59 -4t-62 -4 q-26 -71 -54.5 -148.5t-56.5 -156.5t-53 -156t-44 -146l1 1q-3 -20 -15.5 -27.5t-35.5 -7.5q-18 0 -39.5 4t-47.5 9q-7 1 -13.5 2t-10.5 2h1q-29 6 -53.5 12.5t-42 16t-27.5 23t-10 31.5q0 9 4 22l-1 -2q6 44 20 105t32.5 128t40.5 135t44 125q-4 0 -7.5 -0.5t-7.5 -0.5 q-27 -2 -51 -4.5t-43 -5.5q-20 -3 -37 -3q-20 0 -36.5 5.5t-36.5 19.5l1 -1q-25 16 -45 39.5t-34 41.5l1 -2l-8 12v-1q-10 14 -10 26q0 17 12.5 22.5t35.5 9.5q76 9 171.5 17t195.5 14t195.5 10t170.5 6q41 0 61.5 -5.5t35.5 -16.5h-1q29 -20 49 -43.5t34 -46.5q4 -10 4 -20 q0 -18 -13.5 -23.5t-49.5 -7.5z" glyph-name="t"/>
<glyph unicode="u" horiz-adv-x="992" d="M-12 93q23 -29 56 -49.5t69 -35.5q84 -33 220 -39q11 -1 21 -1h21q52 0 95.5 7t88.5 22q74 29 129.5 89t99 144.5t77.5 191.5t65 230q2 6 3 10.5t1 13.5q0 17 -12 27.5t-46 23.5q-23 8 -49.5 16.5t-53 15t-52 11t-45.5 4.5q-28 0 -46 -10t-20 -33v3q-13 -48 -30.5 -111.5 t-40 -131.5t-48.5 -133.5t-55.5 -117.5t-62 -84t-66.5 -32q-6 0 -11 1q-20 4 -29 21.5t-9 45.5q0 40 15 94.5t37.5 112t49 114.5t49.5 102q8 18 8 30q0 43 -61 71q-34 14 -69.5 25.5t-74.5 18.5q-13 3 -23.5 4t-21.5 1q-23 0 -38 -8t-25 -28q-29 -56 -58 -118t-52 -125.5 t-37.5 -125t-14.5 -116.5q0 -45 10.5 -83t36.5 -69zM-8 110q-41 50 -43 124.5t20.5 159t61 172t78.5 164.5q11 22 31.5 26.5t60.5 -3.5q38 -7 73 -18t68 -25q69 -31 46 -80q-22 -43 -47 -96t-47 -107.5t-38 -107.5t-20 -95.5t7 -71t42 -34.5q39 -7 75 22.5t68.5 81.5 t61 120.5t52.5 139.5t43 138.5t32 117.5q2 22 27.5 27t62.5 -1t79 -18.5t77 -24.5q38 -14 44.5 -25t-0.5 -32q-30 -122 -63.5 -227t-76 -188.5t-96.5 -142.5t-125 -87q-51 -17 -102.5 -23.5t-117.5 -3.5q-131 6 -215 38q-35 14 -66 33t-53 47z" glyph-name="u"/>
<glyph unicode="v" horiz-adv-x="1025" d="M981 639v1q1 0 1 1l-1 -1q11 17 11 33q0 29 -30 47.5t-77 33.5q-30 11 -58 18.5t-52 7.5q-21 0 -37.5 -7t-26.5 -23q-21 -34 -42.5 -69t-43.5 -71q-55 -91 -111.5 -182t-118.5 -181q-16 83 -28.5 161t-22.5 145q-5 34 -9.5 64t-9.5 56q-10 61 -104 81q-35 8 -66.5 11.5 t-70.5 3.5q-24 0 -38 -3t-21 -9t-9 -16.5t-2 -25.5q13 -168 38 -319t66 -282q9 -26 38 -56.5t85 -49.5q51 -17 94.5 -27t94.5 -20q31 -6 56 -6q29 0 49 9.5t37 29.5q31 41 69 94.5t78 113.5t80 122t75 120t63 108.5t44 86.5zM960 655q-16 -36 -43.5 -86t-62.5 -108t-75 -120 t-80 -121.5t-77.5 -113t-68.5 -94.5q-22 -25 -49 -31.5t-79 3.5q-51 10 -95 20t-92 26q-26 9 -45.5 20.5t-33.5 25t-22.5 26.5t-12.5 25q-40 129 -65 279.5t-38 317.5q0 10 1.5 17.5t7 12t16.5 6.5t30 2q38 0 68.5 -3.5t65.5 -11.5q83 -18 92 -69q7 -40 15 -91.5 t17.5 -111.5t20.5 -125.5t24 -132.5q93 133 176 270t161 263q9 14 25 19t37 3.5t45 -8.5t49 -16q26 -9 47 -18t34 -19.5t15.5 -24t-8.5 -31.5z" glyph-name="v"/>
<glyph unicode="w" horiz-adv-x="1410" d="M252 262q4 54 11 112.5t14.5 111.5t13.5 95l9 63q3 11 2.5 23t-5.5 23.5t-15.5 21.5t-29.5 17q-33 12 -70.5 18.5t-83.5 12.5q-40 5 -55 -2t-20 -31q-7 -45 -12.5 -100t-9 -114t-5.5 -119.5t-2 -118.5q0 -57 3 -108.5t8 -91.5q2 -28 15.5 -41.5t48.5 -21.5 q38 -8 79 -15.5t86 -12.5q33 -4 53.5 -0.5t38.5 24.5q18 25 45.5 62.5t60 80.5t68 88.5t68.5 86.5q0 -32 4 -67t10 -68.5t12 -63t10 -49.5q5 -21 22 -38.5t59 -27.5q21 -3 37 -6.5t33 -6.5t36 -6.5t46 -6.5q48 -6 73 -0.5t39 24.5q24 41 55.5 93t67 109.5t73.5 117.5 t75 116.5t72 107.5t64 89q14 20 12 40.5t-34 37.5q-55 25 -119 42q-21 5 -35 7t-24.5 0.5t-19.5 -8t-18 -18.5q-20 -27 -56.5 -79.5t-81.5 -118t-93 -138t-90 -138.5q4 53 9 107.5t9.5 101.5t7.5 82t3 49q0 12 -1 21t-5.5 15t-15 11t-29.5 10q-17 4 -31.5 7.5t-28.5 6.5 t-29 5.5t-34 5.5q-38 5 -56.5 0t-33.5 -22q-21 -21 -57.5 -66.5t-79.5 -103t-88.5 -120.5t-84.5 -118zM314 569q-8 -52 -17.5 -121.5t-17.5 -140.5q38 54 79.5 110.5t79.5 107t70 90t51 58.5v-1q14 15 28 22.5t39 7.5q16 0 36 -3q37 -5 59.5 -10l49.5 -11q4 -1 9.5 -2.5 t10.5 -2.5q22 -6 33.5 -11.5t17 -13.5t6.5 -19t1 -27q0 -17 -3.5 -57.5t-8.5 -95.5q-3 -30 -6 -62t-6 -65q40 63 84 127.5t83.5 122t71.5 103.5t50 70q14 19 27 26t32 7q11 0 24 -2t29 -6q59 -15 122 -44q23 -12 33 -26t10 -31q0 -21 -13 -40q-30 -40 -65.5 -91t-72.5 -108 t-75.5 -117t-73.5 -117.5t-66.5 -109.5t-55.5 -92q-23 -34 -81 -34q-20 0 -45 3q-33 5 -56.5 8.5t-43.5 7.5q-12 2 -25.5 5t-29.5 5q-46 11 -66 31.5t-25 46.5q-1 4 -1.5 8.5t-2.5 10.5q-8 36 -17.5 87t-13.5 104q-31 -39 -62.5 -80t-60 -79t-52.5 -71l-40 -55 q-17 -19 -33 -26t-39 -7q-9 0 -17.5 0.5t-17.5 1.5q-46 6 -87 13t-79 15q-42 10 -58 25.5t-18 50.5q-5 40 -8 92t-3 110t2 119t5.5 120.5t9 114.5t12.5 100q5 26 18 37t42 11h15t17 -2q46 -6 84 -12.5t73 -19.5q35 -14 48 -35t13 -44q0 -6 -1 -12.5t-3 -11.5 q-2 -11 -3.5 -27t-4.5 -36z" glyph-name="w"/>
<glyph unicode="x" horiz-adv-x="1038" d="M434 553q-28 42 -53.5 80t-45.5 70q-18 22 -41.5 36t-68.5 17q-21 1 -42 1.5t-39 0.5h-38h-20q-9 0 -17 -1q-38 -3 -46.5 -12t4.5 -34q16 -25 38 -59t48.5 -73.5t56 -83t60.5 -87.5q-51 -40 -98.5 -80t-90 -77t-78.5 -70t-63 -60q-22 -21 -22 -36q0 -9 13.5 -22 t33.5 -26.5t43 -25.5t42 -20q57 -26 94 5q51 42 116.5 98.5t143.5 119.5q46 -66 80 -111.5t52 -62.5q12 -12 23 -20.5t23.5 -14t27 -9t34.5 -4.5q81 -4 154 0q33 3 39.5 12.5t-11.5 28.5q-46 66 -102 149t-118 174q100 78 188.5 146.5t154.5 119.5q22 17 27 35.5t-20 39.5 q-20 17 -49 37t-61 34q-31 11 -57 11t-51 -17q-51 -36 -117.5 -89.5t-146.5 -119.5zM418 608q7 -11 13.5 -20.5t13.5 -19.5q75 62 139 112.5t113 85.5q29 20 60 20q26 0 66 -14q32 -14 61.5 -34t49.5 -38q25 -21 25 -45q0 -28 -33 -53q-65 -50 -150.5 -116t-181.5 -141 q6 -11 12.5 -20.5t13.5 -18.5q52 -77 99 -146t87 -126l-1 2q17 -17 17 -33q0 -28 -55 -34q-19 -2 -38 -2h-38h-40t-40 2q-22 1 -38 4.5t-29 9.5t-25 15.5t-25 22.5q-18 18 -50 60.5t-75 102.5q-42 -33 -79 -65t-71 -61q-27 -23 -51.5 -44t-46.5 -38q-12 -10 -26.5 -14.5 t-29.5 -4.5q-14 0 -26.5 2.5t-26.5 9.5q-21 8 -45.5 21.5t-45.5 29t-35.5 30.5t-14.5 27q0 21 27 47h-1q25 25 59.5 57t76 68t88 75t96.5 79q-30 42 -58 83.5t-53 78.5t-46 69.5t-36 56.5q-12 22 -12 36q0 19 15 26.5t49 10.5q8 1 17 1h21h38q18 0 39.5 -0.5t42.5 -1.5 q25 -2 43 -6.5t32 -12t24.5 -17t20.5 -21.5q14 -22 31 -47t34 -51h-1z" glyph-name="x"/>
<glyph unicode="y" horiz-adv-x="955" d="M901 635q10 14 14.5 23.5t4.5 20.5q0 14 -8 24.5t-25 22.5q-16 9 -37.5 19.5t-44 19.5t-45.5 15t-42 6q-18 0 -32.5 -6t-22.5 -21q-60 -68 -124 -136.5t-130 -136.5q-32 66 -62 123.5t-56 102.5q-11 15 -20.5 25.5t-20.5 18t-25.5 12t-35.5 7.5q-17 2 -35 3t-35 1 q-41 0 -83 -3q-32 -3 -45 -9.5t-13 -23.5q0 -12 9 -28l-1 1q29 -63 68 -143.5t80 -162.5l31.5 -63t29.5 -61q-9 -33 -17 -64t-14 -59q-5 -24 -11 -48t-11 -43q-1 -2 -1 -4v-10q0 -23 12.5 -36t41.5 -27q40 -11 79 -20.5t71 -15.5q11 -2 19 -3t19 -1q23 0 32.5 7.5t16.5 24.5 q14 54 31.5 110t43.5 121q60 58 122 119t116 117t95.5 103.5t61.5 78.5zM881 652q-20 -31 -62 -78.5t-96 -103.5t-115.5 -117t-120.5 -118q-25 -63 -42.5 -119.5t-32.5 -110.5q-8 -20 -21.5 -24.5t-50.5 1.5q-35 7 -73.5 15.5t-69.5 17.5q-32 14 -42 27.5t-5 39.5 q12 42 23.5 96.5t29.5 117.5q-26 54 -55 111.5t-57 114.5t-53.5 110.5t-45.5 97.5q-11 21 -4.5 28.5t41.5 10.5q38 2 75 3t75 -4q19 -3 32 -7t23 -10.5t18 -15.5t17 -21q29 -48 61 -111t67 -135q71 72 138.5 145.5t131.5 145.5q11 19 36 20t55 -8t60.5 -23t51.5 -26 q25 -17 27 -31t-16 -39z" glyph-name="y"/>
<glyph unicode="z" horiz-adv-x="825" d="M428 609q-77 -60 -157.5 -128.5t-153.5 -134.5t-133 -124.5t-95 -97.5q-11 -12 -11.5 -22t5.5 -19t16 -17t20 -15q32 -18 53 -30t46 -24q12 -6 24.5 -10t28.5 -6.5t37 -1.5t51 6q44 7 93 13.5t99.5 13t100.5 12.5t97 12q38 3 48.5 11t-0.5 28q-13 33 -51 71 q-14 16 -41.5 22.5t-65.5 3.5q-58 -5 -110.5 -10.5t-105.5 -13.5q134 115 275.5 232t274.5 223q25 19 26 35.5t-11 34.5q-8 14 -16.5 30t-27.5 37q-14 17 -33 24t-57 6q-70 -2 -148.5 -5.5t-156.5 -8.5t-151 -12t-131 -15q-25 -5 -32.5 -11.5t3.5 -24.5q14 -18 35.5 -42 t35.5 -38q25 -18 54 -23t64 -1q47 6 95 10t106 10zM-114 126q33 37 88 90.5t122 115t142 126t148 123.5q-9 -1 -18 -1.5t-17 -1.5q-31 -3 -59 -5.5t-56 -6.5q-8 -1 -15.5 -1.5t-15.5 -0.5q-27 0 -51 6.5t-46 22.5q-7 7 -17 17.5t-20 22t-19.5 22.5t-16.5 20q-5 8 -8 15 t-3 12q0 17 12.5 23t35.5 11q58 8 131 15t151.5 12t157.5 8.5t150 5.5h8q38 0 58 -8t36 -28q15 -17 23.5 -31t14.5 -25q1 -3 2.5 -6t3.5 -5q14 -20 14 -39q0 -13 -7.5 -25.5t-24.5 -26.5q-124 -99 -254 -206t-256 -215q37 5 75 8.5t79 7.5q2 0 5 0.5t6 0.5q6 1 12 1h12 q67 0 96 -32v1q39 -40 53 -76q8 -14 8 -23q0 -18 -16.5 -26t-51.5 -11h1q-29 -4 -58.5 -7.5t-60.5 -7.5q-70 -8 -140 -17t-131 -19q-39 -6 -65 -6q-30 0 -49 5.5t-36 13.5q-23 11 -41 21.5t-45 25.5q-4 2 -7 4.5t-8 4.5q-17 12 -32 26.5t-15 34.5q0 16 15 34z" glyph-name="z"/>
<glyph unicode="{" horiz-adv-x="746" d="M531 43q-8 17 -18 33t-28 33q-30 32 -95 27q-25 -1 -47 -2t-47 -2q17 57 38.5 121t45.5 128.5t49.5 127t50.5 115.5q47 2 89.5 5t80.5 5q38 3 47.5 10t-1.5 26q-8 18 -17 33t-27 33q-31 35 -95 34q-53 -1 -115 -3t-120 -7q-38 -2 -54.5 -11t-24.5 -25q-25 -57 -51 -126 t-55 -145q-45 -4 -82 -7t-63 -8q-48 -7 -31 -39q12 -18 28.5 -41t37.5 -40q18 -12 28.5 -17t28.5 -6q-28 -100 -50 -175q-7 -29 2 -46t37 -32q22 -11 42 -22t40 -20q25 -11 52 -16.5t73 1.5q51 6 104.5 12t100.5 11q38 0 47.5 8t-1.5 27zM552 42q8 -14 8 -24q0 -32 -65 -33 q-17 -2 -34.5 -4t-36.5 -4q-33 -4 -67 -7.5t-67 -7.5q-13 -2 -23.5 -3t-22.5 -1q-28 0 -47.5 5.5t-39.5 14.5q-11 4 -26 12.5t-31 16.5q-7 4 -13 7t-13 7q-26 14 -38 29.5t-12 38.5q0 15 3 27q10 35 21.5 73.5t24.5 84.5q-13 3 -25 10t-32 21q-6 5 -13.5 14.5t-16 20.5 t-16.5 23t-15 23q-5 9 -5 20q0 32 48 39h-1q20 4 49 6.5t63 5.5q6 0 12 1t13 1q1 4 2 7t3 7v-1q26 70 50.5 133t47.5 117q11 20 29.5 31.5t62.5 13.5q58 5 120.5 7t115.5 3h5q67 0 101 -39v1q20 -20 29 -35.5t18 -35.5l-1 1q8 -14 8 -24q0 -17 -15.5 -24.5t-50.5 -9.5 q-24 -2 -51 -3q-26 -2 -53.5 -3.5t-56.5 -3.5q-24 -51 -48 -109.5t-46.5 -119t-43 -120t-36.5 -113.5q6 1 12 1q7 0 14 1q11 1 22 1q12 0 25 1q4 0 8 0.5t8 0.5q59 0 91 -32h-1q20 -19 30.5 -35.5t19.5 -35.5z" glyph-name="braceleft"/>
<glyph unicode="|" horiz-adv-x="788" d="M505 782q-35 14 -69.5 22t-69.5 16q-38 8 -58.5 3t-31.5 -27q-16 -38 -37 -99.5t-44 -135t-47 -152.5t-44 -151t-35 -132t-22 -94q-5 -24 4 -38t42 -25q26 -8 54 -15t63 -14q37 -6 49.5 -0.5t20.5 24.5q11 42 30.5 104t44 134t52 148.5t53.5 147t48.5 130t37.5 96.5 q12 21 4.5 32.5t-45.5 25.5zM518 788q32 -12 45.5 -22.5t13.5 -27.5q0 -11 -10 -29l1 1q-15 -38 -37.5 -97t-48.5 -129t-53 -146t-51.5 -147.5t-44 -133.5t-30.5 -104q-8 -21 -19.5 -30t-34.5 -9q-15 0 -34 3q-32 6 -61 13.5t-58 16.5q-32 11 -45 25t-13 35q0 5 0.5 9.5 t1.5 9.5q6 35 21.5 95t36 132.5t44 152t47 153t44.5 135.5t37 100q19 38 64 38q11 0 21 -1.5t22 -3.5q8 -2 15 -3.5t15 -3.5q27 -6 55 -13t57 -19h-1z" glyph-name="bar"/>
<glyph unicode="}" horiz-adv-x="829" d="M566 639q7 18 4 30.5t-28 29.5q-18 14 -35 25.5t-35 22.5q-22 14 -43 19t-59 3q-72 -3 -136.5 -7t-116.5 -10q-13 -2 -25 -4.5t-19.5 -7t-9.5 -11t4 -15.5q11 -17 21.5 -33t28.5 -33q9 -9 18 -15t20 -9t25 -3.5t34 0.5q18 1 35 2.5t36 2.5q-22 -54 -46.5 -117t-49 -128.5 t-46 -129.5t-37.5 -118q-34 -3 -68.5 -6.5t-63 -8t-48.5 -10t-24 -12.5q-4 -6 3 -18t18.5 -25t25 -25t21.5 -19q18 -12 37.5 -17.5t57.5 -1.5q46 5 95 9t100 9q24 0 39 3t24 7.5t13.5 10.5t7.5 13q15 51 35.5 113t45.5 131q38 6 79 7.5t72 4.5t45.5 11t-0.5 28 q-11 18 -21 37t-25 36q-30 34 -92 34q25 54 45 103.5t38 91.5zM588 625q-6 -14 -12 -29.5t-13 -31.5q-11 -27 -23 -55.5t-26 -58.5q51 -6 80 -38q11 -13 18.5 -25.5t15.5 -26.5q2 -2 5.5 -8.5t8.5 -14.5q9 -15 9 -25q0 -13 -9.5 -21t-25.5 -12t-37.5 -5.5t-46.5 -2.5 q-21 -2 -43 -3t-45 -4q-24 -66 -44 -125.5t-34 -109.5q-3 -9 -8.5 -17t-16 -14t-28 -9.5t-44.5 -3.5q-23 -2 -45.5 -4t-45.5 -4q-27 -2 -53 -4.5t-51 -5.5q-8 -1 -15 -1h-13q-26 0 -43 6t-34 17q-8 6 -21 18t-25 26t-20.5 27.5t-8.5 22.5q0 4 0.5 8t4.5 8v-1q7 8 27.5 14.5 t49 11.5t61.5 8.5t66 6.5q15 53 35.5 113t42.5 120.5t45 119t43 109.5q-3 0 -6 -0.5t-6 -0.5q-8 -1 -16.5 -1.5t-18.5 -0.5q-6 0 -11.5 -0.5t-10.5 -0.5q-31 0 -49 7.5t-36 24.5t-27 29t-17 25q-2 3 -4.5 8t-4.5 8l1 -2q-4 5 -5.5 11t-1.5 10q0 19 20.5 28.5t46.5 12.5 q52 6 117 10t137 7q6 0 12.5 0.5t11.5 0.5q29 0 48 -6t39 -20v1l34 -22t37 -27h-1q20 -14 28 -25.5t8 -24.5q0 -12 -6 -27v-1z" glyph-name="braceright"/>
<glyph unicode="~" horiz-adv-x="1089" d="M711 519q45 0 96 13.5t111 39.5q121 52 121 91q0 20 -42 32q-34 10 -72 10q-45 0 -88 -20q-7 -4 -22 -13t-31.5 -18t-32.5 -16t-24 -6q-29 1 -57.5 7.5t-57 14t-56 15t-54.5 12.5q-45 10 -86 15t-83 5q-36 0 -88 -10.5t-103 -26.5t-93 -33.5t-57 -32.5q-20 -20 -20 -36 q0 -40 97 -40q53 0 92 15q3 0 18 7t34.5 16t41 16t38.5 7q21 0 51.5 -3t62 -8t59.5 -11t43 -13q33 -15 83.5 -22t118.5 -7zM719 496q-70 0 -122 7t-86 23q-15 6 -42 12.5t-58 11t-60.5 7.5t-49.5 3q-11 0 -24 -3.5t-26.5 -9t-27 -11.5t-23.5 -11q-20 -10 -28 -11 q-21 -8 -45 -11.5t-50 -3.5q-112 0 -112 55q0 23 24 47q16 15 59 33.5t96 35t106.5 27.5t90.5 11q43 0 85 -5t87 -15q14 -2 37 -8.5t48 -13.5q32 -10 66 -17.5t71 -9.5h2q5 0 15.5 4.5t23 11.5t25.5 14t22 13v-1q5 3 11 6.5t8 5.5q20 9 42.5 14t48.5 5q20 0 38 -2.5t38 -8.5 q53 -16 53 -46q0 -50 -130 -105q-120 -54 -213 -54z" glyph-name="asciitilde"/>
<glyph unicode="‚" horiz-adv-x="510" d="M318 -92q10 15 22.5 37.5t23.5 47.5t20 51t13 47q1 10 0.5 18.5t-4 16t-12 14t-24.5 14.5q-21 10 -48 18.5t-55 15.5q-33 8 -51.5 5t-23.5 -24q-7 -28 -17 -65.5t-21.5 -76t-22.5 -74t-20 -59.5q-13 -34 48 -33q32 0 56.5 1.5t44.5 5.5q25 5 40.5 14t30.5 26zM337 -110 q-17 -20 -34 -29.5t-45 -15.5q-20 -4 -45.5 -5.5t-58.5 -1.5h-5q-61 0 -61 36q0 3 1 8t3 10v-1q9 22 20 57t22 73.5t21 76.5t17 67v-1q5 20 17 28.5t33 8.5q20 0 44 -6q27 -7 54.5 -15.5t50.5 -19.5q32 -15 41 -29t9 -34q0 -3 -0.5 -8t-0.5 -9q-4 -22 -13.5 -48t-21 -52.5 t-24 -49.5t-23.5 -39z" glyph-name="quotesinglbase"/>
<glyph unicode="ƒ" horiz-adv-x="1371" d="M149 453q-88 -5 -88 -40q0 -16 16 -31q16 -17 40 -33t56 -34q28 -15 54.5 -21t59.5 -6q9 0 20 0.5t22 1.5q23 2 46 3.5t46 3.5q0 -2 -0.5 -3.5t-0.5 -3.5l-4 -20l-4 -20q-2 -5 -5.5 -15.5t-8.5 -24.5q-8 -24 -17 -46.5t-11 -33.5q-33 -60 -67.5 -97t-63.5 -37 q-13 1 -20 6t-11 14.5t-6 24t-4 35.5q-4 84 -174 129q-27 8 -43 8q-33 0 -51 -19.5t-30 -51.5q-4 -17 -6.5 -33t-2.5 -33q0 -46 23 -83v1q13 -24 33 -46t51 -41t74 -34t102 -24h-1q35 -6 66.5 -8.5t60.5 -2.5q60 0 104.5 10t81.5 25q58 26 100.5 62.5t75 89t58 123.5 t51.5 167q72 2 142 4t139 4q48 1 71.5 8t23.5 25q0 11 -9 22q-3 4 -5.5 8t-5.5 8v-1q-8 13 -19.5 26t-29.5 27q-40 34 -141 34h-62q-31 0 -64 -1q6 23 10.5 43t6.5 29q33 61 67.5 99.5t64.5 38.5q13 -1 20 -6t11 -14.5t6 -24t4 -35.5q4 -84 174 -129q27 -8 43 -8 q33 0 51 19.5t30 51.5q4 17 6.5 33t2.5 33q0 46 -23 83v-1q-13 24 -33 46t-51 41t-74 34t-102 24h1q-35 6 -66.5 8.5t-60.5 2.5q-60 0 -104.5 -10t-81.5 -25q-50 -22 -88 -52t-68 -71t-53 -95.5t-42 -124.5q-91 -4 -171.5 -7.5t-141.5 -8.5zM142 446q63 5 146 9t177 8 q19 71 41.5 125.5t52 96t67 71t85.5 50.5q26 10 56 18.5t66.5 12.5t81.5 2.5t100 -10.5q57 -9 98.5 -23t70.5 -32t48.5 -39t31.5 -43q20 -32 21 -65.5t-10 -76.5q-6 -16 -14 -28.5t-20 -19t-29 -7t-41 6.5q-158 42 -163 116q-2 24 -4.5 41t-7.5 28.5t-15 17t-28 7.5 q-35 1 -73 -40.5t-74 -107.5q0 -1 -2 -10l-5 -22.5t-7 -29t-8 -30.5q38 1 74 1h71q97 0 132 -31q25 -18 35.5 -34.5t21.5 -30.5q14 -18 -4.5 -24t-69.5 -7q-72 -2 -145 -4t-148 -4q-26 -98 -51.5 -169.5t-57 -124t-72.5 -88.5t-98 -61q-26 -11 -56 -19t-67 -12t-81.5 -2.5 t-99.5 10.5q-57 9 -98.5 23t-70.5 32t-48.5 38.5t-31.5 43.5q-20 32 -21 65.5t10 76.5q6 16 14 28t20 19t29 7.5t41 -6.5q158 -42 163 -116q2 -24 4.5 -41t7.5 -28.5t15 -17.5t28 -7q35 -1 73 39.5t74 105.5q0 2 6.5 20.5t14 40t14 40t7.5 21.5q3 17 6.5 33t6.5 32l-56 -4 l-56 -4q-48 -4 -81.5 1t-66.5 22q-31 17 -54 33t-38 32q-43 39 62 45z" glyph-name="florin"/>
<glyph unicode="„" horiz-adv-x="845" d="M634 -100q21 16 43.5 45t41.5 60t30 59t9 43q-4 15 -31 31q-18 11 -43.5 20.5t-51.5 19.5q-64 23 -81 -14q-11 -28 -29 -64t-38 -73t-39.5 -71t-32.5 -56q-23 -33 42 -36q57 -6 101 1q26 2 43.5 10.5t35.5 24.5zM318 -88q10 15 22.5 37.5t23.5 47.5t20 51t13 47 q1 10 0.5 18.5t-4 16t-12 14t-24.5 14.5q-21 10 -48 18.5t-55 15.5q-33 8 -51.5 5t-23.5 -24q-7 -28 -17 -65.5t-21.5 -76t-22.5 -74t-20 -59.5q-13 -34 48 -33q32 0 57.5 1.5t43.5 5.5q25 5 40.5 14t30.5 26zM652 -119q-20 -17 -38.5 -26.5t-47.5 -12.5q-12 -2 -25.5 -3 t-28.5 -1q-27 0 -52 3q-31 2 -46 12t-15 24q0 9 9 23h-1q13 22 32.5 56t39.5 70.5t38 72.5t28 62q15 32 53 32q10 0 21.5 -2t25.5 -7q4 -2 8.5 -3t8.5 -3h-1q24 -9 46 -17.5t36 -17.5q14 -8 24 -19t14 -25v-5q0 -18 -12.5 -47.5t-31.5 -61t-42 -60.5t-44 -45zM337 -106 q-17 -20 -34 -29.5t-45 -15.5q-18 -4 -44.5 -5.5t-59.5 -1.5h-5q-61 0 -61 36q0 3 1 8t3 10v-1q9 22 20 57t22 73.5t21 76.5t17 67v-1q5 20 17 28.5t33 8.5q20 0 44 -6q27 -7 54.5 -15.5t50.5 -19.5q32 -15 41 -29t9 -34q0 -3 -0.5 -8t-0.5 -9q-4 -22 -13.5 -48t-21 -52.5 t-24 -49.5t-23.5 -39z" glyph-name="quotedblbase"/>
<glyph unicode="…" horiz-adv-x="1652" d="M1105 75v-9q0 -24 14 -43.5t37 -33.5t54 -21.5t64 -7.5h9q36 0 64.5 8.5t48.5 20.5t32.5 25.5t17.5 23.5l-1 -1q9 16 9 36q0 28 -30 55t-95 41q-14 2 -28.5 3.5t-28.5 1.5q-72 0 -117 -29.5t-50 -69.5zM522 75v-9q0 -24 14 -43.5t37 -33.5t54 -21.5t64 -7.5h9 q36 0 64.5 8.5t48.5 20.5t32.5 25.5t17.5 23.5l-1 -1q9 16 9 36q0 28 -30 55t-95 41q-14 2 -28.5 3.5t-28.5 1.5q-72 0 -117 -29.5t-50 -69.5zM-57 75v-9q0 -24 13 -43.5t35 -33.5t52 -21.5t64 -7.5h10q36 0 64.5 8.5t48.5 20.5t32.5 25.5t17.5 23.5l-1 -1q9 16 9 36 q0 28 -30 55t-95 41q-14 2 -28.5 3.5t-28.5 1.5q-36 0 -65 -8t-50 -22t-33 -32t-15 -37zM1112 81q2 21 18.5 39t44 30t64.5 16t80 -4q58 -12 85 -35t27 -46q0 -16 -7 -29q-4 -9 -15.5 -21t-30 -22.5t-44.5 -18t-59 -7.5q-33 -1 -63.5 5.5t-53.5 19.5t-36 31.5t-10 41.5z M529 81q2 21 18.5 39t44 30t64.5 16t80 -4q58 -12 85 -35t27 -46q0 -16 -7 -29q-4 -9 -15.5 -21t-30 -22.5t-44.5 -18t-59 -7.5q-33 -1 -63.5 5.5t-53.5 19.5t-36 31.5t-10 41.5zM-50 81q3 20 18.5 38.5t42 30.5t62.5 16t80 -4q58 -12 85 -35t27 -46q0 -16 -7 -29 q-4 -9 -15.5 -21t-30 -22.5t-44.5 -18t-59 -7.5q-34 -1 -64 5.5t-52 19.5t-33.5 31.5t-9.5 41.5z" glyph-name="ellipsis"/>
<glyph unicode="†" horiz-adv-x="968" d="M-28 557q-104 -6 -61 -45q14 -16 37 -32t55 -33q33 -17 66 -22t81 -1q20 2 41 3t41 3q-14 -50 -27.5 -99t-24.5 -93.5t-19 -82t-11 -64.5q-5 -26 5.5 -40.5t43.5 -25.5q32 -11 66 -18t72 -14q19 -3 31.5 -3.5t20 2t12 8t7.5 14.5q12 42 28.5 94.5t34.5 109t38 115 t40 114.5q83 4 164.5 6t160.5 4q51 1 70 7t5 24q-11 14 -21.5 30.5t-35.5 34.5q-35 31 -132 31q-38 0 -77.5 -0.5t-81.5 -1.5q16 42 33 75q4 10 5 18t-3.5 14.5t-15.5 12.5t-30 13q-35 14 -81 26.5t-86 18.5q-40 7 -59.5 2t-30.5 -27q-14 -31 -28 -72.5t-31 -89.5 q-88 -4 -165 -8t-137 -8zM-21 564q58 4 132.5 7.5t159.5 7.5q1 7 5 14v-1q15 43 28 80.5t23 60.5q11 21 25.5 29.5t39.5 8.5q22 0 42 -4h-1q41 -6 88.5 -19t82.5 -27h-1q33 -13 46 -23.5t13 -28.5q0 -10 -6 -25q-7 -13 -13 -26.5t-12 -28.5q35 1 69.5 1.5t67.5 0.5 q101 0 141 -34q18 -14 29.5 -27t19.5 -26v1q3 -4 5.5 -8t5.5 -8q9 -11 9 -22q0 -18 -24 -25t-72 -8q-77 -2 -155.5 -4t-159.5 -6q-20 -55 -39.5 -113.5t-37.5 -114.5t-34 -108t-28 -93q-6 -15 -15.5 -21.5t-33.5 -6.5q-16 0 -37 3q-37 7 -71 13.5t-69 19.5q-33 11 -47 25.5 t-14 38.5q0 5 0.5 9t1.5 9q3 25 10 60t17.5 77t23 88.5t26.5 94.5q-5 0 -10 -0.5t-10 -0.5q-11 -1 -21 -1.5t-20 -1.5q-11 -1 -21.5 -1.5t-19.5 -0.5q-33 0 -59.5 6t-54.5 21q-32 18 -56 34t-39 33q-17 14 -17 31q0 35 87 40z" glyph-name="dagger"/>
<glyph unicode="‡" horiz-adv-x="1076" d="M-19 285q-104 -6 -62 -45q15 -16 38 -32t55 -33q33 -17 66 -22t81 -1q40 3 84 6q-4 -20 -6.5 -36.5t-4.5 -30.5q-5 -26 5 -40.5t43 -25.5q32 -11 66.5 -18t72.5 -14q19 -3 31 -3.5t19.5 2t12 8t7.5 14.5q10 34 22.5 75t26.5 86q88 3 174 5.5t171 4.5q51 1 69.5 7t5.5 24 q-12 14 -22 30.5t-35 34.5q-37 31 -132 31q-45 0 -92 -0.5t-95 -1.5q11 35 24 69.5t24 67.5q83 4 164.5 6t161.5 4q51 1 69.5 7t4.5 24q-11 14 -21.5 30.5t-35.5 34.5q-35 31 -132 31q-38 0 -77 -0.5t-81 -1.5q16 42 33 75q8 21 1 32.5t-45 25.5q-35 14 -81.5 26.5 t-85.5 18.5q-40 7 -59.5 2t-31.5 -27q-13 -31 -27.5 -72.5t-31.5 -89.5q-88 -4 -164.5 -8t-136.5 -8q-105 -6 -62 -45q15 -16 38 -32t54 -33q33 -17 66.5 -22t81.5 -1q20 2 40.5 3t40.5 3q-10 -33 -18.5 -65.5t-16.5 -63.5q-88 -4 -163.5 -8t-133.5 -8zM-12 292 q56 4 128 7.5t157 7.5q2 6 3.5 12t3.5 13q5 17 10 35.5t11 37.5q-5 0 -10 -0.5t-10 -0.5q-11 -1 -20.5 -1.5t-19.5 -1.5q-11 -1 -22 -1.5t-20 -0.5q-33 0 -59.5 6t-54.5 21q-32 18 -56 34t-39 33q-17 14 -17 31q0 35 88 40q58 4 132 7.5t159 7.5q16 45 29 83t25 67 q12 23 28 32.5t40 9.5q22 0 42 -4h-1q20 -3 42.5 -8t45 -11t44 -13t39.5 -14h-1q32 -13 45.5 -24t13.5 -28q0 -10 -6 -25q-7 -13 -13 -26.5t-12 -28.5q35 1 69 1.5t67 0.5q103 0 142 -35l-1 1q18 -14 29.5 -27t19.5 -26v1q3 -4 5.5 -8t5.5 -8q9 -11 9 -22q0 -18 -23.5 -25 t-71.5 -8q-78 -2 -156.5 -4t-158.5 -6q-5 -12 -8.5 -23.5t-8.5 -23.5q-6 -15 -11.5 -30t-10.5 -30q43 1 84.5 1.5t82.5 0.5q100 0 141 -34q18 -14 28.5 -26t18.5 -25q1 -2 2.5 -4t9.5 -11q9 -14 9 -24q0 -20 -23.5 -26t-71.5 -7q-10 0 -19.5 -0.5t-19.5 -0.5q-73 -2 -147 -4 t-149 -5q-5 -17 -9.5 -33.5t-9.5 -32.5q-8 -23 -15.5 -47t-12.5 -43q-6 -16 -15.5 -22.5t-33.5 -6.5q-15 0 -36 3q-38 7 -72 14t-69 19q-32 11 -46 25t-14 38q0 5 0.5 9.5t1.5 9.5q1 10 3 22.5t4 26.5q-17 -2 -32.5 -3t-31.5 -2q-11 -1 -21.5 -1.5t-19.5 -0.5q-33 0 -59.5 6 t-54.5 21q-64 35 -96 67q-17 14 -17 30q0 36 88 41z" glyph-name="daggerdbl"/>
<glyph unicode="ˆ" horiz-adv-x="983" d="M716 839q21 -1 27 3.5t1 15.5q-9 19 -20.5 43t-22.5 51t-22 54.5t-18 52.5q-4 16 -10.5 23t-20.5 16q-15 8 -32 14t-34 14q-17 6 -31 5.5t-31 -11.5q-35 -20 -69.5 -43t-66.5 -46.5t-58.5 -45t-44.5 -37.5q-22 -17 2 -36q13 -11 25 -19t25 -16q16 -9 27 -9t22 9 q35 26 76 55.5t89 60.5q17 -36 30 -68t27 -54q17 -21 53 -26q21 -4 40 -5t37 -1zM724 816q-20 0 -39.5 1t-40.5 5q-41 4 -64 34q-8 14 -17 34t-20 45q-3 7 -6 13.5t-6 14.5q-44 -29 -81 -56t-69 -50l1 1q-8 -6 -14.5 -9.5t-17.5 -3.5q-16 0 -35 11q-13 8 -25 16t-27 21 q-17 14 -17 30q0 17 16 29l-1 -1q18 16 45 37.5t59 45.5t67.5 47.5t70.5 43.5l-1 -1q22 15 42 15q17 0 34 -7l30 -12h-1q11 -5 20 -8.5t15 -6.5q18 -13 27.5 -22t14.5 -29l-1 1q7 -23 17.5 -50t22 -53.5t23 -51.5t20.5 -44l-1 1q5 -12 5 -16q0 -25 -40 -25h-6z" glyph-name="circumflex"/>
<glyph unicode="‰" horiz-adv-x="1815" d="M335 624q0 13 -2 22.5t-8 11.5q-1 0 -1.5 0.5l-0.5 0.5q-10 0 -23.5 -9t-27.5 -23t-26.5 -31.5t-20.5 -33.5v1q-19 -49 -19 -82q0 -32 17 -35q4 -1 8 -1q22 0 46 24t41 71v-1q6 23 11.5 44.5t5.5 40.5zM1481 292q-11 0 -25 -8.5t-28 -22t-26.5 -30t-19.5 -32.5 q-16 -27 -22.5 -49.5t-6.5 -41.5q0 -27 17 -31h6q21 0 46.5 25.5t46.5 70.5q22 46 22 87q0 13 -1.5 21.5t-5.5 9.5zM920 293q-11 0 -25 -8.5t-28 -22t-26.5 -30t-19.5 -32.5q-16 -27 -22.5 -49.5t-6.5 -41.5q0 -27 17 -31h6q21 0 46.5 25.5t46.5 70.5q22 46 22 87 q0 13 -1.5 21.5t-5.5 9.5zM320 681q13 -3 17.5 -16.5t4.5 -32.5t-5.5 -42t-12.5 -47q-21 -57 -52.5 -84t-59.5 -20q-28 6 -29 44.5t20 92.5q9 19 24.5 39t32.5 35.5t33 24.5t27 6zM918 315q10 -3 14.5 -17t4 -34t-6.5 -43.5t-16 -44.5q-25 -55 -58 -83t-59 -21q-28 7 -28 45 q0 20 6.5 43.5t21.5 49.5q9 19 24.5 39t33 36t34.5 24.5t29 5.5zM1479 314q10 -3 14.5 -17t4 -34t-6.5 -43.5t-16 -44.5q-25 -55 -58 -83t-59 -21q-28 7 -28 45q0 20 6.5 43.5t21.5 49.5q9 19 24.5 39t33 36t34.5 24.5t29 5.5zM1646 288q-5 18 -20 35.5t-43 31.5 q-20 10 -54.5 19.5t-69.5 14.5q-26 3 -59.5 -1t-58.5 -14q-69 -30 -111.5 -80t-54 -102.5t9.5 -98t79 -66.5q25 -10 54.5 -15.5t61.5 -8.5q82 -9 145 20q33 16 57.5 38.5t40.5 48.5t24 54t8 55q0 19 -2 36t-7 33zM1085 289q-5 18 -20 35.5t-43 31.5q-20 10 -54.5 19.5 t-69.5 14.5q-26 3 -59.5 -1t-58.5 -14q-69 -30 -111.5 -80t-54 -102.5t9.5 -98t79 -66.5q25 -10 54.5 -15.5t61.5 -8.5q82 -9 145 20q33 16 57.5 38.5t40.5 48.5t24 54t8 55q0 19 -2 36t-7 33zM1107 286q6 -17 8 -35.5t2 -38.5q0 -29 -8.5 -59.5t-25.5 -58t-43 -51.5 t-61 -41q-25 -12 -54 -17.5t-61 -5.5q-9 0 -18.5 0.5t-19.5 1.5q-32 3 -63 8.5t-57 16.5q-53 20 -78 58t-25 84q0 32 12 65.5t34.5 64.5t56 58t76.5 45q20 8 47.5 12.5t53.5 4.5h13q7 0 12 -1q36 -5 71.5 -15t57.5 -21q32 -17 49 -36.5t22 -39.5zM1668 285q6 -17 8 -35.5 t2 -38.5q0 -29 -8.5 -59.5t-25.5 -58t-43 -51.5t-61 -41q-25 -12 -54 -17.5t-61 -5.5q-9 0 -18.5 0.5t-19.5 1.5q-32 3 -63 8.5t-57 16.5q-53 20 -78 58t-25 84q0 32 12 65.5t34.5 64.5t56 58t76.5 45q20 8 47.5 12.5t53.5 4.5h13q7 0 12 -1q36 -5 71.5 -15t57.5 -21 q32 -17 49 -36.5t22 -39.5zM1000 618q39 29 30.5 57.5t-46.5 54.5q-40 30 -77 4q-35 -24 -76.5 -41.5t-84.5 -29t-83 -16.5t-70 -3q-79 3 -117 37q-15 13 -28 23t-25 18q-23 11 -54 20t-73 14q-25 3 -57.5 -1t-57.5 -14q-53 -24 -91 -61.5t-56.5 -79t-17 -83t28.5 -73.5 q15 -14 33.5 -28t38.5 -22q25 -10 57 -16t60 -10q84 -7 147 22q33 16 56 39t37.5 49.5t21 55t6.5 55.5q55 -11 114.5 -7.5t112.5 21.5q-77 -59 -160.5 -126t-160.5 -132.5t-142 -122.5t-105 -95q-19 -20 -24.5 -35.5t-0.5 -28.5t18.5 -24.5t33.5 -22.5q25 -10 37.5 -11.5 t30.5 11.5q35 34 91.5 83t124.5 105t142 115.5t145 115t133.5 103t107.5 80.5zM1017 598q-45 -33 -107.5 -80.5t-133.5 -103t-145 -115t-142 -115.5t-124.5 -105t-91.5 -83q-20 -14 -38 -14q-10 0 -20 3t-25 9q-29 16 -46 33.5t-17 40.5q0 14 7 29t24 32q36 35 93.5 86 t126.5 109.5t145 120.5t148 118q-19 -3 -37.5 -4t-37.5 -1t-37 1t-35 3q-2 -27 -10 -54.5t-23.5 -53t-39 -48t-56.5 -38.5q-51 -24 -121 -24h-18q-8 0 -16 1q-29 4 -62 10.5t-59 16.5q-20 8 -40 23t-37 31q-17 20 -25 43.5t-8 48.5q0 32 12 65t34.5 63.5t54.5 56.5t73 44 q20 8 47.5 12.5t51.5 4.5h13t11 -1q43 -5 74.5 -14t54.5 -20q16 -10 30 -20.5t29 -24.5q34 -30 107 -33q5 0 8.5 -0.5t8.5 -0.5q30 0 67.5 5.5t76.5 17t76.5 28t68.5 37.5h-1q21 15 44 15q26 0 51 -19q25 -17 39.5 -35.5t14.5 -39.5q0 -15 -9 -31t-29 -30z" glyph-name="perthousand"/>
<glyph unicode="Š" horiz-adv-x="882" d="M285 1131q-22 1 -28 -3.5t-1 -15.5q9 -19 20.5 -43t23 -51t22 -54.5t18.5 -52.5q3 -16 10 -23t20 -16q15 -8 32 -14t34 -14q17 -6 31 -5.5t31 11.5q34 19 69 42.5t67 47t59 45t45 37.5q20 17 -2 36q-14 11 -25.5 19t-25.5 16q-8 5 -14 7t-12 2q-13 0 -22 -9 q-35 -26 -76 -55.5t-89 -60.5q-17 36 -30.5 68t-27.5 54q-17 22 -52 26q-22 4 -40.5 5t-36.5 1zM293 1138q20 0 39 -1t41 -5q40 -4 63 -34q8 -13 18.5 -36t22.5 -49l-1 1q2 -5 5 -11t5 -12q35 23 66.5 45.5l59.5 42.5l24 18l-2 -1q13 13 33 13q14 0 33 -11q14 -8 27 -16.5 t27 -20.5q17 -15 17 -30q0 -17 -15 -29v1q-18 -16 -45 -37.5t-59.5 -45.5t-68 -47.5t-70.5 -43.5l1 1q-23 -15 -42 -15q-17 0 -34 7l-30 12h1q-11 5 -21.5 9t-19.5 9q-15 11 -23 19.5t-12 28.5l1 -1q-7 23 -17.5 49.5t-22 53.5t-23.5 51.5t-21 44.5l1 -1q-5 12 -5 16 q0 25 40 25h7zM-114 203q-28 -10 -28 -28q0 -16 59 -54q113 -75 223 -105t228 -28q88 1 151 15t105 34.5t67 44t38 44.5q20 28 10.5 52t-39 46t-74.5 42.5t-94.5 41t-99.5 42.5t-90 46q-31 18 -39.5 40t-2 45t25.5 45.5t43 42t50 34.5t48 22q24 11 35 9t13 -12.5t-2.5 -27 t-11 -35.5l-13 -38t-8.5 -33q-12 -72 176 -114q33 -8 50.5 -3.5t31.5 22.5q13 19 25.5 45t22.5 53.5t17 54.5t10 49q-1 12 -3 25.5t-9.5 28t-22.5 29t-42 29.5q-40 22 -99 40t-117 30q-37 7 -72 8t-65 -2t-54 -9.5t-40 -13.5q-46 -17 -92 -42.5t-86 -55t-69.5 -61 t-42.5 -59.5q-20 -34 -20.5 -66t14 -60.5t42.5 -53t65 -43.5q34 -19 76.5 -37.5t85 -36.5t81.5 -34.5t65 -30.5t35 -25t-7 -18q-20 -11 -53 -12.5t-76.5 6t-96 23.5t-110.5 40q-21 9 -47 14t-54.5 6.5t-57.5 -1.5t-55 -10zM-110 209q24 7 49 10t50 3q35 0 67.5 -5.5 t57.5 -16.5q82 -34 150 -51t116 -17q35 0 58 10q-4 4 -18 11.5t-35.5 17t-48.5 21t-56 24.5q-45 19 -91.5 39.5t-87.5 42.5q-59 31 -94.5 73t-35.5 93q0 38 23 78q14 29 45 61.5t71.5 62.5t87.5 56.5t94 43.5h-1q23 10 61.5 18t87.5 8q23 0 45.5 -1.5t45.5 -6.5 q58 -12 118 -30.5t102 -41.5q30 -16 46 -32.5t24.5 -32.5t10.5 -31.5t4 -29.5q-3 -23 -10.5 -51t-18 -56.5t-23.5 -55.5t-26 -47q-11 -15 -24.5 -22.5t-33.5 -7.5q-8 0 -17.5 1t-22.5 5l1 -1q-189 42 -189 121q0 2 0.5 5t0.5 5q2 12 7 28.5t12 34.5q6 17 11.5 34t5.5 28 q0 4 -2 4q-6 0 -27 -8q-23 -8 -50.5 -24t-51.5 -37t-40.5 -44.5t-16.5 -45.5q0 -14 8.5 -26.5t28.5 -24.5q37 -22 82.5 -42.5t93.5 -40.5q45 -19 86.5 -37.5t73.5 -38t51.5 -41.5t19.5 -47q0 -22 -15 -44q-14 -22 -40 -47t-69.5 -46.5t-108.5 -36t-156 -15.5h-17 q-115 0 -223.5 31.5t-218.5 103.5q-66 42 -66 67q0 27 38 42h1z" glyph-name="Scaron"/>
<glyph unicode="‹" horiz-adv-x="766" d="M571 435q24 5 35.5 11.5t11.5 20.5q0 7 -6 16t-19 17h1q-31 24 -81 52q-17 9 -32.5 13.5t-32.5 4.5q-19 0 -40.5 -4t-50.5 -10q-7 -2 -15 -3.5t-16 -3.5q-33 -8 -69.5 -18t-73.5 -20.5t-71 -21t-62 -19.5l1 1q-23 -6 -36.5 -16t-21.5 -22.5t-11.5 -26.5t-6.5 -27 q-2 -11 -3 -18q-6 -11 -6 -23v-9t1 -8q9 -19 36 -28q112 -28 222 -56.5t210 -60.5q26 -10 43 -10q15 0 25.5 7t19.5 21q16 27 22 63v7q0 38 -58 58q-33 11 -75 23.5t-91 25.5q127 36 250 64zM560 458q-75 -17 -149.5 -37t-152.5 -42q65 -17 119.5 -33t96.5 -30 q26 -10 38 -20.5t10 -27.5q-6 -35 -20 -58q-11 -17 -25 -20t-45 8q-100 32 -210.5 61t-222.5 57q-20 6 -25 17q-3 19 3 28q4 14 6.5 29.5t8.5 30t18.5 26t36.5 17.5q26 9 59.5 19t70.5 20.5t74 20.5t71 18q37 8 62.5 13.5t44.5 7t35 -2t34 -13.5q45 -25 79 -51 q22 -15 18 -23.5t-35 -14.5z" glyph-name="guilsinglleft"/>
<glyph unicode="Œ" horiz-adv-x="1415" d="M538 611h-6q-25 0 -56 -21t-61.5 -54t-58 -73t-45.5 -78q-17 -38 -27 -79t-10 -77q0 -41 13 -70t42 -35h-1q5 -1 9.5 -1.5t7.5 -0.5q26 0 54.5 17t55.5 46t51 69t42 86q0 1 2 7v1l23 79l-1 -1q9 43 9 82q0 41 -9.5 69t-31.5 33zM535 633q20 -4 32 -22.5t17.5 -46.5 t3.5 -62.5t-9 -70.5l-22 -76q0 -2 -1 -4.5t-1 -4.5q-20 -53 -48.5 -98t-60.5 -76.5t-65 -46.5t-63 -8q-32 7 -48 36t-18.5 69.5t7.5 87.5t30 89q20 41 50.5 85t65 78.5t69 55t61.5 15.5zM489 769q-27 3 -57 1.5t-60 -6.5t-57.5 -13.5t-49.5 -18.5q-105 -53 -176 -131.5 t-105 -164t-29.5 -169.5t50.5 -150q20 -28 57 -50t75 -36q48 -17 107 -25.5t113 -12.5q76 -5 136 3t115 33q7 -4 15 -7t16 -7q10 -5 22.5 -9t28.5 -6t38 -1.5t52 5.5q88 11 184 24t190 25q38 5 45 12.5t-1 27.5q-12 18 -22.5 35t-28.5 36q-15 17 -38 23t-61 4 q-71 -3 -132.5 -7.5t-127.5 -12.5q12 26 22.5 53.5t21.5 56.5q81 11 167.5 20.5t171.5 19.5q38 5 47 12t-3 28q-8 18 -18 35t-28 35q-15 17 -37 22.5t-60 4.5q-45 -1 -85 -2.5t-82 -5.5q22 45 39.5 86t35.5 78q93 8 177 14t162 11q38 3 47.5 10.5t2.5 28.5q-8 18 -15.5 33 t-26.5 34q-22 35 -94 34q-71 -2 -142.5 -7t-140.5 -12t-133 -15t-119 -17q-43 15 -97 25.5t-112 15.5zM498 776q57 -5 111 -15.5t97 -25.5q55 9 119 17t132.5 15t140.5 12t143 7h6q73 0 99 -39q18 -17 25.5 -30.5t14.5 -28.5q1 -2 2.5 -6.5t2.5 -6.5q4 -11 4 -21 q0 -20 -15 -27.5t-52 -10.5q-11 -1 -22 -1.5t-22 -1.5q-67 -5 -138 -10t-149 -11q-8 -17 -15 -34t-15 -35q-7 -16 -14 -31.5t-15 -32.5q35 2 69.5 3.5t72.5 2.5h11q37 0 59 -6.5t38 -25.5v1q18 -19 28.5 -36.5t19.5 -37.5q9 -13 9 -26q0 -17 -15 -24t-49 -12 q-25 -3 -50 -5.5t-51 -5.5q-59 -7 -116.5 -13.5t-113.5 -14.5q-2 -4 -2.5 -7t-2.5 -7q-7 -17 -13 -33.5t-12 -30.5q59 7 114.5 10.5t120.5 6.5q5 0 11 0.5t11 0.5q32 0 53 -8t36 -25q15 -16 24.5 -29t17.5 -26h-1q3 -5 7 -11.5t7 -11.5q5 -12 5 -21q0 -17 -13.5 -24.5 t-48.5 -12.5q-49 -6 -98.5 -12.5t-99.5 -13.5q-46 -6 -90 -12t-86 -11q-38 -6 -65 -6q-31 0 -50.5 5t-34.5 13l-12 6l1 -1q-5 2 -13 6q-44 -18 -90.5 -27t-102.5 -9q-14 0 -29 0.5t-30 1.5q-55 4 -114.5 12.5t-109.5 26.5q-39 15 -78 38.5t-61 52.5q-28 39 -41 84.5 t-13 94.5q0 62 21 126.5t61.5 125t100 114t136.5 92.5q39 19 91.5 30t103.5 11q10 0 19.5 -0.5t17.5 -1.5z" glyph-name="OE"/>
<glyph unicode="‘" horiz-adv-x="576" d="M192 610q31 -32 79 -44q22 -5 49.5 -8.5t52.5 -5.5q65 -4 41 31q-15 25 -35 61t-41 75.5t-40.5 78t-32.5 67.5q-16 34 -82 24q-26 -7 -51 -13.5t-43 -14.5q-20 -11 -25.5 -21t-3 -21.5t10 -27t13.5 -38.5q11 -20 24 -40t27.5 -39t29 -35.5t27.5 -28.5zM275 543 q-51 12 -86 48q-14 12 -28.5 29t-29 36.5t-28 40.5t-24.5 41q-3 11 -7 21t-9 20q-11 22 -11 39q0 14 8.5 25t29.5 23q18 8 39.5 14.5t43.5 11.5q4 1 7.5 2t7.5 2q8 2 16 2h15q52 0 68 -35q13 -30 32.5 -68.5t40.5 -78t41 -75t34 -59.5q4 -7 6.5 -13t2.5 -11q0 -30 -49 -30 q-3 0 -7 0.5t-8 0.5q-26 2 -55 5.5t-50 8.5z" glyph-name="quoteleft"/>
<glyph unicode="’" horiz-adv-x="510" d="M318 612q10 15 22.5 37.5t23.5 47.5t20 51t13 47q1 10 0.5 18.5t-4 16t-12 14t-24.5 14.5q-21 10 -48 18.5t-55 15.5q-33 8 -51.5 5t-23.5 -24q-7 -28 -17 -65.5t-21.5 -76t-22.5 -74t-20 -59.5q-13 -34 48 -33q32 0 56.5 1.5t44.5 5.5q25 5 40.5 14t30.5 26zM337 594 q-17 -20 -34 -29.5t-45 -15.5q-20 -4 -45.5 -5.5t-58.5 -1.5h-5q-61 0 -61 36q0 3 1 8t3 10v-1q9 22 20 57t22 73.5t21 76.5t17 67v-1q5 20 17 28.5t33 8.5q20 0 44 -6q27 -7 54.5 -15.5t50.5 -19.5q32 -15 41 -29t9 -34q0 -3 -0.5 -8t-0.5 -9q-4 -22 -13.5 -48t-21 -52.5 t-24 -49.5t-23.5 -39z" glyph-name="quoteright"/>
<glyph unicode="“" horiz-adv-x="854" d="M175 619q21 -17 40 -26t48 -14q25 -4 51 -5.5t52 -2.5q61 -1 31 33q-17 24 -45 59.5t-57.5 74t-57.5 76t-45 65.5q-22 37 -83 19q-51 -14 -86 -33q-16 -9 -20.5 -20t-1 -24.5t14.5 -29.5t27 -36q31 -38 65.5 -75.5t66.5 -60.5zM494 610q18 -17 35.5 -27.5t43.5 -16.5 q21 -5 48.5 -8.5t52.5 -5.5q64 -4 42 31q-15 25 -35.5 61t-41.5 75.5t-40.5 78t-32.5 67.5q-16 34 -81 24q-26 -7 -51.5 -13.5t-43.5 -14.5q-28 -14 -31.5 -26.5t7.5 -33.5q7 -21 21 -48t31.5 -53.5t37.5 -50.5t38 -39zM174 599q-32 24 -67.5 62t-67.5 77q-21 26 -33.5 47 t-12.5 39q0 27 30 46q34 18 90 34q22 7 40 7q41 0 60 -32q12 -18 27.5 -40.5t33.5 -46.5t37 -49t37 -48q21 -26 39 -49.5t30 -40.5q13 -16 13 -28q0 -29 -51 -29h-5q-28 1 -55 2.5t-51 5.5q-31 5 -51.5 14.5t-43.5 28.5h1zM578 543q-29 7 -47.5 17.5t-37.5 29.5 q-19 15 -39 39.5t-38 51.5t-33 54.5t-22 49.5q-11 19 -11 34q0 14 9.5 25t31.5 22q19 8 39 14t41 11l-1 -1q5 2 11 3t11 3q8 2 15 2h14q51 0 67 -35q13 -29 32.5 -67t40.5 -77t41 -75t35 -61h-1q9 -14 9 -24q0 -31 -49 -31q-3 0 -7 0.5t-8 0.5q-26 2 -55 5.5t-49 8.5h1z" glyph-name="quotedblleft"/>
<glyph unicode="”" horiz-adv-x="845" d="M634 600q21 16 43.5 45t41.5 60t30 59t9 43q-4 15 -31 31q-18 11 -43.5 20.5t-51.5 19.5q-64 23 -81 -14q-11 -28 -29 -64t-38 -73t-39.5 -71t-32.5 -56q-23 -33 42 -36q57 -6 101 1q26 2 43.5 10.5t35.5 24.5zM318 612q10 15 22.5 37.5t23.5 47.5t20 51t13 47 q1 10 0.5 18.5t-4 16t-12 14t-24.5 14.5q-21 10 -48 18.5t-55 15.5q-33 8 -51.5 5t-23.5 -24q-7 -28 -17 -65.5t-21.5 -76t-22.5 -74t-20 -59.5q-13 -34 48 -33q32 0 57.5 1.5t43.5 5.5q25 5 40.5 14t30.5 26zM652 581q-20 -17 -38.5 -27t-47.5 -12q-12 -2 -25.5 -3 t-28.5 -1q-27 0 -52 3q-31 1 -46 11t-15 25q0 9 9 23h-1q13 22 32.5 56t39.5 70.5t38 72.5t28 62q15 32 53 32q10 0 21.5 -2t25.5 -7q4 -2 8.5 -3t8.5 -3h-1q24 -9 46 -17.5t36 -17.5q14 -8 24 -19t14 -25v-5q0 -18 -12.5 -47.5t-31.5 -61t-42 -60.5t-44 -45zM337 594 q-17 -20 -34 -29.5t-45 -15.5q-18 -4 -44.5 -5.5t-59.5 -1.5h-5q-61 0 -61 36q0 3 1 8t3 10v-1q9 22 20 57t22 73.5t21 76.5t17 67v-1q5 20 17 28.5t33 8.5q20 0 44 -6q27 -7 54.5 -15.5t50.5 -19.5q32 -15 41 -29t9 -34q0 -3 -0.5 -8t-0.5 -9q-4 -22 -13.5 -48t-21 -52.5 t-24 -49.5t-23.5 -39z" glyph-name="quotedblright"/>
<glyph unicode="•" horiz-adv-x="713" d="M36 375q0 -3 -0.5 -6t-0.5 -6q0 -40 22 -72.5t60 -55.5t89 -35.5t108 -12.5h16q60 0 108 14t83.5 34.5t57 43t29.5 39.5q12 25 12 57q0 46 -51 90t-159 67q-51 9 -99 9q-60 0 -108.5 -13.5t-84 -36t-57 -52.5t-25.5 -62v-2zM43 383q5 36 32.5 67.5t73.5 53t109.5 28.5 t140.5 -7q51 -11 88.5 -26.5t61.5 -34.5t36 -40t12 -41q0 -15 -3 -27t-8 -24q-8 -16 -28.5 -37t-53.5 -40t-78.5 -32t-103.5 -13q-59 -2 -111.5 9.5t-91 34.5t-59.5 55.5t-17 73.5z" glyph-name="bullet"/>
<glyph unicode="–" horiz-adv-x="1221" d="M32 418q-105 -6 -62 -45q15 -16 38 -32t54 -33q33 -17 66.5 -22t81.5 -1q83 7 173 12.5t183 9.5t186 6.5t182 4.5q51 1 69.5 7t4.5 24q-11 14 -21.5 30.5t-35.5 34.5q-35 31 -132 31q-99 0 -209 -2.5t-215.5 -6t-200 -8.5t-162.5 -10zM39 425q68 5 162.5 10t200.5 8.5 t216 6t209 2.5q101 0 141 -34q18 -14 29.5 -27t19.5 -26v1q3 -4 5.5 -8t5.5 -8q9 -11 9 -22q0 -18 -23.5 -25t-71.5 -8q-180 -4 -367.5 -11.5t-355.5 -21.5q-11 -1 -22 -1.5t-20 -0.5q-33 0 -59.5 6t-54.5 21q-32 18 -55.5 34t-39.5 33q-17 14 -17 31q0 35 88 40z" glyph-name="endash"/>
<glyph unicode="—" horiz-adv-x="1857" d="M32 418q-105 -6 -62 -45q15 -16 38 -32t54 -33q33 -17 66.5 -22t81.5 -1q42 4 117 7t172 5.5t209.5 4.5t228 4t229 3t211.5 2.5t175.5 2.5t122.5 2q51 1 69.5 7t5.5 24q-12 14 -22 30.5t-35 34.5q-37 31 -132 31q-50 0 -134.5 -0.5t-190.5 -1.5t-227 -2.5t-243.5 -3 t-239.5 -3.5t-215.5 -4.5t-171.5 -5t-107 -4.5zM39 425q34 2 107 4.5t171.5 5t216 4.5t240 3.5t243.5 3t227 2.5t190.5 1.5t134.5 0.5q100 0 141 -34q18 -14 28.5 -26t18.5 -25q1 -2 2.5 -4t9.5 -11q9 -14 9 -24q0 -20 -23.5 -26t-71.5 -7q-47 -1 -128.5 -1.5t-185.5 -2.5 q-99 -1 -211 -2.5t-226 -3.5t-224.5 -4t-205 -4.5t-168.5 -5.5t-115 -7q-11 -1 -22 -1.5t-20 -0.5q-33 0 -59.5 6t-54.5 21q-32 18 -55.5 34t-39.5 33q-17 14 -17 31q0 35 88 40z" glyph-name="emdash"/>
<glyph unicode="˜" horiz-adv-x="1089" d="M731 860q67 0 148 37q45 19 65 35t20 30q0 13 -28 23q-25 7 -53 7q-31 0 -62 -14q-5 -3 -15.5 -9t-22.5 -13t-23.5 -11.5t-17.5 -4.5q-42 2 -82 15t-76 20q-33 7 -62.5 10.5t-58.5 3.5q-26 0 -63 -7.5t-74 -18.5t-67 -24t-40 -23q-14 -14 -14 -26q0 -14 18 -21t51 -7 q40 0 66 10q2 0 12.5 5t24.5 11.5t29.5 11.5t27.5 5q15 0 37 -2t44.5 -5.5t42 -8t30.5 -9.5q23 -11 59 -15.5t84 -4.5zM739 837q-51 0 -88 5t-61 16q-10 4 -29 8.5t-41 8t-43 5.5t-35 2t-35.5 -8.5t-35.5 -16.5q-7 -4 -11 -6t-10 -2q-14 -6 -31 -8t-37 -2q-41 0 -62.5 10.5 t-21.5 32.5q0 19 18 37q11 11 42.5 24.5t69.5 25t77 19.5t66 8q31 0 61 -3.5t63 -10.5q12 -2 26.5 -6t31.5 -9l48 -12t50 -8q8 0 26 10.5t32 18.5q4 2 4.5 4t10.5 4h-1q31 15 68 15q15 0 28 -1.5t29 -6.5q18 -6 28.5 -15.5t10.5 -21.5q0 -18 -22.5 -38t-71.5 -41 q-83 -38 -154 -38z" glyph-name="tilde"/>
<glyph unicode="™" horiz-adv-x="1384" d="M520 700q23 1 27 5t-1 15q-12 25 -44 47q-8 6 -18.5 9t-33.5 3q-45 -1 -101.5 -3.5t-116 -6.5t-116.5 -8.5t-102 -9.5q-14 -2 -18.5 -5.5t3.5 -14.5t19.5 -26t28.5 -26q15 -10 27 -12t30 1q15 2 37 4t45 4q-14 -34 -27.5 -75.5t-25.5 -83t-21 -80t-12 -66.5 q-8 -23 13 -33t57 -18q37 -7 58.5 -10t25.5 14q12 42 27.5 89t32 95t33 94.5t32.5 88.5q40 2 75.5 4.5t65.5 4.5zM529 677q-57 -5 -132 -9q-15 -41 -31.5 -86.5t-32.5 -91.5t-30.5 -91.5t-26.5 -86.5l1 1q-3 -14 -12.5 -19.5t-24.5 -5.5q-12 0 -23 2t-25 4q-4 1 -8 1.5 t-9 1.5q-37 8 -60.5 19t-23.5 36q0 5 0.5 8.5t1.5 6.5v-2q3 26 11 61t18.5 73.5t23 78t25.5 73.5q-2 0 -3.5 -0.5t-3.5 -0.5q-15 -2 -27.5 -2.5t-22.5 -2.5q-5 -1 -10 -1.5t-11 -0.5q-13 0 -23.5 3.5t-22.5 11.5q-15 9 -26 22.5t-19 24.5q-2 2 -3.5 5t-3.5 5v-1q-4 5 -6 9 t-2 10q0 12 9 17t24 8q45 5 102 9.5t117 8.5t117 6.5t102 3.5q26 0 38 -3.5t23 -11.5q16 -11 28.5 -24.5t19.5 -27.5q5 -12 5 -18q0 -14 -9 -18t-34 -6zM729 590q8 -52 22 -103t29 -92q6 -20 15.5 -27.5t28.5 -12.5q13 -3 27.5 -5.5t31.5 -4.5q23 -3 29.5 0.5t14.5 15.5 q13 20 35 49.5t47.5 62t51.5 65.5t49 60q-12 -31 -22.5 -65t-19 -65.5t-14.5 -58t-8 -43.5q-4 -15 2.5 -24t28.5 -16q14 -5 35.5 -9.5t41.5 -7.5q23 -4 31 1t13 16q7 31 22 81t33 104.5t36.5 106t31.5 86.5q7 16 0.5 24.5t-29.5 15.5q-35 9 -71 16t-67 12q-26 4 -43 3.5 t-30.5 -8t-26 -21.5t-28.5 -35q-17 -19 -35.5 -41t-36.5 -44.5t-34.5 -44.5t-29.5 -41q-12 52 -19.5 82t-11 46t-4.5 22t-1 10q-2 9 -5 16.5t-9 13.5t-16.5 10.5t-28.5 8.5q-28 7 -57 11.5t-68 8.5q-27 2 -40.5 -2t-21.5 -20q-13 -33 -30.5 -84.5t-33.5 -106.5t-29 -106.5 t-17 -84.5q-3 -16 4 -24t27 -15q17 -6 37 -10.5t40 -7.5q21 -3 29 0t13 14q5 25 13.5 56.5t19 67t23 72t25.5 72.5zM774 382q-12 31 -23 67.5t-19 74.5q-20 -59 -36.5 -115.5t-24.5 -98.5q-7 -14 -15 -20t-25 -6h-10q-4 0 -9 1q-21 3 -42 7.5t-38 11.5q-23 8 -32.5 17.5 t-9.5 26.5q0 2 -0.5 5t1.5 7q4 33 17 84.5t29 106t33.5 106t30.5 84.5q11 20 24 28t35 8h10t10 -1h-1q42 -4 71.5 -8.5t56.5 -11.5h-1q22 -5 34.5 -10.5t20 -13t10.5 -16.5t6 -20q0 -4 0.5 -8.5t2.5 -14t6 -26.5t11 -46l4 -16t4 -17q26 35 57.5 73.5t60.5 71.5l-1 -1 q14 18 25.5 31.5t23 22.5t24.5 13t31 4q9 0 18 -1t20 -3q29 -5 64.5 -11.5t75.5 -17.5q23 -7 33.5 -15t10.5 -24q0 -5 -1.5 -10t-3.5 -10q-13 -34 -31 -85t-36 -105.5t-33 -105t-22 -81.5q-6 -14 -15 -22t-28 -8q-6 0 -9.5 0.5t-8.5 1.5q-20 3 -42 7.5t-38 10.5h1 q-23 7 -33 16.5t-10 26.5v8t1 7v-2q3 23 13.5 66t25.5 91q-20 -24 -39.5 -49t-37 -48t-31.5 -42.5t-23 -32.5q-8 -13 -14.5 -18.5t-23.5 -5.5h-10t-10 1q-19 2 -34.5 5t-26.5 5q-11 3 -19.5 6.5t-14.5 9t-11 14t-9 21.5v-1z" glyph-name="trademark"/>
<glyph unicode="š" horiz-adv-x="882" d="M285 1131q-22 1 -28 -3.5t-1 -15.5q9 -19 20.5 -43t23 -51t22 -54.5t18.5 -52.5q3 -16 10 -23t20 -16q15 -8 32 -14t34 -14q17 -6 31 -5.5t31 11.5q34 19 69 42.5t67 47t59 45t45 37.5q20 17 -2 36q-14 11 -25.5 19t-25.5 16q-8 5 -14 7t-12 2q-13 0 -22 -9 q-35 -26 -76 -55.5t-89 -60.5q-17 36 -30.5 68t-27.5 54q-17 22 -52 26q-22 4 -40.5 5t-36.5 1zM293 1138q20 0 39 -1t41 -5q40 -4 63 -34q8 -13 18.5 -36t22.5 -49l-1 1q2 -5 5 -11t5 -12q35 23 66.5 45.5l59.5 42.5l24 18l-2 -1q13 13 33 13q14 0 33 -11q14 -8 27 -16.5 t27 -20.5q17 -15 17 -30q0 -17 -15 -29v1q-18 -16 -45 -37.5t-59.5 -45.5t-68 -47.5t-70.5 -43.5l1 1q-23 -15 -42 -15q-17 0 -34 7l-30 12h1q-11 5 -21.5 9t-19.5 9q-15 11 -23 19.5t-12 28.5l1 -1q-7 23 -17.5 49.5t-22 53.5t-23.5 51.5t-21 44.5l1 -1q-5 12 -5 16 q0 25 40 25h7zM-114 203q-28 -10 -28 -28q0 -16 59 -54q113 -75 223 -105t228 -28q88 1 151 15t105 34.5t67 44t38 44.5q20 28 10.5 52t-39 46t-74.5 42.5t-94.5 41t-99.5 42.5t-90 46q-31 18 -39.5 40t-2 45t25.5 45.5t43 42t50 34.5t48 22q24 11 35 9t13 -12.5t-2.5 -27 t-11 -35.5l-13 -38t-8.5 -33q-12 -72 176 -114q33 -8 50.5 -3.5t31.5 22.5q13 19 25.5 45t22.5 53.5t17 54.5t10 49q-1 12 -3 25.5t-9.5 28t-22.5 29t-42 29.5q-40 22 -99 40t-117 30q-37 7 -72 8t-65 -2t-54 -9.5t-40 -13.5q-46 -17 -92 -42.5t-86 -55t-69.5 -61 t-42.5 -59.5q-20 -34 -20.5 -66t14 -60.5t42.5 -53t65 -43.5q34 -19 76.5 -37.5t85 -36.5t81.5 -34.5t65 -30.5t35 -25t-7 -18q-20 -11 -53 -12.5t-76.5 6t-96 23.5t-110.5 40q-21 9 -47 14t-54.5 6.5t-57.5 -1.5t-55 -10zM-110 209q24 7 49 10t50 3q35 0 67.5 -5.5 t57.5 -16.5q82 -34 150 -51t116 -17q35 0 58 10q-4 4 -18 11.5t-35.5 17t-48.5 21t-56 24.5q-45 19 -91.5 39.5t-87.5 42.5q-59 31 -94.5 73t-35.5 93q0 38 23 78q14 29 45 61.5t71.5 62.5t87.5 56.5t94 43.5h-1q23 10 61.5 18t87.5 8q23 0 45.5 -1.5t45.5 -6.5 q58 -12 118 -30.5t102 -41.5q30 -16 46 -32.5t24.5 -32.5t10.5 -31.5t4 -29.5q-3 -23 -10.5 -51t-18 -56.5t-23.5 -55.5t-26 -47q-11 -15 -24.5 -22.5t-33.5 -7.5q-8 0 -17.5 1t-22.5 5l1 -1q-189 42 -189 121q0 2 0.5 5t0.5 5q2 12 7 28.5t12 34.5q6 17 11.5 34t5.5 28 q0 4 -2 4q-6 0 -27 -8q-23 -8 -50.5 -24t-51.5 -37t-40.5 -44.5t-16.5 -45.5q0 -14 8.5 -26.5t28.5 -24.5q37 -22 82.5 -42.5t93.5 -40.5q45 -19 86.5 -37.5t73.5 -38t51.5 -41.5t19.5 -47q0 -22 -15 -44q-14 -22 -40 -47t-69.5 -46.5t-108.5 -36t-156 -15.5h-17 q-115 0 -223.5 31.5t-218.5 103.5q-66 42 -66 67q0 27 38 42h1z" glyph-name="scaron"/>
<glyph unicode="›" horiz-adv-x="814" d="M650 405q8 22 -3 30.5t-37 16.5q-59 18 -123.5 35.5t-127.5 33.5t-121 29.5t-103 22.5q-25 5 -43 2t-23 -17q-5 -17 -4 -39t6 -37q6 -9 10.5 -15t11 -10t16 -7t26.5 -6q51 -11 102 -23.5t105 -26.5q-95 -17 -183 -36.5t-149 -36.5q-20 -6 -29 -15t9 -23 q25 -17 50.5 -33.5t50.5 -27.5q26 -12 42.5 -13t41.5 7q42 12 84.5 22.5t87.5 20t94 19.5t105 20q31 7 45 14.5t26 24.5q19 28 33 68zM672 392q-8 -20 -16 -38.5t-19 -33.5q-14 -20 -30 -29t-50 -16q-58 -11 -108.5 -20.5t-95.5 -19.5t-86 -20t-80 -21h1q-20 -8 -41 -8 q-25 0 -54 14q-25 11 -51.5 28t-52.5 35q-17 14 -17 29q0 13 12 21.5t30 13.5q53 15 122 31t144 31l-70 16l-70 16q-18 3 -29.5 6.5t-19 9t-13 13t-13.5 19.5q-4 11 -5.5 23.5t-1.5 25.5q0 9 1 19t4 18q11 28 51 28q15 0 32 -3q44 -9 101 -22t120.5 -29t129 -34.5 t125.5 -36.5q26 -8 40 -16t14 -29q0 -10 -4 -21z" glyph-name="guilsinglright"/>
<glyph unicode="œ" horiz-adv-x="1415" d="M538 611h-6q-25 0 -56 -21t-61.5 -54t-58 -73t-45.5 -78q-17 -38 -27 -79t-10 -77q0 -41 13 -70t42 -35h-1q5 -1 9.5 -1.5t7.5 -0.5q26 0 54.5 17t55.5 46t51 69t42 86q0 1 2 7v1l23 79l-1 -1q9 43 9 82q0 41 -9.5 69t-31.5 33zM535 633q20 -4 32 -22.5t17.5 -46.5 t3.5 -62.5t-9 -70.5l-22 -76q0 -2 -1 -4.5t-1 -4.5q-20 -53 -48.5 -98t-60.5 -76.5t-65 -46.5t-63 -8q-32 7 -48 36t-18.5 69.5t7.5 87.5t30 89q20 41 50.5 85t65 78.5t69 55t61.5 15.5zM489 769q-27 3 -57 1.5t-60 -6.5t-57.5 -13.5t-49.5 -18.5q-105 -53 -176 -131.5 t-105 -164t-29.5 -169.5t50.5 -150q20 -28 57 -50t75 -36q48 -17 107 -25.5t113 -12.5q76 -5 136 3t115 33q7 -4 15 -7t16 -7q10 -5 22.5 -9t28.5 -6t38 -1.5t52 5.5q88 11 184 24t190 25q38 5 45 12.5t-1 27.5q-12 18 -22.5 35t-28.5 36q-15 17 -38 23t-61 4 q-71 -3 -132.5 -7.5t-127.5 -12.5q12 26 22.5 53.5t21.5 56.5q81 11 167.5 20.5t171.5 19.5q38 5 47 12t-3 28q-8 18 -18 35t-28 35q-15 17 -37 22.5t-60 4.5q-45 -1 -85 -2.5t-82 -5.5q22 45 39.5 86t35.5 78q93 8 177 14t162 11q38 3 47.5 10.5t2.5 28.5q-8 18 -15.5 33 t-26.5 34q-22 35 -94 34q-71 -2 -142.5 -7t-140.5 -12t-133 -15t-119 -17q-43 15 -97 25.5t-112 15.5zM498 776q57 -5 111 -15.5t97 -25.5q55 9 119 17t132.5 15t140.5 12t143 7h6q73 0 99 -39q18 -17 25.5 -30.5t14.5 -28.5q1 -2 2.5 -6.5t2.5 -6.5q4 -11 4 -21 q0 -20 -15 -27.5t-52 -10.5q-11 -1 -22 -1.5t-22 -1.5q-67 -5 -138 -10t-149 -11q-8 -17 -15 -34t-15 -35q-7 -16 -14 -31.5t-15 -32.5q35 2 69.5 3.5t72.5 2.5h11q37 0 59 -6.5t38 -25.5v1q18 -19 28.5 -36.5t19.5 -37.5q9 -13 9 -26q0 -17 -15 -24t-49 -12 q-25 -3 -50 -5.5t-51 -5.5q-59 -7 -116.5 -13.5t-113.5 -14.5q-2 -4 -2.5 -7t-2.5 -7q-7 -17 -13 -33.5t-12 -30.5q59 7 114.5 10.5t120.5 6.5q5 0 11 0.5t11 0.5q32 0 53 -8t36 -25q15 -16 24.5 -29t17.5 -26h-1q3 -5 7 -11.5t7 -11.5q5 -12 5 -21q0 -17 -13.5 -24.5 t-48.5 -12.5q-49 -6 -98.5 -12.5t-99.5 -13.5q-46 -6 -90 -12t-86 -11q-38 -6 -65 -6q-31 0 -50.5 5t-34.5 13l-12 6l1 -1q-5 2 -13 6q-44 -18 -90.5 -27t-102.5 -9q-14 0 -29 0.5t-30 1.5q-55 4 -114.5 12.5t-109.5 26.5q-39 15 -78 38.5t-61 52.5q-28 39 -41 84.5 t-13 94.5q0 62 21 126.5t61.5 125t100 114t136.5 92.5q39 19 91.5 30t103.5 11q10 0 19.5 -0.5t17.5 -1.5z" glyph-name="oe"/>
<glyph unicode="Ÿ" horiz-adv-x="955" d="M901 635q10 14 14.5 23.5t4.5 20.5q0 14 -8 24.5t-25 22.5q-16 9 -37.5 19.5t-44 19.5t-45.5 15t-42 6q-18 0 -32.5 -6t-22.5 -21q-60 -68 -124 -136.5t-130 -136.5q-32 66 -62 123.5t-56 102.5q-11 15 -20.5 25.5t-20.5 18t-25.5 12t-35.5 7.5q-17 2 -35 3t-35 1 q-41 0 -83 -3q-32 -3 -45 -9.5t-13 -23.5q0 -12 9 -28l-1 1q29 -63 68 -143.5t80 -162.5l31.5 -63t29.5 -61q-9 -33 -17 -64t-14 -59q-5 -24 -11 -48t-11 -43q-1 -2 -1 -4v-10q0 -23 12.5 -36t41.5 -27q40 -11 79 -20.5t71 -15.5q11 -2 19 -3t19 -1q23 0 32.5 7.5t16.5 24.5 q14 54 31.5 110t43.5 121q60 58 122 119t116 117t95.5 103.5t61.5 78.5zM881 652q-20 -31 -62 -78.5t-96 -103.5t-115.5 -117t-120.5 -118q-25 -63 -42.5 -119.5t-32.5 -110.5q-8 -20 -21.5 -24.5t-50.5 1.5q-35 7 -73.5 15.5t-69.5 17.5q-32 14 -42 27.5t-5 39.5 q12 42 23.5 96.5t29.5 117.5q-26 54 -55 111.5t-57 114.5t-53.5 110.5t-45.5 97.5q-11 21 -4.5 28.5t41.5 10.5q38 2 75 3t75 -4q19 -3 32 -7t23 -10.5t18 -15.5t17 -21q29 -48 61 -111t67 -135q71 72 138.5 145.5t131.5 145.5q11 19 36 20t55 -8t60.5 -23t51.5 -26 q25 -17 27 -31t-16 -39zM130 908v-7q0 -19 10.5 -34.5t28 -26.5t40.5 -17t49 -6h6q25 0 46 5.5t36.5 14t26 18.5t15.5 19q10 13 10 31q0 23 -23.5 44t-74.5 32q-19 4 -44 4q-54 0 -87.5 -23.5t-38.5 -53.5zM515 907v-9q0 -19 10 -34t27.5 -25.5t41 -16.5t49.5 -6h6 q27 0 49 7t38 17t26 21t14 19q0 2 3 7q1 2 1.5 6t0.5 12q0 23 -23.5 43.5t-72.5 31.5q-20 4 -44 4q-56 0 -89 -23.5t-37 -53.5zM137 913q3 15 15 29t31.5 23t46.5 12t59 -3q45 -9 65.5 -26t20.5 -35q0 -13 -7 -21q-2 -7 -10.5 -16t-23 -17t-34 -13.5t-44.5 -5.5 q-25 -1 -47 4t-38.5 15t-26 23.5t-7.5 30.5zM522 913q2 15 13.5 28.5t31.5 22.5t47 12t60 -3q43 -9 63.5 -26t20.5 -34q0 -7 -1.5 -12t-3.5 -10q-3 -7 -12 -16t-23 -17t-33 -13.5t-44 -5.5q-26 -1 -48.5 4t-39 15t-25 24t-6.5 31z" glyph-name="Ydieresis"/>
<glyph unicode="¡" horiz-adv-x="587" d="M489 716q3 24 -9 43t-33.5 31.5t-51.5 19t-64 6.5q-33 0 -59 -7.5t-45 -18.5t-31 -23.5t-17 -21.5q-7 -12 -6 -28t13 -31.5t36.5 -29t64.5 -20.5q45 -9 81.5 -5t62.5 16t41 30.5t17 38.5zM512 706q-2 -19 -13.5 -37t-31.5 -31.5t-48 -22t-64 -8.5q-32 0 -63 6 q-35 6 -59 17.5t-39 25t-21.5 29t-6.5 29.5q0 17 8 30q5 10 18 24t34 26t49 20.5t64 8.5h4q35 0 65.5 -7.5t53.5 -21t36.5 -33.5t13.5 -45v-10zM-23 19q35 -14 79.5 -25.5t82.5 -17.5q41 -8 60 -2.5t31 28.5q22 50 48 116t51 135.5t46.5 136.5t34.5 120q8 26 -1.5 40 t-42.5 25q-32 11 -65 18t-71 12q-33 5 -48.5 0.5t-22.5 -24.5q-20 -55 -46 -117t-55.5 -126.5t-61 -129t-61.5 -125.5q-12 -21 -2.5 -35.5t44.5 -28.5zM-21 -3q-58 25 -58 57q0 16 9 29v-1q30 60 61 124.5t60.5 128.5t55.5 126t46 117q8 21 20 29t34 8q15 0 33 -3 q38 -5 72 -12.5t67 -18.5q31 -10 44.5 -23t13.5 -34q0 -6 -1 -13t-4 -14l1 1q-13 -52 -34.5 -119t-47 -137t-52 -137t-48.5 -118q-11 -20 -24.5 -29.5t-38.5 -9.5q-11 0 -21 1.5t-23 3.5h1q-38 6 -84.5 18t-81.5 26z" glyph-name="exclamdown"/>
<glyph unicode="¢" horiz-adv-x="818" d="M586 266q-101 18 -161 -24q-84 -60 -129 -50q-22 4 -33 23.5t-12.5 48t5.5 62.5t22 67q15 31 39.5 65.5t52 63.5t54 46.5t45.5 14.5q19 -5 23 -20.5t4 -35.5q0 -6 1 -11.5t3 -11.5q10 -32 38.5 -50t93.5 -26q17 -2 27 -1.5t15.5 3.5t8.5 7.5t6 9.5q11 22 14 54.5t0 59.5 q-4 24 -17.5 42.5t-53.5 36.5l-26 9q8 17 13.5 34t10.5 31q11 36 -11.5 62.5t-67.5 43.5q-54 23 -77 -10q-15 -23 -31.5 -57t-34.5 -69q-32 0 -67 -7t-70 -24q-76 -39 -131 -101t-84 -129.5t-28 -132t37 -109.5q13 -18 35.5 -32t47.5 -23q-2 -8 -3 -15.5t-1 -15.5 q-5 -36 13.5 -71t69.5 -52q29 -10 44 -7.5t20 20.5q5 22 14.5 50.5t20.5 57.5h5q24 -1 49 0.5t49 5.5t44.5 10t35.5 13q30 14 58.5 36t47.5 48q8 11 12 20.5t1.5 17t-12.5 13t-30 9.5zM597 273q56 -11 56 -43q0 -18 -18 -41q-20 -27 -50 -50.5t-62 -38.5q-29 -14 -74 -22 t-91 -8h-14q-11 -28 -19 -53.5t-12 -43.5q-9 -32 -41 -32q-17 0 -42 9q-51 17 -72.5 50t-21.5 70v9q0 5 1 10v9q0 5 1 10q-23 10 -43.5 24t-33.5 32q-20 26 -30 57.5t-10 66.5q0 48 17.5 101t50 102.5t79 93t104.5 73.5q35 17 69 24.5t66 8.5q5 10 9.5 19.5t9.5 19.5h-1 q11 23 22 43t22 37q17 26 51 26q10 0 22 -2.5t23 -7.5h-1q42 -16 67 -40.5t25 -57.5q0 -13 -3 -23q0 -2 -3 -11t-5 -14q-3 -8 -5.5 -15.5t-5.5 -14.5l15 -5q21 -10 35 -20t22.5 -20.5t13 -23t6.5 -26.5q1 -7 1 -15v-15q0 -24 -4 -48t-12 -43v-2q-7 -11 -16 -20t-33 -9 q-7 0 -12 0.5t-12 1.5q-70 9 -101.5 30.5t-43.5 59.5q0 1 -0.5 1.5t-0.5 1.5l1 -4q-4 13 -4 25q0 14 -2.5 26t-13.5 15h-2q-18 0 -41.5 -18t-48 -45t-46.5 -59t-36 -60l1 1q-13 -29 -20 -58.5t-7 -54.5q0 -27 8 -45.5t26 -21.5q10 -2 11 -2q39 0 106 49q45 32 113 32 q15 0 30 -1t30 -4z" glyph-name="cent"/>
<glyph unicode="£" horiz-adv-x="968" d="M102 451q20 2 38.5 2.5t36.5 2.5q-5 -18 -11 -36t-11 -36q-100 -6 -185 -15q-26 -3 -40 -13t0 -28q12 -14 28 -31.5t34 -31.5q18 -15 39 -19.5t56 -0.5l26 3q-17 -66 -26 -113q-7 -24 4.5 -41.5t36.5 -31.5q33 -18 52.5 -29.5t44.5 -22.5q10 -5 21.5 -9t27 -6.5t38 -1.5 t54.5 7q88 12 184.5 24.5t189.5 24.5q22 3 33.5 6t15 7t1.5 10.5t-8 17.5q-7 17 -18.5 35t-30.5 35q-18 18 -39.5 23.5t-59.5 3.5q-66 -3 -123.5 -7t-122.5 -11q8 25 17.5 51t19.5 52q120 6 242 9q32 1 41.5 7t-1.5 23q-8 14 -18 28t-28 30q-27 28 -86 28q-25 0 -50 0.5 t-51 -0.5l26 69h96t98 -1q32 -2 42 4t2 23q-7 14 -16.5 28t-23.5 31q-22 28 -86 31q-14 1 -29 1.5t-32 1.5q11 23 21 45t21 42t3 31.5t-43 25.5t-81 25.5t-86 17.5q-38 7 -58.5 2.5t-34.5 -26.5q-17 -34 -34.5 -75t-35.5 -86q-58 -2 -114 -4t-106 -6q-26 -2 -42 -10.5 t-4 -27.5q8 -15 23 -32.5t30 -31.5q18 -17 37.5 -21.5t54.5 -2.5zM112 428q-7 -1 -13 -1h-12q-26 0 -43.5 6t-35.5 23q-16 15 -31.5 33.5t-24.5 34.5v-1q-7 12 -7 21q0 19 19 28.5t46 11.5q48 4 101.5 6t108.5 4q17 43 35.5 84t34.5 73q11 17 26 24.5t38 7.5q10 0 21 -1 t22 -3h-1q41 -6 88.5 -17.5t82.5 -26.5h-1q30 -11 43.5 -22.5t13.5 -28.5q0 -7 -2.5 -13t-6.5 -14q-7 -13 -13.5 -27t-13.5 -28q-4 -8 -6 -11q11 -1 20.5 -1.5t19.5 -0.5q70 -3 97 -37q14 -18 24 -32.5t18 -29.5q2 -5 3.5 -9t1.5 -10q0 -30 -47 -30q-4 0 -7.5 0.5t-8.5 0.5 q-48 1 -94 1h-90l-15 -39h80q64 0 96 -32q20 -17 30.5 -32t18.5 -29h-1q9 -14 9 -23q0 -17 -15 -23t-46 -7q-116 -3 -232 -9q-7 -18 -13.5 -36t-12.5 -35q57 6 110.5 9.5t113.5 6.5q6 0 12 0.5t11 0.5q32 0 51.5 -7.5t36.5 -24.5h-1q20 -18 32.5 -37.5t20.5 -38.5l-1 2 q5 -9 8 -15.5t3 -13.5q0 -17 -14 -23t-50 -11q-24 -3 -48.5 -6.5t-49.5 -6.5q-71 -9 -140.5 -18t-135.5 -18h1q-21 -4 -38 -5.5t-32 -1.5q-30 0 -48 5.5t-32 12.5q-17 8 -31.5 16t-31.5 17q-8 5 -16.5 9.5t-19.5 10.5q-24 14 -37 30.5t-13 39.5q0 5 0.5 9.5t2.5 11.5l-1 -2 q4 20 9 43t11 49h-4q-8 -1 -15.5 -1.5t-15.5 -0.5q-25 0 -42 6t-33 19h1q-21 16 -37.5 33.5t-27.5 31.5q-10 13 -10 26q0 17 17.5 27t42.5 13q41 4 84.5 7.5t91.5 6.5q2 8 4.5 17t5.5 17v-1q1 2 1 4t1 4l-17 -1q-9 -1 -18 -1t-18 -1h1z" glyph-name="sterling"/>
<glyph unicode="¤" horiz-adv-x="1126" d="M642 186q12 8 25 14.5t27 11.5h-16q-65 -2 -125.5 -4t-121.5 -5q2 -32 13.5 -55t35.5 -27h-1q5 -1 9 -1.5t7 -0.5q53 0 147 67zM104 405q8 1 16 1q9 0 17 1q-7 -18 -12 -36l-10 -36q-36 -2 -72 -5.5t-71 -6.5q-26 -3 -40 -13t1 -28q11 -14 27 -31.5t34 -31.5 q18 -15 39 -19.5t56 -0.5q7 1 12 1t10 1q9 -57 46 -102q20 -28 58 -49t76 -32q45 -10 100.5 -21.5t124.5 -15.5q33 -2 67 0t66 7.5t60 13.5t49 17q39 20 78.5 50t64.5 65q10 15 15.5 27.5t2.5 22.5t-17 17.5t-41 12.5q-135 25 -218 -32q-114 -81 -174 -68q-33 6 -47 36.5 t-14 74.5q65 4 129 6t133 4q31 1 41 7t-2 23q-8 14 -18 28t-28 30q-27 28 -86 28q-35 1 -71 0.5t-76 -1.5q6 18 15 36q4 8 8.5 16.5t9.5 17.5q57 1 115 0.5t118 -1.5q32 -2 42 4t2 23q-7 14 -16.5 28t-23.5 31q-22 28 -85 31l-66 3q21 24 42 44t41 34t38 21.5t33 4.5 q26 -6 31.5 -27.5t5.5 -47.5q0 -8 1 -16t3 -16q7 -21 19.5 -37.5t34 -29t52.5 -21t75 -14.5q23 -3 36.5 -2t21 4.5t11.5 9.5t8 13q13 30 17.5 74t-0.5 81q-2 16 -7.5 30t-16 27t-27.5 25.5t-43 24.5q-26 10 -58.5 20t-68.5 18t-74 13.5t-74 7.5q-48 2 -103.5 -6t-110.5 -36 q-71 -37 -128 -87.5t-100 -109.5q-55 -2 -105.5 -4.5t-97.5 -5.5q-26 -2 -41.5 -10.5t-4.5 -27.5q8 -15 23 -32.5t30 -31.5q18 -17 37.5 -21.5t54.5 -2.5zM123 383q-2 0 -4.5 -0.5t-4.5 -0.5q-7 -1 -13 -1h-12q-26 0 -43.5 6t-35.5 23q-16 15 -31.5 33.5t-24.5 34.5v-1 q-6 10 -6 21q0 20 18.5 29t45.5 11q45 3 94 5.5t102 4.5q44 57 101 107.5t128 87.5q51 25 101 35t96 10q6 0 12 -0.5t12 -0.5q37 -2 76 -8t76 -14t70 -18t59 -20q28 -14 47 -27.5t30.5 -27.5t17 -30t8.5 -34q3 -20 3 -43q0 -32 -5.5 -64t-16.5 -57q-5 -8 -9 -14t-10 -11 t-15.5 -7.5t-25.5 -2.5h-15t-17 2q-47 6 -80 15.5t-55.5 24t-36.5 33t-22 42.5v3q-2 7 -3 14t-1 17q0 21 -3.5 38t-21.5 22q-2 0 -2.5 0.5t-2.5 0.5q-23 0 -53 -21.5t-62 -55.5l36 -1q69 -3 96 -37q14 -18 24 -32.5t18 -29.5q2 -5 3.5 -9t1.5 -10q0 -30 -47 -30 q-4 0 -7.5 0.5t-8.5 0.5q-42 1 -84 1h-82h-58q-5 -8 -8.5 -14.5t-5.5 -11.5q-2 -4 -3 -7t-3 -7q22 1 43 1h41h41q64 0 96 -32q20 -17 30.5 -32t18.5 -29h-1q9 -14 9 -23q0 -13 -9 -19q30 6 62 6q38 0 81 -8q39 -7 55 -20.5t16 -32.5q0 -12 -6 -24.5t-16 -26.5 q-26 -37 -67 -68t-82 -52q-38 -17 -96.5 -28.5t-121.5 -11.5h-16q-7 0 -15 1q-61 3 -110 12.5t-91 18.5q-7 2 -14 3t-13 3q-39 12 -79.5 34.5t-62.5 52.5v-1q-17 20 -29 44t-18 52q-2 0 -4.5 -0.5t-4.5 -0.5q-8 -1 -15 -1.5t-14 -0.5q-24 0 -42 6t-34 19h1q-19 15 -35.5 33 t-28.5 33v-1q-10 13 -10 26q0 17 17 27t42 13l40 3q23 2 46.5 4t46.5 4l3 9v-1q2 8 4.5 17t4.5 17z" glyph-name="currency"/>
<glyph unicode="¥" horiz-adv-x="955" d="M126 267l65 4q-3 -11 -5.5 -20.5t-5.5 -20.5q-51 -3 -97.5 -7t-91.5 -8q-25 -3 -42 -13t-17 -27q0 -13 10 -26v1q12 -15 28.5 -33t35.5 -33q17 -13 34 -19t41 -6q8 0 15 0.5t15 1.5q13 1 30 3v-6q0 -23 12.5 -36t41.5 -27q40 -11 79 -20.5t71 -15.5q11 -2 19 -3t19 -1 q23 0 33.5 9t18.5 30q6 23 12 46.5t14 47.5q57 3 113.5 5t116.5 4q30 1 45.5 6.5t15.5 23.5q0 10 -10 23h1q-8 14 -18.5 29t-30.5 32q-30 32 -96 32h-66q3 2 8 7q8 8 16.5 16t16.5 16h68q19 0 38 -0.5t38 -0.5q5 0 8.5 -0.5t7.5 -0.5q47 0 47 30q0 6 -1.5 10t-3.5 9 q-6 14 -15.5 27.5t-21.5 29.5l1 -2q-1 2 -3 4.5t-3 4.5q-14 12 -27 20q66 68 119 126.5t77 96.5l-1 -1q10 14 14.5 23.5t4.5 20.5q0 14 -8 24.5t-25 22.5q-16 9 -37.5 19.5t-44 19.5t-45.5 15t-42 6q-18 0 -32.5 -6t-22.5 -21q-60 -68 -124 -136.5t-130 -136.5 q-32 66 -62 123.5t-56 102.5q-11 15 -20.5 25.5t-20.5 18t-25.5 12t-35.5 7.5q-17 2 -35 3t-35 1q-41 0 -83 -3q-32 -3 -45 -9.5t-13 -23.5q0 -12 9 -28l-1 1q26 -60 62 -135t75 -152q-14 -1 -26 -2t-24 -1l-48 -3q-27 -2 -45.5 -11t-18.5 -29q0 -11 6 -21v1 q9 -16 24.5 -34.5t31.5 -33.5q18 -17 35.5 -23t43.5 -6h12t13 1h-1zM117 290q-35 -2 -54.5 2.5t-37.5 21.5q-15 14 -30 31.5t-23 32.5q-11 19 4.5 27.5t41.5 10.5q29 2 58.5 3.5t62.5 3.5q-42 82 -80.5 162.5t-66.5 144.5q-11 21 -4.5 28.5t41.5 10.5q38 2 75 3t75 -4 q19 -3 32 -7t23 -10.5t18 -15.5t17 -21q29 -48 61 -111t67 -135q71 72 138.5 145.5t131.5 145.5q11 19 36 20t55 -8t60.5 -23t51.5 -26q25 -17 27 -31t-16 -39q-12 -19 -33 -45t-48.5 -56.5t-60.5 -65t-69 -70.5q26 -7 44 -25q13 -17 22.5 -31t16.5 -28q8 -17 -2 -23t-42 -4 q-38 0 -75.5 0.5t-73.5 0.5q-19 -18 -37 -35l-36 -34q26 1 52 0.5t51 -0.5q61 0 86 -28q18 -16 28 -30t18 -28q12 -17 2.5 -23t-41.5 -7q-62 -2 -121 -4t-119 -5q-8 -27 -16 -53.5t-15 -52.5q-8 -20 -21.5 -24.5t-50.5 1.5q-35 7 -73.5 15.5t-69.5 17.5q-32 14 -42 27.5 t-5 39.5q0 5 3 7q-14 -1 -27 -2t-24 -3q-35 -4 -55.5 0.5t-39.5 19.5q-18 14 -34 31.5t-27 31.5q-15 18 -1 28t40 13q47 5 96 9t102 7q5 17 10 35t10 37z" glyph-name="yen"/>
<glyph unicode="¦" horiz-adv-x="629" d="M351 307q-35 14 -69.5 22t-69.5 16q-38 8 -58.5 3t-31.5 -27q-16 -42 -26.5 -69.5t-17 -47.5t-10.5 -36t-7.5 -33.5t-7 -40.5t-10.5 -57q-5 -24 4 -38t42 -25q26 -8 53.5 -15t62.5 -14q38 -6 50.5 -0.5t20.5 24.5q16 35 27 58.5t19 42.5t14 35t13.5 35.5l17.5 45.5t25 63 q12 21 4.5 32.5t-45.5 25.5zM505 782q-35 14 -69.5 22t-69.5 16q-38 8 -58.5 3t-31.5 -27q-16 -42 -27 -69.5t-18 -47.5t-12 -36t-9.5 -33.5t-9 -40.5t-10.5 -57q-5 -24 4 -38t42 -25q26 -8 54 -15t63 -14q37 -6 49.5 -0.5t20.5 24.5q16 35 27.5 58.5t20 42.5t15.5 35 t15.5 35.5t19 45.5t25.5 63q12 21 4.5 32.5t-45.5 25.5zM364 313q32 -12 45.5 -22.5t13.5 -27.5q0 -11 -10 -29l1 1q-17 -41 -27 -67.5t-18 -46.5q-7 -19 -13.5 -35.5t-14 -35t-18 -41t-25.5 -54.5q-8 -19 -18 -27.5t-35 -8.5q-16 0 -35 3q-33 7 -61 14t-57 16 q-32 11 -45 25t-13 35q0 5 0.5 9.5t1.5 9.5q4 18 6.5 33.5t4.5 27.5q5 28 9 47.5t10.5 41.5t18 53t31.5 84q19 39 64 39q11 0 21 -1.5t22 -3.5q8 -2 15 -3.5t15 -3.5q27 -6 55 -13t57 -19h-1zM518 788q32 -12 45.5 -22.5t13.5 -27.5q0 -11 -10 -29l1 1q-15 -38 -25.5 -63.5 t-19 -45t-15.5 -35.5t-15.5 -35t-20 -42.5t-27.5 -58.5q-8 -19 -19 -27.5t-34 -8.5q-15 0 -34 3q-32 6 -61 13.5t-58 16.5q-32 11 -45 25t-13 35q0 5 0.5 9.5t1.5 9.5q9 45 14 71.5t11 48t15 45.5t25 65q5 12 10.5 26t11.5 31q19 39 64 39q11 0 21 -1.5t22 -3.5 q8 -2 15 -3.5t15 -3.5q27 -6 55 -13t57 -19h-1z" glyph-name="brokenbar"/>
<glyph unicode="§" horiz-adv-x="1327" d="M-67 186q-38 -15 -38 -42q0 -25 66 -67q110 -72 218.5 -103.5t223.5 -31.5h17q73 1 129 11t97.5 25.5t70 34.5t47.5 38q15 -2 30 -2h32h23q91 1 156 15.5t108.5 36t69.5 46.5t40 47q15 22 15 44q0 25 -19.5 47t-51.5 41.5t-73.5 38t-86.5 37.5q-48 20 -93.5 40.5 t-82.5 42.5q-20 12 -28.5 24.5t-8.5 26.5q0 22 16.5 45.5t40.5 44.5t51.5 37t50.5 24q21 8 27 8q2 0 2 -4q0 -11 -5.5 -28t-11.5 -34q-7 -18 -12 -34.5t-7 -28.5q0 -2 -0.5 -5t-0.5 -5q0 -79 189 -121l-1 1q13 -4 22.5 -5t17.5 -1q20 0 33.5 7.5t24.5 22.5q13 20 26 47 t23.5 55.5t18 56.5t10.5 51q-2 14 -4 29.5t-10.5 31.5t-24.5 32.5t-46 32.5q-42 23 -102 41.5t-118 30.5q-23 5 -45.5 6.5t-45.5 1.5q-49 0 -87.5 -8t-61.5 -18h1q-47 -17 -91 -41t-84 -52q-2 0 -3 1q-3 1 -7.5 1.5t-6.5 1.5q-23 5 -45 6.5t-44 1.5q-49 0 -87.5 -8 t-61.5 -18h1q-47 -17 -94 -43.5t-87.5 -56.5t-71.5 -62.5t-45 -61.5q-23 -40 -23 -78q0 -51 35.5 -93t94.5 -73q41 -22 87.5 -42.5t91.5 -39.5q29 -13 56 -24.5t48.5 -21t35.5 -17t18 -11.5q-23 -10 -58 -10q-48 0 -116 17t-150 51q-25 11 -57.5 16.5t-67.5 5.5 q-25 0 -50 -3t-49 -10h-1zM-70 180q26 7 55 10t57.5 1.5t54.5 -6.5t47 -14q58 -24 110.5 -40t96 -23.5t76.5 -6t53 12.5q16 7 7 18t-35 25t-65 30.5t-81.5 34.5t-85 36.5t-76.5 37.5q-37 19 -65 43.5t-42.5 53t-14 60.5t20.5 66q13 28 42.5 59.5t69.5 61t86 55t92 42.5 q16 7 40 13.5t54 9.5t65 2t72 -8q5 -2 11 -2.5t11 -2.5q40 29 84.5 53.5t91.5 41.5q16 7 40 13.5t54 9.5t65 2t72 -8q58 -12 117 -30t99 -40q27 -15 42 -29.5t22.5 -29t9.5 -28t3 -25.5q-3 -22 -10 -49t-17 -54.5t-22.5 -53.5t-25.5 -45q-14 -18 -31.5 -22.5t-50.5 3.5 q-188 42 -176 114q2 14 8.5 33l13 38t11 35.5t2.5 27t-13 12.5t-35 -9q-22 -7 -48 -22t-50 -34.5t-43 -42t-25.5 -45.5t2 -45t39.5 -40q40 -24 90 -46t99.5 -42.5t94.5 -41t74.5 -42.5t39 -46t-10.5 -52q-13 -21 -38 -44.5t-67 -44t-105 -34.5t-151 -15q-47 -2 -90 3 q-17 -19 -44.5 -38t-68 -35t-96.5 -26t-130 -11q-118 -2 -228 28t-223 105q-59 38 -59 54q0 18 28 28zM386 373q31 -19 68.5 -36.5t77 -34t78 -32.5t71.5 -32q79 -24 139 -28.5t89 11.5q19 9 1.5 23t-56.5 32.5t-91.5 40t-103.5 44.5q-60 20 -109.5 51.5t-71.5 66.5 q-8 10 -12 27t-5.5 36t-1 37t1.5 29q-14 5 -39 -1.5t-58 -21.5q-32 -11 -50 -35.5t-17.5 -54.5t22 -62.5t67.5 -59.5zM402 378q-44 26 -63 55t-19 56q0 25 16 45t45 30q46 21 72 23v-20q0 -27 3.5 -57t16.5 -47q23 -38 75 -70.5t114 -53.5h-1q23 -11 47.5 -21t47.5 -20 q28 -12 54 -23t46.5 -20.5t34.5 -17t18 -11.5q-17 -10 -57 -10q-66 0 -156 27q-30 16 -60 28.5t-60 24.5q-47 20 -92 40t-82 42z" glyph-name="section"/>
<glyph unicode="¨" horiz-adv-x="924" d="M130 908v-7q0 -19 10.5 -34.5t28 -26.5t40.5 -17t49 -6h6q25 0 46 5.5t36.5 14t26 18.5t15.5 19q10 13 10 31q0 23 -23.5 44t-74.5 32q-19 4 -44 4q-54 0 -87.5 -23.5t-38.5 -53.5zM515 907v-9q0 -19 10 -34t27.5 -25.5t41 -16.5t49.5 -6h6q27 0 49 7t38 17t26 21t14 19 q0 2 3 7q1 2 1.5 6t0.5 12q0 23 -23.5 43.5t-72.5 31.5q-20 4 -44 4q-56 0 -89 -23.5t-37 -53.5zM137 913q3 15 15 29t31.5 23t46.5 12t59 -3q45 -9 65.5 -26t20.5 -35q0 -13 -7 -21q-2 -7 -10.5 -16t-23 -17t-34 -13.5t-44.5 -5.5q-25 -1 -47 4t-38.5 15t-26 23.5 t-7.5 30.5zM522 913q2 15 13.5 28.5t31.5 22.5t47 12t60 -3q43 -9 63.5 -26t20.5 -34q0 -7 -1.5 -12t-3.5 -10q-3 -7 -12 -16t-23 -17t-33 -13.5t-44 -5.5q-26 -1 -48.5 4t-39 15t-25 24t-6.5 31z" glyph-name="dieresis"/>
<glyph unicode="©" horiz-adv-x="1833" d="M1105 285q-50 10 -89.5 3.5t-68.5 -26.5q-84 -61 -128 -50q-21 4 -32 23.5t-12.5 47.5t5.5 61.5t22 66.5q14 30 38 64.5t51 63t53.5 46t44.5 14.5q20 -5 24 -20t4 -35q0 -6 1 -11.5t1 -11.5q11 -31 40 -49t92 -26q18 -2 28 -1.5t15.5 3t8.5 7t6 9.5q10 23 13 55t0 59 q-4 23 -17.5 41.5t-53.5 36.5q-18 7 -41.5 14.5t-50 13t-54 9.5t-54.5 6q-35 2 -75.5 -4.5t-80.5 -26.5q-50 -26 -91.5 -62t-72 -78t-50 -87.5t-25.5 -88.5t2 -82t32 -69q15 -20 43 -35.5t56 -23.5q32 -8 72.5 -16.5t90.5 -10.5q50 -3 98.5 5t79.5 22q29 15 57.5 37t46.5 48 q17 22 14 36.5t-43 21.5zM1115 292q30 -5 43.5 -15.5t13.5 -26.5q0 -17 -18 -40v1q-20 -29 -50.5 -52t-59.5 -39q-28 -13 -70.5 -21t-88.5 -8q-6 0 -13 0.5t-13 0.5q-51 2 -87.5 9t-63.5 14q-2 1 -8 2.5t-8 2.5h1q-30 9 -60 25.5t-47 38.5q-20 26 -30 57t-10 66 q0 48 17.5 100t50 101.5t79 92.5t103.5 72q38 19 75.5 26t71.5 7h16q56 -3 112.5 -16t93.5 -28q22 -10 36.5 -20t23.5 -21t13.5 -23t6.5 -26q1 -7 1 -15v-15q0 -24 -4 -49.5t-13 -46.5q-1 -1 -1.5 -2t-1.5 -2l1 3q-7 -10 -15 -17t-30 -7q-6 0 -12 0.5t-13 1.5q-68 9 -100 30 t-45 58q0 2 -0.5 4.5t-0.5 4.5q-1 3 -1 7v9q0 14 -2.5 25.5t-13.5 14.5h-3q-17 0 -40.5 -17.5t-47.5 -44t-45 -58t-34 -59.5q-13 -29 -20 -58t-7 -54q0 -26 8 -44.5t25 -21.5q8 -2 11 -2q38 0 105 49q46 32 110 32q30 0 60 -6h-1zM1605 355q22 31 22 65q0 37 -22.5 75 t-61.5 74.5t-92.5 69t-114.5 58.5t-127.5 44t-132.5 24q-29 3 -54 3q-86 0 -177 -23t-177.5 -61.5t-163.5 -89.5t-134.5 -107t-91 -113.5t-33.5 -109.5q0 -30 14 -57t43.5 -49.5t75.5 -40.5t111 -29q99 -17 179 -25t149 -8q61 0 116.5 5.5t108 15.5t104.5 24.5t108 31.5 q58 18 108 43.5t93.5 55.5t81 62t69.5 64zM1609 354q-32 -32 -70 -64.5t-82 -62.5t-95.5 -56t-111.5 -45q-88 -28 -169 -47t-170.5 -26.5t-193.5 -1.5t-239 30q-98 16 -155.5 47.5t-81.5 73t-17.5 90t37 100t81.5 103t116 98t140.5 85.5t155.5 66t160.5 39t155.5 5 q79 -8 158 -31.5t149 -57.5t126.5 -77t90.5 -88.5t40 -91.5t-25 -88zM1704 681q-35 30 -86 57.5t-111.5 51t-127 42.5t-133 32.5t-129.5 20.5t-117 7q-107 0 -214.5 -20t-208 -55t-190.5 -83.5t-163 -105t-124.5 -119t-75 -127t-15 -128t55.5 -121.5q31 -41 81 -72t130 -53 q87 -24 189 -36.5t211.5 -15t222.5 5.5t222 26t210.5 46t187.5 64.5t152.5 82.5t106.5 101q35 49 49.5 105t6 110t-40 102.5t-89.5 81.5zM1008 899q54 0 117.5 -7.5t131 -21t134.5 -33t128.5 -43t113.5 -51.5t88 -58q71 -42 105 -104t34 -131q0 -48 -16 -95.5t-46 -89.5 q-39 -54 -103.5 -99t-147 -82t-180 -65t-203 -47.5t-215 -29t-217.5 -9.5q-124 0 -238.5 13t-213.5 40q-83 23 -135 55.5t-84 74.5q-32 39 -46.5 80.5t-14.5 84.5q0 73 41 147.5t112.5 143t168 128.5t208.5 104t234 69.5t244 25.5z" glyph-name="copyright"/>
<glyph unicode="ª" horiz-adv-x="603" d="M293 625q-38 -23 -74.5 -48.5t-70.5 -50.5q16 1 31.5 1.5t32.5 1.5q11 1 21 1q11 0 22 1q4 8 7 17t7 17q6 15 11.5 29.5t12.5 30.5zM89 516q50 36 108.5 78t120.5 75q-17 -34 -31 -70.5t-29 -73.5q-45 -2 -88 -4t-81 -5zM432 529q20 48 38 89.5t32 73.5q7 13 2.5 20 t-26.5 16q-13 4 -34 11t-43.5 13.5t-42.5 12t-32 7.5t-21 3t-16.5 0t-15 -3.5t-17.5 -7.5q-37 -20 -82.5 -49.5t-91 -62t-85.5 -65t-67 -59.5q-13 -13 -12.5 -23.5t10.5 -21.5q34 -28 75 -50q18 -11 34 -11.5t36 1.5q37 4 74.5 6.5t77.5 5.5q-10 -28 -16 -49t-8 -36 q-5 -17 0.5 -25t25.5 -17q20 -7 41.5 -12t38.5 -8q25 -4 33 -0.5t13 14.5q8 30 20.5 66t27.5 77q22 1 42 1.5t40 1.5q21 1 27 5.5t1 15.5q-7 11 -11.5 20t-12.5 20q-17 20 -55 20zM523 676q-13 -29 -28.5 -64.5t-32.5 -77.5q28 -5 42 -21q5 -7 10.5 -15.5t8.5 -13.5v1 l4.5 -9t5.5 -10q4 -7 4 -14q0 -26 -46 -27q-5 0 -9.5 -0.5t-9.5 -0.5q-13 -1 -26 -1t-27 -1q-14 -37 -25.5 -71.5t-19.5 -65.5q-5 -11 -13 -16.5t-25 -5.5q-9 0 -13 0.5t-11 1.5q-17 3 -40 8.5t-46 13.5q-18 8 -26.5 17t-8.5 24q0 10 3 18q3 25 17 64q-5 0 -10 -0.5 t-10 -0.5q-28 -2 -55 -4t-54 -5q-8 -1 -14 -1.5t-14 -0.5q-27 0 -51 14h1q-20 11 -41.5 25.5t-41.5 30.5q-10 10 -10 29q0 18 16 34q27 27 67.5 59.5t86 65.5t92 62.5t84.5 50.5q14 7 25 10.5t22 3.5q8 0 15.5 -1t16.5 -3q12 -2 32.5 -8t43.5 -12.5t44 -13.5t35 -11 q20 -8 29 -16.5t9 -20.5q0 -11 -6 -21z" glyph-name="ordfeminine"/>
<glyph unicode="«" horiz-adv-x="1373" d="M-21 380q-8 -22 2.5 -30.5t36.5 -16.5q59 -18 123.5 -35.5t128 -33.5t121.5 -29.5t103 -22.5q25 -5 43 -2t23 17q5 17 3.5 39t-6.5 37l-10 15t-10.5 10t-16.5 7t-26 6q-52 11 -103 23.5t-104 26.5q94 17 182.5 36.5t149.5 36.5q20 6 29 15t-9 23q-25 17 -50.5 33.5 t-50.5 27.5q-14 6 -24 9t-19 4t-19 -1t-22 -6q-42 -12 -84.5 -22.5t-87.5 -20t-94.5 -19.5t-105.5 -20q-16 -3 -26.5 -6.5t-18.5 -8t-13.5 -10t-11.5 -14.5q-19 -28 -33 -68zM637 359q-8 -22 2.5 -30.5t36.5 -16.5q58 -18 123 -35.5t128 -33.5t121 -29.5t103 -22.5 q25 -5 43 -2t23 17q5 17 4 39t-6 37q-6 9 -10.5 15t-11 10t-16.5 7t-26 6q-51 11 -102 23.5t-104 26.5q94 17 182 36.5t150 36.5q20 6 29 15t-9 23q-25 17 -51 33.5t-51 27.5q-13 6 -23 9t-19 4t-19 -1t-22 -6q-42 -12 -84.5 -22.5t-87.5 -20t-94.5 -19.5t-105.5 -20 q-16 -3 -26.5 -6.5t-18.5 -8t-13.5 -10t-11.5 -14.5q-21 -28 -33 -68zM-27 377q13 38 35 71h-1q7 10 13.5 17.5t15.5 12.5t21 8.5t30 7.5q58 10 108.5 20t95.5 19.5t86 20t81 21.5h-1q20 8 41 8q25 0 54 -14q25 -11 51.5 -28t52.5 -35q17 -14 17 -28t-12.5 -22.5 t-29.5 -13.5q-54 -15 -123.5 -31t-144.5 -31q35 -8 70.5 -16t71.5 -16q19 -3 30.5 -6.5t18.5 -8.5t12 -12t12 -18q4 -11 6.5 -25.5t2.5 -27.5q0 -10 -1 -18t-3 -15q-13 -31 -52 -31q-16 0 -32 3q-45 9 -102.5 22t-121 29.5t-129 34.5t-125.5 36q-25 8 -39 17t-14 28 q0 8 5 21zM631 355q11 42 35 73l-1 -1q7 10 13.5 17.5t15.5 12.5t21 8.5t30 7.5q58 10 108.5 20t95.5 19.5t86 20t81 21.5h-1q20 8 41 8q24 0 53 -14q25 -11 52 -28t53 -35q17 -14 17 -28t-12.5 -22.5t-29.5 -13.5q-54 -16 -123.5 -32t-144.5 -30q35 -9 70.5 -16.5 t70.5 -15.5q19 -3 30.5 -6.5t19 -8.5t12.5 -12t12 -18q8 -22 8 -51q0 -9 -1 -18t-4 -19q-5 -16 -18 -22.5t-33 -6.5q-16 0 -32 3q-45 9 -102.5 22.5t-120.5 29.5t-128.5 34t-125.5 36q-25 8 -39 17t-14 28q0 8 5 21v-1z" glyph-name="guillemotleft"/>
<glyph unicode="¬" horiz-adv-x="2088" d="M1754 113q2 1 3 2t3 2q-2 -2 -6 -4zM962 169q-4 -4 -10 -8q31 2 62.5 3t65.5 2q-4 24 -6 47.5t-2 46.5q-26 -20 -53.5 -42.5t-56.5 -48.5zM1574 138q85 13 136.5 9.5t59.5 -13.5q3 -7 -10 -17l1 1q-8 3 -23.5 5t-39.5 2q-21 0 -48 -2t-58 -7l-6 -12q-5 -8 -8.5 -15.5 t-7.5 -14.5q70 9 117.5 19.5t66.5 19.5q-25 -14 -82 -27t-138 -22q12 19 21 37t19 37zM1683 271q-10 -12 -17 -23.5t-14 -23.5q81 14 133.5 29t71.5 26q-26 -16 -87 -34.5t-152 -31.5q11 23 22 42.5t26 37.5q83 16 140 17t67 -10q5 -9 -16 -21q3 1 7 5q-12 3 -39 3 q-26 0 -62 -4t-80 -12zM901 151q50 42 94 80t84 68q0 -33 2 -68t9 -71q-51 -2 -97 -4t-92 -5zM632 234q13 6 28.5 16t30.5 21.5t28.5 23.5t22.5 22q2 6 3.5 10t1.5 6q0 7 -16 16q-13 5 -29 10.5t-35 10.5q-25 7 -39 5.5t-24 -10.5q-14 -13 -33 -30t-39 -34t-38.5 -33 t-30.5 -27q-16 -16 28 -20q19 -1 38.5 -2t34.5 1q20 0 35.5 3.5t32.5 10.5zM646 212q-18 -8 -35 -11.5t-37 -3.5q-5 -1 -12 -1h-13h-18q-9 0 -18 1q-4 0 -8 0.5t-7 0.5q-47 5 -47 27q0 10 6 16q8 6 19 16t22 19q26 23 55.5 48.5t48.5 43.5q8 7 16.5 11t22.5 4q16 0 38 -7v1 q17 -5 33.5 -10.5t29.5 -10.5q28 -15 28 -31q0 -1 -1 -4l-2 -6q-1 -2 -1.5 -5.5t-1.5 -6.5q-10 -11 -24.5 -24t-30.5 -25.5t-32.5 -23t-29.5 -17.5zM509 14q16 1 24.5 2.5t11 3.5t1.5 5.5t-4 8.5l-16 18t-19 17q-18 9 -32.5 12t-42.5 2q-50 -2 -93.5 -4t-93.5 -5 q18 31 37.5 65t39.5 67t40 63.5t39 55.5q7 10 0.5 15.5t-31.5 12.5q-26 7 -59.5 12.5t-65.5 8.5q-28 4 -42 1.5t-24 -13.5q-22 -30 -46 -71t-45 -84t-38 -82.5t-25 -67.5q-3 -12 5.5 -20.5t25.5 -16.5q25 -9 39.5 -14.5t32.5 -11.5q7 -2 15.5 -4.5t20 -3.5t28 -0.5t40.5 3.5 q65 6 136.5 12.5t140.5 12.5zM747 711q28 2 32 5t1 12q-11 11 -23.5 21t-29.5 19q-12 5 -25.5 7.5t-42.5 2.5q-55 -1 -124.5 -3.5t-143 -5.5t-144 -7t-127.5 -8q-17 -2 -22.5 -5t2.5 -12q11 -8 25.5 -21t35.5 -22q19 -8 34 -10t41 1q17 2 43 3.5t54 3.5q-16 -29 -33 -63.5 t-32 -69.5t-26.5 -67.5t-16.5 -55.5q-5 -10 0 -16.5t17.5 -11.5t30 -8.5t38.5 -6.5q47 -6 75.5 -8.5t32.5 11.5q15 36 34 75t40 79t42.5 79.5t41.5 74.5q45 2 89 3.5t81 3.5zM1407 457q-5 -13 3 -22t25 -17q20 -9 38 -14.5t35 -11.5q15 -5 37 -7.5t68 2.5q63 5 134 11.5 t139 12.5q29 3 35 6.5t-4 13.5q-7 9 -14.5 17.5t-18.5 18.5q-11 8 -28 11.5t-49 1.5q-50 -2 -95.5 -3.5t-93.5 -6.5q10 14 16.5 27.5t16.5 27.5q60 6 123.5 10.5t124.5 9.5q29 3 36.5 6t-3.5 14q-6 9 -13.5 17.5t-19.5 17.5q-11 8 -27.5 11t-44.5 2q-35 0 -64 -1t-57 -3 q15 23 27.5 43.5t27.5 38.5q68 5 129 7.5t119 5.5q27 2 34 5t2 14q-4 9 -11 16.5t-18 17.5q-18 17 -70 17q-56 -1 -113.5 -4t-112 -6.5t-104.5 -8.5t-91 -9zM1444 726q5 10 0 15.5t-31 12.5q-26 8 -56 13.5t-58 8.5q-30 3 -44.5 1.5t-21.5 -14.5q-22 -33 -42.5 -76 t-43.5 -88q-38 -2 -78 -3t-85 -3q23 38 40 70t35 55q3 11 -2 16.5t-31 12.5q-28 8 -60.5 13.5t-60.5 9.5q-32 4 -46.5 2t-19.5 -15q-15 -33 -31 -75.5t-33.5 -86t-36 -85t-38.5 -74.5q-6 -14 3.5 -21t32.5 -12q21 -6 49.5 -9.5t53.5 -6.5q28 -3 37.5 -0.5t13.5 10.5 q13 24 24 53.5t31 62.5q42 3 84.5 5.5t84.5 5.5q-11 -27 -18 -49.5t-11 -40.5q-11 -18 15 -26.5t69 -14.5q21 -3 40 -5t33 -2.5t22 2t8 9.5q16 40 38.5 85t46 89t46.5 84t41 71zM1099 86q5 -20 9.5 -36.5t7.5 -31.5q7 -14 17.5 -19.5t35.5 -8.5q26 -5 50.5 -5.5t52.5 -0.5 q27 0 34.5 3.5t7.5 12.5q-6 42 -12 88.5t-10 90.5t-4.5 83.5t2.5 68.5q0 12 -9.5 18.5t-41.5 11.5q-39 4 -87 9t-122 7q-44 1 -67 -5.5t-38 -16.5q-41 -30 -89.5 -70.5t-96 -83.5t-89.5 -84.5t-71 -74.5q-14 -21 -3 -27t34 -14q18 -4 34 -7t30 -6q26 -4 36.5 -2.5t20.5 10.5 q17 16 33.5 32.5t41.5 35.5q60 8 138 12.5t155 9.5zM1884 181q62 17 101 32q22 8 41 17.5t31 20t15 21.5t-5 23q-12 22 -37 37.5t-60 29.5q-25 10 -64.5 15t-87.5 6t-101 -1t-105 -7t-100 -12t-86 -15q-4 -31 -14.5 -67.5t-23 -73t-24.5 -71.5t-19 -64q-8 -18 2 -25.5 t33 -19.5q29 -11 52 -18.5t58 -13.5q16 -5 29 -7t26.5 -2.5t29.5 0.5t38 4q36 4 78.5 11t84.5 15.5t80 18.5t65 22q37 14 54.5 29.5t7.5 36.5q-5 17 -33 33t-66 25zM1531 753q41 4 91 9t104.5 8.5t112.5 6.5t115 4q58 0 80 -21q13 -11 20.5 -20t12.5 -20q1 -4 2 -7t1 -6 q0 -17 -11.5 -20.5t-40.5 -5.5q-18 -1 -36.5 -2t-37.5 -2q-40 -2 -81.5 -4t-86.5 -5q-10 -13 -16.5 -24t-14.5 -22q-1 -2 -3 -4q21 1 44 1.5t49 0.5h12q24 0 40.5 -3.5t28.5 -12.5q13 -10 21 -19t15 -20l-1 3q5 -5 7.5 -11t2.5 -10q0 -14 -12.5 -18t-40.5 -7 q-10 -1 -20 -1.5t-20 -1.5l-102 -8t-99 -9q-2 -4 -5 -9l-6 -10q-2 -2 -2 -4q40 3 79.5 4.5t81.5 3.5h19q25 0 40 -3.5t26 -11.5q14 -11 21.5 -20.5t15.5 -19.5l-1 2q5 -5 7.5 -11t2.5 -10q0 -12 -12 -17t-39 -8l-9 -1q29 -3 54 -7.5t43 -11.5q37 -14 64 -31.5t41 -42.5l-1 1 q9 -14 9 -25q0 -25 -28 -44.5t-70 -34.5q-11 -5 -24.5 -9.5t-30.5 -9.5q24 -11 40.5 -24.5t21.5 -28.5v2q4 -8 4 -20q0 -22 -20 -37t-55 -29h1q-27 -12 -65.5 -22t-81 -19t-85.5 -16t-80 -11q-20 -2 -34 -3.5t-28 -1.5q-16 0 -31.5 2.5t-35.5 8.5l1 -1q-35 6 -59.5 13.5 t-53.5 19.5h1q2 -1 -2.5 1.5t-6.5 3.5q-19 9 -29.5 17t-10.5 24q0 5 1 9t3 9q5 22 14.5 49.5t20.5 59.5q15 42 28 84.5t18 79.5q2 11 12 13q18 4 38 7.5t43 6.5q-1 1 -2 1t-2 1q-6 2 -10 3.5t-10 3.5q-13 5 -26.5 9t-24.5 9q-17 8 -28 19t-11 25q0 6 3 14l118 290zM1465 710 q-18 -31 -40.5 -70.5t-46 -83t-45.5 -87.5t-38 -84q-3 -17 -22 -22q24 -6 32 -16t8 -26q-3 -23 -3 -51q0 -29 2 -63t6 -70t9 -72.5t10 -70.5q0 -19 -10 -26t-47 -7q-29 0 -54.5 0.5t-51.5 5.5h1q-29 4 -42.5 12t-23.5 28q-2 8 -4.5 16.5t-4.5 17.5h1q-3 9 -6 21q-4 -1 -8 -1 h-7q-70 -4 -138.5 -8.5t-122.5 -11.5q-15 -11 -28 -23.5t-26 -25.5l-15 -15q-8 -8 -16.5 -11.5t-22.5 -3.5q-13 0 -32 3q-8 2 -16.5 3.5t-17.5 3.5q-7 2 -15 3t-16 3l-6 2t-5 2h1q-14 5 -24 9.5t-14 13.5q-6 -10 -47 -14h-1q-69 -6 -140.5 -12.5t-136.5 -12.5h1 q-16 -2 -28.5 -3t-23.5 -1q-20 0 -33 3t-25 7l-22.5 7.5t-22.5 8.5q-6 2 -15 5.5t-17 6.5q-17 8 -27.5 18t-10.5 25q0 2 0.5 3.5t0.5 3.5q9 28 26 69t38.5 85t45.5 86t47 72q10 11 21 16t28 5h14q8 0 17 -2h2q-19 6 -30 15t-11 23q0 7 2 12q4 21 14 49.5t23 60t28.5 64 t30.5 61.5q-7 0 -13.5 -0.5t-12.5 -0.5q-28 -2 -43 -3q-8 -1 -15 -1.5t-14 -0.5q-16 0 -27.5 2.5t-25.5 9.5q-16 7 -28 15.5t-23 18.5q-4 3 -9 7.5t-8 6.5q-7 7 -7 17q0 22 39 24q57 4 127.5 8t144 7t143.5 5.5t125 3.5q32 0 45.5 -2t24.5 -7q21 -11 36.5 -23t26.5 -23 q2 -6 3.5 -10t1.5 -7q0 -12 -10 -17.5t-39 -7.5q-11 -1 -24 -1q-12 0 -25 -1q-27 -1 -55.5 -2t-58.5 -3q-19 -34 -39.5 -71t-40.5 -75.5t-38 -76.5t-33 -74q-7 -23 -43 -23h-16t-16 1l15 -3q24 -7 35 -14t11 -19q0 -6 -2.5 -10t-4.5 -8q-18 -23 -36 -50t-36 -56.5t-36 -60 t-34 -59.5q42 2 80 4t81 4h12q23 0 38 -3.5t34 -13.5q9 -7 15.5 -14t13.5 -14q1 -2 4.5 -6.5t5.5 -7.5q2 -2 2 -3q2 3 3.5 6t4.5 7q30 33 72.5 75.5t90.5 86.5t97 85t91 71q16 11 38.5 18t61.5 7h14q45 -2 81 -3q-20 5 -32 13.5t-12 22.5q0 6 3 12q6 27 21 70 q-16 -2 -31 -2.5t-30 -1.5q-20 -2 -38.5 -2.5t-37.5 -1.5q-10 -19 -17 -35.5t-14 -31.5q-4 -10 -9 -20l-11 -22q-5 -10 -12.5 -15t-26.5 -5q-9 0 -15.5 0.5t-14.5 1.5q-4 1 -6 1t-7 1q-23 2 -46 5.5t-43 9.5v-1q-24 6 -36.5 14t-12.5 25q0 3 0.5 7t4.5 10h-1q26 44 49 100 t45 110q11 30 22 58t22 51q6 13 16.5 19t29.5 6q15 0 36 -3q26 -4 58.5 -10t64.5 -14v1q27 -8 36 -15t9 -21q0 -2 -0.5 -5.5t-2.5 -10.5q-12 -16 -21.5 -32t-20.5 -35q-5 -8 -9.5 -16.5t-9.5 -17.5q34 1 65 2l62 2q6 13 12 25l12 24q15 29 28.5 56t30.5 53l-1 -1 q8 13 18.5 18t28.5 5q7 0 15 -0.5t18 -1.5q27 -3 58 -9t59 -14q26 -7 35.5 -14.5t9.5 -18.5q0 -5 -1.5 -8t-3.5 -8v-1z" glyph-name="logicalnot"/>
<glyph unicode="®" horiz-adv-x="1833" d="M1058 581q-48 0 -123 -19q-6 -13 -11.5 -26.5t-12.5 -28.5q-5 -13 -11 -25.5t-13 -26.5q52 13 93 28.5t69.5 31t44.5 30t18 24.5q-5 5 -19.5 8.5t-34.5 3.5zM918 584q40 11 72 15.5t60 4.5q26 0 43.5 -4.5t22.5 -12.5q7 -11 -7.5 -29.5t-48.5 -39.5t-86.5 -41.5 t-121.5 -35.5q20 42 35.5 77.5t30.5 65.5zM808 327q27 -22 59.5 -44t66.5 -42t65.5 -37t55.5 -29q38 -16 65.5 -18t50.5 3q20 2 33 3.5t31 12.5q14 8 16 15t-18 19q-28 15 -58.5 33.5t-61 39t-59.5 40.5t-54 38q111 32 189 69t110 81q18 26 2 66q-18 36 -46.5 61.5 t-63.5 46.5q-41 24 -95.5 29.5t-115 -1t-123.5 -21.5t-121 -31q-17 -5 -33 -34.5t-31.5 -71.5t-29 -92.5t-25 -97.5t-20 -86t-13.5 -59t2.5 -31t25.5 -18q20 -8 42 -11t49 -8q25 -4 34 0t14 15q15 40 28.5 79t28.5 81zM1056 153q-23 11 -52 26.5t-60 34t-62.5 39t-58.5 41.5 q-4 -10 -7 -19.5t-6 -18.5q-9 -26 -18 -51.5t-19 -51.5q-6 -13 -15 -19.5t-27 -6.5q-8 0 -12.5 0.5t-10.5 1.5q-8 2 -16 2.5t-16 2.5q-16 3 -30 5.5t-31 9.5q-19 8 -29.5 19.5t-10.5 29.5q0 5 0.5 9t1.5 8q2 9 5 22t7 30q7 31 16.5 71.5t21 83.5t24.5 84.5t27 75.5t29.5 57 t31.5 28q77 21 159 39t157 18q43 0 81 -8t70 -26q37 -23 67 -50t50 -66q9 -21 9 -40q0 -23 -13 -40q-31 -43 -103.5 -78.5t-174.5 -67.5q24 -17 50 -35t53 -35.5t53 -33.5t49 -28q14 -10 21 -17t7 -15q0 -11 -6.5 -17t-16.5 -12q-17 -10 -29.5 -12.5t-28.5 -4.5 q-2 0 -5.5 -0.5t-5.5 -0.5q-17 -3 -37 -3q-19 0 -41 4t-48 15zM1605 355q22 31 22 65q0 37 -22.5 75t-61.5 74.5t-92.5 69t-114.5 58.5t-127.5 44t-132.5 24q-29 3 -54 3q-86 0 -177 -23t-177.5 -61.5t-163.5 -89.5t-134.5 -107t-91 -113.5t-33.5 -109.5q0 -30 14 -57 t43.5 -49.5t75.5 -40.5t111 -29q99 -17 179 -25t149 -8q61 0 116.5 5.5t108 15.5t104.5 24.5t108 31.5q58 18 108 43.5t93.5 55.5t81 62t69.5 64zM1609 354q-32 -32 -70 -64.5t-82 -62.5t-95.5 -56t-111.5 -45q-88 -28 -169 -47t-170.5 -26.5t-193.5 -1.5t-239 30 q-98 16 -155.5 47.5t-81.5 73t-17.5 90t37 100t81.5 103t116 98t140.5 85.5t155.5 66t160.5 39t155.5 5q79 -8 158 -31.5t149 -57.5t126.5 -77t90.5 -88.5t40 -91.5t-25 -88zM1704 681q-35 30 -86 57.5t-111.5 51t-127 42.5t-133 32.5t-129.5 20.5t-117 7q-107 0 -214.5 -20 t-208 -55t-190.5 -83.5t-163 -105t-124.5 -119t-75 -127t-15 -128t55.5 -121.5q31 -41 81 -72t130 -53q87 -24 189 -36.5t211.5 -15t222.5 5.5t222 26t210.5 46t187.5 64.5t152.5 82.5t106.5 101q35 49 49.5 105t6 110t-40 102.5t-89.5 81.5zM1008 899q54 0 117.5 -7.5 t131 -21t134.5 -33t128.5 -43t113.5 -51.5t88 -58q71 -42 105 -104t34 -131q0 -48 -16 -95.5t-46 -89.5q-39 -54 -103.5 -99t-147 -82t-180 -65t-203 -47.5t-215 -29t-217.5 -9.5q-124 0 -238.5 13t-213.5 40q-83 23 -135 55.5t-84 74.5q-32 39 -46.5 80.5t-14.5 84.5 q0 73 41 147.5t112.5 143t168 128.5t208.5 104t234 69.5t244 25.5z" glyph-name="registered"/>
<glyph unicode="¯" horiz-adv-x="869" d="M109 982q-65 -8 -22 -54q9 -10 13.5 -12.5t9 -4t11.5 -4t21 -12.5q28 -21 52.5 -27t52.5 -1q53 9 111 15t118.5 11t121.5 8t120 6q35 1 43.5 8t-6.5 29q-7 9 -8.5 11t-3 3.5t-5 4.5t-13.5 14q-43 37 -102 37q-66 0 -138 -3t-141 -7.5t-130 -10t-105 -11.5zM115 989 q44 6 105.5 11.5t130.5 10t141.5 7.5t138.5 3q65 0 112 -41l18 -17l6 -8q1 -1 1.5 -2t2.5 -3q8 -12 12.5 -21t4.5 -14q0 -17 -15.5 -23.5t-45.5 -7.5q-58 -3 -119 -6t-121.5 -8t-118.5 -11t-111 -15h1q-14 -3 -28 -3q-43 0 -89 34q-11 8 -16.5 10t-8.5 3q-8 3 -14.5 6.5 t-17.5 15.5q-21 24 -21 40q0 33 52 39z" glyph-name="macron"/>
<glyph unicode="ˉ" horiz-adv-x="869" d="M109 982q-65 -8 -22 -54q9 -10 13.5 -12.5t9 -4t11.5 -4t21 -12.5q28 -21 52.5 -27t52.5 -1q53 9 111 15t118.5 11t121.5 8t120 6q35 1 43.5 8t-6.5 29q-7 9 -8.5 11t-3 3.5t-5 4.5t-13.5 14q-43 37 -102 37q-66 0 -138 -3t-141 -7.5t-130 -10t-105 -11.5zM115 989 q44 6 105.5 11.5t130.5 10t141.5 7.5t138.5 3q65 0 112 -41l18 -17l6 -8q1 -1 1.5 -2t2.5 -3q8 -12 12.5 -21t4.5 -14q0 -17 -15.5 -23.5t-45.5 -7.5q-58 -3 -119 -6t-121.5 -8t-118.5 -11t-111 -15h1q-14 -3 -28 -3q-43 0 -89 34q-11 8 -16.5 10t-8.5 3q-8 3 -14.5 6.5 t-17.5 15.5q-21 24 -21 40q0 33 52 39z" glyph-name="macron"/>
<glyph unicode="°" horiz-adv-x="548" d="M295 688q0 8 -4 14.5t-13 7.5h-4q-13 0 -29.5 -6.5t-33 -16.5t-31 -22t-24.5 -24q-8 -11 -12 -21.5t-4 -19.5q0 -8 6 -14t21 -8q4 -1 6 -1q28 0 57 18.5t46 46.5q19 24 19 46zM271 733q15 -2 22.5 -11t8 -22.5t-4.5 -28.5t-15 -28q-11 -17 -26 -31.5t-32.5 -24t-36 -14.5 t-34.5 -2q-18 2 -26.5 11t-9.5 21.5t4 27.5t16 28t27.5 27t35.5 25t37.5 17t33.5 5zM384 758q-25 6 -61 11t-76 7q-29 2 -63.5 -1.5t-59.5 -10.5q-57 -17 -95.5 -41.5t-57.5 -51.5t-16.5 -53.5t28.5 -46.5q10 -9 30.5 -16t40.5 -11q26 -6 58.5 -8.5t62.5 -3.5q46 -2 80.5 1 t66.5 13q45 16 74 38.5t44 46.5t16.5 47.5t-9.5 43.5q-8 11 -21.5 19.5t-41.5 16.5zM396 764q31 -8 46 -18t25 -23q13 -24 13 -47q0 -40 -35 -82t-111 -70q-51 -16 -115 -16h-18q-9 0 -19 1q-32 1 -64.5 3.5t-58.5 8.5q-22 4 -43.5 11.5t-33.5 18.5q-34 27 -34 65 q0 42 46.5 85t133.5 69q23 7 52 10t57 3h18q42 -2 79.5 -7t61.5 -11v-1z" glyph-name="degree"/>
<glyph unicode="±" horiz-adv-x="1074" d="M815 90q32 0 40.5 6.5t-3.5 23.5q-11 15 -20.5 29.5t-27.5 31.5q-32 30 -88 30q-99 -1 -166 -2t-117.5 -3t-92 -5.5t-89 -8t-107.5 -11.5t-148 -15q-12 -1 -24 -3.5t-19.5 -7t-10 -10.5t3.5 -15q11 -17 33 -39.5t44 -36.5q12 -8 22 -12t20 -6t21 -2q12 0 29 2 q71 8 121 14.5t86.5 11.5t63.5 9t54 7t57.5 5t73 3.5t101.5 2t143 1.5zM819 442q32 0 40.5 6.5t-2.5 23.5q-12 15 -21.5 29.5t-27.5 31.5q-30 28 -88 30q-70 2 -174 0q8 20 19 38.5t19 35.5q11 17 7 27.5t-29 24.5q-22 14 -57.5 27t-68.5 21q-26 6 -45 -1.5t-27 -21.5 q-20 -30 -38.5 -71t-36.5 -89q-88 -3 -167 -8.5t-137 -12.5q-12 -2 -24 -4.5t-19.5 -6.5t-10 -10t3.5 -15q11 -17 33 -39.5t44 -36.5q12 -8 22 -12t20 -6t21 -2q12 0 29 2q33 4 68 7.5t73 5.5q-8 -28 -11.5 -51t-8.5 -41q-3 -33 44 -50q32 -11 57 -18.5t51 -15.5 q31 -8 42 -5t17 22q12 37 25.5 82t32.5 93q85 5 165.5 6.5t159.5 3.5zM823 67q-77 -1 -133 -1.5t-97 -2t-71.5 -3t-56 -4t-50 -6t-54.5 -7.5q-39 -5 -95 -12.5t-142 -17.5q-9 -1 -16 -1.5t-15 -0.5q-20 0 -35 4.5t-35 17.5q-23 15 -46.5 38.5t-35.5 42.5q-6 9 -6 19 q0 19 21 28.5t47 11.5q60 6 106.5 11t84.5 9h-1q32 3 59 6t52.5 5l51 4t52.5 3q-6 1 -13.5 3t-17.5 5q-9 3 -16 5l-14 4q-17 5 -35.5 10.5t-39.5 13.5q-54 19 -54 60v4q2 7 4 16t4 22q2 8 3 17t4 21q-32 -2 -61.5 -5.5t-58.5 -6.5q-9 -1 -16 -1.5t-15 -0.5q-20 0 -35 4.5 t-35 17.5q-23 15 -46.5 38.5t-35.5 42.5q-6 9 -6 19q0 20 20.5 28.5t46.5 11.5q57 7 133 12t162 8q17 45 35.5 84t38.5 70h-1q8 14 24.5 23.5t39.5 9.5q13 0 25 -3q34 -8 70.5 -21.5t59.5 -28.5h-1q20 -11 29 -21t9 -23q0 -8 -2.5 -14.5t-7.5 -14.5q-3 -7 -7.5 -13.5 t-7.5 -13.5q-3 -5 -6.5 -11t-6.5 -13q19 0 37.5 0.5t35.5 0.5q22 0 41.5 -0.5t36.5 -0.5q64 -2 98 -34q14 -12 22 -23t15 -21v1q4 -5 7 -10.5t7 -10.5q9 -14 9 -24q0 -17 -14.5 -23t-44.5 -6q-24 -1 -48 -1t-49 -1q-54 -1 -107.5 -2.5t-110.5 -5.5q-14 -35 -23 -64t-17 -54 q-4 -12 -7 -24t-7 -23v1q-9 -28 -26 -33q52 2 120.5 3.5t171.5 2.5q31 0 56 -9t42 -25q14 -14 23 -25t16 -22h-1q3 -5 6 -8.5t6 -8.5v1q10 -14 10 -25q0 -29 -59 -29z" glyph-name="plusminus"/>
<glyph unicode="²" horiz-adv-x="521" d="M440 555q21 23 34.5 45.5t13.5 45.5q0 34 -34 67q-13 11 -33 22.5t-46 21t-56.5 15.5t-64.5 6h-21q-9 0 -19 -2q-69 -8 -128.5 -36t-100.5 -70q-13 -14 -18 -24.5t-5 -18.5q0 -14 9.5 -21.5t26.5 -12.5q17 -3 35.5 -5t39.5 -2q24 0 48.5 4t44.5 13q33 21 65.5 37t52.5 16 h4q-6 -16 -44.5 -48t-95 -70.5t-123 -78t-129.5 -69.5q-14 -7 -19 -16t-5 -17q0 -11 6 -19.5t16 -16.5h-1q14 -11 36 -25.5t40 -22.5q10 -6 20 -9t28 -3q16 0 42 3q27 4 67 8t84 8t87 7t76 4q21 2 31.5 7t10.5 19q0 5 -2 8.5t-4 8.5q-6 11 -17.5 24t-23.5 23l1 -1 q-14 12 -28.5 17.5t-35.5 5.5h-6q-14 -1 -32 -1t-38 -2q66 37 122.5 78t88.5 77zM148 388q37 4 76 5.5t67 2.5q20 1 34 -3.5t26 -15.5q11 -9 21.5 -21t15.5 -21q7 -11 1.5 -15t-25.5 -6q-33 -1 -76.5 -4t-87.5 -7t-84 -8t-67 -8q-20 -3 -33 -3.5t-22 1t-14.5 4t-11.5 6.5 q-17 8 -38 21.5t-35 24.5q-11 10 -16 21.5t16 22.5q48 23 99.5 52.5t99 60.5t88.5 61t69 54.5t39.5 41.5t0.5 21q-10 5 -25.5 2t-34 -10.5t-39.5 -19t-42 -24.5q-33 -15 -76 -15.5t-80 7.5q-21 5 -25 15.5t19 36.5q39 40 96.5 66.5t123.5 34.5q39 4 74 0t64.5 -13 t52.5 -21.5t37 -24.5q19 -18 25.5 -35t3 -33.5t-15.5 -33.5t-28 -35q-19 -22 -49 -46t-66 -48.5t-77 -48t-81 -42.5z" glyph-name="twosuperior"/>
<glyph unicode="³" horiz-adv-x="532" d="M276 535q40 11 72 23t55 26q19 11 31.5 27t13.5 35t-11 40.5t-42 42.5q-29 19 -57 29t-54.5 13.5t-50.5 2.5t-45 -4q-58 -8 -107.5 -28.5t-77.5 -41.5q-21 -17 7 -32q14 -7 35 -12t43.5 -6.5t44 0.5t37.5 10q23 8 49 16.5t46 8.5q12 0 20 -6q10 -7 -0.5 -19t-42.5 -26.5 t-87.5 -31.5t-136.5 -33q-18 -4 -20.5 -11.5t7.5 -18.5q26 -26 63.5 -39.5t77.5 -9.5q32 2 50.5 1t35.5 -10q8 -5 13 -13t4 -18t-9 -21.5t-24 -23.5q-35 -23 -82 -26t-122 22q-26 8 -59.5 10t-61.5 -9q-8 -3 -12.5 -7t-3 -9.5t10 -13t27.5 -17.5q60 -35 121.5 -48t118.5 -13 q72 0 132 14.5t105 52.5q40 34 35 75t-72 76q-17 9 -36.5 14t-40.5 9zM419 563q-15 -9 -35 -17.5t-44 -16.5q14 -4 28 -12q42 -23 61.5 -48t19.5 -52q0 -39 -41 -75q-47 -41 -109.5 -56t-137.5 -15q-59 0 -123 13.5t-125 49.5h1q-26 14 -36 25t-10 21q0 11 7 17t18 11 q27 10 61 10q38 0 71 -11q66 -21 109 -21q26 0 45.5 6t36.5 17h-1q15 11 21 19.5t6 16.5t-10 15h1q-9 5 -19 7t-24 2q-8 0 -16 -0.5t-18 -1.5q-5 -1 -10 -1h-9q-38 0 -74 14.5t-62 40.5q-5 6 -8 11.5t-3 13.5q0 22 33 30q133 28 195 50.5t65 35.5q-2 -2 -4 1q1 -1 -6 -1 q-17 0 -39.5 -6.5t-43.5 -14.5l-6 -3q-14 -7 -31.5 -9.5t-37.5 -2.5q-29 0 -58 6t-47 15q-11 7 -17 14t-6 17q0 14 14 26q29 22 81 43.5t112 29.5q13 2 26.5 3t30.5 1q36 0 76.5 -9.5t83.5 -38.5q32 -23 46 -46t14 -45q0 -25 -14.5 -45.5t-38.5 -33.5h1z" glyph-name="threesuperior"/>
<glyph unicode="´" horiz-adv-x="869" d="M213 919q-19 -8 -27 -16t-9 -16q0 47 2 73t5.5 35t7.5 5t8.5 -16.5t9 -29.5t8.5 -34q-2 0 -3 -0.5t-2 -0.5zM773 980q-5 21 -15.5 34.5t-35.5 20.5q-45 14 -73 14.5t-50 -9.5q-39 -18 -84.5 -34.5t-95 -32t-100.5 -30.5t-100 -28q-1 2 -1 5q49 13 100 28t100.5 30.5 t96 32.5t86.5 35q20 10 52 10q17 0 36 -3.5t45 -11.5q30 -8 43 -24t19 -41l-10 -18q-36 -14 -87 -31.5t-109.5 -34.5t-121 -33.5t-122.5 -28.5l1 1q-10 -3 -19 -4t-19 -1q-43 0 -96 19l11 17q64 -21 111 -9q60 12 123 28.5t121 33.5t108 34t86 31z" glyph-name="acute"/>
<glyph unicode="µ" horiz-adv-x="1118" d="M459 -31q11 -1 21 -1h21q52 0 95.5 7t88.5 22q73 29 128.5 89t99 144.5t78 191.5t65.5 230h-1q2 6 3.5 12t1.5 11q0 17 -12 28t-46 24q-23 8 -49.5 16.5t-53.5 15t-52 11t-45 4.5q-28 0 -46 -9.5t-21 -32.5v2q-13 -48 -30.5 -111.5t-40 -131.5t-48.5 -133.5t-55.5 -117.5 t-62 -84t-66.5 -32q-6 0 -11 1q-20 4 -29 21.5t-9 44.5t7 59t18 68q10 34 28 78t36.5 86.5t35.5 78.5t26 54q8 18 8 30q0 42 -61 71q-34 14 -69.5 25.5t-74.5 18.5q-13 3 -23.5 4t-21.5 1q-23 0 -38 -8t-25 -28q-33 -61 -65 -133t-62.5 -150t-57.5 -159t-49.5 -160 t-39.5 -153.5t-27 -138.5q-1 -5 -1.5 -9.5t-0.5 -9.5q0 -24 14 -38t46 -25q35 -12 69 -19t72 -14q21 -3 36 -3q24 0 33.5 6.5t15.5 21.5q14 50 34.5 114.5t41.5 132.5q38 -10 80 -15.5t91 -7.5zM452 -8q-54 2 -98.5 8.5t-82.5 17.5q-23 -71 -43.5 -136.5t-35.5 -117.5 q-3 -9 -7.5 -14.5t-12 -8t-19.5 -2t-31 3.5q-38 7 -72.5 14t-66.5 18q-33 11 -43 25.5t-5 40.5q15 96 45 213t70.5 237t87.5 234.5t96 204.5q11 22 32 26.5t60 -3.5q38 -7 73 -18t68 -25q70 -32 46 -80q-9 -18 -26 -54.5t-36 -79.5t-37 -87t-28 -78q-13 -41 -20 -77.5 t-5.5 -65t13 -47t36.5 -23.5q39 -7 75 22.5t68.5 81.5t61 120.5t52.5 139.5t43 138.5t32 117.5q3 22 28.5 27t62 -1t78.5 -18.5t78 -24.5q19 -7 29 -13t14.5 -12t4 -14t-3.5 -18q-31 -122 -64.5 -227t-76 -188.5t-96 -142.5t-124.5 -87q-51 -17 -102.5 -23.5t-117.5 -3.5z " glyph-name="mu"/>
<glyph unicode="μ" horiz-adv-x="1118" d="M459 -31q11 -1 21 -1h21q52 0 95.5 7t88.5 22q73 29 128.5 89t99 144.5t78 191.5t65.5 230h-1q2 6 3.5 12t1.5 11q0 17 -12 28t-46 24q-23 8 -49.5 16.5t-53.5 15t-52 11t-45 4.5q-28 0 -46 -9.5t-21 -32.5v2q-13 -48 -30.5 -111.5t-40 -131.5t-48.5 -133.5t-55.5 -117.5 t-62 -84t-66.5 -32q-6 0 -11 1q-20 4 -29 21.5t-9 44.5t7 59t18 68q10 34 28 78t36.5 86.5t35.5 78.5t26 54q8 18 8 30q0 42 -61 71q-34 14 -69.5 25.5t-74.5 18.5q-13 3 -23.5 4t-21.5 1q-23 0 -38 -8t-25 -28q-33 -61 -65 -133t-62.5 -150t-57.5 -159t-49.5 -160 t-39.5 -153.5t-27 -138.5q-1 -5 -1.5 -9.5t-0.5 -9.5q0 -24 14 -38t46 -25q35 -12 69 -19t72 -14q21 -3 36 -3q24 0 33.5 6.5t15.5 21.5q14 50 34.5 114.5t41.5 132.5q38 -10 80 -15.5t91 -7.5zM452 -8q-54 2 -98.5 8.5t-82.5 17.5q-23 -71 -43.5 -136.5t-35.5 -117.5 q-3 -9 -7.5 -14.5t-12 -8t-19.5 -2t-31 3.5q-38 7 -72.5 14t-66.5 18q-33 11 -43 25.5t-5 40.5q15 96 45 213t70.5 237t87.5 234.5t96 204.5q11 22 32 26.5t60 -3.5q38 -7 73 -18t68 -25q70 -32 46 -80q-9 -18 -26 -54.5t-36 -79.5t-37 -87t-28 -78q-13 -41 -20 -77.5 t-5.5 -65t13 -47t36.5 -23.5q39 -7 75 22.5t68.5 81.5t61 120.5t52.5 139.5t43 138.5t32 117.5q3 22 28.5 27t62 -1t78.5 -18.5t78 -24.5q19 -7 29 -13t14.5 -12t4 -14t-3.5 -18q-31 -122 -64.5 -227t-76 -188.5t-96 -142.5t-124.5 -87q-51 -17 -102.5 -23.5t-117.5 -3.5z " glyph-name="mu"/>
</font>
</defs>
</svg>
