<?xml version="1.0" encoding="UTF-8" standalone="no"?>
<!DOCTYPE svg  PUBLIC '-//W3C//DTD SVG 1.1//EN'  'http://www.w3.org/Graphics/SVG/1.1/DTD/svg11.dtd'>
<svg xmlns="http://www.w3.org/2000/svg" version="1.1">
<defs>
<font id="KomikaTitle-Emboss" horiz-adv-x="463">
<font-face underline-position="-125" font-weight="400" ascent="800" unicode-range="U+0020-FB02" units-per-em="1000" panose-1="2 0 5 6 0 0 0 2 0 4" cap-height="715" bbox="-89 -253 961 1112" underline-thickness="50" descent="-200" font-family="Komika Title - Emboss" x-height="715"/>
<missing-glyph horiz-adv-x="500"/>
<glyph horiz-adv-x="500" glyph-name=".notdef"/>
<glyph horiz-adv-x="0" glyph-name=".null"/>
<glyph horiz-adv-x="241" glyph-name="nonmarkingreturn"/>
<glyph horiz-adv-x="241" unicode=" " glyph-name="space"/>
<glyph horiz-adv-x="241" unicode=" " glyph-name="space"/>
<glyph horiz-adv-x="221" unicode="˙" glyph-name="dotaccent" d="M115 845h4q20 0 35 6t25 15t15.5 18.5t7.5 17.5q3 13 3 26q0 16 -14 34t-43 32h-2q2 -6 3 -13t1 -13q0 -16 -3 -29q-2 -9 -7 -21t-13.5 -22.5t-20.5 -18t-27 -7.5q-18 -1 -34 8q24 -33 70 -33z"/>
<glyph unicode="˚" glyph-name="ring" d="M340 1023q-7 3 -16 6q3 -20 1.5 -42.5t-9 -44.5t-20 -42.5t-31.5 -35.5q-4 -2 -7 -4t-7 -4q-7 -16 -14 -21q-4 4 -7 15q-14 -3 -32 0q-14 1 -28.5 3.5t-26.5 8.5q-6 1 -11 5l2.5 -5t3.5 -5v-1q1 -2 13 -8t26 -12l-1 -1q9 -5 25.5 -6.5t34.5 -3.5q5 -1 9 -1h10 q23 0 37.5 4t26.5 12q32 26 47 60t15 63q0 6 -1 14t-4 18q-2 5 -8.5 11t-26.5 17h-1zM212 1032q-10 -11 -18 -26t-13 -29q-5 -13 -7.5 -28t-2 -27.5t4.5 -21.5t12 -11q10 -4 20.5 4.5t20.5 25.5q2 6 3 12t3 11q4 11 8.5 21.5t9.5 21.5q2 15 2.5 29.5t-3.5 24.5 q-11 -1 -21.5 -2.5t-18.5 -4.5zM243 832h-2h2z"/>
<glyph horiz-adv-x="447" unicode="ˇ" glyph-name="caron" d="M153 882q1 -1 8.5 -7.5t17.5 -14.5l-1 -1q3 -3 6.5 -6t6.5 -6q2 -2 23 -2q23 0 28 6q18 21 34.5 45t30.5 47t25.5 43.5t19.5 34.5v1q6 10 6 9l-1.5 2.5t-5.5 9.5q-2 4 -8 12t-16 20q-2 2 -5 3t-19 1h-1q3 -13 -3 -25q-8 -16 -20.5 -37.5t-26.5 -45t-30 -47t-32 -42.5 q-8 -11 -14 -11.5t-14 5.5q-4 3 -7 6l-6 6q2 -4 4 -6zM206 1086q-3 8 -34 17h1q-4 1 -7.5 2t-7.5 2q5 -20 9.5 -45.5t10.5 -52.5l18 26t17 26q-2 5 -3.5 11z"/>
<glyph horiz-adv-x="208" unicode="ı" glyph-name="dotlessi" d="M170 696q-12 10 -28 19q1 -8 -2 -26q-8 -37 -17 -87t-18.5 -106.5t-19 -117.5t-18.5 -120t-16.5 -113.5t-13.5 -98.5q-3 -17 -9 -22t-23 1q-16 6 -30 12t-27 15q5 -9 25 -23q8 -6 26.5 -14t40.5 -16q8 -2 20 -2q17 0 24 2.5t8 8.5q9 66 21.5 154t27 179t28.5 173.5 t26 138.5l2 16q0 2 -5.5 7.5t-21.5 18.5v1z"/>
<glyph horiz-adv-x="563" unicode="∕" glyph-name="fraction" d="M492 690q-2 2 -5 3t-14 1q4 1 5 4t-6 12l1 1q-7 9 -30 10q3 -14 -1 -23.5t-14 -21.5q-23 -27 -59 -71t-78 -96.5t-87 -109.5t-87 -111t-78 -101t-60 -79q-17 -26 -32 -12v-3q0 -1 1.5 -3.5t7.5 -10.5q-2 -1 -1 -2l1 2q1 0 3 0.5t4 0.5q1 -2 2 -3.5t3 -3.5q4 -7 30 -7 t33 10v1q24 32 60 79t78 101t87 111.5t86.5 110t77.5 96.5t59 71l21 24l-2.5 6t-5.5 14zM-14 80q1 1 1 -1v-11v5q0 4 -2 7h1z"/>
<glyph horiz-adv-x="604" unicode="ﬁ" glyph-name="fi" d="M345 42q8 -6 26.5 -14t40.5 -16q8 -2 20 -2q17 0 24 2.5t8 8.5q9 66 21.5 154t27 178.5t28.5 173t26 138.5q2 10 2 14q0 23 -18.5 44.5t-47.5 35.5q15 -27 9 -57q-8 -37 -17 -87t-18.5 -106.5t-19 -117.5t-18.5 -120t-16.5 -113.5t-13.5 -98.5q-3 -17 -9 -22t-23 1 q-16 6 -30 12t-28 15q6 -10 26 -23zM-22 31q14 -9 36.5 -19.5t47.5 -10.5q17 0 27 2t11 8v2q1 4 1 7t1 8q8 52 18 115.5t22 130.5l-10 11q35 11 71.5 21.5t71.5 18.5q36 6 35 6v1q0 2 -3 13l1 1q-3 14 -7 29t-15 38q-4 8 -15 12t-28 6q3 -11 5.5 -21t4.5 -21q5 -20 0.5 -28 t-21.5 -11q-35 -8 -72.5 -18t-72.5 -21q-13 -72 -23.5 -139.5t-18.5 -121.5q-1 -17 -10.5 -21.5t-22.5 -2t-28.5 10t-28.5 15.5q3 -5 8 -10t14 -12zM185 521q4 23 7.5 44t8.5 39l-12 11q25 5 71 14t92 19q2 9 3 17.5t3 17.5q-26 -5 -56 -11.5t-59.5 -12.5t-55 -11t-41.5 -8 q-8 -33 -14.5 -74.5t-16.5 -87.5q16 2 31.5 4t32.5 3z"/>
<glyph horiz-adv-x="705" unicode="ﬂ" glyph-name="fl" d="M565 668v1q3 12 3 20q0 23 -17.5 38.5t-41.5 25.5q7 -23 1 -48q-11 -49 -23 -110t-24 -127t-24 -134t-22 -132q17 4 32 7t31 5q10 59 20.5 120.5t22 121t22 113.5t20.5 99zM-33 38q18 -11 44.5 -24t50.5 -13q17 0 27 2t11 8v2q1 4 1 7t1 8q8 52 18 115.5t22 130.5l-10 11 q35 11 71.5 21.5t71.5 18.5q14 1 22 3q2 10 2.5 20t2.5 20q-4 17 -16 45q-4 8 -15 12t-28 6q3 -11 5.5 -21t4.5 -21q5 -20 0.5 -28t-21.5 -11q-35 -8 -72.5 -18t-72.5 -21q-13 -72 -23.5 -139.5t-18.5 -121.5q-1 -17 -10.5 -21.5t-23.5 -1.5t-29.5 11t-28.5 16q2 -7 14 -16z M185 521q4 23 7.5 44t8.5 39l-12 11q23 4 66 10t90 13q2 8 3 16t3 16q-27 -4 -57 -8t-58 -8t-52 -7.5t-38 -6.5q-8 -33 -14.5 -74.5t-16.5 -87.5q16 2 31.5 4t32.5 3zM577 82q-42 -12 -86 -24.5t-84 -24.5q-23 -10 -36 -7.5t-21 9.5l7 -7t15 -14q5 -5 13 -9t32 -4q17 0 35 6 h-1q61 18 128 37l42 12q30 9 33 6q0 3 -1 8l-2 10q-2 14 -7.5 30.5t-15.5 36.5q-5 9 -14 13.5t-29 5.5q4 -11 6.5 -21.5t4.5 -21.5q5 -21 3 -28t-22 -13zM654 62l1 -1v0q0 1 -1 1z"/>
<glyph horiz-adv-x="440" unicode="Ł" glyph-name="Lslash" d="M231 379l-7 10q36 23 73 46t73 44h-1q17 9 25 12l-19 20q-4 4 -9.5 8.5t-18.5 12.5q1 -12 -25 -26q-36 -21 -73 -44t-73 -46q-10 -55 -19 -109.5t-17 -105.5q17 4 32 7t31 5q6 41 13 82.5t15 83.5zM95 13q5 -5 13 -9t32 -4q17 0 35 6h-1q61 18 128 37l42 12q30 9 33 6 q0 3 -1 8l-2 10q-2 14 -7.5 30.5t-15.5 36.5q-5 9 -14 13.5t-29 5.5q4 -11 6.5 -21.5t4.5 -21.5q5 -21 3 -28t-22 -13q-42 -12 -86 -24.5t-84 -24.5q-23 -10 -36 -7.5t-21 9.5l7 -7t15 -14zM288 667v1q3 12 3 16q0 2 -6 7.5t-20 18.5q-10 8 -29 18q0 -9 -3 -24 q-6 -26 -12 -54.5t-12 -59.5q2 1 4 1.5t4 2.5q32 16 56 6q4 18 7.5 34.5t7.5 32.5zM-80 335q2 -2 7 -5t13 -8q15 -11 70 -36q2 -2 5 -2q1 5 1.5 11t1.5 12q-19 -5 -42 5q-14 6 -26.5 12.5t-23.5 13.5q-2 -1 -3.5 -2t-2.5 -1zM394 491l7 -6q2 -2 2 6q0 3 -9 0zM-80 335h-3 q0 -2 3 0zM377 61l1 -1v0q0 1 -1 1z"/>
<glyph horiz-adv-x="440" unicode="ł" glyph-name="lslash" d="M231 379l-7 10q36 23 73 46t73 44h-1q17 9 25 12l-19 20q-4 4 -9.5 8.5t-18.5 12.5q1 -12 -25 -26q-36 -21 -73 -44t-73 -46q-10 -55 -19 -109.5t-17 -105.5q17 4 32 7t31 5q6 41 13 82.5t15 83.5zM95 13q5 -5 13 -9t32 -4q17 0 35 6h-1q61 18 128 37l42 12q30 9 33 6 q0 3 -1 8l-2 10q-2 14 -7.5 30.5t-15.5 36.5q-5 9 -14 13.5t-29 5.5q4 -11 6.5 -21.5t4.5 -21.5q5 -21 3 -28t-22 -13q-42 -12 -86 -24.5t-84 -24.5q-23 -10 -36 -7.5t-21 9.5l7 -7t15 -14zM288 667v1q3 12 3 16q0 2 -6 7.5t-20 18.5q-10 8 -29 18q0 -9 -3 -24 q-6 -26 -12 -54.5t-12 -59.5q2 1 4 1.5t4 2.5q32 16 56 6q4 18 7.5 34.5t7.5 32.5zM-80 335q2 -2 7 -5t13 -8q15 -11 70 -36q2 -2 5 -2q1 5 1.5 11t1.5 12q-19 -5 -42 5q-14 6 -26.5 12.5t-23.5 13.5q-2 -1 -3.5 -2t-2.5 -1zM394 491l7 -6q2 -2 2 6q0 3 -9 0zM-80 335h-3 q0 -2 3 0zM377 61l1 -1v0q0 1 -1 1z"/>
<glyph horiz-adv-x="375" unicode="Ž" glyph-name="Zcaron" d="M368 602v1q14 22 14 32q0 8 -6 26h1l-3 12q-2 8 -5 18t-13 35q-5 11 -14 15.5t-31 5.5q4 -12 6 -22t5 -20q5 -18 4.5 -34.5t-11.5 -35.5q-60 -106 -124.5 -223t-125.5 -232q20 7 40 11.5t41 9.5q55 103 111.5 205t110.5 196zM153 852q1 -1 8.5 -7.5t17.5 -14.5l-1 -1 q3 -3 6.5 -6t6.5 -6q2 -2 23 -2q23 0 28 6q18 21 34.5 45t30.5 47t25.5 43.5t19.5 34.5v1q6 10 6 9l-1.5 2.5t-5.5 9.5q-2 4 -8 12t-16 20q-2 2 -5 3t-19 1h-1q3 -13 -3 -25q-8 -16 -20.5 -37.5t-26.5 -45t-30 -47t-32 -42.5q-8 -11 -14 -11.5t-14 5.5q-4 3 -7 6l-6 6 q2 -4 4 -6zM1 -1q5 -5 14 -9t32 -4q11 0 18.5 1.5t15.5 3.5q35 13 65 21.5t56 15.5q14 4 27.5 7t27.5 7l-1 1q19 4 28 5.5l9 1.5l-4 13l1 1q-2 12 -8.5 29t-15.5 39q-8 15 -43 18q5 -11 7.5 -21.5t4.5 -21.5q5 -20 0 -28t-22 -11q-42 -12 -89.5 -24.5t-87.5 -26.5 q-22 -8 -33.5 -6t-20.5 9q4 -5 8.5 -10t10.5 -11zM158 641q-26 -6 -48 -10t-43 -10q-21 -5 -35 3q2 -4 3 -5v-1q0 3 3 -1q8 -13 22 -18t33 -5q9 0 31 5q4 1 6.5 1.5t5.5 1.5q5 10 11 19.5t11 19.5zM206 1056q-3 8 -34 17h1q-4 1 -7.5 2t-7.5 2q5 -20 9.5 -45.5t10.5 -52.5 l18 26t17 26q-2 5 -3.5 11z"/>
<glyph horiz-adv-x="375" unicode="ž" glyph-name="zcaron" d="M368 602v1q14 22 14 32q0 8 -6 26h1l-3 12q-2 8 -5 18t-13 35q-5 11 -14 15.5t-31 5.5q4 -12 6 -22t5 -20q5 -18 4.5 -34.5t-11.5 -35.5q-60 -106 -124.5 -223t-125.5 -232q20 7 40 11.5t41 9.5q55 103 111.5 205t110.5 196zM153 852q1 -1 8.5 -7.5t17.5 -14.5l-1 -1 q3 -3 6.5 -6t6.5 -6q2 -2 23 -2q23 0 28 6q18 21 34.5 45t30.5 47t25.5 43.5t19.5 34.5v1q6 10 6 9l-1.5 2.5t-5.5 9.5q-2 4 -8 12t-16 20q-2 2 -5 3t-19 1h-1q3 -13 -3 -25q-8 -16 -20.5 -37.5t-26.5 -45t-30 -47t-32 -42.5q-8 -11 -14 -11.5t-14 5.5q-4 3 -7 6l-6 6 q2 -4 4 -6zM1 -1q5 -5 14 -9t32 -4q11 0 18.5 1.5t15.5 3.5q35 13 65 21.5t56 15.5q14 4 27.5 7t27.5 7l-1 1q19 4 28 5.5l9 1.5l-4 13l1 1q-2 12 -8.5 29t-15.5 39q-8 15 -43 18q5 -11 7.5 -21.5t4.5 -21.5q5 -20 0 -28t-22 -11q-42 -12 -89.5 -24.5t-87.5 -26.5 q-22 -8 -33.5 -6t-20.5 9q4 -5 8.5 -10t10.5 -11zM158 641q-26 -6 -48 -10t-43 -10q-21 -5 -35 3q2 -4 3 -5v-1q0 3 3 -1q8 -13 22 -18t33 -5q9 0 31 5q4 1 6.5 1.5t5.5 1.5q5 10 11 19.5t11 19.5zM206 1056q-3 8 -34 17h1q-4 1 -7.5 2t-7.5 2q5 -20 9.5 -45.5t10.5 -52.5 l18 26t17 26q-2 5 -3.5 11z"/>
<glyph horiz-adv-x="267" unicode="!" glyph-name="exclam" d="M215 750q-10 8 -29 18q3 -12 -2 -31q-14 -61 -28 -125.5t-27.5 -129t-25.5 -126.5t-21 -117q-3 -20 -10 -24.5t-22 0.5q-30 7 -57 26q7 -10 26 -24q20 -16 67 -27l-1 -1q3 -1 7 -1.5t12 -0.5q32 0 33 14q9 55 21 117t25.5 126.5t27.5 129.5t28 126v1q3 12 3 17 q0 6 -27 32zM42 -21h2q20 0 35 6.5t25.5 15.5t16 19.5t7.5 18.5h-1q4 13 4 19q0 18 -14 38t-46 33q4 -14 4 -29q0 -14 -2 -25q-2 -9 -7.5 -21.5t-14 -23.5t-20.5 -18.5t-27 -7.5q-20 -2 -35 9q11 -17 30.5 -25.5t42.5 -8.5z"/>
<glyph horiz-adv-x="374" unicode='&quot;' glyph-name="quotedbl" d="M241 612q-16 -26 -39 -28q-9 -2 -18 -1.5t-18 2.5q-2 -3 -4 -9l-1.5 -4.5l-0.5 -1.5l21 -6q12 -2 24.5 -4t23.5 -2q13 0 17 1h-1q37 3 49 21q9 15 19.5 35.5t20.5 43t18 44.5t13 39q0 1 0.5 -0.5t0.5 -0.5v3q4 20 4 27q0 1 -6 12q-8 11 -20 23.5t-32 27.5l1 1 q-2 1 -3.5 2t-3.5 2q4 -9 6.5 -16t2.5 -12t-5 -33q-5 -20 -13 -43.5t-18 -46.5t-20 -43t-18 -33zM96 642q-14 -30 -36 -34q-8 -3 -18 -4.5t-20 0.5q-2 -6 -2 -7q-2 -10 -2 -9q0 -4 34 -8q4 -1 9 -1h10q25 0 34 3l-2 1q25 5 36 13q-9 10 -1 30q6 15 14.5 36.5t17 46.5 t17.5 51t17 51q-2 2 -5.5 8t-10.5 14l-14 10.5t-27 18.5q2 -2 2 -5t1 -6q1 -8 -0.5 -22.5t-4.5 -32t-8 -36.5t-11 -36q-7 -24 -15 -45.5t-15 -36.5z"/>
<glyph horiz-adv-x="478" unicode="#" glyph-name="numbersign" d="M243 98v-1q8 -4 24 -4q27 0 28 7q5 32 12 70t15 83l-13 12q17 2 33 4.5t32 4.5q22 3 27 2q-1 2 -1.5 4t-2.5 5h1q-8 15 -17 23t-32 12q5 -17 -17 -21q-16 -2 -32 -4.5t-33 -4.5q-8 -45 -15 -82.5t-12 -69.5q-4 -18 -10.5 -19.5t-18.5 6.5q-4 2 -5 3q10 -14 37 -30zM81 80 q4 -2 8.5 -3.5t15.5 -1.5q26 0 27 8q3 17 6 35.5t6 38.5q2 14 4.5 27.5t4.5 28.5l-11 12q25 8 32 9q2 9 2.5 18t2.5 20q-20 -7 -40.5 -10.5t-40.5 -10.5q-6 -37 -11 -69.5t-10 -61.5q-4 -18 -9.5 -19.5t-18.5 6.5q-1 0 -1.5 0.5t-1.5 0.5q15 -16 35 -28zM379 501 q-17 -2 -35 -3.5t-37 -3.5q-6 -29 -12 -58.5t-11 -58.5q23 -1 34.5 -9.5t20.5 -26.5q5 29 11 58l12 58l-14 12q9 1 17.5 1.5t17.5 1.5q11 1 20.5 1.5t17.5 2.5q21 3 27 2q-2 4 -3 7l1 1q-8 15 -17 24t-33 13q5 -11 0.5 -15.5t-17.5 -6.5zM215 479q-21 -4 -40.5 -7t-38.5 -8 q-5 -29 -10 -55t-10 -55q17 3 32.5 6t31.5 6q1 1 0.5 2t0.5 3q2 14 4.5 27.5t5.5 28.5l-11 11q9 2 15.5 4t12.5 3q2 8 3.5 16.5t3.5 17.5zM391 583q2 6 2 12t2 11q3 10 4 16t1 11q0 16 -12 32.5t-32 35.5h1q-2 2 -7 3t-11 2q11 -28 2 -64q-4 -14 -7 -29t-8 -32 q23 -1 35.5 -8t20.5 -21q2 8 4.5 15.5t4.5 15.5zM224 584q3 15 3 25q0 17 -12.5 34.5t-33.5 35.5q-4 3 -15 4q11 -26 3 -62q-2 -13 -5 -27t-7 -28q17 2 33 3.5t32 3.5q1 3 1 5q0 3 1 6zM37 415q2 7 2.5 13.5t2.5 13.5h-3q-28 -7 -43 3q7 -11 16 -19t25 -11zM7 204q0 5 1 8 l1 14q-21 -5 -36 6q13 -21 34 -28zM448 478q5 -8 5 -5t-5 5zM401 276q4 -8 4 -3q0 2 -4 3z"/>
<glyph horiz-adv-x="369" unicode="$" glyph-name="dollar" d="M80 -52q7 -5 26 -5q15 0 20.5 2t6.5 6q3 26 8.5 61.5t11.5 67.5l-26 8q-3 3 19 3h9q32 0 55 10.5t38.5 26t25 34t14.5 33.5q2 10 2 14q0 26 -24 53t-56 55q15 -20 21.5 -43.5t-0.5 -53.5q-5 -15 -14 -33.5t-22.5 -34t-33 -26t-46.5 -10.5h-9q-7 0 -8 1q-6 -32 -11.5 -67 t-8.5 -61q-2 -15 -7 -19t-14 1q5 -7 10.5 -12.5t12.5 -10.5zM237 373q1 -1 18 -1q30 0 32 5q4 14 8 32t7 37.5t4.5 38t1.5 32.5t-5 32t-28 45q-2 3 -9 8.5l-21 16.5l6 15q4 19 7 37.5t5 33.5q1 6 1.5 11t0.5 9q0 19 -11.5 37t-31.5 35v1q-5 4 -19 5q9 -27 5 -60 q-2 -15 -5 -34t-7 -38q12 -9 28 -27q20 -23 24.5 -45.5t4.5 -41.5q0 -16 -1.5 -35.5t-4.5 -39t-6.5 -38t-7.5 -31.5q-9 -22 -29 -13q-5 2 -9.5 5t-9.5 6q9 -11 22.5 -20.5t29.5 -17.5zM149 379q-8 10 -11 26t-3 36t4 40t10 37q2 16 3 32t-1 29q0 11 -5 14q-9 4 -24.5 -12 t-27.5 -41.5t-14 -56t17 -55.5q11 -14 24 -26t27 -24zM40 334q8 -9 29.5 -26.5t43.5 -34.5q2 -2 4.5 -4t4.5 -4q-14 15 -38.5 33t-48.5 41q2 -2 2.5 -3t2.5 -2zM15 144q0 2 1 4q-16 11 -29 23q13 -15 28 -27z"/>
<glyph horiz-adv-x="593" unicode="%" glyph-name="percent" d="M418 650q-20 -33 -48.5 -80.5t-61 -103t-66 -115t-64.5 -115.5t-56.5 -105t-41.5 -83q-10 -16 -20 -10q2 -2 4.5 -5t4.5 -5q8 -8 15.5 -12t22.5 -4q23 0 34 17q17 35 43.5 86t58.5 109q5 53 24 103t51 80q8 7 17.5 10.5t19.5 5.5q34 60 64.5 110.5t51.5 84.5q17 28 17 41 q0 11 -6.5 24.5t-17.5 30.5v1q-5 8 -32 8h-3q11 -37 -11 -73zM457 321q2 -16 3 -33t1 -36q0 -27 -3.5 -55t-11 -54t-18.5 -48.5t-26 -38.5q-29 -29 -66 -20q-11 2 -21 5.5t-20 9.5q5 -5 9.5 -10t9.5 -9l-1 -1q6 -6 22.5 -10.5t37.5 -9.5q5 -1 9.5 -1.5t10.5 -0.5q43 0 60 17 q16 17 28 39.5t19.5 47t11.5 50t4 49.5q0 18 -1 34.5t-3 32.5q-3 26 -33 59q-7 7 -31 18q6 -19 9 -35zM281 620q-2 0 -4 0.5t-4 0.5h-1q-42 -18 -80 0q0 -27 -3 -55.5t-9.5 -55t-17 -49.5t-25.5 -39q-29 -29 -67 -22q-11 3 -24 8t-24 13q10 -12 25 -24q6 -5 19 -10t27 -9 q15 -3 21 -3.5t11 -0.5h12t11 1q23 44 48 88.5t50 87.5q0 8 0.5 15t0.5 15l-21 12q7 -3 17.5 -4t23.5 -1q5 8 9.5 16t9.5 16h-5zM381 347q-5 3 -13 -5.5t-16 -24.5t-15 -36t-11 -39q-13 -51 -13 -93q0 -38 13 -45q12 -7 27 21t26 83q5 21 7.5 44.5t3 43.5t-2 34t-6.5 17z M109 713q-5 3 -12.5 -6t-15 -24.5t-14.5 -35.5t-11 -39q-10 -54 -9.5 -92.5t13.5 -44.5q13 -7 27 20t24 84q3 24 5.5 47t2.5 42t-2 32.5t-8 16.5zM214 697q-15 15 -39 25q1 -3 5 -9q16 -31 47 -37l-6 10t-7 11z"/>
<glyph horiz-adv-x="519" unicode="&amp;" glyph-name="ampersand" d="M261 334l-4 19q37 30 72.5 60.5t48.5 51.5h-1q38 56 38 102q0 58 -56 134q-25 32 -50 45q47 -63 50.5 -127.5t-34.5 -121.5q-20 -32 -52.5 -61t-64.5 -55q15 -28 31.5 -55t33.5 -53l14 14q-7 11 -13.5 23t-12.5 24zM306 54q10 -10 18 -17.5t16 -12t16.5 -6.5t19.5 -2 q2 0 5.5 0.5t5.5 0.5q26 7 34.5 11.5t16.5 12.5q9 9 12 10q-2 2 -5 6.5t-8 10.5q-9 11 -17.5 22.5t-17.5 24.5v-2l-2.5 5t-6.5 11l-1 17q7 9 10.5 15.5t7.5 13.5q-4 -9 -2 -5.5t3 5.5q11 23 18.5 43.5t7.5 36.5t-10 39q-2 5 -31 5q-10 0 -14 -1q1 -23 -6 -45.5t-18 -44.5 q-5 -8 -9 -16t-9 -15q13 -17 23.5 -31.5t21.5 -28.5q14 -17 13.5 -26.5t-11.5 -20.5t-20 -17.5t-24 -10.5q-11 -2 -19 1t-19 12v-1h1zM151 496q10 8 19.5 15t18.5 15v1q0 16 2 27.5t6 21.5q8 22 22.5 41.5t29.5 33.5q-2 24 -15 43q-13 -4 -27 -12.5t-26.5 -19.5t-22.5 -24.5 t-15 -26.5q-19 -46 5 -108zM267 96q-44 -38 -96 -56q-17 -8 -36 -13t-40 -4.5t-43.5 9.5t-46.5 30q3 -4 6 -7.5t7 -7.5q28 -28 59.5 -38.5t63.5 -10.5q24 0 42.5 4.5t33.5 11.5h-1q56 19 88 42q-9 7 -19 19q-8 10 -18 21zM153 256q-8 13 -15 25.5t-15 26.5 q-38 -38 -54 -70.5t-16 -55.5q0 -13 5 -21q12 -18 50 -5q2 23 13 48.5t32 51.5zM450 51q4 -4 4 -1q0 5 -4 1z"/>
<glyph horiz-adv-x="212" unicode="&apos;" glyph-name="quotesingle" d="M89 612q-16 -26 -39 -28q-9 -2 -18 -1.5t-18 2.5q0 -2 -0.5 -3t-0.5 0v-1l-4 -11l4.5 -1.5t15.5 -4.5q12 -2 24.5 -4t23.5 -2h9q5 0 8 1h-1q37 3 49 21q9 15 19.5 35.5t20.5 43t18 44.5t13 39q0 1 0.5 -0.5t0.5 -0.5v3q4 20 4 27q0 1 -6 12q-8 11 -20 23.5t-32 27.5l1 1 q-2 1 -3.5 2t-3.5 2q4 -9 6.5 -16t2.5 -12t-5 -33q-5 -20 -13 -43.5t-18 -46.5t-20 -43t-18 -33z"/>
<glyph horiz-adv-x="243" unicode="(" glyph-name="parenleft" d="M147 -18h12q19 5 24 4q0 1 -0.5 2t-0.5 2q-23 57 -33 125t-10 142q0 108 20.5 210t55.5 183q14 29 14 55q0 39 -36 95q-7 11 -34 13q29 -68 2 -129q-30 -68 -49.5 -150t-25.5 -168.5t3.5 -171.5t38.5 -158q7 -17 4 -21.5t-17 -7.5q-15 -2 -30 2t-29 16q17 -25 41 -34 t50 -9zM183 -14q5 -12 5 -8q0 6 -5 8z"/>
<glyph horiz-adv-x="271" unicode=")" glyph-name="parenright" d="M139 710q16 -84 14.5 -179t-17.5 -186t-46 -171t-71 -134q-28 -36 -73 -37q-4 -7 -8 -13t-5 -8q4 1 11.5 0t18.5 -3q5 -1 10 -1h9q64 0 89 31q32 42 57.5 99t43.5 122t27.5 135t9.5 138q0 86 -15 164q-8 33 -26.5 60.5t-51.5 44.5q16 -28 23 -62zM-67 -18q-3 0 -3 -2 q0 -3 3 2z"/>
<glyph horiz-adv-x="475" unicode="*" glyph-name="asterisk" d="M356 545q-26 -6 -51 -14t-51 -16q20 -23 41.5 -45t45.5 -48q13 -14 12 -20.5t-12 -17.5q-20 -15 -40 -15q-21 0 -53 32q-14 13 -26 25.5t-23 23.5q-5 -32 -9.5 -63t-10.5 -66q-3 -18 -8.5 -20t-19.5 8q-2 0 -4 2q12 -16 36 -29q5 -3 9.5 -4.5t15.5 -1.5q14 0 19.5 1.5 t6.5 5.5v1q4 20 7 37.5t5 35.5q2 9 2.5 18.5t2.5 19.5q5 -4 11 -9.5t16 -13.5h-1q28 -28 64 -28q31 0 59 19l-4 4t-4 5q-11 11 -20 21t-19 20q-8 8 -18 18.5t-29 33.5l-8 24q5 2 10 3t10 3q24 8 46 15t35 10q22 3 25 2q-1 1 -6 11q-8 13 -18.5 21.5t-29.5 13.5 q6 -18 -14 -23zM300 653q3 15 3 24q0 17 -12.5 35.5t-33.5 36.5q-2 2 -5.5 3t-10.5 1q12 -26 4 -63q-5 -20 -9 -39t-7 -37q12 3 24 5.5t23 4.5q5 1 8.5 1.5t8.5 0.5q2 7 3.5 13.5t3.5 13.5zM73 405q25 0 34 5q1 0 1.5 0.5t1.5 0.5v1q2 14 3 26t3 23q-14 -6 -28 -11.5 t-28 -12.5q-18 -9 -32.5 -7t-26.5 12q11 -17 28 -27t44 -10zM122 666l10 -12t11 -12q0 2 0.5 5t0.5 5q-9 9 -22 14zM400 363q8 -8 8 -1q0 9 -5 4zM424 522q2 -2 2 -1l-0.5 0.5t-1.5 0.5z"/>
<glyph horiz-adv-x="488" unicode="+" glyph-name="plus" d="M336 356q-36 -2 -73 -3.5t-75 -6.5q-8 -48 -14.5 -93t-11.5 -82q-3 -19 -8 -22t-19 5q-10 7 -19 12t-20 13q6 -8 21 -19q3 -2 11 -7.5t24 -15.5q4 -2 7.5 -5t7.5 -5t7.5 -3t15.5 -1q17 0 21.5 2.5t5.5 8.5q2 8 2.5 17t2.5 18q5 32 10 67t11 72l-13 13q26 4 51.5 5.5 t50.5 2.5q11 1 22 1q12 0 23 1q31 0 33 -1q-2 3 -3 11l-6 18v1q-2 6 -5 14t-12 26l1 1q-8 15 -44 20q3 -9 6 -17.5t6 -17.5q5 -17 1 -23.5t-18 -6.5zM276 487q2 7 4 13.5t4 13.5l-1 2q5 11 5 16q0 1 -17 21v2q-4 5 -15.5 13.5t-25.5 17.5q5 -13 -1 -35q-4 -17 -8.5 -35.5 t-8.5 -38.5q17 0 32 0.5t29 -0.5q1 2 1.5 5t1.5 5zM-3 303q5 -8 13 -10.5t27 -2.5q5 0 9 0.5t8 1.5l8 2t9 2q1 8 1.5 16.5t2.5 17.5q-17 -2 -33 -5.5t-31 -7.5q-14 -4 -23 -1q2 -3 4.5 -6.5t4.5 -6.5zM410 330v-1q1 0 1 1h-1z"/>
<glyph horiz-adv-x="209" unicode="," glyph-name="comma" d="M-2 -79q-10 -14 -18.5 -19.5t-19.5 -7.5q-11 -1 -22 1.5t-22 6.5l-3 -7.5l-1 -2.5q1 1 25 -10l-1 -1q11 -5 25.5 -8.5t34.5 -3.5h7q19 4 30.5 8t16.5 12q8 12 18.5 29t21 36t19.5 36.5t14 31.5v1q7 17 7 20l-15 21q-12 15 -44 36q8 -18 -2 -43q-6 -17 -15 -36.5t-19 -38 t-20 -35t-17 -26.5zM-88 -108l-1 -1z"/>
<glyph horiz-adv-x="395" unicode="-" glyph-name="hyphen" d="M-39 368q15 -24 49 -24q18 0 19 1l-2 1q52 19 106 27.5t104 13.5q35 3 35 1q0 2 -5 16q-2 6 -4.5 12.5t-4.5 12.5q-2 4 -2.5 6.5t-2 7t-5 13t-11.5 24.5q-14 25 -45 28q6 -16 11 -30.5t10 -28.5q7 -22 3 -29t-20 -8q-54 -5 -110 -14t-104 -26q-12 -6 -24 1q2 -4 3 -5z "/>
<glyph horiz-adv-x="395" unicode="­" glyph-name="hyphen" d="M-39 368q15 -24 49 -24q18 0 19 1l-2 1q52 19 106 27.5t104 13.5q35 3 35 1q0 2 -5 16q-2 6 -4.5 12.5t-4.5 12.5q-2 4 -2.5 6.5t-2 7t-5 13t-11.5 24.5q-14 25 -45 28q6 -16 11 -30.5t10 -28.5q7 -22 3 -29t-20 -8q-54 -5 -110 -14t-104 -26q-12 -6 -24 1q2 -4 3 -5z "/>
<glyph horiz-adv-x="221" unicode="." glyph-name="period" d="M49 -10h4q20 0 35 6t25 15t15.5 18.5t7.5 17.5q3 13 3 26q0 16 -14 34t-43 32h-2q2 -6 3 -13t1 -13q0 -16 -3 -29q-2 -9 -7 -21t-13.5 -22.5t-20.5 -18t-27 -7.5q-18 -1 -34 8q24 -33 70 -33z"/>
<glyph horiz-adv-x="354" unicode="/" glyph-name="slash" d="M333 703q-17 20 -49 47q13 -16 13 -28t-8 -29q-15 -33 -37 -84.5t-48 -114t-53.5 -130t-53 -131t-47 -119t-35.5 -92.5q-6 -18 -14 -21.5t-23 7.5q-10 8 -17.5 15t-15.5 13q2 -4 8 -9l6.5 -6t11.5 -11q-2 2 9 -7t29 -23q6 -5 28 -5q15 0 22.5 3t9.5 9q14 37 35.5 92.5 t47 119t53 131.5t53.5 130t48 114.5t37 84.5q9 18 9 22l-4.5 5.5t-13.5 17.5z"/>
<glyph horiz-adv-x="457" unicode="0" glyph-name="zero" d="M346 690q-9 9 -27 19q11 -18 17 -38t10 -43q9 -61 8 -136.5t-13 -151.5t-36 -146t-61 -119q-26 -34 -55 -43t-67 -4q-24 3 -50 11.5t-49 25.5q8 -8 15.5 -14.5t15.5 -12.5q20 -14 48 -22.5t58 -12.5q8 -1 15 -1.5t15 -0.5q36 0 62 9.5t44 33.5q30 39 51 90t35 106.5 t20.5 113.5t6.5 112q0 32 -2 62.5t-6 57.5q-5 26 -16.5 51t-38.5 54v-1zM204 660q-13 5 -29 -13.5t-32 -51.5t-30.5 -76.5t-23.5 -88.5t-13 -91t-2.5 -85t9.5 -66.5t22 -34.5q11 -6 26 6q-3 33 -3 79q0 37 4 77t12 78q7 36 16.5 71t20 65.5t21 54.5t19.5 38q-5 32 -17 38z "/>
<glyph horiz-adv-x="258" unicode="1" glyph-name="one" d="M168 692q-8 -39 -17.5 -89.5t-19 -107.5t-19 -118t-18 -119.5t-16 -112.5t-12.5 -97q-3 -17 -9 -22t-23 2q-13 5 -25.5 9t-25.5 12q3 -5 7.5 -10t10.5 -11q2 -2 16 -7.5t31 -11.5l1 -1t4 -2l1 1q6 -3 14 -5q7 -3 22 -3q20 0 25 3t6 8q5 43 12.5 97.5t16 113t18 119.5 t19 118.5t19 108t17.5 88.5v1q3 12 3 16l-27 26q-13 11 -29 20q1 -8 -2 -26zM5 602l1.5 -1.5t5.5 -3.5q0 4 1 6q-2 1 -3.5 2t-3.5 2q-1 -2 -1 -4v-1zM48 9l6 -2q-2 0 -6 2z"/>
<glyph horiz-adv-x="413" unicode="2" glyph-name="two" d="M108 183q22 5 45.5 8t43.5 4q26 30 50.5 63t46.5 65.5t39 63.5t28 58q15 36 24 67t9 58q0 17 -5 37t-18 46q-9 17 -25 34t-39 31q3 -5 6 -9t5 -9q14 -29 18.5 -56t2 -54t-11 -54.5t-20.5 -56.5q-14 -35 -36 -73.5t-48.5 -77.5t-56 -76.5t-58.5 -68.5zM5 4l-1 -1 q5 -5 12.5 -8.5t30.5 -3.5q8 0 17 1t17 3h-1q20 6 49.5 13t62 13.5t63.5 11.5t54 7q26 6 31 3q0 -1 0.5 -1.5t0.5 0.5l-1 1q-2 3 -3 11h1q-2 10 -10 27.5t-19 35.5v1q-10 19 -41 22q5 -11 9 -22t6 -20q5 -18 1 -24t-19 -9q-24 -2 -55.5 -7t-63.5 -11t-61.5 -13t-48.5 -13 q-18 -5 -28 -5t-17 3q4 -4 7 -8t7 -7zM2 539q0 -4 27 -17q19 -10 59 -10q24 0 45 7t36 23q9 11 17.5 22t16.5 21q10 23 12.5 39t-2.5 21q-8 7 -19 3t-25 -16.5t-29.5 -31t-30.5 -38.5q-22 -23 -51.5 -25t-55.5 9v-7z"/>
<glyph horiz-adv-x="433" unicode="3" glyph-name="three" d="M157 -9q63 0 111 21t80 80q13 26 20.5 51t7.5 47q0 30 -13.5 63.5t-44.5 68.5q-10 10 -29 19q32 -54 31.5 -111t-25.5 -105q-34 -63 -78.5 -86t-99.5 -23q-35 0 -72.5 14t-75.5 51q42 -52 91 -71t97 -19zM209 411q13 -6 25 -12t23 -17v2q36 22 61 40.5t38 34.5 q17 20 26.5 46t9.5 52q0 25 -10 56t-33 67q-12 17 -26 29.5t-28 20.5l2 -2q22 -35 31.5 -69.5t8.5 -66t-10 -58t-23 -44.5q-33 -42 -95 -79zM39 597q10 -11 32.5 -18t51.5 -7q20 0 35.5 3t23.5 11l-1 1q8 7 17 14t17 14q9 19 1 32q-5 9 -15 9q-14 0 -33.5 -13.5t-36.5 -27.5 q-11 -11 -24.5 -15t-28 -3.5t-29 6t-25.5 13.5q0 -1 15 -19zM140 310h9t7 1h-1q16 3 24 3q2 0 3 -1q-1 3 -2 5t-3 4q-13 14 -27.5 16t-37.5 -2q-32 -7 -64 21q34 -47 92 -47z"/>
<glyph horiz-adv-x="474" unicode="4" glyph-name="four" d="M172 34q17 -14 38 -24.5t38 -17.5q8 -2 21 -2q18 0 25 3t8 10q6 48 15.5 107t20.5 125l-15 12q8 0 15.5 0.5t15.5 1.5t15 1t15 1q20 2 28.5 3.5l8.5 1.5v3q-6 14 -8 20t-2 7v2q1 0 0 3l1 1q-1 5 -3 12t-10 25v1q-8 20 -47 23q3 -11 5.5 -21t6.5 -21q4 -19 -0.5 -26 t-20.5 -9l-30 -2l-30 -2q-11 -66 -20.5 -124.5t-15.5 -106.5q-3 -19 -9.5 -24t-23.5 1q-11 5 -24.5 11.5t-27.5 15.5q2 -2 4.5 -5t5.5 -6zM306 408q27 -2 39 -33q2 -5 3 -9t3 -8l10 13q3 15 5.5 29.5t5.5 28.5q11 60 21 111.5t19 93.5v1q3 12 3 17q0 1 -27 25q-5 3 -12 8 t-16 11q0 -10 -3 -25q-11 -51 -24 -119t-27 -144zM54 386q17 3 37 5.5t41 4.5q15 24 30.5 49t30.5 48q7 37 13.5 72t14.5 69q-22 -27 -44.5 -58t-43.5 -63.5t-41 -64.5t-38 -62zM20 222l-1 -1q10 -13 44 -13q8 0 13.5 0.5t9.5 1.5l-1 1q15 3 30.5 6t32.5 5q1 8 2 16.5 t3 17.5q-29 -5 -57 -9.5t-54 -10.5q-10 -3 -18 -4t-16 4q3 -4 6 -7t6 -7z"/>
<glyph horiz-adv-x="393" unicode="5" glyph-name="five" d="M134 5h4q43 1 75 14t53.5 31.5t34.5 40t18 39.5q21 66 21 111q0 42 -18 76t-51 60q-3 2 -5.5 4t-5.5 4q23 -40 25 -95t-20 -124q-6 -20 -18.5 -43.5t-33 -43.5t-49 -34t-66.5 -15q-30 -1 -59 8.5t-53 32.5q25 -37 64 -51.5t84 -14.5zM158 621q-13 -40 -24 -79t-19 -74 q31 0 61 -12q9 38 18.5 70.5t17.5 59.5l-12 10q15 2 30 5t29 5q51 9 96 15q36 6 37 4q-1 1 -4 14l1 2q-1 5 -2 10.5t-2 10.5q-2 11 -4.5 22.5t-10.5 29.5v1q-8 19 -46 22q3 -14 5 -27.5t5 -26.5q5 -20 0.5 -27t-21.5 -10q-35 -5 -74 -11.5zM41 337h-1q5 -5 9.5 -9t9.5 -9 l-1 -2q2 -4 8.5 -5.5t23.5 -1.5q16 0 30 6q11 5 21 7t19 3q-3 12 -6 18q-4 4 -13.5 6t-21.5 1.5t-24 -3t-21 -6.5q-16 -7 -23 -7.5t-13 4.5q2 -2 3 -2zM16 360q6 -7 11.5 -11.5t10.5 -9.5q-3 2 -8 9q-7 6 -12.5 11t-10.5 10q3 -5 9 -9z"/>
<glyph horiz-adv-x="408" unicode="6" glyph-name="six" d="M71 17q23 -11 46 -16t46 -5q32 0 51.5 7.5t31.5 18.5q18 18 36 44.5t32 59t22.5 69t8.5 73.5v11q0 6 -1 13v1q-2 34 -16.5 63t-56.5 56q9 -17 12.5 -36.5t5.5 -41.5q3 -45 -4 -88t-20.5 -80.5t-31.5 -67t-37 -47.5q-12 -11 -27 -19t-34 -10t-43 3t-54 19q-17 9 -28 18 q12 -13 27 -23.5t34 -21.5zM138 494q17 1 32 -3t31 -12q29 61 61 113t67 91q6 7 8.5 9.5l4.5 4.5q-3 1 -17 13q-7 4 -16.5 8.5t-21.5 9.5q-1 -4 -3.5 -7.5t-5.5 -7.5q-42 -48 -77 -103.5t-63 -115.5zM69 305q-14 -60 -14.5 -100.5t16.5 -51.5q17 -13 38 5v7q0 44 15 104 l-1 2q12 28 24.5 46t21.5 26q-3 20 -16 28q-17 10 -41.5 -8.5t-42.5 -57.5zM342 697q2 -2 2 1l-0.5 -0.5t-1.5 -0.5z"/>
<glyph horiz-adv-x="429" unicode="7" glyph-name="seven" d="M28 42q5 -9 19 -20.5t31 -23.5q11 -6 20 -9.5t20 -3.5q15 0 21.5 2.5t8.5 7.5q27 77 59 157t65.5 156.5t67 147t64.5 128.5q8 13 10.5 20t2.5 11q0 7 -15 31q-2 2 -2.5 4.5t-2.5 4.5l1 1q-5 9 -14 23.5t-26 39.5l1 2q-12 19 -37 22q8 -14 15 -26t13 -23q11 -19 12 -37 t-11 -40q-32 -60 -66 -131t-68 -147.5t-65.5 -155.5t-57.5 -153q-6 -18 -13 -20t-23 8l-16 12t-16 14zM208 650q-16 -2 -34.5 -5t-36.5 -6t-34 -5.5t-28 -4.5q-9 -2 -18.5 -1.5t-18.5 5.5q1 -3 3 -7q0 -1 2 -3v1l-2 2q0 2 1 1.5t6 -5.5l-1 -2q14 -18 54 -18q7 0 10 0.5 t7 1.5q6 1 13 2t16 3q10 2 21 3.5t22 3.5q5 9 9 17.5t9 16.5z"/>
<glyph horiz-adv-x="436" unicode="8" glyph-name="eight" d="M337 525q-15 -34 -43 -63t-65 -58q40 -36 58.5 -71.5t21.5 -71t-7.5 -71t-29.5 -71.5q-22 -39 -49.5 -61t-58 -31t-62.5 -5t-63 18q-18 7 -36 20q14 -14 31 -25.5t39 -20.5q19 -8 40.5 -13t47.5 -5q51 0 94 21t70 69q18 34 29 64.5t11 56.5q0 32 -20 68t-66 78l-1 23 q42 33 72 61.5t41 53.5v1q20 41 20 72q0 32 -18 66.5t-49 66.5q-14 14 -29 23q31 -42 39 -92.5t-17 -102.5zM146 336q-30 -25 -51 -55t-32 -62t-3.5 -51.5t19.5 -25.5q15 -8 33 4q0 11 1.5 20t3.5 17v1q10 29 23.5 54.5t30.5 45.5q-3 29 -25 52zM204 675 q-30 -26 -49.5 -52.5t-28 -51t-6.5 -46t14 -37.5q13 11 24.5 21.5t21.5 21.5q5 23 17 46t32 44q0 28 -25 54z"/>
<glyph horiz-adv-x="406" unicode="9" glyph-name="nine" d="M2 38q5 -5 17.5 -12t30.5 -18q3 -2 5.5 -3.5t5.5 -3.5h-1q7 -5 29 -5q20 0 28.5 4t15.5 11q52 49 96.5 116t77.5 139t51.5 142.5t18.5 126.5v16q-2 50 -24 85t-62 64q27 -43 31 -108q3 -58 -14 -133t-49.5 -151.5t-77.5 -147t-98 -120.5q-14 -13 -26 -18t-29 6 q-12 7 -21.5 13t-19.5 14h-1l6.5 -6.5t9.5 -10.5zM131 425q0 40 11 84h-1q10 36 22.5 68t23.5 49q-3 30 -17 38q-10 5 -21.5 -3.5t-22.5 -25.5t-21.5 -40.5t-17.5 -49.5q-6 -24 -9 -47t-2 -42.5t6.5 -33t16.5 -18.5q16 -9 32 3v18zM90 290q-9 2 -18 3.5t-17 6.5 q-11 5 -20.5 10.5t-17.5 11.5q25 -26 65 -45l4 6t4 7zM-14 55q-2 2 -2 0t2 0z"/>
<glyph horiz-adv-x="246" unicode=":" glyph-name="colon" d="M89 299h1q20 0 35 6.5t25 16.5t16 21t8 19q1 7 1.5 13t0.5 10q0 16 -14 34t-45 32q4 -12 4 -26q0 -8 -0.5 -15t-1.5 -14q-2 -9 -7.5 -21.5t-14 -24t-20.5 -19t-27 -7.5q-17 -1 -34 9q12 -16 31 -25t42 -9zM28 -8l-2 -1q8 -2 23 -2q32 0 52 13.5t24 34.5q1 5 1.5 11 t0.5 11q0 20 -12.5 43.5t-48.5 37.5q5 -17 5.5 -34.5t-1.5 -30.5q-6 -32 -28 -49t-51 -9q-11 3 -22 9q19 -24 59 -34z"/>
<glyph horiz-adv-x="260" unicode=";" glyph-name="semicolon" d="M21 -104q-7 -17 -15 -24t-19 -9q-25 -1 -54 15q-1 -2 -1 -5q0 -4 31 -19l-1 -1q12 -7 26.5 -11t34.5 -4h7q19 4 30 9t15 14l-1 2q7 13 15 33t15.5 42.5t14 44.5t9.5 40l-1 1q4 13 4 16q0 12 -14 30t-40 41h1q-5 5 -10 9l-10 8q25 -35 15 -68q-4 -21 -10.5 -44.5 t-13.5 -46t-14.5 -42t-13.5 -31.5zM51 356h1q22 0 36 7.5t22.5 19t11.5 24t4 21.5v10q0 12 -3.5 25.5t-11 27.5t-20.5 27t-32 23q8 -20 10.5 -39t1.5 -35q-1 -11 -4 -26t-10 -28.5t-18 -22.5t-27 -9q-15 -1 -32 9q29 -34 71 -34z"/>
<glyph horiz-adv-x="348" unicode="&lt;" glyph-name="less" d="M218 490q-34 -17 -68 -37t-69 -42q13 -8 25 -15t23 -14v2q38 23 72 43t64 36l-1 1q8 3 12.5 5t7.5 2l-2 4t-3 5q-3 5 -12.5 17t-25.5 32q-7 7 -22 10q2 -3 3.5 -6t3.5 -5q10 -15 8 -23.5t-16 -14.5zM-24 338q0 -3 0.5 -4.5t0.5 -4.5q2 2 5 -1q53 -29 105.5 -59t103.5 -67 l-1 -1q7 -5 27 -5q15 0 21 2.5t8 7.5q4 15 6.5 28.5t3.5 26.5v3q0 10 -28 32q-5 4 -12 8.5t-16 10.5q1 -5 1 -15q-3 -36 -9 -58q-5 -17 -11.5 -20t-20.5 8q-42 30 -89 57.5t-95 53.5v-3zM284 471q5 -7 5 -4q0 4 -5 4z"/>
<glyph horiz-adv-x="436" unicode="=" glyph-name="equal" d="M28 232q-16 -3 -23 -1q2 -2 3.5 -5t3.5 -6v-1q4 -7 13.5 -10.5t29.5 -3.5q6 0 9 0.5t7 1.5q129 30 262 36q14 1 23 1.5t11 -0.5q0 -1 0.5 -1.5t0.5 0.5l-1 1q-2 1 -3 9l1 1q-2 9 -6.5 20.5t-16.5 34.5l1 1q-7 16 -42 19q2 -8 4.5 -15.5t4.5 -15.5q5 -17 0.5 -23t-18.5 -7 q-137 -6 -264 -36zM35 438q-16 -2 -21 0q2 -5 5 -10q5 -9 15 -12.5t30 -3.5h8t7 1h-2q50 8 98.5 11.5t99.5 3.5h34t34 -1q2 0 4 -0.5t4 -0.5h30l-2 10q-1 5 -6 20t-13 37q-6 15 -46 20q3 -9 5.5 -17.5t4.5 -16.5q4 -17 -1 -23t-19 -4q-70 2 -136.5 -0.5t-132.5 -13.5z"/>
<glyph horiz-adv-x="370" unicode="&gt;" glyph-name="greater" d="M259 437q-6 -40 -15 -68q-5 -17 -11.5 -24.5t-20.5 -14.5q-51 -20 -91 -39.5t-78 -42.5q-16 -12 -29 -3q5 -5 9.5 -10t10.5 -10q9 -9 33 -9q12 0 17 1t8 3l-1 1q43 26 82 45.5t85 37.5q22 11 30 16t10 13v1q6 19 10 35t6 30q1 5 1.5 8.5t0.5 5.5q0 -1 -27 18q-7 5 -14 9 t-15 9q0 -7 -1 -12zM59 450h-1q11 -5 23 -12t29 -16q2 1 4.5 2t4.5 2q-24 14 -47.5 26.5t-46.5 23.5h-2q3 -8 10 -13t26 -13z"/>
<glyph horiz-adv-x="453" unicode="?" glyph-name="question" d="M81 210q15 -11 36 -20.5t43 -9.5q15 0 24 1t9 5v5q4 43 14.5 73.5t25 52t30.5 37t33 29.5q23 19 43 37t28 32q15 24 26 53t11 59q0 26 -10 57t-34 69q-9 14 -23 27.5t-33 24.5q1 -1 1.5 -2t1.5 -2q25 -39 34 -75.5t7.5 -69.5t-11.5 -60.5t-23 -48.5q-20 -32 -47.5 -53.5 t-54 -47t-47.5 -60.5t-27 -93q1 -17 -6.5 -22t-19.5 -2.5t-27 10t-28 16.5q5 -8 23 -22h1zM-6 577q0 -1 7.5 -5t19.5 -11h-1q22 -13 61 -13q24 0 43 5.5t30 16.5q5 5 9.5 10.5t9.5 10.5q20 22 38 40.5t30 26.5v1q-2 16 -10.5 23t-17.5 7q-14 0 -27 -8t-26.5 -21t-27.5 -28.5 t-29 -31.5q-20 -23 -49.5 -27t-57.5 11q-2 -6 -2 -7zM95 -20q4 -1 8 -1.5t10 -0.5q35 0 56 14t25 34l-1 2l2 5v2v15q0 16 -11.5 33t-46.5 33q3 -12 3 -26v-15q0 -9 -1 -12q-5 -28 -26.5 -46.5t-54.5 -11.5q-19 3 -30 11q11 -14 28.5 -23t38.5 -13z"/>
<glyph horiz-adv-x="595" unicode="@" glyph-name="at" d="M87 310q0 27 3 59q1 7 1.5 13t2.5 13q1 7 2 13.5t3 13.5q13 67 34.5 117t47.5 83t54.5 49t56.5 16q22 0 48 -13l-1 -1q2 -2 4.5 -2.5t4.5 -2.5q-17 20 -42 32q-35 17 -74 11t-75.5 -36t-66.5 -84t-46 -132q-15 -72 -11.5 -127t17 -94t33.5 -63t38 -34q-14 28 -24 69.5 t-10 99.5zM472 340q-13 -63 -32 -100t-40.5 -54.5t-44.5 -18.5t-45 9q-35 12 -54 52q-5 -5 -8.5 -9t-8.5 -7q2 0 2.5 -0.5t1.5 -0.5q-3 0 -4 1q-32 -21 -75 -3q-7 2 -17 9q22 -24 51 -35q8 -3 18.5 -5t24.5 -2q28 0 47 8q16 -20 57 -34h-1q19 -8 45 -8q21 0 42 8t39 27 t33 50t24 76q12 54 12 107q0 75 -28.5 144t-89.5 117q23 -33 37.5 -73t20.5 -83t4 -87.5t-11 -87.5zM276 516q-3 20 -14 26q-5 2 -16 -8.5t-24 -30.5t-25 -48t-19 -61q-14 -65 -9.5 -93t16.5 -32q10 -4 20 10.5t21 42.5q2 8 3.5 16.5t3.5 18.5q6 29 14.5 55t16.5 46 q3 14 6 28.5t6 29.5zM389 393l6 33q1 6 1.5 11t0.5 9q0 5 -7 12t-28 23l6 9q-8 34 -53 56q-4 2 -6 2q1 -4 2 -7.5t2 -7.5q23 -17 27 -31.5t0 -37.5q-2 -12 -7 -38.5t-10 -57.5t-9 -61t-4 -49q0 -16 5 -21q11 -13 28 8.5t33 72.5q3 20 6.5 39.5t6.5 35.5zM165 36 q48 -21 92 -21q41 0 58 9q8 4 12 4v2q-5 8 -19 16t-31 15q-2 -7 -9 -10q-24 -11 -58 -10.5t-79 21.5q-11 5 -21.5 10.5t-21.5 13.5q38 -34 77 -50zM327 28q5 -8 5 -3q0 3 -5 3z"/>
<glyph horiz-adv-x="479" unicode="A" glyph-name="A" d="M312 7l-1 -1q13 -7 30.5 -8t39.5 -1q25 0 33 2.5t8 8.5v5q-3 72 -6.5 150.5t-5.5 156.5t-3.5 150.5t-1.5 132.5q0 20 0.5 38.5t0.5 35.5v7q0 11 -7.5 20t-30.5 19q-4 2 -7 3t-7 3q-1 0 -1.5 0.5t-1.5 0.5v-13q-1 -57 -0.5 -136.5t3 -168.5t6 -181.5t7.5 -176.5 q1 -18 -4 -25t-22 -7t-32 1.5t-31 9.5q-1 0 -1.5 0.5t-1.5 0.5q4 -9 12.5 -15t24.5 -12zM235 226q-48 -10 -96.5 -20t-85.5 -24q-14 -38 -24.5 -71.5t-20.5 -65.5q-6 -17 -13.5 -20t-22.5 5q-8 5 -17 10t-19 13l13 -13q1 -1 9.5 -7t20 -14t16.5 -11l9 -6q4 -3 26 -3 q29 0 32 10q10 32 20.5 66t24.5 72l-9 9q33 12 68 20.5t71 16.5q-1 8 -1.5 16t-0.5 17zM112 356q33 7 70 12q11 30 21 58.5t20 55.5q-1 44 -1.5 86t-0.5 84q-23 -60 -51.5 -135.5t-57.5 -160.5z"/>
<glyph unicode="B" glyph-name="B" d="M273 404q25 -18 41.5 -50.5t21.5 -67.5q5 -42 -5.5 -72.5t-33.5 -59.5q-17 -23 -40 -43.5t-49 -37.5t-52.5 -30.5t-50.5 -22.5q-13 -5 -22 -7.5t-17.5 -1.5t-16.5 5.5t-18 13.5q-10 6 -18 12t-15 14q12 -14 26.5 -26t38.5 -27l-2 -2q9 -8 19 -11.5t29 -3.5q13 0 22.5 2 t19.5 6h-1q26 10 55 24t56 30.5t50 35.5t38 39q21 27 32.5 50t11.5 47q0 5 -0.5 11t-1.5 13q-5 29 -22.5 58t-46.5 50v24q28 21 40.5 33t21.5 23v1q2 2 9 9.5t9 9.5q18 23 31 50.5t13 59.5q0 12 -3 27q-7 35 -23.5 66t-39.5 62q-14 16 -35 24q15 -23 25.5 -49.5t17.5 -59.5 q8 -48 -8 -90t-42 -74q-14 -16 -29.5 -32t-35.5 -32zM109 467q37 18 68 41q4 23 8 43t9 40l-7 9q52 33 80 36v5q-5 21 -41 19.5t-87 -33.5q-8 -35 -15 -75t-15 -85zM83 318q-6 -38 -12 -75t-11 -75q35 13 65 32q2 11 3.5 21.5t3.5 21.5q2 9 3 18.5t3 18.5l-8 12q41 20 63 20 q5 0 11 -3q-3 10 -13 17t-25.5 9.5t-36.5 -1.5t-46 -16z"/>
<glyph horiz-adv-x="428" unicode="C" glyph-name="C" d="M120 216q0 38 4.5 80.5t12.5 84.5q7 32 16.5 68t20 69.5t21.5 62.5t20 47q-1 17 -4.5 29.5t-11.5 17.5q-12 5 -28 -19t-33 -63t-32 -86t-24 -89q-9 -45 -13.5 -91t-3.5 -84.5t7.5 -64.5t20.5 -32q12 -6 29 6q-2 14 -2 30v34zM316 192q-5 2 -9.5 3t-9.5 2q-2 -7 -3.5 -15 t-4.5 -16q-11 -35 -29 -65t-36 -50q-19 -19 -49.5 -30.5t-60.5 -7.5q-31 4 -56.5 15.5t-45.5 21.5q-5 1 -8 5q8 -8 17.5 -15.5t19.5 -14.5q-3 0 3 -3v1q-1 0 -3 2q2 -1 6.5 -3t8.5 -4q17 -8 38 -16.5t58 -13.5h-1q5 -1 17 -1q35 0 64 10t43 24q21 23 40 52t28 57 q5 14 7.5 23.5t2.5 14.5t-8 10.5t-28 13.5h-1zM336 440h-1q3 -1 7 -1.5t12 -0.5q24 0 28.5 4.5t6.5 12.5q0 1 0.5 -2t0.5 -2v3q5 23 7 53t2 59v20t-1 19q-2 26 -8.5 46t-26.5 40q-8 7 -17 13.5t-20 12.5q8 -16 11.5 -33.5t5.5 -37.5q2 -37 0 -81t-8 -74q-4 -14 -9 -22.5 t-26 -2.5q-13 3 -23 8t-18 11q11 -15 29 -26t48 -19z"/>
<glyph horiz-adv-x="489" unicode="D" glyph-name="D" d="M56 3q19 -14 52 -14q24 0 35 6l-1 1q78 33 134.5 85.5t94 115.5t55.5 130.5t18 130.5q0 77 -29 147q-16 38 -38.5 65t-48.5 44q18 -27 33 -63q19 -45 25 -101.5t-1 -117t-28.5 -121.5t-57 -116t-86.5 -100t-117 -73q-35 -20 -71 9q-15 10 -24 19q10 -11 22.5 -21.5 t32.5 -25.5zM63 178q19 12 36 26t32 29q14 96 29.5 187t33.5 179l-9 11q21 10 32 10q5 0 8.5 -2t8.5 -5q-14 21 -38.5 29t-56.5 -6q-22 -109 -40.5 -223t-35.5 -235zM-16 65l1 1l-3 3z"/>
<glyph horiz-adv-x="385" unicode="E" glyph-name="E" d="M186 522q5 22 8.5 42t8.5 40l-12 12q35 7 67.5 12t63.5 10q5 1 11 1.5t11 1.5q21 3 29 5t8 4v4q-2 2 -2.5 4.5t-0.5 10.5q-2 11 -5 23t-13 34v2q-8 22 -46 23q4 -12 6 -23t5 -23q3 -21 -1.5 -28.5t-21.5 -10.5q-35 -5 -73.5 -11t-80.5 -14q-8 -37 -16 -78t-18 -86 q16 3 31.5 4.5t32.5 2.5q2 10 4 19.5t4 18.5zM130 238l6 33l-11 11q26 8 53.5 15t55.5 14q11 3 22.5 5.5t22.5 5.5q33 10 34 7q0 3 -3 15v1q-3 14 -7 29t-15 38v1q-7 16 -43 17q3 -11 5.5 -21t4.5 -21q5 -21 1 -28t-21 -12q-38 -10 -77.5 -19.5t-76.5 -20.5 q-5 -29 -10 -56.5t-10 -53.5q31 9 64 13q1 7 2 13.5t3 13.5zM22 13q5 -5 14.5 -9t32.5 -4q11 0 18.5 1.5t14.5 3.5h-1q22 6 45.5 13t47.5 14q20 6 39 11.5t38 10.5q18 5 24.5 7t7.5 1v7q-5 12 -6 22q-4 11 -7.5 24t-11.5 30q-8 18 -44 19q4 -11 6.5 -22t6.5 -22 q4 -20 0.5 -27.5t-20.5 -12.5q-42 -12 -86 -25t-84 -24q-22 -8 -35 -6t-21 9zM381 654q0 -2 1 -3zM303 62q0 -1 0.5 -1.5t0.5 1.5h-1z"/>
<glyph horiz-adv-x="380" unicode="F" glyph-name="F" d="M-33 38q18 -11 44.5 -24t50.5 -13q17 0 27 2t11 8v2q1 4 1 7t1 8q8 52 18 115.5t22 130.5l-10 11q35 11 71.5 21.5t71.5 18.5q20 3 28 4.5l8 1.5l-1 3t-3 11l1 1q-3 14 -7 29t-15 38q-4 8 -15 12t-28 6q3 -11 5.5 -21t4.5 -21q5 -20 0.5 -28t-21.5 -11q-35 -8 -72.5 -18 t-72.5 -21q-13 -72 -23.5 -139.5t-18.5 -121.5q-1 -17 -10.5 -21.5t-23.5 -1.5t-29.5 11t-28.5 16q2 -7 14 -16zM301 666q-35 -6 -74 -12t-81 -14q-8 -33 -14.5 -74.5t-16.5 -87.5q16 2 31.5 4t32.5 3l6 36q4 23 7.5 44t8.5 39l-12 11q28 5 53 9.5t50 8.5q13 2 26.5 4 t25.5 4h-1q21 4 28.5 5t7.5 2v5q0 4 -1 9q-3 20 -23 64q-7 13 -15.5 18.5t-28.5 6.5q9 -24 12 -47q3 -21 -1 -28t-21 -10z"/>
<glyph horiz-adv-x="442" unicode="G" glyph-name="G" d="M113 218q0 20 1 41.5t4 43.5q-18 24 -27 68q-5 23 10 29t39 11q17 70 38 128.5t38 87.5v6q-2 15 -4.5 26t-8.5 13q-12 5 -28.5 -14t-33.5 -53.5t-33.5 -81.5t-28.5 -99q-11 -43 -16.5 -90t-4.5 -87.5t8 -69t21 -35.5t30 7q-2 15 -3 32t-1 37zM24 39q51 -34 115 -47 q15 -3 32 -3q56 0 88 26q41 37 72 95t50 135l3.5 17.5t1.5 13.5q0 8 -15 37l-3 6q-2 5 -8.5 15.5t-17.5 24.5v1q-11 14 -33 17q2 -5 4.5 -9t4.5 -8q11 -21 12 -37t-4 -41q-21 -85 -51 -145t-66 -93q-48 -41 -107 -27q-26 5 -51 15t-48 26q5 -5 10.5 -9.5t10.5 -9.5zM339 488 q-4 -17 -9.5 -23t-21.5 -4q-14 2 -25.5 7t-21.5 12q25 -32 84 -44q2 0 5.5 -0.5t5.5 -0.5q21 0 28.5 3.5t9.5 11.5q2 18 4 44.5t2 53.5q0 30 -3 56t-13 48.5t-34 47.5q-6 6 -13.5 12t-17.5 11q10 -17 15 -35.5t8 -41.5q2 -17 2.5 -39t0 -43.5t-2 -41.5t-3.5 -34zM175 258 q2 5 3.5 10t3.5 10q-29 -3 -49 11q15 -23 42 -31z"/>
<glyph horiz-adv-x="452" unicode="H" glyph-name="H" d="M388 704q-12 -62 -26 -142t-28.5 -168t-28 -178t-24.5 -171q0 -14 -5 -19t-13.5 -4t-20.5 5.5t-25 9.5t-27 14q6 -11 21.5 -20t36.5 -19q2 -1 6.5 -2.5t6.5 -2.5q11 -5 21 -7.5t23 -2.5q31 0 31 8v2q11 81 24.5 171t28 178.5t28.5 168.5t26 142v-1q1 5 1.5 10t0.5 7 q0 1 -26 26q-6 5 -13.5 10t-15.5 10q1 -9 -2 -25zM-18 29l-1 -1q3 -2 17.5 -8.5t32.5 -13.5q-3 0 6 -3q18 -6 32 -6q17 0 24 2.5t8 8.5q2 14 4 29t4 32q5 38 11 81.5t14 90.5l-12 12q13 3 25.5 5.5t26.5 5.5q3 0 5 1q2 8 2.5 17t2.5 18q-26 -6 -52.5 -11t-52.5 -11 q-11 -66 -18.5 -125t-14.5 -107q-3 -17 -9 -22t-23 1q-14 6 -29.5 12t-27.5 15q9 -11 25 -23zM204 653l2 16q0 2 -5.5 7.5t-21.5 18.5v1q-11 10 -28 18q1 -9 -2 -25q-10 -46 -21 -111t-24 -140q16 2 31.5 4t31.5 4q10 62 19.5 115t17.5 92zM35 5h-1q-1 0 -1.5 0.5t-1.5 0.5 q1 -1 4 -1z"/>
<glyph horiz-adv-x="208" unicode="I" glyph-name="I" d="M170 696q-12 10 -28 19q1 -8 -2 -26q-8 -37 -17 -87t-18.5 -106.5t-19 -117.5t-18.5 -120t-16.5 -113.5t-13.5 -98.5q-3 -17 -9 -22t-23 1q-16 6 -30 12t-27 15q5 -9 25 -23q8 -6 26.5 -14t40.5 -16q8 -2 20 -2q17 0 24 2.5t8 8.5q9 66 21.5 154t27 179t28.5 173.5 t26 138.5l2 16q0 2 -5.5 7.5t-21.5 18.5v1z"/>
<glyph horiz-adv-x="418" unicode="J" glyph-name="J" d="M52 27q-30 10 -52 29q14 -17 35.5 -30.5t51.5 -24.5q14 -5 30 -7.5t32 -2.5q35 0 56 8.5t35 21.5q31 30 55 88.5t43 141t33 186.5t25 225v1q1 5 1 8v6q0 2 -5.5 8t-22.5 21q-5 4 -12 7.5t-15 8.5v-10t-1 -11q-11 -125 -25 -231.5t-32.5 -190.5t-41.5 -142.5t-52 -86.5 q-23 -21 -55.5 -31t-82.5 8zM110 197v1q-2 51 -68 94q11 -24 13 -54q2 -48 5.5 -69.5t19.5 -24.5q14 -1 30 42v11z"/>
<glyph horiz-adv-x="443" unicode="K" glyph-name="K" d="M180 332q13 -30 28.5 -63t31 -63.5t29.5 -56.5t25 -44q11 -17 9 -27.5t-16 -20.5q-8 -7 -20 -12t-23 -7q-11 -5 -22.5 -5.5t-23.5 6.5l3 -3h-1q10 -16 25.5 -22t35.5 -6q11 0 18 1t11 3l-3 1q17 4 30.5 8t18.5 8l-1 1q14 10 21 12q-2 2 -4 6t-5 9q-10 16 -23.5 41 t-28.5 56t-31 65t-30 67l-2 15q28 39 58.5 82.5t58 85.5t49.5 79.5t33 65.5q7 15 9.5 25t2.5 17q0 3 -5 20q-6 16 -16.5 32.5t-27.5 36.5q-6 6 -24 8q3 -7 6.5 -14t6.5 -15q6 -17 5 -34t-11 -42q-13 -32 -35 -71t-49 -81t-56.5 -84.5t-56.5 -79.5zM4 12l15 -6q10 -5 17.5 -8 t24.5 -3q30 0 30 11v2q4 26 8 56t9 63q2 10 3 20.5t3 21.5q-13 23 -24.5 46.5t-22.5 46.5q-9 -63 -16.5 -117t-14.5 -99q0 -16 -5 -21.5t-13.5 -4.5t-20.5 6.5t-27 11.5q-13 5 -22 11q6 -11 20 -19.5t36 -17.5zM196 664v1q3 12 3 16q0 2 -28 26q-5 5 -12 9.5t-15 9.5 q1 -5 0 -11t-3 -14q-9 -42 -18.5 -96t-20.5 -120q19 29 40.5 60.5t42.5 63.5q2 15 5 28.5t6 26.5zM356 42q3 -3 3 -1q0 1 -3 1z"/>
<glyph horiz-adv-x="355" unicode="L" glyph-name="L" d="M203 667v1q3 12 3 16q0 2 -6 7.5t-20 18.5q-5 5 -12.5 9.5t-16.5 9.5q1 -5 0 -11t-3 -14q-11 -49 -23 -110t-24 -127t-24 -134t-22 -132q17 4 32 7t31 5q10 59 20.5 120.5t22 121t22 113.5t20.5 99zM215 81q-42 -12 -86 -24.5t-84 -24.5q-23 -10 -35.5 -7.5t-20.5 9.5 l21 -21q5 -5 13 -9t32 -4q17 0 35 6h-1q61 18 128 37l42 12q30 9 33 6q0 3 -1 8l-2 10q-2 14 -7.5 30.5t-15.5 36.5q-5 9 -14 13.5t-29 5.5q4 -11 6.5 -21.5t4.5 -21.5q5 -21 3 -28t-22 -13zM292 61l1 -1v0q0 1 -1 1z"/>
<glyph horiz-adv-x="616" unicode="M" glyph-name="M" d="M393 25q8 -7 26 -13.5t38 -13.5h-1q2 -1 7 -1h11q21 0 27.5 5t8.5 14q4 35 10.5 84.5t15 107.5t17.5 120t18.5 121t18 111.5t15.5 91.5q3 13 3 20q0 10 -33 30q-5 3 -11 6l-12 6v-11t-2 -14q-7 -39 -15.5 -91.5t-18 -111.5t-18.5 -121.5t-17.5 -120t-15 -107.5t-10.5 -85 q-4 -18 -10 -26t-23 -2q-14 5 -29 11t-26 14q6 -10 26 -24zM97 497q-10 -60 -19.5 -122t-18 -121t-15 -112.5t-10.5 -95.5q-3 -18 -9 -23.5t-22 -0.5q-14 5 -28 11.5t-26 14.5q6 -10 26 -24q8 -6 25.5 -13.5t37.5 -14.5h-1q2 -1 6.5 -1.5t12.5 -0.5q20 0 26 3t7 10 q5 51 13 117t19 138q-8 55 -13.5 114.5t-10.5 120.5zM201 75q9 -5 50 -17h-1q3 -1 7 -1.5t12 -0.5q11 0 17 1t9 3.5t4.5 6.5t3.5 9q8 26 19 61t25 76q7 66 17.5 145t23.5 152q-17 -45 -37 -100.5t-39.5 -110t-36 -104t-26.5 -83.5q-7 -21 -11.5 -27t-22.5 -1q-24 7 -46 18 h-1q5 -8 13 -14t20 -13zM247 640l-3.5 21t-7 17t-15 16t-27.5 17q-3 1 -7 3q2 -7 2.5 -15t2.5 -17q0 -7 0.5 -17t3.5 -37t8.5 -77.5t14.5 -137.5q8 25 17.5 53t20.5 58q-4 33 -6 53.5t-3 33t-1 18.5v11z"/>
<glyph horiz-adv-x="468" unicode="N" glyph-name="N" d="M238 30q21 -11 67 -25h-1q8 -2 20 -2q37 0 39 16q9 69 20.5 154.5t23.5 172.5t24.5 168.5t23.5 142.5q1 6 1.5 11t0.5 9t-5.5 10.5t-21.5 19.5h1q-8 6 -14.5 10t-14.5 8q1 -11 -2 -30q-11 -61 -23.5 -142.5t-24.5 -168.5t-23.5 -172.5t-20.5 -154.5q-3 -38 -39 -26 q-16 5 -31.5 11.5t-31.5 14.5q-1 0 -2 0.5t-2 0.5q13 -14 36 -28zM-28 34l-2 -1q5 -5 22.5 -11.5t36.5 -14.5q2 -1 5 -2t5 -2h-1q4 -2 10.5 -2.5t12.5 -0.5q18 0 23.5 2.5t6.5 7.5q5 48 14.5 113t20.5 138q0 2 0.5 4.5t0.5 5.5q-9 44 -17.5 90.5t-16.5 93.5 q-8 -56 -16.5 -113.5t-16 -110.5t-14 -100t-10.5 -83q-2 -17 -8.5 -21.5t-23.5 2.5q-13 5 -26 9.5t-26 13.5l8.5 -8.5t11.5 -9.5zM218 354q5 47 10.5 92t11.5 90q-5 32 -8.5 59.5t-5.5 45.5q-3 21 -12 33.5t-33 26.5l1 1q-4 2 -7.5 4.5t-8.5 4.5q2 -6 2.5 -13t2.5 -15 q3 -23 8 -60.5t11.5 -82t13.5 -93t14 -93.5z"/>
<glyph unicode="O" glyph-name="O" d="M351 694q-5 5 -12.5 10.5t-15.5 10.5q11 -19 17.5 -40t11.5 -46q9 -62 8 -137.5t-13.5 -152t-36.5 -147t-61 -121.5q-26 -31 -55.5 -41.5t-67.5 -4.5q-25 4 -51.5 12t-48.5 25q15 -15 30 -27q18 -14 47.5 -22t60.5 -13q7 -1 14 -1.5t15 -0.5q37 0 65 13t52 41 q27 38 47 87.5t33 104t19 112.5t6 112q0 31 -2 61t-6 57q-5 29 -17 54.5t-39 53.5zM207 665q-12 5 -28 -15.5t-31.5 -55t-29.5 -78.5t-23 -85q-9 -42 -13.5 -89t-3.5 -87.5t8 -69.5t22 -36q12 -8 27 7q-2 16 -2 34v39q0 40 4.5 83t12.5 82q7 33 16.5 67.5t19.5 66t20.5 57 t19.5 40.5q-6 34 -19 40z"/>
<glyph horiz-adv-x="472" unicode="P" glyph-name="P" d="M87 250q-9 -54 -17 -106t-14 -103q-4 -16 -10 -21t-23 0q-14 6 -28 11.5t-26 13.5q8 -14 28 -24.5t46 -20.5q4 -2 7 -3t7 -3q3 -1 7.5 -1.5t12.5 -0.5q19 0 25.5 3.5t8.5 11.5q6 51 14 101t17 104l-10 12q42 16 83 37.5t77 46t65 52t47 54.5q20 30 34.5 60.5t14.5 59.5 q0 18 -4 37q-9 42 -29 76.5t-43 67.5q-14 17 -35 24q16 -25 29.5 -55t22.5 -70q11 -51 -3.5 -91.5t-38.5 -76.5q-20 -30 -49.5 -59t-64.5 -54.5t-73.5 -46.5t-77.5 -36zM116 422q39 18 69 42q12 63 24 120l-7 10q50 27 76 29q-1 2 -1 5q-2 10 -13 15t-28 4.5t-38.5 -7 t-43.5 -19.5q-10 -45 -19 -94.5z"/>
<glyph horiz-adv-x="462" unicode="Q" glyph-name="Q" d="M327 78q11 -17 10.5 -27t-13.5 -19q-11 -10 -23 -16t-24 -10q-30 -8 -52 20q-4 5 -6.5 8t-5.5 6q-19 -13 -41 -15t-46 0q-26 3 -52 11.5t-48 25.5q15 -15 30 -27q19 -14 47.5 -22.5t60.5 -12.5q7 -1 13 -1h14q15 0 29 1t25 5q2 -2 3.5 -4l4.5 -6q13 -16 51 -16q15 0 17 1 q18 6 32 12t21 11l-2 1q13 9 18 9q-2 2 -4 6.5t-6 10.5q-5 8 -8.5 15t-8.5 15v1q-2 3 -5.5 8.5t-15.5 24.5l1 15q19 39 32.5 83t22.5 90t13 92t4 89q0 67 -9 123q-5 29 -16.5 54t-38.5 54q-5 5 -12.5 10.5t-16.5 10.5q11 -19 17.5 -40t11.5 -46q8 -51 9 -114t-6.5 -128.5 t-23 -129t-40.5 -115.5q11 -17 19 -33t18 -31zM137 158q-5 7 -8.5 14t-7.5 14q-16 27 7 44q1 1 5 3q0 34 3 70v1q8 71 24.5 137.5t40.5 118.5q8 17 14.5 30.5t11.5 24.5q0 5 -2 15q-4 24 -12.5 31.5t-19 1.5t-22.5 -24t-24 -45q-25 -54 -41.5 -119.5t-24.5 -132.5 q-3 -35 -3.5 -67t2.5 -58t10 -44t18 -24q14 -8 29 9zM390 13q3 -3 3 -1q0 1 -3 1z"/>
<glyph horiz-adv-x="485" unicode="R" glyph-name="R" d="M268 27q23 -20 63 -20q12 0 17.5 1t9.5 3l6 2t-1 1q16 4 27 7t14 7l-1 1q4 5 6.5 7.5l4.5 4.5q-2 2 -5 6t-8 10q-14 16 -31.5 40.5t-36.5 53t-38.5 58.5t-36.5 57l-5 21q75 48 126 98t67 101v1q8 20 8 39q0 17 -5 45q-9 42 -29 76.5t-43 67.5q-15 18 -37 27 q17 -26 30.5 -56t23.5 -72q11 -57 -2 -92q-19 -60 -68 -111.5t-119 -96.5q15 -24 33 -52t37.5 -55.5t38.5 -53.5t36 -46q14 -17 13 -27t-11 -21q-11 -14 -19.5 -16.5t-20.5 -5.5q-14 -6 -30 -4t-37 19q6 -7 12 -13.5t11 -11.5zM84 268q-10 -58 -18.5 -112.5t-16.5 -108.5 q-3 -16 -9 -21t-22 0q-14 5 -24.5 8.5t-20.5 8.5q6 -11 18 -21q1 -1 13.5 -5t29.5 -10q3 -2 6.5 -3t11.5 -4q2 -1 6.5 -1.5t12.5 -0.5q20 0 26 3t7 8q7 45 13.5 89.5t14.5 92.5q-13 19 -25 38t-23 39zM154 624q-10 -42 -19.5 -91.5t-21.5 -106.5q39 19 72 47l0.5 0.5 t0.5 1.5q6 31 11.5 58.5t11.5 53.5l-7 10q25 16 43 22.5t31 6.5h3v2q-8 23 -43 23q-17 0 -38 -6t-44 -21zM414 41q4 -4 4 0t-4 0z"/>
<glyph horiz-adv-x="401" unicode="S" glyph-name="S" d="M295 379l-1 -1q2 -2 9 -2h15q31 0 35 13q6 21 12 46.5t10.5 52.5t8 53t4.5 47q-1 20 -6 44t-33 57h1q-7 7 -16.5 14.5t-21.5 15.5q14 -24 17 -48t4 -44q-1 -22 -4.5 -49t-8 -54.5t-10 -53.5t-11.5 -45q-6 -18 -14 -22.5t-23 3.5q-12 5 -22 11.5t-18 13.5q22 -27 73 -52z M163 -5h8q46 1 77.5 14t52 32t31.5 40.5t17 40.5q7 21 7 32q0 29 -27.5 60.5t-65.5 66.5q23 -27 33.5 -57t-1.5 -66q-6 -21 -17.5 -44.5t-30.5 -44t-47.5 -34.5t-68.5 -15q-40 -2 -77 13.5t-75 53.5q41 -49 86.5 -70.5t97.5 -21.5zM171 379q-9 12 -13 31t-4 42q0 32 10 64 t25 59q3 21 6 41t3 33t-5 16.5t-17 -8.5q-15 -11 -33.5 -38t-30.5 -60.5t-13 -68.5t20 -62q17 -23 37 -42.5t41 -39.5q-6 8 -12.5 16t-13.5 17zM120 241l22 -22q-15 17 -36 36t-43 40q12 -13 27 -26.5t30 -27.5z"/>
<glyph horiz-adv-x="443" unicode="T" glyph-name="T" d="M365 674q-23 -3 -50.5 -6.5t-56.5 -7.5q-12 -71 -25 -149.5t-26 -159t-24.5 -159.5t-20.5 -150q-1 -14 -6 -19t-13.5 -4t-20 6t-25.5 11q-17 7 -27 13q7 -11 22 -20t36 -18q2 -1 6.5 -2.5t6.5 -2.5q11 -5 20.5 -8.5t23.5 -3.5q31 0 32 10q9 71 20.5 150t24.5 159.5 t26 159.5t25 150l-13 12q17 2 32.5 4t30.5 4q12 2 22.5 3t21.5 3q20 2 27.5 2.5t7.5 -1.5q0 4 -0.5 6.5t-0.5 5.5q-8 32 -38 78h1q-3 5 -10 7.5t-24 3.5q5 -11 8.5 -21.5t6.5 -21.5q4 -19 1 -25.5t-21 -8.5zM31 609l-1 -1q5 -8 14.5 -11.5t27.5 -3.5q8 0 13 0.5t8 1.5 q2 1 5 1.5t5 1.5q2 10 3 19t3 18q-17 -4 -33.5 -7t-27.5 -7q-15 -6 -24 -2q3 -6 7 -10z"/>
<glyph horiz-adv-x="451" unicode="U" glyph-name="U" d="M44 33q31 -27 107 -34h-1q5 -1 10 -1h11q30 0 54 8.5t49 26.5q30 27 53.5 83.5t42 137.5t33 183.5t28.5 220.5q1 6 1.5 10.5t0.5 6.5t-5.5 7t-22.5 19q-6 5 -13 9.5t-15 9.5q1 -5 0.5 -10.5t-1.5 -13.5q-14 -122 -29 -227t-34.5 -188.5t-44 -142.5t-56.5 -87 q-23 -17 -46.5 -23.5t-53.5 -3.5q-58 6 -97 37q6 -8 13.5 -14.5t15.5 -13.5zM125 191q0 42 7 98t17.5 115t22.5 117t23 104v1q3 12 3 19q0 17 -29 46q-11 11 -32 23q9 -24 3 -52q-10 -43 -21.5 -96t-21.5 -107.5t-17 -107.5t-9 -95.5t3 -71t19 -34.5q14 -7 32 19v22z"/>
<glyph horiz-adv-x="466" unicode="V" glyph-name="V" d="M400 687q-7 -36 -19.5 -86t-28.5 -108t-34 -120t-36.5 -121.5t-35.5 -113t-31 -94.5q-10 -25 -22.5 -31.5t-35.5 3.5q-23 9 -42.5 19t-40.5 25q11 -14 29 -26q29 -21 88 -44q12 -5 30 -5q23 0 33 6t15 18q14 42 31.5 96t36 114t37 122t34.5 119.5t28 106.5t19 83l-1 1 q3 10 4 15t1 7q0 12 -14.5 26t-35.5 29h1q-2 2 -4.5 3.5t-5.5 3.5q7 -20 0 -48zM164 562q-2 30 -4 57t-4 50q-3 32 -51 56l1 1l-4 2l-4 2q1 -5 1.5 -10t1.5 -10q3 -40 6.5 -91.5t8 -111.5t9.5 -125.5t11 -132.5q11 33 20.5 66t20.5 67q-4 49 -7 94t-6 86z"/>
<glyph horiz-adv-x="641" unicode="W" glyph-name="W" d="M299 22q14 -5 20.5 -8t13.5 -6t17 -6.5t30 -9.5q4 -1 9.5 -1.5t14.5 -0.5q22 0 32 4t13 12q11 41 25.5 93t30.5 109.5t33 117.5t34 116.5t33 107t29 89.5q6 19 6 30t-7 21q-11 10 -23.5 20t-27.5 20q4 -14 3 -27.5t-5 -27.5q-13 -39 -29 -89.5t-33 -107t-34 -116.5 t-33 -117.5t-30.5 -109.5t-25.5 -93q-6 -19 -17.5 -24.5t-33.5 0.5q-24 7 -37 13t-32 13q-1 0 -1.5 0.5t-1.5 0.5q4 -6 10.5 -12t16.5 -11zM28 17q12 -6 30 -12t44 -13q13 -3 23 -3q34 0 41 16q10 32 27 82.5t37 107.5q-4 38 -6 81t-2 82q-15 -41 -31 -86.5t-31 -88.5 t-27.5 -80.5t-20.5 -62.5q-8 -21 -17.5 -24.5t-24.5 0.5q-39 10 -73 27q7 -14 31 -26zM78 294q16 48 33.5 101t34.5 105q1 17 2 32.5t2 29.5q2 25 3 44t2 31v1q1 5 1 9v9q0 11 -6 25t-23 28q-12 9 -28 14q2 -11 2 -24q0 -12 -1 -23q-1 -21 -4 -63t-6.5 -95t-6.5 -111.5 t-5 -112.5zM394 602q0 14 -4 22t-27 22q-2 1 -3.5 2t-3.5 2q-5 2 -8.5 4t-8.5 4v-16q0 -14 -1.5 -49t-3.5 -82t-4 -101.5t-4 -107.5q15 52 31.5 108t33.5 111q2 29 2.5 49.5t0.5 31.5z"/>
<glyph horiz-adv-x="472" unicode="X" glyph-name="X" d="M276 -1q9 -2 18 -2h20h20t17 2q30 6 31 4q-1 2 -2.5 5.5l-4.5 10.5v1q-21 66 -46.5 149.5t-53.5 174.5l-1 12q39 67 74.5 127.5t64.5 109.5q5 8 9 14.5t8 13.5q6 11 10 20t4 14q0 3 -11 27q-6 12 -16.5 27t-23.5 28q-7 5 -13 9t-13 6q4 -6 7 -12t6 -11q11 -21 9 -39.5 t-12 -35.5q-30 -51 -70.5 -119.5t-85.5 -146.5q28 -91 53.5 -174t46.5 -149q16 -35 -13 -41q-33 -4 -70 0q-11 1 -20 6q8 -13 20 -19.5t38 -11.5zM-2 -6h-1q7 -7 33 -7q29 0 34 8v1q11 18 22 39t24 45q11 20 22 41t23 43q-6 18 -12.5 38.5t-13.5 43.5q-35 -63 -65 -119.5 t-53 -98.5q-15 -25 -35 -12l11.5 -11.5zM161 585q7 12 13 24t13 23q-5 14 -8.5 27.5t-7.5 27.5q-6 17 -17.5 28t-36.5 16q9 -32 20 -68.5t24 -77.5z"/>
<glyph horiz-adv-x="434" unicode="Y" glyph-name="Y" d="M364 684q-9 -31 -28 -78.5t-43.5 -103.5t-52.5 -117t-55 -118q-11 -63 -19 -119.5t-15 -110.5q-4 -20 -10 -24.5t-23 1.5q-14 6 -29.5 13.5t-29.5 15.5q2 -6 12 -14q17 -11 37.5 -21t39.5 -18q6 -2 9 -3.5t17 -1.5q20 0 25 4t7 12q7 54 15 110t19 119l-1 3 q27 58 55.5 119t53 117t43 103t27.5 76v1q8 23 8 30q0 4 -5 12q-11 12 -25 26.5t-31 25.5q7 -14 6.5 -26.5t-7.5 -32.5zM140 701q-6 18 -15.5 27.5t-35.5 17.5q-1 0 -1.5 0.5t-2.5 0.5v-1h1q13 -48 27.5 -111t30.5 -135q8 17 15 33.5t15 33.5q-9 38 -17.5 71.5t-16.5 62.5z "/>
<glyph horiz-adv-x="375" unicode="Z" glyph-name="Z" d="M368 602v1q14 22 14 32q0 8 -6 26h1l-3 12q-2 8 -5 18t-13 35q-5 11 -14 15.5t-31 5.5q4 -12 6 -22t5 -20q5 -18 4.5 -34.5t-11.5 -35.5q-60 -106 -124.5 -223t-125.5 -232q20 7 40 11.5t41 9.5q55 103 111.5 205t110.5 196zM1 -1q5 -5 14 -9t32 -4q11 0 18.5 1.5 t15.5 3.5q35 13 65 21.5t56 15.5q14 4 27.5 7t27.5 7l-1 1q19 4 28 5.5l9 1.5l-4 13l1 1q-2 12 -8.5 29t-15.5 39q-8 15 -43 18q5 -11 7.5 -21.5t4.5 -21.5q5 -20 0 -28t-22 -11q-42 -12 -89.5 -24.5t-87.5 -26.5q-22 -8 -33.5 -6t-20.5 9q4 -5 8.5 -10t10.5 -11zM158 641 q-26 -6 -48 -10t-43 -10q-21 -5 -35 3q2 -4 3 -5v-1q0 3 3 -1q8 -13 22 -18t33 -5q9 0 31 5q4 1 6.5 1.5t5.5 1.5q5 10 11 19.5t11 19.5z"/>
<glyph horiz-adv-x="304" unicode="[" glyph-name="bracketleft" d="M202 619l-13 12q14 2 27.5 3.5t26.5 3.5q6 1 12 1.5t11 1.5q34 6 36 5q0 2 -3 11l1 2q-3 13 -7.5 26.5t-14.5 36.5q-5 11 -15 17t-30 8q4 -11 6.5 -22t5.5 -23q5 -19 0 -26t-21 -10q-17 -2 -37 -5t-40 -5q-11 -54 -23 -116t-23 -126.5t-21 -128.5t-18 -121q11 1 21.5 2 t21.5 2q10 2 17 -1q8 54 17.5 113t20 118t21 115.5t21.5 105.5zM169 75q5 -19 0.5 -27t-21.5 -8q-20 -5 -45 -11t-48 -12q-18 -5 -30 -1.5t-23 13.5q2 -3 6.5 -7.5t20.5 -18.5h-1q7 -7 18 -10.5t31 -3.5q8 0 13 0.5t9 1.5v1q12 3 24.5 6t24.5 6q11 3 21.5 6t20.5 5 q37 0 37 3l-4 13h1q-2 6 -3.5 12t-3.5 11l1 1q-2 7 -5 16t-10 24q-8 17 -44 19q2 -10 4.5 -19.5t5.5 -19.5zM302 646l0.5 -0.5t0.5 0.5h-1z"/>
<glyph horiz-adv-x="358" unicode="\" glyph-name="backslash" d="M110 754q-2 0 -3 0.5t-3 0.5q6 -40 16 -96t22.5 -120.5t26.5 -133.5t27.5 -134.5t26 -124t22.5 -101.5q5 -17 1 -25t-21 -10q-30 -5 -55 1q-5 0 -9 2q5 -11 15.5 -17.5t31.5 -9.5h-1q15 -3 32 -3q8 0 14.5 0.5t13.5 1.5l25.5 3t9.5 1q0 1 -3 12l1 1q-10 43 -22.5 102.5 t-26.5 126t-28 136.5t-26.5 135t-22.5 121t-16 95q-3 14 -11 21t-37 15z"/>
<glyph horiz-adv-x="318" unicode="]" glyph-name="bracketright" d="M221 671q-13 -59 -27 -137t-27.5 -159.5t-25.5 -160.5t-21 -140q-2 -14 -8.5 -23.5t-28.5 -10.5q-23 -5 -45.5 -9t-43.5 -9q-15 -3 -24 0q10 -13 20.5 -19.5t30.5 -6.5h16q11 3 23 6t24 5q11 2 21 4t21 4q32 2 39.5 7.5t9.5 13.5q9 61 21 140t25.5 161t27.5 160t27 137 v-1q1 6 1.5 11.5t0.5 8.5t-3.5 9.5t-12.5 20.5h1q-4 6 -12.5 18.5t-20.5 28.5v1q-9 12 -29 15l9 -15q11 -17 12.5 -29.5t-1.5 -30.5zM44 646q4 -11 13.5 -15t29.5 -4q2 8 3 15.5t3 15.5q-8 -1 -16 -2.5t-16 -2.5q-13 -1 -21 0q1 -2 2 -3.5t2 -3.5z"/>
<glyph horiz-adv-x="447" unicode="^" glyph-name="asciicircum" d="M288 393q-12 1 -25 2.5t-28 6.5q-6 2 -9 4q6 -18 45 -30h-1q11 -4 26.5 -5.5t30.5 -2.5h37q0 1 -2 11q-6 28 -13.5 64t-15 76t-15 81.5t-12.5 80.5q-2 13 -7 22.5t-16 26.5l-2 3q0 -1 2 -3q-2 1 -10.5 8.5t-16.5 15.5q0 -1 -5 2.5t-12 9.5q5 -8 7.5 -17.5t4.5 -25.5 q5 -38 12 -79t15 -81t15.5 -76.5t13.5 -64.5q4 -17 -0.5 -23.5t-18.5 -5.5zM44 419q4 -7 29 -7q26 0 29 5v1q2 4 4.5 7t4.5 7q15 25 31 52.5t35 56.5q-5 20 -8.5 40.5t-8.5 42.5q-32 -46 -60 -91t-51 -83q-7 -13 -16 -13q-3 0 -4 1q4 -7 15 -19zM256 754l-1 1l-3 3h-1 q1 -2 5 -4z"/>
<glyph horiz-adv-x="430" unicode="_" glyph-name="underscore" d="M2 -205h453q16 0 25 4t14 10.5t6.5 14t3.5 15.5q0 2 0.5 1.5t0.5 1.5l-1 5q1 2 2.5 8.5t2.5 8.5q1 4 1.5 7.5t0.5 8.5q0 3 -7 5t-29 2h-24q-1 -1 -1 -5q-2 -11 -4 -22.5t-6.5 -21t-11.5 -15t-19 -3.5h-442q-1 -2 -1 -4q0 -3 -1 -6q-1 -5 -1 -9q0 -6 38 -6z"/>
<glyph horiz-adv-x="395" unicode="`" glyph-name="grave" d="M77 983q14 -12 35.5 -27.5t48.5 -32t57 -33.5t62 -31l-2 -1q4 -2 24 -2q30 0 50 15l-20 -23l5.5 5.5t10 9.5t11 10.5t8.5 7.5q-4 2 -7 5q-11 6 -23 13t-24 15q-2 -8 -6.5 -12t-3.5 -3q-35 -26 -57 -14q-45 20 -90 48.5t-80 54.5q-4 -10 -4 -18zM367 881q3 -2 3 2l-1 -0.5 t-2 -1.5z"/>
<glyph horiz-adv-x="479" unicode="a" glyph-name="a" d="M312 7l-1 -1q13 -7 30.5 -8t39.5 -1q25 0 33 2.5t8 8.5v5q-3 72 -6.5 150.5t-5.5 156.5t-3.5 150.5t-1.5 132.5q0 20 0.5 38.5t0.5 35.5v7q0 11 -7.5 20t-30.5 19q-4 2 -7 3t-7 3q-1 0 -1.5 0.5t-1.5 0.5v-13q-1 -57 -0.5 -136.5t3 -168.5t6 -181.5t7.5 -176.5 q1 -18 -4 -25t-22 -7t-32 1.5t-31 9.5q-1 0 -1.5 0.5t-1.5 0.5q4 -9 12.5 -15t24.5 -12zM235 226q-48 -10 -96.5 -20t-85.5 -24q-14 -38 -24.5 -71.5t-20.5 -65.5q-6 -17 -13.5 -20t-22.5 5q-8 5 -17 10t-19 13l13 -13q1 -1 9.5 -7t20 -14t16.5 -11l9 -6q4 -3 26 -3 q29 0 32 10q10 32 20.5 66t24.5 72l-9 9q33 12 68 20.5t71 16.5q-1 8 -1.5 16t-0.5 17zM112 356q33 7 70 12q11 30 21 58.5t20 55.5q-1 44 -1.5 86t-0.5 84q-23 -60 -51.5 -135.5t-57.5 -160.5z"/>
<glyph unicode="b" glyph-name="b" d="M273 404q25 -18 41.5 -50.5t21.5 -67.5q5 -42 -5.5 -72.5t-33.5 -59.5q-17 -23 -40 -43.5t-49 -37.5t-52.5 -30.5t-50.5 -22.5q-13 -5 -22 -7.5t-17.5 -1.5t-16.5 5.5t-18 13.5q-10 6 -18 12t-15 14q12 -14 26.5 -26t38.5 -27l-2 -2q9 -8 19 -11.5t29 -3.5q13 0 22.5 2 t19.5 6h-1q26 10 55 24t56 30.5t50 35.5t38 39q21 27 32.5 50t11.5 47q0 5 -0.5 11t-1.5 13q-5 29 -22.5 58t-46.5 50v24q28 21 40.5 33t21.5 23v1q2 2 9 9.5t9 9.5q18 23 31 50.5t13 59.5q0 12 -3 27q-7 35 -23.5 66t-39.5 62q-14 16 -35 24q15 -23 25.5 -49.5t17.5 -59.5 q8 -48 -8 -90t-42 -74q-14 -16 -29.5 -32t-35.5 -32zM109 467q37 18 68 41q4 23 8 43t9 40l-7 9q52 33 80 36v5q-5 21 -41 19.5t-87 -33.5q-8 -35 -15 -75t-15 -85zM83 318q-6 -38 -12 -75t-11 -75q35 13 65 32q2 11 3.5 21.5t3.5 21.5q2 9 3 18.5t3 18.5l-8 12q41 20 63 20 q5 0 11 -3q-3 10 -13 17t-25.5 9.5t-36.5 -1.5t-46 -16z"/>
<glyph horiz-adv-x="428" unicode="c" glyph-name="c" d="M120 216q0 38 4.5 80.5t12.5 84.5q7 32 16.5 68t20 69.5t21.5 62.5t20 47q-1 17 -4.5 29.5t-11.5 17.5q-12 5 -28 -19t-33 -63t-32 -86t-24 -89q-9 -45 -13.5 -91t-3.5 -84.5t7.5 -64.5t20.5 -32q12 -6 29 6q-2 14 -2 30v34zM316 192q-5 2 -9.5 3t-9.5 2q-2 -7 -3.5 -15 t-4.5 -16q-11 -35 -29 -65t-36 -50q-19 -19 -49.5 -30.5t-60.5 -7.5q-31 4 -56.5 15.5t-45.5 21.5q-5 1 -8 5q8 -8 17.5 -15.5t19.5 -14.5q-3 0 3 -3v1q-1 0 -3 2q2 -1 6.5 -3t8.5 -4q17 -8 38 -16.5t58 -13.5h-1q5 -1 17 -1q35 0 64 10t43 24q21 23 40 52t28 57 q5 14 7.5 23.5t2.5 14.5t-8 10.5t-28 13.5h-1zM336 440h-1q3 -1 7 -1.5t12 -0.5q24 0 28.5 4.5t6.5 12.5q0 1 0.5 -2t0.5 -2v3q5 23 7 53t2 59v20t-1 19q-2 26 -8.5 46t-26.5 40q-8 7 -17 13.5t-20 12.5q8 -16 11.5 -33.5t5.5 -37.5q2 -37 0 -81t-8 -74q-4 -14 -9 -22.5 t-26 -2.5q-13 3 -23 8t-18 11q11 -15 29 -26t48 -19z"/>
<glyph horiz-adv-x="489" unicode="d" glyph-name="d" d="M56 3q19 -14 52 -14q24 0 35 6l-1 1q78 33 134.5 85.5t94 115.5t55.5 130.5t18 130.5q0 77 -29 147q-16 38 -38.5 65t-48.5 44q18 -27 33 -63q19 -45 25 -101.5t-1 -117t-28.5 -121.5t-57 -116t-86.5 -100t-117 -73q-35 -20 -71 9q-15 10 -24 19q10 -11 22.5 -21.5 t32.5 -25.5zM63 178q19 12 36 26t32 29q14 96 29.5 187t33.5 179l-9 11q21 10 32 10q5 0 8.5 -2t8.5 -5q-14 21 -38.5 29t-56.5 -6q-22 -109 -40.5 -223t-35.5 -235zM-16 65l1 1l-3 3z"/>
<glyph horiz-adv-x="385" unicode="e" glyph-name="e" d="M186 522q5 22 8.5 42t8.5 40l-12 12q35 7 67.5 12t63.5 10q5 1 11 1.5t11 1.5q21 3 29 5t8 4v4q-2 2 -2.5 4.5t-0.5 10.5q-2 11 -5 23t-13 34v2q-8 22 -46 23q4 -12 6 -23t5 -23q3 -21 -1.5 -28.5t-21.5 -10.5q-35 -5 -73.5 -11t-80.5 -14q-8 -37 -16 -78t-18 -86 q16 3 31.5 4.5t32.5 2.5q2 10 4 19.5t4 18.5zM130 238l6 33l-11 11q26 8 53.5 15t55.5 14q11 3 22.5 5.5t22.5 5.5q33 10 34 7q0 3 -3 15v1q-3 14 -7 29t-15 38v1q-7 16 -43 17q3 -11 5.5 -21t4.5 -21q5 -21 1 -28t-21 -12q-38 -10 -77.5 -19.5t-76.5 -20.5 q-5 -29 -10 -56.5t-10 -53.5q31 9 64 13q1 7 2 13.5t3 13.5zM22 13q5 -5 14.5 -9t32.5 -4q11 0 18.5 1.5t14.5 3.5h-1q22 6 45.5 13t47.5 14q20 6 39 11.5t38 10.5q18 5 24.5 7t7.5 1v7q-5 12 -6 22q-4 11 -7.5 24t-11.5 30q-8 18 -44 19q4 -11 6.5 -22t6.5 -22 q4 -20 0.5 -27.5t-20.5 -12.5q-42 -12 -86 -25t-84 -24q-22 -8 -35 -6t-21 9zM381 654q0 -2 1 -3zM303 62q0 -1 0.5 -1.5t0.5 1.5h-1z"/>
<glyph horiz-adv-x="380" unicode="f" glyph-name="f" d="M-33 38q18 -11 44.5 -24t50.5 -13q17 0 27 2t11 8v2q1 4 1 7t1 8q8 52 18 115.5t22 130.5l-10 11q35 11 71.5 21.5t71.5 18.5q20 3 28 4.5l8 1.5l-1 3t-3 11l1 1q-3 14 -7 29t-15 38q-4 8 -15 12t-28 6q3 -11 5.5 -21t4.5 -21q5 -20 0.5 -28t-21.5 -11q-35 -8 -72.5 -18 t-72.5 -21q-13 -72 -23.5 -139.5t-18.5 -121.5q-1 -17 -10.5 -21.5t-23.5 -1.5t-29.5 11t-28.5 16q2 -7 14 -16zM301 666q-35 -6 -74 -12t-81 -14q-8 -33 -14.5 -74.5t-16.5 -87.5q16 2 31.5 4t32.5 3l6 36q4 23 7.5 44t8.5 39l-12 11q28 5 53 9.5t50 8.5q13 2 26.5 4 t25.5 4h-1q21 4 28.5 5t7.5 2v5q0 4 -1 9q-3 20 -23 64q-7 13 -15.5 18.5t-28.5 6.5q9 -24 12 -47q3 -21 -1 -28t-21 -10z"/>
<glyph horiz-adv-x="442" unicode="g" glyph-name="g" d="M113 218q0 20 1 41.5t4 43.5q-18 24 -27 68q-5 23 10 29t39 11q17 70 38 128.5t38 87.5v6q-2 15 -4.5 26t-8.5 13q-12 5 -28.5 -14t-33.5 -53.5t-33.5 -81.5t-28.5 -99q-11 -43 -16.5 -90t-4.5 -87.5t8 -69t21 -35.5t30 7q-2 15 -3 32t-1 37zM24 39q51 -34 115 -47 q15 -3 32 -3q56 0 88 26q41 37 72 95t50 135l3.5 17.5t1.5 13.5q0 8 -15 37l-3 6q-2 5 -8.5 15.5t-17.5 24.5v1q-11 14 -33 17q2 -5 4.5 -9t4.5 -8q11 -21 12 -37t-4 -41q-21 -85 -51 -145t-66 -93q-48 -41 -107 -27q-26 5 -51 15t-48 26q5 -5 10.5 -9.5t10.5 -9.5zM339 488 q-4 -17 -9.5 -23t-21.5 -4q-14 2 -25.5 7t-21.5 12q25 -32 84 -44q2 0 5.5 -0.5t5.5 -0.5q21 0 28.5 3.5t9.5 11.5q2 18 4 44.5t2 53.5q0 30 -3 56t-13 48.5t-34 47.5q-6 6 -13.5 12t-17.5 11q10 -17 15 -35.5t8 -41.5q2 -17 2.5 -39t0 -43.5t-2 -41.5t-3.5 -34zM175 258 q2 5 3.5 10t3.5 10q-29 -3 -49 11q15 -23 42 -31z"/>
<glyph horiz-adv-x="452" unicode="h" glyph-name="h" d="M388 704q-12 -62 -26 -142t-28.5 -168t-28 -178t-24.5 -171q0 -14 -5 -19t-13.5 -4t-20.5 5.5t-25 9.5t-27 14q6 -11 21.5 -20t36.5 -19q2 -1 6.5 -2.5t6.5 -2.5q11 -5 21 -7.5t23 -2.5q31 0 31 8v2q11 81 24.5 171t28 178.5t28.5 168.5t26 142v-1q1 5 1.5 10t0.5 7 q0 1 -26 26q-6 5 -13.5 10t-15.5 10q1 -9 -2 -25zM-18 29l-1 -1q3 -2 17.5 -8.5t32.5 -13.5q-3 0 6 -3q18 -6 32 -6q17 0 24 2.5t8 8.5q2 14 4 29t4 32q5 38 11 81.5t14 90.5l-12 12q13 3 25.5 5.5t26.5 5.5q3 0 5 1q2 8 2.5 17t2.5 18q-26 -6 -52.5 -11t-52.5 -11 q-11 -66 -18.5 -125t-14.5 -107q-3 -17 -9 -22t-23 1q-14 6 -29.5 12t-27.5 15q9 -11 25 -23zM204 653l2 16q0 2 -5.5 7.5t-21.5 18.5v1q-11 10 -28 18q1 -9 -2 -25q-10 -46 -21 -111t-24 -140q16 2 31.5 4t31.5 4q10 62 19.5 115t17.5 92zM35 5h-1q-1 0 -1.5 0.5t-1.5 0.5 q1 -1 4 -1z"/>
<glyph horiz-adv-x="208" unicode="i" glyph-name="i" d="M170 696q-12 10 -28 19q1 -8 -2 -26q-8 -37 -17 -87t-18.5 -106.5t-19 -117.5t-18.5 -120t-16.5 -113.5t-13.5 -98.5q-3 -17 -9 -22t-23 1q-16 6 -30 12t-27 15q5 -9 25 -23q8 -6 26.5 -14t40.5 -16q8 -2 20 -2q17 0 24 2.5t8 8.5q9 66 21.5 154t27 179t28.5 173.5 t26 138.5l2 16q0 2 -5.5 7.5t-21.5 18.5v1z"/>
<glyph horiz-adv-x="418" unicode="j" glyph-name="j" d="M52 27q-30 10 -52 29q14 -17 35.5 -30.5t51.5 -24.5q14 -5 30 -7.5t32 -2.5q35 0 56 8.5t35 21.5q31 30 55 88.5t43 141t33 186.5t25 225v1q1 5 1 8v6q0 2 -5.5 8t-22.5 21q-5 4 -12 7.5t-15 8.5v-10t-1 -11q-11 -125 -25 -231.5t-32.5 -190.5t-41.5 -142.5t-52 -86.5 q-23 -21 -55.5 -31t-82.5 8zM110 197v1q-2 51 -68 94q11 -24 13 -54q2 -48 5.5 -69.5t19.5 -24.5q14 -1 30 42v11z"/>
<glyph horiz-adv-x="443" unicode="k" glyph-name="k" d="M180 332q13 -30 28.5 -63t31 -63.5t29.5 -56.5t25 -44q11 -17 9 -27.5t-16 -20.5q-8 -7 -20 -12t-23 -7q-11 -5 -22.5 -5.5t-23.5 6.5l3 -3h-1q10 -16 25.5 -22t35.5 -6q11 0 18 1t11 3l-3 1q17 4 30.5 8t18.5 8l-1 1q14 10 21 12q-2 2 -4 6t-5 9q-10 16 -23.5 41 t-28.5 56t-31 65t-30 67l-2 15q28 39 58.5 82.5t58 85.5t49.5 79.5t33 65.5q7 15 9.5 25t2.5 17q0 3 -5 20q-6 16 -16.5 32.5t-27.5 36.5q-6 6 -24 8q3 -7 6.5 -14t6.5 -15q6 -17 5 -34t-11 -42q-13 -32 -35 -71t-49 -81t-56.5 -84.5t-56.5 -79.5zM4 12l15 -6q10 -5 17.5 -8 t24.5 -3q30 0 30 11v2q4 26 8 56t9 63q2 10 3 20.5t3 21.5q-13 23 -24.5 46.5t-22.5 46.5q-9 -63 -16.5 -117t-14.5 -99q0 -16 -5 -21.5t-13.5 -4.5t-20.5 6.5t-27 11.5q-13 5 -22 11q6 -11 20 -19.5t36 -17.5zM196 664v1q3 12 3 16q0 2 -28 26q-5 5 -12 9.5t-15 9.5 q1 -5 0 -11t-3 -14q-9 -42 -18.5 -96t-20.5 -120q19 29 40.5 60.5t42.5 63.5q2 15 5 28.5t6 26.5zM356 42q3 -3 3 -1q0 1 -3 1z"/>
<glyph horiz-adv-x="355" unicode="l" glyph-name="l" d="M203 667v1q3 12 3 16q0 2 -6 7.5t-20 18.5q-5 5 -12.5 9.5t-16.5 9.5q1 -5 0 -11t-3 -14q-11 -49 -23 -110t-24 -127t-24 -134t-22 -132q17 4 32 7t31 5q10 59 20.5 120.5t22 121t22 113.5t20.5 99zM215 81q-42 -12 -86 -24.5t-84 -24.5q-23 -10 -35.5 -7.5t-20.5 9.5 l21 -21q5 -5 13 -9t32 -4q17 0 35 6h-1q61 18 128 37l42 12q30 9 33 6q0 3 -1 8l-2 10q-2 14 -7.5 30.5t-15.5 36.5q-5 9 -14 13.5t-29 5.5q4 -11 6.5 -21.5t4.5 -21.5q5 -21 3 -28t-22 -13zM292 61l1 -1v0q0 1 -1 1z"/>
<glyph horiz-adv-x="616" unicode="m" glyph-name="m" d="M393 25q8 -7 26 -13.5t38 -13.5h-1q2 -1 7 -1h11q21 0 27.5 5t8.5 14q4 35 10.5 84.5t15 107.5t17.5 120t18.5 121t18 111.5t15.5 91.5q3 13 3 20q0 10 -33 30q-5 3 -11 6l-12 6v-11t-2 -14q-7 -39 -15.5 -91.5t-18 -111.5t-18.5 -121.5t-17.5 -120t-15 -107.5t-10.5 -85 q-4 -18 -10 -26t-23 -2q-14 5 -29 11t-26 14q6 -10 26 -24zM97 497q-10 -60 -19.5 -122t-18 -121t-15 -112.5t-10.5 -95.5q-3 -18 -9 -23.5t-22 -0.5q-14 5 -28 11.5t-26 14.5q6 -10 26 -24q8 -6 25.5 -13.5t37.5 -14.5h-1q2 -1 6.5 -1.5t12.5 -0.5q20 0 26 3t7 10 q5 51 13 117t19 138q-8 55 -13.5 114.5t-10.5 120.5zM201 75q9 -5 50 -17h-1q3 -1 7 -1.5t12 -0.5q11 0 17 1t9 3.5t4.5 6.5t3.5 9q8 26 19 61t25 76q7 66 17.5 145t23.5 152q-17 -45 -37 -100.5t-39.5 -110t-36 -104t-26.5 -83.5q-7 -21 -11.5 -27t-22.5 -1q-24 7 -46 18 h-1q5 -8 13 -14t20 -13zM247 640l-3.5 21t-7 17t-15 16t-27.5 17q-3 1 -7 3q2 -7 2.5 -15t2.5 -17q0 -7 0.5 -17t3.5 -37t8.5 -77.5t14.5 -137.5q8 25 17.5 53t20.5 58q-4 33 -6 53.5t-3 33t-1 18.5v11z"/>
<glyph horiz-adv-x="468" unicode="n" glyph-name="n" d="M238 30q21 -11 67 -25h-1q8 -2 20 -2q37 0 39 16q9 69 20.5 154.5t23.5 172.5t24.5 168.5t23.5 142.5q1 6 1.5 11t0.5 9t-5.5 10.5t-21.5 19.5h1q-8 6 -14.5 10t-14.5 8q1 -11 -2 -30q-11 -61 -23.5 -142.5t-24.5 -168.5t-23.5 -172.5t-20.5 -154.5q-3 -38 -39 -26 q-16 5 -31.5 11.5t-31.5 14.5q-1 0 -2 0.5t-2 0.5q13 -14 36 -28zM-28 34l-2 -1q5 -5 22.5 -11.5t36.5 -14.5q2 -1 5 -2t5 -2h-1q4 -2 10.5 -2.5t12.5 -0.5q18 0 23.5 2.5t6.5 7.5q5 48 14.5 113t20.5 138q0 2 0.5 4.5t0.5 5.5q-9 44 -17.5 90.5t-16.5 93.5 q-8 -56 -16.5 -113.5t-16 -110.5t-14 -100t-10.5 -83q-2 -17 -8.5 -21.5t-23.5 2.5q-13 5 -26 9.5t-26 13.5l8.5 -8.5t11.5 -9.5zM218 354q5 47 10.5 92t11.5 90q-5 32 -8.5 59.5t-5.5 45.5q-3 21 -12 33.5t-33 26.5l1 1q-4 2 -7.5 4.5t-8.5 4.5q2 -6 2.5 -13t2.5 -15 q3 -23 8 -60.5t11.5 -82t13.5 -93t14 -93.5z"/>
<glyph unicode="o" glyph-name="o" d="M351 694q-5 5 -12.5 10.5t-15.5 10.5q11 -19 17.5 -40t11.5 -46q9 -62 8 -137.5t-13.5 -152t-36.5 -147t-61 -121.5q-26 -31 -55.5 -41.5t-67.5 -4.5q-25 4 -51.5 12t-48.5 25q15 -15 30 -27q18 -14 47.5 -22t60.5 -13q7 -1 14 -1.5t15 -0.5q37 0 65 13t52 41 q27 38 47 87.5t33 104t19 112.5t6 112q0 31 -2 61t-6 57q-5 29 -17 54.5t-39 53.5zM207 665q-12 5 -28 -15.5t-31.5 -55t-29.5 -78.5t-23 -85q-9 -42 -13.5 -89t-3.5 -87.5t8 -69.5t22 -36q12 -8 27 7q-2 16 -2 34v39q0 40 4.5 83t12.5 82q7 33 16.5 67.5t19.5 66t20.5 57 t19.5 40.5q-6 34 -19 40z"/>
<glyph horiz-adv-x="472" unicode="p" glyph-name="p" d="M87 250q-9 -54 -17 -106t-14 -103q-4 -16 -10 -21t-23 0q-14 6 -28 11.5t-26 13.5q8 -14 28 -24.5t46 -20.5q4 -2 7 -3t7 -3q3 -1 7.5 -1.5t12.5 -0.5q19 0 25.5 3.5t8.5 11.5q6 51 14 101t17 104l-10 12q42 16 83 37.5t77 46t65 52t47 54.5q20 30 34.5 60.5t14.5 59.5 q0 18 -4 37q-9 42 -29 76.5t-43 67.5q-14 17 -35 24q16 -25 29.5 -55t22.5 -70q11 -51 -3.5 -91.5t-38.5 -76.5q-20 -30 -49.5 -59t-64.5 -54.5t-73.5 -46.5t-77.5 -36zM116 422q39 18 69 42q12 63 24 120l-7 10q50 27 76 29q-1 2 -1 5q-2 10 -13 15t-28 4.5t-38.5 -7 t-43.5 -19.5q-10 -45 -19 -94.5z"/>
<glyph horiz-adv-x="462" unicode="q" glyph-name="q" d="M327 78q11 -17 10.5 -27t-13.5 -19q-11 -10 -23 -16t-24 -10q-30 -8 -52 20q-4 5 -6.5 8t-5.5 6q-19 -13 -41 -15t-46 0q-26 3 -52 11.5t-48 25.5q15 -15 30 -27q19 -14 47.5 -22.5t60.5 -12.5q7 -1 13 -1h14q15 0 29 1t25 5q2 -2 3.5 -4l4.5 -6q13 -16 51 -16q15 0 17 1 q18 6 32 12t21 11l-2 1q13 9 18 9q-2 2 -4 6.5t-6 10.5q-5 8 -8.5 15t-8.5 15v1q-2 3 -5.5 8.5t-15.5 24.5l1 15q19 39 32.5 83t22.5 90t13 92t4 89q0 67 -9 123q-5 29 -16.5 54t-38.5 54q-5 5 -12.5 10.5t-16.5 10.5q11 -19 17.5 -40t11.5 -46q8 -51 9 -114t-6.5 -128.5 t-23 -129t-40.5 -115.5q11 -17 19 -33t18 -31zM137 158q-5 7 -8.5 14t-7.5 14q-16 27 7 44q1 1 5 3q0 34 3 70v1q8 71 24.5 137.5t40.5 118.5q8 17 14.5 30.5t11.5 24.5q0 5 -2 15q-4 24 -12.5 31.5t-19 1.5t-22.5 -24t-24 -45q-25 -54 -41.5 -119.5t-24.5 -132.5 q-3 -35 -3.5 -67t2.5 -58t10 -44t18 -24q14 -8 29 9zM390 13q3 -3 3 -1q0 1 -3 1z"/>
<glyph horiz-adv-x="485" unicode="r" glyph-name="r" d="M268 27q23 -20 63 -20q12 0 17.5 1t9.5 3l6 2t-1 1q16 4 27 7t14 7l-1 1q4 5 6.5 7.5l4.5 4.5q-2 2 -5 6t-8 10q-14 16 -31.5 40.5t-36.5 53t-38.5 58.5t-36.5 57l-5 21q75 48 126 98t67 101v1q8 20 8 39q0 17 -5 45q-9 42 -29 76.5t-43 67.5q-15 18 -37 27 q17 -26 30.5 -56t23.5 -72q11 -57 -2 -92q-19 -60 -68 -111.5t-119 -96.5q15 -24 33 -52t37.5 -55.5t38.5 -53.5t36 -46q14 -17 13 -27t-11 -21q-11 -14 -19.5 -16.5t-20.5 -5.5q-14 -6 -30 -4t-37 19q6 -7 12 -13.5t11 -11.5zM84 268q-10 -58 -18.5 -112.5t-16.5 -108.5 q-3 -16 -9 -21t-22 0q-14 5 -24.5 8.5t-20.5 8.5q6 -11 18 -21q1 -1 13.5 -5t29.5 -10q3 -2 6.5 -3t11.5 -4q2 -1 6.5 -1.5t12.5 -0.5q20 0 26 3t7 8q7 45 13.5 89.5t14.5 92.5q-13 19 -25 38t-23 39zM154 624q-10 -42 -19.5 -91.5t-21.5 -106.5q39 19 72 47l0.5 0.5 t0.5 1.5q6 31 11.5 58.5t11.5 53.5l-7 10q25 16 43 22.5t31 6.5h3v2q-8 23 -43 23q-17 0 -38 -6t-44 -21zM414 41q4 -4 4 0t-4 0z"/>
<glyph horiz-adv-x="401" unicode="s" glyph-name="s" d="M297 386q7 -4 24 -4t25 3.5t10 10.5q6 19 12 46t10.5 55t8 54.5t4.5 46.5q-1 20 -6 45t-33 58q-7 8 -16.5 15t-20.5 15q14 -25 17 -49.5t4 -44.5q-1 -21 -4.5 -49t-8 -56.5t-10 -55t-11.5 -45.5q-7 -17 -14.5 -22t-23.5 4q-12 5 -22 11.5t-18 13.5q22 -27 73 -52zM165 -5 h8q46 1 77.5 14t52 32.5t31.5 41.5t17 41q7 22 7 33q0 31 -28 63.5t-66 67.5q23 -28 34 -59t-1 -69q-6 -21 -17.5 -45t-30.5 -45t-47.5 -35t-68.5 -15q-39 -2 -76 13.5t-73 51.5q41 -48 85.5 -69t95.5 -21zM172 386q-9 12 -13 31.5t-4 43.5q0 34 11 68t26 61q3 21 6 40 t2 31.5t-5.5 15.5t-16.5 -9q-15 -11 -34 -38.5t-31 -61.5t-13 -69.5t20 -63.5q16 -21 35 -40.5t39 -37.5q-5 7 -10.5 14t-11.5 15zM121 246q3 -3 6 -5.5t5 -5.5q-19 20 -43.5 42t-47.5 45q11 -13 34 -34z"/>
<glyph horiz-adv-x="443" unicode="t" glyph-name="t" d="M365 674q-23 -3 -50.5 -6.5t-56.5 -7.5q-12 -71 -25 -149.5t-26 -159t-24.5 -159.5t-20.5 -150q-1 -14 -6 -19t-13.5 -4t-20 6t-25.5 11q-17 7 -27 13q7 -11 22 -20t36 -18q2 -1 6.5 -2.5t6.5 -2.5q11 -5 20.5 -8.5t23.5 -3.5q31 0 32 10q9 71 20.5 150t24.5 159.5 t26 159.5t25 150l-13 12q17 2 32.5 4t30.5 4q12 2 22.5 3t21.5 3q20 2 27.5 2.5t7.5 -1.5q0 4 -0.5 6.5t-0.5 5.5q-8 32 -38 78h1q-3 5 -10 7.5t-24 3.5q5 -11 8.5 -21.5t6.5 -21.5q4 -19 1 -25.5t-21 -8.5zM31 609l-1 -1q5 -8 14.5 -11.5t27.5 -3.5q8 0 13 0.5t8 1.5 q2 1 5 1.5t5 1.5q2 10 3 19t3 18q-17 -4 -33.5 -7t-27.5 -7q-15 -6 -24 -2q3 -6 7 -10z"/>
<glyph horiz-adv-x="451" unicode="u" glyph-name="u" d="M44 33q31 -27 107 -34h-1q5 -1 10 -1h11q30 0 54 8.5t49 26.5q30 27 53.5 83.5t42 137.5t33 183.5t28.5 220.5q1 6 1.5 10.5t0.5 6.5t-5.5 7t-22.5 19q-6 5 -13 9.5t-15 9.5q1 -5 0.5 -10.5t-1.5 -13.5q-14 -122 -29 -227t-34.5 -188.5t-44 -142.5t-56.5 -87 q-23 -17 -46.5 -23.5t-53.5 -3.5q-58 6 -97 37q6 -8 13.5 -14.5t15.5 -13.5zM125 191q0 42 7 98t17.5 115t22.5 117t23 104v1q3 12 3 19q0 17 -29 46q-11 11 -32 23q9 -24 3 -52q-10 -43 -21.5 -96t-21.5 -107.5t-17 -107.5t-9 -95.5t3 -71t19 -34.5q14 -7 32 19v22z"/>
<glyph horiz-adv-x="466" unicode="v" glyph-name="v" d="M400 687q-7 -36 -19.5 -86t-28.5 -108t-34 -120t-36.5 -121.5t-35.5 -113t-31 -94.5q-10 -25 -22.5 -31.5t-35.5 3.5q-23 9 -42.5 19t-40.5 25q11 -14 29 -26q29 -21 88 -44q12 -5 30 -5q23 0 33 6t15 18q14 42 31.5 96t36 114t37 122t34.5 119.5t28 106.5t19 83l-1 1 q3 10 4 15t1 7q0 12 -14.5 26t-35.5 29h1q-2 2 -4.5 3.5t-5.5 3.5q7 -20 0 -48zM164 562q-2 30 -4 57t-4 50q-3 32 -51 56l1 1l-4 2l-4 2q1 -5 1.5 -10t1.5 -10q3 -40 6.5 -91.5t8 -111.5t9.5 -125.5t11 -132.5q11 33 20.5 66t20.5 67q-4 49 -7 94t-6 86z"/>
<glyph horiz-adv-x="641" unicode="w" glyph-name="w" d="M299 22q14 -5 20.5 -8t13.5 -6t17 -6.5t30 -9.5q4 -1 9.5 -1.5t14.5 -0.5q22 0 32 4t13 12q11 41 25.5 93t30.5 109.5t33 117.5t34 116.5t33 107t29 89.5q6 19 6 30t-7 21q-11 10 -23.5 20t-27.5 20q4 -14 3 -27.5t-5 -27.5q-13 -39 -29 -89.5t-33 -107t-34 -116.5 t-33 -117.5t-30.5 -109.5t-25.5 -93q-6 -19 -17.5 -24.5t-33.5 0.5q-24 7 -37 13t-32 13q-1 0 -1.5 0.5t-1.5 0.5q4 -6 10.5 -12t16.5 -11zM28 17q12 -6 30 -12t44 -13q13 -3 23 -3q34 0 41 16q10 32 27 82.5t37 107.5q-4 38 -6 81t-2 82q-15 -41 -31 -86.5t-31 -88.5 t-27.5 -80.5t-20.5 -62.5q-8 -21 -17.5 -24.5t-24.5 0.5q-39 10 -73 27q7 -14 31 -26zM78 294q16 48 33.5 101t34.5 105q1 17 2 32.5t2 29.5q2 25 3 44t2 31v1q1 5 1 9v9q0 11 -6 25t-23 28q-12 9 -28 14q2 -11 2 -24q0 -12 -1 -23q-1 -21 -4 -63t-6.5 -95t-6.5 -111.5 t-5 -112.5zM394 602q0 14 -4 22t-27 22q-2 1 -3.5 2t-3.5 2q-5 2 -8.5 4t-8.5 4v-16q0 -14 -1.5 -49t-3.5 -82t-4 -101.5t-4 -107.5q15 52 31.5 108t33.5 111q2 29 2.5 49.5t0.5 31.5z"/>
<glyph horiz-adv-x="472" unicode="x" glyph-name="x" d="M276 -1q9 -2 18 -2h20h20t17 2q30 6 31 4q-1 2 -2.5 5.5l-4.5 10.5v1q-21 66 -46.5 149.5t-53.5 174.5l-1 12q39 67 74.5 127.5t64.5 109.5q5 8 9 14.5t8 13.5q6 11 10 20t4 14q0 3 -11 27q-6 12 -16.5 27t-23.5 28q-7 5 -13 9t-13 6q4 -6 7 -12t6 -11q11 -21 9 -39.5 t-12 -35.5q-30 -51 -70.5 -119.5t-85.5 -146.5q28 -91 53.5 -174t46.5 -149q16 -35 -13 -41q-33 -4 -70 0q-11 1 -20 6q8 -13 20 -19.5t38 -11.5zM-2 -6h-1q7 -7 33 -7q29 0 34 8v1q11 18 22 39t24 45q11 20 22 41t23 43q-6 18 -12.5 38.5t-13.5 43.5q-35 -63 -65 -119.5 t-53 -98.5q-15 -25 -35 -12l11.5 -11.5zM161 585q7 12 13 24t13 23q-5 14 -8.5 27.5t-7.5 27.5q-6 17 -17.5 28t-36.5 16q9 -32 20 -68.5t24 -77.5z"/>
<glyph horiz-adv-x="434" unicode="y" glyph-name="y" d="M364 684q-9 -31 -28 -78.5t-43.5 -103.5t-52.5 -117t-55 -118q-11 -63 -19 -119.5t-15 -110.5q-4 -20 -10 -24.5t-23 1.5q-14 6 -29.5 13.5t-29.5 15.5q2 -6 12 -14q17 -11 37.5 -21t39.5 -18q6 -2 9 -3.5t17 -1.5q20 0 25 4t7 12q7 54 15 110t19 119l-1 3 q27 58 55.5 119t53 117t43 103t27.5 76v1q8 23 8 30q0 4 -5 12q-11 12 -25 26.5t-31 25.5q7 -14 6.5 -26.5t-7.5 -32.5zM140 701q-6 18 -15.5 27.5t-35.5 17.5q-1 0 -1.5 0.5t-2.5 0.5v-1h1q13 -48 27.5 -111t30.5 -135q8 17 15 33.5t15 33.5q-9 38 -17.5 71.5t-16.5 62.5z "/>
<glyph horiz-adv-x="375" unicode="z" glyph-name="z" d="M368 602v1q14 22 14 32q0 8 -6 26h1l-3 12q-2 8 -5 18t-13 35q-5 11 -14 15.5t-31 5.5q4 -12 6 -22t5 -20q5 -18 4.5 -34.5t-11.5 -35.5q-60 -106 -124.5 -223t-125.5 -232q20 7 40 11.5t41 9.5q55 103 111.5 205t110.5 196zM1 -1q5 -5 14 -9t32 -4q11 0 18.5 1.5 t15.5 3.5q35 13 65 21.5t56 15.5q14 4 27.5 7t27.5 7l-1 1q19 4 28 5.5l9 1.5l-4 13l1 1q-2 12 -8.5 29t-15.5 39q-8 15 -43 18q5 -11 7.5 -21.5t4.5 -21.5q5 -20 0 -28t-22 -11q-42 -12 -89.5 -24.5t-87.5 -26.5q-22 -8 -33.5 -6t-20.5 9q4 -5 8.5 -10t10.5 -11zM158 641 q-26 -6 -48 -10t-43 -10q-21 -5 -35 3q2 -4 3 -5v-1q0 3 3 -1q8 -13 22 -18t33 -5q9 0 31 5q4 1 6.5 1.5t5.5 1.5q5 10 11 19.5t11 19.5z"/>
<glyph horiz-adv-x="339" unicode="{" glyph-name="braceleft" d="M237 619l-13 12q14 2 27.5 3.5t26.5 3.5q6 1 12 1.5t11 1.5q34 6 36 5q0 1 -3 12l1 1q-3 14 -6.5 27t-14.5 36q-5 11 -15.5 17t-30.5 8q4 -11 6.5 -22t5.5 -23q5 -19 0.5 -26t-21.5 -10q-17 -2 -36.5 -5t-40.5 -5q-11 -53 -22.5 -115.5t-22.5 -127t-21 -128.5t-18 -121 q11 1 21.5 2t21.5 2q7 1 17 -1q8 54 17.5 113.5t19.5 118.5t20.5 115t21.5 105zM205 75q5 -19 0.5 -27t-21.5 -8q-21 -5 -45.5 -11t-47.5 -12q-18 -6 -29.5 -3t-21.5 11l23 -22q7 -7 16.5 -11t31.5 -4q9 0 13.5 1t10.5 3q14 4 29 7t29 7l18 4t17 4l-4 1q21 0 30 0.5t9 2.5 l-4 13l1 1q-3 14 -7.5 28t-14.5 35q-8 18 -43 19q3 -10 5.5 -19.5t4.5 -19.5zM1 322q0 1 0.5 2t0.5 3h-5q2 -2 2.5 -3t1.5 -2zM337 646l1 -1v0q0 1 -1 1z"/>
<glyph horiz-adv-x="358" unicode="|" glyph-name="bar" d="M243 763q-5 3 -12 7t-16 9q0 -10 -3 -23q-7 -38 -17.5 -97t-22 -129.5t-24 -147t-23.5 -148.5t-20 -134t-14 -104q-4 -19 -9.5 -24.5t-22.5 0.5q-14 6 -25 12t-22 13q6 -10 25 -24q5 -4 17 -9.5t35 -15.5q11 -4 24 -4q20 0 25.5 4t7.5 12q5 42 14 104t20 134t23.5 148.5 t24 146.5t22 129.5t17.5 96.5q3 13 3 19l-28 24z"/>
<glyph horiz-adv-x="377" unicode="}" glyph-name="braceright" d="M21 -4h15q11 3 23 6t24 5q11 2 21 4t21 4q31 2 39.5 7.5t10.5 13.5q7 51 16.5 113t20.5 131l-10 12q20 7 26 7q7 0 15 2h-1q26 2 44 4.5t18 7.5l-4 11l1 1q-2 6 -3.5 12t-3.5 13q-2 8 -4.5 17t-10.5 29v1q-9 21 -47 24q4 -13 7 -26t7 -26q7 -20 0.5 -28t-21 -11t-33 -4.5 t-35.5 -7.5q-11 -69 -20.5 -131t-16.5 -113q-2 -14 -9 -23.5t-29 -10.5q-23 -5 -45.5 -9t-43.5 -9q-14 -3 -23 0q10 -13 21 -19.5t30 -6.5zM221 671q-8 -42 -17.5 -91.5t-20.5 -103.5q29 0 42 -34q1 -4 2 -7l2 -6l9 10q8 35 14 68.5t12 64.5q3 17 6 32.5t6 29.5v-1 q1 6 1.5 11.5t0.5 8.5t-3.5 9.5t-12.5 20.5h1q-4 6 -12.5 18.5t-20.5 28.5v1q-9 12 -29 15l9 -15q11 -17 12.5 -29.5t-1.5 -30.5zM43 646q5 -10 13.5 -14.5t30.5 -4.5q2 8 3 15.5t3 15.5q-8 -1 -16 -2.5t-16 -2.5q-14 -2 -22 1q1 -4 4 -8z"/>
<glyph horiz-adv-x="495" unicode="~" glyph-name="asciitilde" d="M287 551q-63 0 -92 29q-7 7 -19.5 13t-27 11t-28.5 8t-23 3q-8 0 -17.5 -7t-18.5 -16l-16 -16t-8 -7q-18 -15 -42 -15q-5 0 -9.5 0.5t-9.5 1.5v-2q0 -25 59 -25q38 0 52 12l-10 3q13 0 16.5 1.5t5.5 3.5q7 8 16.5 18t15 16t6.5 7q7 0 18.5 -3.5t24.5 -8.5t24.5 -12.5 t19.5 -14.5q25 -25 103 -25q53 0 104 49q60 57 60 80q0 1 -26 19q-10 7 -31 8q-8 -36 -53 -78q-55 -53 -94 -53z"/>
<glyph horiz-adv-x="232" unicode="‚" glyph-name="quotesinglbase" d="M108 -60q-7 -17 -14 -26t-18 -14q-15 -5 -42 -7q0 -2 -0.5 -5t-0.5 -5v-1q-1 -4 -1 -7q0 -7 36 -7h2q37 0 52 6q20 9 28.5 16t11.5 15q5 16 11 39t11 47.5t9 49t6 43.5v13q0 7 -4 15.5t-18 22.5q-5 5 -14 10.5t-21 12.5q2 -8 2 -16v-19q-2 -21 -6 -47t-9 -51t-10.5 -47.5 t-10.5 -37.5z"/>
<glyph horiz-adv-x="623" unicode="ƒ" glyph-name="florin" d="M75 -122q14 -5 30 -7.5t32 -2.5q35 0 56 8.5t35 21.5q28 28 48 64.5t35 87.5t26.5 120t22.5 162l-14 13q34 2 67.5 4t65.5 4l50 2q0 2 -3 8q-2 4 -2.5 8t-2.5 9q-3 8 -6.5 18t-15.5 28v1q-9 17 -40 21q4 -11 6.5 -20.5t6.5 -18.5q6 -18 -2.5 -24t-31.5 -7 q-32 -2 -65.5 -4t-67.5 -4q-12 -98 -23.5 -169.5t-26 -124t-33 -88.5t-44.5 -61q-23 -21 -55.5 -31t-82.5 8q-16 5 -28.5 13t-22.5 16q14 -17 35 -30.5t51 -24.5zM528 507q4 -2 9.5 -3.5t16.5 -1.5q22 0 31.5 11.5t12.5 30.5q2 19 3.5 35t1.5 30q0 17 -2.5 34t-8.5 37h1 q-8 31 -25.5 58.5t-53.5 48.5q8 -15 13.5 -30.5t10.5 -32.5q9 -32 9.5 -65.5t-4.5 -76.5q-5 -32 -15 -47t-32 -1q-11 5 -21 14q19 -22 53 -41zM385 556v4q11 41 19.5 73.5t15.5 53.5q-2 28 -6.5 41.5t-16.5 15.5q-16 1 -33 -40.5t-34 -107.5q0 -1 -1 -10l-2.5 -22.5t-3 -29 t-3.5 -30.5q16 1 31 1h29q2 20 3.5 34.5t1.5 16.5zM98 74v1q-2 51 -68 94q11 -24 13 -54q2 -48 5.5 -69.5t19.5 -24.5q14 -1 31 35q-1 5 -1 9v9zM70 338q17 -20 61 -20q7 0 11 0.5t9 1.5q4 0 6 1q1 8 1.5 16t1.5 16q-13 -2 -25.5 -4t-25.5 -4q-17 -3 -29.5 -1t-23.5 10 q3 -4 6.5 -7.5t7.5 -8.5zM529 355q1 0 1 1z"/>
<glyph horiz-adv-x="384" unicode="„" glyph-name="quotedblbase" d="M252 -68q-8 -16 -16 -24.5t-20 -10.5q-18 -6 -38 -3q0 -2 -0.5 -3t-0.5 -3v-1q-4 -11 -4 -10q0 -5 33 -6q12 -3 27 -3q21 0 29 3l-3 1q21 5 31 10.5t15 16.5q9 16 19.5 43t19 55.5t14 55t5.5 41.5v4q0 3 -17 23q-1 1 -12 10t-28 22l2 1q-4 2 -6 4q4 -9 6 -19 q1 -15 -4 -43t-13.5 -59t-19 -60t-19.5 -45zM108 -56q-7 -17 -14 -26t-18 -14q-8 -3 -18.5 -4.5t-23.5 -2.5q0 -2 -0.5 -5t-0.5 -5v-1q-1 -4 -1 -7q0 -7 36 -7h2q38 0 52 6q14 7 22 12t13 10q-13 8 -6 32q8 31 21 80.5t24 99.5q-2 5 -6.5 11.5t-12.5 15.5q-5 5 -14 10.5 t-21 12.5q2 -8 2 -16v-19q-2 -21 -6 -47t-9 -51t-10.5 -47.5t-10.5 -37.5z"/>
<glyph horiz-adv-x="751" unicode="…" glyph-name="ellipsis" d="M579 -10h4q20 0 35 6t25 15t15.5 18.5t7.5 17.5q3 13 3 26q0 16 -14 34t-43 32h-2q2 -6 3 -13t1 -13q0 -16 -3 -29q-2 -9 -7 -21t-13.5 -22.5t-20.5 -18t-27 -7.5q-20 -2 -37 9q12 -17 31 -25.5t42 -8.5zM314 -10h4q20 0 35 6t25 15t15.5 18.5t7.5 17.5q3 13 3 26 q0 16 -14 34t-43 32h-2q2 -6 3 -13t1 -13q0 -16 -3 -29q-2 -9 -7 -21t-13.5 -22.5t-20.5 -18t-27 -7.5q-20 -2 -37 9q12 -17 31 -25.5t42 -8.5zM49 -10h4q20 0 35 6t25 15t15.5 18.5t7.5 17.5q3 13 3 26q0 16 -14 34t-43 32h-2q2 -6 3 -13t1 -13q0 -16 -3 -29q-2 -9 -7 -21 t-13.5 -22.5t-20.5 -18t-27 -7.5q-18 -1 -34 8q24 -33 70 -33z"/>
<glyph horiz-adv-x="440" unicode="†" glyph-name="dagger" d="M85 29q8 -6 26.5 -14t40.5 -16q8 -2 20 -2q17 0 24 2.5t8 8.5q6 42 13 94.5t15.5 109t17.5 115t18 114.5l-14 13q38 4 75 6t73 4l50 2q0 2 -3 8q-2 4 -2.5 8t-2.5 9q-3 8 -6.5 18t-15.5 28v1q-9 17 -40 21q4 -11 6.5 -20.5t6.5 -18.5q6 -18 -2.5 -24t-31.5 -7 q-36 -2 -73 -4t-75 -6q-9 -56 -18 -114.5t-17.5 -115t-15.5 -109t-13 -94.5q-3 -17 -9 -22t-23 1q-16 6 -30 12t-28 15q6 -10 26 -23zM307 653l2 16q0 2 -5.5 7.5t-21.5 18.5v1q-12 10 -28 19q1 -8 -2 -26q-8 -33 -15 -75q16 1 31.5 1.5t30.5 0.5q2 10 4 19zM-7 449 q17 -20 61 -20h10q2 8 2.5 16.5t2.5 16.5q-9 -2 -18.5 -3t-18.5 -3q-17 -3 -29 -1t-23 10q3 -4 6 -7.5t7 -8.5zM452 466q1 0 1 1z"/>
<glyph horiz-adv-x="489" unicode="‡" glyph-name="daggerdbl" d="M122 29q8 -6 26.5 -14t40.5 -16q8 -2 20 -2q17 0 24 2.5t8 8.5q4 31 9 69q3 22 6.5 45t6.5 47l-14 13q35 3 70.5 5t70.5 4q4 0 7.5 0.5t7.5 0.5l51 2q0 2 -3 8q-2 4 -2.5 8t-2.5 9q-3 8 -6.5 18t-15.5 28v1q-9 17 -40 21q4 -11 6.5 -20.5t6.5 -18.5q6 -18 -2.5 -24 t-31.5 -7q-38 -2 -77.5 -4.5t-79.5 -5.5q-6 -45 -11.5 -86t-10.5 -75q-3 -17 -9 -22t-23 1q-16 6 -30 12t-28 15q6 -10 26 -23zM297 391q2 13 4 25.5t4 25.5l-14 12q38 4 75 6t73 4l50 2q0 2 -3 8q-2 4 -2.5 8t-2.5 9q-3 8 -6.5 18t-15.5 28v1q-9 17 -40 21q4 -11 6.5 -20.5 t6.5 -18.5q6 -18 -2.5 -24t-31.5 -7q-36 -2 -73 -4t-75 -6q-5 -33 -11 -67.5t-11 -69.5q15 0 30.5 0.5t30.5 1.5q2 12 4 23.5t4 23.5zM344 653l2 16q0 2 -5.5 7.5t-21.5 18.5v1q-12 10 -28 19q1 -8 -2 -26q-8 -33 -15 -75q16 1 31.5 1.5t30.5 0.5q2 10 4 19zM-3 177 q17 -20 61 -20q9 0 13 1q1 8 1.5 15.5t1.5 16.5q-10 -2 -19.5 -3t-18.5 -3q-17 -3 -29 -1t-23 10q3 -4 6 -7.5t7 -8.5zM30 449q17 -20 61 -20h10q2 8 2.5 16.5t2.5 16.5q-9 -2 -18.5 -3t-18.5 -3q-17 -3 -29.5 -1t-23.5 10q3 -4 6.5 -7.5t7.5 -8.5zM489 466q1 0 1 1z M456 194q1 0 1 1z"/>
<glyph horiz-adv-x="447" unicode="ˆ" glyph-name="circumflex" d="M289 871q-8 0 -16.5 1t-18.5 5h-1q1 -2 1.5 -5t1.5 -5q4 -7 34 -16h-1q14 -5 40 -5h3q19 0 24 -3v2l1 2q-4 19 -9.5 43t-10.5 51t-10 54.5t-8 53.5v1q-1 6 -3 10.5t-7 11.5q-1 1 -9 7.5t-17 14.5l1 1q-3 3 -6.5 6t-6.5 6q-1 0 -3 0.5t-7 1.5q1 -8 3 -18q3 -25 8 -52.5 t10 -54.5t10.5 -51t9.5 -43q4 -20 -13 -19zM135 878q1 -2 4 -2.5t20 -0.5h18t5 1l-1 1q2 2 2.5 4t2.5 4q8 13 16.5 27t18.5 29q-4 18 -8 39.5t-9 44.5q-22 -31 -40.5 -60.5t-34.5 -55.5q-5 -9 -10 -9h-1q3 -5 7.5 -10t9.5 -12zM356 843q2 -6 2 -2z"/>
<glyph horiz-adv-x="825" unicode="‰" glyph-name="perthousand" d="M418 650q-20 -33 -48.5 -80.5t-61 -103t-66 -115t-64.5 -115.5t-56.5 -105t-41.5 -83q-10 -16 -20 -10q2 -2 4.5 -5t4.5 -5q8 -8 15.5 -12t22.5 -4q23 0 34 17q17 35 43.5 86t58.5 109q5 53 24 103t51 80q8 7 17.5 10.5t19.5 5.5q34 60 64.5 110.5t51.5 84.5q17 28 17 41 q0 11 -6.5 24.5t-17.5 30.5v1q-5 8 -32 8h-3q11 -37 -11 -73zM712 320q2 -16 3 -33t1 -36q0 -27 -3.5 -55t-11 -54t-18.5 -48.5t-26 -38.5q-29 -29 -66 -20q-11 2 -21 5.5t-20 9.5q5 -5 9.5 -10t9.5 -9l-1 -1q6 -6 22.5 -10.5t37.5 -9.5q5 -1 9.5 -1.5t10.5 -0.5q43 0 60 17 q16 17 28 39.5t19.5 47t11.5 50t4 49.5q0 18 -1 34.5t-3 32.5q-3 26 -33 59q-7 7 -31 18q6 -19 9 -35zM457 321q2 -16 3 -33t1 -36q0 -27 -3.5 -55t-11 -54t-18.5 -48.5t-26 -38.5q-9 -9 -16 -13h-1q-23 -14 -49 -7q-11 2 -21 5.5t-20 9.5q5 -5 9.5 -10t9.5 -9l-1 -1 q6 -6 22.5 -10.5t37.5 -9.5q5 -1 9.5 -1.5t10.5 -0.5q43 0 60 17q17 19 29.5 43.5t20.5 51.5q-9 35 -7 79.5t14 88.5q-4 11 -11 23t-20 26q-7 7 -31 18q6 -19 9 -35zM281 620q-2 0 -3.5 0.5t-3.5 0.5h-2q-42 -18 -80 0q0 -27 -3 -55.5t-9.5 -55t-17 -49.5t-25.5 -39 q-29 -29 -67 -22q-11 3 -24 8t-24 13q10 -12 25 -24q6 -5 19 -10t27 -9q15 -3 21 -3.5t11 -0.5h12t11 1q23 44 48 88.5t50 87.5q0 8 0.5 15t0.5 15l-21 12q7 -3 17.5 -4t23.5 -1q5 8 9.5 16t9.5 16h-5zM636 346q-5 3 -13 -5.5t-16 -24.5t-15 -36t-11 -39q-13 -51 -13 -93 q0 -38 13 -45q12 -7 27 21t26 83q5 21 7.5 44.5t3 43.5t-2 34t-6.5 17zM381 347q-5 3 -13 -5.5t-16 -24.5t-15 -36t-11 -39q-13 -51 -13 -93q0 -38 13 -45q12 -7 27 21t26 83q5 21 7.5 44.5t3 43.5t-2 34t-6.5 17zM109 713q-5 3 -12.5 -6t-15 -24.5t-14.5 -35.5t-11 -39 q-10 -54 -9.5 -92.5t13.5 -44.5q13 -7 27 20t24 84q3 24 5.5 47t2.5 42t-2 32.5t-8 16.5zM214 697q-15 15 -39 25q1 -3 5 -9q16 -31 47 -37l-6 10t-7 11z"/>
<glyph horiz-adv-x="401" unicode="Š" glyph-name="Scaron" d="M295 379l-1 -1q2 -2 9 -2h15q31 0 35 13q6 21 12 46.5t10.5 52.5t8 53t4.5 47q-1 20 -6 44t-33 57h1q-7 7 -16.5 14.5t-21.5 15.5q14 -24 17 -48t4 -44q-1 -22 -4.5 -49t-8 -54.5t-10 -53.5t-11.5 -45q-6 -18 -14 -22.5t-23 3.5q-12 5 -22 11.5t-18 13.5q22 -27 73 -52z M163 -5h8q46 1 77.5 14t52 32t31.5 40.5t17 40.5q7 21 7 32q0 29 -27.5 60.5t-65.5 66.5q23 -27 33.5 -57t-1.5 -66q-6 -21 -17.5 -44.5t-30.5 -44t-47.5 -34.5t-68.5 -15q-40 -2 -77 13.5t-75 53.5q41 -49 86.5 -70.5t97.5 -21.5zM153 882q1 -1 8.5 -7.5t17.5 -14.5l-1 -1 q3 -3 6.5 -6t6.5 -6q2 -2 23 -2q23 0 28 6q18 21 34.5 45t30.5 47t25.5 43.5t19.5 34.5v1q6 10 6 9l-1.5 2.5t-5.5 9.5q-2 4 -8 12t-16 20q-2 2 -5 3t-19 1h-1q3 -13 -3 -25q-8 -16 -20.5 -37.5t-26.5 -45t-30 -47t-32 -42.5q-8 -11 -14 -11.5t-14 5.5q-4 3 -7 6l-6 6 q2 -4 4 -6zM171 379q-9 12 -13 31t-4 42q0 32 10 64t25 59q3 21 6 41t3 33t-5 16.5t-17 -8.5q-15 -11 -33.5 -38t-30.5 -60.5t-13 -68.5t20 -62q17 -23 37 -42.5t41 -39.5q-6 8 -12.5 16t-13.5 17zM206 1086q-3 8 -34 17h1q-4 1 -7.5 2t-7.5 2q5 -20 9.5 -45.5t10.5 -52.5 l18 26t17 26q-2 5 -3.5 11zM120 241l22 -22q-15 17 -36 36t-43 40q12 -13 27 -26.5t30 -27.5z"/>
<glyph horiz-adv-x="348" unicode="‹" glyph-name="guilsinglleft" d="M218 490q-34 -17 -68 -37t-69 -42q13 -8 25 -15t23 -14v2q38 23 72 43t64 36l-1 1q8 3 12.5 5t7.5 2l-2 4t-3 5q-3 5 -12.5 17t-25.5 32q-7 7 -22 10q2 -3 3.5 -6t3.5 -5q10 -15 8 -23.5t-16 -14.5zM-24 338q0 -3 0.5 -4.5t0.5 -4.5q2 2 5 -1q53 -29 105.5 -59t103.5 -67 l-1 -1q7 -5 27 -5q15 0 21 2.5t8 7.5q4 15 6.5 28.5t3.5 26.5v3q0 10 -28 32q-5 4 -12 8.5t-16 10.5q1 -5 1 -15q-3 -36 -9 -58q-5 -17 -11.5 -20t-20.5 8q-42 30 -89 57.5t-95 53.5v-3zM284 471q5 -7 5 -4q0 4 -5 4z"/>
<glyph horiz-adv-x="643" unicode="Œ" glyph-name="OE" d="M207 665q-12 5 -28 -15.5t-31.5 -55t-29.5 -78.5t-23 -85q-9 -42 -13.5 -89t-3.5 -87.5t8 -69.5t22 -36q12 -8 27 7q-2 16 -2 34v39q0 40 4.5 83t12.5 82q7 33 16.5 67.5t19.5 66t20 57t19 40.5q-6 34 -18 40zM56 35q18 -14 47.5 -22t60.5 -13q7 -1 13.5 -1.5t14.5 -0.5 q54 0 87 24l4 -4q5 -5 14.5 -9t32.5 -4q11 0 18.5 1.5t14.5 3.5h-1q22 6 45.5 13t47.5 14q20 6 39 11.5t38 10.5q18 5 24.5 7t7.5 1v7q-5 12 -6 22q-4 11 -7.5 24t-11.5 30q-8 18 -44 19q4 -11 6.5 -22t6.5 -22q4 -20 0.5 -27.5t-20.5 -12.5q-42 -12 -86 -25t-84 -24 q-27 -10 -40.5 -4.5t-23.5 15.5q-4 4 -7.5 7t-6.5 7q-25 -25 -52 -33t-62 -3q-25 4 -51.5 12t-48.5 25q15 -15 30 -27zM447 527q5 22 8.5 42t8.5 40l-12 12q35 7 67.5 12t63.5 10q5 1 11 1.5t11 1.5q21 3 29 5t8 4v4q-2 2 -2.5 4.5t-0.5 10.5q-2 11 -5 23t-13 34v2 q-8 22 -46 23q4 -12 6 -23t5 -23q3 -21 -1.5 -28.5t-21.5 -10.5q-35 -5 -73.5 -11t-80.5 -14q-8 -37 -16 -78t-18 -86q16 3 31.5 4.5t32.5 2.5q2 10 4 19.5t4 18.5zM391 243l6 33l-11 11q26 8 53.5 15t55.5 14q11 3 22.5 5.5t22.5 5.5q34 11 34 7q0 3 -3 15v1q-3 14 -7 29 t-15 38v1q-7 16 -43 17q3 -11 5.5 -21t4.5 -21q5 -21 1 -28t-21 -12q-38 -10 -77.5 -19.5t-76.5 -20.5q-5 -29 -10 -56.5t-10 -53.5q31 9 64 13q1 7 2 13.5t3 13.5zM642 659q0 -2 1 -3zM564 67q0 -1 0.5 -1.5t0.5 1.5h-1z"/>
<glyph horiz-adv-x="262" unicode="‘" glyph-name="quoteleft" d="M120 571q4 -2 19 -5.5t31 -6.5q2 0 4.5 -0.5t4.5 -0.5q31 0 31 1l-4 11v1q-7 25 -16 61t-18.5 76t-18 78.5t-14.5 67.5q-2 8 -10.5 11t-28.5 3h-10q6 -30 14.5 -65t17 -69.5t16.5 -65.5t14 -53q10 -35 -19 -31q-11 2 -23.5 5.5t-22.5 8.5q-2 1 -3.5 2t-3.5 2 q9 -15 40 -31z"/>
<glyph horiz-adv-x="232" unicode="’" glyph-name="quoteright" d="M108 644q-7 -17 -14 -26t-18 -14q-15 -7 -42 -7q0 -3 -0.5 -5.5t-0.5 -4.5v-1q-1 -4 -1 -7q0 -7 36 -7h2q37 0 52 6q20 9 28.5 16t11.5 15q5 16 11 39t11 47.5t9 49t6 43.5v13q0 7 -4 15.5t-18 22.5q-5 5 -14 10.5t-21 12.5q2 -8 2 -16v-19q-2 -21 -6 -47t-9 -51 t-10.5 -47.5t-10.5 -37.5z"/>
<glyph horiz-adv-x="388" unicode="“" glyph-name="quotedblleft" d="M257 571q4 -2 19 -5.5t31 -6.5q2 0 4.5 -0.5t4.5 -0.5q31 0 31 1l-4 11v1q-7 25 -16 61t-18.5 76t-18 78.5t-14.5 67.5q-2 8 -10.5 11t-28.5 3h-10q6 -30 14.5 -65t17 -69.5t16.5 -65.5t14 -53q10 -35 -19 -31q-11 2 -23.5 5.5t-22.5 8.5q-3 1 -7 3q5 -8 14 -15t26 -15z M70 618q5 -10 15.5 -17.5t31.5 -15.5q8 -3 21.5 -4.5t30.5 -2.5h3q29 0 31 -1v-1q1 0 1 1h-1q-1 2 -2 5.5t-3 8.5q-5 17 -13.5 39.5t-17.5 48.5q-17 48 -34.5 99.5t-27.5 88.5q-4 14 -35 14h-10q9 -29 20.5 -63t23.5 -67.5t22.5 -63.5t17.5 -51q13 -34 -14 -33 q-12 1 -24 2.5t-23 5.5q-8 3 -13 7z"/>
<glyph horiz-adv-x="384" unicode="”" glyph-name="quotedblright" d="M252 632q-8 -16 -16 -24.5t-20 -10.5q-18 -6 -38 -3q0 -2 -0.5 -3t-0.5 -3v-1q-4 -11 -4 -10q0 -5 33 -6q12 -3 27 -3q21 0 29 3l-3 1q21 5 31 10.5t15 16.5q9 16 19.5 43t19 55.5t14 55t5.5 41.5v4q0 3 -17 23q-1 1 -12 10t-28 22l2 1q-4 2 -6 4q4 -9 6 -19 q1 -15 -4 -43t-13.5 -59t-19 -60t-19.5 -45zM108 644q-7 -17 -14 -26t-18 -14q-14 -7 -42 -7q0 -3 -0.5 -5.5t-0.5 -4.5v-1q-1 -4 -1 -7q0 -7 36 -7h2q38 0 52 6q26 12 35 22q-14 7 -6 32q8 31 21 80.5t24 99.5q-2 5 -6.5 11.5t-12.5 15.5q-5 5 -14 10.5t-21 12.5 q2 -8 2 -16v-19q-2 -21 -6 -47t-9 -51t-10.5 -47.5t-10.5 -37.5z"/>
<glyph horiz-adv-x="324" unicode="•" glyph-name="bullet" d="M143 217h7q31 0 55 12t40.5 29t26.5 36t13 33q2 12 3.5 23t1.5 25q0 29 -17.5 60t-55.5 54q18 -35 18 -74q0 -15 -1.5 -27t-3.5 -24q-3 -16 -12.5 -37t-24.5 -40t-36 -32t-47 -13q-36 -3 -65 17q39 -42 98 -42z"/>
<glyph horiz-adv-x="555" unicode="–" glyph-name="endash" d="M20 310q17 -20 61 -20q7 0 11 0.5t9 1.5q77 14 162 21.5t166 11.5l50 2q0 2 -3 8q-2 4 -2.5 8t-2.5 9q-3 8 -6.5 18t-15.5 28v1q-9 17 -40 21q4 -11 6.5 -20.5t6.5 -18.5q6 -18 -2.5 -24t-31.5 -7q-81 -4 -167 -11.5t-162 -21.5q-17 -3 -29.5 -1t-23.5 10q3 -4 6.5 -7.5 t7.5 -8.5zM479 327q1 0 1 1z"/>
<glyph horiz-adv-x="844" unicode="—" glyph-name="emdash" d="M20 310q17 -20 61 -20q7 0 11 0.5t9 1.5q28 5 88 9.5t134 7.5t153 5.5t146 4.5q48 2 85.5 2.5t58.5 1.5l50 2q0 2 -3 8q-2 4 -2.5 8t-2.5 9q-3 8 -6.5 18t-15.5 28v1q-9 17 -40 21q4 -11 6.5 -20.5t6.5 -18.5q6 -18 -2.5 -24t-31.5 -7q-27 -1 -80 -2.5t-118.5 -3.5 t-137 -4.5t-136.5 -5.5t-117 -6.5t-77 -8.5q-17 -3 -29.5 -1t-23.5 10q3 -4 6.5 -7.5t7.5 -8.5zM816 325q1 0 1 1z"/>
<glyph horiz-adv-x="495" unicode="˜" glyph-name="tilde" d="M296 892q-45 0 -65 20q-5 5 -14 9.5t-19 8t-20 5.5t-17 2q-6 0 -13 -5t-13 -11.5t-11 -11.5t-6 -5q-11 -10 -30 -10h-3q-3 -9 -3 -12q0 -13 46 -13q32 0 40 6l-10 4l8.5 0.5t10.5 2.5q8 9 17 19.5t7 10.5q4 0 12 -2.5t16.5 -6.5t16.5 -9t14 -11q16 -16 76 -16q45 0 78 33 h-1q23 20 33 33t11 20q-1 -3 -6 2q-22 14 -46 14h-10q-10 -19 -32 -40q-37 -37 -67 -37z"/>
<glyph horiz-adv-x="629" unicode="™" glyph-name="trademark" d="M200 732q-14 -2 -30 -4.5t-34 -4.5q-7 -42 -15 -88.5t-15.5 -94.5t-14 -95t-12.5 -89q-2 -17 -11.5 -14t-26.5 10q-6 2 -8 3v-3q0 -5 11 -11t28 -14q-4 2 0 -0.5t9 -4.5q10 -5 28 -5h25v1q6 42 12.5 89t14 95t15.5 95t15 89l-13 12q14 2 26 3t23 3q2 14 4 27t4 24 q-4 0 -10 0.5t-14 0.5q0 -3 1 -4q2 -11 0.5 -15t-12.5 -5zM463 348q0 -3 22 -17l-1 -1q2 -2 13.5 -6t25.5 -9q1 -1 3 -1h10q17 0 21.5 1.5t5.5 4.5q3 31 10 81t15.5 104.5t16.5 106t14 86.5q2 10 2 12q-1 -1 -4 2q-14 8 -27 14.5t-26 11.5v-2q-6 -35 -14 -86.5t-16.5 -106 t-15.5 -104.5t-10 -81q-2 -11 -5.5 -16t-14.5 -1q-6 2 -12.5 4.5t-12.5 5.5v-3zM295 622q-12 -72 -22 -144.5t-15 -123.5q-2 -11 -5.5 -14t-13.5 0q-12 3 -24 10v-2q0 -1 20 -18q3 -3 14 -7t25 -9h13q17 0 21 1t5 4q2 18 4.5 39.5t5.5 45.5q-2 5 -3 10t-2 13q-7 41 -13 92 t-10 103zM366 362q2 -1 11.5 -3.5t23.5 -7.5h12q21 0 23 1.5t3 4.5q1 2 1.5 5.5t1.5 6.5q-6 10 -3 29q1 17 4 43.5t6.5 58t8.5 65.5t10 65q-10 -27 -22 -60t-23.5 -65.5t-21.5 -62t-16 -49.5q-4 -12 -6.5 -15.5t-13.5 -0.5q-14 3 -21 7q2 -8 7 -12.5t15 -9.5zM407 690 q-2 10 -6.5 18t-28.5 20q-9 5 -21 8q0 -1 0.5 -2t0.5 -2q0 -4 0.5 -10t2 -22t4.5 -46t9 -82q8 24 18 53.5t21 58.5v6zM13 680v-1q2 -3 8.5 -4.5t20.5 -1.5q2 9 3 18t3 17q-11 -2 -20.5 -4t-16.5 -4q-4 -2 -10 -2q4 -8 12 -18z"/>
<glyph horiz-adv-x="401" unicode="š" glyph-name="scaron" d="M295 379l-1 -1q2 -2 9 -2h15q31 0 35 13q6 21 12 46.5t10.5 52.5t8 53t4.5 47q-1 20 -6 44t-33 57h1q-7 7 -16.5 14.5t-21.5 15.5q14 -24 17 -48t4 -44q-1 -22 -4.5 -49t-8 -54.5t-10 -53.5t-11.5 -45q-6 -18 -14 -22.5t-23 3.5q-12 5 -22 11.5t-18 13.5q22 -27 73 -52z M163 -5h8q46 1 77.5 14t52 32t31.5 40.5t17 40.5q7 21 7 32q0 29 -27.5 60.5t-65.5 66.5q23 -27 33.5 -57t-1.5 -66q-6 -21 -17.5 -44.5t-30.5 -44t-47.5 -34.5t-68.5 -15q-40 -2 -77 13.5t-75 53.5q41 -49 86.5 -70.5t97.5 -21.5zM153 882q1 -1 8.5 -7.5t17.5 -14.5l-1 -1 q3 -3 6.5 -6t6.5 -6q2 -2 23 -2q23 0 28 6q18 21 34.5 45t30.5 47t25.5 43.5t19.5 34.5v1q6 10 6 9l-1.5 2.5t-5.5 9.5q-2 4 -8 12t-16 20q-2 2 -5 3t-19 1h-1q3 -13 -3 -25q-8 -16 -20.5 -37.5t-26.5 -45t-30 -47t-32 -42.5q-8 -11 -14 -11.5t-14 5.5q-4 3 -7 6l-6 6 q2 -4 4 -6zM171 379q-9 12 -13 31t-4 42q0 32 10 64t25 59q3 21 6 41t3 33t-5 16.5t-17 -8.5q-15 -11 -33.5 -38t-30.5 -60.5t-13 -68.5t20 -62q17 -23 37 -42.5t41 -39.5q-6 8 -12.5 16t-13.5 17zM206 1086q-3 8 -34 17h1q-4 1 -7.5 2t-7.5 2q5 -20 9.5 -45.5t10.5 -52.5 l18 26t17 26q-2 5 -3.5 11zM120 241l22 -22q-15 17 -36 36t-43 40q12 -13 27 -26.5t30 -27.5z"/>
<glyph horiz-adv-x="370" unicode="›" glyph-name="guilsinglright" d="M259 437q-6 -40 -15 -68q-5 -17 -11.5 -24.5t-20.5 -14.5q-51 -20 -91 -39.5t-78 -42.5q-16 -12 -29 -3q5 -5 9.5 -10t10.5 -10q9 -9 33 -9q12 0 17 1t8 3l-1 1q43 26 82 45.5t85 37.5q22 11 30 16t10 13v1q6 19 10 35t6 30q1 5 1.5 8.5t0.5 5.5q0 -1 -27 18q-7 5 -14 9 t-15 9q0 -7 -1 -12zM59 450h-1q11 -5 23 -12t29 -16q2 1 4.5 2t4.5 2q-24 14 -47.5 26.5t-46.5 23.5h-2q3 -8 10 -13t26 -13z"/>
<glyph horiz-adv-x="643" unicode="œ" glyph-name="oe" d="M207 665q-12 5 -28 -15.5t-31.5 -55t-29.5 -78.5t-23 -85q-9 -42 -13.5 -89t-3.5 -87.5t8 -69.5t22 -36q12 -8 27 7q-2 16 -2 34v39q0 40 4.5 83t12.5 82q7 33 16.5 67.5t19.5 66t20 57t19 40.5q-6 34 -18 40zM56 35q18 -14 47.5 -22t60.5 -13q7 -1 13.5 -1.5t14.5 -0.5 q54 0 87 24l4 -4q5 -5 14.5 -9t32.5 -4q11 0 18.5 1.5t14.5 3.5h-1q22 6 45.5 13t47.5 14q20 6 39 11.5t38 10.5q18 5 24.5 7t7.5 1v7q-5 12 -6 22q-4 11 -7.5 24t-11.5 30q-8 18 -44 19q4 -11 6.5 -22t6.5 -22q4 -20 0.5 -27.5t-20.5 -12.5q-42 -12 -86 -25t-84 -24 q-27 -10 -40.5 -4.5t-23.5 15.5q-4 4 -7.5 7t-6.5 7q-25 -25 -52 -33t-62 -3q-25 4 -51.5 12t-48.5 25q15 -15 30 -27zM447 527q5 22 8.5 42t8.5 40l-12 12q35 7 67.5 12t63.5 10q5 1 11 1.5t11 1.5q21 3 29 5t8 4v4q-2 2 -2.5 4.5t-0.5 10.5q-2 11 -5 23t-13 34v2 q-8 22 -46 23q4 -12 6 -23t5 -23q3 -21 -1.5 -28.5t-21.5 -10.5q-35 -5 -73.5 -11t-80.5 -14q-8 -37 -16 -78t-18 -86q16 3 31.5 4.5t32.5 2.5q2 10 4 19.5t4 18.5zM391 243l6 33l-11 11q26 8 53.5 15t55.5 14q11 3 22.5 5.5t22.5 5.5q34 11 34 7q0 3 -3 15v1q-3 14 -7 29 t-15 38v1q-7 16 -43 17q3 -11 5.5 -21t4.5 -21q5 -21 1 -28t-21 -12q-38 -10 -77.5 -19.5t-76.5 -20.5q-5 -29 -10 -56.5t-10 -53.5q31 9 64 13q1 7 2 13.5t3 13.5zM642 659q0 -2 1 -3zM564 67q0 -1 0.5 -1.5t0.5 1.5h-1z"/>
<glyph horiz-adv-x="434" unicode="Ÿ" glyph-name="Ydieresis" d="M364 684q-9 -31 -28 -78.5t-43.5 -103.5t-52.5 -117t-55 -118q-11 -63 -19 -119.5t-15 -110.5q-4 -20 -10 -24.5t-23 1.5q-14 6 -29.5 13.5t-29.5 15.5q2 -6 12 -14q17 -11 37.5 -21t39.5 -18q6 -2 9 -3.5t17 -1.5q20 0 25 4t7 12q7 54 15 110t19 119l-1 3 q27 58 55.5 119t53 117t43 103t27.5 76v1q8 23 8 30q0 4 -5 12q-11 12 -25 26.5t-31 25.5q7 -14 6.5 -26.5t-7.5 -32.5zM140 701q-6 18 -15.5 27.5t-35.5 17.5q-1 0 -1.5 0.5t-2.5 0.5v-1h1q13 -48 27.5 -111t30.5 -135q8 17 15 33.5t15 33.5q-9 38 -17.5 71.5t-16.5 62.5z M292 846h3q33 0 48.5 14.5t17.5 25.5v1q1 5 1.5 9t0.5 9q0 10 -11.5 22.5t-35.5 23.5q-2 1 -4 1t-5 1q1 -3 1 -8q0 -7 -0.5 -12t-1.5 -10q-2 -7 -5.5 -16t-10 -17t-15.5 -13.5t-20 -5.5q-13 -1 -24 5q8 -14 24.5 -22t36.5 -8zM117 847h3q32 0 48 14.5t18 24.5l-1 3 q4 11 4 16q0 11 -11.5 23.5t-36.5 23.5l1 1q-2 0 -4 0.5t-5 0.5q1 -3 1 -9q0 -12 -3 -21q-1 -7 -5 -16t-10.5 -17t-15.5 -13.5t-20 -5.5q-12 -1 -23 5q8 -14 24 -22t36 -8z"/>
<glyph horiz-adv-x="267" unicode="¡" glyph-name="exclamdown" d="M-17 22q11 -11 33.5 -21.5t45.5 -18.5q5 -2 10.5 -3t13.5 -1q20 0 27.5 4.5t9.5 14.5q10 50 22 116t23 135.5t21 136.5t16 119q1 6 1.5 11.5t0.5 8.5q0 10 -28 31q-11 8 -28 15q1 -6 0.5 -13t-1.5 -15q-6 -53 -16 -120t-21 -136.5t-23 -135.5t-22 -116 q-5 -23 -13.5 -28.5t-27.5 2.5q-15 5 -32.5 14t-32.5 21q4 -5 9 -9.5t12 -11.5zM186 748q-1 -20 -8 -38.5t-18.5 -30.5t-28 -16t-37.5 5q-3 1 -6.5 2.5t-5.5 3.5q16 -20 46 -32q15 -5 33 -5q37 0 57.5 22t22.5 50v7q0 29 -16.5 48t-42.5 26q2 -9 3 -20t1 -22z"/>
<glyph horiz-adv-x="372" unicode="¢" glyph-name="cent" d="M132 266q0 29 3.5 60.5t9.5 61.5q4 19 9.5 40l11 42t11.5 40.5t12 35.5v13q0 20 -2 35.5t-10 20.5q-9 3 -21 -14.5t-24.5 -46.5t-23.5 -63.5t-18 -65.5q-7 -33 -10 -67t-2.5 -62.5t5.5 -48t15 -23.5q13 -7 34 16v26zM276 244q-5 2 -13.5 3t-16.5 1q-1 -2 -1.5 -5t-1.5 -5 q-8 -26 -21 -48t-27 -36t-36.5 -22.5t-44.5 -6.5h-2q-5 -29 -9.5 -57.5t-6.5 -50.5q-2 -15 -7 -19t-14 1q5 -7 10.5 -12.5t12.5 -10.5t26 -5q15 0 20.5 2t6.5 6q2 22 6.5 51t9.5 58l-15 12h11q27 0 49.5 6.5t33.5 17.5q17 17 31 38.5t20 40.5q8 22 8 27q0 2 -29 14zM287 434 l2 -1h12q20 0 24.5 2t5.5 4q0 1 0.5 0t0.5 0v3q3 17 5 39t2 43q0 8 -0.5 14.5t-0.5 13.5q-1 17 -6 30.5t-20 28.5l-24 18l6 16q4 14 5 25t3 21q1 5 1.5 9t1.5 8q1 6 1.5 11t0.5 9q0 19 -11.5 37t-31.5 35v1q-5 4 -19 5q9 -27 5 -60q-2 -14 -4.5 -31t-6.5 -34l12 -9 q18 -18 24 -36.5t8 -42.5q2 -27 0.5 -59.5t-6.5 -54.5q-3 -11 -6.5 -17.5t-19.5 -1.5q-8 2 -14 4.5t-11 5.5q8 -11 22 -20t39 -16z"/>
<glyph horiz-adv-x="440" unicode="£" glyph-name="sterling" d="M95 13q5 -5 13 -9t32 -4q17 0 35 6h-1q61 18 128 37l42 12q30 9 33 6q0 3 -1 8l-2 10q-2 14 -7.5 30.5t-15.5 36.5q-5 9 -14 13.5t-29 5.5q4 -11 6.5 -21.5t4.5 -21.5q5 -21 3 -28t-22 -13q-42 -12 -86 -24.5t-84 -24.5q-23 -10 -36 -7.5t-21 9.5l7 -7t15 -14zM212 267 l-13 12q54 6 109 9q14 1 23 1.5t11 -0.5q0 -1 0.5 -1.5t0.5 0.5l-1 1q-2 1 -3 9l1 1q-2 9 -6.5 20.5t-16.5 34.5l1 1q-7 16 -42 19q2 -8 4.5 -15.5t4.5 -15.5q5 -17 0.5 -23t-18.5 -7q-56 -3 -110 -9q-5 -26 -9 -52t-8 -51q17 4 32 7t31 5zM246 461l-15 12h43q22 0 45 -1 q2 0 3.5 -0.5t3.5 -0.5h30l-2 10q-1 5 -6 20t-13 37q-6 15 -46 20q3 -9 5.5 -17.5t4.5 -16.5q4 -17 -1 -23t-19 -4q-23 1 -45 1h-43l-12 -69q12 1 23.5 0.5t22.5 -0.5q7 0 15 -3zM280 632l4 18l4 18q3 12 3 16q0 2 -6 7.5t-20 18.5q-10 8 -29 18q0 -9 -3 -24 q-5 -20 -9.5 -42t-9.5 -45q8 -1 14.5 -1.5t13.5 -1.5q19 -3 31 -16q2 9 3.5 17.5t3.5 16.5zM10 483q-7 -1 -11.5 -1.5t-9.5 1.5q3 -5 5 -10q5 -9 15 -12.5t30 -3.5h1q1 8 1.5 15.5t2.5 15.5q-8 -2 -16.5 -2.5t-17.5 -2.5zM-13 265v-1q6 -10 24 -13l2 14t2 15l-12 -3 q-15 -3 -22 -1q2 -3 6 -11zM377 61l1 -1v0q0 1 -1 1z"/>
<glyph horiz-adv-x="512" unicode="¤" glyph-name="currency" d="M125 25q-3 0 3 -3v1q-1 0 -3 2q2 -1 6.5 -3t8.5 -4q17 -8 38 -16.5t58 -13.5h-1q5 -1 17 -1q35 0 64 10t43 24q21 23 40 52t28 57q5 14 7.5 23.5t2.5 14.5t-8.5 10.5t-28.5 13.5q-5 2 -9.5 3t-9.5 2q-2 -7 -3.5 -15t-4.5 -16q-11 -35 -29 -65t-36 -50 q-19 -19 -49.5 -30.5t-60.5 -7.5q-31 4 -56.5 15.5t-45.5 21.5q-5 1 -8 5q8 -8 17.5 -15.5t19.5 -14.5zM420 440h-1q3 -1 7 -1.5t12 -0.5q24 0 28.5 4.5t6.5 12.5q0 1 0.5 -2t0.5 -2v3q5 23 7 53t2 59v20t-1 19q-2 26 -8.5 46t-26.5 40q-8 7 -17 13.5t-20 12.5 q8 -16 11.5 -33.5t5.5 -37.5q2 -37 0 -81t-8 -74q-4 -14 -9 -22.5t-26 -2.5q-13 3 -23 8t-18 11q11 -15 29 -26t48 -19zM204 217l-13 15q22 3 44 4.5t45 3.5q26 20 60 11v1l1 1q-2 9 -6.5 20.5t-16.5 34.5l1 1q-7 16 -42 19q2 -8 4.5 -15.5t4.5 -15.5q5 -17 0.5 -23 t-18.5 -7q-31 -2 -60.5 -4t-58.5 -6q0 -44 6.5 -74.5t21.5 -36.5q12 -6 29 6q-2 14 -2 30v35zM227 408l-2 4q1 2 1 3q0 2 1 4l-13 8h30h37q19 0 38 -1q2 0 4 -0.5t4 -0.5h30l-2 10q-1 5 -6 19.5t-13 35.5q-3 3 -6 6.5t-6 6.5q-12 6 -34 9q3 -9 5.5 -17.5t4.5 -16.5 q4 -17 -1 -23t-19 -4q-27 1 -53.5 1.5t-52.5 -0.5q-2 -9 -4 -17.5t-4 -16.5q-2 -9 -3.5 -18t-3.5 -18q17 1 32.5 1.5t29.5 -0.5zM300 617q-1 21 -4 37t-13 21q-14 5 -32.5 -25.5t-37.5 -78.5l30 -3q20 -3 30 -16q8 19 14.5 35.5t12.5 29.5zM-12 219v-1q6 -11 29 -14 q-2 7 -2 14t-1 15q-2 -1 -5 -1q-2 0 -5 -1q-15 -3 -22 -1q2 -3 6 -11zM11 437q-7 -1 -11.5 -1.5t-9.5 1.5q3 -5 5 -10q7 -12 26 -15q2 7 2.5 13.5t2.5 13.5q-4 -1 -8 -1q-3 0 -7 -1z"/>
<glyph horiz-adv-x="434" unicode="¥" glyph-name="yen" d="M272 303l-14 9h33q8 0 17 -0.5t18 -0.5q2 0 3.5 -0.5t3.5 -0.5h30l-2 10q-1 2 -5.5 17t-12.5 36q-2 3 -8 8t-20 13l7 19q34 75 59.5 137.5t36.5 97.5v1q8 23 8 30q0 4 -5 12q-11 12 -25 26.5t-31 25.5q7 -14 6.5 -26.5t-7.5 -32.5q-11 -38 -37 -101t-59 -136 q12 -6 20 -25q6 -17 10.5 -31t7.5 -28q4 -17 -1 -23t-19 -4q-17 0 -34 0.5t-34 0.5q-8 -18 -16.5 -35t-16.5 -34q12 1 24 0.5t23 -0.5q10 0 20 -5q5 10 10 19.5t10 20.5zM71 29q17 -11 37.5 -21t39.5 -18q6 -2 9 -3.5t17 -1.5q20 0 25 4t7 12q3 26 6.5 51.5t7.5 52.5l-13 13 q55 6 108 9q14 1 23 1.5t11 -0.5q0 -1 0.5 -1.5t0.5 0.5l-1 1q-2 1 -3 9l1 1q-2 9 -6.5 20.5t-16.5 34.5l1 1q-7 16 -42 19q2 -8 4.5 -15.5t4.5 -15.5q5 -17 0.5 -23t-18.5 -7q-55 -3 -109 -9q-4 -27 -7.5 -53.5t-6.5 -52.5q-4 -20 -10 -24.5t-23 1.5q-14 6 -29.5 13.5 t-29.5 15.5q2 -6 12 -14zM140 701q-6 18 -15.5 27.5t-35.5 17.5q-1 0 -1.5 0.5t-2.5 0.5v-1h1q13 -48 27.5 -111t30.5 -135q8 17 15 33.5t15 33.5q-9 38 -17.5 71.5t-16.5 62.5zM17 322q-16 -2 -21 0q3 -5 5 -10q5 -9 15 -12.5t30 -3.5h6q1 8 1.5 16t2.5 16zM-6 104v-1 q4 -7 12 -10.5t25 -3.5v11t1 14q0 5 1 7q-10 -1 -23 -5q-15 -3 -22 -1q2 -3 6 -11z"/>
<glyph horiz-adv-x="286" unicode="¦" glyph-name="brokenbar" d="M243 763q-5 3 -12 7t-16 9q0 -10 -3 -23q-7 -38 -12 -63.5t-8.5 -45t-6.5 -35.5t-7 -35t-9.5 -42.5t-12.5 -58.5q-4 -19 -9.5 -24.5t-22.5 0.5q-28 12 -47 24q3 -5 8.5 -10.5t16.5 -12.5q5 -4 17 -9.5t35 -15.5q11 -4 24 -4q20 0 25.5 3.5t7.5 11.5q10 48 16.5 76.5 t11 52t9.5 50t13 71.5q3 13 6 30q3 13 3 19l-28 24zM173 288q-5 3 -12 7t-16 9q0 -10 -3 -23q-7 -38 -11.5 -63.5t-8 -45t-6.5 -35.5t-6.5 -35t-8.5 -42.5t-12 -58.5q-4 -19 -9.5 -24.5t-22.5 0.5q-14 6 -25 12l-22 12q3 -5 8.5 -10t16.5 -13q5 -4 17 -9.5t35 -15.5 q11 -4 24 -4q20 0 25.5 3.5t7.5 11.5q7 33 12 56t8.5 41t6 33.5t5.5 33.5q4 20 8.5 47t12.5 69q3 13 3 19l-28 24z"/>
<glyph horiz-adv-x="603" unicode="§" glyph-name="section" d="M183 -28h8q39 1 67.5 10.5t48.5 23.5t32.5 31.5t19.5 35.5l-17 9q15 -3 34 -3h10q46 1 77.5 14t52 32t31.5 40.5t17 40.5q7 21 7 32q0 29 -27.5 60.5t-65.5 66.5q23 -27 33.5 -57t-1.5 -66q-6 -21 -17.5 -44.5t-30.5 -44t-47.5 -34.5t-68.5 -15q-21 -2 -41 3 q-8 -19 -20.5 -38t-31 -35t-43.5 -26t-59 -11q-40 -2 -77 13.5t-75 53.5q41 -49 86.5 -70.5t97.5 -21.5zM510 463l-1 -1q2 -2 9 -2h15q31 0 35 13q6 21 12 46.5t10.5 52.5t8 53t4.5 47q-1 20 -6 44t-33 57h1q-7 7 -16.5 14.5t-21.5 15.5q14 -24 17 -48t4 -44 q-1 -22 -4.5 -49t-8 -54.5t-10 -53.5t-11.5 -45q-6 -18 -14 -22.5t-23 3.5q-12 5 -22 11.5t-18 13.5q22 -27 73 -52zM386 463q-9 12 -13 31t-4 42q0 32 10 64t25 59q3 21 6 41t3 33t-5 16.5t-17 -8.5q-15 -11 -33.5 -38t-30.5 -60.5t-13 -68.5t20 -62q17 -23 37 -42.5 t41 -39.5q-6 8 -12.5 16t-13.5 17zM139 405q16 -22 35 -41t39 -37q-5 7 -10.5 14t-11.5 15q-20 26 -29 61t-9 72q0 27 5 50t15 39q-2 38 0 62q-12 9 -44 -23q-15 -11 -23 -35.5t-7.5 -54.5t10 -62.5t30.5 -59.5zM336 323q6 -6 12 -11.5t11 -11.5q-12 14 -29.5 30.5 t-36.5 33.5h-1q11 -11 22 -21zM140 218l22 -22q-15 17 -36 36t-43 40q12 -13 27 -26.5t30 -27.5zM284 372l-21 21q-4 2 -6 4q7 -7 13.5 -13t13.5 -12z"/>
<glyph horiz-adv-x="420" unicode="¨" glyph-name="dieresis" d="M292 846h3q33 0 48.5 14.5t17.5 25.5v1q1 5 1.5 9t0.5 9q0 10 -11.5 22.5t-35.5 23.5q-2 1 -4 1t-5 1q1 -3 1 -8q0 -7 -0.5 -12t-1.5 -10q-2 -7 -5.5 -16t-10 -17t-15.5 -13.5t-20 -5.5q-13 -1 -24 5q8 -14 24.5 -22t36.5 -8zM117 847h3q32 0 48 14.5t18 24.5l-1 3 q4 11 4 16q0 11 -11.5 23.5t-36.5 23.5l1 1q-2 0 -4 0.5t-5 0.5q1 -3 1 -9q0 -12 -3 -21q-1 -7 -5 -16t-10.5 -17t-15.5 -13.5t-20 -5.5q-12 -1 -23 5q8 -14 24 -22t36 -8z"/>
<glyph horiz-adv-x="833" unicode="©" glyph-name="copyright" d="M738 713q26 -33 40.5 -81.5t18.5 -102.5t-2.5 -110t-22.5 -105q-24 -73 -69.5 -130.5t-104 -98.5t-125.5 -65t-135 -30t-132 6t-117 44q-15 8 -26 18q23 -25 58 -45q42 -26 96.5 -38t115.5 -12q76 0 153 21t144 61t118.5 99t77.5 135q14 42 20.5 85t6.5 85 q0 60 -15.5 116.5t-47.5 98.5l1 2q-33 60 -95 108q12 -14 22.5 -29.5t19.5 -31.5zM120 264q0 55 15 116t40.5 120.5t59.5 113t72 94.5t78.5 65.5t78.5 24.5q10 0 22 -3q17 -4 35 -12.5t36 -20.5q-26 22 -53 37t-54 21q-41 9 -85.5 -10t-87 -57.5t-81 -92t-68 -113.5 t-46.5 -122.5t-17.5 -119t19 -103t63.5 -73.5q-14 28 -20.5 62t-6.5 73zM370 285q0 28 3.5 59.5t9.5 61.5q8 38 20 81.5t23 75.5v13q0 20 -2 35t-11 20q-8 3 -20 -14.5t-24.5 -46t-23.5 -63t-17 -64.5q-7 -33 -10 -66.5t-2.5 -61.5t5.5 -47.5t15 -23.5q12 -8 34 17v24z M512 263q-12 5 -30 5l-3 -9q-8 -26 -21 -48t-26 -37q-14 -14 -36 -22t-45 -5q-23 2 -41.5 10.5t-32.5 16.5l-6 3q16 -16 36 -29q17 -8 36.5 -16t45.5 -10q3 0 6.5 -0.5t6.5 -0.5q27 0 50.5 9.5t38.5 23.5q13 15 25 33.5t17 35.5v1q8 22 8 26q0 2 -30 13h1zM523 452l2 -1h12 q20 0 24.5 1.5t5.5 3.5q0 1 0.5 0t0.5 0v3q3 17 5 39t2 43q0 8 -0.5 14.5t-0.5 13.5q-1 16 -8 31t-29 37q-12 10 -27 17q7 -19 9 -44q2 -27 0.5 -59t-6.5 -55q-3 -11 -6.5 -17t-19.5 -1q-14 4 -27 12q15 -25 63 -38z"/>
<glyph horiz-adv-x="274" unicode="ª" glyph-name="ordfeminine" d="M160 561q17 0 25 -20q4 -11 6 -20t5 -20q4 -20 -13 -21q-9 -1 -18 -1.5t-19 -1.5q-7 -41 -12.5 -77t-9.5 -66q-2 -11 -6 -14.5t-15 0.5q-5 2 -11.5 5t-12.5 7v-3q0 -1 7 -8q11 -8 22 -14t19 -9q8 -2 13.5 -3.5t12.5 -1.5q17 0 21 0.5t5 2.5q4 30 9.5 66t12.5 77l-14 13 q10 1 19 1.5t18 1.5q21 1 26 -1q2 -5 2 -2q0 2 -2 2l-0.5 5.5t-2.5 12.5q-2 6 -4 11.5t-4 12.5q-2 5 -11 7.5t-28 2.5l15 18q9 48 17 89.5t15 73.5l2 9q-2 -2 -5 2q-8 5 -22 14.5t-29 18.5q0 -2 -0.5 -3.5t-0.5 -3.5q-7 -32 -15 -73.5t-17 -89.5zM4 548q17 3 37 5l40 4 q7 37 13 73.5t14 70.5q-28 -33 -54.5 -75t-49.5 -78zM-6 435l-1 -1q5 -6 32 -6q8 0 9.5 0.5t5.5 1.5q5 2 10.5 2.5t10.5 1.5l2 16t3 17q-18 -3 -35 -5.5t-34 -6.5q-12 -3 -19 -1q4 -5 7.5 -9.5t8.5 -9.5z"/>
<glyph horiz-adv-x="624" unicode="«" glyph-name="guillemotleft" d="M592 448q6 3 10.5 5.5t7.5 3.5q-1 2 -2 3.5l-3 4.5h1q-8 12 -19 26t-29 32q-8 6 -17 7l6 -8t6 -9q8 -14 4 -23t-13 -15q-28 -17 -68 -36.5t-83 -36.5q22 -13 46 -26q48 20 88.5 38.5t64.5 33.5zM266 454q1 1 1 2t1 3q5 17 11 24t20 14q-8 10 -17 21.5t-23 25.5 q-8 6 -17 7l6 -8t6 -9q8 -14 4 -23t-13 -15q-28 -17 -68 -36.5t-83 -36.5q22 -13 46 -26q36 15 68.5 29.5t57.5 27.5zM276 335q0 -1 26 -19q23 -15 51 -32t57.5 -32.5t58 -30t52.5 -24.5q2 -1 6.5 -1.5t12.5 -0.5q14 0 22.5 1t9.5 3q1 8 1.5 15.5t0.5 15.5v18q0 8 -1 11 q-2 8 -4 13t-6 9.5t-11 8t-19 8.5h1l-8 4t-9 4q2 -15 2 -34t-2 -34q-2 -14 -10.5 -17t-19.5 2q-20 9 -46 21.5t-53.5 28t-56.5 33t-55 34.5v-5zM-23 356q0 -1 26 -19q23 -15 51 -32t57.5 -32.5t58 -30t52.5 -24.5q2 -1 6.5 -1.5t12.5 -0.5q14 0 22.5 1t9.5 3q1 8 1.5 15.5 t0.5 15.5v18q0 8 -1 11q-2 8 -4 13t-6 9.5t-11 8t-19 8.5h1l-8 4t-9 4q2 -15 2 -34t-2 -34q-2 -14 -10.5 -17t-19.5 2q-20 9 -46 21.5t-53.5 28t-56 33t-54.5 34.5q-1 -2 -1 -5zM610 457q3 -3 3 -1t-3 1z"/>
<glyph horiz-adv-x="949" unicode="¬" glyph-name="logicalnot" d="M820 213q17 -9 30 -25t15 -33q5 -21 -3 -36.5t-25 -29.5q-12 -12 -29.5 -22t-36.5 -18.5t-38.5 -15.5t-35.5 -11q-20 -5 -31 -4.5t-25 9.5q-16 6 -26.5 13.5t-23.5 18.5q-11 12 -15.5 19.5t-0.5 25.5q4 42 12.5 94t16.5 104v10q0 6 1 11q0 3 -6.5 6.5t-26.5 9.5 q-2 1 -5 1t-5 1q-3 1 -6.5 1.5t-6.5 1.5q-1 -30 0 -68t2.5 -79t4 -83.5t5.5 -81.5q0 -9 -3.5 -12.5t-15.5 -3.5q-13 0 -24 0.5t-23 5.5q1 -3 1 -8q2 -5 8.5 -9t26.5 -9h-1q10 -4 23 -4.5t29 -0.5h34q-1 11 -1.5 22.5t-1.5 23.5q1 -1 1.5 -2t1.5 -2l4 -3q8 -6 18.5 -12 t37.5 -17l-3 -1q7 -5 14.5 -6.5t21.5 -1.5q11 0 17.5 1t14.5 3q19 5 40 12t41.5 15.5t37.5 17.5t27 19q16 14 25.5 24.5t9.5 16.5q0 1 -2 11v1q-2 10 -16.5 23t-36.5 24l1 26q40 25 48 31h-1q19 16 32.5 30t13.5 23l-1 3l-3 9l1 1q-3 12 -16 27t-33 32q-3 2 -6.5 4t-7.5 4 q5 -13 8 -23q8 -24 -4.5 -44.5t-32.5 -37.5q-18 -15 -46 -32zM303 743q-17 -2 -37 -3.5t-40 -3.5q-9 -35 -19 -74.5t-19.5 -79.5t-18 -79t-15.5 -75q-2 -14 -15 -11.5t-34 8.5q-4 1 -7.5 2t-6.5 2v-2l1 -4q-1 -3 -1.5 -4l-0.5 -1q2 -3 16 -8t34 -11l9 -3q7 -2 12 -3.5 t20 -1.5h20t8 -1v1q7 36 15.5 75.5t18 79.5t19.5 79.5t19 74.5l-13 11q14 2 27.5 3t26.5 2q2 0 4.5 0.5t4.5 0.5q2 8 3 16.5t3 16.5q-10 4 -18 4q0 -5 -2.5 -7.5t-13.5 -3.5zM617 747q-8 -31 -18 -70t-20.5 -81.5t-20 -85t-16.5 -81.5q0 -14 -13.5 -11.5t-33.5 7.5 q-8 2 -13 4v-4l1 -4l-2 -5q2 -2 15.5 -6.5t33.5 -10.5q2 -1 4 -1t4 -1q7 -2 12 -3.5t20 -1.5q25 0 27 -3v3q3 15 6 31.5t7 33.5q-5 6 -7 14t0 18l46 247q-6 2 -14 5t-18 6zM463 118q-35 -5 -70.5 -9.5t-62.5 -12.5q-11 -19 -18.5 -35.5t-15.5 -32.5q-5 -9 -9.5 -10.5 t-16.5 2.5q-2 0 -2.5 1t-2.5 1q2 -1 2 -7v-2l-2 5l-1 2q0 1 -1 3q-5 2 -10.5 4.5t-11.5 5.5q-8 6 -13.5 10.5t-4.5 15.5q-2 0 -5 0.5t-7 0.5q2 -7 -0.5 -9.5t-15.5 -4.5q-32 -6 -64.5 -12.5t-61.5 -12.5q-22 -6 -31 -3t-16 8q-6 4 -11 8t-11 9q0 -2 8 -10q3 -2 7 -5.5 t14 -13.5q6 -5 12 -8t12 -8q3 -2 8.5 -4t25.5 -2q16 0 27 3l-2 1q29 6 61.5 12.5t64.5 12.5q4 1 7 1.5t6 0.5l-2 -4q3 1 17 -9q-3 1 -3 0t2 -2l2 1q-1 0 -1 1q1 -2 6 -3q-1 1 2.5 -0.5t9 -4t11.5 -5t9 -3.5t7 -1.5t12 -0.5q16 0 22 4t11 13q0 -3 1 0h-1v1q6 12 12.5 26 t14.5 28l-9 6q23 6 46 10.5t46 7.5q-2 13 -3 30zM179 255q-1 11 1 19t5 15.5t7.5 15t7.5 17.5q-5 0 -21 10q-6 3 -15.5 6.5t-21.5 6.5q-17 -50 -34.5 -114.5t-32.5 -124.5q17 2 33 3.5t33 3.5q9 36 18.5 72.5t19.5 69.5zM331 408h-1q3 -2 14 -5.5t24 -5.5l3 -3l3 1 q-1 0 -1.5 0.5l-0.5 0.5h3l-1 -1q10 -2 14 -3q6 8 15 13t24 4q1 7 2 13.5t3 13.5q5 23 8.5 42t6.5 31l-12 11q7 1 14 1.5t15 1.5q1 8 2.5 16t3.5 17q-19 -3 -38.5 -5.5t-38.5 -5.5q-9 -33 -14 -62.5t-11 -53.5q-2 -8 -6 -10.5t-17 0.5q-9 2 -18.5 4.5t-18.5 5.5 q0 -2 -0.5 -2.5t-0.5 -2.5q-1 -4 -1 -6q0 2 6.5 -1.5t18.5 -8.5zM818 688l-12 10q21 3 40.5 5t38.5 4q8 1 16.5 2t16.5 2q26 5 29 0v-1l2 -5v2q0 2 -2 4l1 2q0 3 -15 29q-5 8 -39 9q1 -8 -2.5 -10.5t-14.5 -4.5q-26 -3 -54 -5.5t-59 -7.5q-7 -18 -12.5 -38.5t-12.5 -43.5 q23 4 55 4h11l6 22t7 21zM251 266q-8 -7 -15 -10.5t-16 -3.5q-2 -1 -6 -1q-6 -11 -11 -22q3 1 8 0.5t13 -1.5q1 0 2.5 -0.5t3.5 -0.5q4 -1 9 -1h10h16l-5 1q18 0 27 2.5t14 7.5v-1q12 24 24 47t24 44q-6 5 -14 10t-21 12l1 1q-3 1 -14 3v-4q-4 -10 -10 -22t-13 -23.5 t-14 -21.5t-13 -16zM895 555q0 -2 1 -3l-1 -2q5 -12 5 -2q0 5 -5 7q-2 4 -5 10.5t-10 18.5q-5 6 -36 6q2 -6 -2.5 -8.5t-14.5 -4.5q-28 -5 -57 -9.5t-56 -10.5q-5 -14 -7.5 -27.5t-7.5 -27.5q33 6 66 9q2 8 3 11l-11 10q23 5 47 9l48 8l18 3q18 4 25 3zM481 644v1 q6 23 12 44.5t7 26.5q-2 0 -7 2t-15 8q-6 3 -15.5 7t-20.5 8q-8 -23 -15 -52.5t-16 -63.5q18 2 34.5 2.5t31.5 2.5q2 4 4 14zM373 183q18 2 36.5 4t38.5 4l9 18q-2 32 -2.5 62.5t-0.5 59.5q-18 -30 -38 -68t-43 -80zM699 245q22 7 40 15.5t32 17.5q1 4 2 7t2 5l-8 9 q25 12 43 15q7 9 5 18q-5 11 -30.5 10t-63.5 -17q-7 -18 -12 -37.5t-10 -42.5zM679 170q-5 -19 -9 -37t-9 -37q42 11 70 26l3 12l-10 10q14 5 24.5 7.5t18.5 3.5q2 7 1 11q-4 10 -27.5 13.5t-61.5 -9.5zM645 421l7.5 -5.5t16.5 -11.5l3 -3q38 11 79.5 14t72.5 -5q2 1 4 1 t4 1q8 2 16 3t16 3q19 5 24 2q-2 5 -4 9t-4 10q-6 8 -15.5 12.5t-27.5 5.5q3 -10 -16 -14q-31 -6 -63 -12.5t-61 -11.5q-21 -5 -31 -2.5t-17 7.5q-5 4 -10.5 7t-11.5 8q3 -5 18 -18zM66 697q4 -4 10.5 -5.5t21.5 -1.5h8q2 9 4.5 17.5t4.5 16.5q-13 -2 -24.5 -3.5t-19.5 -3.5 q-17 -4 -26 2q2 -5 21 -22zM888 420q1 -1 0 -1l1 -1l-1 -2q5 -12 5 -2q0 4 -5 6zM200 322q1 2 1.5 2.5t1.5 2.5q-1 2 -3 -5zM500 716l1 1h-1v1v-2zM274 6l-2 1q0 -1 2 -1zM370 396h1h-1z"/>
<glyph horiz-adv-x="833" unicode="®" glyph-name="registered" d="M738 713q26 -33 40.5 -81.5t18.5 -102.5t-2.5 -110t-22.5 -105q-24 -73 -69.5 -130.5t-104 -98.5t-125.5 -65t-135 -30t-132 6t-117 44q-15 8 -26 18q23 -25 58 -45q42 -26 96.5 -38t115.5 -12q76 0 153 21t144 61t118.5 99t77.5 135q14 42 20.5 85t6.5 85 q0 60 -15.5 116.5t-47.5 98.5l1 2q-33 60 -95 108q12 -14 22.5 -29.5t19.5 -31.5zM120 264q0 55 15 116t40.5 120.5t59.5 113t72 94.5t78.5 65.5t78.5 24.5q10 0 22 -3q17 -4 35 -12.5t36 -20.5q-26 22 -53 37t-54 21q-41 9 -85.5 -10t-87 -57.5t-81 -92t-68 -113.5 t-46.5 -122.5t-17.5 -119t19 -103t63.5 -73.5q-14 28 -20.5 62t-6.5 73zM472 177q8 -8 21 -10.5t27 -2.5q10 0 15 0.5t7 1.5l-6 1q2 0 4 0.5t4 0.5h2q7 6 13.5 12t13.5 13q-9 10 -21 27.5t-26 38.5t-28.5 43.5t-26.5 42.5l-5 21q56 35 93.5 71t48.5 71q6 16 6 26 q0 5 -1 13.5t-3 18.5q-6 27 -20 52t-33 50q-12 15 -33 21q20 -33 31 -80q7 -41 -1 -66q-14 -44 -49.5 -81t-86.5 -69q11 -18 24.5 -38t27 -40.5t27.5 -39t27 -33.5q9 -12 8 -19t-7 -15q-8 -11 -14 -12.5t-15 -3.5q-10 -5 -21 -3.5t-25 12.5q6 -7 11.5 -13t10.5 -11zM331 359 q-7 -42 -13 -81t-13 -79q-2 -11 -6.5 -15t-15.5 0q-8 4 -15.5 6t-14.5 6q1 -7 20 -21l-1 -1l9.5 -2.5t23.5 -7.5h-2q4 -2 2 -1t2 -1q8 -2 11 -3.5t14 -1.5q17 0 22 1.5t6 3.5q5 31 10 60t10 61q-14 18 -26 37.5t-23 38.5zM381 616q-7 -30 -14 -65.5t-16 -77.5 q22 11 40.5 24.5t33.5 28.5q3 14 5.5 28t5.5 26l-7 9q14 8 24.5 13t18.5 7q0 7 -1 10q-5 17 -30 17q-26 0 -60 -20z"/>
<glyph horiz-adv-x="395" unicode="¯" glyph-name="macron" d="M55 895q15 -24 49 -24q18 0 19 1l-2 1q52 19 106 27.5t104 13.5q35 3 35 1l-1 3.5t-4 11.5q1 -2 -2 3.5l-3 5.5q0 2 -0.5 3l-1.5 3t-2.5 5.5t-5.5 11.5q-12 23 -44 28q0 -2 1 -4t4 -10q7 -22 3 -29t-20 -8q-54 -5 -110 -14t-104 -26q-13 -6 -24 1q1 -2 1.5 -2.5t1.5 -2.5 zM356 939q2 -5 2.5 -4t-0.5 7z"/>
<glyph horiz-adv-x="395" unicode="ˉ" glyph-name="macron" d="M55 895q15 -24 49 -24q18 0 19 1l-2 1q52 19 106 27.5t104 13.5q35 3 35 1l-1 3.5t-4 11.5q1 -2 -2 3.5l-3 5.5q0 2 -0.5 3l-1.5 3t-2.5 5.5t-5.5 11.5q-12 23 -44 28q0 -2 1 -4t4 -10q7 -22 3 -29t-20 -8q-54 -5 -110 -14t-104 -26q-13 -6 -24 1q1 -2 1.5 -2.5t1.5 -2.5 zM356 939q2 -5 2.5 -4t-0.5 7z"/>
<glyph horiz-adv-x="249" unicode="°" glyph-name="degree" d="M185 737q-7 3 -16 6q3 -20 1.5 -42.5t-9 -44.5t-20 -42.5t-31.5 -35.5q-4 -2 -7 -4t-7 -4q-7 -16 -14 -21q-4 4 -7 15q-14 -3 -32 0q-14 1 -28.5 3.5t-26.5 8.5q-3 1 -11 5q2 -2 3 -5t3 -5v-1q1 -2 13 -8t26 -12l-1 -1q9 -5 25.5 -6.5t34.5 -3.5q5 -1 9 -1h10 q23 0 37.5 4t26.5 12q32 26 47 60t15 63q0 6 -1 14t-4 18q-2 5 -8.5 11t-26.5 17h-1zM57 746q-10 -11 -18 -26t-13 -29q-5 -13 -7.5 -28t-2 -27.5t4.5 -21.5t12 -11q10 -4 20.5 4.5t20.5 25.5q2 6 3 12t3 11q4 11 8.5 21.5t9.5 21.5q2 15 2.5 29.5t-3.5 24.5 q-11 -1 -21.5 -2.5t-18.5 -4.5zM88 546h-2h2z"/>
<glyph horiz-adv-x="488" unicode="±" glyph-name="plusminus" d="M336 474q-36 -2 -73 -3.5t-75 -6.5q-8 -48 -14.5 -93t-11.5 -82q-3 -19 -8 -22t-19 5q-10 7 -19 12t-20 13q6 -8 21 -19q3 -2 11 -7.5t24 -15.5q4 -2 7.5 -5t7.5 -5t7.5 -3t15.5 -1q17 0 21.5 2.5t5.5 8.5q2 8 2.5 17t2.5 18q5 32 10 67t11 72l-13 13q26 4 51.5 5.5 t50.5 2.5q11 1 22 1q12 0 23 1q31 0 33 -1q-2 3 -3 11l-6 18v1q-2 6 -5 14t-12 26l1 1q-8 15 -44 20q3 -9 6 -17.5t6 -17.5q5 -17 1 -23.5t-18 -6.5zM334 122q-51 -1 -82 -2t-52 -3.5t-36 -6.5t-33.5 -9.5t-45 -13.5t-69.5 -19q-14 -4 -23 -1q2 -3 4.5 -6.5t4.5 -6.5 q5 -8 13 -10.5t27 -2.5q5 0 9 0.5t8 1.5q39 10 64.5 17t43.5 12q22 7 38 11.5t37 7t51.5 4t80.5 2.5q32 0 34 -1q-2 3 -3 11l-6 18v1q-2 6 -5 14t-12 26l1 1q-10 18 -44 21q4 -9 6 -18t6 -18q5 -17 1 -23.5t-18 -6.5zM276 605q2 7 4 13.5t4 13.5l-1 2q5 11 5 16q0 1 -17 21 v2q-4 5 -15.5 13.5t-25.5 17.5q5 -13 -1 -35q-4 -17 -8.5 -35.5t-8.5 -38.5q17 0 32 0.5t29 -0.5q1 2 1.5 5t1.5 5zM-3 421q5 -8 13 -10.5t27 -2.5q5 0 9 0.5t8 1.5l8 2t9 2q1 8 1.5 16.5t2.5 17.5q-17 -2 -33 -5.5t-31 -7.5q-14 -4 -23 -1q2 -3 4.5 -6.5t4.5 -6.5zM408 96 v-1q1 0 1 1h-1zM410 448v-1q1 0 1 1h-1z"/>
<glyph horiz-adv-x="237" unicode="²" glyph-name="twosuperior" d="M31 420q17 4 34.5 5.5t30.5 2.5q9 0 16 -4q32 38 58.5 77t38.5 70q10 23 15.5 41.5t5.5 33.5q0 8 -3.5 20t-11.5 29q-7 12 -19.5 24t-32.5 20q16 -35 11 -67t-19 -67q-9 -22 -22.5 -46t-30 -48.5t-35 -48t-36.5 -42.5zM-22 298l-1 -2q2 -2 7 -3.5t24 -1.5q9 0 13.5 0.5 t8.5 1.5q13 4 31.5 8.5t38.5 8.5t39.5 7t33.5 4q19 3 22 0q2 -6 2 -4t-2 4v2q-2 10 -19 38v1q-6 11 -38 11q1 -2 1 -3t1 -3q3 -11 0.5 -15t-11.5 -6q-15 -1 -34.5 -4t-40 -7t-38.5 -8t-30 -8q-18 -6 -25 -3q4 -5 8 -9zM-26 628q1 3 12 -2q23 -10 47 -10q18 0 30 4 q20 34 29.5 58.5t3.5 29.5q-5 5 -12 2t-15.5 -10.5t-18 -19t-18.5 -24.5q-11 -11 -25 -14t-28 0q-3 -9 -5 -14z"/>
<glyph horiz-adv-x="242" unicode="³" glyph-name="threesuperior" d="M73 301q41 0 72 12.5t49 46.5q8 17 13 31.5t5 25.5q0 34 -37 77h1q-2 2 -10 5.5t-19 8.5q12 -29 10 -59t-16 -56q-20 -38 -47.5 -52.5t-60.5 -14.5q-19 0 -39.5 6.5t-40.5 23.5h-1q24 -32 56.5 -43.5t64.5 -11.5zM89 567q10 -4 18.5 -9t16.5 -14q3 -4 6 -7.5t5 -8.5l2 12 q51 31 62 45q11 13 17 27.5t6 28.5q0 13 -6.5 31t-20.5 41q-9 13 -20 20.5t-24 12.5q19 -39 15.5 -75t-19.5 -55q-11 -14 -25.5 -26t-32.5 -23zM-11 678q1 -1 3 -2.5t4 -5.5q6 -6 21.5 -10t34.5 -4h11q21 17 28 32t2 23q-3 6 -9 6q-9 0 -20.5 -8.5t-22.5 -16.5 q-9 -10 -22.5 -11.5t-26.5 3.5q-2 -5 -3 -6zM62 496h13l-3 1h3q-1 10 -6 16q-8 9 -16.5 10t-22.5 -1q-17 -4 -34 9q21 -35 66 -35zM-67 373q1 0 2 1l-3 3q0 -2 0.5 -3.5t0.5 -0.5zM-11 678q-3 1 -3 0q0 -2 3 0z"/>
<glyph horiz-adv-x="395" unicode="´" glyph-name="acute" d="M315 1012q-16 -14 -39 -31t-49.5 -34t-55 -33.5t-55.5 -28.5q-16 -9 -35 0l-6 -4q3 -2 8.5 -7.5t11 -10.5t10 -9.5l5.5 -5.5l-20 23q19 -15 50 -15q20 0 24 2l-2 1q31 14 61.5 31t57.5 33.5t48.5 32t35.5 27.5l5 -13q-2 14 -7.5 24t-22.5 20v1q-11 7 -27 10q1 -3 1 -7 q0 -3 1 -6zM75 881q-2 2 -3 2v0q0 -4 3 -2z"/>
<glyph horiz-adv-x="508" unicode="µ" glyph-name="mu" d="M169 24q-46 4 -82 26q-11 -71 -20 -136.5t-16 -117.5q-3 -17 -9 -22t-23 1q-16 6 -30 12t-27 16q5 -9 25 -24q8 -6 26.5 -14t40.5 -16q8 -2 20 -2q17 0 24 2.5t8 8.5q7 52 16 117.5t20 135.5q26 -9 65 -12q5 -1 10 -1h11q30 0 54 8.5t49 26.5q30 27 53.5 83.5t42 137.5 t33 183.5t28.5 220.5q1 6 1.5 10.5t0.5 6.5t-5.5 7t-22.5 19q-6 5 -13 9.5t-15 9.5q1 -5 0.5 -10.5t-1.5 -13.5q-14 -122 -29 -227t-34.5 -188.5t-44 -142.5t-56.5 -87q-23 -17 -46.5 -23.5t-53.5 -3.5zM182 191q0 29 3.5 62.5t8.5 71.5q5 34 13 79t16.5 88t16.5 79l12 54v1 q3 12 3 19q0 17 -29 46q-11 11 -32 23q9 -24 3 -52q-4 -18 -12 -54.5t-16.5 -79.5t-16.5 -87t-13 -78q-6 -41 -9.5 -77.5t-2.5 -65t6.5 -47t16.5 -23.5q14 -7 32 19v22z"/>
<glyph horiz-adv-x="508" unicode="μ" glyph-name="mu" d="M169 24q-46 4 -82 26q-11 -71 -20 -136.5t-16 -117.5q-3 -17 -9 -22t-23 1q-16 6 -30 12t-27 16q5 -9 25 -24q8 -6 26.5 -14t40.5 -16q8 -2 20 -2q17 0 24 2.5t8 8.5q7 52 16 117.5t20 135.5q26 -9 65 -12q5 -1 10 -1h11q30 0 54 8.5t49 26.5q30 27 53.5 83.5t42 137.5 t33 183.5t28.5 220.5q1 6 1.5 10.5t0.5 6.5t-5.5 7t-22.5 19q-6 5 -13 9.5t-15 9.5q1 -5 0.5 -10.5t-1.5 -13.5q-14 -122 -29 -227t-34.5 -188.5t-44 -142.5t-56.5 -87q-23 -17 -46.5 -23.5t-53.5 -3.5zM182 191q0 29 3.5 62.5t8.5 71.5q5 34 13 79t16.5 88t16.5 79l12 54v1 q3 12 3 19q0 17 -29 46q-11 11 -32 23q9 -24 3 -52q-4 -18 -12 -54.5t-16.5 -79.5t-16.5 -87t-13 -78q-6 -41 -9.5 -77.5t-2.5 -65t6.5 -47t16.5 -23.5q14 -7 32 19v22z"/>
<glyph horiz-adv-x="472" unicode="¶" glyph-name="paragraph" d="M208 -74q0 -4 5 -5.5t23 -1.5q12 0 20 2q4 2 8 2.5t8 2.5h-1q19 7 36.5 14t31 16t22 21.5t10.5 29.5q1 15 4 41.5t8 60.5t11 73.5t13 81.5q8 49 15.5 97.5t13.5 91t10 75.5t4 50q-2 -2 -11 4l3 2q-21 18 -48 36q0 -21 -5.5 -65.5t-14 -101.5t-18 -119.5t-18.5 -119.5 t-15 -102t-7 -66q-2 -26 -11.5 -42t-24 -26.5t-32.5 -17t-37 -13.5q-1 -6 -1.5 -11.5t-1.5 -9.5zM44 -58q0 -4 5 -5.5t23 -1.5q12 0 20 2q4 2 8 2.5t8 2.5h-1q23 8 43.5 16.5t34.5 21.5q4 24 12.5 71t18.5 105.5t21.5 122t21.5 119.5t17 99t8 60q-3 20 -12 30t-23 3 q-2 -15 -10 -58.5t-19 -100t-22.5 -119t-21.5 -116t-16.5 -91t-6.5 -43.5q-2 -26 -12 -42t-24.5 -26.5t-32.5 -17t-37 -13.5z"/>
<glyph horiz-adv-x="221" unicode="·" glyph-name="periodcentered" d="M106 343h4q20 0 35 6t25 15t15.5 18.5t7.5 17.5q3 13 3 26q0 16 -14 34t-43 32h-2q2 -6 3 -13t1 -13q0 -16 -3 -29q-2 -9 -7 -21t-13.5 -22.5t-20.5 -18t-27 -7.5q-18 -1 -34 8q24 -33 70 -33z"/>
<glyph horiz-adv-x="201" unicode="¸" glyph-name="cedilla" d="M16 -140q-16 -26 -39 -28q-8 -2 -17 -1.5t-18 2.5q-1 -1 -1.5 -2l-0.5 -1v-1l-4 -11l4.5 -1.5t15.5 -4.5q12 -2 24.5 -4t23.5 -2h9q5 0 8 1h-1q36 3 49 21q9 15 19.5 35.5t20.5 43t18 44.5t13 39q0 1 0.5 -0.5t0.5 -0.5v3q4 20 4 27q0 1 -6 12q-8 11 -20 23.5t-32 27.5 l1 1q-2 1 -3.5 2t-3.5 2q4 -9 6.5 -16t2.5 -12t-5 -33q-5 -20 -13 -43.5t-18 -46.5t-20 -43t-18 -33z"/>
<glyph horiz-adv-x="151" unicode="¹" glyph-name="onesuperior" d="M94 727q-8 -35 -16.5 -84.5t-17.5 -103.5t-16.5 -106t-11.5 -91q-2 -11 -5 -13.5t-13 1.5q-8 2 -18 6.5t-20 9.5v-2q0 -3 7 -10q11 -8 27 -15t27 -11q8 -2 12.5 -3.5t13.5 -1.5h24v1q4 39 11.5 91.5t16.5 106.5t17.5 104t16.5 84q0 5 1 6q-3 -2 -18 15q-5 4 -15 10 t-22 11q-1 -2 -1 -5zM150 696v1q1 0 1 2l-0.5 -1t-0.5 -2z"/>
<glyph horiz-adv-x="802" unicode="º" glyph-name="ordmasculine" d="M398 308q2 0 3 1q14 97 28 188.5t26 159.5q1 6 1.5 11t0.5 9t-5.5 10.5t-21.5 19.5h1q-8 6 -14.5 10t-14.5 8q1 -11 -2 -30q-11 -61 -23.5 -142.5t-24.5 -168.5t-23.5 -172.5t-20.5 -154.5q-3 -38 -39 -26q-16 5 -31.5 11.5t-31.5 14.5q-1 0 -2 0.5t-2 0.5q13 -14 36 -28 q21 -11 67 -25h-1q8 -2 20 -2q37 0 39 16q6 48 13.5 105t15.5 118q-1 2 -1.5 4.5t-2.5 7.5q-19 46 10 54zM-28 34l-2 -1q5 -5 22.5 -11.5t36.5 -14.5q2 -1 5 -2t5 -2h-1q4 -2 10.5 -2.5t12.5 -0.5q18 0 23.5 2.5t6.5 7.5q5 48 14.5 113t20.5 138q0 2 0.5 4.5t0.5 5.5 q-9 44 -17.5 90.5t-16.5 93.5q-8 -56 -16.5 -113.5t-16 -110.5t-14 -100t-10.5 -83q-2 -17 -8.5 -21.5t-23.5 2.5q-13 5 -26 9.5t-26 13.5l8.5 -8.5t11.5 -9.5zM691 571q-7 3 -16 6q3 -20 1.5 -42.5t-9 -44.5t-20 -42.5t-31.5 -35.5q-27 -18 -67 -14q-14 1 -28.5 3.5 t-26.5 8.5q-6 1 -11 5l2.5 -5t3.5 -5v-1q1 -2 13 -8t26 -12l-1 -1q9 -5 25.5 -6.5t34.5 -3.5q5 -1 9 -1h10q23 0 37.5 4t26.5 12q32 26 47 60t15 63q0 6 -1 14t-4 18q-2 5 -8.5 11t-26.5 17h-1zM218 354q5 47 10.5 92t11.5 90q-5 32 -8.5 59.5t-5.5 45.5q-3 21 -12 33.5 t-33 26.5l1 1q-4 2 -7.5 4.5t-8.5 4.5q2 -6 2.5 -13t2.5 -15q3 -23 8 -60.5t11.5 -82t13.5 -93t14 -93.5zM431 186q8 -12 25 -18t36 -6t20 1l-2 1q52 19 106 27.5t104 13.5q35 3 35 1l-1 3.5t-4 11.5l-10 10q3 -3 -9 25q-12 23 -44 28q2 -2 3.5 -4.5t5.5 -12.5q7 -22 3 -29 t-20 -8q-54 -5 -110 -14t-104 -26q-8 -4 -18.5 -3t-21.5 8q1 -3 6 -9zM589 580q-10 1 -23 -16.5t-20 -36.5q-8 -19 -7 -39.5t12 -23.5q11 -4 22.5 11.5t19.5 39.5q3 9 4.5 20t1.5 20q0 10 -2.5 17t-7.5 8z"/>
<glyph horiz-adv-x="624" unicode="»" glyph-name="guillemotright" d="M558 416q-6 -40 -15 -68q-5 -17 -11.5 -24.5t-20.5 -14.5q-51 -20 -91 -39.5t-78 -42.5q-16 -12 -29 -3q5 -5 9.5 -10t10.5 -10q9 -9 33 -9q12 0 17 1t8 3l-1 1q43 26 82 45.5t85 37.5q22 11 30 16t10 13v1q6 19 10 35t6 30q1 5 1.5 8.5t0.5 5.5q0 -1 -27 18q-7 5 -14 9 t-15 9q0 -7 -1 -12zM259 437q-6 -40 -15 -68q-5 -17 -11.5 -24.5t-20.5 -14.5q-51 -20 -91 -39.5t-78 -42.5q-16 -12 -29 -3q5 -5 9.5 -10t10.5 -10q9 -9 33 -9q12 0 17 1t8 3l-1 1q42 26 80 45t83 36q-4 11 0.5 18t12.5 12t17 10.5t20 10.5q4 13 6 24.5t4 21.5q1 5 1.5 8.5 t0.5 5.5q0 -1 -27 18q-7 5 -14 9t-15 9q0 -7 -1 -12zM59 450h-1q11 -5 23 -12t29 -16q2 1 4.5 2t4.5 2q-24 14 -47.5 26.5t-46.5 23.5h-2q3 -8 10 -13t26 -13zM358 429h-1q11 -5 23 -12t29 -16q2 1 4.5 2t4.5 2q-24 14 -47.5 26.5t-46.5 23.5h-2q3 -8 10 -13t26 -13z"/>
<glyph horiz-adv-x="536" unicode="¼" glyph-name="onequarter" d="M492 690q-2 2 -5 3t-14 1q4 1 5 4t-6 12l1 1q-7 9 -30 10q3 -14 -1 -23.5t-14 -21.5q-23 -27 -59 -71t-78 -96.5t-87 -109.5t-87 -111t-78 -101t-60 -79q-17 -26 -32 -12v-3q0 -1 1.5 -3.5t7.5 -10.5q-2 -1 -1 -2l1 2q1 0 3 0.5t4 0.5q1 -2 2 -3.5t3 -3.5q4 -7 30 -7 t33 10v1q19 25 46 61t59.5 77.5t67.5 87t71 90.5q17 27 35 51.5t32 41.5q8 10 15 11q38 47 69.5 85.5t52.5 63.5l21 24l-2.5 6t-5.5 14zM422 251q17 0 25 -20q4 -11 6 -20t5 -20q4 -20 -13 -21q-9 -1 -18 -1.5t-19 -1.5q-7 -41 -12.5 -77t-9.5 -66q-2 -11 -6 -14.5t-15 0.5 q-5 2 -11.5 5t-12.5 7v-3q0 -1 7 -8q11 -8 22 -14t19 -9q8 -2 13.5 -3.5t12.5 -1.5q17 0 21 0.5t5 2.5q4 30 9.5 66t12.5 77l-14 13q10 1 19 1.5t18 1.5q21 1 26 -1q2 -5 2 -2q0 2 -2 2l-0.5 5.5t-2.5 12.5q-2 6 -4 11.5t-4 12.5q-2 5 -11 7.5t-28 2.5l15 18q9 48 17 89.5 t15 73.5l2 9q-2 -2 -5 2q-8 5 -22 14.5t-29 18.5q0 -2 -0.5 -3.5t-0.5 -3.5q-7 -32 -15 -73.5t-17 -89.5zM72 734q-8 -35 -16.5 -84.5t-17.5 -103.5t-16.5 -106t-11.5 -91q-2 -11 -5 -13.5t-13 1.5q-8 2 -18 6.5t-20 9.5v-2q0 -3 7 -10q11 -8 27 -15t27 -11q5 -2 8.5 -3 t8.5 -2q9 14 19 28t21 28q5 40 12 86t14.5 91t15 85t13.5 69q0 5 1 6q-3 -2 -18 15q-5 4 -15 10t-22 11q-1 -2 -1 -5zM266 238q17 3 37 5l40 4q7 37 13 73.5t14 70.5q-28 -33 -54.5 -75t-49.5 -78zM256 125l-1 -1q5 -6 32 -6q8 0 9.5 0.5t5.5 1.5q5 2 10.5 2.5t10.5 1.5 l2 16t3 17q-18 -3 -35 -5.5t-34 -6.5q-12 -3 -19 -1q4 -5 7.5 -9.5t8.5 -9.5zM-14 80q1 0 1 -7q0 3 -2 7h1zM128 703v1q1 0 1 2l-0.5 -1t-0.5 -2z"/>
<glyph horiz-adv-x="563" unicode="½" glyph-name="onehalf" d="M492 690q-2 2 -5 3t-14 1q4 1 5 4t-6 12l1 1q-7 9 -30 10q3 -14 -1 -23.5t-14 -21.5q-23 -27 -59 -71t-78 -96.5t-87 -109.5t-87 -111t-78 -101t-60 -79q-17 -26 -32 -12v-3q0 -1 1.5 -3.5t7.5 -10.5q-2 -1 -1 -2l1 2q1 0 3 0.5t4 0.5q1 -2 2 -3.5t3 -3.5q4 -7 30 -7 t33 10v1q18 25 44.5 59t57 74t64.5 83.5t69 87.5q1 6 6 17q15 33 35.5 57.5t45.5 36.5q38 48 71 88t55 66l21 24l-2.5 6t-5.5 14zM72 734q-8 -35 -16.5 -84.5t-17.5 -103.5t-16.5 -106t-11.5 -91q-2 -11 -5 -13.5t-13 1.5q-8 2 -18 6.5t-20 9.5v-2q0 -3 7 -10q11 -8 27 -15 t27 -11q5 -2 8.5 -3t8.5 -2q9 14 19 28t21 28q5 40 12 86t14.5 91t15 85t13.5 69q0 5 1 6q-3 -2 -18 15q-5 4 -15 10t-22 11q-1 -2 -1 -5zM345 118q17 4 34.5 5.5t30.5 2.5q9 0 16 -4q32 38 58.5 77t38.5 70q10 23 15.5 41.5t5.5 33.5q0 8 -3.5 20t-11.5 29q-7 12 -19.5 24 t-32.5 20q16 -35 11 -67t-19 -67q-9 -22 -22.5 -46t-30 -48.5t-35 -48t-36.5 -42.5zM292 -4l-1 -2q2 -2 7 -3.5t24 -1.5q9 0 13.5 0.5t8.5 1.5q13 4 31.5 8.5t38.5 8.5t39.5 7t33.5 4q19 3 22 0q2 -6 2 -4t-2 4v2q-2 10 -19 38v1q-6 11 -38 11q1 -2 1 -3t1 -3q3 -11 0.5 -15 t-11.5 -6q-15 -1 -34.5 -4t-40 -7t-38.5 -8t-30 -8q-18 -6 -26 -3zM288 326q1 3 12 -2q23 -10 47 -10q18 0 30 4q20 34 29.5 58.5t3.5 29.5q-5 5 -12 2t-15.5 -10.5t-18 -19t-18.5 -24.5q-11 -11 -25 -14t-28 0q-5 -12 -5 -14zM-14 80q1 0 1 -7q0 3 -2 7h1zM128 703v1 q1 0 1 2l-0.5 -1t-0.5 -2z"/>
<glyph horiz-adv-x="632" unicode="¾" glyph-name="threequarters" d="M588 690q-2 2 -5 3t-14 1q4 1 5 4t-6 12l1 1q-7 9 -30 10q3 -14 -1 -23.5t-14 -21.5q-23 -27 -59 -71t-78 -96.5t-87 -109.5t-87 -111t-78 -101t-60 -79q-18 -26 -32 -12v-3q0 -1 1.5 -3.5t7.5 -10.5q-2 -1 -1 -2l1 2q1 0 3 0.5t4 0.5q1 -2 2 -3.5t3 -3.5q4 -7 30 -7 t33 10v1q19 25 46 61t59.5 77.5t67.5 87t71 90.5q17 27 35 51.5t32 41.5q8 10 15 11q38 47 69.5 85.5t52.5 63.5l21 24l-2.5 6t-5.5 14zM518 251q17 0 25 -20q4 -11 6 -20t5 -20q4 -20 -13 -21q-9 -1 -18 -1.5t-19 -1.5q-7 -41 -12.5 -77t-9.5 -66q-2 -11 -6 -14.5t-15 0.5 q-5 2 -11.5 5t-12.5 7v-3q0 -1 7 -8q11 -8 22 -14t19 -9q8 -2 13.5 -3.5t12.5 -1.5q17 0 21 0.5t5 2.5q4 30 9.5 66t12.5 77l-14 13q10 1 19 1.5t18 1.5q21 1 26 -1q2 -5 2 -2q0 2 -2 2l-0.5 5.5t-2.5 12.5q-2 6 -4 11.5t-4 12.5q-2 5 -11 7.5t-28 2.5l15 18q9 48 17 89.5 t15 73.5l2 9q-2 -2 -5 2q-8 5 -22 14.5t-29 18.5q0 -2 -0.5 -3.5t-0.5 -3.5q-7 -32 -15 -73.5t-17 -89.5zM87 332q17 0 33 2t30 7q18 26 37 52t39 54v1q0 34 -37 77h1q-2 2 -10 5.5t-19 8.5q12 -29 10 -59t-16 -56q-20 -38 -47.5 -52.5t-60.5 -14.5q-19 0 -39.5 6.5 t-40.5 23.5h-1q24 -32 56.5 -43.5t64.5 -11.5zM103 598q10 -4 18.5 -9t16.5 -14q3 -4 6 -7.5t5 -8.5l2 12q51 31 62 45q11 13 17 27.5t6 28.5q0 13 -6.5 31t-20.5 41q-9 13 -20 20.5t-24 12.5q19 -39 15.5 -75t-19.5 -55q-11 -14 -25.5 -26t-32.5 -23zM362 238q17 3 37 5 l40 4q7 37 13 73.5t14 70.5q-28 -33 -54.5 -75t-49.5 -78zM2 709q3 -1 8 -8q6 -6 21.5 -10t34.5 -4h11q21 17 28 32t2 23q-3 6 -9 6q-9 0 -20.5 -8.5t-22.5 -16.5q-9 -10 -22.5 -11.5t-26.5 3.5zM352 125l-1 -1q5 -6 32 -6q8 0 9.5 0.5t5.5 1.5q5 2 10.5 2.5t10.5 1.5l2 16 t3 17q-18 -3 -35 -5.5t-34 -6.5q-12 -3 -19 -1q4 -5 7.5 -9.5t8.5 -9.5zM76 527h13l-3 1h3q-1 10 -6 16q-8 9 -16.5 10t-22.5 -1q-17 -4 -35 9q22 -35 67 -35zM82 80l0.5 -1.5t0.5 -5.5q0 3 -2 7h1zM-53 404q1 0 2 1l-3 3q0 -2 0.5 -3.5t0.5 -0.5zM2 709q-2 2 -2 0t2 0z"/>
<glyph horiz-adv-x="453" unicode="¿" glyph-name="questiondown" d="M317 534q-6 4 -13 8t-15 8v-12q0 -6 -1 -14q-3 -47 -18 -83t-35.5 -63.5t-43 -48t-40.5 -36.5q-45 -38 -60.5 -71t-13.5 -57q2 -16 10.5 -23t17.5 -7q13 0 27 8q3 28 19.5 60.5t55.5 65.5l9 9t7 6q17 15 37 34t38 43.5t30.5 55t14.5 68.5v1q1 5 1 9v7q0 6 -6 13t-20 19 h-1zM183 -21q25 0 37 3v1q53 14 94.5 49.5t69.5 89.5q20 36 20 45q0 1 -7.5 5t-19.5 11h1q-13 8 -31 11q-4 -15 -16 -39q-31 -60 -70.5 -98t-84.5 -49q-39 -10 -73 2t-60 35q19 -26 55 -46t85 -20zM326 719q-1 -19 -8.5 -35t-20 -26t-29.5 -12.5t-38 6.5q-5 2 -8.5 4t-7.5 4 q13 -18 50 -34q13 -6 37 -6q35 0 56.5 17.5t23.5 41.5q0 3 0.5 6t0.5 6q0 25 -17 42t-42 25q4 -17 3 -39z"/>
<glyph horiz-adv-x="479" unicode="À" glyph-name="Agrave" d="M312 7l-1 -1q13 -7 30.5 -8t39.5 -1q25 0 33 2.5t8 8.5v5q-3 72 -6.5 150.5t-5.5 156.5t-3.5 150.5t-1.5 132.5q0 20 0.5 38.5t0.5 35.5v7q0 11 -7.5 20t-30.5 19q-4 2 -7 3t-7 3q-1 0 -1.5 0.5t-1.5 0.5v-13q-1 -57 -0.5 -136.5t3 -168.5t6 -181.5t7.5 -176.5 q1 -18 -4 -25t-22 -7t-32 1.5t-31 9.5q-1 0 -1.5 0.5t-1.5 0.5q4 -9 12.5 -15t24.5 -12zM235 226q-48 -10 -96.5 -20t-85.5 -24q-14 -38 -24.5 -71.5t-20.5 -65.5q-6 -17 -13.5 -20t-22.5 5q-8 5 -17 10t-19 13l13 -13l1 -1l5 -5l-5 5q1 -1 7 -5t13 -9l14 -10t11 -7l9 -6 q4 -3 26 -3q29 0 32 10q10 32 20.5 66t24.5 72l-9 9q33 12 68 20.5t71 16.5q-1 8 -1.5 16t-0.5 17zM112 356q33 7 70 12q11 30 21 58.5t20 55.5q-1 44 -1.5 86t-0.5 84q-23 -60 -51.5 -135.5t-57.5 -160.5zM121 988q14 -12 35.5 -27.5t48.5 -32t57 -33.5t62 -31l-2 -1 q4 -2 24 -2q30 0 50 15l-20 -23l5.5 5.5t10 9.5t11 10.5t8.5 7.5q-4 2 -7 5q-11 6 -23 13t-24 15q-2 -8 -6.5 -12t-3.5 -3q-35 -26 -57 -14q-45 20 -90 48.5t-80 54.5q-4 -10 -4 -18zM411 886q3 -2 3 2l-1 -0.5t-2 -1.5z"/>
<glyph horiz-adv-x="479" unicode="Á" glyph-name="Aacute" d="M312 7l-1 -1q13 -7 30.5 -8t39.5 -1q25 0 33 2.5t8 8.5v5q-3 72 -6.5 150.5t-5.5 156.5t-3.5 150.5t-1.5 132.5q0 20 0.5 38.5t0.5 35.5v7q0 11 -7.5 20t-30.5 19q-4 2 -7 3t-7 3q-1 0 -1.5 0.5t-1.5 0.5v-13q-1 -57 -0.5 -136.5t3 -168.5t6 -181.5t7.5 -176.5 q1 -18 -4 -25t-22 -7t-32 1.5t-31 9.5q-1 0 -1.5 0.5t-1.5 0.5q4 -9 12.5 -15t24.5 -12zM235 226q-48 -10 -96.5 -20t-85.5 -24q-14 -38 -24.5 -71.5t-20.5 -65.5q-6 -17 -13.5 -20t-22.5 5q-8 5 -17 10t-19 13l13 -13l1 -1l5 -5l-5 5q1 -1 7 -5t13 -9l14 -10t11 -7l9 -6 q4 -3 26 -3q29 0 32 10q10 32 20.5 66t24.5 72l-9 9q33 12 68 20.5t71 16.5q-1 8 -1.5 16t-0.5 17zM374 1012q-16 -14 -39 -31t-49.5 -34t-55 -33.5t-55.5 -28.5q-16 -9 -35 0l-6 -4q3 -2 8.5 -7.5t11 -10.5t10 -9.5l5.5 -5.5l-20 23q19 -15 50 -15q20 0 24 2l-2 1 q31 14 61.5 31t57.5 33.5t48.5 32t35.5 27.5l5 -13q-2 14 -7.5 24t-22.5 20v1q-11 7 -27 10q1 -3 1 -7q0 -3 1 -6zM112 356q33 7 70 12q11 30 21 58.5t20 55.5q-1 44 -1.5 86t-0.5 84q-23 -60 -51.5 -135.5t-57.5 -160.5zM134 881q-2 2 -3 2v0q0 -4 3 -2z"/>
<glyph horiz-adv-x="479" unicode="Â" glyph-name="Acircumflex" d="M312 7l-1 -1q13 -7 30.5 -8t39.5 -1q25 0 33 2.5t8 8.5v5q-3 72 -6.5 150.5t-5.5 156.5t-3.5 150.5t-1.5 132.5q0 20 0.5 38.5t0.5 35.5v7q0 11 -7.5 20t-30.5 19q-4 2 -7 3t-7 3q-1 0 -1.5 0.5t-1.5 0.5v-13q-1 -57 -0.5 -136.5t3 -168.5t6 -181.5t7.5 -176.5 q1 -18 -4 -25t-22 -7t-32 1.5t-31 9.5q-1 0 -1.5 0.5t-1.5 0.5q4 -9 12.5 -15t24.5 -12zM235 226q-48 -10 -96.5 -20t-85.5 -24q-14 -38 -24.5 -71.5t-20.5 -65.5q-6 -17 -13.5 -20t-22.5 5q-8 5 -17 10t-19 13l13 -13q1 -1 9.5 -7t20 -14t16.5 -11l9 -6q4 -3 26 -3 q29 0 32 10q10 32 20.5 66t24.5 72l-9 9q33 12 68 20.5t71 16.5q-1 8 -1.5 16t-0.5 17zM112 356q33 7 70 12q11 30 21 58.5t20 55.5q-1 44 -1.5 86t-0.5 84q-23 -60 -51.5 -135.5t-57.5 -160.5zM344 874q-8 0 -16.5 1t-18.5 5h-1q1 -2 1.5 -5t1.5 -5q4 -7 34 -16h-1 q14 -5 40 -5h3q19 0 24 -3v2l1 2q-4 19 -9.5 43t-10.5 51t-10 54.5t-8 53.5v1q-1 6 -3 10.5t-7 11.5q-1 1 -9 7.5t-17 14.5l1 1q-3 3 -6.5 6t-6.5 6q-1 0 -3 0.5t-7 1.5q1 -8 3 -18q3 -25 8 -52.5t10 -54.5t10.5 -51t9.5 -43q4 -20 -13 -19zM190 881q1 -2 4 -2.5t20 -0.5h18 t5 1l-1 1q2 2 2.5 4t2.5 4q8 13 16.5 27t18.5 29q-4 18 -8 39.5t-9 44.5q-22 -31 -40.5 -60.5t-34.5 -55.5q-5 -9 -10 -9h-1q3 -5 7.5 -10t9.5 -12zM411 846q2 -6 2 -2z"/>
<glyph horiz-adv-x="479" unicode="Ã" glyph-name="Atilde" d="M312 7l-1 -1q13 -7 30.5 -8t39.5 -1q25 0 33 2.5t8 8.5v5q-3 72 -6.5 150.5t-5.5 156.5t-3.5 150.5t-1.5 132.5q0 20 0.5 38.5t0.5 35.5v7q0 11 -7.5 20t-30.5 19q-4 2 -7 3t-7 3q-1 0 -1.5 0.5t-1.5 0.5v-13q-1 -57 -0.5 -136.5t3 -168.5t6 -181.5t7.5 -176.5 q1 -18 -4 -25t-22 -7t-32 1.5t-31 9.5q-1 0 -1.5 0.5t-1.5 0.5q4 -9 12.5 -15t24.5 -12zM235 226q-48 -10 -96.5 -20t-85.5 -24q-14 -38 -24.5 -71.5t-20.5 -65.5q-6 -17 -13.5 -20t-22.5 5q-8 5 -17 10t-19 13l13 -13q1 -1 9.5 -7t20 -14t16.5 -11l9 -6q4 -3 26 -3 q29 0 32 10q10 32 20.5 66t24.5 72l-9 9q33 12 68 20.5t71 16.5q-1 8 -1.5 16t-0.5 17zM296 892q-45 0 -65 20q-5 5 -14 9.5t-19 8t-20 5.5t-17 2q-6 0 -13 -5t-13 -11.5t-11 -11.5t-6 -5q-11 -10 -30 -10h-3q-3 -9 -3 -12q0 -13 46 -13q32 0 40 6l-10 4l8.5 0.5t10.5 2.5 q8 9 17 19.5t7 10.5q4 0 12 -2.5t16.5 -6.5t16.5 -9t14 -11q16 -16 76 -16q45 0 78 33h-1q23 20 33 33t11 20q-1 -3 -6 2q-22 14 -46 14h-10q-10 -19 -32 -40q-37 -37 -67 -37zM112 356q33 7 70 12q11 30 21 58.5t20 55.5q-1 44 -1.5 86t-0.5 84q-23 -60 -51.5 -135.5 t-57.5 -160.5z"/>
<glyph horiz-adv-x="479" unicode="Ä" glyph-name="Adieresis" d="M312 7l-1 -1q13 -7 30.5 -8t39.5 -1q25 0 33 2.5t8 8.5v5q-3 72 -6.5 150.5t-5.5 156.5t-3.5 150.5t-1.5 132.5q0 20 0.5 38.5t0.5 35.5v7q0 11 -7.5 20t-30.5 19q-4 2 -7 3t-7 3q-1 0 -1.5 0.5t-1.5 0.5v-13q-1 -57 -0.5 -136.5t3 -168.5t6 -181.5t7.5 -176.5 q1 -18 -4 -25t-22 -7t-32 1.5t-31 9.5q-1 0 -1.5 0.5t-1.5 0.5q4 -9 12.5 -15t24.5 -12zM235 226q-48 -10 -96.5 -20t-85.5 -24q-14 -38 -24.5 -71.5t-20.5 -65.5q-6 -17 -13.5 -20t-22.5 5q-8 5 -17 10t-19 13l13 -13q1 -1 9.5 -7t20 -14t16.5 -11l9 -6q4 -3 26 -3 q29 0 32 10q10 32 20.5 66t24.5 72l-9 9q33 12 68 20.5t71 16.5q-1 8 -1.5 16t-0.5 17zM112 356q33 7 70 12q11 30 21 58.5t20 55.5q-1 44 -1.5 86t-0.5 84q-23 -60 -51.5 -135.5t-57.5 -160.5zM364 851h3q33 0 48.5 14.5t17.5 25.5v1q1 5 1.5 9t0.5 9q0 10 -11.5 22.5 t-35.5 23.5q-2 1 -4 1t-5 1q1 -3 1 -8q0 -7 -0.5 -12t-1.5 -10q-2 -7 -5.5 -16t-10 -17t-15.5 -13.5t-20 -5.5q-13 -1 -24 5q8 -14 24.5 -22t36.5 -8zM189 852h3q32 0 48 14.5t18 24.5l-1 3q4 11 4 16q0 11 -11.5 23.5t-36.5 23.5l1 1q-2 0 -4 0.5t-5 0.5q1 -3 1 -9 q0 -12 -3 -21q-1 -7 -5 -16t-10.5 -17t-15.5 -13.5t-20 -5.5q-12 -1 -23 5q8 -14 24 -22t36 -8z"/>
<glyph horiz-adv-x="479" unicode="Å" glyph-name="Aring" d="M312 7l-1 -1q13 -7 30.5 -8t39.5 -1q25 0 33 2.5t8 8.5v5q-3 72 -6.5 150.5t-5.5 156.5t-3.5 150.5t-1.5 132.5q0 20 0.5 38.5t0.5 35.5v7q0 11 -7.5 20t-30.5 19q-4 2 -7 3t-7 3q-1 0 -1.5 0.5t-1.5 0.5v-13q-1 -57 -0.5 -136.5t3 -168.5t6 -181.5t7.5 -176.5 q1 -18 -4 -25t-22 -7t-32 1.5t-31 9.5q-1 0 -1.5 0.5t-1.5 0.5q4 -9 12.5 -15t24.5 -12zM235 226q-48 -10 -96.5 -20t-85.5 -24q-14 -38 -24.5 -71.5t-20.5 -65.5q-6 -17 -13.5 -20t-22.5 5q-8 5 -17 10t-19 13l13 -13q1 -1 9.5 -7t20 -14t16.5 -11l9 -6q4 -3 26 -3 q29 0 32 10q10 32 20.5 66t24.5 72l-9 9q33 12 68 20.5t71 16.5q-1 8 -1.5 16t-0.5 17zM385 1023q-7 3 -16 6q3 -20 1.5 -42.5t-9 -44.5t-20 -42.5t-31.5 -35.5q-4 -2 -7 -4t-7 -4q-7 -16 -14 -21q-4 4 -7 15q-14 -3 -32 0q-14 1 -28.5 3.5t-26.5 8.5q-6 1 -11 5l2.5 -5 t3.5 -5v-1q1 -2 13 -8t26 -12l-1 -1q9 -5 25.5 -6.5t34.5 -3.5q5 -1 9 -1h10q23 0 37.5 4t26.5 12q32 26 47 60t15 63q0 6 -1 14t-4 18q-2 5 -8.5 11t-26.5 17h-1zM112 356q33 7 70 12q11 30 21 58.5t20 55.5q-1 44 -1.5 86t-0.5 84q-23 -60 -51.5 -135.5t-57.5 -160.5z M257 1032q-10 -11 -18 -26t-13 -29q-5 -13 -7.5 -28t-2 -27.5t4.5 -21.5t12 -11q10 -4 20.5 4.5t20.5 25.5q2 6 3 12t3 11q4 11 8.5 21.5t9.5 21.5q2 15 2.5 29.5t-3.5 24.5q-11 -1 -21.5 -2.5t-18.5 -4.5zM288 832h-2h2z"/>
<glyph horiz-adv-x="704" unicode="Æ" glyph-name="AE" d="M505 522q5 22 8.5 42t8.5 40l-12 12q35 7 67.5 12t63.5 10q5 1 11 1.5t11 1.5q21 3 29 5t8 4v4q-2 2 -2.5 4.5t-0.5 10.5q-2 11 -5 23t-13 34v2q-8 22 -46 23q4 -12 6 -23t5 -23q3 -21 -1.5 -28.5t-21.5 -10.5q-35 -5 -73.5 -11t-80.5 -14q-8 -37 -16 -78t-18 -86 q16 3 31.5 4.5t32.5 2.5q2 10 4 19.5t4 18.5zM-56 46l3.5 -3.5t4.5 -6.5q3 -2 12 -8.5t24 -15.5l-1 -1q3 -2 6.5 -4t5.5 -4q4 -3 26 -3q30 0 35 12q14 32 29 66t35 72l-8 7q35 13 69 20t69 14q1 8 1.5 16.5t2.5 18.5q-48 -10 -98.5 -19.5t-88.5 -23.5q-20 -38 -35.5 -71.5 t-29.5 -65.5q-8 -17 -16 -20t-23 5q-5 4 -11 8t-13 9q0 -1 0.5 -1.5zM455 271l-11 11q26 8 53.5 15t55.5 14q11 3 22.5 5.5t22.5 5.5q34 11 34 7q0 3 -3 15v1q-3 14 -7 29t-15 38v1q-7 16 -43 17q3 -11 5.5 -21t4.5 -21q5 -21 1 -28t-21 -12q-38 -10 -77.5 -19.5 t-76.5 -20.5q-9 -51 -18 -96q0 -4 -0.5 -7t-0.5 -7q31 8 63 13q3 14 5.5 29t5.5 31zM309 8l-4 -2q3 -2 20.5 -3t39.5 -1q19 0 34 0.5t20 2.5q22 6 46 13l48 14q20 6 39 11.5t38 10.5q18 5 24.5 7t7.5 1v7q-5 12 -6 22q-4 11 -7.5 24t-11.5 30q-8 18 -44 19q4 -11 6.5 -22 t6.5 -22q4 -20 0.5 -27.5t-20.5 -12.5q-42 -12 -86 -25t-84 -24q-7 -2 -22 -3t-31 -1t-30 1.5t-18 5.5q-6 2 -9 4q3 -10 14.5 -17t28.5 -13zM156 357q20 4 38.5 7t37.5 6q14 27 27.5 53t26.5 52q6 46 12 90.5t13 87.5q-33 -60 -73 -135.5t-82 -160.5zM700 654q0 -2 1 -3z M622 62q0 -1 0.5 -1.5t0.5 1.5h-1z"/>
<glyph horiz-adv-x="428" unicode="Ç" glyph-name="Ccedilla" d="M57 -163q-16 -26 -39 -28q-9 -2 -17.5 -1.5t-17.5 2.5l-2 -4l-4 -11l4.5 -1.5t15.5 -4.5q12 -2 24.5 -4t23.5 -2h9q5 0 8 1h-1q36 3 49 21q9 15 19.5 35.5t20.5 43t18 44.5t13 39q0 1 0.5 2t0.5 3l-15 15q35 0 64.5 10t43.5 24q21 23 40 52t28 57q5 14 7.5 23.5t2.5 14.5 t-8.5 10.5t-28.5 13.5q-5 2 -9.5 3t-9.5 2q-2 -7 -3.5 -15t-4.5 -16q-11 -35 -29 -65t-36 -50q-17 -17 -43 -28t-54 -11q0 -2 -0.5 -4.5t-0.5 -4.5q-5 -20 -13 -43.5t-18 -46.5t-20 -43t-18 -33zM120 216q0 38 4.5 80.5t12.5 84.5q7 32 16.5 68t20 69.5t21.5 62.5t20 47 q-1 17 -4.5 29.5t-11.5 17.5q-12 5 -28 -19t-33 -63t-32 -86t-24 -89q-9 -45 -13.5 -91t-3.5 -84.5t7.5 -64.5t20.5 -32q12 -6 29 6q-2 14 -2 30v34zM336 440h-1q3 -1 7 -1.5t12 -0.5q24 0 28.5 4.5t6.5 12.5q0 1 0.5 -2t0.5 -2v3q5 23 7 53t2 59v20t-1 19q-2 26 -8.5 46 t-26.5 40q-8 7 -17 13.5t-20 12.5q8 -16 11.5 -33.5t5.5 -37.5q2 -37 0 -81t-8 -74q-4 -14 -9 -22.5t-26 -2.5q-13 3 -23 8t-18 11q11 -15 29 -26t48 -19zM21 39l1 2q0 1 1 3q-8 4 -11 6q-5 1 -8 5l8 -8t9 -8z"/>
<glyph horiz-adv-x="385" unicode="È" glyph-name="Egrave" d="M186 522q5 22 8.5 42t8.5 40l-12 12q35 7 67.5 12t63.5 10q5 1 11 1.5t11 1.5q21 3 29 5t8 4v4q-2 2 -2.5 4.5t-0.5 10.5q-2 11 -5 23t-13 34v2q-8 22 -46 23q4 -12 6 -23t5 -23q3 -21 -1.5 -28.5t-21.5 -10.5q-35 -5 -73.5 -11t-80.5 -14q-8 -37 -16 -78t-18 -86 q16 3 31.5 4.5t32.5 2.5q2 10 4 19.5t4 18.5zM130 238l6 33l-11 11q26 8 53.5 15t55.5 14q11 3 22.5 5.5t22.5 5.5q34 11 34 7q0 3 -3 15v1q-3 14 -7 29t-15 38v1q-7 16 -43 17q3 -11 5.5 -21t4.5 -21q5 -21 1 -28t-21 -12q-38 -10 -77.5 -19.5t-76.5 -20.5 q-5 -29 -10 -56.5t-10 -53.5q31 9 64 13q1 7 2 13.5t3 13.5zM22 13q5 -5 14.5 -9t32.5 -4q11 0 18.5 1.5t14.5 3.5h-1q22 6 45.5 13t47.5 14q20 6 39 11.5t38 10.5q18 5 24.5 7t7.5 1v7q-5 12 -6 22q-4 11 -7.5 24t-11.5 30q-8 18 -44 19q4 -11 6.5 -22t6.5 -22 q4 -20 0.5 -27.5t-20.5 -12.5q-42 -12 -86 -25t-84 -24q-22 -8 -35 -6t-21 9zM77 983q14 -12 35.5 -27.5t48.5 -32t57 -33.5t62 -31l-2 -1q4 -2 24 -2q30 0 50 15l-20 -23l5.5 5.5t10 9.5t11 10.5t8.5 7.5q-4 2 -7 5q-11 6 -23 13t-24 15q-2 -8 -6.5 -12t-3.5 -3 q-35 -26 -57 -14q-45 20 -90 48.5t-80 54.5q-4 -10 -4 -18zM367 881q3 -2 3 2l-1 -0.5t-2 -1.5zM381 654q0 -2 1 -3zM303 62q0 -1 0.5 -1.5t0.5 1.5h-1z"/>
<glyph horiz-adv-x="385" unicode="É" glyph-name="Eacute" d="M186 522q5 22 8.5 42t8.5 40l-12 12q35 7 67.5 12t63.5 10q5 1 11 1.5t11 1.5q21 3 29 5t8 4v4q-2 2 -2.5 4.5t-0.5 10.5q-2 11 -5 23t-13 34v2q-8 22 -46 23q4 -12 6 -23t5 -23q3 -21 -1.5 -28.5t-21.5 -10.5q-35 -5 -73.5 -11t-80.5 -14q-8 -37 -16 -78t-18 -86 q16 3 31.5 4.5t32.5 2.5q2 10 4 19.5t4 18.5zM130 238l6 33l-11 11q26 8 53.5 15t55.5 14q11 3 22.5 5.5t22.5 5.5q33 10 34 7q0 3 -3 15v1q-3 14 -7 29t-15 38v1q-7 16 -43 17q3 -11 5.5 -21t4.5 -21q5 -21 1 -28t-21 -12q-38 -10 -77.5 -19.5t-76.5 -20.5 q-5 -29 -10 -56.5t-10 -53.5q31 9 64 13q1 7 2 13.5t3 13.5zM315 1012q-16 -14 -39 -31t-49.5 -34t-55 -33.5t-55.5 -28.5q-16 -9 -35 0l-6 -4q3 -2 8.5 -7.5t11 -10.5t10 -9.5l5.5 -5.5l-20 23q19 -15 50 -15q20 0 24 2l-2 1q31 14 61.5 31t57.5 33.5t48.5 32t35.5 27.5 l5 -13q-2 14 -7.5 24t-22.5 20v1q-11 7 -27 10q1 -3 1 -7q0 -3 1 -6zM22 13q5 -5 14.5 -9t32.5 -4q11 0 18.5 1.5t14.5 3.5h-1q22 6 45.5 13t47.5 14q20 6 39 11.5t38 10.5q18 5 24.5 7t7.5 1v7q-5 12 -6 22q-4 11 -7.5 24t-11.5 30q-8 18 -44 19q4 -11 6.5 -22t6.5 -22 q4 -20 0.5 -27.5t-20.5 -12.5q-42 -12 -86 -25t-84 -24q-22 -8 -35 -6t-21 9zM75 881q-2 2 -3 2v0q0 -4 3 -2zM381 654q0 -2 1 -3zM303 62q0 -1 0.5 -1.5t0.5 1.5h-1z"/>
<glyph horiz-adv-x="385" unicode="Ê" glyph-name="Ecircumflex" d="M186 522q5 22 8.5 42t8.5 40l-12 12q35 7 67.5 12t63.5 10q5 1 11 1.5t11 1.5q21 3 29 5t8 4v4q-2 2 -2.5 4.5t-0.5 10.5q-2 11 -5 23t-13 34v2q-8 22 -46 23q4 -12 6 -23t5 -23q3 -21 -1.5 -28.5t-21.5 -10.5q-35 -5 -73.5 -11t-80.5 -14q-8 -37 -16 -78t-18 -86 q16 3 31.5 4.5t32.5 2.5q2 10 4 19.5t4 18.5zM130 238l6 33l-11 11q26 8 53.5 15t55.5 14q11 3 22.5 5.5t22.5 5.5q33 10 34 7q0 3 -3 15v1q-3 14 -7 29t-15 38v1q-7 16 -43 17q3 -11 5.5 -21t4.5 -21q5 -21 1 -28t-21 -12q-38 -10 -77.5 -19.5t-76.5 -20.5 q-5 -29 -10 -56.5t-10 -53.5q31 9 64 13q1 7 2 13.5t3 13.5zM22 13q5 -5 14.5 -9t32.5 -4q11 0 18.5 1.5t14.5 3.5h-1q22 6 45.5 13t47.5 14q20 6 39 11.5t38 10.5q18 5 24.5 7t7.5 1v7q-5 12 -6 22q-4 11 -7.5 24t-11.5 30q-8 18 -44 19q4 -11 6.5 -22t6.5 -22 q4 -20 0.5 -27.5t-20.5 -12.5q-42 -12 -86 -25t-84 -24q-22 -8 -35 -6t-21 9zM289 871q-8 0 -16.5 1t-18.5 5h-1q1 -2 1.5 -5t1.5 -5q4 -7 34 -16h-1q14 -5 40 -5h3q19 0 24 -3v2l1 2q-4 19 -9.5 43t-10.5 51t-10 54.5t-8 53.5v1q-1 6 -3 10.5t-7 11.5q-1 1 -9 7.5t-17 14.5 l1 1q-3 3 -6.5 6t-6.5 6q-1 0 -3 0.5t-7 1.5q1 -8 3 -18q3 -25 8 -52.5t10 -54.5t10.5 -51t9.5 -43q4 -20 -13 -19zM135 878q1 -2 4 -2.5t20 -0.5h18t5 1l-1 1q2 2 2.5 4t2.5 4q8 13 16.5 27t18.5 29q-4 18 -8 39.5t-9 44.5q-22 -31 -40.5 -60.5t-34.5 -55.5q-5 -9 -10 -9 h-1q3 -5 7.5 -10t9.5 -12zM356 843q2 -6 2 -2zM381 654q0 -2 1 -3zM303 62q0 -1 0.5 -1.5t0.5 1.5h-1z"/>
<glyph horiz-adv-x="385" unicode="Ë" glyph-name="Edieresis" d="M186 522q5 22 8.5 42t8.5 40l-12 12q35 7 67.5 12t63.5 10q5 1 11 1.5t11 1.5q21 3 29 5t8 4v4q-2 2 -2.5 4.5t-0.5 10.5q-2 11 -5 23t-13 34v2q-8 22 -46 23q4 -12 6 -23t5 -23q3 -21 -1.5 -28.5t-21.5 -10.5q-35 -5 -73.5 -11t-80.5 -14q-8 -37 -16 -78t-18 -86 q16 3 31.5 4.5t32.5 2.5q2 10 4 19.5t4 18.5zM130 238l6 33l-11 11q26 8 53.5 15t55.5 14q11 3 22.5 5.5t22.5 5.5q33 10 34 7q0 3 -3 15v1q-3 14 -7 29t-15 38v1q-7 16 -43 17q3 -11 5.5 -21t4.5 -21q5 -21 1 -28t-21 -12q-38 -10 -77.5 -19.5t-76.5 -20.5 q-5 -29 -10 -56.5t-10 -53.5q31 9 64 13q1 7 2 13.5t3 13.5zM22 13q5 -5 14.5 -9t32.5 -4q11 0 18.5 1.5t14.5 3.5h-1q22 6 45.5 13t47.5 14q20 6 39 11.5t38 10.5q18 5 24.5 7t7.5 1v7q-5 12 -6 22q-4 11 -7.5 24t-11.5 30q-8 18 -44 19q4 -11 6.5 -22t6.5 -22 q4 -20 0.5 -27.5t-20.5 -12.5q-42 -12 -86 -25t-84 -24q-22 -8 -35 -6t-21 9zM292 846h3q33 0 48.5 14.5t17.5 25.5v1q1 5 1.5 9t0.5 9q0 10 -11.5 22.5t-35.5 23.5q-2 1 -4 1t-5 1q1 -3 1 -8q0 -7 -0.5 -12t-1.5 -10q-2 -7 -5.5 -16t-10 -17t-15.5 -13.5t-20 -5.5 q-13 -1 -24 5q8 -14 24.5 -22t36.5 -8zM117 847h3q32 0 48 14.5t18 24.5l-1 3q4 11 4 16q0 11 -11.5 23.5t-36.5 23.5l1 1q-2 0 -4 0.5t-5 0.5q1 -3 1 -9q0 -12 -3 -21q-1 -7 -5 -16t-10.5 -17t-15.5 -13.5t-20 -5.5q-12 -1 -23 5q8 -14 24 -22t36 -8zM381 654q0 -2 1 -3z M303 62q0 -1 0.5 -1.5t0.5 1.5h-1z"/>
<glyph horiz-adv-x="208" unicode="Ì" glyph-name="Igrave" d="M170 696q-12 10 -28 19q1 -8 -2 -26q-8 -37 -17 -87t-18.5 -106.5t-19 -117.5t-18.5 -120t-16.5 -113.5t-13.5 -98.5q-3 -17 -9 -22t-23 1q-16 6 -30 12t-27 15q5 -9 25 -23q8 -6 26.5 -14t40.5 -16q8 -2 20 -2q17 0 24 2.5t8 8.5q9 66 21.5 154t27 179t28.5 173.5 t26 138.5l2 16q0 2 -5.5 7.5t-21.5 18.5v1zM-39 1004q14 -12 35.5 -27.5t48.5 -32t57 -33.5t62 -31l-2 -1q4 -2 24 -2q30 0 50 15l-20 -23l5.5 5.5t10 9.5t11 10.5t8.5 7.5q-4 2 -7 5q-11 6 -23 13t-24 15q-2 -8 -6.5 -12t-3.5 -3q-35 -26 -57 -14q-45 20 -90 48.5t-79 54.5 q-2 -4 -3 -8.5t-2 -9.5zM251 902q3 -2 3 2l-1 -0.5t-2 -1.5z"/>
<glyph horiz-adv-x="208" unicode="Í" glyph-name="Iacute" d="M170 696q-12 10 -28 19q1 -8 -2 -26q-8 -37 -17 -87t-18.5 -106.5t-19 -117.5t-18.5 -120t-16.5 -113.5t-13.5 -98.5q-3 -17 -9 -22t-23 1q-16 6 -30 12t-27 15q5 -9 25 -23q8 -6 26.5 -14t40.5 -16q8 -2 20 -2q17 0 24 2.5t8 8.5q9 66 21.5 154t27 179t28.5 173.5 t26 138.5l2 16q0 2 -5.5 7.5t-21.5 18.5v1zM242 1014q-16 -14 -39 -31t-49.5 -34t-55 -33.5t-55.5 -28.5q-16 -9 -35 0l-6 -4q3 -2 8.5 -7.5t11 -10.5t10 -9.5l5.5 -5.5l-20 23q19 -15 50 -15q20 0 24 2l-2 1q31 14 61.5 31t57.5 33.5t48.5 32t35.5 27.5l5 -13 q-2 14 -7.5 24t-22.5 20v1q-11 7 -27 10q1 -3 1 -7q0 -3 1 -6zM2 883l-2 2h-1q0 -4 3 -2z"/>
<glyph horiz-adv-x="208" unicode="Î" glyph-name="Icircumflex" d="M170 696q-12 10 -28 19q1 -8 -2 -26q-8 -37 -17 -87t-18.5 -106.5t-19 -117.5t-18.5 -120t-16.5 -113.5t-13.5 -98.5q-3 -17 -9 -22t-23 1q-16 6 -30 12t-27 15q5 -9 25 -23q8 -6 26.5 -14t40.5 -16q8 -2 20 -2q17 0 24 2.5t8 8.5q9 66 21.5 154t27 179t28.5 173.5 t26 138.5l2 16q0 2 -5.5 7.5t-21.5 18.5v1zM192 866q-8 0 -16.5 1t-18.5 5h-1q1 -2 1.5 -5t1.5 -5q4 -7 34 -16h-1q14 -5 40 -5h3q19 0 24 -3v2l1 2q-4 19 -9.5 43t-10.5 51t-10 54.5t-8 53.5v1q-1 6 -3 10.5t-7 11.5q-1 1 -9 7.5t-17 14.5l1 1q-3 3 -6.5 6t-6.5 6 q-1 0 -3 0.5t-7 1.5q1 -8 3 -18q3 -25 8 -52.5t10 -54.5t10.5 -51t9.5 -43q4 -20 -13 -19zM38 873q1 -2 4 -2.5t20 -0.5h18t5 1l-1 1q2 2 2.5 4t2.5 4q8 13 16.5 27t18.5 29q-4 18 -8 39.5t-9 44.5q-22 -31 -40.5 -60.5t-34.5 -55.5q-5 -9 -10 -9h-1q3 -5 7.5 -10t9.5 -12z M259 838q2 -6 2 -2z"/>
<glyph horiz-adv-x="208" unicode="Ï" glyph-name="Idieresis" d="M170 696q-12 10 -28 19q1 -8 -2 -26q-8 -37 -17 -87t-18.5 -106.5t-19 -117.5t-18.5 -120t-16.5 -113.5t-13.5 -98.5q-3 -17 -9 -22t-23 1q-16 6 -30 12t-27 15q5 -9 25 -23q8 -6 26.5 -14t40.5 -16q8 -2 20 -2q17 0 24 2.5t8 8.5q9 66 21.5 154t27 179t28.5 173.5 t26 138.5l2 16q0 2 -5.5 7.5t-21.5 18.5v1zM207 846h3q33 0 48.5 14.5t17.5 25.5v1q1 5 1.5 9t0.5 9q0 10 -11.5 22.5t-35.5 23.5q-2 1 -4 1t-5 1q1 -3 1 -8q0 -7 -0.5 -12t-1.5 -10q-2 -7 -5.5 -16t-10 -17t-15.5 -13.5t-20 -5.5q-13 -1 -24 5q8 -14 24.5 -22t36.5 -8z M32 847h3q32 0 48 14.5t18 24.5l-1 3q4 11 4 16q0 11 -11.5 23.5t-36.5 23.5l1 1q-2 0 -4 0.5t-5 0.5q1 -3 1 -9q0 -12 -3 -21q-1 -7 -5 -16t-10.5 -17t-15.5 -13.5t-20 -5.5q-12 -1 -23 5q17 -30 60 -30z"/>
<glyph horiz-adv-x="601" unicode="Ð" glyph-name="Eth" d="M168 3q19 -14 52 -14q24 0 35 6l-1 1q78 33 134.5 85.5t94 115.5t55.5 130.5t18 130.5q0 77 -29 147q-16 38 -38.5 65t-48.5 44q18 -27 33 -63q19 -45 25 -101.5t-1 -117t-28.5 -121.5t-57 -116t-86.5 -100t-117 -73q-35 -20 -71 9q-15 10 -24 19q10 -11 22.5 -21.5 t32.5 -25.5zM175 178q19 12 36 26t32 29q4 29 8.5 58t9.5 58l-15 13q5 0 9 0.5t9 0.5q25 1 65 3h1q8 17 13 33.5t10 33.5q-1 2 -2 3t-2 3v1q-9 17 -40 21q4 -11 6.5 -20.5t6.5 -18.5q6 -18 -2.5 -24t-31.5 -7q-27 -2 -46.5 -2.5t-35.5 -1.5q-8 -51 -15.5 -103t-15.5 -106z M306 599l-9 11q21 10 32 10q5 0 8.5 -2t8.5 -5q-14 21 -38.5 29t-56.5 -6q-6 -29 -12 -58.5t-11 -59.5h8q33 0 50 -18q5 25 10 49.5t10 49.5zM29 362q12 -14 36 -19l3 26q-17 -3 -29.5 -1t-23.5 10q3 -4 6.5 -7.5t7.5 -8.5zM96 65l1 1l-3 3z"/>
<glyph horiz-adv-x="468" unicode="Ñ" glyph-name="Ntilde" d="M238 30q21 -11 67 -25h-1q8 -2 20 -2q37 0 39 16q9 69 20.5 154.5t23.5 172.5t24.5 168.5t23.5 142.5q1 6 1.5 11t0.5 9t-5.5 10.5t-21.5 19.5h1q-8 6 -14.5 10t-14.5 8q1 -11 -2 -30q-11 -61 -23.5 -142.5t-24.5 -168.5t-23.5 -172.5t-20.5 -154.5q-3 -38 -39 -26 q-16 5 -31.5 11.5t-31.5 14.5q-1 0 -2 0.5t-2 0.5q13 -14 36 -28zM-28 34l-2 -1q5 -5 22.5 -11.5t36.5 -14.5q2 -1 5 -2t5 -2h-1q4 -2 10.5 -2.5t12.5 -0.5q18 0 23.5 2.5t6.5 7.5q5 48 14.5 113t20.5 138q0 2 0.5 4.5t0.5 5.5q-9 44 -17.5 90.5t-16.5 93.5 q-8 -56 -16.5 -113.5t-16 -110.5t-14 -100t-10.5 -83q-2 -17 -8.5 -21.5t-23.5 2.5q-13 5 -26 9.5t-26 13.5l8.5 -8.5t11.5 -9.5zM296 892q-45 0 -65 20q-5 5 -14 9.5t-19 8t-20 5.5t-17 2q-6 0 -13 -5t-13 -11.5t-11 -11.5t-6 -5q-11 -10 -30 -10h-3q-3 -9 -3 -12 q0 -13 46 -13q32 0 40 6l-10 4l8.5 0.5t10.5 2.5q8 9 17 19.5t7 10.5q4 0 12 -2.5t16.5 -6.5t16.5 -9t14 -11q16 -16 76 -16q45 0 78 33h-1q23 20 33 33t11 20q-1 -3 -6 2q-22 14 -46 14h-10q-10 -19 -32 -40q-37 -37 -67 -37zM218 354q5 47 10.5 92t11.5 90 q-5 32 -8.5 59.5t-5.5 45.5q-3 21 -12 33.5t-33 26.5l1 1q-4 2 -7.5 4.5t-8.5 4.5q2 -6 2.5 -13t2.5 -15q3 -23 8 -60.5t11.5 -82t13.5 -93t14 -93.5z"/>
<glyph unicode="Ò" glyph-name="Ograve" d="M351 694q-5 5 -12.5 10.5t-15.5 10.5q11 -19 17.5 -40t11.5 -46q9 -62 8 -137.5t-13.5 -152t-36.5 -147t-61 -121.5q-26 -31 -55.5 -41.5t-67.5 -4.5q-25 4 -51.5 12t-48.5 25q15 -15 30 -27q18 -14 47.5 -22t60.5 -13q7 -1 14 -1.5t15 -0.5q37 0 65 13t52 41 q27 38 47 87.5t33 104t19 112.5t6 112q0 31 -2 61t-6 57q-5 29 -17 54.5t-39 53.5zM207 665q-12 5 -28 -15.5t-31.5 -55t-29.5 -78.5t-23 -85q-9 -42 -13.5 -89t-3.5 -87.5t8 -69.5t22 -36q12 -8 27 7q-2 16 -2 34v39q0 40 4.5 83t12.5 82q7 33 16.5 67.5t19.5 66t20.5 57 t19.5 40.5q-6 34 -19 40zM77 983q14 -12 35.5 -27.5t48.5 -32t57 -33.5t62 -31l-2 -1q4 -2 24 -2q30 0 50 15l-20 -23l5.5 5.5t10 9.5t11 10.5t8.5 7.5q-4 2 -7 5q-11 6 -23 13t-24 15q-2 -8 -6.5 -12t-3.5 -3q-35 -26 -57 -14q-45 20 -90 48.5t-80 54.5q-4 -10 -4 -18z M367 881q3 -2 3 2l-1 -0.5t-2 -1.5z"/>
<glyph unicode="Ó" glyph-name="Oacute" d="M351 694q-5 5 -12.5 10.5t-15.5 10.5q11 -19 17.5 -40t11.5 -46q9 -62 8 -137.5t-13.5 -152t-36.5 -147t-61 -121.5q-26 -31 -55.5 -41.5t-67.5 -4.5q-25 4 -51.5 12t-48.5 25q15 -15 30 -27q18 -14 47.5 -22t60.5 -13q7 -1 14 -1.5t15 -0.5q37 0 65 13t52 41 q27 38 47 87.5t33 104t19 112.5t6 112q0 31 -2 61t-6 57q-5 29 -17 54.5t-39 53.5zM207 665q-12 5 -28 -15.5t-31.5 -55t-29.5 -78.5t-23 -85q-9 -42 -13.5 -89t-3.5 -87.5t8 -69.5t22 -36q12 -8 27 7q-2 16 -2 34v39q0 40 4.5 83t12.5 82q7 33 16.5 67.5t19.5 66t20.5 57 t19.5 40.5q-6 34 -19 40zM315 1012q-16 -14 -39 -31t-49.5 -34t-55 -33.5t-55.5 -28.5q-16 -9 -35 0l-6 -4q3 -2 8.5 -7.5t11 -10.5t10 -9.5l5.5 -5.5l-20 23q19 -15 50 -15q20 0 24 2l-2 1q31 14 61.5 31t57.5 33.5t48.5 32t35.5 27.5l5 -13q-2 14 -7.5 24t-22.5 20v1 q-11 7 -27 10q1 -3 1 -7q0 -3 1 -6zM75 881q-2 2 -3 2v0q0 -4 3 -2z"/>
<glyph unicode="Ô" glyph-name="Ocircumflex" d="M351 694q-5 5 -12.5 10.5t-15.5 10.5q11 -19 17.5 -40t11.5 -46q9 -62 8 -137.5t-13.5 -152t-36.5 -147t-61 -121.5q-26 -31 -55.5 -41.5t-67.5 -4.5q-25 4 -51.5 12t-48.5 25q15 -15 30 -27q18 -14 47.5 -22t60.5 -13q7 -1 14 -1.5t15 -0.5q37 0 65 13t52 41 q27 38 47 87.5t33 104t19 112.5t6 112q0 31 -2 61t-6 57q-5 29 -17 54.5t-39 53.5zM207 665q-12 5 -28 -15.5t-31.5 -55t-29.5 -78.5t-23 -85q-9 -42 -13.5 -89t-3.5 -87.5t8 -69.5t22 -36q12 -8 27 7q-2 16 -2 34v39q0 40 4.5 83t12.5 82q7 33 16.5 67.5t19.5 66t20.5 57 t19.5 40.5q-6 34 -19 40zM323 854q-8 0 -16.5 1t-18.5 5h-1q1 -2 1.5 -5t1.5 -5q4 -7 34 -16h-1q14 -5 40 -5h3q19 0 24 -3v2l1 2q-4 19 -9.5 43t-10.5 51t-10 54.5t-8 53.5v1q-1 6 -3 10.5t-7 11.5q-1 1 -9 7.5t-17 14.5l1 1q-3 3 -6.5 6t-6.5 6q-1 0 -3 0.5t-7 1.5 q1 -8 3 -18q3 -25 8 -52.5t10 -54.5t10.5 -51t9.5 -43q4 -20 -13 -19zM169 861q1 -2 4 -2.5t20 -0.5h18t5 1l-1 1q2 2 2.5 4t2.5 4q8 13 16.5 27t18.5 29q-4 18 -8 39.5t-9 44.5q-22 -31 -40.5 -60.5t-34.5 -55.5q-5 -9 -10 -9h-1q3 -5 7.5 -10t9.5 -12zM390 826q2 -6 2 -2z "/>
<glyph unicode="Õ" glyph-name="Otilde" d="M351 694q-5 5 -12.5 10.5t-15.5 10.5q11 -19 17.5 -40t11.5 -46q9 -62 8 -137.5t-13.5 -152t-36.5 -147t-61 -121.5q-26 -31 -55.5 -41.5t-67.5 -4.5q-25 4 -51.5 12t-48.5 25q15 -15 30 -27q18 -14 47.5 -22t60.5 -13q7 -1 14 -1.5t15 -0.5q37 0 65 13t52 41 q27 38 47 87.5t33 104t19 112.5t6 112q0 31 -2 61t-6 57q-5 29 -17 54.5t-39 53.5zM207 665q-12 5 -28 -15.5t-31.5 -55t-29.5 -78.5t-23 -85q-9 -42 -13.5 -89t-3.5 -87.5t8 -69.5t22 -36q12 -8 27 7q-2 16 -2 34v39q0 40 4.5 83t12.5 82q7 33 16.5 67.5t19.5 66t20.5 57 t19.5 40.5q-6 34 -19 40zM296 892q-45 0 -65 20q-5 5 -14 9.5t-19 8t-20 5.5t-17 2q-6 0 -13 -5t-13 -11.5t-11 -11.5t-6 -5q-11 -10 -30 -10h-3q-3 -9 -3 -12q0 -13 46 -13q32 0 40 6l-10 4l8.5 0.5t10.5 2.5q8 9 17 19.5t7 10.5q4 0 12 -2.5t16.5 -6.5t16.5 -9t14 -11 q16 -16 76 -16q45 0 78 33h-1q23 20 33 33t11 20q-1 -3 -6 2q-22 14 -46 14h-10q-10 -19 -32 -40q-37 -37 -67 -37z"/>
<glyph unicode="Ö" glyph-name="Odieresis" d="M351 694q-5 5 -12.5 10.5t-15.5 10.5q11 -19 17.5 -40t11.5 -46q9 -62 8 -137.5t-13.5 -152t-36.5 -147t-61 -121.5q-26 -31 -55.5 -41.5t-67.5 -4.5q-25 4 -51.5 12t-48.5 25q15 -15 30 -27q18 -14 47.5 -22t60.5 -13q7 -1 14 -1.5t15 -0.5q37 0 65 13t52 41 q27 38 47 87.5t33 104t19 112.5t6 112q0 31 -2 61t-6 57q-5 29 -17 54.5t-39 53.5zM207 665q-12 5 -28 -15.5t-31.5 -55t-29.5 -78.5t-23 -85q-9 -42 -13.5 -89t-3.5 -87.5t8 -69.5t22 -36q12 -8 27 7q-2 16 -2 34v39q0 40 4.5 83t12.5 82q7 33 16.5 67.5t19.5 66t20.5 57 t19.5 40.5q-6 34 -19 40zM326 846h3q33 0 48.5 14.5t17.5 25.5v1q1 5 1.5 9t0.5 9q0 10 -11.5 22.5t-35.5 23.5q-2 1 -4 1t-5 1q1 -3 1 -8q0 -7 -0.5 -12t-1.5 -10q-2 -7 -5.5 -16t-10 -17t-15.5 -13.5t-20 -5.5q-13 -1 -24 5q8 -14 24.5 -22t36.5 -8zM151 847h3 q32 0 48 14.5t18 24.5l-1 3q4 11 4 16q0 11 -11.5 23.5t-36.5 23.5l1 1q-2 0 -4 0.5t-5 0.5q1 -3 1 -9q0 -12 -3 -21q-1 -7 -5 -16t-10.5 -17t-15.5 -13.5t-20 -5.5q-12 -1 -23 5q8 -14 24 -22t36 -8z"/>
<glyph horiz-adv-x="437" unicode="×" glyph-name="multiply" d="M235 233q-27 24 -54 49.5t-58 48.5q-40 -29 -76.5 -56t-65.5 -50q-8 -6 -11 -7q2 -6 2 -8l3 -15q1 -3 5.5 -4t20.5 -1q8 0 16 1.5t13 5.5q27 21 61 47t71 52q20 -15 37 -31.5t35 -31.5q8 -8 15.5 -15t15.5 -14h-1q2 -2 7 -3.5t19 -1.5q27 0 31 10q2 5 4 8.5t4 7.5 q16 31 20 41q5 11 5 16q0 1 -15 19q-9 10 -21.5 21t-26.5 25q14 -20 4 -46q-6 -18 -13 -31.5t-14 -27.5q-8 -16 -15.5 -17.5t-17.5 8.5zM322 406q6 4 12.5 6.5t11.5 6.5l-2 1q22 11 29 17.5t9 15.5q1 5 1.5 9.5t0.5 8.5q0 10 -2.5 23t-7.5 27q-1 2 -9.5 2.5t-22.5 0.5 q-10 0 -14 -1q2 -19 -1 -32q-2 -19 -8 -27.5t-22 -16.5q-15 -10 -31 -19.5t-33 -21.5l50 -50l-1 22q18 13 28 20t12 8zM-16 424l2 -1.5t7 -4.5l16 -10t18 -12q2 1 2.5 1.5t2.5 1.5q-13 9 -24.5 17t-23.5 15v-7z"/>
<glyph unicode="Ø" glyph-name="Oslash" d="M402 801q-2 2 -2 7v10q-4 -7 -8 -3l1 1q-4 2 -10 4t-17 3q1 -8 -1.5 -15t-6.5 -16q-14 -30 -35 -79q11 -18 17.5 -39t11.5 -45q9 -62 8 -137.5t-13.5 -152t-36.5 -147t-61 -121.5q-26 -31 -55.5 -41.5t-67.5 -4.5q-19 3 -38.5 8t-38.5 14q-8 -21 -15 -39t-12 -32 q-9 -26 -23 -22v-2q0 -1 3 -4l11 -11q-9 5 -8.5 2.5t8.5 -18.5l10 -5t7 -3l-1 -1q10 -5 11.5 -5.5t-0.5 0.5l-20 23l-3 3l-1 1q-2 2 -2 3l1 -1q1 0 2 -1l-1 -1v0q1 0 2 -1h-1q7 -4 27 -4q15 0 22.5 3t9.5 9v1q2 5 4.5 11t5.5 14l8 22t9 23l-13 5q16 -6 35 -10t39 -7 q7 -1 14 -1.5t15 -0.5q37 0 65 13t52 41q27 38 47 87.5t33 104t19 112.5t6 112q0 31 -2 61t-6 57q-4 19 -10.5 38t-20.5 41l1 14q21 49 35 79q9 18 9 22l-4.5 5.5t-13.5 17.5zM216 378q5 26 8 54.5t5 57.5q-34 -83 -69 -168t-65 -160q5 -10 13 -13q13 -7 28.5 8t30 46.5 t27.5 76.5t22 98zM207 665q-12 5 -28 -15.5t-31.5 -55t-29.5 -78.5t-23 -85q-14 -62 -17 -127q32 87 68 180.5t68 174.5q-3 4 -7 6zM400 818q2 5 3.5 11.5l1.5 6.5h-17l9 -3l-1 -1l4 -11v-3zM388 836l-2 1q1 0 1 -1h1z"/>
<glyph horiz-adv-x="451" unicode="Ù" glyph-name="Ugrave" d="M44 33q31 -27 107 -34h-1q5 -1 10 -1h11q30 0 54 8.5t49 26.5q30 27 53.5 83.5t42 137.5t33 183.5t28.5 220.5q1 6 1.5 10.5t0.5 6.5t-5.5 7t-22.5 19q-6 5 -13 9.5t-15 9.5q1 -5 0.5 -10.5t-1.5 -13.5q-14 -122 -29 -227t-34.5 -188.5t-44 -142.5t-56.5 -87 q-23 -17 -46.5 -23.5t-53.5 -3.5q-58 6 -97 37q6 -8 13.5 -14.5t15.5 -13.5zM125 191q0 42 7 98t17.5 115t22.5 117t23 104v1q3 12 3 19q0 17 -29 46q-11 11 -32 23q9 -24 3 -52q-10 -43 -21.5 -96t-21.5 -107.5t-17 -107.5t-9 -95.5t3 -71t19 -34.5q14 -7 32 19v22zM77 983 q14 -12 35.5 -27.5t48.5 -32t57 -33.5t62 -31l-2 -1q4 -2 24 -2q30 0 50 15l-20 -23l5.5 5.5t10 9.5t11 10.5t8.5 7.5q-4 2 -7 5q-11 6 -23 13t-24 15q-2 -8 -6.5 -12t-3.5 -3q-35 -26 -57 -14q-45 20 -90 48.5t-80 54.5q-4 -10 -4 -18zM367 881q3 -2 3 2l-1 -0.5t-2 -1.5z "/>
<glyph horiz-adv-x="451" unicode="Ú" glyph-name="Uacute" d="M44 33q31 -27 107 -34h-1q5 -1 10 -1h11q30 0 54 8.5t49 26.5q30 27 53.5 83.5t42 137.5t33 183.5t28.5 220.5q1 6 1.5 10.5t0.5 6.5t-5.5 7t-22.5 19q-6 5 -13 9.5t-15 9.5q1 -5 0.5 -10.5t-1.5 -13.5q-14 -122 -29 -227t-34.5 -188.5t-44 -142.5t-56.5 -87 q-23 -17 -46.5 -23.5t-53.5 -3.5q-58 6 -97 37q6 -8 13.5 -14.5t15.5 -13.5zM125 191q0 42 7 98t17.5 115t22.5 117t23 104v1q3 12 3 19q0 17 -29 46q-11 11 -32 23q9 -24 3 -52q-10 -43 -21.5 -96t-21.5 -107.5t-17 -107.5t-9 -95.5t3 -71t19 -34.5q14 -7 32 19v22z M315 1012q-16 -14 -39 -31t-49.5 -34t-55 -33.5t-55.5 -28.5q-16 -9 -35 0l-6 -4q3 -2 8.5 -7.5t11 -10.5t10 -9.5l5.5 -5.5l-20 23q19 -15 50 -15q20 0 24 2l-2 1q31 14 61.5 31t57.5 33.5t48.5 32t35.5 27.5l5 -13q-2 14 -7.5 24t-22.5 20v1q-11 7 -27 10q1 -3 1 -7 q0 -3 1 -6zM75 881q-2 2 -3 2v0q0 -4 3 -2z"/>
<glyph horiz-adv-x="451" unicode="Û" glyph-name="Ucircumflex" d="M44 33q31 -27 107 -34h-1q5 -1 10 -1h11q30 0 54 8.5t49 26.5q30 27 53.5 83.5t42 137.5t33 183.5t28.5 220.5q1 6 1.5 10.5t0.5 6.5t-5.5 7t-22.5 19q-6 5 -13 9.5t-15 9.5q1 -5 0.5 -10.5t-1.5 -13.5q-14 -122 -29 -227t-34.5 -188.5t-44 -142.5t-56.5 -87 q-23 -17 -46.5 -23.5t-53.5 -3.5q-58 6 -97 37q6 -8 13.5 -14.5t15.5 -13.5zM125 191q0 42 7 98t17.5 115t22.5 117t23 104v1q3 12 3 19q0 17 -29 46q-11 11 -32 23q9 -24 3 -52q-10 -43 -21.5 -96t-21.5 -107.5t-17 -107.5t-9 -95.5t3 -71t19 -34.5q14 -7 32 19v22z M289 871q-8 0 -16.5 1t-18.5 5h-1q1 -2 1.5 -5t1.5 -5q4 -7 34 -16h-1q14 -5 40 -5h3q19 0 24 -3v2l1 2q-4 19 -9.5 43t-10.5 51t-10 54.5t-8 53.5v1q-1 6 -3 10.5t-7 11.5q-1 1 -9 7.5t-17 14.5l1 1q-3 3 -6.5 6t-6.5 6q-1 0 -3 0.5t-7 1.5q1 -8 3 -18q3 -25 8 -52.5 t10 -54.5t10.5 -51t9.5 -43q4 -20 -13 -19zM135 878q1 -2 4 -2.5t20 -0.5h18t5 1l-1 1q2 2 2.5 4t2.5 4q8 13 16.5 27t18.5 29q-4 18 -8 39.5t-9 44.5q-22 -31 -40.5 -60.5t-34.5 -55.5q-5 -9 -10 -9h-1q3 -5 7.5 -10t9.5 -12zM356 843q2 -6 2 -2z"/>
<glyph horiz-adv-x="451" unicode="Ü" glyph-name="Udieresis" d="M44 33q31 -27 107 -34h-1q5 -1 10 -1h11q30 0 54 8.5t49 26.5q30 27 53.5 83.5t42 137.5t33 183.5t28.5 220.5q1 6 1.5 10.5t0.5 6.5t-5.5 7t-22.5 19q-6 5 -13 9.5t-15 9.5q1 -5 0.5 -10.5t-1.5 -13.5q-14 -122 -29 -227t-34.5 -188.5t-44 -142.5t-56.5 -87 q-23 -17 -46.5 -23.5t-53.5 -3.5q-58 6 -97 37q6 -8 13.5 -14.5t15.5 -13.5zM125 191q0 42 7 98t17.5 115t22.5 117t23 104v1q3 12 3 19q0 17 -29 46q-11 11 -32 23q9 -24 3 -52q-10 -43 -21.5 -96t-21.5 -107.5t-17 -107.5t-9 -95.5t3 -71t19 -34.5q14 -7 32 19v22z M321 846h3q33 0 48.5 14.5t17.5 25.5v1q1 5 1.5 9t0.5 9q0 10 -11.5 22.5t-35.5 23.5q-2 1 -4 1t-5 1q1 -3 1 -8q0 -7 -0.5 -12t-1.5 -10q-2 -7 -5.5 -16t-10 -17t-15.5 -13.5t-20 -5.5q-13 -1 -24 5q8 -14 24.5 -22t36.5 -8zM146 847h3q32 0 48 14.5t18 24.5l-1 3 q4 11 4 16q0 11 -11.5 23.5t-36.5 23.5l1 1q-2 0 -4 0.5t-5 0.5q1 -3 1 -9q0 -12 -3 -21q-1 -7 -5 -16t-10.5 -17t-15.5 -13.5t-20 -5.5q-12 -1 -23 5q8 -14 24 -22t36 -8z"/>
<glyph horiz-adv-x="434" unicode="Ý" glyph-name="Yacute" d="M364 684q-9 -31 -28 -78.5t-43.5 -103.5t-52.5 -117t-55 -118q-11 -63 -19 -119.5t-15 -110.5q-4 -20 -10 -24.5t-23 1.5q-14 6 -29.5 13.5t-29.5 15.5q2 -6 12 -14q17 -11 37.5 -21t39.5 -18q6 -2 9 -3.5t17 -1.5q20 0 25 4t7 12q7 54 15 110t19 119l-1 3 q27 58 55.5 119t53 117t43 103t27.5 76v1q8 23 8 30q0 4 -5 12q-11 12 -25 26.5t-31 25.5q7 -14 6.5 -26.5t-7.5 -32.5zM315 1012q-16 -14 -39 -31t-49.5 -34t-55 -33.5t-55.5 -28.5q-16 -9 -35 0l-6 -4q3 -2 8.5 -7.5t11 -10.5t10 -9.5l5.5 -5.5l-20 23q19 -15 50 -15 q20 0 24 2l-2 1q31 14 61.5 31t57.5 33.5t48.5 32t35.5 27.5l5 -13q-2 14 -7.5 24t-22.5 20v1q-11 7 -27 10q1 -3 1 -7q0 -3 1 -6zM140 701q-6 18 -15.5 27.5t-35.5 17.5q-1 0 -1.5 0.5t-2.5 0.5v-1h1q13 -48 27.5 -111t30.5 -135q8 17 15 33.5t15 33.5q-9 38 -17.5 71.5 t-16.5 62.5zM75 881q-2 2 -3 2v0q0 -4 3 -2z"/>
<glyph horiz-adv-x="438" unicode="Þ" glyph-name="Thorn" d="M-27 29q8 -6 26.5 -14t40.5 -16q8 -2 20 -2q17 0 24 2.5t8 8.5q1 5 1.5 9.5t1.5 9.5q2 13 3.5 26t3.5 27l-10 12q41 16 81.5 37.5t76.5 46t65.5 52t47.5 54.5q20 30 34.5 60.5t14.5 59.5q0 18 -4 37q-9 42 -29 76.5t-43 67.5q-12 15 -34 23q16 -25 29 -54.5t22 -69.5 q11 -51 -3.5 -91.5t-38.5 -76.5q-20 -30 -49.5 -59t-64.5 -54.5t-73.5 -46.5t-76.5 -36q-3 -19 -5.5 -37t-4.5 -35q-3 -17 -9 -22t-23 1q-16 6 -30 12t-27 15q5 -9 25 -23zM75 290q39 18 69 42q12 63 24 120l-7 10q50 27 76 29q-1 2 -1 5q-2 10 -13 15t-28 4.5t-38.5 -7 t-43.5 -19.5q-10 -45 -19 -94.5zM170 696q-12 10 -28 19q1 -8 -2 -26q-2 -8 -3.5 -15t-3.5 -15q17 5 32.5 8t31.5 3q-1 2 -7 7.5t-20 17.5v1z"/>
<glyph horiz-adv-x="682" unicode="ß" glyph-name="germandbls" d="M611 690q-2 2 -5 3t-14 1q4 1 5 4t-6 12l1 1q-7 9 -30 10q4 -14 -0.5 -23.5t-14.5 -21.5q-23 -27 -59 -71t-78 -96.5t-87 -109.5t-87 -111t-78 -101t-60 -79q-18 -26 -32 -12v-3q0 -1 1.5 -3.5t7.5 -10.5q-2 -1 -1 -2l1 2q1 0 3 0.5t4 0.5q1 -2 2 -3.5t3 -3.5q4 -7 30 -7 t33 10v1q20 27 48.5 64t62 80.5t70.5 91t74 94.5q-9 12 0 28q11 19 31 38t44 29q36 45 66.5 82.5t51.5 61.5l21 24l-2.5 6t-5.5 14zM54 454q17 4 34.5 5.5t30.5 2.5q9 0 16 -4q32 38 58.5 77t38.5 70q10 23 15.5 41.5t5.5 33.5q0 8 -3.5 20t-11.5 29q-7 12 -19.5 24 t-32.5 20q16 -35 11 -67t-19 -67q-9 -22 -22.5 -46t-30 -48.5t-35 -48t-36.5 -42.5zM513 4q41 0 72 12.5t49 46.5q8 17 13 31.5t5 25.5q0 16 -8.5 35t-28.5 42h1q-2 2 -10 5.5t-19 8.5q12 -29 10 -59t-16 -56q-20 -38 -47.5 -52.5t-60.5 -14.5q-19 0 -39.5 6.5t-41.5 23.5 q24 -32 56.5 -43.5t64.5 -11.5zM529 270q10 -4 18.5 -9t16.5 -14q3 -4 6 -7.5t5 -8.5l2 12q51 31 62 45q11 13 17 27.5t6 28.5q0 13 -6.5 31t-20.5 41q-9 13 -20 20.5t-24 12.5q19 -39 15.5 -75t-19.5 -55q-11 -14 -25.5 -26t-32.5 -23zM1 332l-1 -2q2 -2 7 -3.5t24 -1.5 q9 0 13.5 0.5t8.5 1.5q11 4 27 8t33.5 7.5t35.5 6.5t33 5q5 8 10.5 15.5t11.5 15.5q-1 2 -2 4.5t-3 5.5v1q-6 11 -38 11q1 -2 1 -3t1 -3q3 -11 0.5 -15t-11.5 -6q-15 -1 -34.5 -4t-40 -7t-38.5 -8t-30 -8q-18 -6 -25 -3q4 -5 8 -9zM-3 662q1 3 12 -2q23 -10 47 -10 q18 0 30 4q20 34 29.5 58.5t3.5 29.5q-5 5 -12 2t-15.5 -10.5t-18 -19t-18.5 -24.5q-11 -11 -25 -14t-28 0q-3 -9 -5 -14zM428 381q3 -1 8 -8q6 -6 21.5 -10t34.5 -4h11q21 17 28 32t2 23q-3 6 -9 6q-9 0 -20.5 -8.5t-22.5 -16.5q-9 -10 -22.5 -11.5t-26.5 3.5zM502 199h13 l-3 1h3q-1 10 -6 16q-8 9 -16.5 10t-22.5 -1q-17 -4 -35 9q22 -35 67 -35zM105 80l0.5 -1.5t0.5 -5.5q0 3 -2 7h1zM373 76v0q1 0 1 1l-1 1q0 1 -1 2q0 -5 1 -4zM428 381q-2 2 -2 0t2 0z"/>
<glyph horiz-adv-x="479" unicode="à" glyph-name="agrave" d="M312 7l-1 -1q13 -7 30.5 -8t39.5 -1q25 0 33 2.5t8 8.5v5q-3 72 -6.5 150.5t-5.5 156.5t-3.5 150.5t-1.5 132.5q0 20 0.5 38.5t0.5 35.5v7q0 11 -7.5 20t-30.5 19q-4 2 -7 3t-7 3q-1 0 -1.5 0.5t-1.5 0.5v-13q-1 -57 -0.5 -136.5t3 -168.5t6 -181.5t7.5 -176.5 q1 -18 -4 -25t-22 -7t-32 1.5t-31 9.5q-1 0 -1.5 0.5t-1.5 0.5q4 -9 12.5 -15t24.5 -12zM235 226q-48 -10 -96.5 -20t-85.5 -24q-14 -38 -24.5 -71.5t-20.5 -65.5q-6 -17 -13.5 -20t-22.5 5q-8 5 -17 10t-19 13l13 -13l1 -1l5 -5l-5 5q1 -1 7 -5t13 -9l14 -10t11 -7l9 -6 q4 -3 26 -3q29 0 32 10q10 32 20.5 66t24.5 72l-9 9q33 12 68 20.5t71 16.5q-1 8 -1.5 16t-0.5 17zM112 356q33 7 70 12q11 30 21 58.5t20 55.5q-1 44 -1.5 86t-0.5 84q-23 -60 -51.5 -135.5t-57.5 -160.5zM121 988q14 -12 35.5 -27.5t48.5 -32t57 -33.5t62 -31l-2 -1 q4 -2 24 -2q30 0 50 15l-20 -23l5.5 5.5t10 9.5t11 10.5t8.5 7.5q-4 2 -7 5q-11 6 -23 13t-24 15q-2 -8 -6.5 -12t-3.5 -3q-35 -26 -57 -14q-45 20 -90 48.5t-80 54.5q-4 -10 -4 -18zM411 886q3 -2 3 2l-1 -0.5t-2 -1.5z"/>
<glyph horiz-adv-x="479" unicode="á" glyph-name="aacute" d="M312 7l-1 -1q13 -7 30.5 -8t39.5 -1q25 0 33 2.5t8 8.5v5q-3 72 -6.5 150.5t-5.5 156.5t-3.5 150.5t-1.5 132.5q0 20 0.5 38.5t0.5 35.5v7q0 11 -7.5 20t-30.5 19q-4 2 -7 3t-7 3q-1 0 -1.5 0.5t-1.5 0.5v-13q-1 -57 -0.5 -136.5t3 -168.5t6 -181.5t7.5 -176.5 q1 -18 -4 -25t-22 -7t-32 1.5t-31 9.5q-1 0 -1.5 0.5t-1.5 0.5q4 -9 12.5 -15t24.5 -12zM235 226q-48 -10 -96.5 -20t-85.5 -24q-14 -38 -24.5 -71.5t-20.5 -65.5q-6 -17 -13.5 -20t-22.5 5q-8 5 -17 10t-19 13l13 -13l1 -1l5 -5l-5 5q1 -1 7 -5t13 -9l14 -10t11 -7l9 -6 q4 -3 26 -3q29 0 32 10q10 32 20.5 66t24.5 72l-9 9q33 12 68 20.5t71 16.5q-1 8 -1.5 16t-0.5 17zM374 1012q-16 -14 -39 -31t-49.5 -34t-55 -33.5t-55.5 -28.5q-16 -9 -35 0l-6 -4q3 -2 8.5 -7.5t11 -10.5t10 -9.5l5.5 -5.5l-20 23q19 -15 50 -15q20 0 24 2l-2 1 q31 14 61.5 31t57.5 33.5t48.5 32t35.5 27.5l5 -13q-2 14 -7.5 24t-22.5 20v1q-11 7 -27 10q1 -3 1 -7q0 -3 1 -6zM112 356q33 7 70 12q11 30 21 58.5t20 55.5q-1 44 -1.5 86t-0.5 84q-23 -60 -51.5 -135.5t-57.5 -160.5zM134 881q-2 2 -3 2v0q0 -4 3 -2z"/>
<glyph horiz-adv-x="479" unicode="â" glyph-name="acircumflex" d="M312 7l-1 -1q13 -7 30.5 -8t39.5 -1q25 0 33 2.5t8 8.5v5q-3 72 -6.5 150.5t-5.5 156.5t-3.5 150.5t-1.5 132.5q0 20 0.5 38.5t0.5 35.5v7q0 11 -7.5 20t-30.5 19q-4 2 -7 3t-7 3q-1 0 -1.5 0.5t-1.5 0.5v-13q-1 -57 -0.5 -136.5t3 -168.5t6 -181.5t7.5 -176.5 q1 -18 -4 -25t-22 -7t-32 1.5t-31 9.5q-1 0 -1.5 0.5t-1.5 0.5q4 -9 12.5 -15t24.5 -12zM235 226q-48 -10 -96.5 -20t-85.5 -24q-14 -38 -24.5 -71.5t-20.5 -65.5q-6 -17 -13.5 -20t-22.5 5q-8 5 -17 10t-19 13l13 -13q1 -1 9.5 -7t20 -14t16.5 -11l9 -6q4 -3 26 -3 q29 0 32 10q10 32 20.5 66t24.5 72l-9 9q33 12 68 20.5t71 16.5q-1 8 -1.5 16t-0.5 17zM112 356q33 7 70 12q11 30 21 58.5t20 55.5q-1 44 -1.5 86t-0.5 84q-23 -60 -51.5 -135.5t-57.5 -160.5zM344 874q-8 0 -16.5 1t-18.5 5h-1q1 -2 1.5 -5t1.5 -5q4 -7 34 -16h-1 q14 -5 40 -5h3q19 0 24 -3v2l1 2q-4 19 -9.5 43t-10.5 51t-10 54.5t-8 53.5v1q-1 6 -3 10.5t-7 11.5q-1 1 -9 7.5t-17 14.5l1 1q-3 3 -6.5 6t-6.5 6q-1 0 -3 0.5t-7 1.5q1 -8 3 -18q3 -25 8 -52.5t10 -54.5t10.5 -51t9.5 -43q4 -20 -13 -19zM190 881q1 -2 4 -2.5t20 -0.5h18 t5 1l-1 1q2 2 2.5 4t2.5 4q8 13 16.5 27t18.5 29q-4 18 -8 39.5t-9 44.5q-22 -31 -40.5 -60.5t-34.5 -55.5q-5 -9 -10 -9h-1q3 -5 7.5 -10t9.5 -12zM411 846q2 -6 2 -2z"/>
<glyph horiz-adv-x="479" unicode="ã" glyph-name="atilde" d="M312 7l-1 -1q13 -7 30.5 -8t39.5 -1q25 0 33 2.5t8 8.5v5q-3 72 -6.5 150.5t-5.5 156.5t-3.5 150.5t-1.5 132.5q0 20 0.5 38.5t0.5 35.5v7q0 11 -7.5 20t-30.5 19q-4 2 -7 3t-7 3q-1 0 -1.5 0.5t-1.5 0.5v-13q-1 -57 -0.5 -136.5t3 -168.5t6 -181.5t7.5 -176.5 q1 -18 -4 -25t-22 -7t-32 1.5t-31 9.5q-1 0 -1.5 0.5t-1.5 0.5q4 -9 12.5 -15t24.5 -12zM235 226q-48 -10 -96.5 -20t-85.5 -24q-14 -38 -24.5 -71.5t-20.5 -65.5q-6 -17 -13.5 -20t-22.5 5q-8 5 -17 10t-19 13l13 -13q1 -1 9.5 -7t20 -14t16.5 -11l9 -6q4 -3 26 -3 q29 0 32 10q10 32 20.5 66t24.5 72l-9 9q33 12 68 20.5t71 16.5q-1 8 -1.5 16t-0.5 17zM296 892q-45 0 -65 20q-5 5 -14 9.5t-19 8t-20 5.5t-17 2q-6 0 -13 -5t-13 -11.5t-11 -11.5t-6 -5q-11 -10 -30 -10h-3q-3 -9 -3 -12q0 -13 46 -13q32 0 40 6l-10 4l8.5 0.5t10.5 2.5 q8 9 17 19.5t7 10.5q4 0 12 -2.5t16.5 -6.5t16.5 -9t14 -11q16 -16 76 -16q45 0 78 33h-1q23 20 33 33t11 20q-1 -3 -6 2q-22 14 -46 14h-10q-10 -19 -32 -40q-37 -37 -67 -37zM112 356q33 7 70 12q11 30 21 58.5t20 55.5q-1 44 -1.5 86t-0.5 84q-23 -60 -51.5 -135.5 t-57.5 -160.5z"/>
<glyph horiz-adv-x="479" unicode="ä" glyph-name="adieresis" d="M312 7l-1 -1q13 -7 30.5 -8t39.5 -1q25 0 33 2.5t8 8.5v5q-3 72 -6.5 150.5t-5.5 156.5t-3.5 150.5t-1.5 132.5q0 20 0.5 38.5t0.5 35.5v7q0 11 -7.5 20t-30.5 19q-4 2 -7 3t-7 3q-1 0 -1.5 0.5t-1.5 0.5v-13q-1 -57 -0.5 -136.5t3 -168.5t6 -181.5t7.5 -176.5 q1 -18 -4 -25t-22 -7t-32 1.5t-31 9.5q-1 0 -1.5 0.5t-1.5 0.5q4 -9 12.5 -15t24.5 -12zM235 226q-48 -10 -96.5 -20t-85.5 -24q-14 -38 -24.5 -71.5t-20.5 -65.5q-6 -17 -13.5 -20t-22.5 5q-8 5 -17 10t-19 13l13 -13q1 -1 9.5 -7t20 -14t16.5 -11l9 -6q4 -3 26 -3 q29 0 32 10q10 32 20.5 66t24.5 72l-9 9q33 12 68 20.5t71 16.5q-1 8 -1.5 16t-0.5 17zM112 356q33 7 70 12q11 30 21 58.5t20 55.5q-1 44 -1.5 86t-0.5 84q-23 -60 -51.5 -135.5t-57.5 -160.5zM364 851h3q33 0 48.5 14.5t17.5 25.5v1q1 5 1.5 9t0.5 9q0 10 -11.5 22.5 t-35.5 23.5q-2 1 -4 1t-5 1q1 -3 1 -8q0 -7 -0.5 -12t-1.5 -10q-2 -7 -5.5 -16t-10 -17t-15.5 -13.5t-20 -5.5q-13 -1 -24 5q8 -14 24.5 -22t36.5 -8zM189 852h3q32 0 48 14.5t18 24.5l-1 3q4 11 4 16q0 11 -11.5 23.5t-36.5 23.5l1 1q-2 0 -4 0.5t-5 0.5q1 -3 1 -9 q0 -12 -3 -21q-1 -7 -5 -16t-10.5 -17t-15.5 -13.5t-20 -5.5q-12 -1 -23 5q8 -14 24 -22t36 -8z"/>
<glyph horiz-adv-x="479" unicode="å" glyph-name="aring" d="M312 7l-1 -1q13 -7 30.5 -8t39.5 -1q25 0 33 2.5t8 8.5v5q-3 72 -6.5 150.5t-5.5 156.5t-3.5 150.5t-1.5 132.5q0 20 0.5 38.5t0.5 35.5v7q0 11 -7.5 20t-30.5 19q-4 2 -7 3t-7 3q-1 0 -1.5 0.5t-1.5 0.5v-13q-1 -57 -0.5 -136.5t3 -168.5t6 -181.5t7.5 -176.5 q1 -18 -4 -25t-22 -7t-32 1.5t-31 9.5q-1 0 -1.5 0.5t-1.5 0.5q4 -9 12.5 -15t24.5 -12zM235 226q-48 -10 -96.5 -20t-85.5 -24q-14 -38 -24.5 -71.5t-20.5 -65.5q-6 -17 -13.5 -20t-22.5 5q-8 5 -17 10t-19 13l13 -13q1 -1 9.5 -7t20 -14t16.5 -11l9 -6q4 -3 26 -3 q29 0 32 10q10 32 20.5 66t24.5 72l-9 9q33 12 68 20.5t71 16.5q-1 8 -1.5 16t-0.5 17zM385 1023q-7 3 -16 6q3 -20 1.5 -42.5t-9 -44.5t-20 -42.5t-31.5 -35.5q-4 -2 -7 -4t-7 -4q-7 -16 -14 -21q-4 4 -7 15q-14 -3 -32 0q-14 1 -28.5 3.5t-26.5 8.5q-6 1 -11 5l2.5 -5 t3.5 -5v-1q1 -2 13 -8t26 -12l-1 -1q9 -5 25.5 -6.5t34.5 -3.5q5 -1 9 -1h10q23 0 37.5 4t26.5 12q32 26 47 60t15 63q0 6 -1 14t-4 18q-2 5 -8.5 11t-26.5 17h-1zM112 356q33 7 70 12q11 30 21 58.5t20 55.5q-1 44 -1.5 86t-0.5 84q-23 -60 -51.5 -135.5t-57.5 -160.5z M257 1032q-10 -11 -18 -26t-13 -29q-5 -13 -7.5 -28t-2 -27.5t4.5 -21.5t12 -11q10 -4 20.5 4.5t20.5 25.5q2 6 3 12t3 11q4 11 8.5 21.5t9.5 21.5q2 15 2.5 29.5t-3.5 24.5q-11 -1 -21.5 -2.5t-18.5 -4.5zM288 832h-2h2z"/>
<glyph horiz-adv-x="704" unicode="æ" glyph-name="ae" d="M505 522q5 22 8.5 42t8.5 40l-12 12q35 7 67.5 12t63.5 10q5 1 11 1.5t11 1.5q21 3 29 5t8 4v4q-2 2 -2.5 4.5t-0.5 10.5q-2 11 -5 23t-13 34v2q-8 22 -46 23q4 -12 6 -23t5 -23q3 -21 -1.5 -28.5t-21.5 -10.5q-35 -5 -73.5 -11t-80.5 -14q-8 -37 -16 -78t-18 -86 q16 3 31.5 4.5t32.5 2.5q2 10 4 19.5t4 18.5zM-56 46l3.5 -3.5t4.5 -6.5q3 -2 12 -8.5t24 -15.5l-1 -1q3 -2 6.5 -4t5.5 -4q4 -3 26 -3q30 0 35 12q14 32 29 66t35 72l-8 7q35 13 69 20t69 14q1 8 1.5 16.5t2.5 18.5q-48 -10 -98.5 -19.5t-88.5 -23.5q-20 -38 -35.5 -71.5 t-29.5 -65.5q-8 -17 -16 -20t-23 5q-5 4 -11 8t-13 9q0 -1 0.5 -1.5zM455 271l-11 11q26 8 53.5 15t55.5 14q11 3 22.5 5.5t22.5 5.5q34 11 34 7q0 3 -3 15v1q-3 14 -7 29t-15 38v1q-7 16 -43 17q3 -11 5.5 -21t4.5 -21q5 -21 1 -28t-21 -12q-38 -10 -77.5 -19.5 t-76.5 -20.5q-9 -51 -18 -96q0 -4 -0.5 -7t-0.5 -7q31 8 63 13q3 14 5.5 29t5.5 31zM309 8l-4 -2q3 -2 20.5 -3t39.5 -1q19 0 34 0.5t20 2.5q22 6 46 13l48 14q20 6 39 11.5t38 10.5q18 5 24.5 7t7.5 1v7q-5 12 -6 22q-4 11 -7.5 24t-11.5 30q-8 18 -44 19q4 -11 6.5 -22 t6.5 -22q4 -20 0.5 -27.5t-20.5 -12.5q-42 -12 -86 -25t-84 -24q-7 -2 -22 -3t-31 -1t-30 1.5t-18 5.5q-6 2 -9 4q3 -10 14.5 -17t28.5 -13zM156 357q20 4 38.5 7t37.5 6q14 27 27.5 53t26.5 52q6 46 12 90.5t13 87.5q-33 -60 -73 -135.5t-82 -160.5zM700 654q0 -2 1 -3z M622 62q0 -1 0.5 -1.5t0.5 1.5h-1z"/>
<glyph horiz-adv-x="428" unicode="ç" glyph-name="ccedilla" d="M57 -163q-16 -26 -39 -28q-9 -2 -17.5 -1.5t-17.5 2.5l-2 -4l-4 -11l4.5 -1.5t15.5 -4.5q12 -2 24.5 -4t23.5 -2h9q5 0 8 1h-1q36 3 49 21q9 15 19.5 35.5t20.5 43t18 44.5t13 39q0 1 0.5 2t0.5 3l-15 15q35 0 64.5 10t43.5 24q21 23 40 52t28 57q5 14 7.5 23.5t2.5 14.5 t-8.5 10.5t-28.5 13.5q-5 2 -9.5 3t-9.5 2q-2 -7 -3.5 -15t-4.5 -16q-11 -35 -29 -65t-36 -50q-17 -17 -43 -28t-54 -11q0 -2 -0.5 -4.5t-0.5 -4.5q-5 -20 -13 -43.5t-18 -46.5t-20 -43t-18 -33zM120 216q0 38 4.5 80.5t12.5 84.5q7 32 16.5 68t20 69.5t21.5 62.5t20 47 q-1 17 -4.5 29.5t-11.5 17.5q-12 5 -28 -19t-33 -63t-32 -86t-24 -89q-9 -45 -13.5 -91t-3.5 -84.5t7.5 -64.5t20.5 -32q12 -6 29 6q-2 14 -2 30v34zM336 440h-1q3 -1 7 -1.5t12 -0.5q24 0 28.5 4.5t6.5 12.5q0 1 0.5 -2t0.5 -2v3q5 23 7 53t2 59v20t-1 19q-2 26 -8.5 46 t-26.5 40q-8 7 -17 13.5t-20 12.5q8 -16 11.5 -33.5t5.5 -37.5q2 -37 0 -81t-8 -74q-4 -14 -9 -22.5t-26 -2.5q-13 3 -23 8t-18 11q11 -15 29 -26t48 -19zM21 39l1 2q0 1 1 3q-8 4 -11 6q-5 1 -8 5l8 -8t9 -8z"/>
<glyph horiz-adv-x="385" unicode="è" glyph-name="egrave" d="M186 522q5 22 8.5 42t8.5 40l-12 12q35 7 67.5 12t63.5 10q5 1 11 1.5t11 1.5q21 3 29 5t8 4v4q-2 2 -2.5 4.5t-0.5 10.5q-2 11 -5 23t-13 34v2q-8 22 -46 23q4 -12 6 -23t5 -23q3 -21 -1.5 -28.5t-21.5 -10.5q-35 -5 -73.5 -11t-80.5 -14q-8 -37 -16 -78t-18 -86 q16 3 31.5 4.5t32.5 2.5q2 10 4 19.5t4 18.5zM130 238l6 33l-11 11q26 8 53.5 15t55.5 14q11 3 22.5 5.5t22.5 5.5q34 11 34 7q0 3 -3 15v1q-3 14 -7 29t-15 38v1q-7 16 -43 17q3 -11 5.5 -21t4.5 -21q5 -21 1 -28t-21 -12q-38 -10 -77.5 -19.5t-76.5 -20.5 q-5 -29 -10 -56.5t-10 -53.5q31 9 64 13q1 7 2 13.5t3 13.5zM22 13q5 -5 14.5 -9t32.5 -4q11 0 18.5 1.5t14.5 3.5h-1q22 6 45.5 13t47.5 14q20 6 39 11.5t38 10.5q18 5 24.5 7t7.5 1v7q-5 12 -6 22q-4 11 -7.5 24t-11.5 30q-8 18 -44 19q4 -11 6.5 -22t6.5 -22 q4 -20 0.5 -27.5t-20.5 -12.5q-42 -12 -86 -25t-84 -24q-22 -8 -35 -6t-21 9zM77 983q14 -12 35.5 -27.5t48.5 -32t57 -33.5t62 -31l-2 -1q4 -2 24 -2q30 0 50 15l-20 -23l5.5 5.5t10 9.5t11 10.5t8.5 7.5q-4 2 -7 5q-11 6 -23 13t-24 15q-2 -8 -6.5 -12t-3.5 -3 q-35 -26 -57 -14q-45 20 -90 48.5t-80 54.5q-4 -10 -4 -18zM367 881q3 -2 3 2l-1 -0.5t-2 -1.5zM381 654q0 -2 1 -3zM303 62q0 -1 0.5 -1.5t0.5 1.5h-1z"/>
<glyph horiz-adv-x="385" unicode="é" glyph-name="eacute" d="M186 522q5 22 8.5 42t8.5 40l-12 12q35 7 67.5 12t63.5 10q5 1 11 1.5t11 1.5q21 3 29 5t8 4v4q-2 2 -2.5 4.5t-0.5 10.5q-2 11 -5 23t-13 34v2q-8 22 -46 23q4 -12 6 -23t5 -23q3 -21 -1.5 -28.5t-21.5 -10.5q-35 -5 -73.5 -11t-80.5 -14q-8 -37 -16 -78t-18 -86 q16 3 31.5 4.5t32.5 2.5q2 10 4 19.5t4 18.5zM130 238l6 33l-11 11q26 8 53.5 15t55.5 14q11 3 22.5 5.5t22.5 5.5q33 10 34 7q0 3 -3 15v1q-3 14 -7 29t-15 38v1q-7 16 -43 17q3 -11 5.5 -21t4.5 -21q5 -21 1 -28t-21 -12q-38 -10 -77.5 -19.5t-76.5 -20.5 q-5 -29 -10 -56.5t-10 -53.5q31 9 64 13q1 7 2 13.5t3 13.5zM315 1012q-16 -14 -39 -31t-49.5 -34t-55 -33.5t-55.5 -28.5q-16 -9 -35 0l-6 -4q3 -2 8.5 -7.5t11 -10.5t10 -9.5l5.5 -5.5l-20 23q19 -15 50 -15q20 0 24 2l-2 1q31 14 61.5 31t57.5 33.5t48.5 32t35.5 27.5 l5 -13q-2 14 -7.5 24t-22.5 20v1q-11 7 -27 10q1 -3 1 -7q0 -3 1 -6zM22 13q5 -5 14.5 -9t32.5 -4q11 0 18.5 1.5t14.5 3.5h-1q22 6 45.5 13t47.5 14q20 6 39 11.5t38 10.5q18 5 24.5 7t7.5 1v7q-5 12 -6 22q-4 11 -7.5 24t-11.5 30q-8 18 -44 19q4 -11 6.5 -22t6.5 -22 q4 -20 0.5 -27.5t-20.5 -12.5q-42 -12 -86 -25t-84 -24q-22 -8 -35 -6t-21 9zM75 881q-2 2 -3 2v0q0 -4 3 -2zM381 654q0 -2 1 -3zM303 62q0 -1 0.5 -1.5t0.5 1.5h-1z"/>
<glyph horiz-adv-x="385" unicode="ê" glyph-name="ecircumflex" d="M186 522q5 22 8.5 42t8.5 40l-12 12q35 7 67.5 12t63.5 10q5 1 11 1.5t11 1.5q21 3 29 5t8 4v4q-2 2 -2.5 4.5t-0.5 10.5q-2 11 -5 23t-13 34v2q-8 22 -46 23q4 -12 6 -23t5 -23q3 -21 -1.5 -28.5t-21.5 -10.5q-35 -5 -73.5 -11t-80.5 -14q-8 -37 -16 -78t-18 -86 q16 3 31.5 4.5t32.5 2.5q2 10 4 19.5t4 18.5zM130 238l6 33l-11 11q26 8 53.5 15t55.5 14q11 3 22.5 5.5t22.5 5.5q33 10 34 7q0 3 -3 15v1q-3 14 -7 29t-15 38v1q-7 16 -43 17q3 -11 5.5 -21t4.5 -21q5 -21 1 -28t-21 -12q-38 -10 -77.5 -19.5t-76.5 -20.5 q-5 -29 -10 -56.5t-10 -53.5q31 9 64 13q1 7 2 13.5t3 13.5zM22 13q5 -5 14.5 -9t32.5 -4q11 0 18.5 1.5t14.5 3.5h-1q22 6 45.5 13t47.5 14q20 6 39 11.5t38 10.5q18 5 24.5 7t7.5 1v7q-5 12 -6 22q-4 11 -7.5 24t-11.5 30q-8 18 -44 19q4 -11 6.5 -22t6.5 -22 q4 -20 0.5 -27.5t-20.5 -12.5q-42 -12 -86 -25t-84 -24q-22 -8 -35 -6t-21 9zM289 871q-8 0 -16.5 1t-18.5 5h-1q1 -2 1.5 -5t1.5 -5q4 -7 34 -16h-1q14 -5 40 -5h3q19 0 24 -3v2l1 2q-4 19 -9.5 43t-10.5 51t-10 54.5t-8 53.5v1q-1 6 -3 10.5t-7 11.5q-1 1 -9 7.5t-17 14.5 l1 1q-3 3 -6.5 6t-6.5 6q-1 0 -3 0.5t-7 1.5q1 -8 3 -18q3 -25 8 -52.5t10 -54.5t10.5 -51t9.5 -43q4 -20 -13 -19zM135 878q1 -2 4 -2.5t20 -0.5h18t5 1l-1 1q2 2 2.5 4t2.5 4q8 13 16.5 27t18.5 29q-4 18 -8 39.5t-9 44.5q-22 -31 -40.5 -60.5t-34.5 -55.5q-5 -9 -10 -9 h-1q3 -5 7.5 -10t9.5 -12zM356 843q2 -6 2 -2zM381 654q0 -2 1 -3zM303 62q0 -1 0.5 -1.5t0.5 1.5h-1z"/>
<glyph horiz-adv-x="385" unicode="ë" glyph-name="edieresis" d="M186 522q5 22 8.5 42t8.5 40l-12 12q35 7 67.5 12t63.5 10q5 1 11 1.5t11 1.5q21 3 29 5t8 4v4q-2 2 -2.5 4.5t-0.5 10.5q-2 11 -5 23t-13 34v2q-8 22 -46 23q4 -12 6 -23t5 -23q3 -21 -1.5 -28.5t-21.5 -10.5q-35 -5 -73.5 -11t-80.5 -14q-8 -37 -16 -78t-18 -86 q16 3 31.5 4.5t32.5 2.5q2 10 4 19.5t4 18.5zM130 238l6 33l-11 11q26 8 53.5 15t55.5 14q11 3 22.5 5.5t22.5 5.5q33 10 34 7q0 3 -3 15v1q-3 14 -7 29t-15 38v1q-7 16 -43 17q3 -11 5.5 -21t4.5 -21q5 -21 1 -28t-21 -12q-38 -10 -77.5 -19.5t-76.5 -20.5 q-5 -29 -10 -56.5t-10 -53.5q31 9 64 13q1 7 2 13.5t3 13.5zM22 13q5 -5 14.5 -9t32.5 -4q11 0 18.5 1.5t14.5 3.5h-1q22 6 45.5 13t47.5 14q20 6 39 11.5t38 10.5q18 5 24.5 7t7.5 1v7q-5 12 -6 22q-4 11 -7.5 24t-11.5 30q-8 18 -44 19q4 -11 6.5 -22t6.5 -22 q4 -20 0.5 -27.5t-20.5 -12.5q-42 -12 -86 -25t-84 -24q-22 -8 -35 -6t-21 9zM292 846h3q33 0 48.5 14.5t17.5 25.5v1q1 5 1.5 9t0.5 9q0 10 -11.5 22.5t-35.5 23.5q-2 1 -4 1t-5 1q1 -3 1 -8q0 -7 -0.5 -12t-1.5 -10q-2 -7 -5.5 -16t-10 -17t-15.5 -13.5t-20 -5.5 q-13 -1 -24 5q8 -14 24.5 -22t36.5 -8zM117 847h3q32 0 48 14.5t18 24.5l-1 3q4 11 4 16q0 11 -11.5 23.5t-36.5 23.5l1 1q-2 0 -4 0.5t-5 0.5q1 -3 1 -9q0 -12 -3 -21q-1 -7 -5 -16t-10.5 -17t-15.5 -13.5t-20 -5.5q-12 -1 -23 5q8 -14 24 -22t36 -8zM381 654q0 -2 1 -3z M303 62q0 -1 0.5 -1.5t0.5 1.5h-1z"/>
<glyph horiz-adv-x="208" unicode="ì" glyph-name="igrave" d="M170 696q-12 10 -28 19q1 -8 -2 -26q-8 -37 -17 -87t-18.5 -106.5t-19 -117.5t-18.5 -120t-16.5 -113.5t-13.5 -98.5q-3 -17 -9 -22t-23 1q-16 6 -30 12t-27 15q5 -9 25 -23q8 -6 26.5 -14t40.5 -16q8 -2 20 -2q17 0 24 2.5t8 8.5q9 66 21.5 154t27 179t28.5 173.5 t26 138.5l2 16q0 2 -5.5 7.5t-21.5 18.5v1zM-39 1004q14 -12 35.5 -27.5t48.5 -32t57 -33.5t62 -31l-2 -1q4 -2 24 -2q30 0 50 15l-20 -23l5.5 5.5t10 9.5t11 10.5t8.5 7.5q-4 2 -7 5q-11 6 -23 13t-24 15q-2 -8 -6.5 -12t-3.5 -3q-35 -26 -57 -14q-45 20 -90 48.5t-79 54.5 q-2 -4 -3 -8.5t-2 -9.5zM251 902q3 -2 3 2l-1 -0.5t-2 -1.5z"/>
<glyph horiz-adv-x="208" unicode="í" glyph-name="iacute" d="M170 696q-12 10 -28 19q1 -8 -2 -26q-8 -37 -17 -87t-18.5 -106.5t-19 -117.5t-18.5 -120t-16.5 -113.5t-13.5 -98.5q-3 -17 -9 -22t-23 1q-16 6 -30 12t-27 15q5 -9 25 -23q8 -6 26.5 -14t40.5 -16q8 -2 20 -2q17 0 24 2.5t8 8.5q9 66 21.5 154t27 179t28.5 173.5 t26 138.5l2 16q0 2 -5.5 7.5t-21.5 18.5v1zM242 1014q-16 -14 -39 -31t-49.5 -34t-55 -33.5t-55.5 -28.5q-16 -9 -35 0l-6 -4q3 -2 8.5 -7.5t11 -10.5t10 -9.5l5.5 -5.5l-20 23q19 -15 50 -15q20 0 24 2l-2 1q31 14 61.5 31t57.5 33.5t48.5 32t35.5 27.5l5 -13 q-2 14 -7.5 24t-22.5 20v1q-11 7 -27 10q1 -3 1 -7q0 -3 1 -6zM2 883l-2 2h-1q0 -4 3 -2z"/>
<glyph horiz-adv-x="208" unicode="î" glyph-name="icircumflex" d="M170 696q-12 10 -28 19q1 -8 -2 -26q-8 -37 -17 -87t-18.5 -106.5t-19 -117.5t-18.5 -120t-16.5 -113.5t-13.5 -98.5q-3 -17 -9 -22t-23 1q-16 6 -30 12t-27 15q5 -9 25 -23q8 -6 26.5 -14t40.5 -16q8 -2 20 -2q17 0 24 2.5t8 8.5q9 66 21.5 154t27 179t28.5 173.5 t26 138.5l2 16q0 2 -5.5 7.5t-21.5 18.5v1zM192 866q-8 0 -16.5 1t-18.5 5h-1q1 -2 1.5 -5t1.5 -5q4 -7 34 -16h-1q14 -5 40 -5h3q19 0 24 -3v2l1 2q-4 19 -9.5 43t-10.5 51t-10 54.5t-8 53.5v1q-1 6 -3 10.5t-7 11.5q-1 1 -9 7.5t-17 14.5l1 1q-3 3 -6.5 6t-6.5 6 q-1 0 -3 0.5t-7 1.5q1 -8 3 -18q3 -25 8 -52.5t10 -54.5t10.5 -51t9.5 -43q4 -20 -13 -19zM38 873q1 -2 4 -2.5t20 -0.5h18t5 1l-1 1q2 2 2.5 4t2.5 4q8 13 16.5 27t18.5 29q-4 18 -8 39.5t-9 44.5q-22 -31 -40.5 -60.5t-34.5 -55.5q-5 -9 -10 -9h-1q3 -5 7.5 -10t9.5 -12z M259 838q2 -6 2 -2z"/>
<glyph horiz-adv-x="208" unicode="ï" glyph-name="idieresis" d="M170 696q-12 10 -28 19q1 -8 -2 -26q-8 -37 -17 -87t-18.5 -106.5t-19 -117.5t-18.5 -120t-16.5 -113.5t-13.5 -98.5q-3 -17 -9 -22t-23 1q-16 6 -30 12t-27 15q5 -9 25 -23q8 -6 26.5 -14t40.5 -16q8 -2 20 -2q17 0 24 2.5t8 8.5q9 66 21.5 154t27 179t28.5 173.5 t26 138.5l2 16q0 2 -5.5 7.5t-21.5 18.5v1zM207 846h3q33 0 48.5 14.5t17.5 25.5v1q1 5 1.5 9t0.5 9q0 10 -11.5 22.5t-35.5 23.5q-2 1 -4 1t-5 1q1 -3 1 -8q0 -7 -0.5 -12t-1.5 -10q-2 -7 -5.5 -16t-10 -17t-15.5 -13.5t-20 -5.5q-13 -1 -24 5q8 -14 24.5 -22t36.5 -8z M32 847h3q32 0 48 14.5t18 24.5l-1 3q4 11 4 16q0 11 -11.5 23.5t-36.5 23.5l1 1q-2 0 -4 0.5t-5 0.5q1 -3 1 -9q0 -12 -3 -21q-1 -7 -5 -16t-10.5 -17t-15.5 -13.5t-20 -5.5q-12 -1 -23 5q17 -30 60 -30z"/>
<glyph horiz-adv-x="408" unicode="ð" glyph-name="eth" d="M96 16h5q76 7 119 39t71 93q13 28 25.5 65t22.5 80.5t16 92t6 99.5q0 33 -3 69l-13 16q6 1 12 1t12 1l24 3h-1q35 3 35 1l-1 3.5t-4 11.5q1 -2 -2 3.5l-3 5.5q0 2 -0.5 3l-1.5 3t-2.5 5.5t-5.5 11.5q-12 23 -44 28q0 -2 1 -4t4 -10q7 -22 3 -29t-20 -8q-12 -2 -24 -2.5 t-24 -2.5q5 -65 1 -125t-14 -113.5t-24 -97.5t-29 -77q-30 -66 -70.5 -100.5t-106.5 -40.5q-43 -1 -69 7.5t-43 23.5q13 -24 45 -40t103 -16zM88 191v20t2 21q5 49 14.5 84t20.5 43q-14 29 -36 27q-21 -2 -35 -35t-19 -81q-7 -57 4 -89t35 -27q9 2 14 7v30zM327 710 q-2 6 -4.5 10.5t-7.5 7.5t-14 5.5t-24 5.5q2 -8 4 -16.5t4 -16.5q6 1 11 1h12q10 0 22 -7q-2 6 -3 10zM116 556q12 -21 37 -24q0 8 -0.5 16.5t-1.5 16.5q-10 -4 -14 -5q-13 -6 -24 1q1 -2 1.5 -2.5t1.5 -2.5zM417 600q2 -5 2.5 -4t-0.5 7z"/>
<glyph horiz-adv-x="468" unicode="ñ" glyph-name="ntilde" d="M238 30q21 -11 67 -25h-1q8 -2 20 -2q37 0 39 16q9 69 20.5 154.5t23.5 172.5t24.5 168.5t23.5 142.5q1 6 1.5 11t0.5 9t-5.5 10.5t-21.5 19.5h1q-8 6 -14.5 10t-14.5 8q1 -11 -2 -30q-11 -61 -23.5 -142.5t-24.5 -168.5t-23.5 -172.5t-20.5 -154.5q-3 -38 -39 -26 q-16 5 -31.5 11.5t-31.5 14.5q-1 0 -2 0.5t-2 0.5q13 -14 36 -28zM-28 34l-2 -1q5 -5 22.5 -11.5t36.5 -14.5q2 -1 5 -2t5 -2h-1q4 -2 10.5 -2.5t12.5 -0.5q18 0 23.5 2.5t6.5 7.5q5 48 14.5 113t20.5 138q0 2 0.5 4.5t0.5 5.5q-9 44 -17.5 90.5t-16.5 93.5 q-8 -56 -16.5 -113.5t-16 -110.5t-14 -100t-10.5 -83q-2 -17 -8.5 -21.5t-23.5 2.5q-13 5 -26 9.5t-26 13.5l8.5 -8.5t11.5 -9.5zM296 892q-45 0 -65 20q-5 5 -14 9.5t-19 8t-20 5.5t-17 2q-6 0 -13 -5t-13 -11.5t-11 -11.5t-6 -5q-11 -10 -30 -10h-3q-3 -9 -3 -12 q0 -13 46 -13q32 0 40 6l-10 4l8.5 0.5t10.5 2.5q8 9 17 19.5t7 10.5q4 0 12 -2.5t16.5 -6.5t16.5 -9t14 -11q16 -16 76 -16q45 0 78 33h-1q23 20 33 33t11 20q-1 -3 -6 2q-22 14 -46 14h-10q-10 -19 -32 -40q-37 -37 -67 -37zM218 354q5 47 10.5 92t11.5 90 q-5 32 -8.5 59.5t-5.5 45.5q-3 21 -12 33.5t-33 26.5l1 1q-4 2 -7.5 4.5t-8.5 4.5q2 -6 2.5 -13t2.5 -15q3 -23 8 -60.5t11.5 -82t13.5 -93t14 -93.5z"/>
<glyph unicode="ò" glyph-name="ograve" d="M351 694q-5 5 -12.5 10.5t-15.5 10.5q11 -19 17.5 -40t11.5 -46q9 -62 8 -137.5t-13.5 -152t-36.5 -147t-61 -121.5q-26 -31 -55.5 -41.5t-67.5 -4.5q-25 4 -51.5 12t-48.5 25q15 -15 30 -27q18 -14 47.5 -22t60.5 -13q7 -1 14 -1.5t15 -0.5q37 0 65 13t52 41 q27 38 47 87.5t33 104t19 112.5t6 112q0 31 -2 61t-6 57q-5 29 -17 54.5t-39 53.5zM207 665q-12 5 -28 -15.5t-31.5 -55t-29.5 -78.5t-23 -85q-9 -42 -13.5 -89t-3.5 -87.5t8 -69.5t22 -36q12 -8 27 7q-2 16 -2 34v39q0 40 4.5 83t12.5 82q7 33 16.5 67.5t19.5 66t20.5 57 t19.5 40.5q-6 34 -19 40zM77 983q14 -12 35.5 -27.5t48.5 -32t57 -33.5t62 -31l-2 -1q4 -2 24 -2q30 0 50 15l-20 -23l5.5 5.5t10 9.5t11 10.5t8.5 7.5q-4 2 -7 5q-11 6 -23 13t-24 15q-2 -8 -6.5 -12t-3.5 -3q-35 -26 -57 -14q-45 20 -90 48.5t-80 54.5q-4 -10 -4 -18z M367 881q3 -2 3 2l-1 -0.5t-2 -1.5z"/>
<glyph unicode="ó" glyph-name="oacute" d="M351 694q-5 5 -12.5 10.5t-15.5 10.5q11 -19 17.5 -40t11.5 -46q9 -62 8 -137.5t-13.5 -152t-36.5 -147t-61 -121.5q-26 -31 -55.5 -41.5t-67.5 -4.5q-25 4 -51.5 12t-48.5 25q15 -15 30 -27q18 -14 47.5 -22t60.5 -13q7 -1 14 -1.5t15 -0.5q37 0 65 13t52 41 q27 38 47 87.5t33 104t19 112.5t6 112q0 31 -2 61t-6 57q-5 29 -17 54.5t-39 53.5zM207 665q-12 5 -28 -15.5t-31.5 -55t-29.5 -78.5t-23 -85q-9 -42 -13.5 -89t-3.5 -87.5t8 -69.5t22 -36q12 -8 27 7q-2 16 -2 34v39q0 40 4.5 83t12.5 82q7 33 16.5 67.5t19.5 66t20.5 57 t19.5 40.5q-6 34 -19 40zM315 1012q-16 -14 -39 -31t-49.5 -34t-55 -33.5t-55.5 -28.5q-16 -9 -35 0l-6 -4q3 -2 8.5 -7.5t11 -10.5t10 -9.5l5.5 -5.5l-20 23q19 -15 50 -15q20 0 24 2l-2 1q31 14 61.5 31t57.5 33.5t48.5 32t35.5 27.5l5 -13q-2 14 -7.5 24t-22.5 20v1 q-11 7 -27 10q1 -3 1 -7q0 -3 1 -6zM75 881q-2 2 -3 2v0q0 -4 3 -2z"/>
<glyph unicode="ô" glyph-name="ocircumflex" d="M351 694q-5 5 -12.5 10.5t-15.5 10.5q11 -19 17.5 -40t11.5 -46q9 -62 8 -137.5t-13.5 -152t-36.5 -147t-61 -121.5q-26 -31 -55.5 -41.5t-67.5 -4.5q-25 4 -51.5 12t-48.5 25q15 -15 30 -27q18 -14 47.5 -22t60.5 -13q7 -1 14 -1.5t15 -0.5q37 0 65 13t52 41 q27 38 47 87.5t33 104t19 112.5t6 112q0 31 -2 61t-6 57q-5 29 -17 54.5t-39 53.5zM207 665q-12 5 -28 -15.5t-31.5 -55t-29.5 -78.5t-23 -85q-9 -42 -13.5 -89t-3.5 -87.5t8 -69.5t22 -36q12 -8 27 7q-2 16 -2 34v39q0 40 4.5 83t12.5 82q7 33 16.5 67.5t19.5 66t20.5 57 t19.5 40.5q-6 34 -19 40zM323 854q-8 0 -16.5 1t-18.5 5h-1q1 -2 1.5 -5t1.5 -5q4 -7 34 -16h-1q14 -5 40 -5h3q19 0 24 -3v2l1 2q-4 19 -9.5 43t-10.5 51t-10 54.5t-8 53.5v1q-1 6 -3 10.5t-7 11.5q-1 1 -9 7.5t-17 14.5l1 1q-3 3 -6.5 6t-6.5 6q-1 0 -3 0.5t-7 1.5 q1 -8 3 -18q3 -25 8 -52.5t10 -54.5t10.5 -51t9.5 -43q4 -20 -13 -19zM169 861q1 -2 4 -2.5t20 -0.5h18t5 1l-1 1q2 2 2.5 4t2.5 4q8 13 16.5 27t18.5 29q-4 18 -8 39.5t-9 44.5q-22 -31 -40.5 -60.5t-34.5 -55.5q-5 -9 -10 -9h-1q3 -5 7.5 -10t9.5 -12zM390 826q2 -6 2 -2z "/>
<glyph unicode="õ" glyph-name="otilde" d="M351 694q-5 5 -12.5 10.5t-15.5 10.5q11 -19 17.5 -40t11.5 -46q9 -62 8 -137.5t-13.5 -152t-36.5 -147t-61 -121.5q-26 -31 -55.5 -41.5t-67.5 -4.5q-25 4 -51.5 12t-48.5 25q15 -15 30 -27q18 -14 47.5 -22t60.5 -13q7 -1 14 -1.5t15 -0.5q37 0 65 13t52 41 q27 38 47 87.5t33 104t19 112.5t6 112q0 31 -2 61t-6 57q-5 29 -17 54.5t-39 53.5zM207 665q-12 5 -28 -15.5t-31.5 -55t-29.5 -78.5t-23 -85q-9 -42 -13.5 -89t-3.5 -87.5t8 -69.5t22 -36q12 -8 27 7q-2 16 -2 34v39q0 40 4.5 83t12.5 82q7 33 16.5 67.5t19.5 66t20.5 57 t19.5 40.5q-6 34 -19 40zM296 892q-45 0 -65 20q-5 5 -14 9.5t-19 8t-20 5.5t-17 2q-6 0 -13 -5t-13 -11.5t-11 -11.5t-6 -5q-11 -10 -30 -10h-3q-3 -9 -3 -12q0 -13 46 -13q32 0 40 6l-10 4l8.5 0.5t10.5 2.5q8 9 17 19.5t7 10.5q4 0 12 -2.5t16.5 -6.5t16.5 -9t14 -11 q16 -16 76 -16q45 0 78 33h-1q23 20 33 33t11 20q-1 -3 -6 2q-22 14 -46 14h-10q-10 -19 -32 -40q-37 -37 -67 -37z"/>
<glyph unicode="ö" glyph-name="odieresis" d="M351 694q-5 5 -12.5 10.5t-15.5 10.5q11 -19 17.5 -40t11.5 -46q9 -62 8 -137.5t-13.5 -152t-36.5 -147t-61 -121.5q-26 -31 -55.5 -41.5t-67.5 -4.5q-25 4 -51.5 12t-48.5 25q15 -15 30 -27q18 -14 47.5 -22t60.5 -13q7 -1 14 -1.5t15 -0.5q37 0 65 13t52 41 q27 38 47 87.5t33 104t19 112.5t6 112q0 31 -2 61t-6 57q-5 29 -17 54.5t-39 53.5zM207 665q-12 5 -28 -15.5t-31.5 -55t-29.5 -78.5t-23 -85q-9 -42 -13.5 -89t-3.5 -87.5t8 -69.5t22 -36q12 -8 27 7q-2 16 -2 34v39q0 40 4.5 83t12.5 82q7 33 16.5 67.5t19.5 66t20.5 57 t19.5 40.5q-6 34 -19 40zM326 846h3q33 0 48.5 14.5t17.5 25.5v1q1 5 1.5 9t0.5 9q0 10 -11.5 22.5t-35.5 23.5q-2 1 -4 1t-5 1q1 -3 1 -8q0 -7 -0.5 -12t-1.5 -10q-2 -7 -5.5 -16t-10 -17t-15.5 -13.5t-20 -5.5q-13 -1 -24 5q8 -14 24.5 -22t36.5 -8zM151 847h3 q32 0 48 14.5t18 24.5l-1 3q4 11 4 16q0 11 -11.5 23.5t-36.5 23.5l1 1q-2 0 -4 0.5t-5 0.5q1 -3 1 -9q0 -12 -3 -21q-1 -7 -5 -16t-10.5 -17t-15.5 -13.5t-20 -5.5q-12 -1 -23 5q8 -14 24 -22t36 -8z"/>
<glyph horiz-adv-x="488" unicode="÷" glyph-name="divide" d="M366 360q-51 -1 -82 -2t-52 -3.5t-36 -6.5t-33.5 -9.5t-45 -13.5t-69.5 -19q-14 -4 -23 -1q2 -3 4.5 -6.5t4.5 -6.5q5 -8 13 -10.5t27 -2.5q5 0 9 0.5t8 1.5q39 10 64.5 17t43.5 12q22 7 38 11.5t37 7t51.5 4t80.5 2.5q32 0 34 -1q-2 3 -3 11l-6 18v1q-2 6 -5 14t-12 26 l1 1q-10 18 -44 21q4 -9 6 -18t6 -18q5 -17 1 -23.5t-18 -6.5zM241 505h4q20 0 35 6t25 15t15.5 18.5t7.5 17.5q3 13 3 26q0 16 -14 34t-43 32h-2q2 -6 3 -13t1 -13q0 -16 -3 -29q-2 -9 -7 -21t-13.5 -22.5t-20.5 -18t-27 -7.5q-18 -1 -34 8q24 -33 70 -33zM214 81h4 q20 0 35 6t25 15t15.5 18.5t7.5 17.5q3 13 3 26q0 16 -14 34t-43 32h-2q2 -6 3 -13t1 -13q0 -16 -3 -29q-2 -9 -7 -21t-13.5 -22.5t-20.5 -18t-27 -7.5q-18 -1 -34 8q24 -33 70 -33zM440 334v-1q1 0 1 1h-1z"/>
<glyph unicode="ø" glyph-name="oslash" d="M402 801q-2 2 -2 7v10q-4 -7 -8 -3l1 1q-4 2 -10 4t-17 3q1 -8 -1.5 -15t-6.5 -16q-14 -30 -35 -79q11 -18 17.5 -39t11.5 -45q9 -62 8 -137.5t-13.5 -152t-36.5 -147t-61 -121.5q-26 -31 -55.5 -41.5t-67.5 -4.5q-19 3 -38.5 8t-38.5 14q-8 -21 -15 -39t-12 -32 q-9 -26 -23 -22v-2q0 -1 3 -4l11 -11q-9 5 -8.5 2.5t8.5 -18.5l10 -5t7 -3l-1 -1q10 -5 11.5 -5.5t-0.5 0.5l-20 23l-3 3l-1 1q-2 2 -2 3l1 -1q1 0 2 -1l-1 -1v0q1 0 2 -1h-1q7 -4 27 -4q15 0 22.5 3t9.5 9v1q2 5 4.5 11t5.5 14l8 22t9 23l-13 5q16 -6 35 -10t39 -7 q7 -1 14 -1.5t15 -0.5q37 0 65 13t52 41q27 38 47 87.5t33 104t19 112.5t6 112q0 31 -2 61t-6 57q-4 19 -10.5 38t-20.5 41l1 14q21 49 35 79q9 18 9 22l-4.5 5.5t-13.5 17.5zM216 378q5 26 8 54.5t5 57.5q-34 -83 -69 -168t-65 -160q5 -10 13 -13q13 -7 28.5 8t30 46.5 t27.5 76.5t22 98zM207 665q-12 5 -28 -15.5t-31.5 -55t-29.5 -78.5t-23 -85q-14 -62 -17 -127q32 87 68 180.5t68 174.5q-3 4 -7 6zM400 818q2 5 3.5 11.5l1.5 6.5h-17l9 -3l-1 -1l4 -11v-3zM388 836l-2 1q1 0 1 -1h1z"/>
<glyph horiz-adv-x="451" unicode="ù" glyph-name="ugrave" d="M44 33q31 -27 107 -34h-1q5 -1 10 -1h11q30 0 54 8.5t49 26.5q30 27 53.5 83.5t42 137.5t33 183.5t28.5 220.5q1 6 1.5 10.5t0.5 6.5t-5.5 7t-22.5 19q-6 5 -13 9.5t-15 9.5q1 -5 0.5 -10.5t-1.5 -13.5q-14 -122 -29 -227t-34.5 -188.5t-44 -142.5t-56.5 -87 q-23 -17 -46.5 -23.5t-53.5 -3.5q-58 6 -97 37q6 -8 13.5 -14.5t15.5 -13.5zM125 191q0 42 7 98t17.5 115t22.5 117t23 104v1q3 12 3 19q0 17 -29 46q-11 11 -32 23q9 -24 3 -52q-10 -43 -21.5 -96t-21.5 -107.5t-17 -107.5t-9 -95.5t3 -71t19 -34.5q14 -7 32 19v22zM77 983 q14 -12 35.5 -27.5t48.5 -32t57 -33.5t62 -31l-2 -1q4 -2 24 -2q30 0 50 15l-20 -23l5.5 5.5t10 9.5t11 10.5t8.5 7.5q-4 2 -7 5q-11 6 -23 13t-24 15q-2 -8 -6.5 -12t-3.5 -3q-35 -26 -57 -14q-45 20 -90 48.5t-80 54.5q-4 -10 -4 -18zM367 881q3 -2 3 2l-1 -0.5t-2 -1.5z "/>
<glyph horiz-adv-x="451" unicode="ú" glyph-name="uacute" d="M44 33q31 -27 107 -34h-1q5 -1 10 -1h11q30 0 54 8.5t49 26.5q30 27 53.5 83.5t42 137.5t33 183.5t28.5 220.5q1 6 1.5 10.5t0.5 6.5t-5.5 7t-22.5 19q-6 5 -13 9.5t-15 9.5q1 -5 0.5 -10.5t-1.5 -13.5q-14 -122 -29 -227t-34.5 -188.5t-44 -142.5t-56.5 -87 q-23 -17 -46.5 -23.5t-53.5 -3.5q-58 6 -97 37q6 -8 13.5 -14.5t15.5 -13.5zM125 191q0 42 7 98t17.5 115t22.5 117t23 104v1q3 12 3 19q0 17 -29 46q-11 11 -32 23q9 -24 3 -52q-10 -43 -21.5 -96t-21.5 -107.5t-17 -107.5t-9 -95.5t3 -71t19 -34.5q14 -7 32 19v22z M315 1012q-16 -14 -39 -31t-49.5 -34t-55 -33.5t-55.5 -28.5q-16 -9 -35 0l-6 -4q3 -2 8.5 -7.5t11 -10.5t10 -9.5l5.5 -5.5l-20 23q19 -15 50 -15q20 0 24 2l-2 1q31 14 61.5 31t57.5 33.5t48.5 32t35.5 27.5l5 -13q-2 14 -7.5 24t-22.5 20v1q-11 7 -27 10q1 -3 1 -7 q0 -3 1 -6zM75 881q-2 2 -3 2v0q0 -4 3 -2z"/>
<glyph horiz-adv-x="451" unicode="û" glyph-name="ucircumflex" d="M44 33q31 -27 107 -34h-1q5 -1 10 -1h11q30 0 54 8.5t49 26.5q30 27 53.5 83.5t42 137.5t33 183.5t28.5 220.5q1 6 1.5 10.5t0.5 6.5t-5.5 7t-22.5 19q-6 5 -13 9.5t-15 9.5q1 -5 0.5 -10.5t-1.5 -13.5q-14 -122 -29 -227t-34.5 -188.5t-44 -142.5t-56.5 -87 q-23 -17 -46.5 -23.5t-53.5 -3.5q-58 6 -97 37q6 -8 13.5 -14.5t15.5 -13.5zM125 191q0 42 7 98t17.5 115t22.5 117t23 104v1q3 12 3 19q0 17 -29 46q-11 11 -32 23q9 -24 3 -52q-10 -43 -21.5 -96t-21.5 -107.5t-17 -107.5t-9 -95.5t3 -71t19 -34.5q14 -7 32 19v22z M289 871q-8 0 -16.5 1t-18.5 5h-1q1 -2 1.5 -5t1.5 -5q4 -7 34 -16h-1q14 -5 40 -5h3q19 0 24 -3v2l1 2q-4 19 -9.5 43t-10.5 51t-10 54.5t-8 53.5v1q-1 6 -3 10.5t-7 11.5q-1 1 -9 7.5t-17 14.5l1 1q-3 3 -6.5 6t-6.5 6q-1 0 -3 0.5t-7 1.5q1 -8 3 -18q3 -25 8 -52.5 t10 -54.5t10.5 -51t9.5 -43q4 -20 -13 -19zM135 878q1 -2 4 -2.5t20 -0.5h18t5 1l-1 1q2 2 2.5 4t2.5 4q8 13 16.5 27t18.5 29q-4 18 -8 39.5t-9 44.5q-22 -31 -40.5 -60.5t-34.5 -55.5q-5 -9 -10 -9h-1q3 -5 7.5 -10t9.5 -12zM356 843q2 -6 2 -2z"/>
<glyph horiz-adv-x="451" unicode="ü" glyph-name="udieresis" d="M44 33q31 -27 107 -34h-1q5 -1 10 -1h11q30 0 54 8.5t49 26.5q30 27 53.5 83.5t42 137.5t33 183.5t28.5 220.5q1 6 1.5 10.5t0.5 6.5t-5.5 7t-22.5 19q-6 5 -13 9.5t-15 9.5q1 -5 0.5 -10.5t-1.5 -13.5q-14 -122 -29 -227t-34.5 -188.5t-44 -142.5t-56.5 -87 q-23 -17 -46.5 -23.5t-53.5 -3.5q-58 6 -97 37q6 -8 13.5 -14.5t15.5 -13.5zM125 191q0 42 7 98t17.5 115t22.5 117t23 104v1q3 12 3 19q0 17 -29 46q-11 11 -32 23q9 -24 3 -52q-10 -43 -21.5 -96t-21.5 -107.5t-17 -107.5t-9 -95.5t3 -71t19 -34.5q14 -7 32 19v22z M321 846h3q33 0 48.5 14.5t17.5 25.5v1q1 5 1.5 9t0.5 9q0 10 -11.5 22.5t-35.5 23.5q-2 1 -4 1t-5 1q1 -3 1 -8q0 -7 -0.5 -12t-1.5 -10q-2 -7 -5.5 -16t-10 -17t-15.5 -13.5t-20 -5.5q-13 -1 -24 5q8 -14 24.5 -22t36.5 -8zM146 847h3q32 0 48 14.5t18 24.5l-1 3 q4 11 4 16q0 11 -11.5 23.5t-36.5 23.5l1 1q-2 0 -4 0.5t-5 0.5q1 -3 1 -9q0 -12 -3 -21q-1 -7 -5 -16t-10.5 -17t-15.5 -13.5t-20 -5.5q-12 -1 -23 5q8 -14 24 -22t36 -8z"/>
<glyph horiz-adv-x="434" unicode="ý" glyph-name="yacute" d="M364 684q-9 -31 -28 -78.5t-43.5 -103.5t-52.5 -117t-55 -118q-11 -63 -19 -119.5t-15 -110.5q-4 -20 -10 -24.5t-23 1.5q-14 6 -29.5 13.5t-29.5 15.5q2 -6 12 -14q17 -11 37.5 -21t39.5 -18q6 -2 9 -3.5t17 -1.5q20 0 25 4t7 12q7 54 15 110t19 119l-1 3 q27 58 55.5 119t53 117t43 103t27.5 76v1q8 23 8 30q0 4 -5 12q-11 12 -25 26.5t-31 25.5q7 -14 6.5 -26.5t-7.5 -32.5zM315 1012q-16 -14 -39 -31t-49.5 -34t-55 -33.5t-55.5 -28.5q-16 -9 -35 0l-6 -4q3 -2 8.5 -7.5t11 -10.5t10 -9.5l5.5 -5.5l-20 23q19 -15 50 -15 q20 0 24 2l-2 1q31 14 61.5 31t57.5 33.5t48.5 32t35.5 27.5l5 -13q-2 14 -7.5 24t-22.5 20v1q-11 7 -27 10q1 -3 1 -7q0 -3 1 -6zM140 701q-6 18 -15.5 27.5t-35.5 17.5q-1 0 -1.5 0.5t-2.5 0.5v-1h1q13 -48 27.5 -111t30.5 -135q8 17 15 33.5t15 33.5q-9 38 -17.5 71.5 t-16.5 62.5zM75 881q-2 2 -3 2v0q0 -4 3 -2z"/>
<glyph horiz-adv-x="438" unicode="þ" glyph-name="thorn" d="M-27 29q8 -6 26.5 -14t40.5 -16q8 -2 20 -2q17 0 24 2.5t8 8.5q1 5 1.5 9.5t1.5 9.5q2 13 3.5 26t3.5 27l-10 12q41 16 81.5 37.5t76.5 46t65.5 52t47.5 54.5q20 30 34.5 60.5t14.5 59.5q0 18 -4 37q-9 42 -29 76.5t-43 67.5q-12 15 -34 23q16 -25 29 -54.5t22 -69.5 q11 -51 -3.5 -91.5t-38.5 -76.5q-20 -30 -49.5 -59t-64.5 -54.5t-73.5 -46.5t-76.5 -36q-3 -19 -5.5 -37t-4.5 -35q-3 -17 -9 -22t-23 1q-16 6 -30 12t-27 15q5 -9 25 -23zM75 290q39 18 69 42q12 63 24 120l-7 10q50 27 76 29q-1 2 -1 5q-2 10 -13 15t-28 4.5t-38.5 -7 t-43.5 -19.5q-10 -45 -19 -94.5zM170 696q-12 10 -28 19q1 -8 -2 -26q-2 -8 -3.5 -15t-3.5 -15q17 5 32.5 8t31.5 3q-1 2 -7 7.5t-20 17.5v1z"/>
<glyph horiz-adv-x="434" unicode="ÿ" glyph-name="ydieresis" d="M364 684q-9 -31 -28 -78.5t-43.5 -103.5t-52.5 -117t-55 -118q-11 -63 -19 -119.5t-15 -110.5q-4 -20 -10 -24.5t-23 1.5q-14 6 -29.5 13.5t-29.5 15.5q2 -6 12 -14q17 -11 37.5 -21t39.5 -18q6 -2 9 -3.5t17 -1.5q20 0 25 4t7 12q7 54 15 110t19 119l-1 3 q27 58 55.5 119t53 117t43 103t27.5 76v1q8 23 8 30q0 4 -5 12q-11 12 -25 26.5t-31 25.5q7 -14 6.5 -26.5t-7.5 -32.5zM140 701q-6 18 -15.5 27.5t-35.5 17.5q-1 0 -1.5 0.5t-2.5 0.5v-1h1q13 -48 27.5 -111t30.5 -135q8 17 15 33.5t15 33.5q-9 38 -17.5 71.5t-16.5 62.5z M292 846h3q33 0 48.5 14.5t17.5 25.5v1q1 5 1.5 9t0.5 9q0 10 -11.5 22.5t-35.5 23.5q-2 1 -4 1t-5 1q1 -3 1 -8q0 -7 -0.5 -12t-1.5 -10q-2 -7 -5.5 -16t-10 -17t-15.5 -13.5t-20 -5.5q-13 -1 -24 5q8 -14 24.5 -22t36.5 -8zM117 847h3q32 0 48 14.5t18 24.5l-1 3 q4 11 4 16q0 11 -11.5 23.5t-36.5 23.5l1 1q-2 0 -4 0.5t-5 0.5q1 -3 1 -9q0 -12 -3 -21q-1 -7 -5 -16t-10.5 -17t-15.5 -13.5t-20 -5.5q-12 -1 -23 5q8 -14 24 -22t36 -8z"/>
</font>
</defs>
</svg>
