<?xml version="1.0" encoding="UTF-8" standalone="no"?>
<!DOCTYPE svg  PUBLIC '-//W3C//DTD SVG 1.1//EN'  'http://www.w3.org/Graphics/SVG/1.1/DTD/svg11.dtd'>
<svg xmlns="http://www.w3.org/2000/svg" version="1.1">
<defs>
<font id="KomikaTitle-Boogie" horiz-adv-x="632">
<font-face cap-height="1149" ascent="800" font-family="Komika Title - Boogie" panose-1="2 0 5 0 6 0 0 2 0 4" underline-position="-125" font-weight="400" unicode-range="U+0020-F002" units-per-em="1000" bbox="-428 -160 1416 3858" underline-thickness="50" x-height="1164" descent="-200"/>
<missing-glyph horiz-adv-x="500"/>
<glyph horiz-adv-x="500" glyph-name=".notdef"/>
<glyph horiz-adv-x="0" glyph-name=".null"/>
<glyph horiz-adv-x="500" glyph-name="nonmarkingreturn"/>
<glyph horiz-adv-x="401" glyph-name="space" unicode=" "/>
<glyph horiz-adv-x="401" glyph-name="space" unicode=" "/>
<glyph horiz-adv-x="723" glyph-name="fraction" d="M722 1000l-9 9q-3 3 -8 25q-12 51 -35 51q-22 0 -59 -45q-171 -211 -390 -530l-119 -176q-52 -74 -149 -226q-11 -15 -11 -30q3 -18 13 -26l5 -3q0 1 -1 2v1l1 1l3 -2q19 -14 26 -14q6 0 135 150l275 323q165 194 269 307q32 35 44 60q14 30 14 72q0 34 -4 51z" unicode="⁄"/>
<glyph horiz-adv-x="764" glyph-name="fi" d="M-18 13q62 -23 82 -23t20 15v2q0 -4 5 100q2 58 7 130q63 18 180 44q31 4 31 26q0 42 -20 92q-25 62 -65 62h-8q-35 0 -106 -12q6 96 24 288q27 6 73 18l98 25q70 18 211 54l-67 -264q-63 -250 -97 -416q-15 -75 -15 -99q0 -22 35 -41q31 -18 62 -18q10 0 20 18l86 221 q27 71 60 152l68 164q69 164 144 329q28 61 28 133q0 74 -29 138q-32 71 -90 107q-37 23 -83 23q-25 0 -161 -33q-175 -42 -308 -79q-169 -48 -279 -89q-57 -22 -88 -40q55 -224 100 -593q12 -94 20 -171l15 -134q4 -28 7 -56q5 -37 15 -53q7 -11 25 -20z" unicode=""/>
<glyph horiz-adv-x="865" glyph-name="fl" d="M627 31q12 2 29 13q2 5 2 13v23q0 67 -38 67q-50 0 -143 -18q7 21 49 129l142 369q24 64 45 117l36 92q12 31 21 52q31 75 31 136q0 98 -70 160q-61 54 -141 54h-7q-5 -1 -8 -1q-171 -16 -441 -78q-172 -39 -291 -80q-58 -21 -88 -39q44 -151 91 -398q20 -101 35 -195 l27 -171q10 -77 36 -213q10 -37 38 -50q62 -23 82 -23q19 0 19 14v3q0 122 3 230q109 31 178 44q30 6 30 24q0 41 -22 92q-29 64 -70 64h-8q-37 0 -105 -12q2 96 12 288q24 6 65 14l194 35q53 9 102 17q-56 -241 -92 -427q-18 -92 -30 -163l-3 -17q-10 -53 -15 -96 q-1 -8 -1 -15q0 -24 21 -48q6 -6 41 -35q18 -12 33 -12q4 0 30 5q73 14 181 36z" unicode=""/>
<glyph horiz-adv-x="600" glyph-name="Lslash" d="M-118 345q-21 -16 -21 -30q0 -18 58.5 -51t99.5 -33q5 0 15 2q-3 -83 -3 -134v-3q0 -47 75 -95q19 -12 34 -12q9 0 30 5q30 7 85 18l90 18q27 6 27 19q0 97 -49 97q-50 0 -140 -18l24 108q13 59 29 126q114 69 225 129q49 27 49 46q0 17 -39 67q-47 60 -89 60 q-34 0 -76 -28l32 125q14 55 35 124q13 43 13 70q0 45 -46 104q-65 82 -144 120q-22 10 -35 10q-36 0 -49 -91q-29 -195 -51 -481l-11 -146q-80 -57 -168 -126z" unicode="Ł"/>
<glyph horiz-adv-x="600" glyph-name="lslash" d="M-118 345q-21 -16 -21 -30q0 -18 58.5 -51t99.5 -33q5 0 15 2q-3 -83 -3 -134v-3q0 -47 75 -95q19 -12 34 -12q9 0 30 5q30 7 85 18l90 18q27 6 27 19q0 97 -49 97q-50 0 -140 -18l24 108q13 59 29 126q114 69 225 129q49 27 49 46q0 17 -39 67q-47 60 -89 60 q-34 0 -76 -28l32 125q14 55 35 124q13 43 13 70q0 45 -46 104q-65 82 -144 120q-22 10 -35 10q-36 0 -49 -91q-29 -195 -51 -481l-11 -146q-80 -57 -168 -126z" unicode="ł"/>
<glyph horiz-adv-x="615" glyph-name="Zcaron" d="M51 3403q-8 2 -13 2q-44 0 -44 -109q0 -57 9 -139l141 -1338q10 -119 16 -206q7 -109 38 -177q21 -37 64 -111q15 -21 26 -21q16 0 40 44q117 216 292 615q74 170 135 324q52 130 52 271q0 179 -28 379q-14 101 -32 101q-16 0 -35 -44q-2 -4 -20 -57q-176 -508 -353 -961 l-37 951q-3 45 -5 77q-17 238 -92.5 318.5t-146.5 80.5h-7zM228 739q-107 -208 -190 -396q-37 -85 -54 -126q-30 -71 -49 -128q-2 -4 -2 -12q0 -22 32 -50q35 -31 65 -44q8 -3 20 -3t27 4q83 21 178 36q28 4 28 19q0 28 -14 57q-18 36 -48 36q-45 0 -122 -22 q184 291 400 616q45 68 45 154v8q0 13 1 40v40q0 103 -9 142q-14 58 -58 58h-9q-191 -18 -359 -57q-140 -33 -199 -71q-32 -21 -32 -44q0 -30 39 -120q20 -42 57 -128q32 -54 74 -54q11 0 23 3q29 11 78 23q66 15 78 19z" unicode="Ž"/>
<glyph horiz-adv-x="615" glyph-name="zcaron" d="M51 3403q-8 2 -13 2q-44 0 -44 -109q0 -57 9 -139l141 -1338q10 -119 16 -206q7 -109 38 -177q21 -37 64 -111q15 -21 26 -21q16 0 40 44q117 216 292 615q74 170 135 324q52 130 52 271q0 179 -28 379q-14 101 -32 101q-16 0 -35 -44q-2 -4 -20 -57q-176 -508 -353 -961 l-37 951q-3 45 -5 77q-17 238 -92.5 318.5t-146.5 80.5h-7zM228 739q-107 -208 -190 -396q-37 -85 -54 -126q-30 -71 -49 -128q-2 -4 -2 -12q0 -22 32 -50q35 -31 65 -44q8 -3 20 -3t27 4q83 21 178 36q28 4 28 19q0 28 -14 57q-18 36 -48 36q-45 0 -122 -22 q184 291 400 616q45 68 45 154v8q0 13 1 40v40q0 103 -9 142q-14 58 -58 58h-9q-191 -18 -359 -57q-140 -33 -199 -71q-32 -21 -32 -44q0 -30 39 -120q20 -42 57 -128q32 -54 74 -54q11 0 23 3q29 11 78 23q66 15 78 19z" unicode="ž"/>
<glyph horiz-adv-x="427" glyph-name="exclam" d="M281 1227q-55 61 -111 94q-26 15 -41 15q-36 0 -50 -113q-22 -174 -43 -388q-10 -96 -18 -185l-14 -167q-18 -210 -18 -261q0 -35 43 -61q38 -23 76 -23q16 0 21 26q36 172 102 406q59 201 117 402q15 52 15 90q0 78 -79 165zM-34 47q0 -33 24.5 -52.5t54.5 -19.5 q39 0 58 30q13 22 13 39q0 26 -19 48q-26 27 -68 27q-29 0 -46 -19.5t-17 -48.5v-4z" unicode="!"/>
<glyph horiz-adv-x="534" glyph-name="quotedbl" d="M93 741q17 50 39 150q35 163 50 319q5 52 5 96q0 159 -160 346q-38 44 -57 44q-31 0 -31 -116q0 -159 -4 -322l-4 -159q-4 -138 -10 -269q-4 -99 -4 -91v-4q0 -73 72 -73q43 0 66.5 18.5t37.5 60.5zM381 753q88 176 139 338q18 59 25 92q5 25 5 46q0 112 -85 260 q-28 48 -48 48q-27 0 -49 -91q-13 -55 -34 -136l-75 -283q-19 -70 -36 -130l-31 -109q-9 -28 -19 -56q-12 -37 -12 -56q0 -44 58 -51q16 -2 31 -2q28 0 49 11q29 15 82 119z" unicode='&quot;'/>
<glyph horiz-adv-x="638" glyph-name="numbersign" d="M548 492q8 5 8 19q0 17 -13 59q-15 47 -78 50q70 155 70 242q0 54 -25 115q-28 66 -56 66q-22 0 -38 -57q-35 -126 -101 -378q-41 -5 -123 -16q25 131 25 165q0 99 -79 196q-20 25 -35 25q-22 0 -28 -54q-22 -193 -31 -362q-35 -8 -105 -26q-52 -15 -52 -32q0 -10 18 -36 q26 -37 40 -50q26 -25 56 -25q15 0 28 4h4q-2 -45 -6 -136q-32 -7 -93 -27q-11 -5 -11 -11q0 -24 35 -48.5t55 -24.5q8 0 12 1l1 -13q3 -42 24 -66q23 -28 51 -28q10 0 16 46q2 28 9 85q32 6 96 21q-9 -38 -9 -67v-9q2 -22 19 -42t38 -20q10 0 28 52q5 17 15 52.5t16 52.5 q36 2 48 4q30 3 47 11q11 4 11 13q0 10 -15 40t-59 30q11 37 25 77l28 83q28 3 55 5q67 5 79 14zM277 450q-22 -84 -33 -148l-50 -8q-26 -4 -52 -9q5 36 10 69l11 74q27 8 55 13z" unicode="#"/>
<glyph horiz-adv-x="529" glyph-name="dollar" d="M159 895q-60 -4 -115 -84q-68 -101 -95 -248q-7 -39 -7 -65q0 -101 62 -174q39 -46 115 -95q62 -41 62 -59q0 -16 -30 -16q-49 0 -113 45q-25 18 -52 18q-45 0 -45 -28q0 -19 39 -55.5t70 -50.5q-3 -20 -3 -39q0 -55 34 -83q11 -9 26 -9q8 0 17 37q4 23 14 69q1 -1 9 -1 h9q70 0 113 54q32 41 32 77q0 43 -57 94q-37 29 -105 96q-25 30 -25 77q0 41 21 92t50 80q17 17 29 17q13 0 13 -23v-19q0 -28 -8 -81l-5 -37q-3 -18 -3 -30q0 -73 71 -113q7 -3 14 -3q21 0 46 62q29 76 45 190q4 28 4 44q0 90 -71 172q35 141 38 154q19 89 19 156 q0 84 -31 168q-33 89 -67 89q-24 0 -46 -86q-19 -74 -39 -192l-17 -105q-9 -52 -18 -95z" unicode="$"/>
<glyph horiz-adv-x="753" glyph-name="percent" d="M668 937q0 87 -26 139q-8 16 -18 16q-16 0 -39 -37q-71 -114 -154 -180q-74 -59 -131 -59q-73 0 -113 92q-30 70 -47 99q-32 54 -72 83q-25 18 -62 33q-9 4 -22 4q-72 0 -109 -117q-29 -91 -29 -220q0 -143 37 -254q38 -115 99 -161q47 -36 98 -36q69 0 106 99 q30 83 30 225v17q-1 11 -1 17q32 -17 66 -17q58 0 111 46q-105 -187 -167 -305q-82 -154 -123 -241q-48 -99 -48 -119q0 -18 17.5 -40.5t35.5 -22.5q8 0 12 8q33 60 115 189q78 123 186 284l99 147q38 53 76 107q47 69 60 113.5t13 90.5zM557 248v11q0 83 -87 111 q-3 1 -14 1q-73 0 -127 -98q-44 -81 -44 -160q0 -117 107 -117q69 0 118 92q20 38 32 82q15 54 15 78zM69 877q13 -46 17 -140q2 -42 2 -81q0 -63 -7 -120q-13 -100 -42 -100q-50 0 -50 235q0 77 19.5 158t38.5 81q13 0 22 -33zM467 277q6 -3 6 -19q0 -60 -39 -138 q-37 -74 -58 -74q-16 0 -16 27q0 35 35 117q38 88 68 88q3 0 4 -1z" unicode="%"/>
<glyph horiz-adv-x="679" glyph-name="ampersand" d="M311 41q12 -9 17 -16q29 -24 48 -24h7q16 4 37 14q28 14 28 25q0 6 -17 28q-11 13 -32 39q74 68 74 136q0 42 -22 42q-14 0 -55 -35q-20 -18 -61 -53q-36 54 -73 121q124 87 180 159q98 126 98 290q0 117 -48 241q-44 114 -91 164q-44 45 -100 45q-137 0 -248 -146 t-111 -341q0 -127 67 -261q22 -44 51 -95q-128 -107 -128 -203q0 -82 92 -144q57 -39 116 -39q86 0 171 53zM185 476l-4 11q-23 63 -23 116q0 75 53 152.5t124 104.5q20 -42 20 -95q0 -102 -55 -179q-40 -55 -115 -110zM233 129q-78 -44 -119 -44q-30 0 -33 27v6 q0 50 73 116q47 -66 79 -105z" unicode="&amp;"/>
<glyph horiz-adv-x="372" glyph-name="quotesingle" d="M176 753q77 174 115 338q11 45 14 68l6 40v12q0 55 -29 134q-27 71 -74 144q-31 49 -51 49q-28 0 -44 -92q-17 -96 -53 -278l-27 -139q-14 -69 -26 -129l-41 -192q-3 -14 -3 -26q0 -59 92 -59q26 0 46 11q29 15 75 119z" unicode="&apos;"/>
<glyph horiz-adv-x="483" glyph-name="parenleft" d="M172 1348q-111 -276 -154 -491q-47 -228 -47 -411q0 -276 88 -418q32 -51 90 -51h5q18 3 18 8q0 4 -4 12q-41 81 -41 216q0 276 149 623q44 103 44 224q0 83 -30 213q-19 81 -44 122q-13 19 -26 19q-22 0 -48 -66z" unicode="("/>
<glyph horiz-adv-x="511" glyph-name="parenright" d="M218 1163q-58 120 -163 162q-18 7 -32 7q-34 0 -34 -52q0 -30 12 -95q62 -336 62 -623q0 -424 -112 -563q-4 -5 -4 -11q0 -14 36 -14q55 0 98 47q25 28 60 97q83 160 120 424q18 132 18 284v36q0 174 -61 301z" unicode=")"/>
<glyph horiz-adv-x="635" glyph-name="asterisk" d="M501 555q31 8 31 37q0 7 -5 26q-24 90 -94 90q-33 0 -122 -25q17 66 47 201q6 35 6 66q0 106 -71 212q-21 31 -36 31q-23 0 -35 -67q-39 -223 -57 -385l-68 100q-46 66 -76.5 87.5t-57.5 21.5q-26 0 -55 -21t-29 -50q0 -28 26 -62q78 -103 181 -225q-61 -25 -120 -58 q-62 -34 -62 -49q0 -10 21 -36q55 -68 98 -68q17 0 53 16q19 9 58 27q-5 -32 -5 -85q0 -72 58 -104q16 -9 22 -9q10 0 24 70q6 37 19 112l48 -50q28 -28 52 -44q16 -11 30 -11q19 0 47 14t28 29q0 8 -12 24q-37 45 -107 136q104 35 163 49z" unicode="*"/>
<glyph horiz-adv-x="648" glyph-name="plus" d="M431 288q31 1 31 26q0 129 -65 133q-16 1 -25 1h-57q-16 0 -33 -1q14 43 40 131q5 19 5 31q0 33 -36 80q-32 41 -75 72q-7 5 -17 5q-33 0 -55 -118q-10 -50 -17 -108l-13 -106q-50 -4 -148 -18q-73 -16 -73 -39q0 -33 45.5 -84.5t62.5 -51.5t47 7q37 9 49 10 q0 -32 -4 -95q2 -28 29 -48q6 -4 52 -27q13 -5 17 -5q9 0 23 66q8 42 26 127q42 5 191 12z" unicode="+"/>
<glyph horiz-adv-x="369" glyph-name="comma" d="M59 -56q33 37 50 64q9 16 9 25q0 21 -41 48q-36 23 -51 23t-21 -17q-11 -30 -33 -75q-30 -59 -36 -73q-3 -7 -3 -10q0 -10 25 -17q21 -6 44 -6q11 2 20 5.5t37 32.5z" unicode=","/>
<glyph horiz-adv-x="555" glyph-name="hyphen" d="M-135 533q-22 -7 -22 -29q0 -26 29 -75q47 -79 91 -114q14 -11 23 -11q6 0 15 3q99 34 286 50q19 2 26 7.5t7 23.5q0 60 -21 121q-29 80 -70 80q-146 0 -291 -35q-31 -8 -73 -21z" unicode="-"/>
<glyph horiz-adv-x="555" glyph-name="hyphen" d="M-135 533q-22 -7 -22 -29q0 -26 29 -75q47 -79 91 -114q14 -11 23 -11q6 0 15 3q99 34 286 50q19 2 26 7.5t7 23.5q0 60 -21 121q-29 80 -70 80q-146 0 -291 -35q-31 -8 -73 -21z" unicode="‐"/>
<glyph horiz-adv-x="381" glyph-name="period" d="M-23 54q0 -31 20.5 -51t51.5 -20h4q41 0 61 32q14 21 14 39v4q0 24 -20 45q-23 24 -61 24q-31 0 -50.5 -21t-19.5 -52z" unicode="."/>
<glyph horiz-adv-x="594" glyph-name="slash" d="M470 1080q-39 78 -74 120q-19 22 -32 22q-29 0 -57 -73q-105 -269 -219 -639q-60 -193 -107 -360q-19 -67 -25 -93q-2 -5 -2 -10v-9q0 -20 25 -37q6 -5 42 -23q12 -6 19 -6q10 0 16 15q28 65 102 217l78 160q42 86 86 173l162 321q30 58 30 93q0 38 -44 129z" unicode="/"/>
<glyph horiz-adv-x="617" glyph-name="zero" d="M387 1083q-57 38 -127 62q-15 5 -36 5q-105 0 -182 -124q-65 -105 -101 -273q-30 -146 -30 -269t21 -233q32 -171 102 -218q49 -34 110 -40q17 -1 47 -3q54 -1 95 35q94 82 168 303t74 439q0 219 -141 316zM287 781q27 -16 27 -122q0 -211 -58 -397q-55 -176 -107 -176 q-26 0 -39.5 47t-13.5 120q0 80 28 207q29 132 68 221q45 102 85 102q7 0 10 -2z" unicode="0"/>
<glyph horiz-adv-x="418" glyph-name="one" d="M300 855q11 40 11 64q0 51 -47 111q-36 44 -95 84q-50 33 -66 33q-28 0 -56 -77q-53 -147 -82 -278q-6 -27 -6 -43q0 -28 20 -51q10 -12 42 -37q-16 -147 -27 -329q-8 -142 -8 -239v-30q0 -36 35 -57q30 -17 69 -17q13 0 16 17q33 177 75 361l38 161q49 212 81 327z" unicode="1"/>
<glyph horiz-adv-x="573" glyph-name="two" d="M146 112q117 100 222 244q129 178 160 334q8 43 8 91q0 100 -40 192q-43 101 -120 154q-41 27 -90 27q-113 0 -215 -133q-96 -125 -136 -301q-11 -48 -11 -82q0 -56 43 -80q30 -16 78 -16q58 0 95 43q46 72 87 119q47 54 73 54q24 0 24 -30q0 -50 -68 -176 q-102 -189 -238 -358q-42 -52 -76 -86q-9 -9 -9 -19q0 -30 51 -69q47 -37 65 -37q17 0 51 6l52 10q103 16 156 19q23 4 23 16q0 27 -17 56q-21 34 -47 34h-4q-59 0 -117 -12z" unicode="2"/>
<glyph horiz-adv-x="593" glyph-name="three" d="M280 356q119 66 170 136q79 107 79 278q0 159 -71 286q-45 81 -106 103q-28 10 -55 10q-113 0 -217 -116q-87 -98 -131 -224q-7 -20 -7 -41q0 -53 51 -97q46 -40 102 -40q49 0 81 34q50 54 98 78q16 9 27 9q29 1 29 -42q0 -59 -79 -138q-88 -88 -240 -161q-18 -9 -18 -28 q0 -17 13 -40q57 -99 128 -99q8 0 24 2t24 2q61 0 61 -60q0 -40 -29 -77q-34 -42 -79 -42q-43 0 -96 30q-27 15 -56 15q-15 0 -33 -8q-22 -9 -22 -22q0 -16 39 -47q92 -74 190 -74q86 0 156 49q82 58 82 156q0 80 -62 135q-22 19 -53 33z" unicode="3"/>
<glyph horiz-adv-x="634" glyph-name="four" d="M402 352l81 227q39 111 84 227q20 52 20 78q0 31 -25 66q-58 80 -154 175q-59 57 -90 57q-32 0 -68 -59q-99 -164 -210 -417q-66 -149 -105 -259q-19 -56 -31 -98q-5 -18 -5 -29q0 -46 61 -106q58 -56 83 -56q8 0 22 3q8 2 129 19l-15 -83q-6 -34 -6 -52q0 -25 40 -47 q31 -16 55 -16q12 0 36 69q15 48 46 145q23 -1 70 3q36 7 36 38q-2 26 -5 52q-4 31 -18 49q-10 12 -31 14zM64 324q135 245 251 400l-87 -381q-55 -4 -164 -19z" unicode="4"/>
<glyph horiz-adv-x="553" glyph-name="five" d="M218 697q91 18 272 53q36 6 47 29q7 15 7 55q0 26 3.5 77t3.5 77q0 63 -9 93q-16 55 -63 55h-10q-30 0 -187 -20q-98 -12 -195 -43q-69 -22 -83 -126q-26 -190 -39 -320q-14 -151 -14 -213v-9q0 -52 35 -86q19 -13 56 -41q14 -14 26 -14q10 0 41 9t53 9q45 0 48 -33 q1 -13 1 -32v-7q0 -40 -22 -78q-23 -41 -58 -41q-30 0 -75 31q-25 17 -58 17q-18 0 -34 -6q-22 -8 -22 -23q0 -12 37 -51q63 -66 154 -66h5q98 0 156 70q14 17 24 35q42 77 42 144q0 83 -66 139q-62 53 -146 53q24 109 70 263z" unicode="5"/>
<glyph horiz-adv-x="568" glyph-name="six" d="M190 473q98 208 279 435q34 43 34 82q0 48 -59 101q-49 43 -125 77q-22 10 -37 10q-31 0 -75 -71q-149 -240 -218 -481q-52 -182 -52 -344q0 -121 28 -181q32 -69 113 -98q45 -16 82 -16q73 0 139 78q78 92 78 232q0 98 -93 152q-41 24 -89 24h-5zM99 231q39 79 91 79 q36 0 36 -50q0 -57 -36.5 -117t-66.5 -60q-36 0 -36 59q0 35 12 89z" unicode="6"/>
<glyph horiz-adv-x="589" glyph-name="seven" d="M278 759q-199 -440 -257 -680q-2 -8 -2 -20q0 -23 42 -53q38 -27 59 -27q9 0 15 14q52 125 153 307q106 194 229 389q38 60 38 115q0 39 -19 105l-44 152q-14 47 -28 68q-23 33 -62 33h-10q-30 0 -144 -15q-162 -21 -292 -60q-63 -19 -113 -47q-23 -13 -23 -32 q0 -24 47 -115q40 -76 79 -132q36 -51 79 -51q15 0 106.5 20.5t146.5 28.5z" unicode="7"/>
<glyph horiz-adv-x="596" glyph-name="eight" d="M478 522q68 109 68 237q0 100 -44 203q-46 109 -121 168q-47 36 -95 36q-87 0 -196 -133q-152 -185 -152 -395q0 -159 123 -264q-121 -112 -121 -205q0 -59 38 -105q35 -42 93 -62q41 -15 91 -15q97 0 157.5 71.5t60.5 136.5q0 77 -81 152q125 89 179 175zM294 815 q36 -49 36 -104q0 -104 -160 -247q-22 29 -22 76q0 123 146 275zM187 265q31 -30 31 -68q0 -73 -63 -111q-16 -10 -28 -10q-40 0 -40 44q0 33 28 72t72 73z" unicode="8"/>
<glyph horiz-adv-x="566" glyph-name="nine" d="M120 215q-53 -92 -120 -157q-9 -9 -9 -15q0 -18 47 -39q38 -17 53 -17q13 0 32 13q88 61 171.5 183.5t135.5 263.5q58 157 58 290q0 213 -182 367q-78 66 -148 66q-99 0 -171 -118.5t-91 -299.5q-6 -57 -6 -113q0 -181 47 -280q58 -120 183 -144zM194 375 q-26 -33 -49 -33q-55 0 -55 111q0 102 44 218q46 123 89 123q41 0 41 -96q0 -128 -70 -323z" unicode="9"/>
<glyph horiz-adv-x="486" glyph-name="colon" d="M-1 374q0 -85 59 -114q17 -9 36 -9h2q37 0 64 31q24 27 33 66q5 24 5 38q0 46 -29.5 80t-74.5 34q-63 0 -88 -79q-7 -23 -7 -47zM-35 63v-6q0 -34 24.5 -54.5t59.5 -20.5q29 0 47 18.5t18 47.5q0 50 -43 71q-16 8 -41 8q-30 0 -47.5 -20t-17.5 -44z" unicode=":"/>
<glyph horiz-adv-x="500" glyph-name="semicolon" d="M-49 414q28 -63 68 -85q20 -11 40 -11q51 0 74 66q15 43 15 84q0 133 -94 186q-23 13 -43 13q-38 0 -60 -42t-22 -101v-20q0 -38 22 -90zM58 -92q14 17 36 58q25 48 25 66q0 21 -42.5 58.5t-65.5 37.5q-15 0 -18 -22.5t-38 -178.5q-1 -3 -1 -7q0 -15 23.5 -23t44.5 -8h5 q22 2 31 19z" unicode=";"/>
<glyph horiz-adv-x="508" glyph-name="less" d="M316 467q28 13 28 31q0 28 -33 86q-36 62 -62 62q-32 0 -130 -64q-74 -48 -145 -106q-29 -17 -29 -82v-28q1 -18 1 -27v-11q0 -37 21 -50q93 -43 123 -58q69 -34 120 -65q13 -8 19 -8q10 0 23.5 28.5t13.5 62.5q0 26 -46 58q-34 19 -103 60q65 39 199 111z" unicode="&lt;"/>
<glyph horiz-adv-x="596" glyph-name="equal" d="M115 403q96 10 202 10q18 0 52.5 -1.5t52.5 -1.5q25 0 25 36v4q0 91 -27 128q-13 17 -37 20q-95 12 -180 12q-150 0 -261 -21q-30 -6 -30 -34q0 -20 21 -62q15 -30 38 -68q21 -34 49 -34h6q11 0 43 5q39 6 46 7zM51 157q148 29 310 35q28 1 28 21q0 38 -13 68 q-17 40 -50 40q-6 0 -18 1h-19q-120 0 -246 -20q-40 -7 -75 -14q-23 -5 -23 -24q0 -23 34.5 -66t56.5 -43q5 0 15 2z" unicode="="/>
<glyph horiz-adv-x="530" glyph-name="greater" d="M358 390q7 23 7 32q0 19 -23 36q-120 90 -254 166q-43 24 -78 41q-11 7 -23 7q-22 0 -23 -36q-2 -160 64 -190q47 -21 136 -71l-70 -28q-78 -31 -121 -60q-20 -14 -20 -24q0 -13 29 -44q18 -20 45 -41q16 -13 26 -13q6 0 19 7q63 33 207 86q32 12 53 56q8 18 26 76z" unicode="&gt;"/>
<glyph horiz-adv-x="693" glyph-name="question" d="M114 142q23 -10 40 -10q21 0 21 19v4q10 98 98 170l80 62q45 35 72 71q67 90 90 210q8 46 8 99q0 87 -27 187q-52 189 -163 254q-42 24 -94 24q-121 0 -216 -125q-91 -120 -134 -306q-12 -52 -12 -86q0 -59 50 -88q36 -22 82 -22q59 0 97 51q30 44 95 128q55 64 98 64 q23 0 36 -25q10 -19 10 -45q1 -119 -134 -246q-64 -60 -89 -90q-43 -51 -64 -107q-17 -44 -17 -96v-14q0 -23 7 -38q8 -20 66 -45zM24 48q0 -34 30 -55q26 -18 61 -18q24 0 45.5 13.5t19.5 36.5l-1 12q-4 45 -47 64q-18 8 -47 8q-26 0 -43.5 -14.5t-17.5 -40.5v-6z" unicode="?"/>
<glyph horiz-adv-x="755" glyph-name="at" d="M639 429q22 88 22 181q0 271 -187 415q-112 86 -230 86q-157 0 -264 -141q-111 -147 -111 -390q0 -50 4 -87q21 -194 101 -319q63 -97 157 -142q66 -32 129 -32q58 0 58 19q0 13 -22.5 26.5t-39.5 16.5q-30 1 -90 11q-55 16 -97 82q-58 92 -58 241v25q0 101 31 205 q53 178 165 250q53 34 109 34q85 0 143 -62q51 -55 70 -142q12 -55 12 -105q0 -108 -33 -222q-8 -28 -18 -54q-19 -50 -43 -95q-40 -72 -67 -72q-13 0 -13 19v5q4 39 30 126l36 120q8 27 8 43q0 31 -37 64q-5 53 -31 91q-30 44 -80 44q-76 0 -137 -108q-63 -112 -63 -246 q0 -102 55 -151q38 -36 91 -36q36 0 63 24q31 -54 98 -54q45 0 87 36q23 19 47 52q69 97 105 242zM346 507q-36 -155 -66 -230q-33 -85 -57 -85q-27 0 -27 60q0 97 52 203q47 96 76 96q17 0 22 -44z" unicode="@"/>
<glyph horiz-adv-x="639" glyph-name="A" d="M290 151q-1 -17 -1 -33v-71q0 -44 28 -52q20 -8 61 -8q27 0 31 23q48 294 123 655q26 126 56 253q13 55 13 89q0 56 -38 81q-75 49 -128 71q-60 25 -139 36q-7 1 -9 1h-8q-84 0 -123 -141q-51 -184 -99 -391q-45 -191 -78 -349q-43 -215 -43 -255q0 -27 27 -45 q9 -6 50 -22q12 -5 18 -5q12 0 26 42q8 28 27 82q41 12 96 21zM145 288q71 200 180 475q-17 -204 -30 -454q-77 -8 -150 -21z" unicode="A"/>
<glyph horiz-adv-x="623" glyph-name="B" d="M351 347q165 112 218 279q22 68 22 155q0 137 -50 274q-53 146 -220 146q-115 0 -248 -68q-128 -66 -205 -158q32 -237 55 -512l17 -201q7 -92 14 -148t74 -99q54 -35 84 -35q40 0 114 33q78 35 123 75q63 56 63 123q0 89 -61 136zM125 433q11 93 36 277q96 73 164 73 q53 0 58 -44v-6q0 -61 -73 -151q-80 -98 -185 -149zM103 245q50 21 87 21q22 0 40 -8q24 -10 24 -30q0 -34 -47 -70q-50 -39 -117 -58q2 34 6 69z" unicode="B"/>
<glyph horiz-adv-x="588" glyph-name="C" d="M293 178q-44 0 -76 -38q-50 -60 -79 -60q-47 0 -47 148q0 67 11 137q21 130 79 285q19 50 30 75q20 43 40 70q17 22 31 22q17 0 23.5 -25t6.5 -58q0 -20 -3 -69q-3 -44 -2 -69q2 -67 22 -103q24 -45 82 -62q10 -3 19 -3q25 0 54 85q42 122 59 271q5 43 5 73 q0 130 -91 228q-66 69 -146 103q-40 16 -75 16q-104 0 -184 -144q-69 -123 -110 -315q-36 -172 -36 -313q0 -237 62 -341q57 -98 186 -110h12q111 0 178 117q16 28 16 44q0 9 -5 15q-17 21 -62 21z" unicode="C"/>
<glyph horiz-adv-x="649" glyph-name="D" d="M-133 997l83 -874q7 -75 81 -115q49 -26 79 -26q11 0 27 5q186 58 304 253t118 420q0 60 -13 140q-31 199 -115 297q-81 94 -201 94q-98 0 -203 -60q-95 -54 -160 -134zM92 108q30 329 70 620q36 20 68 20q84 0 107 -106q6 -31 6 -64q0 -136 -58 -259q-71 -149 -193 -211 z" unicode="D"/>
<glyph horiz-adv-x="545" glyph-name="E" d="M-78 1008l27 -905q1 -36 32 -67q28 -28 66 -40q18 -6 22 -6q27 0 95 15q35 8 106 24q25 5 25 20q0 30 -13 59q-17 37 -45 37q-63 0 -144 -19q6 36 17 108q65 14 195 44q33 8 33 32q0 52 -19 110q-13 39 -51 39h-9q-57 0 -111 -12q18 98 56 292q75 18 144 31l133 24 q33 6 46 28q10 17 14 54q2 28 2 72q0 110 -8 156q-15 78 -64 78h-7q-52 0 -152 -24q-145 -35 -278 -95q-62 -29 -112 -55z" unicode="E"/>
<glyph horiz-adv-x="540" glyph-name="F" d="M482 794q34 7 47 32q8 17 12 57q2 31 2 80q0 118 -22 173q-20 46 -60 46h-9q-39 0 -152 -19q-164 -27 -287 -72q-65 -24 -114 -51q24 -161 36 -398q5 -101 7 -195l7 -305q1 -56 3 -79q8 -39 32 -50q50 -23 79 -23q21 0 21 17l14 100q8 58 20 130q81 22 184 44q34 4 34 31 q0 92 -33 132q-14 17 -38 17h-8q-35 0 -106 -12q15 96 51 288q93 19 280 57z" unicode="F"/>
<glyph horiz-adv-x="602" glyph-name="G" d="M536 745q7 50 7 86q0 103 -50 195q-53 96 -141 143q-56 30 -119 30q-93 0 -150 -89q-90 -141 -138 -326q-45 -174 -45 -354q0 -170 36 -274q38 -107 105 -142q22 -12 64 -23q33 -9 66 -9q128 0 235 224q14 29 14 51q0 32 -23 76q-27 51 -64 51q-20 0 -66 -9 q-81 -16 -132 -30q-19 -6 -19 -25q0 -7 2 -14q29 -104 104 -104h10q-54 -126 -99 -126q-50 0 -50 145q0 99 37 244q34 138 82 239q51 107 87 107q18 0 24 -37q1 -8 2 -52q1 -23 -2 -65q-2 -46 -2 -65v-4q0 -141 111 -164q5 -1 11 -1q16 0 24 10q15 18 39 109t40 203z" unicode="G"/>
<glyph horiz-adv-x="612" glyph-name="H" d="M632 885q19 50 19 82q0 48 -41 105q-51 71 -122 110q-18 9 -28 9q-35 0 -57 -97q-35 -159 -75 -361l-34 -170q-16 -83 -31 -155q-72 -7 -140 -16l29 234q14 118 29 222q4 28 4 48q0 63 -74 136q-54 53 -137 104q-29 18 -44 18q-34 0 -30 -96q6 -154 16 -304l19 -278 q8 -106 19 -316q1 -42 1 -84v-17q0 -42 66 -60q43 -12 51 -12q14 0 20 73q3 47 11 142q42 8 127 23q-8 -44 -17 -89q-10 -55 -10 -89q0 -25 38 -43q34 -17 62 -17q17 0 18 17q38 122 129 382q94 265 182 499z" unicode="H"/>
<glyph horiz-adv-x="368" glyph-name="I" d="M206 1053q-55 56 -104 83q-25 13 -42 13q-37 0 -47 -91q-26 -241 -44 -566q-10 -179 -14 -314q-2 -62 -2 -99v-17q0 -35 31 -52q12 -7 61 -20q11 -3 16 -3q13 0 16 17l78 364q46 212 117 480q11 42 11 66q0 23 -8 42q-18 43 -69 97z" unicode="I"/>
<glyph horiz-adv-x="578" glyph-name="J" d="M93 -9q28 -7 56 -7q70 0 121 65q56 74 122.5 265.5t168.5 563.5q15 55 15 76q0 39 -42 96q-58 76 -133 114q-21 10 -34 10q-43 0 -56 -98l-32 -238q-39 -276 -67 -439q-18 -101 -26 -142q-18 -83 -40 -138q-16 -41 -30 -40q-19 3 -27 36q-2 9 -7 48q-9 74 -105 122 q-13 8 -25 8q-25 0 -25 -54v-7q0 -32 12 -83q32 -128 154 -158z" unicode="J"/>
<glyph horiz-adv-x="603" glyph-name="K" d="M227 260q156 182 259 333q94 138 132 236q20 53 20 94v14q0 23 -7 84q-13 97 -40 146q-14 25 -32 25q-16 0 -58 -72l-48 -90l-66 -118q-48 -81 -143 -243q-35 -59 -67 -112l-58 -98l24 216q11 99 27 203q5 33 5 52q0 38 -49 102q-73 95 -162 140q-26 13 -45 13 q-38 0 -38 -89v-5q0 -206 26 -610q7 -99 14 -182l12 -145l6 -70q7 -49 24 -63q13 -11 77 -31q13 -4 22 -4q14 0 14 14v4q5 61 15 182q118 -191 169 -191q46 0 79 24q9 6 9 13q0 3 -12 25l-31 55q-52 90 -78 148z" unicode="K"/>
<glyph horiz-adv-x="515" glyph-name="L" d="M259 30q27 5 27 18q0 31 -12 60q-15 38 -42 38q-50 0 -140 -18q75 417 159 757q10 40 10 64q0 45 -48 106q-67 84 -149 123q-23 11 -38 11q-37 0 -45 -91q-22 -236 -32 -495q-8 -222 -8 -397q0 -105 8 -129q15 -46 87 -84q7 -4 20 -4q6 0 29 5q41 9 85 18z" unicode="L"/>
<glyph horiz-adv-x="776" glyph-name="M" d="M71 477q53 -246 94 -377q17 -53 61.5 -61.5t41.5 -8.5q11 0 22 24q86 195 214 444q-45 -140 -86 -297q-36 -135 -36 -161q0 -20 30 -36.5t60 -16.5q14 0 25 22q19 55 81 198l62 147q62 148 144 332l72 162q34 75 34 112q0 54 -80 119q-34 27 -70 50l-61 39q-37 23 -61 23 q-44 0 -82 -77q-20 -39 -42 -98l-108 -284q-55 -145 -99 -269q-21 -60 -34 -105l-47 367q-11 85 -11 106q-11 87 -25 123q-21 56 -76 95q-74 53 -153 83q-31 12 -63 20q-19 5 -31 5q-44 0 -44 -74v-20q0 -3 2 -23q30 -305 69 -576q28 -187 49 -312q8 -45 19 -94t80 -67 q19 -5 37 -5q15 0 14 18q-5 140 -5 224q0 112 3 249z" unicode="M"/>
<glyph horiz-adv-x="628" glyph-name="N" d="M274 285q-15 126 -30 283l-14 145q-4 63 -19 188q-16 78 -65 119q-90 75 -183 122q-22 11 -36 11q-45 0 -44 -101q2 -137 18 -413q13 -217 25 -366l19 -207q3 -35 47 -58q35 -19 70 -19q11 0 13 17q1 27 4 69l16 209q5 62 10 131q30 -126 44 -180q27 -101 56 -177 q12 -32 49 -50q32 -16 70 -16q20 0 26 20q46 144 121 360q95 275 175 491q24 64 24 100q0 38 -21 71q-43 68 -80 90q-49 29 -66 29q-40 0 -63 -95q-29 -122 -50 -214l-46 -203q-49 -221 -70 -356z" unicode="N"/>
<glyph horiz-adv-x="623" glyph-name="O" d="M396 1098q-60 46 -129 67q-16 5 -35 5q-107 0 -186 -132q-67 -111 -103 -289q-31 -151 -31 -279q0 -252 79 -386q57 -96 203 -96q57 0 97 34q44 37 92 125q92 169 134 402q20 115 20 226q0 59 -10 112q-27 132 -131 211zM315 748q6 -36 6 -87q0 -135 -29 -278 q-26 -132 -66 -215q-41 -86 -73 -86q-25 0 -38 46q-13 41 -13 113q0 66 12 141q20 124 72 266q53 147 95 147q25 0 34 -47z" unicode="O"/>
<glyph d="M113 174q97 32 192.5 93t160.5 136q123 141 123 323q0 161 -60 323q-49 131 -163 131q-100 0 -238 -97q-117 -83 -209 -188q-7 -8 -7 -61q0 -70 15 -249q7 -75 14 -154l14 -149q16 -167 16 -207q0 -12 -1 -16v-7q0 -38 63 -57q36 -11 46 -11q14 0 17 17q3 56 17 173z M136 370l23 160q11 81 25 167q80 57 147 57q64 0 64 -54q0 -78 -69 -174q-75 -104 -190 -156z" glyph-name="P" unicode="P"/>
<glyph horiz-adv-x="622" glyph-name="Q" d="M341 78q52 65 97 184q68 178 91 383q7 67 7 130q0 141 -67 242q-72 108 -202 148q-16 5 -35 5q-107 0 -186 -132q-67 -111 -103 -289q-31 -151 -31 -279q0 -252 79 -386q56 -95 203 -95q34 0 59 11q33 -24 47 -24q21 0 50 11.5t29 23.5q0 6 -9 20q-6 10 -12.5 21.5 t-16.5 25.5zM176 91q-11 -9 -22 -9q-53 0 -53 154q0 188 83 408q58 153 101 153q35 0 35 -132q0 -135 -27 -281q-27 -141 -61 -205q-33 -9 -39 -11q-23 -8 -35 -18q-8 -7 -8 -15q0 -18 26 -44z" unicode="Q"/>
<glyph horiz-adv-x="645" glyph-name="R" d="M107 192q58 -78 137 -149q25 -22 29 -26q18 -14 34 -19q12 -3 23 -3q21 0 48 10q31 10 31 27q0 7 -19 29q-13 14 -25 28q-50 59 -112 151q161 91 238 191q96 124 96 299q0 162 -60 319q-57 149 -175 149q-88 0 -205 -79q-92 -62 -194 -164q-29 -29 -29 -209 q0 -147 21 -410l11 -124l14 -153q3 -35 30 -51q15 -8 59 -18q9 -2 14 -2q11 0 15 17q5 62 19 187zM182 703q73 58 143 58q72 0 72 -59q0 -66 -75 -166q-83 -109 -191 -161q16 109 51 328z" unicode="R"/>
<glyph horiz-adv-x="561" glyph-name="S" d="M-81 160q-10 -7 -10 -19q0 -16 41 -54q110 -101 214 -101h7q93 0 152 64q42 46 42 86q0 45 -73 113q-34 31 -69 62q-39 36 -63 67q-29 37 -29 96q0 98 68 216q17 30 41 61q35 46 52 46q10 0 10 -25q0 -36 -24 -148t-24 -134q0 -92 99 -141q14 -7 21 -7q18 0 48 63 q45 94 84 228q37 127 37 201q0 103 -59 202q-55 92 -144 156q-40 29 -85 29q-80 0 -144 -85q-79 -105 -139 -258q-28 -72 -45 -142q-11 -47 -17 -129q-2 -15 -2 -42q0 -176 111 -283q38 -37 125 -102q68 -53 68 -71q0 -19 -37 -19q-53 0 -142 61q-29 20 -66 20 q-28 0 -48 -11z" unicode="S"/>
<glyph horiz-adv-x="603" glyph-name="T" d="M559 813q34 6 46 28q8 16 8 54v22q0 106 -24 206q-8 32 -23 47q-18 17 -54 15q-54 -3 -167 -20q-207 -31 -373 -76q-96 -27 -156 -52q-26 -11 -26 -34q0 -26 35 -101q39 -84 76 -141q47 -71 73 -71q9 0 49 13q25 8 78 23q-12 -174 -19 -330q-8 -167 -8 -264v-39 q0 -6 1 -16v-15v-6q0 -31 42 -52q36 -19 68 -19q16 0 17 16q24 140 62 320l99 460q119 18 196 32z" unicode="T"/>
<glyph horiz-adv-x="611" glyph-name="U" d="M-15 78q59 -90 187 -90q74 0 130 71t127 264q60 165 175 542q18 59 18 83q0 27 -35 80q-30 45 -67 83q-53 53 -88 53q-42 0 -57 -97q-37 -236 -79 -457q-48 -251 -84 -373q-45 -154 -80 -154q-36 0 -36 124q0 90 22 262q3 25 31 183q20 112 20 183q0 132 -125 231 q-81 64 -108 64q-33 0 -35 -87q-3 -135 -3 -256q0 -278 17 -446q20 -187 70 -263z" unicode="U"/>
<glyph horiz-adv-x="626" glyph-name="V" d="M619 843q27 72 27 113q0 65 -56 146q-55 77 -93 77q-35 0 -57 -75q-66 -233 -132 -467q-80 -279 -141 -464q-23 145 -51 352l-53 375q-17 118 -93 185q-65 57 -144 57h-5q-41 0 -41 -40q0 -22 13 -77q79 -335 148 -586q63 -233 104 -347q27 -75 153 -109q15 -4 23 -4 q21 0 34 24q21 39 101 212q109 235 205 475q10 26 58 153z" unicode="V"/>
<glyph horiz-adv-x="801" glyph-name="W" d="M75 219q-10 63 -28 205l-14 113q-9 68 -25 205q-15 119 -17 128q-13 73 -40 123q-35 64 -115 103q-39 20 -89 40q-17 7 -31 7q-23 0 -23 -33q0 -26 12 -76q46 -190 109 -417q47 -167 104 -348q23 -74 73 -219q20 -54 96 -65q21 -3 40 -3q17 0 25 18q5 19 15 50l23 70 q12 39 27 83l30 87q4 -72 14 -137l8 -58q2 -16 7 -43q7 -36 51 -54q34 -15 76 -15q21 0 32 18q16 33 43 85l61 118q34 65 75 141l83 155q42 79 87 160l86 155q49 87 49 156q0 62 -53 135q-48 66 -75 66q-26 0 -63 -87l-50 -117l-124 -303q-34 -82 -65 -161l-111 -277 q4 43 9 93l30 292q4 43 11 129l3 53q0 52 -37 79q-41 30 -48 35q-28 19 -52 29q-18 7 -36 7q-30 0 -47 -64q-35 -129 -95 -440q-12 -63 -22 -120z" unicode="W"/>
<glyph d="M209 627q-28 113 -85 339q-36 137 -111 157l-42 4q-20 2 -37 2h-37q-74 0 -74 -50q0 -40 74 -231q29 -75 60 -153l119 -301q-51 -103 -74 -151q-40 -86 -64 -156q-5 -14 -5 -22q0 -19 39.5 -51.5t60.5 -32.5q15 0 54 63l38 61q20 33 41 65l42 -102q12 -28 18 -40 q15 -29 26 -34q19 -7 60 -7q55 0 55 18q0 5 -3 13q-14 52 -34 129l-46 179l156 222q66 95 152 219q50 73 50 144q0 67 -30 172q-20 67 -50 100q-15 16 -32 16q-26 0 -58 -57q-103 -186 -263 -515z" glyph-name="X" unicode="X"/>
<glyph horiz-adv-x="594" glyph-name="Y" d="M599 905q9 30 9 58q0 22 -19 77q-39 111 -81 149q-17 15 -34 15q-32 0 -50 -72l-137 -364q-62 -161 -113 -286l-60 258q-32 136 -66 257q-28 98 -64.5 138.5t-103.5 40.5q-115 0 -115 -48q0 -22 22 -85l154 -437q37 -103 70 -192l57 -158l-3 -201q-1 -34 39 -57 q32 -18 71 -18q11 0 16 18q21 121 38 193q83 145 243 438q29 57 55 110q31 66 38 82q22 47 34 84z" unicode="Y"/>
<glyph horiz-adv-x="535" glyph-name="Z" d="M228 739q-107 -208 -190 -396q-37 -85 -54 -126q-30 -71 -49 -128q-2 -4 -2 -12q0 -22 32 -50q35 -31 65 -44q8 -3 20 -3t27 4q83 21 178 36q28 4 28 19q0 28 -14 57q-18 36 -48 36q-45 0 -122 -22q184 291 400 616q45 68 45 154v8q0 13 1 40v40q0 103 -9 142 q-14 58 -58 58h-9q-191 -18 -359 -57q-140 -33 -199 -71q-32 -21 -32 -44q0 -30 39 -120q20 -42 57 -128q32 -54 74 -54q11 0 23 3q29 11 78 23q66 15 78 19z" unicode="Z"/>
<glyph horiz-adv-x="464" glyph-name="bracketleft" d="M205 49q-14 51 -53 51h-6q-1 0 -47 -4q27 183 86 478q19 97 41 198q47 7 140 22q35 9 44 31q6 14 6 55q0 105 -15 182q-21 106 -73 106h-6q-112 0 -233 -32q-60 -16 -68 -111q-22 -247 -35 -497.5t-13 -380.5q0 -76 11.5 -100.5t55.5 -52.5q19 -12 38 -12t54 7l30 6 q14 3 26 5q25 0 25 14q0 2 -8 35z" unicode="["/>
<glyph horiz-adv-x="598" glyph-name="backslash" d="M-2 1206q-26 4 -53 4q-51 0 -68 -11q-22 -15 -22 -59q0 -30 10 -70q77 -308 172 -631q59 -202 102 -334q10 -33 21 -65q17 -45 34 -55q12 -7 44 -7q49 0 49 16q0 1 -2 10q-6 29 -17 100l-49 332q-15 98 -29 201l-28 207q-8 55 -25 196q-9 70 -26 102q-9 16 -23 27 q-40 30 -90 37z" unicode="\"/>
<glyph horiz-adv-x="478" glyph-name="bracketright" d="M383 806q14 44 14 78q0 35 -22 105q-8 25 -39 105q-15 38 -23 50q-17 23 -47 23q-9 0 -22 -2q-159 -24 -246 -55q-41 -14 -41 -72q0 -38 19 -102q17 -53 39 -109q13 -32 21 -43q15 -21 40 -21q15 0 39.5 6t35.5 7l-33 -200q-36 -217 -55 -352q-11 -75 -17 -127 q-98 -13 -98 -34q0 -24 30 -50.5t46 -26.5q8 0 99 14q32 1 38 25q25 105 87 328q64 233 135 453z" unicode="]"/>
<glyph horiz-adv-x="607" glyph-name="asciicircum" d="M377 333h6q25 0 25 29v8q0 -5 -4 85q-3 50 -5 112l-4 131q-2 70 -2 145v45q0 8 1 23v23v19q0 89 -32 158q-16 32 -37 64l-48 69q-20 29 -38 29q-25 0 -56 -64q-91 -190 -160 -362q-67 -167 -96 -271q-4 -14 -4 -28q0 -48 51 -107q44 -51 57 -51q11 0 20 18 q71 144 162 295q10 -84 38 -249q8 -42 16 -63q16 -39 40 -47q35 -11 70 -11z" unicode="^"/>
<glyph horiz-adv-x="590" glyph-name="underscore" d="M34 -135h390q21 0 39 27q14 24 14 34q0 9 -17 9h-422q-19 0 -23.5 -7.5t-4.5 -28.5v-18q0 -16 24 -16z" unicode="_"/>
<glyph horiz-adv-x="639" glyph-name="a" d="M290 151q-1 -17 -1 -33v-71q0 -44 28 -52q20 -8 61 -8q27 0 31 23q48 294 123 655q26 126 56 253q13 55 13 89q0 56 -38 81q-75 49 -128 71q-60 25 -139 36q-7 1 -9 1h-8q-84 0 -123 -141q-51 -184 -99 -391q-45 -191 -78 -349q-43 -215 -43 -255q0 -27 27 -45 q9 -6 50 -22q12 -5 18 -5q12 0 26 42q8 28 27 82q41 12 96 21zM145 288q71 200 180 475q-17 -204 -30 -454q-77 -8 -150 -21z" unicode="a"/>
<glyph horiz-adv-x="623" glyph-name="b" d="M351 347q165 112 218 279q22 68 22 155q0 137 -50 274q-53 146 -220 146q-115 0 -248 -68q-128 -66 -205 -158q32 -237 55 -512l17 -201q7 -92 14 -148t74 -99q54 -35 84 -35q40 0 114 33q78 35 123 75q63 56 63 123q0 89 -61 136zM125 433q11 93 36 277q96 73 164 73 q53 0 58 -44v-6q0 -61 -73 -151q-80 -98 -185 -149zM103 245q50 21 87 21q22 0 40 -8q24 -10 24 -30q0 -34 -47 -70q-50 -39 -117 -58q2 34 6 69z" unicode="b"/>
<glyph horiz-adv-x="588" glyph-name="c" d="M293 178q-44 0 -76 -38q-50 -60 -79 -60q-47 0 -47 148q0 67 11 137q21 130 79 285q19 50 30 75q20 43 40 70q17 22 31 22q17 0 23.5 -25t6.5 -58q0 -20 -3 -69q-3 -44 -2 -69q2 -67 22 -103q24 -45 82 -62q10 -3 19 -3q25 0 54 85q42 122 59 271q5 43 5 73 q0 130 -91 228q-66 69 -146 103q-40 16 -75 16q-104 0 -184 -144q-69 -123 -110 -315q-36 -172 -36 -313q0 -237 62 -341q57 -98 186 -110h12q111 0 178 117q16 28 16 44q0 9 -5 15q-17 21 -62 21z" unicode="c"/>
<glyph horiz-adv-x="649" glyph-name="d" d="M-133 997l83 -874q7 -75 81 -115q49 -26 79 -26q11 0 27 5q186 58 304 253t118 420q0 60 -13 140q-31 199 -115 297q-81 94 -201 94q-98 0 -203 -60q-95 -54 -160 -134zM92 108q30 329 70 620q36 20 68 20q84 0 107 -106q6 -31 6 -64q0 -136 -58 -259q-71 -149 -193 -211 z" unicode="d"/>
<glyph horiz-adv-x="545" glyph-name="e" d="M-78 1008l27 -905q1 -36 32 -67q28 -28 66 -40q18 -6 22 -6q27 0 95 15q35 8 106 24q25 5 25 20q0 30 -13 59q-17 37 -45 37q-63 0 -144 -19q6 36 17 108q65 14 195 44q33 8 33 32q0 52 -19 110q-13 39 -51 39h-9q-57 0 -111 -12q18 98 56 292q75 18 144 31l133 24 q33 6 46 28q10 17 14 54q2 28 2 72q0 110 -8 156q-15 78 -64 78h-7q-52 0 -152 -24q-145 -35 -278 -95q-62 -29 -112 -55z" unicode="e"/>
<glyph horiz-adv-x="540" glyph-name="f" d="M482 794q34 7 47 32q8 17 12 57q2 31 2 80q0 118 -22 173q-20 46 -60 46h-9q-39 0 -152 -19q-164 -27 -287 -72q-65 -24 -114 -51q24 -161 36 -398q5 -101 7 -195l7 -305q1 -56 3 -79q8 -39 32 -50q50 -23 79 -23q21 0 21 17l14 100q8 58 20 130q81 22 184 44q34 4 34 31 q0 92 -33 132q-14 17 -38 17h-8q-35 0 -106 -12q15 96 51 288q93 19 280 57z" unicode="f"/>
<glyph horiz-adv-x="602" glyph-name="g" d="M536 745q7 50 7 86q0 103 -50 195q-53 96 -141 143q-56 30 -119 30q-93 0 -150 -89q-90 -141 -138 -326q-45 -174 -45 -354q0 -170 36 -274q38 -107 105 -142q22 -12 64 -23q33 -9 66 -9q128 0 235 224q14 29 14 51q0 32 -23 76q-27 51 -64 51q-20 0 -66 -9 q-81 -16 -132 -30q-19 -6 -19 -25q0 -7 2 -14q29 -104 104 -104h10q-54 -126 -99 -126q-50 0 -50 145q0 99 37 244q34 138 82 239q51 107 87 107q18 0 24 -37q1 -8 2 -52q1 -23 -2 -65q-2 -46 -2 -65v-4q0 -141 111 -164q5 -1 11 -1q16 0 24 10q15 18 39 109t40 203z" unicode="g"/>
<glyph horiz-adv-x="612" glyph-name="h" d="M632 885q19 50 19 82q0 48 -41 105q-51 71 -122 110q-18 9 -28 9q-35 0 -57 -97q-35 -159 -75 -361l-34 -170q-16 -83 -31 -155l-108 -11q-14 -2 -32 -5l29 234q14 118 29 222q4 28 4 48q0 63 -74 136q-54 53 -137 104q-29 18 -44 18q-34 0 -30 -96q6 -154 16 -304 l19 -278q8 -106 19 -316q1 -42 1 -84v-17q0 -42 66 -60q43 -12 51 -12q14 0 20 73q3 47 11 142q42 8 127 23q-8 -44 -17 -89q-10 -55 -10 -89q0 -25 38 -43q34 -17 62 -17q17 0 18 17q38 122 129 382q94 265 182 499z" unicode="h"/>
<glyph horiz-adv-x="368" glyph-name="i" d="M206 1053q-55 56 -104 83q-25 13 -42 13q-37 0 -47 -91q-26 -241 -44 -566q-10 -179 -14 -314q-2 -62 -2 -99v-17q0 -35 31 -52q12 -7 61 -20q11 -3 16 -3q13 0 16 17l78 364q46 212 117 480q11 42 11 66q0 23 -8 42q-18 43 -69 97z" unicode="i"/>
<glyph horiz-adv-x="578" glyph-name="j" d="M93 -9q28 -7 56 -7q70 0 121 65q56 74 122.5 265.5t168.5 563.5q15 55 15 76q0 39 -42 96q-58 76 -133 114q-21 10 -34 10q-43 0 -56 -98l-32 -238q-39 -276 -67 -439q-18 -101 -26 -142q-18 -83 -40 -138q-16 -41 -30 -40q-19 3 -27 36q-2 9 -7 48q-9 74 -105 122 q-13 8 -25 8q-25 0 -25 -54v-7q0 -32 12 -83q32 -128 154 -158z" unicode="j"/>
<glyph horiz-adv-x="603" glyph-name="k" d="M227 260q156 182 259 333q94 138 132 236q20 53 20 94v14q0 23 -7 84q-13 97 -40 146q-14 25 -32 25q-16 0 -58 -72l-48 -90l-66 -118q-48 -81 -143 -243q-35 -59 -67 -112l-58 -98l24 216q11 99 27 203q5 33 5 52q0 38 -49 102q-73 95 -162 140q-26 13 -45 13 q-38 0 -38 -89v-5q0 -206 26 -610q7 -99 14 -182l12 -145l6 -70q7 -49 24 -63q13 -11 77 -31q13 -4 22 -4q14 0 14 14v4q5 61 15 182q118 -191 169 -191q46 0 79 24q9 6 9 13q0 3 -12 25l-31 55q-52 90 -78 148z" unicode="k"/>
<glyph horiz-adv-x="515" glyph-name="l" d="M259 30q27 5 27 18q0 31 -12 60q-15 38 -42 38q-50 0 -140 -18q75 417 159 757q10 40 10 64q0 45 -48 106q-67 84 -149 123q-23 11 -38 11q-37 0 -45 -91q-22 -236 -32 -495q-8 -222 -8 -397q0 -105 8 -129q15 -46 87 -84q7 -4 20 -4q6 0 29 5q41 9 85 18z" unicode="l"/>
<glyph horiz-adv-x="776" glyph-name="m" d="M71 477q53 -246 94 -377q17 -53 61.5 -61.5t41.5 -8.5q11 0 22 24q86 195 214 444q-45 -140 -86 -297q-36 -135 -36 -161q0 -20 30 -36.5t60 -16.5q14 0 25 22q19 55 81 198l62 147q62 148 144 332l72 162q34 75 34 112q0 54 -80 119q-34 27 -70 50l-61 39q-37 23 -61 23 q-44 0 -82 -77q-20 -39 -42 -98l-108 -284q-55 -145 -99 -269q-21 -60 -34 -105l-47 367q-11 85 -11 106q-11 87 -25 123q-21 56 -76 95q-74 53 -153 83q-31 12 -63 20q-19 5 -31 5q-44 0 -44 -74v-20q0 -3 2 -23q30 -305 69 -576q28 -187 49 -312q8 -45 19 -94t80 -67 q19 -5 37 -5q15 0 14 18q-5 140 -5 224q0 112 3 249z" unicode="m"/>
<glyph horiz-adv-x="628" glyph-name="n" d="M274 285q-15 126 -30 283l-14 145q-4 63 -19 188q-16 78 -65 119q-90 75 -183 122q-22 11 -36 11q-45 0 -44 -101q2 -137 18 -413q13 -217 25 -366l19 -207q3 -35 47 -58q35 -19 70 -19q11 0 13 17q1 27 4 69l16 209q5 62 10 131q30 -126 44 -180q27 -101 56 -177 q12 -32 49 -50q32 -16 70 -16q20 0 26 20q46 144 121 360q95 275 175 491q24 64 24 100q0 38 -21 71q-43 68 -80 90q-49 29 -66 29q-40 0 -63 -95q-29 -122 -50 -214l-46 -203q-49 -221 -70 -356z" unicode="n"/>
<glyph horiz-adv-x="623" glyph-name="o" d="M396 1098q-60 46 -129 67q-16 5 -35 5q-107 0 -186 -132q-67 -111 -103 -289q-31 -151 -31 -279q0 -252 79 -386q57 -96 203 -96q57 0 97 34q44 37 92 125q92 169 134 402q20 115 20 226q0 59 -10 112q-27 132 -131 211zM315 748q6 -36 6 -87q0 -135 -29 -278 q-26 -132 -66 -215q-41 -86 -73 -86q-25 0 -38 46q-13 41 -13 113q0 66 12 141q20 124 72 266q53 147 95 147q25 0 34 -47z" unicode="o"/>
<glyph d="M113 174q97 32 192.5 93t160.5 136q123 141 123 323q0 161 -60 323q-49 131 -163 131q-100 0 -238 -97q-117 -83 -209 -188q-7 -8 -7 -61q0 -70 15 -249q7 -75 14 -154l14 -149q16 -167 16 -207q0 -12 -1 -16v-7q0 -38 63 -57q36 -11 46 -11q14 0 17 17q3 56 17 173z M136 370l23 160q11 81 25 167q80 57 147 57q64 0 64 -54q0 -78 -69 -174q-75 -104 -190 -156z" glyph-name="p" unicode="p"/>
<glyph horiz-adv-x="622" glyph-name="q" d="M341 78q52 65 97 184q68 178 91 383q7 67 7 130q0 141 -67 242q-72 108 -202 148q-16 5 -35 5q-107 0 -186 -132q-67 -111 -103 -289q-31 -151 -31 -279q0 -252 79 -386q56 -95 203 -95q34 0 59 11q33 -24 47 -24q21 0 50 11.5t29 23.5q0 6 -9 20q-6 10 -12.5 21.5 t-16.5 25.5zM176 91q-11 -9 -22 -9q-53 0 -53 154q0 188 83 408q58 153 101 153q35 0 35 -132q0 -135 -27 -281q-27 -141 -61 -205q-33 -9 -39 -11q-23 -8 -35 -18q-8 -7 -8 -15q0 -18 26 -44z" unicode="q"/>
<glyph horiz-adv-x="645" glyph-name="r" d="M107 192q58 -78 137 -149q25 -22 29 -26q18 -14 34 -19q12 -3 23 -3q21 0 48 10q31 10 31 27q0 7 -19 29q-13 14 -25 28q-50 59 -112 151q161 91 238 191q96 124 96 299q0 162 -60 319q-57 149 -175 149q-88 0 -205 -79q-92 -62 -194 -164q-29 -29 -29 -209 q0 -147 21 -410l11 -124l14 -153q3 -35 30 -51q15 -8 59 -18q9 -2 14 -2q11 0 15 17q5 62 19 187zM182 703q73 58 143 58q72 0 72 -59q0 -66 -75 -166q-83 -109 -191 -161q16 109 51 328z" unicode="r"/>
<glyph horiz-adv-x="561" glyph-name="s" d="M-81 163q-11 -9 -11 -20q0 -16 42 -54q114 -103 216 -103h7q93 0 152 64q43 47 43 90q0 47 -73 115l-70 64q-40 37 -64 69q-29 38 -29 99q0 135 107 282q39 54 59 54q10 0 10 -25q0 -35 -25.5 -154.5t-25.5 -143.5q0 -91 100 -142q11 -7 21 -7q19 0 35 31q46 87 91 233 q49 157 49 251q0 106 -59 209q-56 95 -147 162q-42 31 -89 31q-80 0 -147 -90q-87 -116 -148 -290q-57 -165 -57 -295q0 -195 112 -304q28 -27 63 -54l64 -50q68 -53 68 -72q0 -21 -39 -21q-54 0 -142 63q-28 20 -65 20q-27 0 -48 -12z" unicode="s"/>
<glyph horiz-adv-x="603" glyph-name="t" d="M559 813q34 6 46 28q8 16 8 54v22q0 106 -24 206q-8 32 -23 47q-18 17 -54 15q-54 -3 -167 -20q-207 -31 -373 -76q-96 -27 -156 -52q-26 -11 -26 -34q0 -26 35 -101q39 -84 76 -141q47 -71 73 -71q9 0 49 13q25 8 78 23q-12 -174 -19 -330q-8 -167 -8 -264v-39 q0 -6 1 -16v-15v-6q0 -31 42 -52q36 -19 68 -19q16 0 17 16q24 140 62 320l99 460q119 18 196 32z" unicode="t"/>
<glyph horiz-adv-x="611" glyph-name="u" d="M-15 78q59 -90 187 -90q74 0 130 71t127 264q60 165 175 542q18 59 18 83q0 27 -35 80q-30 45 -67 83q-53 53 -88 53q-42 0 -57 -97q-37 -236 -79 -457q-48 -251 -84 -373q-45 -154 -80 -154q-36 0 -36 124q0 90 22 262q3 25 31 183q20 112 20 183q0 132 -125 231 q-81 64 -108 64q-33 0 -35 -87q-3 -135 -3 -256q0 -278 17 -446q20 -187 70 -263z" unicode="u"/>
<glyph horiz-adv-x="626" glyph-name="v" d="M619 843q27 72 27 113q0 65 -56 146q-55 77 -93 77q-35 0 -57 -75q-66 -233 -132 -467q-80 -279 -141 -464q-23 145 -51 352l-53 375q-17 118 -93 185q-65 57 -144 57h-5q-41 0 -41 -40q0 -22 13 -77q79 -335 148 -586q63 -233 104 -347q27 -75 153 -109q15 -4 23 -4 q21 0 34 24q21 39 101 212q109 235 205 475q10 26 58 153z" unicode="v"/>
<glyph horiz-adv-x="801" glyph-name="w" d="M75 219q-10 63 -28 205l-14 113q-9 68 -25 205q-15 119 -17 128q-13 73 -40 123q-35 64 -115 103q-39 20 -89 40q-17 7 -31 7q-23 0 -23 -33q0 -26 12 -76q46 -190 109 -417q47 -167 104 -348q23 -74 73 -219q20 -54 96 -65q21 -3 40 -3q17 0 25 18q5 19 15 50l23 70 q12 39 27 83l30 87q4 -72 14 -137l8 -58q2 -16 7 -43q7 -36 51 -54q34 -15 76 -15q21 0 32 18q16 33 43 85l61 118q34 65 75 141l83 155q42 79 87 160l86 155q49 87 49 156q0 62 -53 135q-48 66 -75 66q-26 0 -63 -87l-50 -117l-124 -303q-34 -82 -65 -161l-111 -277 q4 43 9 93l30 292q4 43 11 129l3 53q0 52 -37 79q-41 30 -48 35q-28 19 -52 29q-18 7 -36 7q-30 0 -47 -64q-35 -129 -95 -440q-12 -63 -22 -120z" unicode="w"/>
<glyph d="M209 627q-28 113 -85 339q-36 137 -111 157l-42 4q-20 2 -37 2h-37q-74 0 -74 -50q0 -40 74 -231q29 -75 60 -153l119 -301q-51 -103 -74 -151q-40 -86 -64 -156q-5 -14 -5 -22q0 -19 39.5 -51.5t60.5 -32.5q15 0 54 63l38 61q20 33 41 65l42 -102q12 -28 18 -40 q15 -29 26 -34q19 -7 60 -7q55 0 55 18q0 5 -3 13q-14 52 -34 129l-46 179l156 222q66 95 152 219q50 73 50 144q0 67 -30 172q-20 67 -50 100q-15 16 -32 16q-26 0 -58 -57q-103 -186 -263 -515z" glyph-name="x" unicode="x"/>
<glyph horiz-adv-x="594" glyph-name="y" d="M599 905q9 30 9 58q0 22 -19 77q-39 111 -81 149q-17 15 -34 15q-32 0 -50 -72l-137 -364q-62 -161 -113 -286l-60 258q-32 136 -66 257q-28 98 -64.5 138.5t-103.5 40.5q-115 0 -115 -48q0 -22 22 -85l154 -437q37 -103 70 -192l57 -158l-3 -201q-1 -34 39 -57 q32 -18 71 -18q11 0 16 18q21 121 38 193q83 145 243 438q29 57 55 110q31 66 38 82q22 47 34 84z" unicode="y"/>
<glyph horiz-adv-x="535" glyph-name="z" d="M228 739q-107 -208 -190 -396q-37 -85 -54 -126q-30 -71 -49 -128q-2 -4 -2 -12q0 -22 32 -50q35 -31 65 -44q8 -3 20 -3t27 4q83 21 178 36q28 4 28 19q0 28 -14 57q-18 36 -48 36q-45 0 -122 -22q184 291 400 616q45 68 45 154v8q0 13 1 40v40q0 103 -9 142 q-14 58 -58 58h-9q-191 -18 -359 -57q-140 -33 -199 -71q-32 -21 -32 -44q0 -30 39 -120q20 -42 57 -128q32 -54 74 -54q11 0 23 3q29 11 78 23q66 15 78 19z" unicode="z"/>
<glyph horiz-adv-x="499" glyph-name="braceleft" d="M242 48q-12 52 -52 52h-6q-1 0 -47 -4q31 190 93 478q21 97 45 198q76 10 140 22q33 6 44 25q8 15 8 52v9q0 114 -11 183q-18 105 -71 105h-6q-108 0 -232 -32q-63 -16 -73 -111q-15 -147 -26 -293l-22 -273q-33 -6 -66 -11q-45 -12 -45 -37q0 -34 38.5 -94t60.5 -62 l-3 -95q-2 -26 -4 -74q-1 -41 42 -76q33 -28 62 -28q24 0 57 6l56 12q25 0 25 14q0 4 -7 34z" unicode="{"/>
<glyph horiz-adv-x="518" glyph-name="bar" d="M345 1209q-40 60 -94 108q-58 51 -83 51q-41 0 -53 -110q-26 -241 -44 -491l-33 -475q-7 -102 -10 -174l-5 -101q0 -29 26 -44q13 -8 52 -19q7 -2 14 -2q13 0 16 18q12 73 51 251l42 190q46 214 96 421l47 193q15 61 15 88q0 40 -37 96z" unicode="|"/>
<glyph horiz-adv-x="537" glyph-name="braceright" d="M371 806q13 46 13 75q0 35 -22 104q-10 29 -21 58l-20 51q-15 36 -25 49q-18 24 -46 24q-9 0 -22 -2q-94 -14 -124 -21q-70 -14 -121 -34q-46 -19 -46 -70q0 -20 7 -43l26 -88q31 -98 61 -131q12 -14 35 -14q15 0 37 5q27 6 37 7q-34 -215 -58 -389q-14 -97 -37 -290 q-22 -4 -44 -7q-26 -5 -43 -13q-9 -5 -10 -11v-2q0 -9 17 -32q8 -12 25 -31q16 -15 34 -15q11 0 98 14q34 2 39 25q12 55 22 95l32 125q2 0 81 12q41 5 41 33q0 97 -34 140q-14 16 -36 16q26 87 52 178z" unicode="}"/>
<glyph horiz-adv-x="655" glyph-name="asciitilde" d="M380 566q49 0 126 63q117 96 168 204q15 33 15 56q0 34 -23 58.5t-56 24.5q-42 0 -87 -54q-4 -5 -13 -18l-9 -12q-37 -52 -64 -81q-15 -17 -22 -17h-1q-33 4 -92 50q-30 24 -91 68q-88 53 -151 53q-41 0 -99 -44q-85 -67 -131 -153q-14 -27 -17 -48q-2 -8 -2 -16v-16 q0 -113 91 -113q38 0 62 27l32.5 43.5t54.5 43.5q35 0 89 -21t76 -46q46 -52 144 -52z" unicode="~"/>
<glyph horiz-adv-x="783" glyph-name="florin" d="M-64 420q0 -31 56 -87q60 -60 100 -60q17 0 44 5q33 5 44 6q-1 -24 -3 -71q-3 -31 -9 -92q-2 -18 -2 -22v-1q-26 -111 -55 -111h-1q-15 1 -25 34q-23 69 -62 103q-21 18 -55 32q-14 6 -22 6q-20 0 -20 -32q0 -98 63.5 -161t159.5 -63q71 0 116 61q35 50 67 178 q16 64 35 159q107 7 176 10q27 1 36 5q18 6 18 27v7q-1 26 -14 84q-19 53 -82 53h-48q-24 0 -50 -2q5 24 10 51l17 91q3 16 3 18q46 145 90 241q46 102 77 102h1q26 -7 26 -60q0 -39 -13 -115.5t-13 -114.5q0 -108 77 -164q11 -10 24 -10q32 0 69 78q52 112 82 258 q19 97 19 193q0 166 -73 265q-53 71 -135 98q-33 11 -63 11q-79 0 -152 -74q-80 -81 -138 -219q-70 -167 -99 -408q-15 -119 -24 -255q-63 -5 -117 -11q-38 -5 -77 -10q-58 -11 -58 -33z" unicode="ƒ"/>
<glyph horiz-adv-x="911" glyph-name="ellipsis" d="M519 54q-2 -4 -2 -9v-9q0 -53 57 -53h4q39 0 68 30.5t29 59.5q0 25 -19.5 39.5t-45.5 14.5q-30 0 -57 -21.5t-34 -51.5zM240 54q0 -31 21.5 -51t52.5 -20h4q41 0 61 32q14 21 14 39v4q0 24 -20 45q-23 24 -61 24q-31 0 -51.5 -21t-20.5 -52zM-2 3q27 -20 56 -20h4 q39 0 53 34q3 8 4 15q0 31 -20 58q-29 37 -82 37t-53 -53q0 -43 38 -71z" unicode="…"/>
<glyph horiz-adv-x="600" glyph-name="dagger" d="M-185 598q0 -39 65 -109q69 -74 114 -74q15 0 78 10q-9 -218 -9 -310q0 -70 13 -88t81 -37q11 -3 16 -3q13 0 16 17q5 24 15 80l20 105q11 57 25 123l29 138q80 9 218 15q30 1 42 7q19 9 19 34v8q-1 35 -12 106q-21 67 -92 67q-57 0 -121 -4q7 30 16 63l16 63 q19 72 19 102q0 39 -43 99q-65 87 -143 127q-24 12 -41 12q-36 0 -45 -91q-9 -131 -29 -393q-66 -7 -122 -15q-42 -5 -84 -11q-61 -13 -61 -41z" unicode="†"/>
<glyph horiz-adv-x="649" glyph-name="daggerdbl" d="M-95 222q0 -23 50 -66.5t85 -43.5q2 0 62 7v-57q0 -35 31 -52q13 -7 61 -20q11 -3 16 -3q13 0 24 49q5 32 18 98q45 3 90 5l90 4q46 2 46 22q0 68 -40 97q-18 12 -48 12q-52 0 -108 -2l19 86q10 45 21 92q81 9 218 15q31 1 44 8q19 9 19 36v5q0 34 -11 105q-21 68 -91 68 q-57 0 -121 -4q18 62 49 186q5 27 5 46q0 39 -42 96q-64 85 -140 125q-23 12 -40 12q-37 0 -48 -90q-9 -74 -18 -196q-12 -151 -16 -197q-121 -13 -223 -30q-45 -8 -45 -37q0 -39 63 -109q67 -74 113 -74q30 0 77 10l-8 -164q-50 -4 -92 -8q-31 -4 -62 -7q-48 -7 -48 -24z " unicode="‡"/>
<glyph horiz-adv-x="985" glyph-name="perthousand" d="M515 759q37 63 37 137q0 53 -22 124.5t-44 71.5q-17 0 -35 -37q-55 -112 -131 -180q-66 -59 -124 -59q-73 0 -124 92q-38 68 -61 100q-38 53 -82 82q-27 17 -66 33q-10 4 -22 4q-57 0 -84 -76q-19 -56 -19 -152q0 -167 58 -318t139 -206q54 -36 101 -36q81 0 98 124 q5 37 5 81q0 73 -12 153q34 -17 68 -17q58 0 105 46q-93 -209 -176 -422q-78 -196 -78 -235q0 -23 19 -45q20 -26 42 -26q7 0 12 8q14 37 90 189q95 187 231 431q25 46 75 133zM525 248q0 90 -102 122q-3 1 -14 1q-67 0 -107 -81q-34 -69 -34 -143q0 -151 124 -151 q66 0 103 82q30 69 30 153v17zM846 277q0 31 -20 60q-25 33 -68 33q-37 0 -65 -21q-58 -43 -98 -116q-43 -78 -43 -147q0 -91 94 -91q68 0 129 90q25 38 43 82q28 72 28 110zM-45 882q26 -61 47 -198q12 -80 12 -145q0 -103 -31 -103q-24 0 -52 85q-32 99 -32 227 q0 61 9 111.5t24 50.5q11 0 23 -28zM761 265q0 -53 -51.5 -136t-72.5 -83q-13 0 -13 18q0 21 23.5 73.5t51.5 92.5q32 47 54 47q3 0 5.5 -2t2.5 -10zM432 277q8 -3 8 -36q0 -68 -25 -134q-24 -61 -45 -61q-19 0 -20 38q-1 29 13 83q9 35 29.5 73t35.5 38q3 0 4 -1z" unicode="‰"/>
<glyph horiz-adv-x="508" glyph-name="guilsinglleft" d="M316 467q28 13 28 31q0 28 -33 86q-36 62 -62 62q-32 0 -130 -64q-74 -48 -145 -106q-29 -17 -29 -82v-28q1 -18 1 -27v-11q0 -37 21 -50q93 -43 123 -58q69 -34 120 -65q13 -8 19 -8q10 0 23.5 28.5t13.5 62.5q0 26 -46 58q-34 19 -103 60q65 39 199 111z" unicode="‹"/>
<glyph horiz-adv-x="803" glyph-name="OE" d="M134 1165q-17 5 -35 5q-91 0 -152 -98q-49 -80 -76 -222q-21 -114 -21 -232q0 -161 38 -313q52 -207 140 -267q70 -50 165 -50q48 0 87 27q22 -22 50 -22q9 0 28 4q4 1 177 36q18 4 23.5 9t5.5 22q-3 20 -6 41.5t-16 34.5q-10 9 -27 9h-9q-14 0 -70 -7q-32 -4 -67 -12 q15 46 31 109q67 15 202 45q22 5 29.5 13t7.5 30v6q0 5 1 15v15q0 104 -56 104h-6q-8 0 -57 -4q-28 -3 -56 -8q30 99 92 295q78 18 149 31l137 25q37 7 53 33q11 18 19 61q22 114 22 214q0 85 -56 85h-7q-45 0 -145 -22q-136 -31 -274 -88q-64 -26 -117 -52q-83 93 -204 128 zM223 761q20 -56 28 -147q4 -47 4 -95q0 -50 -4 -92l-10 -113q-13 -102 -41 -169q-27 -63 -56 -63q-33 0 -55 81q-20 72 -20 180q0 121 37 282q39 170 85 170q19 0 32 -34z" unicode="Œ"/>
<glyph horiz-adv-x="502" glyph-name="quoteleft" d="M103 688q20 -29 48 -43q17 -8 60 -20q4 -1 10 -1q28 0 28 36v11q0 7 -2 14q-6 36 -13 92l-36 272q-10 78 -19 161l-19 167q-13 107 -18 161q-12 127 -62 127q-26 0 -74.5 -52t-64.5 -93q-24 -61 -24 -115q0 -57 29 -198q25 -125 65 -266q17 -64 34 -116q33 -104 58 -137z " unicode="‘"/>
<glyph horiz-adv-x="472" glyph-name="quoteright" d="M197 837q52 224 74 418q7 62 7 100q0 120 -94 244q-77 100 -108 100q-35 0 -38 -124l-32 -767q-1 -10 -4 -54q-3 -33 -3 -53q0 -51 38 -51h4q57 0 82 17q15 10 27 29q21 32 47 141z" unicode="’"/>
<glyph horiz-adv-x="628" glyph-name="quotedblleft" d="M54 709q30 -35 75 -42q32 -6 43 -6h4q28 0 28 28q0 9 -7.5 38t-24.5 95l-35 128q-20 71 -41 153l-44 166q-45 167 -83 334q-29 126 -68 126q-26 0 -67 -65q-37 -61 -55 -126q-10 -36 -10 -76q0 -74 49 -225q41 -126 105 -275q28 -65 53 -117q28 -58 35 -71q23 -43 43 -65 zM359 637q12 -4 40 -12q4 -1 10 -1q32 0 32 46q0 32 -4 82q-5 70 -6 83q-5 96 -9 214l-9 245q-4 100 -7 244q-3 127 -53 127q-28 0 -78.5 -52t-72.5 -93q-38 -72 -38 -141q0 -10 10 -102q19 -179 43 -305q13 -74 28 -135q27 -110 52 -149.5t62 -50.5z" unicode="“"/>
<glyph horiz-adv-x="624" glyph-name="quotedblright" d="M129 846q23 146 34 300q6 82 6 154q0 85 -20.5 144t-71.5 127q-55 71 -103 109q-24 19 -37 19q-29 0 -29 -86v-18q0 -2 1 -20q2 -36 8 -161l7 -167q4 -83 6 -163l5 -150q3 -70 4 -126l2 -92q1 -66 42 -66h4q58 0 84 19t42 81q4 16 16 96zM360 720q51 97 115 297 q41 129 61 229q9 49 9 79q0 92 -66 209l-38 65q-23 41 -46 41q-37 0 -54 -107q-28 -177 -54 -312l-29 -154q-15 -76 -28 -142l-43 -205q-5 -22 -5 -32q0 -46 74 -46q39 0 64 21q19 16 40 57z" unicode="”"/>
<glyph horiz-adv-x="484" glyph-name="bullet" d="M-3 275q31 -73 93 -96q29 -12 60 -12q86 0 134 85q22 38 32 84q7 30 7 50q0 72 -45 134q-54 74 -145 74q-55 0 -95 -42q-35 -36 -51 -93q-10 -39 -10 -79q0 -57 20 -105z" unicode="•"/>
<glyph horiz-adv-x="715" glyph-name="endash" d="M-66 408q-40 -6 -40 -27q0 -30 55 -83q57 -56 97 -56q11 0 23 2q146 25 416 37q53 2 53 31v6q-1 26 -13 79q-21 50 -81 50q-122 0 -277 -12q-111 -9 -233 -27z" unicode="–"/>
<glyph horiz-adv-x="1004" glyph-name="emdash" d="M-135 408q-35 -6 -35 -24q0 -28 65 -83q69 -59 110 -59q10 0 22 2q62 10 242 17q81 3 172 6l326 8q34 0 69 1q51 2 69 7q22 7 24 40v40q0 43 -16 62t-58 19q-32 0 -87 -1l-125 -2q-69 -1 -148 -3l-158 -4q-178 -6 -294 -12q-60 -3 -178 -14z" unicode="—"/>
<glyph horiz-adv-x="789" glyph-name="trademark" d="M357 699q5 -153 22 -322q2 -21 7 -32q7 -16 21 -23q3 -1 30 -9q7 -2 10 -2q9 0 19 22q13 29 33 71l47 96q42 86 109 216q-52 -155 -84 -262q-36 -118 -36 -139q0 -15 20 -30.5t42 -15.5q14 0 30 40q10 26 19 52l90 224q26 65 54 132l55 131q21 49 43 99q29 71 29 98 q0 35 -47 76q-13 10 -78 54q-19 13 -34 13q-26 0 -54 -48q-14 -25 -30 -63l-129 -295q-26 -59 -74 -179l2 129q0 53 1 90l1 60q-1 26 2 76q0 60 -4 78q-8 39 -40 65q-54 44 -98 60q-20 7 -39 7q-33 0 -41 -74q-20 -182 -34 -423l-8 -137q-8 -137 -8 -196q0 -30 23.5 -50 t53.5 -20q11 0 15 17q12 122 39 288zM180 958q24 5 24 23q0 30 -17 86q-15 48 -36 90t-57 42q-107 -10 -243 -39q-52 -12 -77 -19q-45 -12 -75 -27q-25 -13 -25 -26q0 -14 28 -69q31 -59 59 -99q36 -50 54 -50q6 0 30 9q17 5 51 16q12 -160 31 -313q9 -80 34 -237 q2 -29 33 -51t62 -22q10 0 10 13v3q0 52 -3 141q-3 102 -3 141l-3 364q21 4 123 24z" unicode="™"/>
<glyph horiz-adv-x="641" glyph-name="scaron" d="M44 3856q-10 2 -15 2q-48 0 -48 -126q0 -62 11 -173l99 -977q33 -329 54 -582q9 -116 17 -234q5 -68 6 -79q5 -46 15 -78q19 -65 67 -133q36 -54 47 -54q16 0 42 49q54 103 149 312q126 277 245 573q54 135 65 163q34 94 49 170q16 81 16 178v16q0 177 -17 356 q-5 55 -8 78q-7 46 -16 76q-8 23 -17 23q-20 0 -60 -120q-53 -159 -101 -299l-100 -290q-108 -308 -191 -531l-6 225l-24 754q-3 81 -5 139l-4 81q-6 107 -26 201q-28 136 -75 182q-60 81 -128 94q-21 4 -41 4zM-81 160q-10 -7 -10 -19q0 -16 41 -54q110 -101 214 -101h7 q93 0 152 64q42 46 42 86q0 45 -73 113q-34 31 -69 62q-39 36 -63 67q-29 37 -29 96q0 98 68 216q17 30 41 61q35 46 52 46q10 0 10 -25q0 -36 -24 -148t-24 -134q0 -92 99 -141q14 -7 21 -7q18 0 48 63q45 94 84 228q37 127 37 201q0 103 -59 202q-55 92 -144 156 q-40 29 -85 29q-80 0 -144 -85q-79 -105 -139 -258q-28 -72 -45 -142q-11 -47 -17 -129q-2 -15 -2 -42q0 -176 111 -283q38 -37 125 -102q68 -53 68 -71q0 -19 -37 -19q-53 0 -142 61q-29 20 -66 20q-28 0 -48 -11z" unicode="š"/>
<glyph horiz-adv-x="530" glyph-name="guilsinglright" d="M358 390q7 23 7 32q0 19 -23 36q-120 90 -254 166q-43 24 -78 41q-11 7 -23 7q-22 0 -23 -36q-2 -160 64 -190q47 -21 136 -71l-70 -28q-78 -31 -121 -60q-20 -14 -20 -24q0 -13 29 -44q18 -20 45 -41q16 -13 26 -13q6 0 19 7q63 33 207 86q32 12 53 56q8 18 26 76z" unicode="›"/>
<glyph horiz-adv-x="803" glyph-name="oe" d="M134 1165q-17 5 -35 5q-91 0 -152 -98q-49 -80 -76 -222q-21 -114 -21 -232q0 -161 38 -313q52 -207 140 -267q70 -50 165 -50q48 0 87 27q22 -22 50 -22q9 0 28 4q4 1 177 36q18 4 23.5 9t5.5 22q-3 20 -6 41.5t-16 34.5q-10 9 -27 9h-9q-14 0 -70 -7q-32 -4 -67 -12 q15 46 31 109q67 15 202 45q22 5 29.5 13t7.5 30v6q0 5 1 15v15q0 104 -56 104h-6q-8 0 -57 -4q-28 -3 -56 -8q30 99 92 295q78 18 149 31l137 25q37 7 53 33q11 18 19 61q22 114 22 214q0 85 -56 85h-7q-45 0 -145 -22q-136 -31 -274 -88q-64 -26 -117 -52q-83 93 -204 128 zM223 761q20 -56 28 -147q4 -47 4 -95q0 -50 -4 -92l-10 -113q-13 -102 -41 -169q-27 -63 -56 -63q-33 0 -55 81q-20 72 -20 180q0 121 37 282q39 170 85 170q19 0 32 -34z" unicode="œ"/>
<glyph horiz-adv-x="427" glyph-name="exclamdown" d="M16 -5q26 -11 53 -18q11 -3 17 -3q15 0 22 22q21 68 62 238q37 155 70 316q7 34 7 54q0 45 -55.5 89t-100.5 44q-25 0 -31 -56q-19 -169 -47 -352q-14 -91 -46 -273q-2 -10 -2 -12q0 -27 51 -49zM362 1106q0 104 -38 167q-37 60 -97 60q-62 0 -108 -92q-53 -104 -53 -213 q0 -152 78 -218q27 -24 65 -24q52 0 92 64q18 29 31 69q30 91 30 187z" unicode="¡"/>
<glyph horiz-adv-x="532" glyph-name="cent" d="M261 229q-35 0 -59 -31q-39 -50 -61 -50q-36 0 -36 112q0 138 68 313q43 113 71 113q21 0 21 -62q0 -22 -2 -44v-12q0 -59 13 -89q18 -42 66 -57q7 -2 13 -2q18 0 35 51q23 69 32 168q2 28 2 49q0 67 -35 120l-20 21q56 200 56 298q0 55 -17 120q-18 72 -46 113 q-18 25 -35 25q-23 0 -45 -83q-18 -64 -40 -187l-19 -104q-9 -52 -17 -95q-72 0 -130 -100q-49 -83 -80 -221q-26 -119 -26 -223q0 -229 92 -281v-25q0 -32 15 -61q18 -35 48 -35q9 0 15 31q3 21 11 63h10q91 0 140 99q12 24 12 35q0 31 -52 31z" unicode="¢"/>
<glyph horiz-adv-x="600" glyph-name="sterling" d="M22 460l24 4q-2 -34 -5 -102q-29 -3 -87 -12q-47 -11 -47 -33q0 -25 36.5 -71.5t59.5 -46.5q6 0 15 2l14 3q-1 -32 -1 -59v-49q0 -47 75 -95q19 -12 34 -12q9 0 30 5q30 7 85 18l90 18q27 6 27 19q0 58 -24 86q-10 11 -26 11q-50 0 -140 -18l22 102q59 5 137 9 q28 1 28 22q0 68 -33 105q-10 10 -25 11.5t-29 2.5h-21h-11q-6 0 -11 -1l23 100q23 0 70 -1.5t70 -1.5q27 0 27 40v4q0 99 -29 141q-12 17 -39 22l-46 6l20 69q27 91 38 142q7 32 7 54q0 45 -46 104q-66 83 -144 121q-22 10 -36 10q-36 0 -49 -91q-11 -78 -22 -202 q-15 -162 -20 -203q-42 -2 -126 -11q-71 -12 -71 -45q0 -22 23.5 -68.5t40.5 -75.5q23 -38 53 -38h7q1 0 7.5 1t24.5 4z" unicode="£"/>
<glyph horiz-adv-x="672" glyph-name="currency" d="M6 393v-61q0 -15 1 -31q-23 -3 -47 -6q-29 -5 -45 -14q-10 -6 -10 -16q0 -23 37 -67t59 -44q17 0 27 4q23 -89 75 -130q49 -39 135 -47h12q113 0 182 117q18 31 18 45q0 16 -21.5 25.5t-44.5 9.5q-44 0 -77 -38q-53 -60 -82 -60q-39 0 -41 101q35 4 70 6l71 4q27 1 27 18 q0 34 -16 68q-22 43 -55 43h-56q-15 0 -32 -1q2 17 19 92h43q20 0 59 -1t59 -1q22 0 22 29q0 88 -35 136q-15 20 -39 22l-48 5q37 94 69 151q35 65 59 65q26 0 26 -67q0 -26 -6 -77.5t-6 -76.5q-1 -136 97 -165q10 -3 19 -3q26 0 61 90q47 124 69 282q6 44 6 73 q0 79 -36 145.5t-109 122.5q-81 63 -152 63q-105 0 -186 -137q-113 -190 -159 -462q-37 -2 -111 -10q-61 -11 -61 -39q0 -18 24 -62q20 -37 44 -71t50 -34h7q3 0 8.5 1t19.5 3z" unicode="¤"/>
<glyph horiz-adv-x="594" glyph-name="yen" d="M23 249l48 7q-1 -25 -3 -76q-26 -2 -79 -10q-44 -9 -44 -24q0 -20 31.5 -55t51.5 -35q10 0 38 5q-1 -2 -1 -6q0 -33 40 -56q34 -19 69 -19q14 0 21 35q3 21 11 64q39 3 118 7q25 1 25 17q0 27 -13 54q-19 35 -49 35h-56l22 36q11 18 22 38q16 0 48 -1t48 -1q21 0 21 23 q0 30 -8 63q-11 44 -30 54q119 208 181 333q84 171 84 228q0 20 -19 76q-36 106 -80 148q-17 15 -34 15q-32 0 -50 -72l-141 -364q-63 -161 -115 -286q-68 313 -121 515q-26 100 -63 139.5t-103 39.5q-116 0 -116 -49q0 -20 22 -84q0 -1 56 -167l110 -321q26 -75 50 -140 l-60 -6q-43 -8 -43 -30q0 -14 19 -48q12 -23 35 -55q20 -28 44 -28q6 0 13 1z" unicode="¥"/>
<glyph horiz-adv-x="446" glyph-name="brokenbar" d="M347 1209q-41 61 -95 109q-58 51 -82 51q-42 0 -54 -111l-21 -198q-8 -79 -12 -134l-8 -94q-4 -49 -7 -163q-1 -4 -3 -52q-2 -36 -2 -63v-15q0 -53 32 -83q25 -23 79 -45q10 -4 20 -4q16 0 27 39q19 71 41 158l61 240l45 181q15 62 15 88q0 42 -36 96zM144 287 q-27 17 -58 28q-14 4 -22 4q-23 0 -28 -35q-7 -46 -12 -122q-3 -35 -3 -67v-79q0 -24 28 -42.5t63 -18.5q17 0 41 90q12 54 38 160q5 19 5 25q0 11 -6 19q-13 16 -46 38z" unicode="¦"/>
<glyph horiz-adv-x="763" glyph-name="section" d="M-70 138q-8 -5 -8 -17q0 -17 44 -53q119 -98 220 -98h7q87 0 134 51q13 14 22 29q17 -3 42 -3q106 1 173 76q53 59 53 106q0 49 -69 126q-33 35 -65 70q-36 41 -58 76t-22 87q0 81 48 188q40 89 98 166q53 70 74 70q9 0 9 -19q0 -27 -18 -93q-8 -30 -18 -63l-19 -64 q-37 -122 -37 -162q0 -92 91 -144q14 -8 22 -8q19 0 40 37q71 126 139 296q45 114 68 214q13 57 13 122q0 107 -51 214q-48 103 -130 178q-44 40 -94 40q-73 0 -142 -73q-21 -22 -35 -41q-123 -165 -194 -345q-49 43 -108 43q-77 0 -130 -80q-99 -149 -137 -345 q-12 -63 -12 -117q0 -226 137 -346q27 -24 133 -99q72 -51 72 -68q0 -18 -35 -18q-55 0 -145 59q-29 19 -66 19q-28 0 -46 -11zM85 456q-20 61 -20 117q0 72 40 127q30 42 52 42q5 0 12 -5q5 -123 16 -191q3 -25 10 -47q28 -89 118 -166q32 -27 94 -84q42 -44 42 -61 q0 -23 -42 -23q-36 0 -86 29q-18 17 -40 35l-45 36q-122 98 -151 191z" unicode="§"/>
<glyph horiz-adv-x="993" glyph-name="copyright" d="M1101 908q-6 180 -99 362q-139 271 -351 367q-68 30 -133 30q-219 0 -380 -159q-144 -142 -223 -384q-72 -224 -72 -470q0 -250 72 -421q75 -179 214 -233q85 -33 197 -33q161 0 313 67q165 72 267 206q81 107 141 263q64 166 64 305q0 54 -10 100zM836 324 q-100 -133 -224 -216q-115 -78 -243 -78q-71 0 -159 24q-91 25 -140 146q-45 110 -45 276q0 282 116 516q78 158 196 224q60 33 130 33q100 0 188 -62q77 -54 134 -147q119 -196 119 -433q0 -82 -17 -155q-20 -82 -55 -128zM495 250q-35 0 -58 -31q-39 -52 -61 -52 q-39 0 -39 121q0 136 64 315q25 68 49 101q11 15 20 15q12 0 19 -24q5 -18 5 -51v-17q-1 -11 -1 -17v-41q5 -49 20 -75q19 -32 61 -45q10 -3 15 -3q24 0 46 104q19 91 19 166q0 83 -58 153q-27 32 -70 58q-48 29 -85 29h-8q-72 0 -129 -99q-49 -84 -78 -220 q-26 -122 -26 -227q0 -142 32 -217q47 -112 168 -112q87 0 137 102q11 23 11 35q0 32 -53 32z" unicode="©"/>
<glyph horiz-adv-x="434" glyph-name="ordfeminine" d="M257 583q31 118 97 354q9 30 9 47q0 26 -21 56q-8 11 -40 47q-53 58 -91 86q-20 14 -30 14q-18 0 -40 -38q-108 -184 -204 -444q-25 -70 -41 -123q-4 -13 -4 -29q0 -41 44 -94q39 -47 57 -47q3 0 17 3q33 6 98 18q-16 -98 -16 -131q0 -25 30 -42q26 -15 44 -15q9 0 27 69 q5 22 15 66.5t16 66.5l48 2q29 6 29 30v5l-8 60q-9 39 -36 39zM11 561l37 72q78 152 140 245q-19 -101 -56 -302q-41 -4 -121 -15z" unicode="ª"/>
<glyph horiz-adv-x="784" glyph-name="guillemotleft" d="M-101 319q10 -11 29 -21q126 -65 230 -106q64 -26 75 -26q19 0 19 42q0 40 -6 59q-10 29 -39 41q-55 23 -133 63q99 42 147 68q80 43 80 71q0 20 -32 69q-60 93 -89 93q-8 0 -26 -14q-83 -65 -243 -146q-31 -16 -31 -60v-11q0 -19 2 -40q3 -34 5 -43q4 -31 12 -39z M290 312q0 -22 25 -38q74 -47 195 -103q25 -12 51 -22q8 -3 15 -3q19 0 31 36q9 27 12 58q-2 21 -5.5 28t-20.5 15q-59 28 -113 61q110 38 172 68q93 44 93 78q0 41 -31 94q-28 47 -43 47q-9 0 -30 -13q-83 -52 -204 -106q-18 -8 -75 -33q-43 -19 -60 -98q-12 -57 -12 -69z " unicode="«"/>
<glyph horiz-adv-x="1109" glyph-name="logicalnot" d="M846 1031q9 24 9 40q0 40 -68 85q-59 40 -90 40q-24 0 -37 -51q-25 -94 -50.5 -200t-52.5 -227l-126 -13q8 40 17 79t18 79q11 49 17.5 88.5t8.5 70.5v11q0 45 -80 98q-71 46 -108 46q-25 0 -26 -51q-2 -45 -3 -92.5t-2 -101.5l-4 -194q-2 -65 -3 -103t-2 -49 q-2 -44 -4.5 -82t-6.5 -70v-3q0 -31 43 -50q34 -17 70 -17q14 0 23 67q2 20 6.5 51t11.5 73l50 7.5t70 11.5q-13 -63 -19 -102t-6 -55q0 -23 39 -38q36 -15 62 -15q16 0 18 15q25 83 65.5 203t97.5 280q8 23 23.5 65t38.5 104zM934 1091l-215 -626q-4 -11 -4 -23 q0 -27 29 -54q31 -26 57 -26q15 0 40 3.5t60 10.5q19 4 46.5 9.5t65.5 13.5q31 6 31 24v4q0 6 1 11v28q0 36 -34 36q-70 0 -146 -17q8 16 19.5 38.5t27.5 52.5q23 5 46.5 10t48.5 10l97 16q23 6 30.5 12t8.5 26q2 13 3 25.5t1 24.5q0 26 -7.5 37t-31.5 11h-9q-56 0 -99 -9 l53 100q13 25 26.5 48.5t27.5 46.5q9 2 67 10.5t166 24.5q28 5 39 17q4 4 8 13.5t9 23.5q20 58 20 117q0 43 -46 42q-69 -2 -153.5 -17.5t-187.5 -44.5q-26 -8 -49.5 -15t-45.5 -14zM208 988q28 4 28 21q0 25 -24 75q-43 84 -76 103q-17 9 -45 8q-164 -8 -390 -51 q-34 -7 -62.5 -14t-51.5 -14q-15 -5 -15 -15q0 -12 35 -59q31 -40 59 -69t54 -47q17 -13 30 -13q12 0 101 24q11 -74 22 -144.5t24 -139.5q7 -37 18.5 -91.5t28.5 -127.5q5 -32 53 -54q40 -18 76 -18q13 0 13 12v4q-13 136 -21 422l-6 169q25 3 62 7.5t87 11.5zM913 139 q53 23 76 36q43 24 62 54q12 19 12 45q0 64 -66 82q-24 6 -59 6q-86 0 -180 -27q-14 -5 -27.5 -9t-24.5 -9q-5 -24 -16 -60.5t-28 -85.5l-23 -68q-3 -8 -7.5 -22t-10.5 -34q-3 -11 -3 -13q0 -15 37 -33q32 -17 52 -17q58 0 145 35q92 38 92 78q0 26 -31 42zM504 58 q1 -22 12 -58q11 -17 64 -17q18 0 20 11q2 75 5.5 132.5t7.5 98.5q2 20 4.5 37.5t5.5 33.5v7q0 23 -42 35q-54 15 -112 15h-10q-37 0 -53 -28q-64 -104 -119 -237q-8 -19 -14 -34.5t-11 -28.5q-1 -3 -1 -10q0 -11 20 -19q5 -2 12.5 -4t18.5 -6q5 -1 8.5 -1.5t5.5 -0.5 q8 0 21 25q5 8 9 16t9 16q43 10 139 17zM234 4q15 1 15 6q0 16 -21 31t-38 15h-6l-11 -0.5t-32 -2.5l-22 -2l-22 -2v44q-1 14 -1 25v19q0 48 1.5 85.5t3.5 66.5v3q0 21 -49 40q-51 20 -84 20q-15 0 -15 -18q0 -56 18 -162q7 -45 27 -136q7 -24 51 -41q30 -11 43 -11 q14 0 32 1.5t39 5.5q18 4 36 7t35 6zM255 190q13 13 27 40q16 30 20 50v18q-1 13 -29 33t-48 20q-10 0 -18 -20q-2 -8 -5 -15t-5 -15q-5 -14 -12.5 -34.5t-17.5 -48.5q-6 -18 -6 -26q0 -17 49 -17q25 0 45 15zM783 170q31 55 49 82q54 19 92 19q27 0 29 -11q0 -16 -49 -44 q-48 -28 -121 -46zM405 112q30 49 93 147v-24q-1 -8 -1 -14v-9q0 -23 1 -46t3 -46q-25 -1 -49 -3t-47 -5zM743 101q37 9 61 9q34 0 36 -12q0 -19 -57 -38q-35 -13 -73 -19q18 30 33 60z" unicode="¬"/>
<glyph horiz-adv-x="993" glyph-name="registered" d="M1101 908q-6 180 -99 362q-139 271 -351 367q-68 30 -133 30q-219 0 -380 -159q-144 -142 -223 -384q-72 -224 -72 -470q0 -250 72 -421q75 -179 214 -233q85 -33 197 -33q161 0 313 67q165 72 267 206q81 107 141 263q64 166 64 305q0 54 -10 100zM836 324 q-100 -133 -224 -216q-115 -78 -243 -78q-71 0 -159 24q-91 25 -140 146q-45 110 -45 276q0 282 116 516q78 158 196 224q60 33 130 33q100 0 188 -62q77 -54 134 -147q119 -196 119 -433q0 -82 -17 -155q-20 -82 -55 -128zM356 291q47 -72 101 -124q51 -50 76 -50 q18 0 40 10.5t22 23.5q0 5 -50 73.5t-75 108.5q171 100 222 229q19 50 19 111q0 127 -53 245q-40 90 -120 90q-57 0 -138 -48q-59 -34 -134 -102q-18 -16 -25 -105q-7 -78 -7 -198q0 -109 4 -228q4 -153 4 -147v-4q0 -32 21 -45q2 -1 49 -18q4 -1 10 -1q13 0 22 66 q3 38 12 113zM420 687q58 41 104 41q50 0 50 -45q0 -49 -55 -121q-59 -78 -142 -121q14 82 43 246z" unicode="®"/>
<glyph horiz-adv-x="409" glyph-name="degree" d="M241 1150q-66 40 -121 40q-72 0 -129 -67q-44 -54 -72 -142q-26 -84 -26 -160q0 -117 47 -173q51 -61 163 -61q97 0 162 140q55 121 55 259q0 45 -9 80q-14 49 -70 84zM159 1052q24 -9 24 -79q0 -113 -39.5 -213.5t-77.5 -100.5q-39 0 -39 92q0 40 19 114.5t46 126.5 q32 61 62 61q3 0 5 -1z" unicode="°"/>
<glyph horiz-adv-x="648" glyph-name="plusminus" d="M461 443q35 2 35 34q0 101 -32 148q-16 22 -66 22h-66q-17 0 -36 -1q6 28 15 59l18 60q19 67 19 97q0 43 -39.5 104t-87.5 98q-10 8 -20 8q-33 0 -47 -75q-31 -168 -50 -368q-111 -11 -167 -23q-82 -20 -82 -50q0 -22 30 -70q16 -27 52 -74q25 -27 43 -27q19 0 53 8 q42 10 54 12q-1 -16 -3 -117q-1 -41 54 -74q20 -12 37 -18l16 -6q10 0 26 80q9 53 30 158q34 5 214 15zM386 62q24 0 24 16q0 31 -13 57q-16 33 -44 33q-50 -1 -149 -5q-53 -4 -149 -23q-2 0 -76 -14q-23 -4 -23 -19q0 -23 34 -55.5t50 -32.5q8 0 13 1q60 11 117 25 q40 9 73 12q41 4 143 5z" unicode="±"/>
<glyph horiz-adv-x="397" glyph-name="twosuperior" d="M67 367q171 179 240 387q24 72 24 139q0 45 -16 105q-33 118 -100 160q-26 15 -58 15q-72 0 -137 -86.5t-96 -211.5q-10 -40 -10 -65q0 -57 55 -68q16 -3 31 -3q43 0 64 33q19 30 59 90q31 42 47 42q18 0 18 -25q0 -42 -48 -143q-77 -159 -173 -297q-24 -35 -57 -76 q-7 -9 -7 -20q0 -29 38 -67q34 -34 49 -34q4 0 27 5l54 10q41 8 122 19q17 4 17 15q0 24 -13 53q-16 34 -38 34h-3q-38 0 -89 -11z" unicode="²"/>
<glyph horiz-adv-x="402" glyph-name="threesuperior" d="M160 594q61 41 92 78q37 43 54 105q13 46 13 111q0 78 -26 152q-28 79 -65 113q-33 28 -69 28q-68 0 -135 -74q-55 -61 -88 -149q-6 -16 -6 -31q0 -37 32.5 -68t69.5 -31q28 0 71.5 45t63.5 45t20 -33q0 -43 -54 -103q-57 -64 -164 -124q-14 -8 -14 -25q0 -15 8 -32 q39 -85 92 -85q6 0 18 2t18 2q44 0 44 -58q0 -36 -21 -69q-25 -38 -59 -38q-27 0 -72 30q-19 13 -43 13q-41 0 -41 -28q0 -15 28 -45q68 -72 145 -72q63 0 115 45q62 54 62 143q0 48 -23.5 91t-65.5 62z" unicode="³"/>
<glyph horiz-adv-x="668" glyph-name="mu" d="M228 -12q76 0 133.5 70.5t134.5 264.5q71 180 192 542q21 63 21 88q0 27 -33 79q-54 84 -114 120q-20 12 -36 12q-42 0 -60 -97q-51 -271 -93 -459q-54 -238 -97 -372q-50 -153 -84 -153t-34 98q0 44 8 115q7 58 23 156l15 94q8 48 16 93l27 146q6 31 6 59 q0 123 -118 223q-75 63 -106 63q-33 0 -38 -87q-16 -297 -16 -580q0 -394 25 -569q3 -24 38 -40q28 -14 60 -14q12 0 13 13q2 30 6 67l9 87q46 -19 102 -19z" unicode="μ"/>
<glyph d="M67 16q0 -28 -2 -54q4 -15 15 -15q37 0 70 16q39 20 43 53q0 7 19 90l90 391q10 46 30 139q9 5 18 5q29 0 33 -65q-8 -44 -49 -203l-97 -367q-12 -43 -14 -54q0 -15 13 -15q37 0 72 16q41 19 49 51q2 16 42 129q16 47 37 105l41 117q40 113 76 225q34 109 34 137 q0 5 -2 9q-115 151 -244 211q-50 22 -100 22q-104 0 -177 -106q-99 -144 -139 -304q-10 -40 -10 -75q0 -119 94 -216q27 -28 55 -51q-3 -11 -3 -26q0 -12 1 -26q5 -73 5 -139z" glyph-name="paragraph" unicode="¶"/>
<glyph horiz-adv-x="361" glyph-name="cedilla" d="M77 -87q29 39 46 72q8 18 8 29v2q0 14 -27 39t-45 25q-11 0 -24 -27q-8 -18 -16 -37q-25 -49 -49 -101q-9 -21 -9 -28q0 -16 47 -16q14 0 25 3q16 4 44 39z" unicode="¸"/>
<glyph horiz-adv-x="311" glyph-name="onesuperior" d="M201 945q6 26 6 39q0 40 -62.5 104.5t-93.5 64.5q-18 0 -47 -81q-23 -63 -41 -148q-5 -24 -5 -32q0 -24 39 -61q-14 -137 -21.5 -279t-7.5 -206v-16q0 -32 28 -50q14 -9 56 -22q7 -3 11 -3q9 0 11 17q6 45 30 184l22 119q26 145 50 253z" unicode="¹"/>
<glyph horiz-adv-x="962" glyph-name="ordmasculine" d="M232 285q-16 59 -34 133l-38 150q-19 75 -36 145l-29 121q-26 112 -65 155q-15 16 -35 31q-91 68 -202 122q-21 10 -37 10q-34 0 -34 -53q0 -22 4 -47q26 -162 78 -413q22 -102 43 -196l69 -300q7 -30 13 -59q11 -38 27 -52q47 -43 107 -43q11 0 11 11v6q-7 60 -13 163 l-18 246q39 -104 86 -211q21 -50 68 -146q17 -31 55 -49q35 -17 73 -17q20 0 23 20q18 105 68 360q59 301 102 491q11 48 11 75q0 52 -37 103q-32 44 -82 76q-58 36 -79 36q-40 0 -49 -95q-20 -214 -33 -417q-15 -225 -17 -356zM872 729q-31 13 -62 13q-48 0 -89 -26 q-53 -34 -96.5 -91.5t-61.5 -117.5q-11 -37 -11 -68q0 -101 140 -101q89 0 169 108q68 92 82 187v12q0 17 -5 31q-11 30 -66 53zM435 206q0 -31 21 -59q22 -31 52 -31q7 0 15 3q94 24 253 36q20 1 26.5 8.5t7.5 27.5q-7 78 -51 78q-116 0 -238 -22l-52 -10q-34 -9 -34 -31z M801 618q8 -3 8 -17q0 -46 -42.5 -110t-67.5 -64q-15 0 -15 22q0 37 43 103t72 66h2z" unicode="º"/>
<glyph horiz-adv-x="784" glyph-name="guillemotright" d="M300 390q2 13 2 22q0 27 -28 46q-118 81 -280 166q-28 14 -83 41q-15 7 -24 7q-19 0 -19 -25q0 -41 25 -112q7 -18 12 -31q9 -19 15 -28q10 -14 22 -21q8 -5 20 -9q98 -45 146 -71q-80 -32 -128 -57q-66 -35 -66 -53q0 -14 35 -45q61 -55 80 -55q4 0 17 7q60 33 195 86 q29 11 44 57q7 21 15 75zM713 376q5 13 5 22q0 15 -17 29q-93 79 -225 159q-40 24 -69 39q-14 7 -22 7q-22 0 -29 -39q-5 -28 -5 -76q0 -73 21 -90q6 -5 20 -12q66 -31 122 -67q-49 -18 -146 -58q-76 -35 -76 -54q0 -14 24 -41q43 -50 60 -50q4 0 19 7q56 27 216 83 q32 11 53 45q32 51 49 96z" unicode="»"/>
<glyph horiz-adv-x="696" glyph-name="onequarter" d="M715 1000l-9 9q-3 3 -8 25q-12 51 -35 51t-60 -45q-154 -190 -385 -530q-128 -188 -212 -317q-29 -45 -54 -85q-11 -18 -11 -30q9 -30 18 -30v5l12 -8t18 -8q10 0 19 14q69 85 164 198l121 143q65 76 131 152l127 147q69 79 112 126q31 34 43 59q13 29 13 70v11 q0 26 -4 43zM-1 981q0 42 -37 83q-58 64 -129 102q-18 10 -27 10q-17 0 -25 -47q-19 -109 -19 -180v-13q0 -32 14 -52q8 -12 38 -36q12 -129 34 -296q16 -126 32 -207q7 -38 39 -57q16 -10 60 -22q7 -3 12 -3q10 0 9 17q-1 21 -3 69l-2 88q-2 96 -2 212q0 82 1 163 q1 20 3 85q2 53 2 84zM503 175q28 62 86 185q8 16 8 25q0 18 -49 55.5t-67 37.5q-12 0 -29 -17q-76 -76 -176 -222q-22 -31 -41 -65q-7 -12 -7 -22q0 -23 28 -49q25 -24 35 -24q17 0 45 5q33 5 44 6q-23 -69 -23 -80q0 -15 26 -25q10 -3 19 -5l8 -2q9 0 27 41q10 26 33 80 h28q17 1 26 7q6 4 6 14q-1 13 -2 27t-7.5 21t-17.5 7zM318 163q94 112 151 167q-17 -41 -31 -81l-29 -78q-30 -2 -91 -8z" unicode="¼"/>
<glyph horiz-adv-x="723" glyph-name="onehalf" d="M704 969q-1 18 -8 37q-8 1 -14 28q-12 51 -36 51q-22 0 -58 -45q-143 -177 -378 -530q-110 -163 -207 -317q-31 -50 -53 -85q-10 -16 -10 -30q2 -17 14 -26l5 -3q0 1 -1 2v1v1q1 0 14 -8t17 -8q10 0 19 14q131 168 407 493l125 147q47 51 135 156q30 41 30 98v11 q0 5 -1 13zM-16 964v12q0 46 -38 88q-25 27 -74 66q-60 46 -83 46q-18 0 -31 -76q-10 -63 -10 -143v-21q0 -32 14 -52q9 -14 39 -36q16 -148 38 -296q18 -116 36 -207q8 -39 39 -57q20 -7 61 -22q8 -3 12 -3q8 0 8 12v5q0 -8 -5 98q-8 201 -8 430q0 26 1 78t1 78zM393 58 q151 108 212 227q21 41 21 78q0 39 -24 76q-31 46 -83 46q-50 0 -101 -42.5t-83 -103.5q-14 -27 -14 -43q0 -23 36 -27q9 -1 18 -1q33 0 80 42.5t58 42.5t11 -10q0 -18 -44 -75q-60 -78 -157 -168q-23 -21 -52 -44q-8 -6 -8 -15q0 -17 22.5 -38t35.5 -21q3 0 68 9 q32 5 95 12q14 3 14 10v5q0 16 -8.5 31.5t-23.5 15.5h-3q-28 0 -70 -7z" unicode="½"/>
<glyph horiz-adv-x="792" glyph-name="threequarters" d="M55 652q61 51 83 88q33 57 33 144q0 124 -66 252q-44 85 -91 124q-39 31 -79 31q-73 0 -126 -83q-45 -70 -61 -162q-1 -6 -1 -15q0 -46 41 -86t87 -40q29 0 65.5 49t57.5 49q13 0 21 -20q7 -16 7 -31q0 -50 -44 -108q-51 -71 -137 -124q-11 -7 -11 -19q0 -16 16 -42 q57 -91 113 -91q6 0 18 2t18 2q29 0 45 -29q14 -24 14 -55q0 -32 -15 -59q-18 -32 -48 -32q-31 0 -81 31q-24 15 -47 15q-37 0 -37 -26q0 -18 39 -52q87 -76 157 -76h6q97 0 135 85q14 31 14 77q0 52 -30 110q-34 65 -96 91zM861 969q0 35 -6 36.5t-11 28.5q-9 51 -33 51 q-23 0 -62 -45q-152 -175 -411 -530q-124 -169 -226 -317l-59 -85q-12 -17 -12 -30q3 -18 12 -26l5 -3v2q-1 0 -1 1l1 1l4 -2q18 -14 25 -14q4 0 86 89q101 114 305 341l116 129q76 84 204 221q35 37 49 66t14 81v5zM607 175l50 97q15 31 45 88q10 19 10 26q0 16 -46.5 54 t-64.5 38q-13 0 -31 -17q-48 -45 -128 -145q-40 -50 -54 -69q-30 -40 -49 -73q-8 -14 -8 -23q0 -21 24 -46.5t36 -25.5q17 0 45 5q34 5 45 6q-27 -70 -27 -81q0 -13 23 -23q18 -8 28 -8q9 0 29 41q8 17 18 39l18 41h28q18 1 27 7q6 4 7 14q-1 5 -1 8v28q-3 19 -24 19z M422 163q60 67 77 86q44 48 82 81q-12 -25 -68 -159q-30 -2 -91 -8z" unicode="¾"/>
<glyph horiz-adv-x="613" glyph-name="questiondown" d="M379 629q-45 42 -87 60q-15 6 -27 6q-31 0 -31 -46v-5q-16 -133 -81 -215q-20 -25 -57 -58q-46 -43 -58 -55q-59 -61 -59 -138q0 -64 50 -126q61 -77 155 -77q107 0 202 114q29 35 29 51t-29 27q-25 9 -48 9q-42 0 -74 -26q-22 -19 -45 -38q-27 -22 -48 -33 q-15 -7 -30 -7q-33 0 -33 35q0 50 81 111q65 49 97 82q41 44 72 104q25 49 38 116q7 36 7 51q0 35 -24 58zM534 1032q0 91 -40.5 145t-102.5 54t-108 -69q-43 -65 -45 -157l-1 -49q-3 -141 88 -193q26 -15 52 -15q50 0 90 51q18 24 32 56q35 80 35 177z" unicode="¿"/>
<glyph horiz-adv-x="864" glyph-name="AE" d="M637 1091q-34 23 -104 64q-72 33 -159 44q-8 1 -15 1q-84 0 -133 -142q-92 -268 -181 -576q-42 -143 -58 -203q-31 -114 -48 -205q-2 -10 -2 -20q0 -27 42 -48q33 -17 49 -17q12 0 28 43l15 40q8 21 17 40q33 11 207 39q-3 -26 -6 -44l-5 -30q-5 -29 -5 -37v-5 q0 -29 31 -39q17 -5 56 -5q48 0 115 13q56 13 113 25q17 4 22.5 9t6.5 22q-1 20 -3.5 41.5t-13.5 34.5q-9 9 -25 9q-64 0 -147 -19q0 14 13 50q8 19 21 58q68 14 203 44q29 7 36 24q5 14 5 67q0 43 -5 59q-10 31 -43 31h-9q-57 0 -113 -12q34 98 104 292q78 18 149 31 l138 24q36 7 54 34q11 17 21 60q22 95 28 159q2 29 2 62q0 73 -52 73h-6q-78 0 -180 -34q-81 -28 -156 -63q-2 2 -7 6zM160 289q116 266 215 476q-37 -247 -61 -455q-61 -5 -154 -21z" unicode="Æ"/>
<glyph horiz-adv-x="668" glyph-name="Ccedilla" d="M107 -126q34 41 53 80q7 16 7 27q110 0 177 117q16 28 16 44t-21.5 26t-45.5 10q-44 0 -76 -38q-50 -60 -79 -60q-47 0 -47 148q0 67 11 137q21 130 79 285q19 50 30 75q20 43 40 70q17 22 31 22q17 0 23.5 -25t6.5 -58q0 -20 -3 -69q-3 -44 -2 -69q2 -67 22 -103 q24 -45 82 -62q10 -3 19 -3q25 0 54 85q42 122 59 271q5 43 5 73q0 130 -91 228q-66 69 -146 103q-40 16 -75 16q-104 0 -184 -144q-69 -123 -110 -315q-36 -172 -36 -313q0 -183 39.5 -296t117.5 -133q-15 -35 -43 -107q-6 -14 -6 -20q0 -17 49 -17q29 0 44 15z" unicode="Ç"/>
<glyph horiz-adv-x="761" glyph-name="Eth" d="M-130 456q0 -32 60 -92q63 -63 106 -63q12 0 24 2l8 -180q2 -56 40 -85q73 -56 113 -56q10 0 27 5q198 60 328 272q126 206 126 443v29q0 7 -2 30q-20 230 -106 336q-77 94 -197 94q-96 0 -205 -60q-98 -54 -167 -134l24 -494q-33 -3 -66 -7.5t-66 -8.5q-47 -10 -47 -31z M209 108q10 72 30 217l109 5q51 2 51 26q0 14 -8 46.5t-23 59.5q-21 49 -87 49h-12q8 51 18 105l21 112q35 20 69 20q79 0 100 -94q6 -28 6 -58q0 -132 -66 -267q-76 -153 -208 -221z" unicode="Ð"/>
<glyph horiz-adv-x="597" glyph-name="multiply" d="M291 158q10 -8 16 -8q13 0 43 40q32 44 32 67q0 16 -30 49q-22 21 -44 43q43 24 86 49q46 29 65 73q13 31 13 86q0 58 -26 58q-28 0 -111 -55q-49 -35 -147 -104q-70 62 -117 97q-68 49 -93 49q-24 0 -41 -57q-12 -42 -15 -96q1 -26 7.5 -37.5t27.5 -23.5q41 -22 81 -48 q-103 -73 -103 -109q0 -42 32 -82q7 -8 10 -8q10 0 71 42l56 39q29 20 56 37q6 -4 131 -101z" unicode="×"/>
<glyph horiz-adv-x="543" glyph-name="Oslash" d="M657 1348q-8 25 -8 33q0 5 3 5q2 0 4.5 -2t3.5 -2t1 1q0 8 -18 35q-25 35 -39 35q-29 0 -82 -115q-14 -30 -106 -262q-107 95 -188 95q-105 0 -184 -132q-64 -107 -103 -288q-31 -149 -31 -279q0 -161 33 -275q36 -121 91 -161q-15 -43 -15 -58q0 -22 21 -32h-1l-2 1 q10 -5 15 -5q11 0 22 27l14 36q49 -17 106 -17q53 0 97 34q91 85 159 282q85 245 85 460q0 78 -19 144q36 70 107 211q47 98 47 150q0 38 -13 79zM301 778l-58 -156q-57 -151 -102 -278l-40 -114v14q0 64 11 138q19 127 71 266q56 147 96 147q5 0 10 -3.5t12 -13.5zM247 218 q-29 -84 -64 -119q-16 -17 -30 -17t-24 12l77 165q44 95 98 208q-15 -128 -57 -249zM34 -52l-3 1l6 -2h-1q-1 1 -2 1z" unicode="Ø"/>
<glyph horiz-adv-x="598" glyph-name="Thorn" d="M93 1052q-60 56 -114 84q-26 13 -42 13q-37 0 -37 -91q0 -248 18 -590q10 -188 19 -316q4 -51 9 -90q4 -35 37 -52q11 -6 63 -20q11 -3 16 -3q14 0 16 25q1 15 4 46q266 81 371 257q38 63 38 140q0 141 -62 265q-42 84 -140 84q-53 0 -120 -26q17 99 17 120q0 29 -9 51 q-18 40 -84 103zM101 215q16 106 40 250q67 42 128 42q55 0 55 -44q0 -59 -60 -130q-66 -79 -163 -118z" unicode="Þ"/>
<glyph horiz-adv-x="842" glyph-name="germandbls" d="M5 414q71 99 118 229q51 140 51 254q0 92 -40 188q-55 131 -150 188q-32 19 -65 19q-73 0 -124.5 -96.5t-51.5 -231.5q0 -90 25 -118q28 -32 83 -32q42 0 62 37q20 60 40 99q24 45 43 45q25 0 25 -50q0 -52 -29 -162q-40 -154 -109 -298q-19 -42 -39 -75q-4 -7 -4 -15 q0 -32 51 -75q47 -40 62 -40q2 0 81.5 17t120.5 20q15 3 15 12q0 18 -23 55q-26 41 -47 41h-5q-39 0 -90 -11zM876 969q0 35 -6 36.5t-12 28.5q-10 51 -33 51q-22 0 -61 -45q-150 -173 -407 -530q-69 -95 -126 -176l-98 -141q-21 -28 -41 -57q-29 -43 -29 -58q6 -30 17 -30 v4q0 1 1 1l4 -2q18 -14 25 -14q10 0 19 14q23 27 68 79l104 119q58 67 126 143l270 299q50 51 145 158q34 43 34 110v10zM619 194q73 35 105 69q41 45 41 114q0 63 -31 95q-25 24 -57 24q-53 0 -120.5 -48t-67.5 -84q0 -20 22 -32q19 -11 40 -11t55.5 23t51.5 23 q11 0 11 -13q0 -32 -79 -76q-49 -27 -105 -48q-14 -5 -14 -19q0 -22 19 -41.5t41 -19.5q5 0 13.5 1t13.5 1q29 0 29 -25q0 -21 -22 -45q-25 -27 -53 -27q-12 0 -39.5 13t-44.5 13q-37 0 -37 -20q0 -8 16 -24q44 -45 104 -45q53 0 105 35q57 38 57 94q0 55 -54 73z" unicode="ß"/>
<glyph horiz-adv-x="784" glyph-name="ae" d="M637 1091q-34 23 -104 64q-72 33 -159 44q-8 1 -15 1q-84 0 -133 -142q-92 -268 -181 -576q-42 -143 -58 -203q-31 -114 -48 -205q-2 -10 -2 -20q0 -27 42 -48q33 -17 49 -17q12 0 28 43l15 40q8 21 17 40q33 11 207 39q-3 -26 -6 -44l-5 -30q-5 -29 -5 -37v-5 q0 -29 31 -39q17 -5 56 -5q48 0 115 13q56 13 113 25q17 4 22.5 9t6.5 22q-1 20 -3.5 41.5t-13.5 34.5q-9 9 -25 9q-64 0 -147 -19q0 14 13 50q8 19 21 58q68 14 203 44q29 7 36 24q5 14 5 67q0 43 -5 59q-10 31 -43 31h-9q-57 0 -113 -12q34 98 104 292q78 18 149 31 l138 24q36 7 54 34q11 17 21 60q22 95 28 159q2 29 2 62q0 73 -52 73h-6q-78 0 -180 -34q-81 -28 -156 -63q-2 2 -7 6zM160 289q116 266 215 476q-37 -247 -61 -455q-61 -5 -154 -21z" unicode="æ"/>
<glyph horiz-adv-x="588" glyph-name="ccedilla" d="M107 -126q34 41 53 80q7 16 7 27q110 0 177 117q16 28 16 44t-21.5 26t-45.5 10q-44 0 -76 -38q-50 -60 -79 -60q-47 0 -47 148q0 67 11 137q21 130 79 285q19 50 30 75q20 43 40 70q17 22 31 22q17 0 23.5 -25t6.5 -58q0 -20 -3 -69q-3 -44 -2 -69q2 -67 22 -103 q24 -45 82 -62q10 -3 19 -3q25 0 54 85q42 122 59 271q5 43 5 73q0 130 -91 228q-66 69 -146 103q-40 16 -75 16q-104 0 -184 -144q-69 -123 -110 -315q-36 -172 -36 -313q0 -183 39.5 -296t117.5 -133q-15 -35 -43 -107q-6 -14 -6 -20q0 -17 49 -17q29 0 44 15z" unicode="ç"/>
<glyph horiz-adv-x="568" glyph-name="eth" d="M34 769q0 -26 19 -72q5 -13 20 -32q11 -7 26 -32q33 -56 59 -56q5 0 41 13q3 -47 3 -91v-29q-42 19 -80 19q-125 0 -181 -94q-41 -70 -41 -176q0 -109 45 -163.5t141 -54.5h14q110 0 188 111q50 71 92 194q52 150 70 340q26 4 81 10q26 3 36 14.5t10 49.5v11 q0 60 -21 111t-55 51q-27 0 -44 -3q0 79 -5 133q-3 31 -5 43q-4 27 -10 42q-13 25 -50 34q-46 11 -108 11q-149 0 -149 -96q0 -21 7 -52q20 -89 31 -157l-57 -16q-40 -12 -52 -19q-25 -15 -25 -44zM179 217q-11 -48 -22 -75q-22 -50 -49 -54h-6q-47 0 -47 93v13 q0 51 17 90.5t41 39.5h2q32 0 50 -38q14 -30 14 -66v-3z" unicode="ð"/>
<glyph horiz-adv-x="648" glyph-name="divide" d="M461 292q30 0 30 25q0 82 -31 120q-13 16 -34 16q-124 0 -186 -6q-65 -7 -184 -37q-40 -11 -94 -21q-28 -5 -28 -27q0 -32 44 -82.5t63 -50.5q4 0 17 3q64 15 87 21l55 16q47 13 88 17q54 5 173 6zM141 712q0 -88 36 -136q33 -46 82 -46q64 0 100 81q28 63 28 111v11 q0 63 -30 116q-37 63 -98 63q-53 0 -85.5 -62t-32.5 -138zM137 131q0 -35 21.5 -58.5t55.5 -23.5h4q41 0 64 36q16 25 16 46v5q0 28 -20 51q-25 28 -66 28q-34 0 -54.5 -24t-20.5 -58v-2z" unicode="÷"/>
<glyph horiz-adv-x="623" glyph-name="oslash" d="M657 1348q-8 25 -8 33q0 5 3 5q2 0 4.5 -2t3.5 -2t1 1q0 8 -18 35q-25 35 -39 35q-29 0 -82 -115q-14 -30 -106 -262q-107 95 -188 95q-105 0 -184 -132q-64 -107 -103 -288q-31 -149 -31 -279q0 -161 33 -275q36 -121 91 -161q-15 -43 -15 -58q0 -22 21 -32h-1l-2 1 q10 -5 15 -5q11 0 22 27l14 36q49 -17 106 -17q53 0 97 34q91 85 159 282q85 245 85 460q0 78 -19 144q36 70 107 211q47 98 47 150q0 38 -13 79zM301 778l-58 -156q-57 -151 -102 -278l-40 -114v14q0 64 11 138q19 127 71 266q56 147 96 147q5 0 10 -3.5t12 -13.5zM247 218 q-29 -84 -64 -119q-16 -17 -30 -17t-24 12l77 165q44 95 98 208q-15 -128 -57 -249zM34 -52l-3 1l6 -2h-1q-1 1 -2 1z" unicode="ø"/>
<glyph horiz-adv-x="598" glyph-name="thorn" d="M93 1052q-60 56 -114 84q-26 13 -42 13q-37 0 -37 -91q0 -248 18 -590q10 -188 19 -316q4 -51 9 -90q4 -35 37 -52q11 -6 63 -20q11 -3 16 -3q14 0 16 25q1 15 4 46q266 81 371 257q38 63 38 140q0 141 -62 265q-42 84 -140 84q-53 0 -120 -26q17 99 17 120q0 29 -9 51 q-18 40 -84 103zM101 215q16 106 40 250q67 42 128 42q55 0 55 -44q0 -59 -60 -130q-66 -79 -163 -118z" unicode="þ"/>
</font>
</defs>
</svg>
