<?xml version="1.0" encoding="UTF-8" standalone="no"?>
<!DOCTYPE svg  PUBLIC '-//W3C//DTD SVG 1.1//EN'  'http://www.w3.org/Graphics/SVG/1.1/DTD/svg11.dtd'>
<svg xmlns="http://www.w3.org/2000/svg" version="1.1">
<defs>
<font id="Komikandy" horiz-adv-x="553">
<font-face cap-height="965" font-family="Komikandy" unicode-range="U+0020-2122" units-per-em="1000" bbox="-51 -332 1125 1425" descent="-200" x-height="758" underline-thickness="20" panose-1="2 0 5 6 2 0 0 2 0 4" ascent="800" font-weight="400" underline-position="-143"/>
<missing-glyph horiz-adv-x="500"/>
<glyph horiz-adv-x="500" glyph-name=".notdef"/>
<glyph horiz-adv-x="0" glyph-name=".null"/>
<glyph horiz-adv-x="500" glyph-name="nonmarkingreturn"/>
<glyph horiz-adv-x="480" unicode=" " glyph-name="space"/>
<glyph horiz-adv-x="480" unicode=" " glyph-name="space"/>
<glyph d="M258 1046q0 5 0.5 10.5t0.5 11.5q0 25 -4 50.5t-13 46t-24.5 33.5t-38.5 13q-32 0 -58 -17t-44.5 -43.5t-30 -59t-13.5 -63.5v-9q0 -21 6 -42t17.5 -37.5t27 -27t35.5 -10.5h6q22 2 44 13t40.5 29t31.5 42t17 51v9z" horiz-adv-x="286" unicode="˙" glyph-name="dotaccent"/>
<glyph d="M580 899q8 28 16.5 59t8.5 59t-11 53t-29.5 44t-43 29.5t-51.5 10.5t-58 -8t-60 -23t-55 -36t-42 -47h1q-17 -32 -26 -69t-9 -69q0 -29 10 -57t27.5 -50.5t42 -36t53.5 -13.5h9t9 1h4q11 0 22.5 2.5t22.5 6.5l-1 -2q51 16 95.5 54t64.5 92zM440 1000q2 -10 2 -15 q0 -44 -25.5 -72.5t-63.5 -33.5l-4 -1q-21 5 -32 23t-11 39v7q1 16 6.5 33t16 31t25.5 22.5t33 8.5q20 0 35.5 -10.5t17.5 -31.5z" horiz-adv-x="791" unicode="˚" glyph-name="ring"/>
<glyph d="M24 691q13 -32 38 -48t53 -27t53 -24.5t39 -41.5q18 -25 49 -25q34 0 60 21.5t47.5 52.5t39.5 63.5t38 55.5q17 22 32 43.5t28 44.5h-1q8 15 18 28.5t19 27.5t15.5 28.5t9.5 31.5v6q-1 29 -15.5 50t-37.5 21q-19 0 -33.5 -11t-27.5 -27.5t-25 -35.5t-26 -35h1 q-11 -13 -21 -27t-20.5 -28.5t-22 -27.5t-25.5 -23q-16 16 -32.5 33.5t-35 32.5t-40.5 25t-49 10q-17 0 -33 -4l-6 -1q-23 -8 -40 -23.5t-29 -36t-18 -43.5t-6 -46q0 -22 4 -38v-2z" horiz-adv-x="583" unicode="ˇ" glyph-name="caron"/>
<glyph d="M369 701q-2 14 -6 28.5t-11 26t-17.5 19t-25.5 7.5h-4t-7 -2l2 1q-15 -2 -27.5 -6t-26 -9t-29 -11t-36.5 -11q-20 -5 -40 -18.5t-37 -33.5t-29 -44.5t-14 -51.5q0 -16 5.5 -26t14.5 -16t19.5 -9.5t19.5 -5.5q3 -26 3 -55v-20q-4 -45 -8 -88.5t-6 -88.5q0 -19 1.5 -38.5 t1.5 -38.5q-2 -17 -15.5 -26t-24.5 -15h1q-20 -7 -36.5 -26t-16.5 -45v-2q1 -17 6.5 -34.5t19.5 -36.5h-1q2 -3 6 -7l12 -12v7q6 -2 9 -2h6q19 0 35 5t31 5q17 -2 37 -5.5t41 -3.5h7q21 2 41 11t37 23.5t28 35t14 44.5v7q0 15 -6 26.5t-15.5 19t-21 12.5t-22.5 8l1 -1l-3 1 q-16 6 -25 15t-13 21t-4.5 26t-0.5 29v13q3 59 14 120t14 126v26q5 17 21.5 27t34.5 20.5t32 25t14 41.5v12z" horiz-adv-x="389" unicode="ı" glyph-name="dotlessi"/>
<glyph d="M411 1003q-9 14 -22.5 24.5t-30.5 10.5q-21 0 -42 -14t-41 -34t-38 -42.5t-32 -39.5h1q-23 -29 -47 -53.5t-41 -56.5l1 -5q4 -22 5.5 -45t1.5 -47q0 -76 -8.5 -152.5t-16.5 -151.5q4 -23 17 -43t36 -20q10 0 17.5 3.5t16.5 7.5q47 68 78 144.5t54 158.5t44 167.5 t49 171.5q-1 4 -1 8t-1 8zM267 162q-1 27 -11 49.5t-26 38t-36 24.5t-41 9q-9 0 -20 -2t-22.5 -7t-20.5 -13.5t-13 -21.5v-7q-2 -19 -10.5 -34t-19 -29t-18.5 -28.5t-8 -33.5v-17q7 -16 16 -33t19.5 -32t24 -26.5t30.5 -16.5q13 11 26.5 17t27.5 14v-1q18 6 36.5 18 t33.5 28.5t24 38t9 46.5v2q0 2 0.5 4.5t0.5 4.5t-0.5 4.5t-0.5 5.5z" horiz-adv-x="433" unicode="!" glyph-name="exclam"/>
<glyph d="M334 923q-12 0 -25.5 -7t-21.5 -17l-1 1q-18 -14 -33 -31.5t-26.5 -37.5t-18 -41t-6.5 -41q0 -28 0.5 -55t0.5 -54q0 -31 -3 -61t-8 -60h1q-1 -4 -2 -7.5t-2 -7.5v-4q0 -25 14.5 -43t35.5 -18q15 0 26.5 7t22.5 20q30 35 49 74t29.5 80.5t14.5 85t4 88.5v9q0 16 -1 37 t-6 39.5t-15.5 31t-28.5 12.5zM172 651q2 26 4.5 50.5t2.5 50.5q0 16 -3 33v-1q-4 18 -15.5 27t-27.5 9q-18 0 -36 -12.5t-33.5 -31t-27 -41.5t-16.5 -44q0 -26 8.5 -48t8.5 -47q0 -32 -5.5 -64.5t-7.5 -64.5v-6q0 -23 13 -38t31 -15q9 0 21 5.5t21 14.5v-1q21 22 32 50 t17 57.5t8.5 59.5t4.5 57z" horiz-adv-x="405" unicode='&quot;' glyph-name="quotedbl"/>
<glyph d="M745 405q-17 29 -48 39.5t-64 10.5q-32 0 -60 -7.5t-58 -15.5q-7 8 -7.5 19t-2.5 22l14 30q29 7 59 14t59 23q31 20 50 54t19 67l1 14q0 41 -22 71t-60 30q-23 0 -47 -12.5t-46 -21.5v3q2 14 4.5 27t7.5 27v-1q4 11 7 21t4 21q-1 29 -21 43.5t-44 14.5q-33 0 -55 -22.5 t-36 -52t-21.5 -59t-10.5 -42.5h1q-2 -8 -3.5 -17t-6.5 -17l-8 -9l-38 -11q-5 2 -5.5 3t-2.5 6l1 11q1 3 1 9q0 10 -5 18l2 -1l2 17l1 15q0 29 -15 48.5t-38 19.5q-15 0 -28 -8t-24 -20.5t-20 -28t-15 -30.5q-4 -29 -8 -57.5t-7 -57.5q-17 -8 -33 -15.5t-32 -13.5l-7 -1 q-22 -13 -36.5 -41.5t-18.5 -57.5q0 -39 17.5 -51.5t40.5 -12.5q11 0 21.5 1t21.5 3h1q5 0 6.5 -4.5t1.5 -10.5q-1 -11 -4 -20.5t-10 -17.5q-15 -4 -32.5 -12t-32.5 -20.5t-24.5 -31t-9.5 -42.5v-3q0 -18 5 -35t14 -30.5t21 -21.5t26 -9l5 1q5 0 9 1t9 1q0 -17 -5 -33 t-6 -33v-3q0 -22 10.5 -39t24.5 -28h-1q6 -5 12 -9.5t13 -4.5h4q15 0 29 8.5t24.5 23t17 32.5t7.5 37q0 5 -0.5 8.5t-0.5 8.5v12q0 8 1 12l4 8q5 3 9.5 6.5t15.5 3.5q9 -1 20 -2t17 -12l-1 -27l1 -18q-3 -8 -3 -18v-6q0 -38 23 -67.5t58 -31.5q26 2 48 21.5t36 44.5 q2 37 4.5 73t4.5 73q41 5 82.5 12.5t87.5 12.5h6q20 6 37 18.5t30 29.5t22 36.5t12 39.5q0 12 -2 24t-7 22v2zM306 394q-2 0 -4 -0.5t-4 -0.5q-12 0 -22 7t-10 22v3q1 13 6.5 21t14 11.5t18 4.5t19.5 1h11q-2 -16 -3 -32t-4 -32q-6 0 -11.5 -2t-10.5 -3z" horiz-adv-x="774" unicode="#" glyph-name="numbersign"/>
<glyph d="M474 673q0 9 2.5 18t2.5 18v3q0 42 -17 74t-43 52q-20 4 -45 4q-11 0 -22.5 -0.5t-22.5 -0.5v1q2 8 3 14.5t2 13.5q-2 14 -3 27t-1 27q0 5 0.5 8.5t0.5 8.5q-2 25 -15 42.5t-34 17.5q-13 0 -31.5 -11t-36 -28t-29.5 -38t-12 -42q0 -12 0.5 -24t0.5 -25v-12 q-9 -29 -25.5 -49t-35 -37.5t-35.5 -36t-27 -43.5q-11 -23 -16 -47t-6 -47v-12q0 -43 6.5 -68.5t17.5 -40t25.5 -20.5t30.5 -10.5t32.5 -10t30.5 -19.5q12 -16 34 -16q15 0 28.5 5.5t27.5 5.5q13 0 22 -11.5t9 -26.5q0 -27 -17.5 -48t-41.5 -22h-5q-23 0 -42 9t-36 22 t-33 27.5t-32 25.5h-10q-24 -11 -40 -37t-16 -56q5 -60 40.5 -102t82.5 -59q2 -8 2 -15q0 -6 1 -14q-2 -18 -6.5 -35.5t-4.5 -35.5q0 -29 16.5 -53t42.5 -29q12 0 29 11.5t33 30t27.5 42t11.5 46.5q0 35 -6 70q32 13 63.5 35t58 51.5t45 65.5t24.5 78v18q0 29 -5.5 55 t-10.5 53v-1q-7 24 -12 52q-29 37 -68.5 49t-81.5 12q-25 0 -48.5 -2.5t-46.5 -5.5q-11 3 -19 11t-8 22q1 2 1 5t1 6l2 10q18 17 36 22.5t38 5.5q26 0 47.5 -11t34.5 -35q13 -16 35 -16q13 0 28 6.5t29.5 17.5t25.5 25t16 29z" horiz-adv-x="501" unicode="$" glyph-name="dollar"/>
<glyph d="M600 908q-6 14 -12.5 28.5t-15.5 26t-21 19t-27 7.5q-12 0 -23 -4q-37 -24 -61.5 -59t-42 -74t-31.5 -79.5t-29 -74.5q-63 -140 -119 -268t-122 -237l1 1q-6 -16 -14.5 -30t-16 -28.5t-13.5 -30t-8 -33.5q0 -15 4 -32t12 -32.5t19 -26.5t25 -13q28 4 48.5 24t37 47.5 t30.5 59.5t29 59q24 45 42.5 95t47.5 95q35 54 63 115t61 121q18 33 40.5 65.5t43 66.5t36.5 70t20 74v7q0 11 -1 20.5t-3 20.5zM746 175q8 28 16.5 59t8.5 59t-11 53t-29.5 44t-43 29.5t-51.5 10.5t-58 -8t-60 -23t-55 -36t-42 -47h1q-17 -32 -26 -69t-9 -69q0 -29 10 -57 t27.5 -50.5t42 -36t53.5 -13.5h9t9 1h4q11 0 22.5 2.5t22.5 6.5l-1 -2q51 16 95.5 54t64.5 92zM255 594q5 25 10 50.5t5 49.5q0 41 -21 67t-51 26q-21 0 -41 -13q-30 -11 -55.5 -35.5t-43.5 -56.5t-28 -69t-10 -72q0 -44 22 -73t55 -29q21 0 45.5 11.5t47 32.5t40 49.5 t25.5 61.5zM606 276q2 -10 2 -15q0 -44 -25.5 -72.5t-63.5 -33.5l-4 -1q-21 5 -32 23t-11 39v7q1 16 6.5 33t16 31t25.5 22.5t33 8.5q20 0 35.5 -10.5t17.5 -31.5zM197 631v-1q1 -5 1 -9v-9v-9q-3 -29 -21 -52t-38 -30l-6 -1q-13 0 -20 11.5t-7 27.5q0 14 4 31.5t12 32.5 t19.5 25t27.5 10q11 0 18.5 -6.5t9.5 -20.5z" horiz-adv-x="791" unicode="%" glyph-name="percent"/>
<glyph d="M588 396q12 12 19.5 27t12 31.5t6.5 33t2 30.5q0 13 -2.5 25.5t-8 22.5t-14.5 16.5t-23 6.5h-1q-20 -3 -36 -3q-11 0 -21 0.5t-20 0.5q-42 0 -75.5 -15.5t-64.5 -46.5h1q-17 -20 -21 -49t-4 -52v-32q0 -2 -0.5 -3t-0.5 -3q-13 28 -29 53.5t-32.5 50.5t-32.5 50.5 t-29 52.5v-1l-2 23q1 30 21.5 53.5t46.5 23.5q18 0 32.5 -8.5t28.5 -19t29.5 -19t34.5 -8.5q21 0 40.5 14.5t34 36.5t23.5 46.5t11 44.5v3q0 31 -14 55.5t-35 41t-46.5 25.5t-49.5 9q-53 0 -104.5 -29t-93.5 -75.5t-69.5 -106.5t-32.5 -121v-21q0 -15 1 -29.5t6 -27.5l-1 1 q6 -37 24 -62q-35 -49 -55.5 -106t-22.5 -117v-13q0 -91 39 -163q18 -8 36.5 -19t29.5 -34q8 -8 12 -9h2q21 2 43.5 3t45 5t45 11.5t44.5 22.5q16 -26 39.5 -50t56.5 -26l11 -1q16 0 30.5 7.5t25.5 20.5t17.5 29t7.5 34v9q0 37 -14 71t-33 63l1 -1l-9 14q14 40 24.5 81 t19.5 83q26 5 48 11.5t45 27.5zM237 189q-7 -12 -18 -21t-22 -14q-20 11 -37 29t-17 47v4q0 20 9 37t20 31h1q10 -4 18 -14t14.5 -23t11.5 -25.5t9 -21.5l-1 1q2 -8 6.5 -14.5t5.5 -14.5v-1z" horiz-adv-x="648" unicode="&amp;" glyph-name="ampersand"/>
<glyph d="M115 873q-22 -7 -39.5 -27t-29.5 -45.5t-18.5 -52t-6.5 -45.5q0 -38 1.5 -73t4.5 -72q0 -16 -3 -32t-3 -31q2 -29 18.5 -47t41.5 -18h7q29 9 45 42.5t24 76.5t10 85.5t2 69.5v56q0 19 -1 39.5t-5.5 37.5t-13 27.5t-22.5 10.5q-4 0 -12 -2z" horiz-adv-x="190" unicode="&apos;" glyph-name="quotesingle"/>
<glyph d="M360 921q-7 23 -20 39.5t-36 16.5h-8q-3 0 -8 -2q-49 -30 -81.5 -75t-56 -95t-42.5 -101.5t-41 -95.5v1q-17 -40 -24.5 -80.5t-18.5 -78.5q-1 -9 -2.5 -18t-1.5 -18q2 -69 15 -135.5t38 -128.5q20 -21 35.5 -52t33.5 -59.5t41.5 -48.5t58.5 -20h13q17 2 31 11.5 t24.5 23.5t17 31t8.5 35q0 20 -6.5 39t-23.5 28q-69 51 -109.5 125.5t-40.5 166.5q0 37 10 70.5t25 65.5t32.5 64t33.5 68l-1 -1q12 23 31 44.5t36.5 43.5t30 45.5t13.5 51.5q-1 11 -3 20t-4 19z" horiz-adv-x="387" unicode="(" glyph-name="parenleft"/>
<glyph d="M320 544q-2 38 -7 75t-20 67q-21 33 -33 73t-28 75q-8 12 -16.5 24.5t-18.5 23t-21 17t-25 6.5q-13 0 -24 -5l-14 -7h1q-27 -20 -45.5 -54.5t-18.5 -67.5v-12q0 -32 12 -53t28 -39.5t31.5 -38t23.5 -46.5t14 -56t6 -60q0 -84 -27 -165.5t-71 -145.5q-15 -19 -29.5 -38 t-17.5 -45q0 -18 4.5 -36.5t13 -35t21 -27.5t28.5 -14h5q16 0 29.5 9t24.5 22.5t20 30t18 31.5q33 63 66.5 129.5t52.5 143.5l-1 -2q17 74 20 145v31v22q0 12 -2 23z" horiz-adv-x="343" unicode=")" glyph-name="parenright"/>
<glyph d="M685 689q-21 15 -49 15q-16 0 -32 -4.5t-31.5 -10.5t-30 -10.5t-27.5 -4.5h-6q4 14 12 28.5t16 28.5v-2q18 35 35 70.5t19 71.5v3q0 26 -11 49t-35 23q-8 0 -17 -3q-34 -24 -56 -58t-41.5 -69.5t-40 -68t-51.5 -53.5q-8 -2 -10 -2q-8 0 -14 5t-10.5 12.5t-7.5 16.5t-6 16 v-1q-11 29 -31 53t-49 24q-18 0 -34.5 -9.5t-29.5 -25.5t-20.5 -37t-7.5 -45q0 -27 12.5 -46.5t28.5 -31.5h-1q9 -10 19 -18.5t15 -24.5l-9 -6q-23 -11 -51 -22.5t-53.5 -28.5t-42.5 -42.5t-17 -64.5q0 -19 6 -29.5t16 -15t23 -5.5t27 -1h39l7 -3q-4 -17 -10.5 -33t-14 -31 t-13.5 -30.5t-9 -32.5l1 -6q3 -14 7.5 -29t11.5 -27.5t17 -20.5t24 -8q23 3 40.5 23.5t30.5 43.5l1 -1q9 16 16.5 33.5t18.5 32.5l-1 -1q7 12 14 18t22 6q19 0 31 -11.5t20.5 -28t16 -36.5t17 -36.5t23.5 -28t36 -11.5h3q21 3 39.5 15.5t31.5 31.5t20.5 41.5t7.5 44.5 q0 14 -2.5 26t-7.5 24l1 -1q-13 26 -26.5 50.5t-18.5 53.5l1 -1q10 16 24 26t30.5 17t33.5 12t33 10l26 3q21 4 35 18t22.5 32t12 38t3.5 36q0 19 -5 35.5t-17 29.5z" horiz-adv-x="728" unicode="*" glyph-name="asterisk"/>
<glyph d="M527 476q0 3 0.5 6t0.5 6q0 40 -22.5 69.5t-59.5 29.5h-7q-3 0 -7 -1l-13 -5q-18 -8 -34.5 -20.5t-34.5 -19.5h-1q-12 0 -15.5 12.5t-3.5 24.5q2 27 7.5 55t5.5 55q0 14 -2.5 28t-8 25t-14.5 17.5t-21 6.5q-15 0 -33.5 -12t-35 -30t-27.5 -40.5t-11 -43.5v-14 q0 -15 1 -29.5t1 -29.5v-7q-1 -19 -9 -39t-30 -23q-19 -5 -37 -6.5t-36 -3.5l-4 -2q-23 -11 -37.5 -40t-17.5 -57v-7q0 -20 7.5 -34.5t19.5 -24.5t27 -15t29 -5q13 0 27 3.5t28 8.5l2 -13q2 -9 2.5 -18t0.5 -19q-1 -20 -6 -40t-7 -40v-6q0 -33 23 -54.5t52 -21.5 q29 2 45.5 20t25 43.5t11 54t3.5 51.5q1 16 7 31t18 26v-1q21 21 48 34t55 19q15 2 30.5 9.5t28 19t21 27t8.5 32.5v8z" horiz-adv-x="548" unicode="+" glyph-name="plus"/>
<glyph d="M220 172q-1 29 -4 62.5t-12 62.5t-26.5 48t-46.5 19h-7q-17 -3 -31 -12t-27 -22h1q-14 -16 -25.5 -35t-11.5 -41v-7q0 -27 10.5 -50.5t15.5 -49.5v-4q-2 -17 -7.5 -32.5t-11.5 -31.5t-11 -31.5t-6 -32.5v-2q1 -32 19 -59t47 -30q34 5 58 28.5t39 57t23.5 72t13.5 74.5 q0 2 -0.5 4.5t-0.5 5.5q0 4 1 6z" horiz-adv-x="240" unicode="," glyph-name="comma"/>
<glyph d="M372 407q1 5 1.5 10t0.5 10q0 32 -20 54.5t-49 22.5q-7 0 -11 -1l-13 -6l1 2q-50 -18 -95 -30t-96 -21l-2 -1q-12 -6 -24.5 -17t-22.5 -25.5t-16 -30.5t-6 -32q0 -18 8.5 -30.5t21.5 -20.5t28 -11.5t27 -3.5q21 0 44.5 8t38.5 8q16 0 32 -2t33 -2q48 0 80.5 34t38.5 85z " horiz-adv-x="395" unicode="-" glyph-name="hyphen"/>
<glyph d="M372 407q1 5 1.5 10t0.5 10q0 32 -20 54.5t-49 22.5q-7 0 -11 -1l-13 -6l1 2q-50 -18 -95 -30t-96 -21l-2 -1q-12 -6 -24.5 -17t-22.5 -25.5t-16 -30.5t-6 -32q0 -18 8.5 -30.5t21.5 -20.5t28 -11.5t27 -3.5q21 0 44.5 8t38.5 8q16 0 32 -2t33 -2q48 0 80.5 34t38.5 85z " horiz-adv-x="395" unicode="­" glyph-name="hyphen"/>
<glyph d="M246 131q0 5 0.5 10.5t0.5 11.5q0 25 -4 50.5t-13 46t-24.5 33.5t-38.5 13q-32 0 -58 -17t-44.5 -43.5t-30 -59t-13.5 -63.5v-9q0 -21 6 -42t17.5 -37.5t27 -27t35.5 -10.5h6q22 2 44 13t40.5 29t31.5 42t17 51v9z" horiz-adv-x="267" unicode="." glyph-name="period"/>
<glyph d="M564 948q-6 13 -13 27.5t-16.5 27t-22 20.5t-27.5 8q-25 0 -44 -15.5t-33.5 -37t-25.5 -45.5t-20 -41v1q-55 -149 -110 -284t-117 -256q-30 -62 -51.5 -101.5t-35 -66t-20.5 -43.5t-8 -35q0 -15 4.5 -33.5t13 -34.5t20 -27.5t26.5 -13.5q29 4 45.5 18t28.5 34.5t22.5 46 t27.5 53.5q20 39 34.5 71.5t26.5 61.5t23.5 54t25.5 49q35 57 62 117.5t57 124.5q16 34 38 67t43 66.5t37 69t18 74.5q-2 11 -3.5 22.5t-6.5 20.5h1z" horiz-adv-x="593" unicode="/" glyph-name="slash"/>
<glyph d="M634 352q20 63 31 132t11 132q0 58 -18 115t-49 101t-73.5 71.5t-91.5 27.5q-54 0 -111 -26t-108 -69.5t-92.5 -99.5t-63.5 -117q-25 -68 -37 -140.5t-12 -136.5q0 -60 10.5 -118t32.5 -109q13 -31 34 -54.5t47.5 -39t56.5 -23.5t61 -8h9q34 0 67 3q49 21 95 56t85 81.5 t69 102.5t47 119zM443 598q3 -32 3 -65q0 -32 -3 -67.5t-10.5 -70.5t-21 -68.5t-33.5 -62.5l1 2q-24 -33 -57.5 -48.5t-65.5 -19.5h-4q-26 0 -44.5 13.5t-31.5 35t-19 49t-6 54.5v15q4 67 21 135t49 134q26 29 57.5 45.5t63.5 16.5q39 0 69 -25.5t32 -72.5z" horiz-adv-x="697" unicode="0" glyph-name="zero"/>
<glyph d="M293 822v8q-2 36 -20 61.5t-49 25.5h-9t-9 -2q-32 -23 -65 -56.5t-60 -72t-44 -80t-17 -80.5q0 -22 10 -39t27 -17q16 0 35 13t35 33q-2 -54 -5 -107.5t-6 -107.5v-2q0 -13 6.5 -21.5t8.5 -20.5q0 -14 -4.5 -26t-8.5 -25v1q-17 -37 -20 -75v-12q8 -9 12 -22t4 -27 q0 -15 -4 -29.5l-8 -29t-7.5 -29t-3.5 -29.5v-2q0 -15 5 -30.5t13.5 -28t20.5 -20.5t27 -8q31 1 53.5 27t27.5 60q13 95 19.5 190.5t11.5 191.5t10 193t14 195z" horiz-adv-x="313" unicode="1" glyph-name="one"/>
<glyph d="M583 154v4q0 25 -11 41t-28 25t-38.5 12.5t-42.5 3.5q-29 0 -55 -5.5t-50.5 -12.5t-48 -14t-47.5 -9l-9 -1q-2 0 -4.5 0.5t-4.5 0.5l-15 3q65 83 126.5 178.5t133.5 198.5v-1q42 56 73.5 120.5t37.5 131.5v5q0 37 -20 65v-1q-18 25 -39.5 46.5t-54.5 21.5h-7q-4 -1 -8 -1 h-6q-13 0 -24.5 2t-24.5 2q-21 0 -41 -11t-38.5 -26t-36.5 -31t-35 -26q-13 -5 -25 -6.5t-24 -8.5q-25 -13 -46.5 -32.5t-40.5 -43t-36 -49.5t-32 -51q-5 -10 -9 -21t-4 -22v-9q0 -29 12.5 -53t35.5 -24h5q20 12 37.5 31t34 40t34.5 40.5t39 33.5h-1q20 11 43.5 19.5 t46.5 8.5q15 0 27.5 -6t19.5 -22q-9 -25 -25 -44.5t-27 -42.5v1q-27 -35 -49 -71.5t-44 -71.5l1 2q-44 -69 -84.5 -134t-83.5 -124q-17 -24 -30.5 -52t-19.5 -59q3 -6 6 -13t7 -14l4 -5q2 -3 5 -6t5 -7l-2 -9q7 -16 18 -24t24 -11.5t26.5 -5t26.5 -4.5h7q29 0 58.5 3.5 t60.5 4.5q22 -1 45 -5.5t44 -15.5q27 9 61.5 14t67 16t58 33.5t34.5 64.5l-2 -1q2 4 3 6.5t2 6.5z" horiz-adv-x="621" unicode="2" glyph-name="two"/>
<glyph d="M591 821q-21 15 -37 36t-32 39.5t-35 32t-45 13.5q-15 0 -28 -4q-43 -11 -84.5 -19.5t-80.5 -28.5q-31 -15 -62 -38.5t-57.5 -52.5t-46 -64.5t-26.5 -74.5v-3q0 -25 10.5 -44.5t30.5 -19.5q13 0 27 11.5t28 27t28 31.5t26 25q26 17 50.5 27t53.5 10q17 0 34.5 -2.5 t34.5 -6.5q4 -6 4.5 -14.5t1.5 -16.5q-4 -36 -25 -68t-48 -52q-9 -1 -17.5 -0.5t-17.5 -3.5q-21 -6 -42.5 -18.5t-39.5 -29.5t-31 -39.5t-16 -48.5v-6q0 -21 9 -37.5t23 -27.5q27 3 57 3q40 0 80 -9t74 -37v-10q-3 -26 -15 -48.5t-29 -40t-37 -31t-39 -21.5l1 1l-9 -2 q-5 -2 -10.5 -3t-10.5 -1h-8q-31 0 -57 13.5t-49 30.5l1 -1q-8 5 -16 6t-16 1q-16 0 -30.5 -9t-25 -23t-16.5 -32.5t-6 -38.5q0 -7 1 -19t4 -25.5t7.5 -25.5t12.5 -19q38 -23 79.5 -33.5t86.5 -10.5q34 0 69 9t70.5 23.5t71 33.5t71.5 39q47 49 71.5 111t24.5 131 q0 71 -24 132.5t-70 103.5q18 25 36.5 52t33.5 55.5t25 58t12 59.5v7q0 11 -1.5 20t-9.5 17z" horiz-adv-x="623" unicode="3" glyph-name="three"/>
<glyph d="M667 519q1 5 1 15q0 36 -21.5 62t-56.5 26h-6q4 73 9.5 145.5t13.5 147.5q-4 20 -17.5 33.5t-33.5 13.5q-17 0 -32.5 -8.5t-31.5 -13.5l-31 -12l-3 -4q-32 -38 -44.5 -80.5t-12.5 -82.5q0 -23 2 -44.5t2 -44.5q0 -5 -0.5 -11t-0.5 -12v-4q0 -20 -7 -41.5t-19 -40t-28 -31 t-35 -14.5q-17 -5 -34.5 -6.5t-35 -3.5t-33.5 -6.5t-31 -14.5v1q12 39 30 76t37.5 74.5t37.5 76.5t30 82l-1 -1q1 2 1 5t1 5v4q0 27 -15 38t-35 11t-37 -9.5t-32 -25.5t-26.5 -35.5t-18.5 -38.5q-34 -85 -63 -165.5t-58 -158.5q-4 -14 -7 -27.5t-4 -27.5v-9 q0 -42 25.5 -64.5t56.5 -22.5q8 0 12 1l8 1q8 2 10.5 3t4.5 2q47 23 101 34.5t107 11.5q17 0 20.5 -8.5t3.5 -20.5v-43q-2 -36 -10.5 -72.5t-8.5 -71.5q0 -19 4.5 -38.5t13.5 -36t23.5 -27t34.5 -10.5h2q14 3 30 7.5t30.5 11t27 17.5t19.5 28q10 77 16.5 154t11.5 156 q23 3 42 16.5t32.5 32.5t21 41.5t7.5 44.5v10z" horiz-adv-x="689" unicode="4" glyph-name="four"/>
<glyph d="M622 881q-5 54 -38 77.5t-78 23.5q-30 0 -62.5 -9.5t-65.5 -24.5t-64.5 -34t-58.5 -39l1 1q-19 -11 -33.5 -17.5t-30.5 -10.5h1q-35 -12 -53 -30t-35 -52h1q-29 -71 -40.5 -145.5t-11.5 -140.5q0 -19 2 -37.5t8 -33.5t16.5 -24t26.5 -9q20 0 45 9t48 14q24 3 50 4t51 1 q15 0 32.5 -3t32.5 -10.5t25 -22t10 -36.5q-5 -30 -20 -55t-36.5 -42.5t-46 -27.5t-46.5 -10q-27 0 -48.5 13.5t-40.5 30t-37.5 30.5t-37.5 14h-4q-13 -2 -24.5 -10.5t-20.5 -21t-14 -28t-5 -31.5v-18q6 -41 27 -74.5t50 -57t65 -36t72 -12.5h2q37 0 79 12t83 35t79.5 55 t67.5 73t46.5 90t17.5 104q0 45 -13 86.5t-27 80.5q-28 47 -71.5 64t-93.5 17q-59 0 -107.5 -13t-99.5 -33q-1 5 -1.5 10t-0.5 10q0 40 17 79q50 28 107 51.5t114 23.5q15 0 32 -3h9q18 0 43 9t47.5 25.5t39 40.5t19.5 53q-1 4 -1 8t-1 9z" horiz-adv-x="643" unicode="5" glyph-name="five"/>
<glyph d="M603 305q5 20 9.5 38.5t4.5 38.5q0 51 -16.5 95.5t-45 77.5t-66.5 52t-81 19q-27 0 -59.5 -9t-65.5 -23t-64 -32t-55 -37q4 34 22 71t41.5 67.5t50 50t48.5 19.5q18 0 32.5 -8t29 -18t30 -18t34.5 -8q22 0 46.5 13t46 33.5t38 46.5t22.5 52q-1 20 -9 34t-18.5 26.5 t-20 25t-12.5 30.5q-6 10 -16 10q-11 0 -23 -5t-23 -5q-12 0 -23 9.5t-27 9.5q-23 0 -47.5 -9.5t-47.5 -17.5q-80 -32 -139.5 -94t-99 -139.5t-59 -162.5t-19.5 -163q0 -86 21 -164v1q11 -41 31.5 -79t49.5 -67t65 -46.5t78 -17.5h12q53 0 101.5 26t90.5 68.5t76 97 t57 111.5zM405 297q-9 -22 -25 -37.5t-35 -25t-38.5 -14t-35.5 -4.5q-14 0 -31.5 9t-33.5 24.5t-28 35t-13 40.5q18 10 37 23t38.5 25t40.5 20.5t44 8.5q34 0 58.5 -19.5t24.5 -57.5v-5q-1 -6 -1.5 -12t-2.5 -12z" horiz-adv-x="637" unicode="6" glyph-name="six"/>
<glyph d="M588 800q7 17 11 33.5t4 32.5v8q0 19 -3.5 39.5t-11 36.5t-20.5 26.5t-32 10.5h-7l1 1q-90 -25 -170.5 -55t-155.5 -65q-28 -13 -60 -28t-59.5 -36.5t-45.5 -51t-18 -71.5v-8q0 -25 12 -41t31 -16q12 0 26.5 6.5t30 15.5l31 18t30.5 15q15 3 30 4t32 7q24 7 49 19t51 12 q7 0 10 -1q-33 -84 -70.5 -161.5t-76.5 -149.5t-77.5 -139t-73.5 -131v1q-9 -17 -11 -39q0 -17 5 -33t13.5 -29.5t20 -23t24.5 -13.5h6q29 0 49.5 18t36 45t28.5 58.5t27 58.5q36 71 79 144t87 150.5t87 160t80 172.5v-1z" horiz-adv-x="624" unicode="7" glyph-name="seven"/>
<glyph d="M645 828q-16 20 -31.5 42t-33 40t-38 30t-47.5 12q-8 0 -17 -1t-18 -4q-46 -13 -91 -22.5t-88 -28.5q-48 -21 -89.5 -60t-72.5 -88.5t-48.5 -105t-17.5 -109.5q0 -37 12 -67.5t35 -48.5q-35 -38 -56 -89.5t-23 -104.5v-11q0 -58 19.5 -102.5t52.5 -75t77.5 -47 t94.5 -17.5h9q66 0 131.5 29.5t128.5 76.5v-1q59 46 91.5 112.5t32.5 144.5q0 63 -17.5 118.5t-46.5 104.5q29 43 48.5 92t23.5 97v6q0 45 -21 78zM439 324q3 -5 3.5 -10.5t0.5 -12.5q-11 -41 -39.5 -66.5t-62.5 -40t-66 -19.5t-49 -5q-28 0 -51.5 18t-23.5 53q0 2 0.5 4.5 t0.5 5.5l1 8q1 18 8 32t17.5 25.5t23.5 20t26 15.5q28 1 59.5 8t63.5 7q25 0 48 -8.5t40 -33.5v-1zM431 712q6 -4 8.5 -10t4.5 -14q-8 -38 -34.5 -68t-54.5 -50q-23 0 -43 -7t-40 -18v1q-10 -5 -22 -10.5t-23 -5.5q-19 0 -30 17t-11 40v8q0 40 21.5 66.5t50.5 42.5t59 22.5 t47 6.5q40 0 67 -21z" horiz-adv-x="687" unicode="8" glyph-name="eight"/>
<glyph d="M615 450q2 30 5 60t3 60q0 55 -11 105t-19 101q-10 31 -30 58.5t-45.5 48.5t-55 33t-57.5 12q-31 0 -64 -9t-65.5 -25t-63 -39t-54.5 -51q-26 -30 -50.5 -65t-44 -72.5t-31.5 -77t-12 -78.5q0 -45 14.5 -84.5t40 -68.5t59.5 -45.5t73 -16.5q34 0 74.5 12.5t77.5 32.5 q6 3 14.5 5.5t13.5 2.5q9 0 12 -12q0 -2 -0.5 -3t-0.5 -2v1q-4 -27 -19.5 -53.5t-36.5 -47.5t-44 -34t-41 -13q-21 0 -37.5 11.5t-30.5 25.5t-27.5 25.5t-27.5 11.5h-5q-15 -4 -31 -11.5t-29 -19.5t-21.5 -29t-8.5 -39q0 -36 18.5 -65.5t38.5 -51.5q28 -25 62.5 -34 t71.5 -11q16 0 30.5 1t29.5 3h-2q66 11 120.5 54.5t95.5 106t69 137.5t42 150zM379 582q-29 -28 -60.5 -40.5t-61.5 -22.5l-9 -3q-13 -5 -26 -5q-23 0 -40.5 14t-17.5 43v9q3 28 18.5 50t36.5 36t43.5 21.5t40.5 7.5q33 0 61.5 -17t39.5 -53q-5 -11 -11.5 -21t-14.5 -19h1z " horiz-adv-x="644" unicode="9" glyph-name="nine"/>
<glyph d="M243 140l1 7q0 26 -2.5 55.5t-11 55t-24.5 42.5t-43 17q-33 0 -59.5 -17.5t-44.5 -44.5t-28 -60.5t-10 -64.5q0 -24 6 -49t18 -45t30 -33t42 -14q24 3 45.5 16.5t39 33.5t28.5 46t13 55zM239 628v2q0 22 -2 48t-9 48.5t-20 37t-34 14.5q-32 0 -57.5 -21.5t-43 -53 t-27 -67t-9.5 -63.5v-5q-1 -5 -1 -14q0 -35 19 -61.5t49 -26.5q22 0 45.5 13.5t43.5 35.5t33 50t14 56q0 2 -0.5 3.5t-0.5 3.5z" horiz-adv-x="264" unicode=":" glyph-name="colon"/>
<glyph d="M218 185v17q0 29 -3.5 60.5t-13 57.5t-27.5 43t-46 17h-9q-34 -6 -59 -37h1q-14 -14 -25.5 -34.5t-11.5 -43.5q0 -31 12 -56.5t18 -54.5v-4q-5 -34 -17 -64t-15 -63v-1q0 -17 5 -33.5t13.5 -30.5t21 -23.5t27.5 -12.5q35 7 58.5 32.5t38 61t22 76t11.5 76.5q-1 4 -1 8v9z M221 629q-1 22 -3.5 48t-9 48.5t-18.5 37.5t-33 15q-35 0 -60 -22.5t-41.5 -55t-25 -69t-9.5 -63.5v-5q0 -18 4 -35.5t12.5 -31t20.5 -22t28 -8.5q21 0 44.5 14t43 36.5t33 49.5t15.5 54l-1 7v2z" horiz-adv-x="242" unicode=";" glyph-name="semicolon"/>
<glyph d="M218 185v17q0 29 -3.5 60.5t-13 57.5t-27.5 43t-46 17h-9q-34 -6 -59 -37h1q-14 -14 -25.5 -34.5t-11.5 -43.5q0 -31 12 -56.5t18 -54.5v-4q-5 -34 -17 -64t-15 -63v-1q0 -17 5 -33.5t13.5 -30.5t21 -23.5t27.5 -12.5q35 7 58.5 32.5t38 61t22 76t11.5 76.5q-1 4 -1 8v9z M221 629q-1 22 -3.5 48t-9 48.5t-18.5 37.5t-33 15q-35 0 -60 -22.5t-41.5 -55t-25 -69t-9.5 -63.5v-5q0 -18 4 -35.5t12.5 -31t20.5 -22t28 -8.5q21 0 44.5 14t43 36.5t33 49.5t15.5 54l-1 7v2z" horiz-adv-x="242" unicode=";" glyph-name="semicolon"/>
<glyph d="M373 178q-17 39 -41 71t-49 61.5t-48 59t-39 64.5q17 38 38.5 73.5t45.5 70.5h-1q16 21 32.5 44t30 48t22.5 51t10 52q-2 8 -1.5 17t-2.5 17v-1q-4 14 -9.5 30.5t-13.5 31t-19 24t-26 9.5q-23 0 -41.5 -15t-33 -36.5t-25.5 -45.5t-19 -42q-27 -62 -48 -122.5t-49 -117.5 v1q-8 -18 -18 -34t-20 -31.5t-17.5 -32.5t-10.5 -36q1 -26 10 -46.5t22.5 -38.5t29.5 -33t32 -29q17 -16 30 -39t24 -48.5t22.5 -51.5t27.5 -46.5t37.5 -33.5t52.5 -13h2q16 1 29.5 9t23 21t15.5 28.5t7 32.5v7q0 19 -3.5 36.5t-8.5 33.5z" horiz-adv-x="406" unicode="&lt;" glyph-name="less"/>
<glyph d="M384 554v14q0 38 -20.5 65.5t-53.5 27.5q-9 0 -14 -1l-10 -3q-52 -21 -98 -38t-93 -28l-2 -1q-12 -6 -23 -18.5t-19.5 -27.5t-13 -31.5t-4.5 -30.5q0 -37 24.5 -54.5t54.5 -17.5q13 0 25.5 3.5t24.5 8t25 8t27 3.5t27.5 -1t27.5 -1q55 0 85 34.5t30 88.5zM21 273v-8 q0 -17 4.5 -34t13.5 -30.5t21 -22.5t27 -9l9 2h-1q41 8 86 15t89 7q4 0 7.5 -0.5t7.5 -0.5h3q15 5 29.5 17t26 28.5t18 35t6.5 35.5q0 15 -7 31h1q-15 29 -41 42.5t-55 13.5q-15 0 -28.5 -4t-26.5 -8.5t-26.5 -8.5t-29.5 -4t-30.5 2t-28.5 2q-37 0 -56 -30.5t-19 -70.5z" horiz-adv-x="405" unicode="=" glyph-name="equal"/>
<glyph d="M369 524q-3 22 -13.5 35.5t-24.5 23t-29.5 17t-27.5 17.5q-32 29 -57 64.5t-45 73.5q-5 10 -11 20.5t-13.5 19t-16 14t-19.5 5.5q-9 0 -16 -4t-15 -9l1 2q-26 -19 -43.5 -51.5t-17.5 -64.5v-11q0 -26 7.5 -47.5t18.5 -40t25 -35.5t27 -33q24 -11 43.5 -34t19.5 -60 q-10 -18 -20.5 -34.5t-18.5 -34.5q-8 -28 -20.5 -54t-26.5 -50v1q-5 -6 -8 -13t-8 -13l1 1q-12 -17 -21 -36.5t-11 -41.5v-8q1 -17 6.5 -35t14.5 -32t21.5 -23.5t29.5 -9.5h1q22 0 39 13t30.5 33t24.5 43.5t22 43.5q26 50 52.5 102t57.5 103v-1q14 25 27.5 51t15.5 54v6 q0 9 -1 17t-1 16z" horiz-adv-x="392" unicode="&gt;" glyph-name="greater"/>
<glyph d="M516 819v2q0 33 -11 57.5t-29 40.5t-42 23.5t-51 7.5q-40 0 -82 -17q-11 -6 -20 -15.5t-17.5 -20t-16.5 -21t-17 -18.5l-15 -7q-17 -7 -32 -10.5t-31 -11.5q-24 -11 -47 -36.5t-41.5 -57.5t-30.5 -66t-13 -61q1 -13 2.5 -27.5t5.5 -26.5t11 -21t19 -10q13 4 27 10.5 t26.5 17t22.5 25.5t15 35v-1q6 22 20.5 45t33.5 42t40.5 30.5t41.5 11.5q6 0 11 -2.5t6 -10.5q-5 -42 -29 -79t-47 -70l-13 -18q-37 -42 -64 -95t-27 -109q4 -36 29 -57t56 -21h2q30 3 41.5 25.5t19 50t17.5 54t37 38.5h-1q18 11 27 31t12 40v-1q1 17 10.5 28.5t21.5 21 t24.5 19t20.5 22.5q26 51 49 104.5t28 108.5zM291 205q-15 29 -41.5 43.5t-55.5 14.5h-8q-27 -3 -47.5 -20.5t-34.5 -43t-22 -55.5t-9 -57v-4q0 -19 7 -35t18 -28t26 -19t30 -7h3q27 0 51.5 14t44 37t32.5 53t16 63q0 11 -1 23.5t-9 20.5z" horiz-adv-x="537" unicode="?" glyph-name="question"/>
<glyph d="M672 734q-10 42 -30 74.5t-48 55.5t-62.5 35t-72.5 12h-15q-49 -2 -92 -20.5t-81 -48t-70.5 -66.5t-60.5 -74q-30 -40 -52.5 -85.5t-37.5 -93t-22.5 -95.5t-7.5 -93q0 -60 15 -119.5t43.5 -108t71 -80.5t98.5 -37h-1l28 -1q25 0 51.5 5t51.5 16t47 30t38 46q9 17 18.5 37 t9.5 41q0 14 -6.5 26.5t-14.5 21.5h20q54 18 92.5 60.5t64 97t37.5 114.5t12 111q0 38 -6.5 72.5t-17.5 66.5zM419 225q-19 -2 -37 -10.5t-34 -21.5q-21 -20 -46.5 -30t-49.5 -10q-30 0 -52.5 22t-37.5 55t-23 71.5t-8 72.5q0 27 3.5 55t6.5 54q13 44 39.5 87t60.5 76.5 t72 54.5t73 21q25 0 47.5 -9t39.5 -26t27 -41t10 -54v-11q0 -9 0.5 -17.5t0.5 -16.5v-7q0 -16 -0.5 -34t-4 -35.5t-11 -33.5t-20.5 -28q-11 14 -13 33.5t-2 39.5v9q3 20 5 41t2 41v18q2 9 2 19v19q0 30 -10.5 55.5t-36.5 25.5q-7 0 -11 -1h1l-15 -3q-13 -5 -22 -16.5 t-20 -19.5l-8 -1q-54 -4 -92 -38t-63 -82t-36.5 -101.5t-11.5 -95.5q0 -30 8.5 -57t24 -47.5t37 -32.5t47.5 -12q29 0 60.5 17t56.5 46q12 -10 23 -21.5t25 -18.5zM329 494q-1 -8 -2.5 -30t-6 -45t-13 -41t-23.5 -18q-11 0 -19.5 8t-8.5 22q0 24 10 48.5t20 47.5l-1 -1 l15 16q2 2 4.5 3.5t5.5 2.5h3q1 0 2 0.5t2 0.5q10 0 12 -11v-3z" horiz-adv-x="716" unicode="@" glyph-name="at"/>
<glyph d="M666 125q2 20 3.5 39.5t1.5 39.5q0 88 -20.5 168t-47 157t-52 153t-34.5 157q-6 51 -38 78.5t-76 27.5q-29 0 -55 -11.5t-48.5 -31.5t-40 -46.5t-28.5 -56.5v1q-69 -177 -122 -342.5t-85 -326.5q-1 -5 -2 -9.5t-1 -9.5v-6q0 -17 4 -34.5t11.5 -32.5t19.5 -24.5t27 -9.5 q13 0 23.5 7.5t19 19t15 26t10.5 28.5q1 5 2 10.5t4 9.5v1l-2 -1q11 27 35 40t48 13h20q22 0 45.5 -3t45 -11.5t41 -23t33.5 -37.5q8 -31 33.5 -49t55.5 -18q23 0 48 6t47 18.5t38 32.5t21 48v3zM368 427q0 -17 -10.5 -32t-24.5 -20l-14 -9q-11 -5 -22.5 -10t-23.5 -8h-8 q-15 0 -22.5 10.5t-7.5 26.5v4q3 20 11 39t17.5 37t20.5 36t20 37l7 6q16 -1 27 -13t18 -28.5t9.5 -35t2.5 -33.5v-7z" horiz-adv-x="691" unicode="A" glyph-name="A"/>
<glyph d="M610 819q-10 26 -24.5 49t-33.5 40.5t-42.5 27.5t-50.5 10q-25 0 -53 -6.5t-56.5 -16t-55.5 -21t-51 -21.5l-13 -6q-29 -14 -56.5 -28t-52.5 -37q-29 -24 -44 -64t-18 -76q-18 -158 -26 -309.5t-12 -307.5v-3q0 -18 8.5 -35t23.5 -18q38 -8 78.5 -14t82.5 -6 q70 0 145 22.5t145 76.5v-1q56 44 86.5 107.5t30.5 138.5q0 64 -17.5 121.5t-46.5 108.5q32 48 48.5 100.5t16.5 104.5q0 34 -12 63zM402 311q6 -6 6 -17q0 -4 -1 -6q-10 -34 -31 -55t-46.5 -33t-53 -18t-50.5 -11q-8 -2 -13 -2q-22 0 -37 20.5t-15 46.5q0 6 1 12t1 12v3 q1 27 7 46.5t21 32t41 18t67 5.5q31 0 58.5 -11t44.5 -43zM404 667q-5 -32 -26.5 -60.5t-48.5 -41.5q-1 1 -4 1l3 1q-32 -2 -61.5 -12.5t-58.5 -18.5q-5 -2 -9 -3t-9 -1q-8 0 -11 6v3q4 28 6.5 59t12 56.5t31.5 42.5t66 17q26 0 51.5 -8t51.5 -15q2 -7 3 -13t3 -13z" horiz-adv-x="643" unicode="B" glyph-name="B"/>
<glyph d="M585 196q17 21 26.5 48t9.5 53q0 28 -9.5 52.5t-26.5 42.5t-39.5 28.5t-48.5 10.5q-21 -6 -36 -19t-25.5 -30t-19.5 -35t-18 -34q-9 -20 -22 -37.5t-29.5 -31.5t-35 -22.5t-37.5 -8.5q-30 0 -49 16.5t-29.5 43t-14 58t-3.5 61.5q0 17 1.5 42.5t6 54.5t13 59t22 57t33 48 t46.5 32q11 5 26 5q26 0 43 -14t32 -31.5t31 -31.5t40 -14q30 0 59 16t53 42t39.5 58.5t18.5 65.5q0 40 -13.5 67.5t-28.5 50.5q-9 19 -26 25t-36.5 7t-40 0.5t-35.5 7.5q-19 12 -47 12q-49 0 -97.5 -25t-91.5 -64t-78.5 -88t-58.5 -97q-36 -76 -52.5 -157t-16.5 -156 q0 -97 25 -181q13 -45 39.5 -80.5t61.5 -60t77 -37.5t86 -13q42 0 79.5 17t72 45.5t65.5 65.5t59 76z" horiz-adv-x="654" unicode="C" glyph-name="C"/>
<glyph d="M600 830q-23 52 -65 74t-93 22q-41 0 -80 -12t-77 -29t-74.5 -36t-71.5 -34l-2 -1q-22 -10 -41 -37t-21 -56q-20 -137 -29.5 -270t-17.5 -265q-2 -20 -4.5 -39.5t-2.5 -38.5v-11q0 -14 2 -28t6.5 -26t13 -20t20.5 -9q40 -5 82 -12.5t87 -7.5q41 0 84.5 8t84.5 27.5 t77.5 52.5t64.5 83q52 94 85 193.5t33 210.5q0 73 -14.5 138.5t-46.5 122.5zM403 602q15 -68 15 -141q0 -35 -6.5 -72.5t-21 -71.5t-37.5 -60.5t-57 -39.5q-20 -11 -42 -19t-42 -8q-14 0 -23.5 15t-9.5 32v4q0 90 8 183t20 187q5 16 16.5 25t26.5 14t30.5 6.5t28.5 1.5 q30 0 55.5 -12t38.5 -44z" horiz-adv-x="682" unicode="D" glyph-name="D"/>
<glyph d="M586 92q8 18 13.5 37.5t5.5 39.5q0 29 -22.5 48t-51.5 19q-17 0 -33.5 -4t-32.5 -9.5t-32.5 -9.5t-33.5 -4q-16 0 -31 2t-30 2q-30 0 -60.5 -8t-58.5 -8q-15 0 -27.5 8t-18.5 23l1 -1q-2 4 -2.5 8.5t-0.5 9.5v10q2 23 10 48.5t29 36.5l1 1q28 5 58.5 16.5t61.5 11.5 q8 0 17 -0.5t17 -0.5q25 0 50 14t44.5 36.5t31.5 51t12 57.5q0 35 -23 53.5t-53 18.5q-22 0 -49 -9t-54 -20t-51.5 -20t-41.5 -9q-8 4 -12 13t-4 20v8q0 52 25.5 79t64.5 41.5t86 22.5t89 22q27 5 59.5 21t60.5 41t47 57t19 68v10q0 26 -12.5 45t-36.5 19h-2 q-70 -9 -135 -34t-126 -54t-118.5 -56.5t-112.5 -42.5l-4 -2q-22 -18 -33.5 -47t-18.5 -58q-23 -159 -32.5 -312.5t-14.5 -305.5v-4q0 -24 12 -45.5t32 -23.5h1q4 0 7.5 0.5t7.5 0.5q23 0 47 -4.5t48.5 -10.5t50.5 -10.5t53 -4.5q26 1 52 4t53 4h67q40 0 78 24t57 66z" horiz-adv-x="641" unicode="E" glyph-name="E"/>
<glyph d="M599 820q25 20 39.5 48.5t17.5 57.5q0 34 -18 58.5t-50 24.5q-13 0 -25 -4q-68 -23 -130.5 -43t-120 -45t-110.5 -59.5t-102 -85.5q-17 -20 -22 -45.5t-8 -48.5v1q-21 -147 -32.5 -288.5t-17.5 -281.5v-3q1 -37 22.5 -64t50.5 -32q6 1 12.5 2t12.5 5v-1q28 16 42 52.5 t14 74.5v89q0 23 7.5 46t20.5 41.5t31 30.5t39 13q20 4 39 5.5t40 4.5q25 4 52 16.5t49.5 32t38 46.5t16.5 60v4q0 22 -7.5 37t-20 24.5t-28.5 13.5t-34 4q-22 0 -44 -5t-43.5 -12.5t-42.5 -15.5t-41 -14l-9 -2q-12 0 -16.5 12t-4.5 26v5q2 11 3.5 22t8.5 20v-1 q33 44 79 63.5t96 32t101 28t95 50.5z" horiz-adv-x="526" unicode="F" glyph-name="F"/>
<glyph d="M626 403q2 16 3 33.5t1 36.5q0 25 -3.5 48.5t-12.5 42.5t-24.5 30.5t-40.5 11.5h-6q-45 -3 -86 -13.5t-83 -17.5q-23 -4 -49 -15t-47.5 -28.5t-35.5 -42t-14 -54.5v-22l1 2q2 -41 29.5 -58.5t61.5 -17.5q16 0 36 5h2q13 0 22 -10t9 -24q-8 -40 -37.5 -64t-60.5 -30 q-44 3 -68.5 27.5t-36 61.5t-13.5 81t-2 86q0 39 16.5 85t42 86t56 66.5t58.5 26.5q20 0 36.5 -10.5t31.5 -21.5h-1q16 -14 35.5 -26t44.5 -12q24 0 48.5 14t45 36.5t35.5 49.5t19 54q0 27 -12 48.5t-32 32.5v-1q-16 14 -35.5 27.5t-40.5 24t-42.5 17t-40.5 6.5 q-47 0 -96 -25t-93 -64.5t-81 -88.5t-61 -96q-42 -83 -63 -171.5t-21 -171.5q0 -38 5 -75t14 -72v1q12 -43 35.5 -81.5t55.5 -67t71 -45t83 -16.5h9q51 0 94 20.5t80 55t69 79.5t61 94v-1q10 16 15.5 36.5t8.5 41.5t3.5 40.5t0.5 34.5z" horiz-adv-x="659" unicode="G" glyph-name="G"/>
<glyph d="M642 985q0 2 0.5 4.5t0.5 4.5q0 24 -14 39t-36 15q-13 0 -31 -8q-29 -8 -53.5 -27.5t-43 -45.5t-29 -55t-10.5 -56q0 -41 2.5 -77.5t3.5 -77.5v-2q0 -23 -8 -46.5t-22 -44t-32 -34.5t-39 -18q-23 -8 -48.5 -9t-47.5 -1q-16 0 -23 14.5t-7 32.5q0 40 8 80.5t8 81.5 q0 19 -4 36.5t-11.5 31t-18 21.5t-24.5 8q-15 0 -31.5 -9.5t-31.5 -25.5t-26 -36.5t-14 -42.5v-3q-9 -147 -19 -294t-20 -293v-13q0 -17 2.5 -36t9 -35.5t17 -28t25.5 -14.5h2q4 -1 12 -1q16 0 30.5 10t25.5 25.5t17 36t6 41.5v10q0 3 0.5 6.5t0.5 6.5v16q0 25 -2 49.5 t-2 49.5v8q2 11 2.5 20.5t3.5 19.5q22 22 44 36t46 22t52.5 11.5t63.5 6.5q12 -14 16.5 -33.5t4.5 -39.5q0 -38 -8 -77.5t-8 -77.5q0 -22 5.5 -44t16.5 -40t27.5 -29t38.5 -11q14 0 32 5t34 15t27.5 24.5t14.5 32.5q29 203 46 407.5t19 410.5v23q0 12 -1 24z" horiz-adv-x="663" unicode="H" glyph-name="H"/>
<glyph d="M432 875q-2 16 -6 32t-11.5 29t-18.5 21t-26 8q-20 0 -40 -6t-40 -13.5t-39.5 -15.5t-37.5 -12q-24 -5 -48 -22.5t-43.5 -41.5t-33 -53t-16.5 -57q0 -18 7.5 -28t18.5 -15.5t23.5 -9t23.5 -8.5q2 -17 3.5 -34t1.5 -35q0 -64 -8 -128t-10 -127q0 -24 2 -48t2 -48 q-2 -19 -11 -30.5t-21.5 -19.5t-27 -15t-27 -16.5t-20.5 -24t-8 -37.5q1 -23 7.5 -45t20.5 -36q5 -6 12 -8.5t14 -4.5q26 0 47 6.5t43 6.5q23 -2 46.5 -6.5t48.5 -4.5q27 1 52 11.5t45 27.5t33.5 40.5t16.5 51.5q0 31 -16.5 46t-37.5 23.5t-41 16t-27 25.5q-16 39 -16 88 q-1 35 5 81t13 95t13 98t5 90q6 23 26.5 36t43 25.5t40 29.5t17.5 49v13z" horiz-adv-x="453" unicode="I" glyph-name="I"/>
<glyph d="M512 868v5q-2 41 -24.5 68t-58.5 27q-32 0 -57.5 -22t-43.5 -53.5t-27.5 -66.5t-9.5 -60q0 -38 2 -74.5t2 -74.5q-2 -23 -2.5 -46t-0.5 -46v-96q0 -27 -2 -59t-10 -62t-23 -55t-41 -38l1 1q-2 -1 -3.5 -1.5t-3.5 -1.5q-15 1 -24.5 16t-14 36.5t-6 44.5t-1.5 41 q0 16 -1.5 34t-7 32t-17 23.5t-30.5 9.5q-24 0 -40 -17.5t-26.5 -43t-15 -53.5t-5.5 -48v-10q0 -42 11 -81t30.5 -72.5t45.5 -61t57 -46.5q12 -5 25 -9.5t27 -4.5h3q42 1 77 22t62 55.5t47.5 80t34 95t21 100t8.5 95.5q2 48 4 94.5t4 94.5q2 9 1.5 17.5t1.5 17.5 q3 48 14.5 96.5t16.5 96.5z" horiz-adv-x="532" unicode="J" glyph-name="J"/>
<glyph d="M533 199q-12 36 -30 67.5t-38.5 60t-41.5 56t-38.5 56.5t-30.5 61t-17 69q7 31 24.5 57t39.5 49t46.5 45t47.5 46.5t41 52.5t28 63q8 18 11 35t5 36v2q0 26 -14 43t-37 17q-18 0 -32.5 -9t-28 -22t-26 -26.5t-27.5 -23.5q-41 -43 -73 -90t-60.5 -94t-55.5 -93t-57 -86 q-5 12 -7 26t-2 28q5 45 16 89t11 89q0 25 -9.5 44t-28.5 19q-12 0 -23 -7l-6 -3q-17 -8 -31 -23.5t-23.5 -35t-15 -41.5t-5.5 -41v-5q-2 -17 -2 -35v-34v-22q0 -62 -7.5 -123.5t-10.5 -122.5q-2 -57 -2.5 -113t-2.5 -113q0 -17 4 -34.5t11.5 -32t18 -25t25.5 -13.5h6 q16 0 27.5 11t19 28t11 37.5t3.5 38.5v29v35q0 22 1 45.5t5.5 45t13.5 41.5t24 37q33 -26 58.5 -61.5t46.5 -77t38 -88t33 -93.5q4 -11 9.5 -23t13.5 -22t18.5 -16t23.5 -6h5q25 5 44.5 21.5t33 39.5t21 49.5t7.5 51.5q0 8 -1 16.5t-6 16.5z" horiz-adv-x="559" unicode="K" glyph-name="K"/>
<glyph d="M561 136q1 3 1 6v7q0 16 -6 31.5t-16 27.5t-23.5 19.5t-29.5 7.5q-19 0 -37 -5t-36 -11t-35.5 -11t-35.5 -5q-12 0 -24 2.5t-23 2.5q-22 0 -43 -5.5t-42 -5.5q-17 0 -35 8q-6 64 -6 132q0 112 12 225t28 230l2 17q0 23 -12.5 34t-29.5 11q-38 0 -62.5 -24.5t-38.5 -59.5 t-20 -73.5t-8 -65.5q-6 -94 -4.5 -185t-2.5 -185q-2 -45 -8 -88t-6 -87q0 -20 8 -37t23 -24q42 -19 90 -24.5t99 -6.5h17q46 0 94 3t100 8q24 2 44 13t35 29t23 40.5t8 48.5z" horiz-adv-x="582" unicode="L" glyph-name="L"/>
<glyph d="M736 468q-2 11 -2 21v21q0 46 8 94t18.5 97t20.5 98t13 97q0 31 -4.5 56.5t-16 43.5t-31 28t-50.5 10q-41 0 -80 -16.5t-71 -44t-54.5 -65t-30.5 -79.5q-15 -79 -30 -156t-50 -151q-13 -29 -24 -58.5t-30 -54.5q-20 47 -28 99.5t-13.5 105.5t-11.5 105t-22 98 q-5 14 -14.5 19t-21.5 5q-28 0 -55.5 -18t-50 -46.5t-37.5 -64t-17 -69.5q-5 -78 -4.5 -153.5t-1.5 -153.5q-3 -59 -11.5 -108t-11.5 -98q0 -27 4.5 -52.5t14 -45t24.5 -31.5t35 -12q2 -1 7 -1q9 0 16.5 6.5t13 16t8 21.5t2.5 24q0 40 -1.5 66.5t-1.5 49.5q0 25 4 56t24 51 q11 -20 15 -43t5 -48t1 -51q0 -25 3.5 -48t13 -43.5t29.5 -35.5q12 -6 24.5 -12t29.5 -6q34 7 57.5 26.5t40 47.5t28.5 62.5t24 70t26 70t34 63.5q11 -9 14 -24t3 -29q-4 -22 -9 -43.5t-13 -41.5t-14 -40.5t-9 -44.5q0 -2 -0.5 -5t-0.5 -5q0 -20 8.5 -37t23 -30.5t33.5 -21 t41 -7.5t42 10t35 26q51 54 73 124.5t22 143.5q0 42 -4.5 81.5t-11.5 79.5z" horiz-adv-x="815" unicode="M" glyph-name="M"/>
<glyph d="M644 918v4q0 30 -17 42t-42 12q-30 0 -61.5 -15t-57 -40t-42 -57.5t-16.5 -66.5q0 -56 7.5 -105t7.5 -104q-3 -19 -4 -37t-3.5 -35.5t-8 -33t-16.5 -29.5q-17 1 -29 11t-20.5 24t-15 29.5t-13.5 28.5q-22 42 -40 86t-26 95q-6 37 -28 59t-52 22q-22 0 -41 -11t-33 -29.5 t-23.5 -42t-12.5 -48.5q-15 -123 -26 -239.5t-11 -236.5q0 -40 1.5 -74t8.5 -58.5t20 -38.5t36 -15q14 0 28 6t25 19q17 19 24.5 45.5t9.5 53.5q0 44 -4.5 77.5t-4.5 68.5q0 24 1.5 40.5t8.5 27.5q12 0 21 -7t16 -17t13 -21.5t12 -20.5q12 -25 22.5 -56.5t22 -64t25 -63 t31.5 -54.5t42 -38.5t56 -14.5q34 0 63.5 21.5t41.5 54.5q33 102 52 207t29 211.5t14 213.5t9 214z" horiz-adv-x="665" unicode="N" glyph-name="N"/>
<glyph d="M637 351q19 69 30 146t11 142q0 58 -13 111t-38.5 93.5t-64.5 65t-91 26.5h-13q-64 0 -124 -25t-111.5 -68.5t-91 -101t-62.5 -122.5q-24 -69 -36.5 -139t-12.5 -137q0 -68 13 -132.5t41.5 -115t73.5 -81t108 -30.5q67 0 127 29t109.5 79t86.5 117t58 143zM444 597 q1 -15 1.5 -30t0.5 -30q0 -71 -13.5 -142.5t-53.5 -131.5v2q-18 -28 -45.5 -40.5t-53.5 -14.5h-34q-20 4 -36 17t-28 31.5t-18.5 41t-6.5 46.5q0 19 1 49t5.5 64.5t13 70.5t24 68t39 57t56.5 38q20 7 41 7q41 0 71.5 -27t35.5 -76z" horiz-adv-x="699" unicode="O" glyph-name="O"/>
<glyph d="M600 573q16 35 26.5 71.5t12.5 78.5q0 46 -15.5 80.5t-40.5 59.5t-56.5 41.5t-64.5 26.5q-27 7 -55.5 3.5t-57 -12.5t-56 -21t-53.5 -21q-26 -10 -53 -28t-51.5 -41.5t-44 -52t-31.5 -59.5q-3 -92 -14.5 -183.5t-11.5 -182.5q0 -40 -6.5 -80t-6.5 -79q0 -26 1 -52.5 t5 -33.5q1 -14 4 -29t8.5 -28.5t13 -23.5t19.5 -14q4 -2 8.5 -3t15.5 -1q20 0 34.5 13.5t24 34t14.5 45t5 46.5q0 36 0.5 63.5t2.5 49t6 38.5t12 32q4 0 7 -0.5t7 -0.5q47 0 101.5 16.5t108 49t101 82t80.5 115.5zM312 532q-24 -8 -47.5 -16.5t-39.5 -8.5q-8 0 -12.5 4.5 t-6.5 11t-2.5 14.5t-0.5 15q0 18 2.5 36.5t9 35.5t18 31.5t29.5 23.5q25 3 47 10.5t42 7.5q17 0 29.5 -10t12.5 -30q0 -19 -5.5 -40t-16 -39t-25.5 -31t-34 -15z" horiz-adv-x="638" unicode="P" glyph-name="P"/>
<glyph d="M602 46q-4 35 -17 65t-28 59l5 9v-1q28 44 48.5 94.5t33.5 103t19 106t6 104.5q0 66 -13 130.5t-41.5 115.5t-72.5 83t-105 32q-45 0 -94 -20t-93 -52q-63 -47 -107 -112.5t-71 -138.5t-39.5 -147.5t-12.5 -140.5q0 -65 15 -126.5t46.5 -109.5t80.5 -77.5t116 -29.5 q26 1 51.5 4.5t51.5 16.5q18 -23 45 -37t57 -14h3q18 0 36.5 5t35 15.5t28 26t16.5 36.5zM452 555v-6q0 -44 -7 -93t-20 -94q-19 12 -38.5 20.5t-41.5 8.5q-5 0 -9.5 -0.5t-9.5 -1.5h-2q-15 0 -30 -8t-27 -21.5t-19 -30.5t-7 -35v-20q0 -18 1.5 -35.5t6.5 -35.5 q-27 4 -44 21.5t-26.5 41.5t-13 53t-3.5 58q0 34 5.5 81t21.5 92.5t45 82t75 48.5q8 2 16.5 4t17.5 4h1q23 0 42 -11t33 -30t22.5 -43t10.5 -50z" horiz-adv-x="690" unicode="Q" glyph-name="Q"/>
<glyph d="M639 878q-29 45 -72.5 64.5t-94.5 19.5q-47 0 -94.5 -15.5t-94 -38.5t-90.5 -50t-84 -51q-16 -9 -28.5 -24.5t-20.5 -35t-12.5 -40t-4.5 -39.5q-2 -26 -2 -50t-2 -48q-8 -57 -13 -110t-5 -108q0 -45 1 -90t1 -90q-1 -151 57 -153q38 0 61.5 25.5t23.5 64.5q0 38 -3.5 74 t-5.5 74q1 16 6.5 32.5t16.5 28.5q11 11 25.5 17.5t29.5 6.5q24 0 40.5 -15.5t29 -40.5t23 -57t21 -65.5t24 -65t32.5 -56.5q15 -12 34 -12q27 0 52.5 13t45 34t31.5 48t12 56q0 31 -10.5 58.5t-24.5 53t-28.5 51t-21.5 52.5q4 25 16.5 47.5t27.5 44.5t31.5 43.5t28.5 45.5 q27 51 49.5 103.5t22.5 106.5q0 27 -9 49.5t-22 41.5zM383 731q18 0 29.5 -17t12.5 -43q0 -31 -14 -52.5t-34.5 -37t-44.5 -24.5t-44 -14t-33 -6.5t-12 -1.5q-9 0 -21 1t-22.5 5t-17.5 11t-7 18q0 22 8.5 50.5t27.5 45.5q20 1 38.5 8t36.5 16l37 18.5t39 16.5q10 6 21 6z " horiz-adv-x="615" unicode="R" glyph-name="R"/>
<glyph d="M607 732q5 18 9.5 36.5t4.5 35.5q0 43 -14 72.5t-37 48t-53.5 27t-63.5 8.5q-71 0 -142 -33.5t-129 -90t-97 -130t-45 -153.5q-1 -5 -1 -9v-7q0 -20 3.5 -38.5t6.5 -37.5q26 -40 59 -59.5t67.5 -27t67.5 -7.5t58.5 -0.5t41.5 -6.5t16 -26v-5q4 -20 6 -42 q-1 -18 -8.5 -32.5t-19.5 -25.5t-26 -17.5t-28 -6.5h-7q-29 0 -51.5 13t-42.5 29.5t-40 31.5t-43 20l-16 2q-14 -2 -25.5 -11t-19.5 -23t-12.5 -30.5t-4.5 -32.5v-12q0 -52 25 -87t61 -56.5t76.5 -31.5t70.5 -11q52 3 108.5 24.5t106.5 61t87 95.5t50 128q0 5 0.5 9t0.5 9 q0 54 -16 99.5t-36 89.5q-12 25 -28.5 41.5t-36 25.5t-42 12.5t-46.5 3.5q-34 0 -67.5 -4t-63.5 -4q-11 0 -22 2t-19 7.5t-13 15.5t-5 26v2q5 20 17.5 33.5t28.5 22t32.5 12t28.5 3.5q35 0 64.5 -17.5t50.5 -46.5l-1 1q8 -12 20 -17.5t26 -5.5q18 0 36.5 7.5t36 20.5t32 31 t23.5 38z" horiz-adv-x="641" unicode="S" glyph-name="S"/>
<glyph d="M689 990q-14 14 -31.5 19.5t-37.5 5.5q-45 0 -93 -14.5t-95.5 -35.5t-93 -44t-85.5 -40q-29 -14 -57 -21.5t-55 -21.5q-21 -9 -43 -29t-39 -45.5t-28 -54t-11 -55.5q0 -30 17.5 -41t39.5 -11q19 0 35 4.5t36 4.5q13 0 20.5 -7.5t11.5 -19t5.5 -26.5t1.5 -30 q0 -97 -9 -192t-9 -193q0 -23 2 -51t10 -52t24 -40t43 -16h4q2 0 4.5 -0.5t4.5 -0.5q25 0 41 16.5t26 40.5t14 52t5 52q5 100 6 199t6 201q3 28 8 56.5t19 55.5q18 28 41.5 44t49.5 26t53.5 17t54.5 18q24 10 45.5 28.5t38 42t26 50t11.5 52.5v4q0 16 -4.5 28.5t-12.5 23.5z " horiz-adv-x="513" unicode="T" glyph-name="T"/>
<glyph d="M634 924q1 25 -5 39.5t-16 21.5t-22 9.5t-22 5.5q-5 1 -9 1h-8q-21 0 -44 -9.5t-43 -26t-34 -38.5t-16 -48q1 -32 1.5 -62t0.5 -59q0 -199 -33 -397q-5 -27 -14 -56.5t-24 -54.5t-35.5 -41.5t-47.5 -17.5q-30 13 -48 31.5t-28 40.5t-13 45.5t-3 47.5q0 46 6 93t13 94.5 t13 95t6 94.5q0 19 -2.5 37.5t-8.5 33t-15.5 23.5t-23.5 9q-22 0 -42.5 -16.5t-36.5 -41t-26 -53t-10 -52.5q0 -20 3 -39.5t5 -39.5q-7 -84 -19 -159.5t-12 -149.5q0 -53 13.5 -106t39.5 -95.5t64.5 -70.5t89.5 -30q35 0 67 11.5t69 22.5q58 17 103 59.5t75.5 99t46.5 122 t17 129.5l4 199q0 75 3 148.5t20 147.5z" horiz-adv-x="645" unicode="U" glyph-name="U"/>
<glyph d="M664 898q2 60 -21.5 94t-61.5 34q-24 0 -51 -14.5t-50 -37t-39.5 -50.5t-20.5 -55q1 -15 5.5 -28t4.5 -29q-22 -134 -69.5 -253t-103.5 -225q-13 6 -21 22t-13 36t-9 41t-8 36q-9 42 -20 82t-11 85q1 28 8 49.5t7 43.5q0 35 -16 60.5t-42 25.5q-14 0 -32 -9.5t-34.5 -26 t-28.5 -39t-14 -47.5q-2 -14 -2 -28v-28q0 -66 11.5 -127.5t26.5 -122.5t29.5 -123t21.5 -129q3 -28 14.5 -53t29.5 -43.5t40.5 -30.5t47.5 -13q35 1 68 24t50 62q88 180 167 384.5t136 430.5z" horiz-adv-x="639" unicode="V" glyph-name="V"/>
<glyph d="M784 1043q-21 0 -42 -10q-48 -21 -77.5 -58t-48 -80t-29 -88.5t-19.5 -82.5q-7 -26 -13 -52t-13.5 -51.5t-18 -49.5t-26.5 -46q-2 -2 -4 -2.5t-4 -2.5q-9 23 -12 47t-3 50q0 37 2.5 75t-3.5 74q-1 24 -1 48t-5 44t-18.5 32.5t-41.5 12.5q-21 0 -42 -9q-38 -21 -62 -57 t-38 -77t-22 -84.5t-15 -79.5q-8 -39 -12 -77.5t-20 -75.5q-14 27 -19 59t-6 66t-1 68t-4 66q-2 14 -5 29.5t-9 28t-14 20.5t-20 8q-23 0 -41 -17.5t-30.5 -43t-19.5 -53.5t-7 -49q0 -7 2 -17q11 -119 26.5 -237.5t32.5 -240.5q3 -20 6.5 -42t11 -41t19.5 -33t31 -17 q30 2 54.5 25t44.5 51q14 19 19 43.5t9 49.5t12 48.5t28 40.5l3 2q8 -6 10.5 -16.5t2.5 -21.5q1 -31 2 -72.5t10.5 -79t30.5 -63.5t62 -26q52 6 86 40.5t57 82.5t39 102.5t31 101.5q28 86 58 173.5t68 179.5q14 33 30 70.5t29.5 76.5t22.5 78t9 75q0 18 -6.5 32t-14.5 28z " horiz-adv-x="785" unicode="W" glyph-name="W"/>
<glyph d="M555 187q-17 42 -42.5 75.5t-52.5 64t-52.5 61t-41.5 67.5q19 37 40.5 71t46.5 70q19 28 41.5 60.5t41.5 67t32 70t13 70.5q0 17 -5 34t-14 30t-21.5 21t-28.5 8q-24 0 -46 -14.5t-41 -35.5t-33.5 -45t-24.5 -43v1q-17 -28 -30 -57.5t-26 -58.5t-27.5 -56.5t-34.5 -51.5 q-21 19 -36.5 43.5t-29.5 50.5v-1q-8 13 -14.5 29t-14.5 29.5t-18 23t-25 9.5q-7 0 -16 -3l-11 -7v1q-24 -17 -41.5 -49t-19.5 -64v-7q0 -52 20 -90.5t50 -65.5h-1q18 -17 36 -36.5t20 -53.5q-27 -47 -48 -94.5t-47 -89.5q-11 -18 -20.5 -37.5t-11.5 -42.5v-10 q0 -17 4.5 -32.5t13 -28t20 -20.5t25.5 -8q25 0 42.5 16.5t31.5 39.5t28 48.5t32 44.5q11 17 24 32t30 24q15 -19 26.5 -43.5t23.5 -51t25 -52t30.5 -45t41 -32t55.5 -12.5l5 1q21 1 37.5 11.5t28 27t17 37t5.5 40.5q0 15 -3.5 30t-8.5 29z" horiz-adv-x="601" unicode="X" glyph-name="X"/>
<glyph d="M595 1035q-15 7 -37 7q-24 0 -43.5 -9.5t-35.5 -24.5t-29.5 -34t-25.5 -38h1q-26 -38 -43 -79.5t-33 -82t-36.5 -76t-54.5 -60.5h-4q-11 0 -19.5 14t-17.5 35t-19 45t-23 45t-29.5 35t-39.5 14h-1q-14 -7 -28 -22t-26 -34t-20.5 -40t-9.5 -39v-11q0 -23 7 -40.5t18 -31.5 q18 -25 37.5 -53.5t36 -61.5t27 -69.5t10.5 -77.5q0 -55 -8 -108t-8 -108q0 -23 4 -44.5t12.5 -38t23 -27t35.5 -10.5h11q27 0 47 16t34 40.5t21 54.5t7 57q0 48 -7 95t-7 95v6q8 47 28 91t47 86t58 84t62 85q19 27 39 56t36 59.5t27 61.5t12 62v5q0 25 -8 45t-28 27v-1z " horiz-adv-x="481" unicode="Y" glyph-name="Y"/>
<glyph d="M575 119q3 8 3.5 15t2.5 15v5q0 26 -11.5 43t-29.5 26.5t-40.5 13t-43.5 3.5q-51 0 -100 -15t-94 -29l-30 -6q45 65 93 133t94 146h-1q15 29 33.5 55.5t38.5 52.5v-1q21 30 44 61.5t42.5 65t32.5 68.5t15 71v9q0 53 -25 85.5t-73 32.5q-38 0 -75.5 -11.5t-74.5 -25.5 q-26 -11 -52 -28.5t-52 -28.5q-23 -8 -45 -12.5t-45 -15.5q-29 -14 -55 -42t-43 -63v1q-11 -16 -15.5 -35t-4.5 -38q0 -34 18 -47t44 -13q21 0 49.5 8.5t61 22t66 30t64.5 33.5q-74 -134 -145 -251t-145 -216q-20 -24 -37 -53t-19 -65v-7q0 -29 9.5 -51t25.5 -37t37.5 -22.5 t44.5 -7.5q32 0 66 5.5t69 5.5h11q17 0 34 -3t34 -7h-1q6 -3 13 -3.5t14 -0.5q23 0 44 10t44 15q36 8 65.5 36.5t43.5 66.5z" horiz-adv-x="645" unicode="Z" glyph-name="Z"/>
<glyph d="M305 925q-6 31 -25 52.5t-48 21.5q-15 0 -32 -7t-35 -16.5t-35.5 -19t-31.5 -13.5h1q-18 -9 -31.5 -25.5t-22 -35.5t-13 -40t-5.5 -39q0 -24 6 -45q13 -37 17 -79.5t4 -87.5q0 -93 -6.5 -185.5t-8.5 -184.5q-2 -35 -10 -68t-9 -68q1 -26 8 -50t23 -42q6 -7 9 -16.5 t12 -13.5h2q7 0 11.5 6t11.5 7q13 -8 24 -20t26 -13q24 9 46.5 27t40 42t27.5 53.5t10 60.5q0 10 -3 18t-14 9q-29 2 -47 18.5t-28 41.5t-13.5 54.5t-3.5 57.5q0 82 11 165.5t13 167.5v13q1 6 1 12v11q0 26 -5 54q7 27 26.5 45t40.5 35t38 37t19 51q0 2 -0.5 4.5t-0.5 4.5z " horiz-adv-x="326" unicode="[" glyph-name="bracketleft"/>
<glyph d="M455 156q-9 46 -25.5 87t-35.5 80t-38.5 77t-34.5 78t-33.5 76t-38.5 70.5t-39 68.5t-34 70q-3 16 -7.5 34t-11 33t-16.5 25t-24 10q-10 0 -20 -5q-16 -8 -29.5 -22.5t-24 -32.5t-16.5 -38.5t-6 -38.5q0 -51 14 -93t37 -74q25 -33 45 -72.5t37 -82.5t32.5 -89t30.5 -94 q7 -33 17 -71t26.5 -71t42.5 -56.5t65 -27.5q23 1 40 10.5t28.5 24.5t17.5 33t7 36q0 20 -1 32t-5 23z" horiz-adv-x="482" unicode="\" glyph-name="backslash"/>
<glyph d="M271 -14q11 9 18.5 21t7.5 27v7q-4 43 -13.5 83t-9.5 84v10t1 10q7 97 12 194l10 194v29q0 36 -1.5 72.5t-1.5 72.5q1 27 5.5 55t9.5 57q-2 11 -4 25t-6 27t-10 22.5t-14 12.5h-5q-23 0 -48.5 -3.5t-42.5 -11.5q-21 -9 -41 -25.5t-36.5 -37.5t-28.5 -45.5t-16 -49.5v-6 q2 -25 18 -36.5t36 -11.5q10 0 21 3l1 1q13 -35 15.5 -75t2.5 -82v-33q-1 -75 -7.5 -150.5t-8.5 -150.5v-8q0 -15 1 -30t1 -30v-9q-2 -18 -11 -28t-22 -16.5t-27.5 -12t-27 -13t-20.5 -20.5t-8 -34v-7q0 -18 4 -36t13 -32.5t23 -23.5t35 -9t42 5t44 7h2q11 0 22 -6.5 t22 -6.5h3q11 2 21.5 8t18.5 13z" horiz-adv-x="329" unicode="]" glyph-name="bracketright"/>
<glyph d="M558 833q-9 21 -23.5 35t-31.5 23.5t-36 16.5t-36.5 15.5t-32 20.5t-23.5 30q-18 25 -49 25q-35 0 -60.5 -21.5t-47 -52.5t-40 -64t-37.5 -55q-17 -22 -32 -43.5t-28 -44.5h1q-8 -15 -18 -28.5t-19 -27.5t-15.5 -28.5t-9.5 -31.5v-6q1 -29 15.5 -50t37.5 -21 q19 0 33.5 11t27.5 27.5t25 35.5t26 35h-1q11 13 21 27t20.5 28.5t22 27.5t25.5 23q16 -16 32.5 -33.5t35 -32.5t40.5 -25t49 -10q17 0 33 4l6 1q22 8 39.5 23.5t29.5 36t18 43.5t6 46q0 22 -4 38v2z" horiz-adv-x="583" unicode="^" glyph-name="asciicircum"/>
<glyph d="M672 -260q8 16 8 30q0 17 -8 34t-20.5 31t-29 22.5t-33.5 9.5h-13q-15 -1 -30 -1h-29q-120 0 -224 6.5t-193 16.5l-3 -1q-12 -2 -25.5 -8.5t-24.5 -17t-18.5 -24t-7.5 -29.5q0 -19 9 -33.5t21.5 -24.5t27 -16t26.5 -8q16 -2 32 -1.5t33 -2.5q37 -8 77 -17.5t82 -17.5 t87 -14t93 -6q23 0 46 3t43.5 11t39 21t32.5 34z" horiz-adv-x="700" unicode="_" glyph-name="underscore"/>
<glyph d="M169 890q-14 6 -32 6q-26 0 -53 -12.5t-44 -37.5h1q-11 -9 -17.5 -24t-6.5 -27q0 -23 16 -37t39 -24.5t48 -19.5t44 -22q8 -5 14.5 -10.5t12.5 -12.5l5 -3q16 -10 41 -10q20 0 45.5 6.5t48 17.5t38 25t15.5 28q0 13 -7.5 26.5t-19 26t-24 23t-21.5 16.5q-32 21 -70 36 t-73 29z" horiz-adv-x="396" unicode="`" glyph-name="grave"/>
<glyph d="M560 161q0 70 -16.5 133t-37.5 124.5t-41 123.5t-28 130q-5 45 -34 69.5t-67 24.5q-23 0 -45 -9.5t-41.5 -25.5t-34.5 -38t-25 -46q-57 -144 -99 -278t-69 -262q0 -5 -1 -9t-1 -7v-7q0 -14 3.5 -28.5t10 -27.5t16 -22t22.5 -11h7q15 0 25 7t17 18.5t12.5 25t11.5 25.5v3 q0 3 4 7v6q6 11 14.5 17t18.5 9t20 4t19 1q33 0 66.5 -11t53.5 -44q8 -26 30.5 -42.5t50.5 -16.5q20 0 42 5t41 16t32.5 28.5t18.5 42.5v3q2 16 3 31t1 31zM296 368q1 -5 1 -9v-8v-9q0 -11 -6 -20t-16 -13l-13 -8l2 1q-8 -4 -16.5 -7.5t-19.5 -6.5q-17 0 -17 20v2 q5 29 20 53.5t33 60.5h1q5 -1 10.5 -6.5t10 -13.5t7.5 -17.5t3 -18.5z" horiz-adv-x="580" unicode="a" glyph-name="a"/>
<glyph d="M510 659q-9 22 -21.5 41.5t-29 34.5t-36.5 23.5t-43 8.5q-20 0 -43 -5t-46 -12.5t-45.5 -17t-42.5 -18.5l-12 -6q-23 -11 -45 -23t-43 -30l1 1q-26 -21 -39 -55t-15 -64q-15 -128 -20 -249t-10 -246v-3q0 -25 15 -38t36.5 -19t46.5 -7.5t46 -2.5h20q54 0 110.5 16 t111.5 53v-2q48 38 79.5 89.5t33.5 106.5v-1q1 6 1 13v13q0 51 -14 96t-36 85q24 39 37.5 80.5t13.5 82.5q0 30 -11 55zM328 242q1 -1 1 -7v-2q-8 -27 -24.5 -42t-36 -23t-40 -12t-37.5 -10q-2 -1 -7 -1q-14 0 -23 13t-9 30q0 6 1 10v12q1 18 4.5 31.5t14 22.5t30 13.5 t51.5 4.5q23 0 42 -7.5t31 -30.5zM278 464q-13 -1 -24.5 -2.5t-22.5 -6.5l1 1q-15 -4 -34.5 -12.5t-31.5 -8.5q3 18 3.5 35t3.5 36v-1q4 17 13 28.5t19.5 18t22 9t21.5 2.5q20 0 37.5 -6t36.5 -11q1 -2 1.5 -5.5t1.5 -6.5q-3 -21 -17 -40t-31 -30z" horiz-adv-x="547" unicode="b" glyph-name="b"/>
<glyph d="M489 151q16 17 23.5 40.5t7.5 46.5q0 24 -8.5 45.5t-23.5 37.5t-35 25t-43 9h-6q-32 -9 -48.5 -36t-31 -56.5t-34.5 -54t-58 -28.5q-21 1 -34 13.5t-20.5 32t-10 42.5t-2.5 46q0 24 3.5 57t13.5 65.5t28 60.5t47 42l-1 -1q10 3 18 3q19 0 31.5 -11.5t24 -25t25.5 -24.5 t36 -11q25 0 50.5 13.5t45.5 35.5t33.5 49.5t16.5 56.5v7q0 29 -11.5 51t-24.5 42l1 -1q-10 22 -27.5 26.5t-36.5 4.5h-13q-10 0 -20 1t-18 5l1 -1q-20 12 -42 12q-40 0 -80.5 -20.5t-76.5 -52.5t-65.5 -72t-48.5 -80q-26 -54 -38 -111.5t-17 -112.5v-25q0 -41 4 -79.5 t15 -74.5q10 -36 31.5 -65.5t50 -50.5t62.5 -32t70 -11h10q34 0 65.5 14.5t59.5 38t53 53.5t48 61z" horiz-adv-x="557" unicode="c" glyph-name="c"/>
<glyph d="M503 668q-20 45 -56 64t-80 19q-33 0 -67.5 -9t-64.5 -26h1q-29 -14 -60.5 -28.5t-54.5 -26.5l-2 -1q-20 -8 -37 -32t-18 -50q-17 -110 -24.5 -215t-13.5 -211q-2 -18 -4 -33.5t-2 -32.5v-6q0 -12 2 -26t7 -25.5t13 -19t21 -8.5l42 -6h-1q27 -5 55 -8t59 -3 q33 0 66.5 8.5t65 26t59 44.5t48.5 64q42 73 69 155t27 170v4q0 60 -13 114t-37 99v-1zM326 480q12 -51 12 -107q0 -27 -4.5 -56.5t-15.5 -56.5t-29.5 -48t-46.5 -31q-13 -8 -29 -13.5t-30 -5.5q-7 0 -11.5 8.5t-4.5 18.5v4q0 71 6 145.5t16 149.5l-1 -2q3 10 12.5 16 t18.5 9l-1 -1q21 6 42 6t38.5 -8t27.5 -28z" horiz-adv-x="573" unicode="d" glyph-name="d"/>
<glyph d="M492 70q6 15 11.5 31.5t5.5 33.5q0 28 -22 45.5t-48 17.5q-10 0 -20.5 -3.5t-23 -7t-27 -7t-33.5 -3.5q-12 0 -25 1.5t-26 1.5h-11q-22 -2 -43 -7.5t-41 -5.5q-11 0 -16.5 5.5t-8 12t-3 11.5t-0.5 4v3q2 17 7 34.5t19 25.5q23 4 48 13t45 9h14q3 0 6 -0.5t6 -0.5 q22 0 42 10.5t36.5 28t27.5 40.5t14 47v-1q1 4 1 14q0 33 -21.5 49.5t-49.5 16.5q-18 0 -35 -7h1q-26 -9 -49.5 -17.5t-46.5 -16.5l1 1l-13 -4q-8 -2 -12 -2q-4 2 -5 7.5t-1 11.5v4q0 25 11 49l-1 -1q9 15 23 23.5t30 14t33 8.5t32 7q17 4 34.5 9t42.5 13l-1 -1 q23 4 50.5 17.5t51 34.5t39.5 48.5t16 58.5v9q0 24 -12 42t-37 18h-3q-43 -6 -85.5 -19t-83.5 -30t-80 -36t-74 -37q-17 -8 -34.5 -15t-37.5 -12l-6 -4q-20 -16 -30.5 -41t-15.5 -50q-19 -128 -26.5 -250.5t-11.5 -244.5v-3q0 -23 12.5 -43t32.5 -23h20q31 -4 70 -13.5 t83 -9.5q20 0 40.5 2.5t43.5 4.5h54q34 0 66.5 20.5t49.5 57.5z" horiz-adv-x="577" unicode="e" glyph-name="e"/>
<glyph d="M500 648q22 18 34.5 42.5t14.5 49.5q0 32 -17 54.5t-47 22.5q-11 0 -24.5 -4t-28.5 -9t-29.5 -10.5t-25.5 -9.5v1q-37 -12 -75 -26.5t-75.5 -34t-73 -44t-67.5 -56.5q-12 -16 -19 -39t-7 -40q-17 -117 -26 -230.5t-14 -227.5v-2q1 -33 21 -58t46 -29h5q2 1 7 1v-4 q33 19 48.5 53t16.5 66v73q0 33 12 51.5t31 28.5t42.5 14t46.5 7q21 3 44.5 14t43 28.5t32.5 40.5t14 51v5q0 39 -25 55.5t-57 16.5q-18 0 -32 -3t-29 -8.5t-33.5 -12.5t-45.5 -14h1l-6 -1q-3 1 -4.5 7.5t-1.5 12.5v4q0 3 1 5v-1q3 18 15.5 31.5t28 23.5t30 16t22.5 9 q15 4 39 9.5t52.5 14t58.5 22t56 34.5z" horiz-adv-x="478" unicode="f" glyph-name="f"/>
<glyph d="M525 321q3 24 3 57q0 22 -3 43t-12 37.5t-24.5 26.5t-39.5 10h-2q-37 -5 -71 -11t-65 -14h1q-20 -2 -42.5 -12t-41 -26t-30.5 -37.5t-12 -47.5l1 -22q4 -34 29 -48.5t55 -14.5q16 0 30 3q5 0 9 -4.5t5 -10.5q-5 -28 -26.5 -45.5t-43.5 -21.5q-26 2 -46.5 19.5t-27.5 45.5 v-1q-4 29 -7 56.5t-3 56.5v18q1 27 13 62t30 65.5t40 52t45 21.5q15 0 27.5 -9t25.5 -19.5t28.5 -19t36.5 -8.5t42 12t39 31t30.5 42.5t16.5 46.5q0 22 -12.5 41.5t-31.5 35.5t-42 28.5t-45 20.5h1q-11 5 -21.5 7t-21.5 2q-39 0 -78.5 -20.5t-76 -53t-67.5 -72.5t-51 -79 q-34 -65 -51.5 -137.5t-17.5 -138.5q0 -54 13.5 -107.5t41 -95.5t69 -68t97.5 -26h11q41 0 76.5 17t66.5 45t57 65t49 77h-1q17 32 20 56t3 44v1q1 5 1.5 11t0.5 13z" horiz-adv-x="555" unicode="g" glyph-name="g"/>
<glyph d="M537 796q0 23 -14 37.5t-36 14.5q-14 0 -29 -7l1 1q-23 -6 -43.5 -22t-36.5 -37t-25.5 -45.5t-9.5 -46.5v-4q-1 -5 -1 -11v-10q0 -23 3 -43.5t3 -43.5v-8q0 -3 -1 -8v-9q0 -27 -10.5 -46.5t-27.5 -32t-38 -19.5t-41 -8h-25q-2 0 -2.5 -0.5t-2.5 -0.5q-7 0 -10.5 8 t-3.5 19q0 34 6 65t6 64q0 17 -3.5 33t-10.5 28.5t-17.5 20t-24.5 7.5q-13 0 -28 -8t-28.5 -22t-23 -32.5t-12.5 -38.5v-10q-8 -117 -15.5 -233t-15.5 -230v-12q0 -15 2.5 -31.5t8.5 -31t16 -24.5t25 -12h2q4 -1 10 -1q15 0 28.5 8.5t23.5 22.5t15.5 32t5.5 37v8q0 2 0.5 3 t0.5 3v21q0 20 -1.5 41t-1.5 41q0 32 22.5 48.5t50.5 23.5t52.5 8t28.5 2q12 -20 12 -47q0 -30 -6.5 -62t-6.5 -61q0 -20 5 -39.5t15 -35t25 -25.5t36 -10h9q27 2 53.5 19.5t33.5 49.5q22 159 37 323t15 328v22t-1 22q0 2 0.5 3.5t0.5 3.5z" horiz-adv-x="557" unicode="h" glyph-name="h"/>
<glyph d="M369 701q-2 14 -6 28.5t-11 26t-17.5 19t-25.5 7.5h-4t-7 -2l2 1q-15 -2 -27.5 -6t-26 -9t-29 -11t-36.5 -11q-20 -5 -40 -18.5t-37 -33.5t-29 -44.5t-14 -51.5q0 -16 5.5 -26t14.5 -16t19.5 -9.5t19.5 -5.5q3 -26 3 -55v-20q-4 -45 -8 -88.5t-6 -88.5q0 -19 1.5 -38.5 t1.5 -38.5q-2 -17 -15.5 -26t-24.5 -15h1q-20 -7 -36.5 -26t-16.5 -45v-2q1 -17 6.5 -34.5t19.5 -36.5h-1q2 -3 6 -7l12 -12v7q6 -2 9 -2h6q19 0 35 5t31 5q17 -2 37 -5.5t41 -3.5h7q21 2 41 11t37 23.5t28 35t14 44.5v7q0 15 -6 26.5t-15.5 19t-21 12.5t-22.5 8l1 -1l-3 1 q-16 6 -25 15t-13 21t-4.5 26t-0.5 29v13q3 59 14 120t14 126v26q5 17 21.5 27t34.5 20.5t32 25t14 41.5v12z" horiz-adv-x="389" unicode="i" glyph-name="i"/>
<glyph d="M433 693v5q-2 37 -23 61.5t-54 24.5h-3q-5 0 -13 -1.5t-17 -7.5l1 1q-5 -3 -11 -6.5t-12 -9.5v1q-32 -29 -48.5 -70.5t-16.5 -77.5v-12q0 -23 1.5 -45t1.5 -45v-16q-3 -26 -3 -57q0 -23 1 -46.5t1 -46.5q0 -27 -2 -52t-7.5 -46.5t-15.5 -38t-27 -25.5l-6 -3 q-13 3 -18 18.5t-6.5 37t-2 45t-5 43.5t-15.5 33t-33 13q-23 0 -38 -15.5t-24 -37t-13 -45.5t-5 -42v-8q0 -40 13.5 -81t37 -74t54 -54t64.5 -21q54 0 92.5 36.5t64 92t38.5 120t15 120.5l3 75q2 51 5.5 94.5t13.5 89.5q4 17 7 35t5 38z" horiz-adv-x="453" unicode="j" glyph-name="j"/>
<glyph d="M371 298q-27 35 -49.5 72t-27.5 84q10 37 35.5 65t54 55t55 58t37.5 73h-1q5 15 8 28t5 28v3q0 25 -14 41.5t-37 16.5q-28 0 -60 -27.5t-63.5 -67t-59 -83t-46.5 -75.5q-14 -24 -27.5 -46.5t-27.5 -42.5q-1 5 -1 9v10q4 31 13 67t9 76q0 24 -10.5 42.5t-30.5 18.5 q-12 0 -23 -7h1l-5 -2q-15 -7 -27 -20.5t-21 -30.5t-13.5 -35.5t-4.5 -34.5v-4q-2 -17 -2 -35v-35v-41q-8 -86 -12 -170t-6 -170q0 -15 4 -30.5t10.5 -29t16.5 -22.5t24 -12h7q16 0 27 10t18 25.5t10.5 33.5t3.5 34v49q0 30 3.5 63.5t22.5 58.5q23 -20 42 -47.5t34.5 -59.5 t29 -67.5t25.5 -71.5q4 -10 9 -20.5t12.5 -19.5t17 -14.5t22.5 -5.5h6q22 5 39 19t29 33.5t18.5 42.5t6.5 44q0 8 -2 15.5t-7 16.5q-13 39 -34 71t-44 64z" horiz-adv-x="508" unicode="k" glyph-name="k"/>
<glyph d="M473 109q0 2 0.5 5t0.5 5q0 31 -20 55.5t-50 24.5q-13 0 -27.5 -4t-30 -9.5t-30 -9.5t-27.5 -4q-4 0 -16 2t-23 2h-8q-17 -2 -30.5 -5.5t-27.5 -3.5q-11 0 -20 4q-2 25 -3 50t-1 50q0 90 9.5 179.5t22.5 182.5v-1l2 16q0 24 -12.5 34.5t-31.5 10.5q-33 0 -54 -20.5 t-34 -50t-18.5 -61.5t-6.5 -55q-3 -31 -3.5 -62.5t-0.5 -62.5v-49q0 -48 -1 -94t-6 -94q-2 -19 -4 -37t-2 -39q0 -30 19 -46.5t47.5 -24.5t61 -10t58.5 -2h64q33 0 69 3t66 15.5t49 37.5t19 68z" horiz-adv-x="494" unicode="l" glyph-name="l"/>
<glyph d="M613 376q-2 8 -2 16v16q0 34 6.5 71.5t15 76.5t16.5 79.5t10 80.5v11q0 22 -4.5 42t-15 35t-28 24t-44.5 9q-16 0 -33.5 -4t-34.5 -13h1l-12 -4q-1 -1 -2 -1v0h-1q-22 -8 -42 -24t-35.5 -37t-25.5 -44.5t-13 -45.5v2q-9 -43 -17 -95.5t-27 -97.5q-7 -14 -11.5 -28 t-9.5 -28l-1 -2q-8 -17 -14 -34t-16 -33q-12 35 -17 73.5t-9 78t-9 78.5t-17 75v1q-5 16 -15.5 22.5t-23.5 6.5q-23 0 -47 -15t-43.5 -39t-32.5 -54.5t-14 -60.5v1q-3 -26 -3.5 -51.5t-0.5 -51.5v-91v-26t-1 -26v-11q-2 -38 -11 -80t-9 -87q0 -19 5 -38.5t14 -35.5t22 -26 t30 -10h3q2 0 2.5 -0.5t2.5 -0.5q20 0 31 20.5t11 43.5v20q0 17 -1 34.5t-1 34.5t1.5 36t8.5 33q8 -27 8 -56t2.5 -56.5t12 -52t37.5 -42.5q9 -5 17.5 -8t18.5 -3h5q42 8 65 36.5t37.5 67t27.5 81.5t36 79q4 -9 4 -23q-8 -38 -20 -69.5t-15 -61.5l-1 -5q0 -2 -0.5 -5 t-0.5 -5q0 -17 7.5 -33t20 -28t28.5 -19t33 -7h6q20 0 42 13.5t44 35.5h-4q35 46 50 98.5t15 109.5q0 67 -12 127z" horiz-adv-x="679" unicode="m" glyph-name="m"/>
<glyph d="M540 734v3q0 29 -17.5 42t-40.5 13q-20 0 -41 -9l1 1q-26 -7 -46.5 -24.5t-35 -40.5t-22.5 -49t-8 -49q0 -37 7 -71t7 -69v-2q0 -5 -0.5 -18t-2.5 -28.5t-6.5 -31.5t-11.5 -28q-11 3 -18 10.5t-12 17t-9.5 21t-10.5 21.5q-17 32 -31 66.5t-20 74.5q-5 33 -25.5 53 t-48.5 20q-19 0 -36 -10t-29.5 -26t-21 -36.5t-11.5 -41.5q-12 -94 -21 -185.5t-9 -182.5v-31q0 -25 1.5 -50t7.5 -45t18.5 -33t35.5 -14q15 0 32 9.5t35 30.5h-5q8 15 12 32.5t6 35.5v13q0 27 -3.5 53t-3.5 53v23v10t2 10q9 -2 16 -13.5t14 -24.5v-1q0 1 5 -11t12 -28 t14 -32.5t11 -25.5q12 -32 23 -59t25 -47t34 -31.5t50 -11.5h2q29 0 55 19t37 49q24 74 39 149t23 151.5t12 153t7 153.5z" horiz-adv-x="560" unicode="n" glyph-name="n"/>
<glyph d="M534 278q16 54 24.5 115.5t8.5 118.5q0 48 -11 92t-33 78t-55 54.5t-77 21.5h-12q-51 0 -100.5 -21t-91.5 -56.5t-75 -83t-52 -100.5q-20 -57 -30 -114t-10 -110q0 -55 11.5 -108.5t35.5 -95.5t61.5 -67.5t90.5 -25.5q55 0 105 23.5t91 64.5t71.5 96t47.5 118zM359 477 q1 -12 1.5 -23.5t0.5 -23.5q0 -40 -6 -82.5t-20.5 -78.5t-38 -61t-59.5 -30h-24q-29 7 -45 35t-18 63q1 15 2 41.5t5 57t11.5 61.5t22.5 56.5t37.5 41.5t55.5 16q29 0 50.5 -19t24.5 -54z" horiz-adv-x="587" unicode="o" glyph-name="o"/>
<glyph d="M502 454q14 29 22 58.5t10 58.5v7q0 39 -13 68.5t-34 51t-47.5 35.5t-54.5 22v-1q-14 5 -31 5q-20 0 -37 -4.5t-35 -11t-37.5 -14.5t-43.5 -15q-1 -1 -2.5 -1.5t-2.5 -1.5h1q-4 -2 -6.5 -2.5t-4.5 -2.5l1 1q-40 -23 -78 -57.5t-58 -90.5v-1q-3 -73 -12 -145.5t-9 -145.5 q-2 -32 -5 -64t-5 -64v-15q0 -12 0.5 -22.5t2.5 -21.5h-1q2 -14 5 -28.5t8 -28t13 -24t20 -14.5l2 13l1 -14q4 -3 12 -3h7q18 0 31.5 12t22.5 30t13.5 39t4.5 40v53q0 21 2 42.5t11 40.5h7q38 0 83 14t88.5 41t82.5 67t66 93v1zM259 435l-7 -2q-10 -4 -19 -6t-19 -5h1 q-6 -2 -12.5 -4t-10.5 -2h-4q-1 1 -1 3v3l1 -1q-1 5 -2 12.5l-1 7.5q0 12 1.5 25.5t6 26t12 23.5t19.5 17l14 2q14 2 28 7t28 5q9 0 15.5 -5.5t6.5 -16.5v-9q0 -13 -4 -26.5t-11.5 -25t-17.5 -19.5t-22 -9z" horiz-adv-x="554" unicode="p" glyph-name="p"/>
<glyph d="M505 38q-4 28 -13.5 51.5t-20.5 46.5l-1 2q51 87 70 171.5t19 159.5q0 54 -11 107.5t-34.5 96t-60.5 68.5t-89 26q-62 0 -116.5 -33t-98 -84.5t-73.5 -114.5t-42 -123q-8 -35 -11 -71.5t-3 -71.5q0 -54 12.5 -105.5t39 -91.5t67.5 -64t97 -24q19 1 39 4t40 11 q17 -17 39.5 -28t47.5 -11q16 0 33 4.5t31 14t24.5 23.5t14.5 33v3zM364 419q0 -26 -4.5 -55.5t-12.5 -57.5q-13 8 -27 12.5t-29 4.5q-17 0 -33.5 -5.5t-30.5 -16.5t-22.5 -27.5t-8.5 -38.5v-5q0 -14 0.5 -27t2.5 -26q-28 14 -37.5 48t-9.5 72q0 26 4.5 63t16.5 72.5t34 64 t57 38.5l9 3q5 2 16 3q16 0 29 -8.5t23 -22t16 -31t8 -36.5v-7v-8t-1 -9z" horiz-adv-x="579" unicode="q" glyph-name="q"/>
<glyph d="M533 708q-24 38 -61.5 55t-81.5 17q-32 0 -65 -8t-63 -25q-26 -12 -48 -23.5t-41.5 -23.5t-38 -23.5t-38.5 -21.5q-14 -8 -24.5 -21.5t-18 -30t-11.5 -35t-4 -35.5q-2 -65 -10 -127t-8 -127q0 -39 1 -79t1 -78q-1 -5 -1 -10v-10q0 -19 3.5 -36.5t10.5 -31t18 -21.5t25 -8 q32 0 55 21.5t23 55.5q0 40 -4 68.5t-4 55.5q0 4 3.5 13.5t10 19.5t16 17.5t22.5 7.5q17 0 29.5 -13.5t21.5 -32.5t15 -39.5t10 -33.5q4 -14 11 -36t17.5 -43t25 -36.5t33.5 -15.5q23 0 45.5 11t40 29t28 41.5t10.5 47.5q0 27 -8 49t-18.5 42t-22.5 40.5t-19 43.5 q4 19 14.5 36.5t22.5 35t24 34t21 33.5q20 38 38 78.5t20 81.5q0 32 -7.5 52.5t-18.5 37.5v1zM343 532q-4 -27 -22 -45t-39.5 -29t-42.5 -15.5t-31 -4.5q-19 0 -44 13q3 23 6.5 41t14.5 31q34 5 63 21t59 27q6 3 13 3q11 0 17 -9t6 -23v-10z" unicode="r" glyph-name="r"/>
<glyph d="M509 583q5 14 8 29.5t3 30.5q0 37 -12 63t-32 42t-46 23t-54 7q-58 0 -119 -29t-110.5 -77.5t-81 -111.5t-31.5 -131q0 -14 2 -25l4 -22l3 -15q3 -14 15.5 -26.5t31.5 -23t41 -19.5t43 -15q19 -6 33.5 -8t28.5 -2q8 0 16.5 0.5t17.5 0.5q16 0 20.5 -15t4.5 -29 q-1 -24 -18.5 -39.5t-36.5 -16.5h-5q-21 0 -38 10.5t-33.5 23.5t-33 25.5t-35.5 15.5q-1 0 -4 4l-12 -2q-13 -2 -24 -10t-18.5 -20.5t-12 -27.5t-4.5 -30v-9q0 -32 11.5 -56.5t30.5 -43t42.5 -30.5t46.5 -18h-1q32 -10 67 -11q43 2 90 20t88 50.5t71.5 79t41.5 105.5v17 q0 45 -12.5 82.5t-29.5 72.5q-21 43 -55 57t-74 14q-26 0 -52 -3t-52 -3q-14 0 -27 5t-13 26q3 14 11.5 23.5t20 15t23.5 8t21 2.5q25 0 46.5 -12t35.5 -33l2 -2q19 -22 44 -22q15 0 31.5 6t31.5 17.5t27.5 27t20.5 33.5z" horiz-adv-x="540" unicode="s" glyph-name="s"/>
<glyph d="M572 799q-12 13 -27.5 18t-33.5 5q-17 0 -35.5 -4t-37.5 -10q-32 -9 -68.5 -24t-73 -31.5t-69.5 -31.5t-57 -23q-12 -4 -23.5 -8t-23.5 -11q-18 -8 -36.5 -25t-33.5 -39t-24 -46t-9 -46q0 -29 17.5 -40t38.5 -11q15 0 28.5 3.5t27.5 3.5t17 -10q2 -20 3 -41t1 -42 q0 -67 -7 -133t-7 -133q0 -22 2 -47t9.5 -46.5t22 -35.5t40.5 -14h10q22 0 37 13.5t24 34t13 44.5t5 45q3 81 4.5 160t4.5 160q3 23 7 45t14 42l-1 -1q10 16 22.5 25.5t26 15.5t28.5 11t30 12q28 7 55 21.5t47.5 35.5t33.5 49t15 61q0 15 -4.5 25.5t-11.5 21.5z" horiz-adv-x="498" unicode="t" glyph-name="t"/>
<glyph d="M530 735l3 28q0 13 -4.5 20.5t-12 12t-17 7t-18.5 4.5l-9 3q-5 1 -18 1q-18 0 -38.5 -8.5t-37.5 -23t-29.5 -34t-13.5 -41.5v1l-1 -4q1 -23 1.5 -46.5t0.5 -46.5q0 -78 -6 -157.5t-20 -159.5q-4 -21 -10.5 -43t-17 -40.5t-25.5 -31t-35 -13.5l-15 1h2l-5 3 q-13 7 -21.5 19.5t-13.5 27.5t-7 32.5t-2 34.5q0 38 5 74.5t10.5 74t10.5 76.5t5 81q0 17 -3 33.5t-9 29.5t-16 21t-23 8q-14 0 -27 -9v1q-29 -16 -50 -49.5t-24 -70.5v-11q0 -22 3 -41v1q1 -5 1.5 -11t1.5 -12l-2 -10q-3 -61 -13 -122.5t-10 -122.5q0 -44 12 -87t34 -77.5 t54 -57t72 -24.5q29 0 58 8.5t58 20.5l-1 -1q48 13 85.5 48t63 82t38.5 101t14 107v-1q5 68 4.5 134t1.5 134v-1q5 31 5.5 61.5t8.5 63.5z" unicode="u" glyph-name="u"/>
<glyph d="M555 714q2 57 -20 86t-57 29q-19 0 -42 -11.5t-43.5 -30.5t-35 -43t-17.5 -48q0 -17 4 -26.5t4 -20.5v-4q-18 -98 -54 -189.5t-79 -173.5q-17 61 -27 99.5t-15 62.5t-7 38.5t-2 26.5v7q0 19 6 34.5t6 32.5q0 33 -15.5 56t-41.5 23q-6 0 -13.5 -2t-15.5 -7l1 1 q-37 -16 -54 -55t-17 -87q0 -54 9.5 -104.5t22 -99.5t24.5 -99t16 -102q2 -24 12 -45.5t26 -38t35.5 -26.5t40.5 -11q31 1 59 19.5t44 51.5q70 145 134 310t110 345z" horiz-adv-x="551" unicode="v" glyph-name="v"/>
<glyph d="M641 844q-9 0 -18.5 -2t-19.5 -7q-43 -18 -70 -54.5t-43.5 -78.5t-25 -82.5t-13.5 -67.5q-7 -29 -15.5 -57t-27.5 -59q-3 14 -4 28.5t-1 30.5q0 34 -1.5 62.5t0.5 64.5q0 40 -5 68.5t-31 36.5q-11 5 -26 5q-30 0 -52.5 -15t-38.5 -38.5t-27 -52.5t-18 -57.5t-11 -52.5 t-7 -37q-5 -24 -8 -49t-9 -48q-6 20 -7.5 42.5t-1.5 45.5q0 24 -1 54t-5.5 55.5t-15.5 43t-30 17.5q-18 0 -33.5 -12t-27 -30.5t-18.5 -40.5t-8 -41q-1 -6 -1 -16t1 -15q8 -88 19 -175t24 -178q3 -22 7.5 -46t12 -45t19.5 -35.5t30 -17.5q28 2 50.5 22.5t39.5 46.5 q9 15 13 33.5t7 36.5t8 35t16 29q2 -3 2 -7v-9q0 -30 2 -65.5t10.5 -66t26.5 -51t51 -20.5q47 7 77 35t49.5 66.5t32 83t25.5 84.5q23 72 48.5 147t60.5 156q23 53 44 111t21 114q0 15 -5.5 26.5t-11.5 21.5z" horiz-adv-x="700" unicode="w" glyph-name="w"/>
<glyph d="M467 154q-14 32 -33.5 58t-41 49.5t-41.5 48t-34 53.5q14 28 30.5 56t36.5 52l24 36q27 40 51 83t29 91v10q0 16 -4.5 31t-12.5 27t-20.5 19t-27.5 7q-21 0 -40.5 -11.5t-36.5 -30t-31 -41t-25 -44t-19 -39t-11 -26.5q-11 -25 -22 -48t-26 -43q-17 17 -29.5 41t-24 46.5 t-25 38.5t-31.5 16q-8 0 -11 -1v3q-4 -2 -7 -5t-7 -5l-2 -2q-22 -20 -37 -46.5t-16 -51.5v-6q0 -36 11.5 -64.5t30.5 -49.5h-1l23 -23q12 -11 23 -23.5t13 -32.5q-9 -15 -18.5 -34l-19.5 -39t-19 -39t-17 -33q-10 -16 -18 -32.5t-10 -36.5v-8q0 -31 17 -56t44 -25 q22 0 37.5 13t27.5 31.5t23 39.5t25 37q7 10 15.5 20.5t18.5 18.5q18 -26 31.5 -58t29.5 -60.5t40 -47.5t63 -19l5 1q19 0 34 9.5t25 24t15.5 32.5t5.5 36q0 26 -10 52z" horiz-adv-x="508" unicode="x" glyph-name="x"/>
<glyph d="M459 844q-21 0 -38 -8.5t-31 -22t-25.5 -29t-20.5 -30.5l1 1q-21 -29 -34 -61.5t-25.5 -64t-28 -60t-41.5 -49.5q-11 0 -19 23.5t-20 52t-30.5 52t-48.5 23.5l-16 -10v1q-23 -19 -41.5 -47.5t-20.5 -61.5v-8q0 -21 6 -37t16 -28q14 -19 29.5 -41.5t28 -48t21 -54 t8.5 -59.5q0 -35 -5 -68t-7 -67v-8q0 -8 -0.5 -15t-0.5 -15q0 -14 1 -26.5t4 -23.5v1q6 -26 24 -41.5t41 -15.5h9q24 0 42.5 14.5t30.5 36.5t18 48.5t6 50.5q0 37 -5.5 71t-5.5 69v9q7 40 24.5 77t41.5 72.5t50.5 71t51.5 72.5q28 41 53 85.5t26 91.5v5q0 23 -10.5 42.5 t-38.5 28.5v-1q-5 1 -10 1.5t-10 0.5z" horiz-adv-x="481" unicode="y" glyph-name="y"/>
<glyph d="M483 93q2 6 2 12t3 12v6q0 24 -10.5 39t-26.5 24t-36 12t-38 3q-17 0 -37.5 -2.5t-41.5 -7t-41 -11t-36 -14.5q14 22 32 49t37.5 55.5t39 57.5t36.5 57h-2q7 12 15 24t16 23v-4q18 27 39.5 55.5t40.5 59t32 63.5t15 68v10q0 39 -19.5 67t-54.5 33h-10q-29 0 -52.5 -5.5 t-47 -15.5t-50.5 -24t-62 -30q-15 -5 -33.5 -8.5t-38.5 -13.5q-19 -9 -37 -26t-32 -38t-22.5 -43.5t-8.5 -42.5q0 -32 18.5 -46t43.5 -14q12 0 25.5 3t24.5 9h-1q30 11 58.5 24t57.5 27q-54 -99 -107 -185.5t-108 -158.5q-17 -20 -31 -44.5t-15 -56.5v-6q0 -50 30.5 -77 t72.5 -27q29 0 56 4.5t56 4.5h6q17 0 36 -5.5t38 -5.5q17 0 32 7t41 13q31 7 56.5 31t37.5 58z" horiz-adv-x="542" unicode="z" glyph-name="z"/>
<glyph d="M346 102q1 3 1 6v7q0 26 -16 46.5t-39 20.5q-4 0 -12 -2h-6q-6 0 -12 1t-10 5h1q-14 4 -21.5 17.5t-7.5 29.5v8q0 12 1 23t2 23q-1 6 -1 12v13q0 14 0.5 27.5t0.5 27.5q0 17 -2.5 32t-10.5 29l-5 8q20 35 30 79t14 80q-1 7 -1 13v14v47q-1 4 -1 11q0 29 18.5 51.5 t41 44.5t41 45t18.5 54v4q0 29 -16.5 46t-40.5 17q-10 0 -20 -3l-13 -7l1 1q-12 -7 -23.5 -13t-23.5 -9q-23 -17 -44 -49.5t-37 -70t-25 -75.5t-9 -67q0 -17 3.5 -32t3.5 -32v-9q0 -23 -8 -39t-19.5 -29t-25 -24t-25 -24t-19.5 -29.5t-8 -39.5v-8q0 -21 6.5 -31.5t16.5 -16 t21.5 -9t21.5 -12.5q7 -14 9 -29t2 -31q0 -10 -0.5 -19.5t-0.5 -19.5q0 -30 6 -63t20.5 -63t38 -53t58.5 -32q5 -2 9.5 -3.5t9.5 -1.5q19 0 37 8t32.5 22t24.5 33t13 40z" horiz-adv-x="391" unicode="{" glyph-name="braceleft"/>
<glyph d="M189 801q-2 17 -7 34t-13 30t-20 21t-27 8q-14 0 -25.5 -9t-20.5 -22.5t-15.5 -29t-10.5 -28.5q-4 -104 -9.5 -207t-8.5 -206q0 -12 7 -21t8 -22q-1 -14 -5.5 -28t-9 -27.5t-8 -27t-3.5 -27.5v-14q7 -13 9.5 -28t4.5 -30v-4q0 -23 -5.5 -45.5t-6.5 -45.5q1 -12 2.5 -25 t4.5 -25.5t8 -23t15 -18.5q8 0 16 2t16 5h4q21 0 38 18.5t18 44.5q10 92 14.5 184.5t7.5 186t7 187.5t15 189v4z" horiz-adv-x="209" unicode="|" glyph-name="bar"/>
<glyph d="M370 515q0 2 0.5 4.5t0.5 4.5q0 24 -10 34t-24 14t-29.5 7t-25.5 12q-7 14 -8.5 29t-1.5 32v37q0 18 -2 41.5t-11 37.5v-1q-2 50 -30 77.5t-67 27.5q-23 0 -45.5 -11.5t-40 -31t-28.5 -45t-11 -53.5q0 -20 10 -33t25 -13q6 0 12.5 4t13.5 4q4 0 7.5 -1t7.5 -2l8 -1h-1 q20 -8 20 -34q0 -13 -1 -27t-2 -27q1 -5 1 -10v-10q0 -14 -1 -28.5t-1 -28.5q0 -20 3 -37.5t13 -31.5q-19 -32 -28 -72.5t-11 -73.5v-35v-18q0 -8 1 -17q-1 -24 -11 -47.5t-30 -32.5t-36 -27.5t-16 -45.5v-2q0 -30 17 -53t40 -28l10 1q6 2 11.5 2.5t11.5 0.5h18q23 7 43 30 t35.5 54t25 65.5t12.5 65.5v4q0 20 -3.5 38.5t-3.5 38.5v8q7 39 22.5 58.5t44.5 36.5q26 17 45.5 44t19.5 59v6z" horiz-adv-x="391" unicode="}" glyph-name="braceright"/>
<glyph d="M601 828v3q0 32 -21.5 49.5t-50.5 17.5q-21 0 -35 -8.5t-24.5 -21.5t-18.5 -28.5t-17 -30.5q-12 -13 -26.5 -27t-29.5 -25.5t-30.5 -19t-29.5 -7.5q-15 0 -27 7.5t-25 12.5q-14 2 -26.5 5t-26.5 3q-25 0 -49.5 -14.5t-47 -36.5t-42.5 -47.5t-37 -47.5q-6 -14 -9 -29 t-7 -30v-7q0 -22 12.5 -34t29.5 -12q18 0 30.5 13t23.5 28t24 28t32 13q9 0 17 -4t16 -9t16 -9.5t18 -5.5t19.5 -1.5t19.5 -0.5q37 0 75 16.5t74.5 44.5t70 64.5t62.5 77.5q11 17 23.5 35t16.5 38z" horiz-adv-x="622" unicode="~" glyph-name="asciitilde"/>
<glyph d="M241 148q-2 12 -3 25t-4 24t-10.5 18t-22.5 7q-24 0 -44 -15t-35.5 -37.5t-26 -48.5t-14.5 -47q-10 -49 -20 -97t-36 -92q-1 -3 -2 -6.5t-2 -7.5v-2q0 -35 20 -59t49 -25h1l4 2t4 1l2 3q33 33 52.5 74t33.5 86.5t26 93.5t29 96q0 5 -1 7z" horiz-adv-x="263" unicode="‚" glyph-name="quotesinglbase"/>
<glyph d="M426 167q1 8 3 15.5t2 15.5v3q1 5 1 13q0 21 -12.5 33t-30.5 12q-13 0 -26 -6l-6 -2q-23 -8 -43.5 -23t-37 -34.5t-28.5 -43t-18 -47.5q-14 -59 -31 -114t-43 -107q-4 -10 -7 -19t-4 -19v-7q0 -23 12 -41.5t33 -18.5q14 0 30 11q42 30 74.5 73t57.5 93t43 104.5t31 108.5 zM212 117l1 13q0 26 -14.5 40t-34.5 14q-16 0 -35.5 -10t-36.5 -26.5t-29.5 -38t-14.5 -45.5q-6 -38 -6 -78q-11 -35 -25.5 -69t-25.5 -69h1q-4 -5 -4 -11q0 -7 -2 -14v-2q0 -24 13 -39t32 -15q5 0 11.5 1.5t11.5 4.5h-1q27 17 44.5 44t31 59.5t24 66.5t24.5 66 q11 26 20.5 53.5t14.5 54.5z" horiz-adv-x="453" unicode="„" glyph-name="quotedblbase"/>
<glyph d="M1041 262q1 3 1 10q0 19 -11 27.5t-26.5 13t-33 8t-30.5 12.5l-16 4q-30 -5 -59 -14.5t-54.5 -24t-47 -34.5t-34.5 -45l2 2q-17 -27 -32.5 -55.5t-15.5 -57.5t17 -53t48 -24q2 0 4.5 0.5t4.5 0.5h2q46 0 90 18t81 48.5t65 71t42 85.5q1 2 1 3q0 2 2 4zM527 238 q-15 25 -39.5 36t-50.5 11q-38 0 -70.5 -24.5t-55.5 -54.5q-8 -14 -13.5 -28t-13.5 -28v1q2 6 5 11.5t5 10.5v1q-12 -19 -24.5 -44.5t-12.5 -43.5q0 -23 16 -38.5t36 -15.5q29 0 54.5 9t54.5 20q28 31 60 68.5t49 87.5l1 13zM153 256q-24 -8 -48 -22t-42.5 -35.5t-30 -50.5 t-11.5 -67q0 -27 17.5 -40.5t43.5 -15.5q22 5 42 20.5t35 39t24 54.5t9 67q0 22 -10 36t-26 14h-3z" horiz-adv-x="1063" unicode="…" glyph-name="ellipsis"/>
<glyph d="M558 833q-9 21 -23.5 35t-31.5 23.5t-36 16.5t-36.5 15.5t-32 20.5t-23.5 30q-18 25 -49 25q-35 0 -60.5 -21.5t-47 -52.5t-40 -64t-37.5 -55q-17 -22 -32 -43.5t-28 -44.5h1q-8 -15 -18 -28.5t-19 -27.5t-15.5 -28.5t-9.5 -31.5v-6q1 -29 15.5 -50t37.5 -21 q19 0 33.5 11t27.5 27.5t25 35.5t26 35h-1q11 13 21 27t20.5 28.5t22 27.5t25.5 23q16 -16 32.5 -33.5t35 -32.5t40.5 -25t49 -10q17 0 33 4l6 1q22 8 39.5 23.5t29.5 36t18 43.5t6 46q0 22 -4 38v2z" horiz-adv-x="583" unicode="ˆ" glyph-name="circumflex"/>
<glyph d="M600 908q-6 14 -12.5 28.5t-15.5 26t-21 19t-27 7.5q-12 0 -23 -4q-37 -24 -61.5 -59t-42 -74t-31.5 -79.5t-29 -74.5q-63 -140 -119 -268t-122 -237l1 1q-6 -16 -14.5 -30t-16 -28.5t-13.5 -30t-8 -33.5q0 -15 4 -32t12 -32.5t19 -26.5t25 -13q28 4 48.5 24t37 47.5 t30.5 59.5t29 59q24 45 42.5 95t47.5 95q35 54 63 115t61 121q18 33 40.5 65.5t43 66.5t36.5 70t20 74v7q0 11 -1 20.5t-3 20.5zM746 175q8 28 16.5 59t8.5 59t-11 53t-29.5 44t-43 29.5t-51.5 10.5t-58 -8t-60 -23t-55 -36t-42 -47h1q-17 -32 -26 -69t-9 -69q0 -29 10 -57 t27.5 -50.5t42 -36t53.5 -13.5h9t9 1h4q11 0 22.5 2.5t22.5 6.5l-1 -2q51 16 95.5 54t64.5 92zM954 620q8 28 16.5 59t8.5 59t-11 53t-29.5 44t-43 29.5t-51.5 10.5t-58 -8t-60 -23t-55 -36t-42 -47h1q-17 -32 -26 -69t-9 -69q0 -29 10 -57t27.5 -50.5t42 -36t53.5 -13.5h9 t9 1h4q11 0 22.5 2.5t22.5 6.5l-1 -2q51 16 95.5 54t64.5 92zM255 594q5 25 10 50.5t5 49.5q0 41 -21 67t-51 26q-21 0 -41 -13q-30 -11 -55.5 -35.5t-43.5 -56.5t-28 -69t-10 -72q0 -44 22 -73t55 -29q21 0 45.5 11.5t47 32.5t40 49.5t25.5 61.5zM606 276q2 -10 2 -15 q0 -44 -25.5 -72.5t-63.5 -33.5l-4 -1q-21 5 -32 23t-11 39v7q1 16 6.5 33t16 31t25.5 22.5t33 8.5q20 0 35.5 -10.5t17.5 -31.5zM814 721q2 -10 2 -15q0 -44 -25.5 -72.5t-63.5 -33.5l-4 -1q-21 5 -32 23t-11 39v7q1 16 6.5 33t16 31t25.5 22.5t33 8.5q20 0 35.5 -10.5 t17.5 -31.5zM197 631v-1q1 -5 1 -9v-9v-9q-3 -29 -21 -52t-38 -30l-6 -1q-13 0 -20 11.5t-7 27.5q0 14 4 31.5t12 32.5t19.5 25t27.5 10q11 0 18.5 -6.5t9.5 -20.5z" horiz-adv-x="995" unicode="‰" glyph-name="perthousand"/>
<glyph d="M607 732q5 18 9.5 36.5t4.5 35.5q0 43 -14 72.5t-37 48t-53.5 27t-63.5 8.5q-71 0 -142 -33.5t-129 -90t-97 -130t-45 -153.5q-1 -5 -1 -9v-7q0 -20 3.5 -38.5t6.5 -37.5q26 -40 59 -59.5t67.5 -27t67.5 -7.5t58.5 -0.5t41.5 -6.5t16 -26v-5q4 -20 6 -42 q-1 -18 -8.5 -32.5t-19.5 -25.5t-26 -17.5t-28 -6.5h-7q-29 0 -51.5 13t-42.5 29.5t-40 31.5t-43 20l-16 2q-14 -2 -25.5 -11t-19.5 -23t-12.5 -30.5t-4.5 -32.5v-12q0 -52 25 -87t61 -56.5t76.5 -31.5t70.5 -11q52 3 108.5 24.5t106.5 61t87 95.5t50 128q0 5 0.5 9t0.5 9 q0 54 -16 99.5t-36 89.5q-12 25 -28.5 41.5t-36 25.5t-42 12.5t-46.5 3.5q-34 0 -67.5 -4t-63.5 -4q-11 0 -22 2t-19 7.5t-13 15.5t-5 26v2q5 20 17.5 33.5t28.5 22t32.5 12t28.5 3.5q35 0 64.5 -17.5t50.5 -46.5l-1 1q8 -12 20 -17.5t26 -5.5q18 0 36.5 7.5t36 20.5t32 31 t23.5 38zM34 1117q13 -32 38 -48t53 -27t53 -24.5t39 -41.5q18 -25 49 -25q34 0 60 21.5t47.5 52.5t39.5 63.5t38 55.5q17 22 32 43.5t28 44.5h-1q8 15 18 28.5t19 27.5t15.5 28.5t9.5 31.5v6q-1 29 -15.5 50t-37.5 21q-19 0 -33.5 -11t-27.5 -27.5t-25 -35.5t-26 -35h1 q-11 -13 -21 -27t-20.5 -28.5t-22 -27.5t-25.5 -23q-16 16 -32.5 33.5t-35 32.5t-40.5 25t-49 10q-17 0 -33 -4l-6 -1q-23 -8 -40 -23.5t-29 -36t-18 -43.5t-6 -46q0 -22 4 -38v-2z" horiz-adv-x="641" unicode="Š" glyph-name="Scaron"/>
<glyph d="M265 251q-11 18 -26.5 32.5t-32 28t-31.5 27t-25 29.5q11 19 25 35t29 31l20.5 20.5t19.5 22t15 23.5t7 24q-2 4 -1.5 8t-1.5 7q-5 14 -14.5 29t-29.5 15q-15 0 -27 -7t-21.5 -17t-17 -21t-12.5 -19q-17 -28 -31 -56t-32 -54q-10 -16 -24.5 -30t-18.5 -31 q2 -23 21.5 -38.5t39.5 -29.5q17 -11 27.5 -28.5t22.5 -34.5t29.5 -30t48.5 -13q20 1 34 14.5t15 30.5q0 16 -8 32z" horiz-adv-x="300" unicode="‹" glyph-name="guilsinglleft"/>
<glyph d="M1045 94q8 18 13.5 37.5t5.5 39.5q0 29 -22.5 48t-51.5 19q-17 0 -33.5 -4t-32.5 -9.5t-32.5 -9.5t-33.5 -4q-16 0 -31 2t-30 2q-9 0 -32 -4.5t-48.5 -10t-48 -10t-31.5 -4.5q-15 0 -27.5 8t-18.5 23l1 -1q-2 4 -2.5 8.5t-0.5 9.5v10q2 23 10 48.5t29 36.5l1 1 q15 3 38.5 9.5t47 13.5t44 12.5t31.5 5.5q8 0 17 -0.5t17 -0.5q25 0 50 14t44.5 36.5t31.5 51t12 57.5q0 35 -23 53.5t-53 18.5q-13 0 -33 -5.5t-44.5 -13.5t-50.5 -17.5t-50 -17.5t-43.5 -13.5t-31.5 -5.5q-2 5 -2 16q0 14 3 28.5t3 29.5v6q11 36 32.5 54t47.5 26 q21 7 49.5 14.5t58.5 15t60 15.5t54 16q27 5 59.5 21t60.5 41t47 57t19 68v10q0 26 -12.5 45t-36.5 19h-2q-63 -9 -121 -29.5t-113.5 -46t-107.5 -51t-103 -44.5q-26 43 -65 68.5t-93 27.5h-13q-64 0 -124 -25t-111.5 -68.5t-91 -101t-62.5 -122.5q-24 -69 -36.5 -139 t-12.5 -137q0 -68 13 -132.5t41.5 -115t73.5 -81t108 -30.5q66 0 120.5 24t103.5 71q4 -20 15 -35.5t28 -17.5h1q4 0 7.5 0.5t7.5 0.5q23 0 47 -4.5t48.5 -10.5t50.5 -10.5t53 -4.5q26 1 52 4t53 4h67q40 0 78 24t57 66zM444 597q1 -15 1.5 -30t0.5 -30q0 -71 -13.5 -142.5 t-53.5 -131.5v2q-18 -28 -45.5 -40.5t-53.5 -14.5h-34q-20 4 -36 17t-28 31.5t-18.5 41t-6.5 46.5q0 19 1 49t5.5 64.5t13 70.5t24 68t39 57t56.5 38q20 7 41 7q41 0 71.5 -27t35.5 -76z" horiz-adv-x="1092" unicode="Œ" glyph-name="OE"/>
<glyph d="M201 504q4 19 7 37.5t3 38.5q0 33 -7 63t-16.5 58.5t-19 56.5t-15.5 58q-10 12 -22 20.5t-28 8.5q-19 0 -33 -16t-24 -37.5t-16 -44.5t-9 -37v-4q0 -29 8 -53t18 -47t18 -47.5t8 -54.5v-4q-1 -5 -1 -10q0 -4 -1 -9q9 -11 22.5 -18.5t28.5 -7.5q9 0 21.5 4t24.5 11 t20.5 15t10.5 16z" horiz-adv-x="231" unicode="‘" glyph-name="quoteleft"/>
<glyph d="M241 796q-2 12 -3 25t-4 24t-10.5 18t-22.5 7q-24 0 -44 -15t-35.5 -37.5t-26 -48.5t-14.5 -47q-10 -49 -20 -97t-36 -92q-1 -3 -2 -6.5t-2 -7.5v-2q0 -35 20 -59t49 -25h1l4 2t4 1l2 3q33 33 52.5 74t33.5 85.5t26 91t29 91.5v8q0 5 -1 7z" horiz-adv-x="263" unicode="’" glyph-name="quoteright"/>
<glyph d="M387 486q22 37 30.5 75.5t8.5 79.5q0 61 -17.5 112.5t-42.5 96.5v-1q-6 15 -17.5 26t-28.5 11q-19 0 -36.5 -14t-30.5 -31l1 1q-20 -26 -35.5 -55.5t-18.5 -59.5v-8q0 -26 7 -48t18 -42l-1 1q15 -32 26 -67t13 -75q1 -24 16 -38.5t37 -14.5t41 15t30 36zM196 431 q14 21 19.5 45t5.5 49q0 35 -8 65.5t-16 60.5l1 -1q-3 9 -4.5 18t-4.5 18v-1q-2 15 -6 31t-11 29.5t-16.5 22t-22.5 8.5q-12 0 -24.5 -7t-24.5 -18.5t-22 -25.5t-17 -29v1q-8 -16 -14.5 -32t-9.5 -32v-3q0 -16 6 -28t14 -20l-1 -1q33 -45 42 -112l-1 1q0 -14 3 -29t9 -27 t15.5 -19.5t21.5 -7.5q20 0 36 12.5t30 31.5z" horiz-adv-x="447" unicode="“" glyph-name="quotedblleft"/>
<glyph d="M461 805q1 8 3 15.5t2 15.5v3q1 5 1 13q0 21 -12.5 33t-30.5 12q-13 0 -26 -6l-6 -2q-23 -8 -43.5 -23t-37 -34.5t-28.5 -43t-18 -47.5q-14 -59 -31 -114t-43 -107q-4 -10 -7 -19t-4 -19v-7q0 -23 12 -41.5t33 -18.5q14 0 30 11q42 30 74.5 73t57.5 93t43 104.5t31 108.5 zM247 755l1 13q0 26 -14.5 40t-34.5 14q-16 0 -35.5 -10t-36.5 -26.5t-29.5 -38t-14.5 -45.5q-6 -38 -6 -78q-11 -35 -25.5 -69t-25.5 -69h1q-4 -5 -4 -12q0 -6 -2 -13v-2q0 -24 13 -39t32 -15q5 0 11.5 1.5t11.5 4.5h-1q27 17 44.5 44t31 59.5t24 66.5t24.5 66 q11 26 20.5 53.5t14.5 54.5z" horiz-adv-x="488" unicode="”" glyph-name="quotedblright"/>
<glyph d="M275 429v30q0 26 -3.5 53.5t-12 49.5t-23.5 36t-39 14q-41 0 -73.5 -25t-55.5 -62.5t-35 -80t-12 -78.5q0 -21 6.5 -41t18 -36t27 -25.5t34.5 -9.5q27 0 54.5 15.5t51 40t40.5 56t22 63.5z" horiz-adv-x="296" unicode="•" glyph-name="bullet"/>
<glyph d="M522 418q5 15 5 27q0 31 -21 52.5t-50 21.5q-4 0 -7.5 -0.5t-8.5 -1.5l-13 -5l2 2q-60 -22 -116 -34.5t-108 -26.5q-29 -6 -56.5 -13t-53.5 -10l-2 -1q-12 -5 -25 -15.5t-23.5 -24t-17 -29.5t-6.5 -32q0 -17 7 -28.5t18 -19t24.5 -11t26.5 -3.5q17 0 35.5 5t36.5 9 q39 6 80.5 5.5t86.5 7.5q25 4 53 11.5t54.5 21.5t47.5 35.5t31 54.5v2z" horiz-adv-x="547" unicode="–" glyph-name="endash"/>
<glyph d="M672 437q8 18 8 33q0 30 -22 51t-51 21q-16 0 -32 -8l1 2q-92 -29 -174.5 -48t-157.5 -38q-38 -9 -74 -17.5t-71 -13.5l-3 -2q-12 -5 -25 -15.5t-24 -24.5t-18.5 -30t-7.5 -31q0 -16 6.5 -27.5t17 -18.5t23 -10t24.5 -3q19 0 35.5 7t36.5 10q54 5 112.5 7t120.5 13 q33 6 71.5 13.5t75.5 22.5t70.5 40t56.5 66z" horiz-adv-x="700" unicode="—" glyph-name="emdash"/>
<glyph d="M601 828v3q0 32 -21.5 49.5t-50.5 17.5q-21 0 -35 -8.5t-24.5 -21.5t-18.5 -28.5t-17 -30.5q-12 -13 -26.5 -27t-29.5 -25.5t-30.5 -19t-29.5 -7.5q-15 0 -27 7.5t-25 12.5q-14 2 -26.5 5t-26.5 3q-25 0 -49.5 -14.5t-47 -36.5t-42.5 -47.5t-37 -47.5q-6 -14 -9 -29 t-7 -30v-7q0 -22 12.5 -34t29.5 -12q18 0 30.5 13t23.5 28t24 28t32 13q9 0 17 -4t16 -9t16 -9.5t18 -5.5t19.5 -1.5t19.5 -0.5q37 0 75 16.5t74.5 44.5t70 64.5t62.5 77.5q11 17 23.5 35t16.5 38z" horiz-adv-x="622" unicode="˜" glyph-name="tilde"/>
<glyph d="M717 743q-1 4 -1 8v9q0 25 5.5 50.5t12.5 51t12.5 50.5t5.5 49q0 55 -52 55q-36 0 -61.5 -15t-43 -38.5t-29 -51.5t-19 -54.5t-12.5 -48t-11 -31.5q-14 -10 -21 -25t-12 -29l1 1l-3 -12q-2 18 -5.5 50t-9 64t-11.5 55.5t-13 23.5l-16 -6q-40 -8 -68.5 -23.5t-47.5 -55.5 q-5 -55 -10.5 -109t-10.5 -108q-8 -29 -15.5 -59t-7.5 -60q0 -23 7 -43t21 -33q12 2 26 8t25.5 16t19.5 23.5t9 30.5q5 20 4 39.5t9 39.5q2 -5 2 -15v-10q0 -4 -1 -9l-3 -20q-4 -9 -4 -22q0 -20 10 -35t27 -15q31 0 52.5 19.5t37.5 47t28.5 58.5t26.5 55v-9q-2 -12 -6.5 -25 t-9.5 -26t-9 -25t-4 -21q0 -15 10.5 -24t25.5 -9q31 0 53 14.5t37 37.5t24.5 52t14.5 57.5t7 54t3 42.5v5zM308 834q-10 11 -27 11q-18 0 -34 -9t-32 -20l1 1l-15 -10q-25 -6 -56.5 -15.5t-59 -26t-46.5 -40.5t-19 -58q0 -15 5.5 -20t18.5 -5q11 0 20 4l-1 -1h2q5 0 10.5 2 t10.5 2q3 0 4 -1q-4 -38 -6 -82.5t-11 -78.5v-4q0 -16 -2 -32t-2 -31q0 -16 4.5 -28t25.5 -12h7q29 7 41.5 38.5t17 74t5 88.5t5.5 81q9 18 23 29.5t29 16.5l29 11q20 11 35.5 34.5t20.5 49.5q-1 8 -0.5 15t-1.5 14z" horiz-adv-x="773" unicode="™" glyph-name="trademark"/>
<glyph d="M495 592q5 11 8.5 27t3.5 34q0 37 -12 62.5t-32 41.5t-46 23.5t-55 7.5q-59 0 -117 -27.5t-106 -74t-80 -107t-37 -126.5v1q-1 -4 -1 -14q0 -37 11 -62t29 -41.5t40 -25t44 -13t42 -5t33 -0.5q25 0 41 -2t16 -14v-7q2 -8 3 -15l2 -14q-2 -25 -19.5 -40.5t-36.5 -16.5h-5 q-21 0 -38 10t-33.5 23t-33 25.5t-35.5 16.5l-16 2q-13 -2 -23.5 -10t-18 -20.5t-12 -27.5t-4.5 -30v-9q0 -44 20.5 -74t50.5 -49t63.5 -27.5t59.5 -8.5h2q43 0 90 18.5t88 51.5t72 80t42 105q0 2 0.5 5t0.5 5v6q0 45 -13.5 82.5t-29.5 73.5q-10 22 -24 36t-31 22t-36.5 11 t-39.5 3q-28 0 -53.5 -3t-51.5 -3q-14 0 -25.5 5.5t-11.5 24.5q3 14 12 23.5t20 15t22.5 8t20.5 2.5q21 0 37.5 -11t31 -23.5t28.5 -23.5t31 -11q15 0 31.5 6.5t32 18t28 26.5t20.5 33zM47 918q11 -28 32.5 -42t44 -23.5t42 -19t28.5 -27.5q10 -15 22.5 -22t26.5 -7 q30 0 52 17t39 41.5t32.5 51.5t32.5 47q14 18 28 39t30 49h-1l8 11q11 16 21 32.5t13 36.5v7q-1 27 -15.5 47t-37.5 20q-17 0 -29 -8.5t-23 -21.5t-21.5 -29t-22.5 -31q-18 -20 -31.5 -41.5t-31.5 -37.5q-3 2 -5 4l-2 2q-12 13 -24.5 25.5t-27 23t-31 17t-36.5 6.5 q-14 0 -29 -3h-1q-21 -7 -37 -21t-27 -31.5t-16.5 -38t-5.5 -39.5q0 -18 3 -33v-1z" horiz-adv-x="513" unicode="š" glyph-name="scaron"/>
<glyph d="M43 251q11 18 26.5 32.5t32 28t31.5 27t25 29.5q-11 19 -25 35t-29 31l-20.5 20.5t-19.5 22t-15 23.5t-7 24q2 4 1.5 8t1.5 7q5 14 14.5 29t29.5 15q15 0 27 -7t21.5 -17t17 -21t12.5 -19q17 -28 31 -56t32 -54q10 -16 24.5 -30t18.5 -31q-2 -23 -21.5 -38.5t-39.5 -29.5 q-17 -11 -28 -28.5t-23 -34.5t-29 -30t-48 -13q-20 1 -34 14.5t-15 30.5q0 16 8 32z" horiz-adv-x="300" unicode="›" glyph-name="guilsinglright"/>
<glyph d="M845 81q16 32 16 66q0 28 -21.5 45.5t-47.5 17.5q-30 0 -56 -10.5t-50 -10.5q-12 0 -23.5 1.5t-24.5 1.5q-8 0 -26.5 -3.5t-39 -8t-38 -8t-24.5 -3.5q-20 0 -28 18l1 1q-2 3 -2 9v8q2 17 7 34t19 25q14 3 32.5 9t37 11t33.5 9t22 4q3 0 6 -0.5t7 -0.5h14q22 0 44 12 t39 31.5t27.5 44t10.5 49.5q0 34 -21.5 51t-49.5 17q-14 0 -40 -8t-54.5 -18.5t-56 -19.5t-43.5 -12v2q0 8 2.5 25t2.5 22v1q6 23 19.5 36t32.5 21t42 12.5t47 10.5q22 5 46 12t47 15l-1 -1q23 4 50.5 18t51 35t39.5 48t16 59v8q0 24 -13 42.5t-36 18.5h-3q-49 -7 -95 -23 t-89.5 -36t-85 -40.5t-81.5 -35.5q-22 34 -54 53.5t-76 21.5h-11q-53 0 -102.5 -20.5t-91.5 -56t-74.5 -83t-51.5 -101.5q-40 -115 -40 -223q0 -56 11 -109.5t35 -95.5t62 -67.5t91 -25.5q50 0 93 17.5t81 50.5q5 -14 15 -23t23 -11h8q2 0 3 0.5t3 0.5q18 0 36.5 -4 t38.5 -8.5t40.5 -8t43.5 -3.5q11 0 21.5 1t21.5 2l95 3q34 0 67 20.5t50 57.5zM345 487q1 -12 1.5 -23.5t0.5 -23.5q0 -48 -7 -100t-32 -93q-20 -32 -44.5 -44.5t-40.5 -14.5h-24q-28 6 -45.5 35t-17.5 64q0 22 2 61.5t12.5 80.5t31.5 76.5t59 49.5h-1q17 5 30 5 q29 0 50.5 -19t24.5 -54z" horiz-adv-x="874" unicode="œ" glyph-name="oe"/>
<glyph d="M595 1035q-15 7 -37 7q-24 0 -43.5 -9.5t-35.5 -24.5t-29.5 -34t-25.5 -38h1q-26 -38 -43 -79.5t-33 -82t-36.5 -76t-54.5 -60.5h-4q-11 0 -19.5 14t-17.5 35t-19 45t-23 45t-29.5 35t-39.5 14h-1q-14 -7 -28 -22t-26 -34t-20.5 -40t-9.5 -39v-11q0 -23 7 -40.5t18 -31.5 q18 -25 37.5 -53.5t36 -61.5t27 -69.5t10.5 -77.5q0 -55 -8 -108t-8 -108q0 -23 4 -44.5t12.5 -38t23 -27t35.5 -10.5h11q27 0 47 16t34 40.5t21 54.5t7 57q0 48 -7 95t-7 95v6q8 47 28 91t47 86t58 84t62 85q19 27 39 56t36 59.5t27 61.5t12 62v5q0 25 -8 45t-28 27v-1z M544 1195l2 9q0 11 0.5 22t0.5 22q0 18 -2 36t-8.5 32t-18 23t-30.5 9q-18 0 -34 -9q-36 -15 -67 -44.5t-54.5 -66t-36.5 -76.5t-13 -74q0 -32 17 -54.5t45 -22.5q25 0 56 18t59.5 46t51.5 62.5t32 67.5zM241 1083l2 8q2 11 2 22v23v11q0 13 -1 26t-4.5 23.5t-10.5 17.5 t-20 7q-29 0 -57.5 -22t-51.5 -55t-37 -71t-14 -70q0 -31 15.5 -51t39.5 -20q18 0 39.5 13t41.5 34t35.5 48t20.5 56z" horiz-adv-x="652" unicode="Ÿ" glyph-name="Ydieresis"/>
<glyph d="M-47 -182q9 -14 22.5 -24.5t30.5 -10.5q21 0 42 14t41 34t38 42.5t32 39.5h-1q23 29 47 53.5t41 56.5l-1 5q-4 22 -5.5 45t-1.5 47q0 76 8.5 152.5t16.5 151.5q-4 23 -17 43t-36 20q-10 0 -17.5 -3.5t-16.5 -7.5q-47 -68 -78 -144.5t-54 -158.5t-44 -167.5t-49 -171.5 q1 -4 1 -8t1 -8zM97 659q1 -27 11 -49.5t26 -38t36 -24.5t41 -9q9 0 20 2t22.5 7t20.5 13.5t13 21.5v7q1 19 10 34t19.5 29t18.5 28.5t8 33.5v17l-16.5 33t-19 32t-24 26.5t-30.5 16.5q-13 -11 -26.5 -17t-27.5 -14v1q-18 -6 -36.5 -18t-33.5 -28.5t-24 -38t-9 -46.5v-2 q0 -2 -0.5 -4.5t-0.5 -4.5t0.5 -4.5t0.5 -5.5z" horiz-adv-x="348" unicode="¡" glyph-name="exclamdown"/>
<glyph d="M488 250q16 17 23.5 40.5t7.5 46.5q0 24 -8.5 45.5t-23.5 37.5t-35 25t-43 9h-6q-32 -9 -48.5 -36t-31 -56.5t-34.5 -54t-58 -28.5q-21 1 -34 13.5t-20.5 32t-10 42.5t-2.5 46q0 24 3.5 57t13.5 65.5t28 60.5t47 42l-1 -1q10 3 18 3q19 0 31.5 -11.5t24 -25t25.5 -24.5 t36 -11q25 0 50.5 13.5t45.5 35.5t33.5 49.5t16.5 56.5v7q0 29 -11.5 51t-24.5 42l1 -1q-10 22 -27.5 26.5t-36.5 4.5h-13h-14t-14 2q1 4 1 7q0 4 1 8q-2 14 -3 27t-1 27q0 5 0.5 8.5t0.5 8.5q-2 25 -15 42.5t-34 17.5q-13 0 -31.5 -11t-36 -28t-29.5 -38t-12 -42 q0 -12 0.5 -23.5t0.5 -23.5q-26 -16 -50 -38t-45 -47t-38.5 -52t-30.5 -53q-26 -54 -38 -111.5t-17 -112.5v-25q0 -41 4 -79.5t15 -74.5q18 -63 64.5 -103.5t106.5 -51.5v-10q0 -4 1 -9q-2 -18 -6.5 -35.5t-4.5 -35.5q0 -29 16.5 -53t42.5 -29q12 0 29 11.5t33 30t27.5 42 t11.5 46.5q0 16 -1.5 32.5t-3.5 33.5q38 23 71.5 60.5t62.5 78.5z" horiz-adv-x="547" glyph-name="cent"/>
<glyph d="M351 630v14q0 38 -20.5 65.5t-53.5 27.5q-9 0 -14 -1l-10 -3q-14 -6 -27.5 -11.5t-26.5 -10.5q2 20 5 40.5t6 40.5l2 17q0 23 -12.5 34t-29.5 11q-35 0 -58 -20.5t-37 -50.5t-21.5 -65t-10.5 -64q-19 -17 -31 -45t-12 -51t10 -39t26 -24v-51q-23 -11 -35.5 -37t-12.5 -58 v-8q0 -29 12 -54.5t33 -36.5q-2 -42 -7.5 -82.5t-5.5 -81.5q0 -20 8 -37t23 -24q42 -19 90 -24.5t99 -6.5h17q46 0 94 3t100 8q24 2 44 13t35 29t23 40.5t8 48.5q1 3 1 6v7q0 16 -6 31.5t-16 27.5t-23.5 19.5t-29.5 7.5q-19 0 -37 -5t-36 -11t-35.5 -11t-35.5 -5 q-12 0 -24 2.5t-23 2.5q-22 0 -43 -5.5t-42 -5.5q-17 0 -35 8q-2 14 -3 29.5t-2 30.5q17 2 33 3t33 1q4 0 7.5 -0.5t7.5 -0.5h3q15 5 29.5 17t26 28.5t18 35t6.5 35.5q0 15 -7 31h1q-15 29 -41 42.5t-55 13.5q-17 0 -31.5 -4.5t-28.5 -9.5q1 13 2 25.5t2 26.5h4 q14 0 27.5 -1t27.5 -1q55 0 85 34.5t30 88.5z" horiz-adv-x="582" unicode="£" glyph-name="sterling"/>
<glyph d="M401 554v10q0 28 -20.5 48t-53.5 20l-24 -3q-22 -7 -42 -13t-40 -11q7 15 18 30.5t24.5 27.5t29 19.5t33.5 7.5q26 0 43 -14t32 -31.5t31 -31.5t40 -14q30 0 59 16t53 42t39.5 58.5t18.5 65.5v8q0 34 -13.5 60.5t-28.5 49.5q-9 19 -26 25t-36.5 7t-40 0.5t-35.5 7.5 q-19 12 -47 12q-49 0 -97.5 -25t-91.5 -64t-78.5 -88t-58.5 -97q-36 -76 -52.5 -157t-16.5 -156q0 -97 25 -181q13 -45 39.5 -80.5t61.5 -60t77 -37.5t86 -13q42 0 79.5 17t72 45.5t65.5 65.5t59 76q17 21 26.5 48t9.5 53q0 28 -9.5 52.5t-26.5 42.5t-39.5 28.5t-48.5 10.5 h-5q-20 -6 -33.5 -19t-24 -30t-19 -35t-17.5 -34q-9 -20 -22 -37.5t-29.5 -31.5t-35 -22.5t-36.5 -8.5h-1q-34 0 -53.5 20.5t-29.5 51.5q24 2 48.5 4t47.5 2q4 0 7.5 -0.5t7.5 -0.5h3q15 3 29.5 12t26 21t18 25.5t6.5 26.5q0 11 -7 22h1q-15 21 -41 31t-55 10t-52 -8 t-52 -10q0 8 0.5 17.5t1.5 20.5q12 3 24 5.5t26 2.5t27.5 -1t27.5 -1q55 0 85 25.5t30 64.5z" horiz-adv-x="663" unicode="¤" glyph-name="currency"/>
<glyph d="M23 183v-8q0 -17 6 -34t17.5 -30.5t27.5 -22.5t36 -9l12 2q5 1 11 2l12 2q6 -32 22.5 -53.5t48.5 -21.5h11q35 0 59.5 27t36.5 65q8 1 14 1h14q5 0 10 -0.5t10 -0.5h4q20 5 39 17t33.5 28.5t23.5 35t9 35.5q0 8 -2.5 16t-6.5 15h1q-20 29 -54 42.5t-72 13.5 q-5 0 -10.5 -0.5t-10.5 -0.5q-1 9 -1.5 18.5t-1.5 18.5h28q72 0 111.5 34.5t39.5 88.5v14q0 36 -25 63.5t-67 29.5q25 37 53 74t55 75q19 27 39 56t36 59.5t27 61.5t12 62v5q0 25 -8 45t-28 27v-1q-15 7 -37 7q-24 0 -43.5 -9.5t-35.5 -24.5t-29.5 -34t-25.5 -38h1 q-26 -38 -43 -79.5t-33 -82t-36.5 -76t-54.5 -60.5h-4q-11 0 -19.5 14t-17.5 35t-19 45t-23 45t-29.5 35t-39.5 14h-1q-14 -7 -28 -22t-26 -34t-20.5 -40t-9.5 -39v-11q0 -23 7 -40.5t18 -31.5q17 -24 35.5 -51t34.5 -58q-16 -6 -30 -18.5t-24.5 -27.5t-16.5 -31t-6 -30 q0 -18 9 -31.5t23.5 -22.5t33 -13.5t38.5 -4.5h13q0 -9 -1 -18.5t-2 -19.5q-8 1 -15.5 1.5t-15.5 0.5q-49 0 -74 -30.5t-25 -70.5z" horiz-adv-x="652" unicode="¥" glyph-name="yen"/>
<glyph d="M516 825l2 9q0 11 0.5 22t0.5 22q0 18 -2 36t-8.5 32t-18 23t-30.5 9q-18 0 -34 -9q-36 -15 -67 -44.5t-54.5 -66t-36.5 -76.5t-13 -74q0 -32 17 -54.5t45 -22.5q25 0 56 18t59.5 46t51.5 62.5t32 67.5zM213 713l2 8q2 11 2 22v23v11q0 13 -1 26t-4.5 23.5t-10.5 17.5 t-20 7q-29 0 -57.5 -22t-51.5 -55t-37 -71t-14 -70q0 -31 15.5 -51t39.5 -20q18 0 39.5 13t41.5 34t35.5 48t20.5 56z" horiz-adv-x="540" unicode="¨" glyph-name="dieresis"/>
<glyph d="M672 734q-9 42 -30 75.5t-49.5 56t-63 34.5t-72.5 12h-13q-48 -2 -91 -20.5t-81 -48t-71.5 -66.5t-62.5 -75q-30 -39 -52 -84.5t-36.5 -93t-21.5 -95t-7 -91.5q0 -60 14.5 -120t43.5 -109t71.5 -81.5t98.5 -37.5h8q69 5 137.5 40.5t128.5 95.5q37 50 68 109.5t53 124 t34 131t12 130.5q0 30 -4 58.5t-14 54.5zM512 587v-48q0 -46 -3.5 -94t-21.5 -90v2q0 30 -17 55.5t-46 25.5h-6q-24 -4 -38 -21t-25.5 -36t-23.5 -34t-32 -15q-9 0 -15 8t-9 20t-4 25t-1 22v18q2 23 9 47.5t25 43.5q12 -3 23 -10l22 -14t22.5 -12.5t25.5 -5.5q18 0 35.5 10 t31.5 26t24 35.5t12 39.5q0 20 -5.5 38.5t-13.5 34.5v-1q-3 13 -11 19t-18 8.5t-21 3.5t-20 4l1 1q-20 5 -38 5q-59 0 -103 -35t-73 -86t-43.5 -109t-14.5 -104q0 -37 10.5 -71.5t30 -61.5t46.5 -43.5t60 -16.5h12q7 0 13 2l25 4q-21 -8 -42 -14.5t-43 -6.5q-31 0 -54 21.5 t-38 54t-22.5 71t-7.5 71.5q0 58 12.5 104t34.5 84t52.5 70.5t67.5 63.5q20 11 42 19t45 8q25 0 48.5 -9.5t41 -27.5t28 -43t10.5 -56z" horiz-adv-x="710" unicode="©" glyph-name="copyright"/>
<glyph d="M467 251q-11 18 -26.5 32.5t-32 28t-31.5 27t-25 29.5q11 19 25 35t29 31l20.5 20.5t19.5 22t15 23.5t7 24q-2 4 -1.5 8t-1.5 7q-5 14 -14.5 29t-29.5 15q-15 0 -27 -7t-21.5 -17t-17 -21t-12.5 -19q-17 -28 -31 -56t-32 -54q-10 -16 -24.5 -30t-18.5 -31 q2 -23 21.5 -38.5t39.5 -29.5q17 -11 27.5 -28.5t22.5 -34.5t29.5 -30t48.5 -13q20 1 34 14.5t15 30.5q0 16 -8 32zM265 246q-11 18 -26.5 32.5t-32 28t-31.5 27t-25 29.5q11 19 25 35t29 31l20.5 20.5t19.5 22t15 23.5t7 24q-2 4 -1.5 8t-1.5 7q-5 14 -14.5 29t-29.5 15 q-15 0 -27 -7t-21.5 -17t-17 -21t-12.5 -19q-17 -28 -31 -56t-32 -54q-10 -16 -24.5 -30t-18.5 -31q2 -23 21.5 -38.5t39.5 -29.5q17 -11 27.5 -28.5t22.5 -34.5t29.5 -30t48.5 -13q20 1 34 14.5t15 30.5q0 16 -8 32z" horiz-adv-x="493" unicode="«" glyph-name="guillemotleft"/>
<glyph d="M41 -4h824q33 0 59 8.5t44 23.5t27.5 34.5t9.5 41.5q0 43 -22.5 68t-59.5 37q25 12 40.5 34.5t15.5 53.5q0 17 -4 31.5t-15 27.5h3v140h-47l-4 -93h-292v188h-231v125h53v48h-415l-9 -106h49l4 58h109v-313h-139v-407zM230 356v360h108v-173h232v-139h-53v-48h2l75 -186 h-192l-20 -47h230l32 -79h-554v312h140zM699 44h-3l-128 312h266q30 0 48 -6.5t28.5 -16t14 -20t3.5 -18.5q0 -28 -25 -46.5t-60 -18.5h-114v-48h103q8 0 28 -1.5t40.5 -8t36.5 -21t16 -40.5t-12.5 -39.5t-32 -20t-42 -7.5t-43.5 -1h-124v1zM914 623h46l-3 140h-294v-221 h153v-51h47v151h-47v-52h-103v125h193zM338 405l13 -178h48l12 178h-73z" horiz-adv-x="1024" unicode="¬" glyph-name="logicalnot"/>
<glyph d="M672 734q-9 42 -30 75t-49.5 56t-63 35t-72.5 12h-13q-49 -3 -92 -22t-81 -48.5t-71 -65.5t-61 -74q-29 -39 -51 -84t-37 -92t-22.5 -94.5t-7.5 -91.5q0 -60 14.5 -120.5t43 -110t71.5 -82t99 -37.5h8q57 3 109.5 29.5t98 70t83.5 100.5t67 122t48 134.5t26 138.5 q1 10 1.5 19.5t0.5 18.5q0 59 -19 111zM279 243v9q0 16 -1.5 31t-1.5 31l4 18l8 1q13 0 22.5 -14.5t17.5 -35t15 -42.5t15 -38q-25 -23 -52 -36.5t-56 -13.5q-18 0 -33 9q24 4 43 28t19 53zM347 672q-17 -7 -36 -13t-37 -11l-19 -6q-2 -1 -4 -1t-4 -1l-15 -5q35 36 70 61 t85 25q38 0 71 -18t51 -55q-17 20 -41 29t-50 9q-35 0 -71 -14zM172 535q-1 -4 -1 -11q0 -5 0.5 -8t0.5 -8q0 -8 -1.5 -19t-6.5 -20q-2 -57 -4 -113l-4 -112l-1 -2q-13 33 -18.5 67.5t-5.5 71.5q0 21 1.5 45.5t6.5 48.5t14 47t24 43q-2 -8 -3.5 -15t-1.5 -15zM521 508 q-3 -36 -14 -73.5t-32 -69.5q-8 5 -15.5 12.5t-8.5 18.5q3 14 11 25.5t16.5 23t16.5 23.5t11 26q4 14 8.5 28t8.5 28v-6q0 -9 -1 -18t-1 -18zM360 495h-2q-5 -1 -8.5 -1.5t-7.5 -0.5q-13 0 -25 5l-6 1h3q14 5 27.5 11t27.5 10l5 -6l-6 -11z" horiz-adv-x="711" unicode="®" glyph-name="registered"/>
<glyph d="M284 1127q-50 -18 -95.5 -30t-97.5 -22q-12 -6 -24.5 -17t-22.5 -25.5t-16 -30.5t-6 -32q0 -18 8.5 -30.5t21.5 -20.5t28 -11.5t27 -3.5q21 0 44.5 8t38.5 8q16 0 32 -2t33 -2q48 0 80.5 34t38.5 85q1 5 1.5 10t0.5 10q0 32 -20 54.5t-49 22.5z" horiz-adv-x="395" unicode="¯" glyph-name="macron"/>
<glyph d="M284 1127q-50 -18 -95.5 -30t-97.5 -22q-12 -6 -24.5 -17t-22.5 -25.5t-16 -30.5t-6 -32q0 -18 8.5 -30.5t21.5 -20.5t28 -11.5t27 -3.5q21 0 44.5 8t38.5 8q16 0 32 -2t33 -2q48 0 80.5 34t38.5 85q1 5 1.5 10t0.5 10q0 32 -20 54.5t-49 22.5z" horiz-adv-x="395" unicode="ˉ" glyph-name="macron"/>
<glyph d="M361 628q9 26 13.5 56t4.5 54q0 26 -9.5 49t-24.5 40.5t-34 27.5t-38 10q-50 0 -95.5 -26t-80.5 -68.5t-55.5 -96t-20.5 -108.5q0 -30 8.5 -55.5t23.5 -44.5t36 -30t46 -11q31 0 66 16t66.5 43.5t56.5 64.5t37 79zM223 646q-3 -24 -20.5 -44t-37.5 -26l-6 -1 q-11 0 -17 10.5t-6 23.5q0 12 3 27.5t10 30t18 24.5t27 10q14 0 22 -12.5t8 -29.5v-7q0 -3 -1 -6z" horiz-adv-x="400" unicode="°" glyph-name="degree"/>
<glyph d="M644 918q0 33 -17 45.5t-42 12.5q-30 0 -61.5 -15t-57 -40t-42 -57.5t-16.5 -66.5q0 -56 7.5 -105t7.5 -104q-3 -19 -4 -37t-3.5 -35.5t-8 -33t-16.5 -29.5q-17 1 -29 11t-20.5 24t-15 29.5t-13.5 28.5q-22 42 -40 86t-26 95q-6 37 -28 59t-52 22q-22 0 -41 -11 t-33 -29.5t-23.5 -42t-12.5 -48.5q-15 -123 -26 -239.5t-11 -236.5q0 -40 1.5 -74t8.5 -58.5t20 -38.5t36 -15q14 0 28 6t25 19q17 19 24.5 45.5t9.5 53.5q0 44 -4.5 77.5t-4.5 68.5q0 24 1.5 40.5t8.5 27.5q12 0 21 -7t16 -17t13 -21.5t12 -20.5q12 -25 22.5 -56.5t22 -64 t25 -63t32 -54.5t42.5 -38.5t57 -14.5q32 0 61.5 21.5t41.5 54.5q33 102 52 207t29 211.5t14 213.5t9 214zM1008 646q9 26 13.5 56t4.5 54q0 26 -9.5 49t-24.5 40.5t-34 27.5t-38 10q-50 0 -95.5 -26t-80.5 -68.5t-55.5 -96t-20.5 -108.5q0 -30 8.5 -55.5t23.5 -44.5t36 -30 t46 -11q31 0 66 16t66.5 43.5t56.5 64.5t37 79zM841 719q14 0 22 -12.5t8 -29.5q0 -27 -18 -51.5t-41 -31.5q-16 -1 -22.5 9.5t-6.5 23.5q0 12 3 27.5t10 30t18 24.5t27 10zM1005 347q0 17 -6.5 32.5t-17.5 26.5t-25.5 16t-30.5 1q-59 -21 -106 -33.5t-99 -22.5 q-12 -6 -24.5 -17t-22.5 -25.5t-16 -30.5t-6 -32q0 -18 8.5 -30.5t21.5 -20.5t28 -11.5t27 -3.5q21 0 43.5 9.5t37.5 9.5q16 0 33 -3.5t34 -3.5q48 0 80.5 34t38.5 85z" horiz-adv-x="1042" unicode="±" glyph-name="plusminus"/>
<glyph d="M249 702q22 21 46.5 43.5t46 48.5t38.5 55.5t24 64.5q0 37 -19.5 60.5t-50.5 23.5q-32 0 -52.5 -17t-35.5 -41t-29 -50t-33 -44q-22 -21 -50.5 -33.5t-53.5 -27.5t-42 -36.5t-17 -59.5v-3q0 -35 20.5 -48.5t46.5 -13.5q40 0 81 22t80 56z" horiz-adv-x="424" unicode="´" glyph-name="acute"/>
<glyph d="M261 490q0 5 0.5 10.5t0.5 11.5q0 25 -4 50.5t-13 46t-24.5 33.5t-38.5 13q-32 0 -58 -17t-44.5 -43.5t-30 -59t-13.5 -63.5v-9q0 -21 6 -42t17.5 -37.5t27 -27t35.5 -10.5h6q22 2 44 13t40.5 29t31.5 42t17 51v9z" horiz-adv-x="286" unicode="·" glyph-name="periodcentered"/>
<glyph d="M220 -27q-1 29 -4 62.5t-12 62.5t-26.5 48t-46.5 19h-7q-17 -3 -31 -12t-27 -22h1q-14 -16 -25.5 -35t-11.5 -41v-7q0 -27 10.5 -50.5t15.5 -49.5v-4q-2 -17 -7.5 -32.5t-11.5 -31.5t-11 -31.5t-6 -32.5v-2q1 -32 19 -59t47 -30q34 5 58 28.5t39 57t23.5 72t13.5 74.5 q0 2 -0.5 4.5t-0.5 5.5q0 4 1 6z" horiz-adv-x="240" unicode="¸" glyph-name="cedilla"/>
<glyph d="M361 628q9 26 13.5 56t4.5 54q0 26 -9.5 49t-24.5 40.5t-34 27.5t-38 10q-50 0 -95.5 -26t-80.5 -68.5t-55.5 -96t-20.5 -108.5q0 -30 8.5 -55.5t23.5 -44.5t36 -30t46 -11q31 0 66 16t66.5 43.5t56.5 64.5t37 79zM223 646q-3 -24 -20.5 -44t-37.5 -26l-6 -1 q-11 0 -17 10.5t-6 23.5q0 12 3 27.5t10 30t18 24.5t27 10q14 0 22 -12.5t8 -29.5v-7q0 -3 -1 -6zM356 309q1 5 1.5 10t0.5 10q0 32 -20 54.5t-49 22.5q-7 0 -11 -1l-13 -6l1 2q-50 -18 -95 -30t-96 -21l-2 -1q-12 -6 -24.5 -17t-22.5 -25.5t-16 -30.5t-6 -32 q0 -18 8.5 -30.5t21.5 -20.5t28 -11.5t27 -3.5q21 0 44.5 8t38.5 8q16 0 32 -2t33 -2q48 0 80.5 34t38.5 85z" horiz-adv-x="400" unicode="º" glyph-name="ordmasculine"/>
<glyph d="M43 251q11 18 26.5 32.5t32 28t31.5 27t25 29.5q-11 19 -25 35t-29 31l-20.5 20.5t-19.5 22t-15 23.5t-7 24q2 4 1.5 8t1.5 7q5 14 14.5 29t29.5 15q15 0 27 -7t21.5 -17t17 -21t12.5 -19q17 -28 31 -56t32 -54q10 -16 24.5 -30t18.5 -31q-2 -23 -21.5 -38.5t-39.5 -29.5 q-17 -11 -28 -28.5t-23 -34.5t-29 -30t-48 -13q-20 1 -34 14.5t-15 30.5q0 16 8 32zM245 246q11 18 26.5 32.5t32 28t31.5 27t25 29.5q-11 19 -25 35t-29 31l-20.5 20.5t-19.5 22t-15 23.5t-7 24q2 4 1.5 8t1.5 7q5 14 14.5 29t29.5 15q15 0 27 -7t21.5 -17t17 -21t12.5 -19 q17 -28 31 -56t32 -54q10 -16 24.5 -30t18.5 -31q-2 -23 -21.5 -38.5t-39.5 -29.5q-17 -11 -28 -28.5t-23 -34.5t-29 -30t-48 -13q-20 1 -34 14.5t-15 30.5q0 16 8 32z" horiz-adv-x="493" unicode="»" glyph-name="guillemotright"/>
<glyph d="M20 10v-2q0 -33 11 -57.5t29 -40.5t42 -23.5t51 -7.5q40 0 82 17q22 12 37 35t34 40l15 7q17 7 32 10.5t31 11.5q24 10 47 36t41.5 58t30.5 66t13 61q-1 13 -2.5 27.5t-5.5 26.5t-11 20.5t-19 10.5q-13 -4 -27 -10.5t-27 -17t-23 -25.5t-14 -35v1q-6 -23 -20.5 -45.5 t-33.5 -41.5t-40.5 -30.5t-41.5 -11.5q-6 0 -11 2.5t-6 10.5q5 42 29 79t47 70l13 18q37 42 64 95t27 109q-4 36 -29 57t-56 21h-2q-30 -3 -41.5 -25.5t-19 -50t-17.5 -54t-37 -38.5h1q-18 -11 -27 -31t-12 -40v1q-2 -17 -11 -28.5t-21 -21t-24.5 -19t-20.5 -22.5 q-26 -51 -49 -104.5t-28 -108.5zM245 624q15 -29 41.5 -43.5t55.5 -14.5h8q27 3 47.5 20.5t34.5 43t21.5 55.5t9.5 57v4q0 19 -7 35t-18 28t-26 19t-30 7h-3q-27 0 -51.5 -14t-44 -37t-32.5 -53t-16 -63q0 -11 1 -23.5t9 -20.5z" horiz-adv-x="537" unicode="¿" glyph-name="questiondown"/>
<glyph d="M666 125q2 20 3.5 39.5t1.5 39.5q0 88 -20.5 168t-47 157t-52 153t-34.5 157q-6 51 -38 78.5t-76 27.5q-29 0 -55 -11.5t-48.5 -31.5t-40 -46.5t-28.5 -56.5v1q-69 -177 -122 -342.5t-85 -326.5q-1 -5 -2 -9.5t-1 -9.5v-6q0 -17 4 -34.5t11.5 -32.5t19.5 -24.5t27 -9.5 q13 0 23.5 7.5t19 19t15 26t10.5 28.5q1 5 2 10.5t4 9.5v1l-2 -1q11 27 35 40t48 13h20q22 0 45.5 -3t45 -11.5t41 -23t33.5 -37.5q8 -31 33.5 -49t55.5 -18q23 0 48 6t47 18.5t38 32.5t21 48v3zM329 1253q-14 6 -32 6q-26 0 -53 -12.5t-44 -37.5h1q-11 -9 -17.5 -24 t-6.5 -27q0 -23 16 -37t39 -24.5t48 -19.5t44 -22q8 -5 14.5 -10.5t12.5 -12.5l5 -3q16 -10 41 -10q20 0 45.5 6.5t48 17.5t38 25t15.5 28q0 13 -7.5 26.5t-19 26t-24 23t-21.5 16.5q-32 21 -70 36t-73 29zM368 427q0 -17 -10.5 -32t-24.5 -20l-14 -9q-11 -5 -22.5 -10 t-23.5 -8h-8q-15 0 -22.5 10.5t-7.5 26.5v4q3 20 11 39t17.5 37t20.5 36t20 37l7 6q16 -1 27 -13t18 -28.5t9.5 -35t2.5 -33.5v-7z" horiz-adv-x="691" unicode="À" glyph-name="Agrave"/>
<glyph d="M666 125q2 20 3.5 39.5t1.5 39.5q0 88 -20.5 168t-47 157t-52 153t-34.5 157q-6 51 -38 78.5t-76 27.5q-29 0 -55 -11.5t-48.5 -31.5t-40 -46.5t-28.5 -56.5v1q-69 -177 -122 -342.5t-85 -326.5q-1 -5 -2 -9.5t-1 -9.5v-6q0 -17 4 -34.5t11.5 -32.5t19.5 -24.5t27 -9.5 q13 0 23.5 7.5t19 19t15 26t10.5 28.5q1 5 2 10.5t4 9.5v1l-2 -1q11 27 35 40t48 13h20q22 0 45.5 -3t45 -11.5t41 -23t33.5 -37.5q8 -31 33.5 -49t55.5 -18q23 0 48 6t47 18.5t38 32.5t21 48v3zM400 1072q22 21 46.5 43.5t46 48.5t38.5 55.5t24 64.5q0 37 -19.5 60.5 t-50.5 23.5q-32 0 -52.5 -17t-35.5 -41t-29 -50t-33 -44q-22 -21 -50.5 -33.5t-53.5 -27.5t-42 -36.5t-17 -59.5v-3q0 -35 20.5 -48.5t46.5 -13.5q40 0 81 22t80 56zM368 427q0 -17 -10.5 -32t-24.5 -20l-14 -9q-11 -5 -22.5 -10t-23.5 -8h-8q-15 0 -22.5 10.5t-7.5 26.5v4 q3 20 11 39t17.5 37t20.5 36t20 37l7 6q16 -1 27 -13t18 -28.5t9.5 -35t2.5 -33.5v-7z" horiz-adv-x="691" unicode="Á" glyph-name="Aacute"/>
<glyph d="M666 125q2 20 3.5 39.5t1.5 39.5q0 88 -20.5 168t-47 157t-52 153t-34.5 157q-6 51 -38 78.5t-76 27.5q-29 0 -55 -11.5t-48.5 -31.5t-40 -46.5t-28.5 -56.5v1q-69 -177 -122 -342.5t-85 -326.5q-1 -5 -2 -9.5t-1 -9.5v-6q0 -17 4 -34.5t11.5 -32.5t19.5 -24.5t27 -9.5 q13 0 23.5 7.5t19 19t15 26t10.5 28.5q1 5 2 10.5t4 9.5v1l-2 -1q11 27 35 40t48 13h20q22 0 45.5 -3t45 -11.5t41 -23t33.5 -37.5q8 -31 33.5 -49t55.5 -18q23 0 48 6t47 18.5t38 32.5t21 48v3zM634 1187q-9 21 -23.5 35t-31.5 23.5t-36 16.5t-36.5 15.5t-32 20t-23.5 30.5 q-18 25 -49 25q-35 0 -60.5 -21.5t-47 -52.5t-40 -64t-37.5 -55q-17 -22 -32 -43.5t-28 -44.5h1q-8 -15 -18 -28.5t-19 -27.5t-15.5 -28.5t-9.5 -31.5v-6q1 -29 15.5 -50t37.5 -21q19 0 33.5 11t27.5 27.5t25 35.5t26 35h-1q11 13 21 27t20.5 28.5t22 27.5t25.5 23 q16 -16 32.5 -33.5t35 -32.5t40.5 -25t49 -10q17 0 33 4l6 1q22 8 39.5 23.5t29.5 36t18 43.5t6 46q0 22 -4 38v2zM368 427q0 -17 -10.5 -32t-24.5 -20l-14 -9q-11 -5 -22.5 -10t-23.5 -8h-8q-15 0 -22.5 10.5t-7.5 26.5v4q3 20 11 39t17.5 37t20.5 36t20 37l7 6 q16 -1 27 -13t18 -28.5t9.5 -35t2.5 -33.5v-7z" horiz-adv-x="691" unicode="Â" glyph-name="Acircumflex"/>
<glyph d="M666 125q2 20 3.5 39.5t1.5 39.5q0 88 -20.5 168t-47 157t-52 153t-34.5 157q-6 51 -38 78.5t-76 27.5q-29 0 -55 -11.5t-48.5 -31.5t-40 -46.5t-28.5 -56.5v1q-69 -177 -122 -342.5t-85 -326.5q-1 -5 -2 -9.5t-1 -9.5v-6q0 -17 4 -34.5t11.5 -32.5t19.5 -24.5t27 -9.5 q13 0 23.5 7.5t19 19t15 26t10.5 28.5q1 5 2 10.5t4 9.5v1l-2 -1q11 27 35 40t48 13h20q22 0 45.5 -3t45 -11.5t41 -23t33.5 -37.5q8 -31 33.5 -49t55.5 -18q23 0 48 6t47 18.5t38 32.5t21 48v3zM627 1272v3q0 32 -21.5 49.5t-50.5 17.5q-21 0 -35 -8.5t-24.5 -21.5 t-18.5 -28.5t-17 -30.5q-12 -13 -26.5 -27t-29.5 -25.5t-30.5 -19t-29.5 -7.5q-15 0 -27 7.5t-25 12.5q-14 2 -26.5 5t-26.5 3q-25 0 -49.5 -14.5t-47 -36.5t-42.5 -47.5t-37 -47.5q-6 -14 -9 -29t-7 -30v-7q0 -22 12.5 -34t29.5 -12q18 0 30.5 13t23.5 28t24 28t32 13 q9 0 17 -4t16 -9t16 -9.5t18 -5.5t19.5 -1.5t19.5 -0.5q37 0 75 16.5t74.5 44.5t70 64.5t62.5 77.5q11 17 23.5 35t16.5 38zM368 427q0 -17 -10.5 -32t-24.5 -20l-14 -9q-11 -5 -22.5 -10t-23.5 -8h-8q-15 0 -22.5 10.5t-7.5 26.5v4q3 20 11 39t17.5 37t20.5 36t20 37l7 6 q16 -1 27 -13t18 -28.5t9.5 -35t2.5 -33.5v-7z" horiz-adv-x="691" unicode="Ã" glyph-name="Atilde"/>
<glyph d="M666 125q2 20 3.5 39.5t1.5 39.5q0 88 -20.5 168t-47 157t-52 153t-34.5 157q-6 51 -38 78.5t-76 27.5q-29 0 -55 -11.5t-48.5 -31.5t-40 -46.5t-28.5 -56.5v1q-69 -177 -122 -342.5t-85 -326.5q-1 -5 -2 -9.5t-1 -9.5v-6q0 -17 4 -34.5t11.5 -32.5t19.5 -24.5t27 -9.5 q13 0 23.5 7.5t19 19t15 26t10.5 28.5q1 5 2 10.5t4 9.5v1l-2 -1q11 27 35 40t48 13h20q22 0 45.5 -3t45 -11.5t41 -23t33.5 -37.5q8 -31 33.5 -49t55.5 -18q23 0 48 6t47 18.5t38 32.5t21 48v3zM652 1175l2 9q0 11 0.5 22t0.5 22q0 18 -2 36t-8.5 32t-18 23t-30.5 9 q-18 0 -34 -9q-36 -15 -67 -44.5t-54.5 -66t-36.5 -76.5t-13 -74q0 -32 17 -54.5t45 -22.5q25 0 56 18t59.5 46t51.5 62.5t32 67.5zM349 1063l2 8q2 11 2 22v23v11q0 13 -1 26t-4.5 23.5t-10.5 17.5t-20 7q-29 0 -57.5 -22t-51.5 -55t-37 -71t-14 -70q0 -31 15.5 -51 t39.5 -20q18 0 39.5 13t41.5 34t35.5 48t20.5 56zM368 427q0 -17 -10.5 -32t-24.5 -20l-14 -9q-11 -5 -22.5 -10t-23.5 -8h-8q-15 0 -22.5 10.5t-7.5 26.5v4q3 20 11 39t17.5 37t20.5 36t20 37l7 6q16 -1 27 -13t18 -28.5t9.5 -35t2.5 -33.5v-7z" horiz-adv-x="691" unicode="Ä" glyph-name="Adieresis"/>
<glyph d="M589 1024q8 28 16.5 59t8.5 59t-11 53t-29.5 44t-43 29.5t-51.5 10.5t-58 -8t-60 -23t-55 -36t-42 -47h1q-17 -32 -26 -69t-9 -69q0 -38 16.5 -74t45.5 -58q-20 -20 -35.5 -44.5t-25.5 -51.5v1q-69 -177 -122 -342.5t-85 -326.5q-1 -5 -2 -9.5t-1 -9.5v-6q0 -17 4 -34.5 t11.5 -32.5t19.5 -24.5t27 -9.5q13 0 23.5 7.5t19 19t15 26t10.5 28.5q1 5 2 10.5t4 9.5v1l-2 -1q11 27 35 40t48 13h20q22 0 45.5 -3t45 -11.5t41 -23t33.5 -37.5q8 -31 33.5 -49t55.5 -18q23 0 48 6t47 18.5t38 32.5t21 48v3q2 20 3.5 39.5t1.5 39.5q0 88 -20.5 168 t-47 157t-52 153t-34.5 157q-4 40 -28 67q33 20 59.5 50t40.5 68zM368 427q0 -17 -10.5 -32t-24.5 -20l-14 -9q-11 -5 -22.5 -10t-23.5 -8h-8q-15 0 -22.5 10.5t-7.5 26.5v4q3 20 11 39t17.5 37t20.5 36t20 37l7 6q16 -1 27 -13t18 -28.5t9.5 -35t2.5 -33.5v-7zM449 1125 q2 -10 2 -15q0 -44 -25.5 -72.5t-63.5 -33.5l-4 -1q-21 5 -32 23t-11 39v7q1 16 6.5 33t16 31t25.5 22.5t33 8.5q20 0 35.5 -10.5t17.5 -31.5z" horiz-adv-x="691" unicode="Å" glyph-name="Aring"/>
<glyph d="M987 101q8 18 13.5 37.5t5.5 39.5q0 29 -22.5 48t-51.5 19q-17 0 -33.5 -4t-32.5 -9.5t-32.5 -9.5t-33.5 -4q-16 0 -31 2t-30 2q-30 0 -60.5 -8t-58.5 -8q-15 0 -27.5 8t-18.5 23l1 -1q-2 4 -2.5 8.5t-0.5 9.5v10q2 23 10 48.5t29 36.5l1 1q28 5 58.5 16.5t61.5 11.5 q8 0 17 -0.5t17 -0.5q25 0 50 14t44.5 36.5t31.5 51t12 57.5q0 35 -23 53.5t-53 18.5q-22 0 -49 -9t-54 -20t-51.5 -20t-41.5 -9q-8 4 -12 13t-4 20v8q0 52 25.5 79t64.5 41.5t86 22.5t89 22q27 5 59.5 21t60.5 41t47 57t19 68v10q0 26 -12.5 45t-36.5 19h-2 q-70 -9 -135 -34t-126 -54t-118.5 -56.5t-112.5 -42.5l-6 -4q0 28 -9.5 50t-25.5 37.5t-37 23.5t-43 8q-29 0 -55 -11.5t-48.5 -31.5t-40 -46.5t-28.5 -56.5v1q-69 -177 -122 -342.5t-85 -326.5q-1 -5 -2 -9.5t-1 -9.5v-6q0 -17 4 -34.5t11.5 -32.5t19.5 -24.5t27 -9.5 q13 0 23.5 7.5t19 19t15 26t10.5 28.5q1 5 2 10.5t4 9.5v1l-2 -1q11 27 35 40t48 13h20q22 0 45 -3t45 -11t41 -22.5t33 -37.5q8 -37 35 -52.5t54 -15.5q10 0 20.5 1t20.5 3q31 -7 62.5 -12.5t65.5 -5.5q26 1 52 4t53 4h67q40 0 78 24t57 66zM368 427q0 -17 -10.5 -32 t-24.5 -20l-14 -9q-11 -5 -22.5 -10t-23.5 -8h-8q-15 0 -22.5 10.5t-7.5 26.5v4q3 20 11 39t17.5 37t20.5 36t20 37l7 6q16 -1 27 -13t18 -28.5t9.5 -35t2.5 -33.5v-7z" horiz-adv-x="1079" unicode="Æ" glyph-name="AE"/>
<glyph d="M386 -53q-1 14 -1.5 29t-2.5 30q37 15 79 48.5t77.5 75.5t59 86.5t23.5 80.5q0 28 -9.5 52.5t-26.5 42.5t-39.5 28.5t-48.5 10.5h-5q-20 -6 -33.5 -19t-24 -30t-19 -35t-17.5 -34q-9 -20 -22 -37.5t-29.5 -31.5t-35 -22.5t-36.5 -8.5h-1q-30 0 -49 16.5t-29.5 43t-14 58 t-3.5 61.5q0 17 1.5 42.5t6 54.5t13 59t22 57t33 48t46.5 32q11 5 26 5q26 0 43 -14t32 -31.5t31 -31.5t40 -14q30 0 59 16t53 42t39.5 58.5t18.5 65.5v8q0 34 -13.5 60.5t-28.5 49.5q-9 19 -26 25t-36.5 7t-40 0.5t-35.5 7.5q-19 12 -47 12q-49 0 -97.5 -25t-91.5 -64 t-78.5 -88t-58.5 -97q-36 -76 -52.5 -157t-16.5 -156q0 -61 9.5 -116t30.5 -100t54.5 -79.5t81.5 -54.5q2 -24 11.5 -45.5t14.5 -46.5v-4q-2 -17 -7.5 -32.5t-11.5 -31.5t-11 -31.5t-6 -32.5v-2q1 -32 19 -59t47 -30q34 5 58 28.5t39 57t23.5 72t13.5 74.5q0 2 -0.5 4.5 t-0.5 5.5q0 4 1 6z" horiz-adv-x="663" unicode="Ç" glyph-name="Ccedilla"/>
<glyph d="M586 92q8 18 13.5 37.5t5.5 39.5q0 29 -22.5 48t-51.5 19q-17 0 -33.5 -4t-32.5 -9.5t-32.5 -9.5t-33.5 -4q-16 0 -31 2t-30 2q-30 0 -60.5 -8t-58.5 -8q-15 0 -27.5 8t-18.5 23l1 -1q-2 4 -2.5 8.5t-0.5 9.5v10q2 23 10 48.5t29 36.5l1 1q28 5 58.5 16.5t61.5 11.5 q8 0 17 -0.5t17 -0.5q25 0 50 14t44.5 36.5t31.5 51t12 57.5q0 35 -23 53.5t-53 18.5q-22 0 -49 -9t-54 -20t-51.5 -20t-41.5 -9q-8 4 -12 13t-4 20v8q0 52 25.5 79t64.5 41.5t86 22.5t89 22q27 5 59.5 21t60.5 41t47 57t19 68v10q0 26 -12.5 45t-36.5 19h-2 q-70 -9 -135 -34t-126 -54t-118.5 -56.5t-112.5 -42.5l-4 -2q-22 -18 -33.5 -47t-18.5 -58q-23 -159 -32.5 -312.5t-14.5 -305.5v-4q0 -24 12 -45.5t32 -23.5h1q4 0 7.5 0.5t7.5 0.5q23 0 47 -4.5t48.5 -10.5t50.5 -10.5t53 -4.5q26 1 52 4t53 4h67q40 0 78 24t57 66z M294 1221q-14 6 -32 6q-26 0 -53 -12.5t-44 -37.5h1q-11 -9 -17.5 -24t-6.5 -27q0 -23 16 -37t39 -24.5t48 -19.5t44 -22q8 -5 14.5 -10.5t12.5 -12.5l5 -3q16 -10 41 -10q20 0 45.5 6.5t48 17.5t38 25t15.5 28q0 13 -7.5 26.5t-19 26t-24 23t-21.5 16.5q-32 21 -70 36 t-73 29z" horiz-adv-x="687" unicode="È" glyph-name="Egrave"/>
<glyph d="M586 92q8 18 13.5 37.5t5.5 39.5q0 29 -22.5 48t-51.5 19q-17 0 -33.5 -4t-32.5 -9.5t-32.5 -9.5t-33.5 -4q-16 0 -31 2t-30 2q-30 0 -60.5 -8t-58.5 -8q-15 0 -27.5 8t-18.5 23l1 -1q-2 4 -2.5 8.5t-0.5 9.5v10q2 23 10 48.5t29 36.5l1 1q28 5 58.5 16.5t61.5 11.5 q8 0 17 -0.5t17 -0.5q25 0 50 14t44.5 36.5t31.5 51t12 57.5q0 35 -23 53.5t-53 18.5q-22 0 -49 -9t-54 -20t-51.5 -20t-41.5 -9q-8 4 -12 13t-4 20v8q0 52 25.5 79t64.5 41.5t86 22.5t89 22q27 5 59.5 21t60.5 41t47 57t19 68v10q0 26 -12.5 45t-36.5 19h-2 q-70 -9 -135 -34t-126 -54t-118.5 -56.5t-112.5 -42.5l-4 -2q-22 -18 -33.5 -47t-18.5 -58q-23 -159 -32.5 -312.5t-14.5 -305.5v-4q0 -24 12 -45.5t32 -23.5h1q4 0 7.5 0.5t7.5 0.5q23 0 47 -4.5t48.5 -10.5t50.5 -10.5t53 -4.5q26 1 52 4t53 4h67q40 0 78 24t57 66z M395 1022q22 21 46.5 43.5t46 48.5t38.5 55.5t24 64.5q0 37 -19.5 60.5t-50.5 23.5q-32 0 -52.5 -17t-35.5 -41t-29 -50t-33 -44q-22 -21 -50.5 -33.5t-53.5 -27.5t-42 -36.5t-17 -59.5v-3q0 -35 20.5 -48.5t46.5 -13.5q40 0 81 22t80 56z" horiz-adv-x="687" unicode="É" glyph-name="Eacute"/>
<glyph d="M586 92q8 18 13.5 37.5t5.5 39.5q0 29 -22.5 48t-51.5 19q-17 0 -33.5 -4t-32.5 -9.5t-32.5 -9.5t-33.5 -4q-16 0 -31 2t-30 2q-30 0 -60.5 -8t-58.5 -8q-15 0 -27.5 8t-18.5 23l1 -1q-2 4 -2.5 8.5t-0.5 9.5v10q2 23 10 48.5t29 36.5l1 1q28 5 58.5 16.5t61.5 11.5 q8 0 17 -0.5t17 -0.5q25 0 50 14t44.5 36.5t31.5 51t12 57.5q0 35 -23 53.5t-53 18.5q-22 0 -49 -9t-54 -20t-51.5 -20t-41.5 -9q-8 4 -12 13t-4 20v8q0 52 25.5 79t64.5 41.5t86 22.5t89 22q27 5 59.5 21t60.5 41t47 57t19 68v10q0 26 -12.5 45t-36.5 19h-2 q-70 -9 -135 -34t-126 -54t-118.5 -56.5t-112.5 -42.5l-4 -2q-22 -18 -33.5 -47t-18.5 -58q-23 -159 -32.5 -312.5t-14.5 -305.5v-4q0 -24 12 -45.5t32 -23.5h1q4 0 7.5 0.5t7.5 0.5q23 0 47 -4.5t48.5 -10.5t50.5 -10.5t53 -4.5q26 1 52 4t53 4h67q40 0 78 24t57 66z M591 1203q-9 21 -23.5 35t-31.5 23.5t-36 16.5t-36.5 15.5t-32 20t-23.5 30.5q-18 25 -49 25q-35 0 -60.5 -21.5t-47 -52.5t-40 -64t-37.5 -55q-17 -22 -32 -43.5t-28 -44.5h1q-8 -15 -18 -28.5t-19 -27.5t-15.5 -28.5t-9.5 -31.5v-6q1 -29 15.5 -50t37.5 -21q19 0 33.5 11 t27.5 27.5t25 35.5t26 35h-1q11 13 21 27t20.5 28.5t22 27.5t25.5 23q16 -16 32.5 -33.5t35 -32.5t40.5 -25t49 -10q17 0 33 4l6 1q22 8 39.5 23.5t29.5 36t18 43.5t6 46q0 22 -4 38v2z" horiz-adv-x="687" unicode="Ê" glyph-name="Ecircumflex"/>
<glyph d="M586 92q8 18 13.5 37.5t5.5 39.5q0 29 -22.5 48t-51.5 19q-17 0 -33.5 -4t-32.5 -9.5t-32.5 -9.5t-33.5 -4q-16 0 -31 2t-30 2q-30 0 -60.5 -8t-58.5 -8q-15 0 -27.5 8t-18.5 23l1 -1q-2 4 -2.5 8.5t-0.5 9.5v10q2 23 10 48.5t29 36.5l1 1q28 5 58.5 16.5t61.5 11.5 q8 0 17 -0.5t17 -0.5q25 0 50 14t44.5 36.5t31.5 51t12 57.5q0 35 -23 53.5t-53 18.5q-22 0 -49 -9t-54 -20t-51.5 -20t-41.5 -9q-8 4 -12 13t-4 20v8q0 52 25.5 79t64.5 41.5t86 22.5t89 22q27 5 59.5 21t60.5 41t47 57t19 68v10q0 26 -12.5 45t-36.5 19h-2 q-70 -9 -135 -34t-126 -54t-118.5 -56.5t-112.5 -42.5l-4 -2q-22 -18 -33.5 -47t-18.5 -58q-23 -159 -32.5 -312.5t-14.5 -305.5v-4q0 -24 12 -45.5t32 -23.5h1q4 0 7.5 0.5t7.5 0.5q23 0 47 -4.5t48.5 -10.5t50.5 -10.5t53 -4.5q26 1 52 4t53 4h67q40 0 78 24t57 66z M598 1188l2 9q0 11 0.5 22t0.5 22q0 18 -2 36t-8.5 32t-18 23t-30.5 9q-18 0 -34 -9q-36 -15 -67 -44.5t-54.5 -66t-36.5 -76.5t-13 -74q0 -32 17 -54.5t45 -22.5q25 0 56 18t59.5 46t51.5 62.5t32 67.5zM295 1076l2 8q2 11 2 22v23v11q0 13 -1 26t-4.5 23.5t-10.5 17.5 t-20 7q-29 0 -57.5 -22t-51.5 -55t-37 -71t-14 -70q0 -31 15.5 -51t39.5 -20q18 0 39.5 13t41.5 34t35.5 48t20.5 56z" horiz-adv-x="687" unicode="Ë" glyph-name="Edieresis"/>
<glyph d="M432 875q-2 16 -6 32t-11.5 29t-18.5 21t-26 8q-20 0 -40 -6t-40 -13.5t-39.5 -15.5t-37.5 -12q-24 -5 -48 -22.5t-43.5 -41.5t-33 -53t-16.5 -57q0 -18 7.5 -28t18.5 -15.5t23.5 -9t23.5 -8.5q2 -17 3.5 -34t1.5 -35q0 -64 -8 -128t-10 -127q0 -24 2 -48t2 -48 q-2 -19 -11 -30.5t-21.5 -19.5t-27 -15t-27 -16t-20.5 -23t-8 -37v-2q1 -23 7.5 -45.5t20.5 -36.5v1q5 -6 12 -8.5t14 -4.5h6q21 0 41.5 6.5t42.5 6.5q23 -2 46.5 -6.5t48.5 -4.5h10q23 1 46 11.5t42 27.5t32.5 40.5t16.5 51.5v7q0 19 -7.5 31t-19.5 19.5t-27 12.5t-28.5 10 t-24.5 12t-16 19h1q-16 39 -16 88q0 40 5 80.5t11 82l12 83t8 82.5q-1 5 -1 9v9q0 8 1 13v5q6 23 26.5 36t43 25.5t40 29.5t17.5 49v13zM173 1229q-14 6 -32 6q-26 0 -53 -12.5t-44 -37.5h1q-11 -9 -17.5 -24t-6.5 -27q0 -23 16 -37t39 -24.5t48 -19.5t44 -22 q8 -5 14.5 -10.5t12.5 -12.5l5 -3q16 -10 41 -10q20 0 45.5 6.5t48 17.5t38 25t15.5 28q0 13 -7.5 26.5t-19 26t-24 23t-21.5 16.5q-32 21 -70 36t-73 29z" horiz-adv-x="453" unicode="Ì" glyph-name="Igrave"/>
<glyph d="M432 875q-2 16 -6 32t-11.5 29t-18.5 21t-26 8q-20 0 -40 -6t-40 -13.5t-39.5 -15.5t-37.5 -12q-24 -5 -48 -22.5t-43.5 -41.5t-33 -53t-16.5 -57q0 -18 7.5 -28t18.5 -15.5t23.5 -9t23.5 -8.5q2 -17 3.5 -34t1.5 -35q0 -64 -8 -128t-10 -127q0 -24 2 -48t2 -48 q-2 -19 -11 -30.5t-21.5 -19.5t-27 -15t-27 -16t-20.5 -23t-8 -37v-2q1 -23 7.5 -45.5t20.5 -36.5v1q5 -6 12 -8.5t14 -4.5h6q21 0 41.5 6.5t42.5 6.5q23 -2 46.5 -6.5t48.5 -4.5h10q23 1 46 11.5t42 27.5t32.5 40.5t16.5 51.5v7q0 19 -7.5 31t-19.5 19.5t-27 12.5t-28.5 10 t-24.5 12t-16 19h1q-16 39 -16 88q0 40 5 80.5t11 82l12 83t8 82.5q-1 5 -1 9v9q0 8 1 13v5q6 23 26.5 36t43 25.5t40 29.5t17.5 49v13zM289 1037q22 21 46.5 43.5t46 48.5t38.5 55.5t24 64.5q0 37 -19.5 60.5t-50.5 23.5q-32 0 -52.5 -17t-35.5 -41t-29 -50t-33 -44 q-22 -21 -50.5 -33.5t-53.5 -27.5t-42 -36.5t-17 -59.5v-3q0 -35 20.5 -48.5t46.5 -13.5q40 0 81 22t80 56z" horiz-adv-x="453" unicode="Í" glyph-name="Iacute"/>
<glyph d="M432 875q-2 16 -6 32t-11.5 29t-18.5 21t-26 8q-20 0 -40 -6t-40 -13.5t-39.5 -15.5t-37.5 -12q-24 -5 -48 -22.5t-43.5 -41.5t-33 -53t-16.5 -57q0 -18 7.5 -28t18.5 -15.5t23.5 -9t23.5 -8.5q2 -17 3.5 -34t1.5 -35q0 -64 -8 -128t-10 -127q0 -24 2 -48t2 -48 q-2 -19 -11 -30.5t-21.5 -19.5t-27 -15t-27 -16t-20.5 -23t-8 -37v-2q1 -23 7.5 -45.5t20.5 -36.5v1q5 -6 12 -8.5t14 -4.5h6q21 0 41.5 6.5t42.5 6.5q23 -2 46.5 -6.5t48.5 -4.5h10q23 1 46 11.5t42 27.5t32.5 40.5t16.5 51.5v7q0 19 -7.5 31t-19.5 19.5t-27 12.5t-28.5 10 t-24.5 12t-16 19h1q-16 39 -16 88q0 40 5 80.5t11 82l12 83t8 82.5q-1 5 -1 9v9q0 8 1 13v5q6 23 26.5 36t43 25.5t40 29.5t17.5 49v13zM538 1195q-9 21 -23.5 35t-31.5 23.5t-36 16.5t-36.5 15.5t-32 20t-23.5 30.5q-18 25 -49 25q-35 0 -60.5 -21.5t-47 -52.5t-40 -64 t-37.5 -55q-17 -22 -32 -43.5t-28 -44.5h1q-8 -15 -18 -28.5t-19 -27.5t-15.5 -28.5t-9.5 -31.5v-6q1 -29 15.5 -50t37.5 -21q19 0 33.5 11t27.5 27.5t25 35.5t26 35h-1q11 13 21 27t20.5 28.5t22 27.5t25.5 23q16 -16 32.5 -33.5t35 -32.5t40.5 -25t49 -10q17 0 33 4l6 1 q22 8 39.5 23.5t29.5 36t18 43.5t6 46q0 22 -4 38v2z" horiz-adv-x="453" unicode="Î" glyph-name="Icircumflex"/>
<glyph d="M432 875q-2 16 -6 32t-11.5 29t-18.5 21t-26 8q-20 0 -40 -6t-40 -13.5t-39.5 -15.5t-37.5 -12q-24 -5 -48 -22.5t-43.5 -41.5t-33 -53t-16.5 -57q0 -18 7.5 -28t18.5 -15.5t23.5 -9t23.5 -8.5q2 -17 3.5 -34t1.5 -35q0 -64 -8 -128t-10 -127q0 -24 2 -48t2 -48 q-2 -19 -11 -30.5t-21.5 -19.5t-27 -15t-27 -16t-20.5 -23t-8 -37v-2q1 -23 7.5 -45.5t20.5 -36.5v1q5 -6 12 -8.5t14 -4.5h6q21 0 41.5 6.5t42.5 6.5q23 -2 46.5 -6.5t48.5 -4.5h10q23 1 46 11.5t42 27.5t32.5 40.5t16.5 51.5v7q0 19 -7.5 31t-19.5 19.5t-27 12.5t-28.5 10 t-24.5 12t-16 19h1q-16 39 -16 88q0 40 5 80.5t11 82l12 83t8 82.5q-1 5 -1 9v9q0 8 1 13v5q6 23 26.5 36t43 25.5t40 29.5t17.5 49v13zM494 1191l2 9q0 11 0.5 22t0.5 22q0 18 -2 36t-8.5 32t-18 23t-30.5 9q-18 0 -34 -9q-36 -15 -67 -44.5t-54.5 -66t-36.5 -76.5t-13 -74 q0 -32 17 -54.5t45 -22.5q25 0 56 18t59.5 46t51.5 62.5t32 67.5zM191 1079l2 8q2 11 2 22v23v11q0 13 -1 26t-4.5 23.5t-10.5 17.5t-20 7q-29 0 -57.5 -22t-51.5 -55t-37 -71t-14 -70q0 -31 15.5 -51t39.5 -20q18 0 39.5 13t41.5 34t35.5 48t20.5 56z" horiz-adv-x="453" unicode="Ï" glyph-name="Idieresis"/>
<glyph d="M600 830q-23 52 -65 74t-93 22q-41 0 -80 -12t-77 -29t-74.5 -36t-71.5 -34l-2 -1q-22 -10 -41 -37t-21 -56q-8 -57 -14.5 -112t-11.5 -111q-7 -2 -14.5 -3t-16.5 -3q-12 -6 -24.5 -17t-22.5 -25.5t-16 -30.5t-6 -32q0 -18 8.5 -30.5t21.5 -20.5t28 -11.5t27 -3.5h2 l-4 -68t-4 -67q-2 -20 -4.5 -39.5t-2.5 -38.5v-11q0 -14 2 -28t6.5 -26t13 -20t20.5 -9q40 -5 82 -12.5t87 -7.5q41 0 84.5 8t84.5 27.5t77.5 52.5t64.5 83q52 94 85 193.5t33 210.5q0 73 -14.5 138.5t-46.5 122.5zM301 452q1 5 1.5 10t0.5 10q0 32 -20 54.5t-49 22.5 q-1 0 -7.5 -1.5t-16 -4t-12.5 -4.5l9 72q5 16 16.5 25t26.5 14t30.5 6.5t28.5 1.5q30 0 55.5 -12t38.5 -44q15 -68 15 -141q0 -35 -6.5 -72.5t-21 -71.5t-37.5 -60.5t-57 -39.5q-20 -11 -42 -19t-42 -8q-14 0 -23.5 15t-9.5 32v4v46t2 46h1q48 0 80.5 34t38.5 85z" horiz-adv-x="682" unicode="Ð" glyph-name="Eth"/>
<glyph d="M644 918v4q0 30 -17 42t-42 12q-30 0 -61.5 -15t-57 -40t-42 -57.5t-16.5 -66.5q0 -56 7.5 -105t7.5 -104v-7q-3 -16 -4 -33t-3.5 -33.5t-8 -32t-16.5 -29.5q-17 1 -29 11t-20.5 24t-15.5 29.5t-14 29.5l1 -1q-22 42 -40 86t-26 95q-6 37 -28 59t-52 22q-22 0 -41 -11 t-33 -29.5t-23.5 -42t-12.5 -48.5q-15 -123 -26 -239.5t-11 -236.5v-38q0 -26 1.5 -52t8.5 -47t20 -34.5t36 -14.5q14 0 28.5 6t25.5 19h-1q17 19 24.5 45.5t9.5 53.5v12q0 35 -4.5 67t-4.5 67v16q0 12 1 26.5t5 25.5h4q12 0 21 -7t16 -17t13 -21.5t12 -21.5v1 q12 -25 22.5 -56.5t22 -64t25 -63t31.5 -54.5t42 -38.5t56 -14.5h2q32 0 61.5 21.5t41.5 54.5q33 102 52 207t29 211.5t14 213.5t9 214zM626 1211v3q0 32 -21.5 49.5t-50.5 17.5q-21 0 -35 -8.5t-24.5 -21.5t-18.5 -28.5t-17 -30.5q-12 -13 -26.5 -27t-29.5 -25.5t-30.5 -19 t-29.5 -7.5q-15 0 -27 7.5t-25 12.5q-14 2 -26.5 5t-26.5 3q-25 0 -49.5 -14.5t-47 -36.5t-42.5 -47.5t-37 -47.5q-6 -14 -9 -29t-7 -30v-7q0 -22 12.5 -34t29.5 -12q18 0 30.5 13t23.5 28t24 28t32 13q9 0 17 -4t16 -9t16 -9.5t18 -5.5t19.5 -1.5t19.5 -0.5q37 0 75 16.5 t74.5 44.5t70 64.5t62.5 77.5q11 17 23.5 35t16.5 38z" horiz-adv-x="665" unicode="Ñ" glyph-name="Ntilde"/>
<glyph d="M637 351q19 69 30 146t11 142q0 58 -13 111t-38.5 93.5t-64.5 65t-91 26.5h-13q-64 0 -124 -25t-111.5 -68.5t-91 -101t-62.5 -122.5q-24 -69 -36.5 -139t-12.5 -137q0 -68 13 -132.5t41.5 -115t73.5 -81t108 -30.5q67 0 127 29t109.5 79t86.5 117t58 143zM444 597 q1 -15 1.5 -30t0.5 -30q0 -71 -13.5 -142.5t-53.5 -131.5v2q-18 -28 -45.5 -40.5t-53.5 -14.5h-34q-20 4 -36 17t-28 31.5t-18.5 41t-6.5 46.5q0 19 1 49t5.5 64.5t13 70.5t24 68t39 57t56.5 38q20 7 41 7q41 0 71.5 -27t35.5 -76zM282 1212q-14 6 -32 6q-26 0 -53 -12.5 t-44 -37.5h1q-11 -9 -17.5 -24t-6.5 -27q0 -23 16 -37t39 -24.5t48 -19.5t44 -22q8 -5 14.5 -10.5t12.5 -12.5l5 -3q16 -10 41 -10q20 0 45.5 6.5t48 17.5t38 25t15.5 28q0 13 -7.5 26.5t-19 26t-24 23t-21.5 16.5q-32 21 -70 36t-73 29z" horiz-adv-x="699" unicode="Ò" glyph-name="Ograve"/>
<glyph d="M637 351q19 69 30 146t11 142q0 58 -13 111t-38.5 93.5t-64.5 65t-91 26.5h-13q-64 0 -124 -25t-111.5 -68.5t-91 -101t-62.5 -122.5q-24 -69 -36.5 -139t-12.5 -137q0 -68 13 -132.5t41.5 -115t73.5 -81t108 -30.5q67 0 127 29t109.5 79t86.5 117t58 143zM444 597 q1 -15 1.5 -30t0.5 -30q0 -71 -13.5 -142.5t-53.5 -131.5v2q-18 -28 -45.5 -40.5t-53.5 -14.5h-34q-20 4 -36 17t-28 31.5t-18.5 41t-6.5 46.5q0 19 1 49t5.5 64.5t13 70.5t24 68t39 57t56.5 38q20 7 41 7q42 0 71 -27t36 -76zM387 1026q22 21 46.5 43.5t46 48.5t38.5 55.5 t24 64.5q0 37 -19.5 60.5t-50.5 23.5q-32 0 -52.5 -17t-35.5 -41t-29 -50t-33 -44q-22 -21 -50.5 -33.5t-53.5 -27.5t-42 -36.5t-17 -59.5v-3q0 -35 20.5 -48.5t46.5 -13.5q40 0 81 22t80 56z" horiz-adv-x="699" unicode="Ó" glyph-name="Oacute"/>
<glyph d="M637 351q19 69 30 146t11 142q0 58 -13 111t-38.5 93.5t-64.5 65t-91 26.5h-13q-64 0 -124 -25t-111.5 -68.5t-91 -101t-62.5 -122.5q-24 -69 -36.5 -139t-12.5 -137q0 -68 13 -132.5t41.5 -115t73.5 -81t108 -30.5q67 0 127 29t109.5 79t86.5 117t58 143zM614 1200 q-9 21 -23.5 35t-31.5 23.5t-36 16.5t-36.5 15.5t-32 20t-23.5 30.5q-18 25 -49 25q-35 0 -60.5 -21.5t-47 -52.5t-40 -64t-37.5 -55q-17 -22 -32 -43.5t-28 -44.5h1q-8 -15 -18 -28.5t-19 -27.5t-15.5 -28.5t-9.5 -31.5v-6q1 -29 15.5 -50t37.5 -21q19 0 33.5 11t27.5 27.5 t25 35.5t26 35h-1q11 13 21 27t20.5 28.5t22 27.5t25.5 23q16 -16 32.5 -33.5t35 -32.5t40.5 -25t49 -10q17 0 33 4l6 1q22 8 39.5 23.5t29.5 36t18 43.5t6 46q0 22 -4 38v2zM444 597q1 -15 1.5 -30t0.5 -30q0 -71 -13.5 -142.5t-53.5 -131.5v2q-18 -28 -45.5 -40.5 t-53.5 -14.5h-34q-20 4 -36 17t-28 31.5t-18.5 41t-6.5 46.5q0 19 1 49t5.5 64.5t13 70.5t24 68t39 57t56.5 38q20 7 41 7q41 0 71.5 -27t35.5 -76z" horiz-adv-x="699" unicode="Ô" glyph-name="Ocircumflex"/>
<glyph d="M637 351q19 69 30 146t11 142q0 58 -13 111t-38.5 93.5t-64.5 65t-91 26.5h-13q-64 0 -124 -25t-111.5 -68.5t-91 -101t-62.5 -122.5q-24 -69 -36.5 -139t-12.5 -137q0 -68 13 -132.5t41.5 -115t73.5 -81t108 -30.5q67 0 127 29t109.5 79t86.5 117t58 143zM444 597 q1 -15 1.5 -30t0.5 -30q0 -71 -13.5 -142.5t-53.5 -131.5v2q-18 -28 -45.5 -40.5t-53.5 -14.5h-34q-20 4 -36 17t-28 31.5t-18.5 41t-6.5 46.5q0 19 1 49t5.5 64.5t13 70.5t24 68t39 57t56.5 38q20 7 41 7q41 0 71.5 -27t35.5 -76zM641 1251v3q0 32 -21.5 49.5t-50.5 17.5 q-21 0 -35 -8.5t-24.5 -21.5t-18.5 -28.5t-17 -30.5q-12 -13 -26.5 -27t-29.5 -25.5t-30.5 -19t-29.5 -7.5q-15 0 -27 7.5t-25 12.5q-14 2 -26.5 5t-26.5 3q-25 0 -49.5 -14.5t-47 -36.5t-42.5 -47.5t-37 -47.5q-6 -14 -9 -29t-7 -30v-7q0 -22 12.5 -34t29.5 -12 q18 0 30.5 13t23.5 28t24 28t32 13q9 0 17 -4t16 -9t16 -9.5t18 -5.5t19.5 -1.5t19.5 -0.5q37 0 75 16.5t74.5 44.5t70 64.5t62.5 77.5q11 17 23.5 35t16.5 38z" horiz-adv-x="699" unicode="Õ" glyph-name="Otilde"/>
<glyph d="M637 351q19 69 30 146t11 142q0 58 -13 111t-38.5 93.5t-64.5 65t-91 26.5h-13q-64 0 -124 -25t-111.5 -68.5t-91 -101t-62.5 -122.5q-24 -69 -36.5 -139t-12.5 -137q0 -68 13 -132.5t41.5 -115t73.5 -81t108 -30.5q67 0 127 29t109.5 79t86.5 117t58 143zM444 597 q1 -15 1.5 -30t0.5 -30q0 -71 -13.5 -142.5t-53.5 -131.5v2q-18 -28 -45.5 -40.5t-53.5 -14.5h-34q-20 4 -36 17t-28 31.5t-18.5 41t-6.5 46.5q0 19 1 49t5.5 64.5t13 70.5t24 68t39 57t56.5 38q20 7 41 7q41 0 71.5 -27t35.5 -76zM628 1179l2 9q0 11 0.5 22t0.5 22 q0 18 -2 36t-8.5 32t-18 23t-30.5 9q-18 0 -34 -9q-36 -15 -67 -44.5t-54.5 -66t-36.5 -76.5t-13 -74q0 -32 17 -54.5t45 -22.5q25 0 56 18t59.5 46t51.5 62.5t32 67.5zM325 1067l2 8q2 11 2 22v23v11q0 13 -1 26t-4.5 23.5t-10.5 17.5t-20 7q-29 0 -57.5 -22t-51.5 -55 t-37 -71t-14 -70q0 -31 15.5 -51t39.5 -20q18 0 39.5 13t41.5 34t35.5 48t20.5 56z" horiz-adv-x="699" unicode="Ö" glyph-name="Odieresis"/>
<glyph d="M430 264q6 4 8 7q15 16 23 36.5t8 41.5q0 13 -3 25.5t-11 23.5q-6 6 -9 10l-9 6q-14 9 -31 12.5t-30 12.5l-1 1q-3 4 -3 10q0 8 5 15.5t10 13.5q18 16 37.5 30.5t36.5 32.5q12 14 21 29.5t9 31.5q0 13 -8 24t-25.5 17.5t-37.5 6.5t-39 -6.5t-32 -20.5l-8 -9 q-10 -10 -17.5 -20t-18.5 -21l-2 -4q-8 -8 -18.5 -14.5t-21.5 -6.5q-12 0 -20 9q-12 11 -23 23.5t-22 24.5l-3 2q-11 6 -24 6q-17 0 -33.5 -8t-30.5 -21l-5 -5q-11 -12 -16 -27t-5 -30q0 -17 5 -31.5t13 -25.5q7 -10 16.5 -18t20.5 -16l-8 -9q-8 -15 -21 -27 q-12 -13 -26 -22.5t-28 -20.5l-4 -4q-21 -24 -21 -58q0 -14 3.5 -26.5t11.5 -22.5q17 -21 40 -21q14 0 29 7t29 17.5t26.5 22.5t23.5 22q19 19 42 19h5l-1 -1q25 -2 47.5 -13.5t41.5 -28.5q10 -11 25 -18t32 -7q26 0 43 17z" horiz-adv-x="523" unicode="×" glyph-name="multiply"/>
<glyph d="M587 918q-6 13 -13 27.5t-16.5 27t-22 20.5t-27.5 8q-29 0 -50.5 -21t-37.5 -48q-58 -7 -112.5 -34.5t-100.5 -69.5t-81.5 -96t-56.5 -114q-24 -69 -36.5 -139t-12.5 -137q0 -57 9 -111.5t29 -101.5q-6 -12 -10 -25t-5 -27q0 -15 4.5 -33.5t13 -34.5t20 -27.5t26.5 -13.5 q18 3 32.5 12t26.5 23q20 -9 42 -14.5t48 -5.5q69 0 127.5 27.5t105.5 75.5t82.5 112t59 137t35.5 151t12 153t-21 139t-63 106q-2 9 -3 17.5t-5 16.5h1zM157 346q0 19 1 51t6 70t15.5 77t29 72t46.5 55.5t68 27.5q-40 -101 -80 -195t-85 -181q-1 6 -1 11v12zM446 537 q0 -72 -13 -142.5t-54 -129.5q-18 -28 -45.5 -40.5t-53.5 -14.5h-6q38 88 82.5 175.5t88.5 181.5q1 -8 1 -15v-15z" horiz-adv-x="699" unicode="Ø" glyph-name="Oslash"/>
<glyph d="M634 924l4 27q0 15 -7 24t-17.5 13.5t-23 6.5t-23.5 5h2q-5 1 -9 1h-8q-21 0 -44 -9.5t-43 -26t-34 -38.5t-16 -48l-1 -5q3 -57 3 -116q0 -199 -33 -397q-5 -27 -14 -56.5t-24 -54.5t-35.5 -41.5t-47.5 -17.5h-17l-14 6q-18 11 -30 28.5t-19 38.5t-9.5 44.5t-2.5 47.5 q0 46 6 93t13 94.5t13 95t6 94.5q0 19 -2.5 37.5t-8.5 33t-15.5 23.5t-23.5 9q-22 0 -42.5 -16.5t-36.5 -41t-26 -53t-10 -52.5q0 -20 3 -39.5t5 -39.5l-2 -12q-5 -75 -17 -149t-12 -148q0 -53 13.5 -106t39 -95.5t63.5 -70.5t88 -30h3q35 0 67 11.5t69 22.5q58 17 103 59.5 t75.5 99t46.5 122t17 129.5q1 35 2.5 69.5t1.5 69.5v27v33q0 75 3 148.5t20 147.5zM211 1178q-14 6 -32 6q-26 0 -53 -12.5t-44 -37.5h1q-11 -9 -17.5 -24t-6.5 -27q0 -23 16 -37t39 -24.5t48 -19.5t44 -22q8 -5 14.5 -10.5t12.5 -12.5l5 -3q16 -10 41 -10q20 0 45.5 6.5 t48 17.5t38 25t15.5 28q0 13 -7.5 26.5t-19 26t-24 23t-21.5 16.5q-32 21 -70 36t-73 29z" horiz-adv-x="659" unicode="Ù" glyph-name="Ugrave"/>
<glyph d="M634 924l4 27q0 15 -7 24t-17.5 13.5t-23 6.5t-23.5 5h2q-5 1 -9 1h-8q-21 0 -44 -9.5t-43 -26t-34 -38.5t-16 -48l-1 -5q3 -57 3 -116q0 -199 -33 -397q-5 -27 -14 -56.5t-24 -54.5t-35.5 -41.5t-47.5 -17.5h-17l-14 6q-18 11 -30 28.5t-19 38.5t-9.5 44.5t-2.5 47.5 q0 46 6 93t13 94.5t13 95t6 94.5q0 19 -2.5 37.5t-8.5 33t-15.5 23.5t-23.5 9q-22 0 -42.5 -16.5t-36.5 -41t-26 -53t-10 -52.5q0 -20 3 -39.5t5 -39.5l-2 -12q-5 -75 -17 -149t-12 -148q0 -53 13.5 -106t39 -95.5t63.5 -70.5t88 -30h3q35 0 67 11.5t69 22.5q58 17 103 59.5 t75.5 99t46.5 122t17 129.5q1 35 2.5 69.5t1.5 69.5v27v33q0 75 3 148.5t20 147.5zM410 1044q22 21 46.5 43.5t46 48.5t38.5 55.5t24 64.5q0 37 -19.5 60.5t-50.5 23.5q-32 0 -52.5 -17t-35.5 -41t-29 -50t-33 -44q-22 -21 -50.5 -33.5t-53.5 -27.5t-42 -36.5t-17 -59.5v-3 q0 -35 20.5 -48.5t46.5 -13.5q40 0 81 22t80 56z" horiz-adv-x="659" unicode="Ú" glyph-name="Uacute"/>
<glyph d="M634 924l4 27q0 15 -7 24t-17.5 13.5t-23 6.5t-23.5 5h2q-5 1 -9 1h-8q-21 0 -44 -9.5t-43 -26t-34 -38.5t-16 -48l-1 -5q3 -57 3 -116q0 -199 -33 -397q-5 -27 -14 -56.5t-24 -54.5t-35.5 -41.5t-47.5 -17.5h-17l-14 6q-18 11 -30 28.5t-19 38.5t-9.5 44.5t-2.5 47.5 q0 46 6 93t13 94.5t13 95t6 94.5q0 19 -2.5 37.5t-8.5 33t-15.5 23.5t-23.5 9q-22 0 -42.5 -16.5t-36.5 -41t-26 -53t-10 -52.5q0 -20 3 -39.5t5 -39.5l-2 -12q-5 -75 -17 -149t-12 -148q0 -53 13.5 -106t39 -95.5t63.5 -70.5t88 -30h3q35 0 67 11.5t69 22.5q58 17 103 59.5 t75.5 99t46.5 122t17 129.5q1 35 2.5 69.5t1.5 69.5v27v33q0 75 3 148.5t20 147.5zM617 1225q-9 21 -23.5 35t-31.5 23.5t-36 16.5t-36.5 15.5t-32 20t-23.5 30.5q-18 25 -49 25q-35 0 -60.5 -21.5t-47 -52.5t-40 -64t-37.5 -55q-17 -22 -32 -43.5t-28 -44.5h1 q-8 -15 -18 -28.5t-19 -27.5t-15.5 -28.5t-9.5 -31.5v-6q1 -29 15.5 -50t37.5 -21q19 0 33.5 11t27.5 27.5t25 35.5t26 35h-1q11 13 21 27t20.5 28.5t22 27.5t25.5 23q16 -16 32.5 -33.5t35 -32.5t40.5 -25t49 -10q17 0 33 4l6 1q22 8 39.5 23.5t29.5 36t18 43.5t6 46 q0 22 -4 38v2z" horiz-adv-x="659" unicode="Û" glyph-name="Ucircumflex"/>
<glyph d="M634 924l4 27q0 15 -7 24t-17.5 13.5t-23 6.5t-23.5 5h2q-5 1 -9 1h-8q-21 0 -44 -9.5t-43 -26t-34 -38.5t-16 -48l-1 -5q3 -57 3 -116q0 -199 -33 -397q-5 -27 -14 -56.5t-24 -54.5t-35.5 -41.5t-47.5 -17.5h-17l-14 6q-18 11 -30 28.5t-19 38.5t-9.5 44.5t-2.5 47.5 q0 46 6 93t13 94.5t13 95t6 94.5q0 19 -2.5 37.5t-8.5 33t-15.5 23.5t-23.5 9q-22 0 -42.5 -16.5t-36.5 -41t-26 -53t-10 -52.5q0 -20 3 -39.5t5 -39.5l-2 -12q-5 -75 -17 -149t-12 -148q0 -53 13.5 -106t39 -95.5t63.5 -70.5t88 -30h3q35 0 67 11.5t69 22.5q58 17 103 59.5 t75.5 99t46.5 122t17 129.5q1 35 2.5 69.5t1.5 69.5v27v33q0 75 3 148.5t20 147.5zM560 1169l2 9q0 11 0.5 22t0.5 22q0 18 -2 36t-8.5 32t-18 23t-30.5 9q-18 0 -34 -9q-36 -15 -67 -44.5t-54.5 -66t-36.5 -76.5t-13 -74q0 -32 17 -54.5t45 -22.5q25 0 56 18t59.5 46 t51.5 62.5t32 67.5zM257 1057l2 8q2 11 2 22v23v11q0 13 -1 26t-4.5 23.5t-10.5 17.5t-20 7q-29 0 -57.5 -22t-51.5 -55t-37 -71t-14 -70q0 -31 15.5 -51t39.5 -20q18 0 39.5 13t41.5 34t35.5 48t20.5 56z" horiz-adv-x="659" unicode="Ü" glyph-name="Udieresis"/>
<glyph d="M595 1035q-15 7 -37 7q-24 0 -43.5 -9.5t-35.5 -24.5t-29.5 -34t-25.5 -38h1q-26 -38 -43 -79.5t-33 -82t-36.5 -76t-54.5 -60.5h-4q-11 0 -19.5 14t-17.5 35t-19 45t-23 45t-29.5 35t-39.5 14h-1q-14 -7 -28 -22t-26 -34t-20.5 -40t-9.5 -39v-11q0 -23 7 -40.5t18 -31.5 q18 -25 37.5 -53.5t36 -61.5t27 -69.5t10.5 -77.5q0 -55 -8 -108t-8 -108q0 -23 4 -44.5t12.5 -38t23 -27t35.5 -10.5h11q27 0 47 16t34 40.5t21 54.5t7 57q0 48 -7 95t-7 95v6q8 47 28 91t47 86t58 84t62 85q19 27 39 56t36 59.5t27 61.5t12 62v5q0 25 -8 45t-28 27v-1z M374 1050q22 21 46.5 43.5t46 48.5t38.5 55.5t24 64.5q0 37 -19.5 60.5t-50.5 23.5q-32 0 -52.5 -17t-35.5 -41t-29 -50t-33 -44q-22 -21 -50.5 -33.5t-53.5 -27.5t-42 -36.5t-17 -59.5v-3q0 -35 20.5 -48.5t46.5 -13.5q40 0 81 22t80 56z" horiz-adv-x="652" unicode="Ý" glyph-name="Yacute"/>
<glyph d="M724 482q16 35 26.5 71t12.5 71q0 49 -15.5 85.5t-40.5 62t-56.5 42t-64.5 26.5q-20 5 -36 5q-34 0 -71 -12.5t-72 -26.5q11 10 18 23t7 33v13q-2 16 -6 32t-11.5 29t-18.5 21t-26 8q-20 0 -40 -6t-40 -13.5t-39.5 -15.5t-37.5 -12q-24 -5 -48 -22.5t-43.5 -41.5t-33 -53 t-16.5 -57q0 -18 7.5 -28t18.5 -15.5t23.5 -9t23.5 -8.5q2 -17 3.5 -34t1.5 -35q0 -64 -8 -128t-10 -127q0 -24 2 -48t2 -48q-2 -19 -11 -30.5t-21.5 -19.5t-27 -15t-27 -16t-20.5 -23t-8 -37v-2q1 -23 7.5 -45.5t20.5 -36.5v1q5 -6 12 -8.5t14 -4.5h6q21 0 41.5 6.5 t42.5 6.5q23 -2 46.5 -6.5t48.5 -4.5h10q23 1 46 11.5t42 27.5t32.5 40.5t16.5 51.5v7q0 23 -10.5 35t-25.5 20q46 6 95.5 25t96.5 51.5t89 78.5t72 106zM436 441q-24 -8 -47.5 -16.5t-39.5 -8.5q-8 0 -12.5 4.5t-6.5 11t-2.5 14.5t-0.5 15q0 18 2.5 36.5t10 35.5t20 32 t33.5 24q20 2 41 9.5t41 7.5q17 0 29.5 -10t12.5 -30q0 -19 -5.5 -40t-16 -39t-25.5 -31t-34 -15z" horiz-adv-x="784" unicode="Þ" glyph-name="Thorn"/>
<glyph d="M543 106v9q2 14 3 28.5t1 29.5q0 69 -16.5 132t-37.5 124.5t-41 123t-28 129.5q-5 45 -34.5 69.5t-67.5 24.5q-24 0 -46 -9.5t-41 -25.5t-33.5 -38t-24.5 -46q-57 -144 -99.5 -278t-68.5 -262q-1 -4 -1.5 -8t-0.5 -9v-5q0 -15 3.5 -31t11 -29.5t18.5 -22t26 -8.5 q16 0 26 7t16.5 18.5t12 25t11.5 26.5v3q0 3 4 7v6q8 16 24 23t30 7h16q33 0 67 -10t55 -44q8 -28 31.5 -43.5t50.5 -15.5q19 0 41 5t40.5 16t32.5 28.5t19 42.5zM267 1021q-6 3 -14 4.5t-16 1.5q-11 0 -29 -6.5t-35 -18t-29.5 -28t-12.5 -37.5q0 -20 13.5 -33.5t33 -23.5 t40 -17.5t35.5 -16.5l-1 1q5 -5 11.5 -9.5t11.5 -9.5l4 -3q8 -6 18 -8t21 -2q28 0 59.5 13t52.5 30l2 2q2 2 4.5 5.5l2.5 3.5v-2q6 9 6 20q0 12 -6.5 24t-16 23t-20.5 20t-19 14h1q-11 7 -26 15.5t-31 16t-32.5 13.5t-29.5 9zM284 352q0 -11 -6 -19.5t-15 -12.5l-13 -9l1 1 q-8 -4 -16.5 -7.5t-19.5 -6.5h-3q-7 0 -10.5 6t-3.5 14v2q5 29 20 53.5t33 60.5q9 -2 15.5 -10.5t10.5 -20t5.5 -24t1.5 -22.5v-5z" unicode="à" glyph-name="agrave"/>
<glyph d="M543 106v8q2 15 3 29.5t1 29.5q0 69 -16.5 132t-37.5 124.5t-41 123t-28 129.5q-5 45 -34.5 69.5t-67.5 24.5q-24 0 -46 -9.5t-41 -25.5t-33.5 -38t-24.5 -46q-57 -144 -99.5 -278t-68.5 -262q-1 -4 -1.5 -8t-0.5 -9v-5q0 -15 3.5 -31t11 -29.5t18.5 -22t26 -8.5 q16 0 26 7t16.5 18.5t12 25t11.5 26.5v3q0 3 4 7v6q8 16 24 23t30 7h16q33 0 67 -10t55 -44q8 -28 31.5 -43.5t50.5 -15.5q19 0 41 5t40.5 16t32.5 28.5t19 42.5zM327 861q18 18 38.5 37t38.5 39.5t31.5 44.5t18.5 53q0 35 -18.5 57t-47.5 22t-47 -14.5t-31 -34t-23.5 -41 t-25.5 -34.5q-10 -9 -24.5 -16.5t-28.5 -15.5h1l-30 -16t-26 -19t-18 -27t-7 -38v-3q0 -35 19 -47.5t44 -12.5q35 0 69.5 18.5t66.5 46.5v1zM284 352q0 -11 -6 -19.5t-15 -12.5l-13 -9l1 1q-8 -4 -16.5 -7.5t-19.5 -6.5h-3q-7 0 -10.5 6t-3.5 14v2q5 29 20 53.5t33 60.5 q9 -2 15.5 -10.5t10.5 -20t5.5 -24t1.5 -22.5v-5z" unicode="á" glyph-name="aacute"/>
<glyph d="M543 106v8q2 15 3 29.5t1 29.5q0 69 -16.5 132t-37.5 124.5t-41 123t-28 129.5q-5 45 -34.5 69.5t-67.5 24.5q-24 0 -46 -9.5t-41 -25.5t-33.5 -38t-24.5 -46q-57 -144 -99.5 -278t-68.5 -262q-1 -4 -1.5 -8t-0.5 -9v-5q0 -15 3.5 -31t11 -29.5t18.5 -22t26 -8.5 q16 0 26 7t16.5 18.5t12 25t11.5 26.5v1v-1v1q0 1 -1 1v1q0 2 5 7v6q8 16 24 23t30 7h16q33 0 67 -10t55 -44q8 -28 31.5 -43.5t50.5 -15.5q19 0 41 5t40.5 16t32.5 28.5t19 42.5zM517 962q-12 28 -33 41.5t-43 23t-42 19.5t-30 32q-17 24 -47 24t-52.5 -18t-40.5 -43 t-33 -52t-30 -45q-11 -14 -21.5 -29.5t-19.5 -30t-16 -25.5t-10 -16q-11 -16 -20.5 -32t-11.5 -35v-6q1 -26 15 -46.5t37 -20.5q19 0 35 13t29.5 30.5t25 35.5t22.5 28h-3q12 16 23.5 32.5t26.5 29.5l11 -11q11 -12 23.5 -23.5t26.5 -21.5t30 -16t36 -6q13 0 26 4h5 q21 7 36.5 21t26 31.5t16 37.5t5.5 40q0 8 -0.5 16.5t-2.5 16.5v1zM284 352q0 -11 -6 -19.5t-15 -12.5l-13 -9l1 1q-8 -4 -16.5 -7.5t-19.5 -6.5h-3q-7 0 -10.5 6t-3.5 14v2q5 29 20 53.5t33 60.5q9 -2 15.5 -10.5t10.5 -20t5.5 -24t1.5 -22.5v-5z" unicode="â" glyph-name="acircumflex"/>
<glyph d="M543 106v8q2 15 3 29.5t1 29.5q0 69 -16.5 132t-37.5 124.5t-41 123t-28 129.5q-5 45 -34.5 69.5t-67.5 24.5q-24 0 -46 -9.5t-41 -25.5t-33.5 -38t-24.5 -46q-57 -144 -99.5 -278t-68.5 -262q-1 -4 -1.5 -8t-0.5 -9v-5q0 -15 3.5 -31t11 -29.5t18.5 -22t26 -8.5 q16 0 26 7t16.5 18.5t12 25t11.5 26.5v4q0 2 4 6v6q8 16 24 23t30 7h16q33 0 67 -10t55 -44q8 -28 31.5 -43.5t50.5 -15.5q19 0 41 5t40.5 16t32.5 28.5t19 42.5zM512 1026v4q0 30 -20.5 47t-47.5 17q-21 0 -33.5 -7.5t-21.5 -18.5t-15.5 -25t-14.5 -27l2 3 q-9 -10 -20 -20.5t-22.5 -19.5t-22.5 -14.5t-21 -5.5q-11 0 -21 3.5t-20.5 8t-21 8t-21.5 3.5q-25 0 -52 -18t-50 -42.5t-39 -51.5t-19 -45l-3 -23q0 -22 13 -34.5t30 -12.5t28 10.5t20 22.5t18 22.5t22 10.5q8 0 15.5 -4t15 -8.5t17 -8t21.5 -3.5h16q33 0 66.5 15 t65.5 40.5t60.5 58.5t52.5 69q7 11 13.5 22t9.5 24zM284 352q0 -11 -6 -19.5t-15 -12.5l-13 -9l1 1q-8 -4 -16.5 -7.5t-19.5 -6.5h-3q-7 0 -10.5 6t-3.5 14v2q5 29 20 53.5t33 60.5q9 -2 15.5 -10.5t10.5 -20t5.5 -24t1.5 -22.5v-5z" unicode="ã" glyph-name="atilde"/>
<glyph d="M543 106v8q2 15 3 29.5t1 29.5q0 69 -16.5 132t-37.5 124.5t-41 123t-28 129.5q-5 45 -34.5 69.5t-67.5 24.5q-24 0 -46 -9.5t-41 -25.5t-33.5 -38t-24.5 -46q-57 -144 -99.5 -278t-68.5 -262q-1 -4 -1.5 -8t-0.5 -9v-5q0 -15 3.5 -31t11 -29.5t18.5 -22t26 -8.5 q16 0 26 7t16.5 18.5t12 25t11.5 26.5v3q0 3 4 7v6q8 16 24 23t30 7h16q33 0 67 -10t55 -44q8 -28 31.5 -43.5t50.5 -15.5q19 0 41 5t40.5 16t32.5 28.5t19 42.5zM532 949l1 25q0 5 0.5 9t0.5 9q0 16 -2 32.5t-8 29t-17 20.5t-30 8q-8 0 -16 -2t-16 -7l1 1q-30 -12 -56 -37 t-45.5 -55.5t-30.5 -63.5t-11 -62t16.5 -50t42.5 -21q22 0 48 15t50.5 38.5t44 52t27.5 56.5v2zM289 857l2 6q1 9 1 19v21v5q0 12 -0.5 25t-4 23.5t-11.5 17.5t-22 7q-25 0 -49.5 -18.5t-44 -46t-32 -60t-12.5 -60.5q0 -29 15 -47.5t39 -18.5q15 0 34 11t36.5 29t31 41 t17.5 47v-1zM284 352q0 -11 -6 -19.5t-15 -12.5l-13 -9l1 1q-8 -4 -16.5 -7.5t-19.5 -6.5h-3q-7 0 -10.5 6t-3.5 14v2q5 29 20 53.5t33 60.5q9 -2 15.5 -10.5t10.5 -20t5.5 -24t1.5 -22.5v-5z" unicode="ä" glyph-name="adieresis"/>
<glyph d="M481 826q7 23 13.5 48t6.5 50t-9.5 46.5t-26 37.5t-37.5 25.5t-45 9.5q-21 0 -45.5 -7t-48.5 -19.5t-46.5 -30.5t-39.5 -40v1q-2 -5 -5 -8.5t-5 -6.5h2q-11 -24 -16 -50.5t-5 -49.5q0 -30 11.5 -58.5t33.5 -48.5q-13 -15 -23.5 -32t-18.5 -36q-57 -144 -99.5 -278 t-68.5 -262q-1 -4 -1.5 -8t-0.5 -9v-5q0 -15 3.5 -31t11 -29.5t18.5 -22t26 -8.5q16 0 26 7t16.5 18.5t12 25t11.5 26.5v4q0 2 4 6v6q8 16 24 23t30 7h16q33 0 67 -10t55 -44q8 -28 31.5 -43.5t50.5 -15.5q19 0 41 5t40.5 16t32.5 28.5t19 42.5v9q2 14 3 28.5t1 29.5 q0 69 -16.5 132t-37.5 124.5t-41 123t-28 129.5q-5 31 -18 50q24 17 43.5 40.5t30.5 53.5h1zM349 908q2 -8 2 -10q0 -31 -18.5 -51t-45.5 -24l-2 -1q-11 4 -17 15.5t-6 24.5v5q1 12 5 23.5t11 21.5t17 16t22 6t21.5 -6t10.5 -18v-2zM284 352q0 -11 -6 -19.5t-15 -12.5 l-13 -9l1 1q-8 -4 -16.5 -7.5t-19.5 -6.5h-3q-7 0 -10.5 6t-3.5 14v2q5 29 20 53.5t33 60.5q9 -2 15.5 -10.5t10.5 -20t5.5 -24t1.5 -22.5v-5z" unicode="å" glyph-name="aring"/>
<glyph d="M799 87q6 15 11 31.5t5 33.5q0 29 -21.5 46.5t-47.5 17.5q-13 0 -26 -3.5t-26 -7.5t-26.5 -7.5t-27.5 -3.5q-13 0 -24.5 2t-24.5 2q-26 0 -50 -6.5t-45 -6.5q-12 0 -20 7t-8 21v8q1 15 3.5 25.5t8.5 18t16.5 13.5t28.5 11q16 5 31.5 9t29.5 4h27q22 0 43.5 12t38.5 31 t27.5 43.5t10.5 50.5q0 32 -21.5 49.5t-49.5 17.5q-18 0 -39 -7t-42 -15.5t-40.5 -15.5t-32.5 -8q-5 4 -5 16v7q0 37 19.5 56.5t49.5 31t66.5 18t69.5 17.5l-1 -1q23 4 50.5 17.5t51 34.5t39.5 48.5t16 58.5v8q0 25 -13 43.5t-37 18.5h-2q-56 -8 -106 -27t-97 -42t-92.5 -45 t-93.5 -34q-5 43 -34.5 66.5t-66.5 23.5q-24 0 -46 -9.5t-41 -25.5t-33.5 -38t-24.5 -46q-57 -144 -99.5 -278t-68.5 -262q-1 -4 -1.5 -8t-0.5 -9v-5q0 -15 3.5 -31t11 -29.5t18.5 -22t26 -8.5q16 0 26 7t16.5 18.5t12 25t11.5 26.5v1q0 1 -1 1v1q0 2 5 7v6q8 16 24 23t30 7 h16q17 0 34.5 -2t34 -8t30.5 -16.5t25 -27.5l-2 3q7 -34 31.5 -48t49.5 -14h14h10q6 0 11 2h2q23 -5 47 -9.5t51 -4.5q20 0 40.5 2.5t43.5 4.5h54q34 0 67 20.5t50 57.5zM284 352q0 -11 -6 -19.5t-15 -12.5l-13 -9l1 1q-8 -4 -16.5 -7.5t-19.5 -6.5h-3q-7 0 -10.5 6t-3.5 14 v2q5 29 20 53.5t33 60.5q9 -2 15.5 -10.5t10.5 -20t5.5 -24t1.5 -22.5v-5z" horiz-adv-x="863" unicode="æ" glyph-name="ae"/>
<glyph d="M319 -31q-1 10 -1.5 19.5t-1.5 20.5q30 13 63.5 40.5t62 61.5t47 70.5t18.5 66.5q0 24 -8.5 45.5t-23 37.5t-34.5 25t-43 9h-7q-22 -6 -36 -21t-25 -34t-20.5 -40t-21.5 -38.5t-28 -29t-40 -12.5h-1q-21 0 -34 12.5t-20.5 32t-10 43t-2.5 46.5q0 20 3 53.5t12.5 67.5 t28 63t48.5 41q7 3 17 3q19 0 31 -11.5t24 -25t26 -25t36 -11.5q25 0 50.5 14t46 36t34 49.5t15.5 55.5v7q0 29 -11.5 51t-24.5 42l1 -1q-11 22 -28 26.5t-37 4.5h-14q-10 0 -19 1t-17 5h1q-18 11 -43 11q-41 0 -81 -20.5t-75.5 -52.5t-65 -72.5t-48.5 -79.5 q-29 -62 -42.5 -128t-13.5 -127q0 -50 7.5 -94t24 -81t43.5 -65.5t66 -46.5q3 -16 9 -30.5t12 -37.5v-1q-3 -26 -14.5 -51t-14.5 -51v-3q1 -29 18 -53.5t45 -27.5q30 4 50.5 24t34 48t21 60.5t11.5 62.5v4q0 1 -0.5 2t-0.5 3v1z" horiz-adv-x="530" unicode="ç" glyph-name="ccedilla"/>
<glyph d="M478 80q16 32 16 65q0 28 -21.5 46t-47.5 18q-13 0 -26 -3.5t-26 -7.5t-26.5 -7.5t-27.5 -3.5q-12 0 -24.5 1.5t-24.5 1.5q-26 0 -50.5 -6t-44.5 -6q-9 0 -14.5 3.5t-8.5 8t-4 9.5t-1 7v7q2 17 7 34.5t19 25.5q13 2 34 10v-1q15 5 30 9t28 4q3 0 6 -0.5t7 -0.5h14 q22 0 43.5 12t38.5 31.5t27.5 44t10.5 50.5q0 32 -21 49.5t-49 17.5q-18 0 -39 -7t-42 -15.5t-40.5 -15.5t-33.5 -8q-5 4 -5 16v7q0 37 19.5 56.5t49.5 31t66.5 18t69.5 17.5l-1 -1q23 4 50.5 17.5t51 34.5t39.5 48.5t16 58.5v8q0 24 -13 42.5t-36 18.5h-3q-56 -8 -107 -27 t-99 -42t-95 -45t-95 -35l-6 -4q-20 -16 -30 -41t-15 -50q-19 -128 -26.5 -250.5t-11.5 -244.5v-3q0 -23 12 -43t32 -23h8q2 0 3 0.5t3 0.5q18 0 36.5 -4t38.5 -8.5t40.5 -8t43.5 -3.5q20 0 40.5 2.5t43.5 4.5h54q34 0 67 20.5t50 57.5zM239 996q-6 3 -14 4.5t-16 1.5 q-11 0 -29 -6.5t-35 -18t-29.5 -28.5t-12.5 -38q0 -22 14 -34.5t33.5 -21.5t40 -16.5t34.5 -18.5q11 -7 22 -18l4 -2q8 -6 18 -8t21 -2q14 0 33 4.5t37 12t32 16.5t19 19v-1q6 9 6 20q0 12 -6.5 24t-16 23.5t-20.5 20.5t-19 14q-23 14 -47.5 24.5t-47.5 19.5z" horiz-adv-x="550" unicode="è" glyph-name="egrave"/>
<glyph d="M478 80q16 32 16 65q0 28 -21.5 46t-47.5 18q-13 0 -26 -3.5t-26 -7.5t-26.5 -7.5t-27.5 -3.5q-12 0 -24.5 1.5t-24.5 1.5q-26 0 -50.5 -6t-44.5 -6q-9 0 -14.5 3.5t-8.5 8t-4 9.5t-1 7v7q2 17 7 34.5t19 25.5q13 2 34 10v-1q15 5 30 9t28 4q3 0 6 -0.5t7 -0.5h14 q22 0 43.5 12t38.5 31.5t27.5 44t10.5 50.5q0 32 -21 49.5t-49 17.5q-18 0 -39 -7t-42 -15.5t-40.5 -15.5t-33.5 -8q-5 4 -5 16v7q0 37 19.5 56.5t49.5 31t66.5 18t69.5 17.5l-1 -1q23 4 50.5 17.5t51 34.5t39.5 48.5t16 58.5v8q0 24 -13 42.5t-36 18.5h-3q-56 -8 -107 -27 t-99 -42t-95 -45t-95 -35l-6 -4q-20 -16 -30 -41t-15 -50q-19 -128 -26.5 -250.5t-11.5 -244.5v-3q0 -23 12 -43t32 -23h8q2 0 3 0.5t3 0.5q18 0 36.5 -4t38.5 -8.5t40.5 -8t43.5 -3.5q20 0 40.5 2.5t43.5 4.5h54q34 0 67 20.5t50 57.5zM323 821q18 18 38.5 37t38.5 39.5 t31.5 44.5t18.5 53q0 35 -18.5 57t-47.5 22t-47 -14.5t-31 -34t-23.5 -41t-25.5 -34.5q-10 -9 -24.5 -16.5t-28.5 -15.5h1l-30 -16t-26 -19t-18 -27t-7 -38v-3q0 -35 19 -47.5t44 -12.5q35 0 69.5 18.5t66.5 46.5v1z" horiz-adv-x="550" unicode="é" glyph-name="eacute"/>
<glyph d="M478 80q16 32 16 65q0 28 -21.5 46t-47.5 18q-13 0 -26 -3.5t-26 -7.5t-26.5 -7.5t-27.5 -3.5q-12 0 -24.5 1.5t-24.5 1.5q-26 0 -50.5 -6t-44.5 -6q-9 0 -14.5 3.5t-8.5 8t-4 9.5t-1 7v7q2 17 7 34.5t19 25.5q13 2 34 10v-1q15 5 30 9t28 4q3 0 6 -0.5t7 -0.5h14 q22 0 43.5 12t38.5 31.5t27.5 44t10.5 50.5q0 32 -21 49.5t-49 17.5q-18 0 -39 -7t-42 -15.5t-40.5 -15.5t-33.5 -8q-5 4 -5 16v7q0 37 19.5 56.5t49.5 31t66.5 18t69.5 17.5l-1 -1q23 4 50.5 17.5t51 34.5t39.5 48.5t16 58.5v8q0 24 -13 42.5t-36 18.5h-3q-56 -8 -107 -27 t-99 -42t-95 -45t-95 -35l-6 -4q-20 -16 -30 -41t-15 -50q-19 -128 -26.5 -250.5t-11.5 -244.5v-3q0 -23 12 -43t32 -23h8q2 0 3 0.5t3 0.5q18 0 36.5 -4t38.5 -8.5t40.5 -8t43.5 -3.5q20 0 40.5 2.5t43.5 4.5h54q34 0 67 20.5t50 57.5zM483 974q-11 28 -32.5 42t-44 23.5 t-42 19t-28.5 27.5q-10 15 -22.5 22t-26.5 7q-31 0 -52.5 -17.5t-39 -42.5t-32.5 -52t-32 -46q-14 -20 -28.5 -41t-29.5 -46l-7 -11q-11 -17 -21 -33t-13 -36v-7q1 -27 15.5 -47t37.5 -20q17 0 30.5 9.5t24.5 23t21 29.5t21 29q17 19 30.5 40t31.5 37q9 -13 22.5 -26.5 t30 -25t35.5 -18.5t38 -7q14 0 29 3h1q21 7 37 21t27 31.5t16.5 37.5t5.5 40q0 18 -3 33v1z" horiz-adv-x="550" unicode="ê" glyph-name="ecircumflex"/>
<glyph d="M478 80q16 32 16 65q0 28 -21.5 46t-47.5 18q-13 0 -26 -3.5t-26 -7.5t-26.5 -7.5t-27.5 -3.5q-12 0 -24.5 1.5t-24.5 1.5q-26 0 -50.5 -6t-44.5 -6q-9 0 -14.5 3.5t-8.5 8t-4 9.5t-1 7v7q2 17 7 34.5t19 25.5q13 2 34 10v-1q15 5 30 9t28 4q3 0 6 -0.5t7 -0.5h14 q22 0 43.5 12t38.5 31.5t27.5 44t10.5 50.5q0 32 -21 49.5t-49 17.5q-18 0 -39 -7t-42 -15.5t-40.5 -15.5t-33.5 -8q-5 4 -5 16v7q0 37 19.5 56.5t49.5 31t66.5 18t69.5 17.5l-1 -1q23 4 50.5 17.5t51 34.5t39.5 48.5t16 58.5v8q0 24 -13 42.5t-36 18.5h-3q-56 -8 -107 -27 t-99 -42t-95 -45t-95 -35l-6 -4q-20 -16 -30 -41t-15 -50q-19 -128 -26.5 -250.5t-11.5 -244.5v-3q0 -23 12 -43t32 -23h8q2 0 3 0.5t3 0.5q18 0 36.5 -4t38.5 -8.5t40.5 -8t43.5 -3.5q20 0 41.5 2.5t43.5 4.5h53q34 0 67 20.5t50 57.5zM488 958l2 27q0 5 0.5 9t0.5 9 q0 16 -2 32t-8 29t-17.5 21t-29.5 8q-16 0 -32 -8q-30 -13 -55.5 -38t-45 -55.5t-30.5 -63.5t-11 -61q0 -29 16.5 -50.5t42.5 -21.5q22 0 48 15t50.5 38.5t43.5 52t27 56.5v1zM245 868l3 9q1 9 1 18v18v5q0 12 -0.5 25t-4.5 23.5t-11.5 17.5t-22.5 7q-24 0 -49 -18 t-44.5 -45.5t-32 -60t-12.5 -60.5q0 -29 15.5 -48t38.5 -19q16 0 35 11t36.5 29t31 41.5t17.5 47.5z" horiz-adv-x="550" unicode="ë" glyph-name="edieresis"/>
<glyph d="M356 711q-2 14 -6 28.5t-11 26t-17.5 19t-25.5 7.5q-17 0 -33 -4.5t-32 -11t-31.5 -13t-31.5 -9.5q-20 -5 -40.5 -19.5t-37.5 -35t-28.5 -45t-13.5 -48.5q0 -16 5.5 -26t14.5 -16t19.5 -9.5t19.5 -5.5q3 -23 3 -48q0 -51 -6 -102t-8 -102q0 -19 1.5 -38.5t1.5 -38.5 q-2 -16 -14 -24.5t-25 -16.5h1q-10 -5 -20 -10.5t-17.5 -13.5t-12 -19.5t-4.5 -27.5v-2q1 -17 6.5 -34.5t19.5 -37.5h-1q2 -3 7 -8.5t10 -10.5v8q6 -2 10 -2h6q15 0 30.5 5t35.5 5q18 -2 36.5 -5.5t40.5 -3.5h8q21 1 41 10t36.5 24t28 35t14.5 45v7q0 24 -12 36t-27.5 18.5 t-31.5 11t-25 14.5q-15 40 -15 73q0 35 5 71t10 73v-1q5 29 8.5 59t5.5 62q-1 5 -1 13q0 5 1 9v4q3 15 19 24t34.5 19.5t33.5 26t15 44.5v11zM113 1008q-11 0 -29 -6t-35 -17.5t-29.5 -28.5t-12.5 -38q0 -20 13.5 -33.5t32 -23.5t39.5 -17.5t36 -16.5q3 -3 5 -4t4.5 -2 t5 -3.5t6.5 -9.5l5 -3q8 -5 18 -7t21 -2q28 0 59.5 13t52.5 30l-3 -1q18 6 18 29q0 12 -6.5 24t-16 23.5t-20.5 20.5t-19 14h1q-15 10 -35 20.5t-40.5 19t-39.5 14t-31 5.5z" horiz-adv-x="362" unicode="ì" glyph-name="igrave"/>
<glyph d="M356 711q-2 14 -6 28.5t-11 26t-17.5 19t-25.5 7.5q-17 0 -33 -4.5t-32 -11t-31.5 -13t-31.5 -9.5q-20 -5 -40.5 -19.5t-37.5 -35t-28.5 -45t-13.5 -48.5q0 -16 5.5 -26t14.5 -16t19.5 -9.5t19.5 -5.5q3 -23 3 -48q0 -51 -6 -102t-8 -102q0 -18 1.5 -38t1.5 -38 q-2 -17 -13.5 -25.5t-25.5 -16.5h1q-10 -5 -20 -10.5t-17.5 -13.5t-12 -19.5t-4.5 -27.5v-2q1 -17 6.5 -34.5t19.5 -37.5h-1q2 -3 7 -8.5t10 -10.5v8q6 -2 10 -2h6q15 0 30.5 5t35.5 5q18 -2 36.5 -5.5t40.5 -3.5h8q21 1 41 10t36.5 24t28 35t14.5 45v7q0 24 -12 36 t-27.5 18.5t-31.5 11t-25 14.5q-15 40 -15 73q0 35 5 71t10 73v-1q5 29 8.5 59t5.5 62q-1 5 -1 13q0 5 1 9v4q3 15 19 24t34.5 19.5t33.5 26t15 44.5v11zM238 833q18 18 38 36.5t37.5 39.5t31.5 45t20 53q0 35 -18.5 57t-47.5 22t-47 -14.5t-31 -34t-23.5 -41t-25.5 -34.5 q-10 -9 -24.5 -16.5t-28.5 -15.5h1l-30 -16t-26 -19t-18 -27t-7 -38v-3q0 -35 19 -47.5t44 -12.5q35 0 69.5 18.5t66.5 46.5v1z" horiz-adv-x="362" unicode="í" glyph-name="iacute"/>
<glyph d="M356 711q-2 14 -6 28.5t-11 26t-17.5 19t-25.5 7.5q-17 0 -33 -4.5t-32 -11t-31.5 -13t-31.5 -9.5q-20 -5 -40.5 -19.5t-37.5 -35t-28.5 -45t-13.5 -48.5q0 -16 5.5 -26t14.5 -16t19.5 -9.5t19.5 -5.5q3 -23 3 -48q0 -51 -6 -102t-8 -102q0 -18 1.5 -38t1.5 -38 q-2 -17 -13.5 -25.5t-25.5 -16.5h1q-10 -5 -20 -10.5t-17.5 -13.5t-12 -19.5t-4.5 -27.5v-2q1 -17 6.5 -34.5t19.5 -37.5h-1q2 -3 7 -8.5t10 -10.5v8q6 -2 10 -2h6q15 0 30.5 5t35.5 5q18 -2 36.5 -5.5t40.5 -3.5h8q21 1 41 10t36.5 24t28 35t14.5 45v7q0 24 -12 36 t-27.5 18.5t-31.5 11t-25 14.5q-15 40 -15 73q0 35 5 71t10 73v-1q5 29 8.5 59t5.5 62q-1 5 -1 13q0 5 1 9v4q3 15 19 24t34.5 19.5t33.5 26t15 44.5v11zM440 968q-12 28 -32.5 41.5t-42.5 23t-42.5 20t-30.5 32.5q-18 24 -47 24q-30 0 -52.5 -18t-40.5 -43t-33 -52.5 t-30 -45.5q-16 -20 -29.5 -44t-35.5 -53q-11 -17 -21 -33.5t-13 -36.5v-7q1 -26 15 -46t37 -20q18 0 32 10t27 25.5t25.5 34.5t26.5 37h-2q12 15 24 31.5t26 29.5l9 -8q12 -12 24 -24.5t26.5 -22t31 -16t36.5 -6.5q14 0 28 3h1q42 15 64.5 52.5t22.5 77.5q0 7 -1 14.5 t-3 15.5v4z" horiz-adv-x="362" unicode="î" glyph-name="icircumflex"/>
<glyph d="M356 711q-2 14 -6 28.5t-11 26t-17.5 19t-25.5 7.5q-17 0 -33 -4.5t-32 -11t-31.5 -13t-31.5 -9.5q-20 -5 -40.5 -19.5t-37.5 -35t-28.5 -45t-13.5 -48.5q0 -16 5.5 -26t14.5 -16t19.5 -9.5t19.5 -5.5q3 -23 3 -48q0 -51 -6 -102t-8 -102q0 -18 1.5 -38t1.5 -38 q-2 -17 -13.5 -25.5t-25.5 -16.5h1q-10 -5 -20 -10.5t-17.5 -13.5t-12 -19.5t-4.5 -27.5v-2q1 -17 6.5 -34.5t19.5 -37.5h-1q2 -3 7 -8.5t10 -10.5v8q6 -2 10 -2h6q15 0 30.5 5t35.5 5q18 -2 36.5 -5.5t40.5 -3.5h8q21 1 41 10t36.5 24t28 35t14.5 45v7q0 24 -12 36 t-27.5 18.5t-31.5 11t-25 14.5q-15 40 -15 73q0 35 5 71t10 73v-1q5 29 8.5 59t5.5 62q-1 5 -1 13q0 5 1 9v4q3 15 19 24t34.5 19.5t33.5 26t15 44.5v11zM405 960l2 27q0 5 0.5 9t0.5 9q0 16 -2 32.5t-8 29t-17.5 20.5t-30.5 8q-8 0 -16 -1.5t-16 -6.5h1q-30 -12 -56 -37 t-45.5 -55.5t-30.5 -63.5t-11 -62t16.5 -50t43.5 -21q22 0 48 15t50.5 38.5t43.5 52t27 56.5zM163 872l1 7v-1q2 9 2 18v20v5q0 12 -0.5 25t-4.5 23.5t-11.5 17.5t-22.5 7q-25 0 -49.5 -18.5t-44 -46t-32 -60t-12.5 -60.5q0 -29 15.5 -48t38.5 -19q16 0 35 11t36.5 29 t30.5 41.5t18 47.5v1z" horiz-adv-x="362" unicode="ï" glyph-name="idieresis"/>
<glyph d="M489 678q-20 45 -55.5 64t-79.5 19q-33 0 -65.5 -9.5t-64 -24t-61.5 -30t-58 -27.5l-1 -1q-20 -9 -36 -32.5t-18 -48.5q-7 -44 -11.5 -86t-8.5 -85l-18 -3q-11 -5 -22.5 -15.5t-20.5 -23.5t-14.5 -27.5t-5.5 -27.5q0 -15 6.5 -26.5t17 -19t22.5 -12t23 -5.5l-2 -43 q-1 -15 -2 -32t-2.5 -33.5t-2.5 -30.5t-2 -23v-7q0 -26 8.5 -50.5t33.5 -26.5q31 -5 65.5 -10.5t71.5 -5.5q34 0 70 6.5t70 23t64 44t53 68.5q42 76 69 156.5t27 171.5q0 60 -12 114t-38 100v-1zM251 370q1 4 1 8v10q0 30 -19 50.5t-48 20.5q-5 -1 -8.5 -1.5t-6.5 -1.5l6 42 v-2q3 10 11 16t18.5 9t21.5 4t20 1q21 0 39.5 -8t26.5 -30l-1 2q12 -54 12 -111q0 -27 -5 -56t-16 -55t-29 -46t-44 -30q-14 -8 -30 -14t-30 -6q-8 0 -12.5 8.5t-4.5 19.5v34v16t1 16q39 3 65.5 32.5t31.5 72.5v-1z" horiz-adv-x="546" unicode="ð" glyph-name="eth"/>
<glyph d="M525 743v5q0 29 -16.5 41t-40.5 12q-26 0 -53 -13t-49 -34.5t-36 -49t-14 -56.5q0 -46 6 -85t6 -83v-4q-3 -23 -5 -48t-15 -45q-10 3 -17.5 11t-13.5 18.5t-11 22.5t-9 21q-17 32 -30 65.5t-19 71.5q-6 34 -26 53.5t-48 19.5q-20 0 -37 -10t-29.5 -25.5t-20.5 -36 t-11 -41.5q-12 -99 -21 -192t-9 -190v-21q0 -23 1 -47.5t7 -44t19 -32.5t36 -14q14 0 31 9.5t35 30.5h-5q8 15 12.5 33t5.5 36v10q0 28 -3.5 52.5t-3.5 54.5v13v15q0 8 2 15q9 -2 16 -12.5t13 -21.5q0 -1 -3.5 3t-6.5 8t-4 5q0 4 15 -20t32 -75q10 -30 21.5 -60.5t28 -55 t39 -40t54.5 -15.5h2q28 0 54 19t37 49q25 76 39.5 153t23 155.5t12.5 157t7 157.5v-1q1 14 1 28t1 28zM511 977v4q0 31 -20.5 47.5t-47.5 16.5q-18 0 -30.5 -7t-22.5 -18t-17.5 -24.5t-14.5 -26.5l2 2q-9 -10 -20 -21t-22 -20t-22.5 -14.5t-21.5 -5.5q-8 0 -13.5 3.5t-14 8 t-21.5 8t-35 3.5q-20 0 -39.5 -10.5t-37.5 -27t-34 -36t-29 -37.5q-14 -18 -16.5 -32t-6.5 -29v-8q0 -22 13 -34.5t30 -12.5t28.5 10.5t20.5 22.5t18 22.5t21 10.5q5 0 10.5 -3t11.5 -7v1q15 -10 30 -12.5t33 -2.5q33 0 67 15t65.5 40.5t60 58.5t52.5 69q7 11 13.5 22 t9.5 24z" horiz-adv-x="532" unicode="ñ" glyph-name="ntilde"/>
<glyph d="M520 288q15 55 23.5 117t8.5 116q0 48 -11 92.5t-32.5 78.5t-54.5 54.5t-77 21.5h-11q-53 0 -102.5 -20.5t-91.5 -56t-74.5 -83t-51.5 -101.5q-40 -115 -40 -223q0 -56 11 -109.5t35 -95.5t62 -67.5t91 -25.5q55 0 105 23.5t91 64.5t71.5 96t47.5 118zM345 487 q1 -12 1.5 -23.5t0.5 -23.5q0 -48 -7 -100t-32 -93q-20 -32 -44 -44.5t-40 -14.5h-25q-28 6 -45.5 35t-17.5 64q0 22 2 61.5t12.5 80.5t31.5 76.5t59 49.5h-1q17 5 30 5q29 0 50.5 -19t24.5 -54zM230 989q-7 3 -14 4t-15 1q-12 0 -30 -6.5t-35.5 -18t-29.5 -28.5t-12 -38 t14 -34.5t33.5 -23t40 -16.5t34.5 -16q10 -7 18 -16l9 -7q14 -8 36 -8t45 7t41.5 17.5t30 23t11.5 24.5t-6.5 24t-16 23.5t-20.5 20.5t-19 14q-26 17 -57.5 30t-57.5 23z" horiz-adv-x="559" unicode="ò" glyph-name="ograve"/>
<glyph d="M520 288q15 55 23.5 117t8.5 116q0 48 -11 92.5t-32.5 78.5t-54.5 54.5t-77 21.5h-11q-53 0 -102.5 -20.5t-91.5 -56t-74.5 -83t-51.5 -101.5q-40 -115 -40 -223q0 -56 11 -109.5t35 -95.5t62 -67.5t91 -25.5q55 0 105 23.5t91 64.5t71.5 96t47.5 118zM345 487 q1 -12 1.5 -23.5t0.5 -23.5q0 -48 -7 -100t-32 -93q-20 -32 -44.5 -44.5t-40.5 -14.5h-24q-28 6 -45.5 35t-17.5 64q0 22 2 61.5t12.5 80.5t31.5 76.5t59 49.5h-1q17 5 30 5q29 0 50.5 -19t24.5 -54zM317 824q18 18 38 36.5t37.5 39.5t31.5 45t20 53q0 35 -18.5 57.5 t-47.5 22.5t-47 -14t-30.5 -34t-23.5 -41.5t-26 -35.5q-10 -9 -24.5 -16.5t-28.5 -15.5h1l-30 -16t-26.5 -19t-18.5 -26.5t-7 -37.5v-4q0 -35 19.5 -47.5t44.5 -12.5q35 0 69.5 18.5t66.5 46.5v1z" horiz-adv-x="559" unicode="ó" glyph-name="oacute"/>
<glyph d="M520 288q15 55 23.5 117t8.5 116q0 48 -11 92.5t-32.5 78.5t-54.5 54.5t-77 21.5h-11q-53 0 -102.5 -20.5t-91.5 -56t-74.5 -83t-51.5 -101.5q-40 -115 -40 -223q0 -56 11 -109.5t35 -95.5t62 -67.5t91 -25.5q55 0 105 23.5t91 64.5t71.5 96t47.5 118zM501 972 q-12 28 -32.5 41.5t-42.5 23t-42.5 20t-30.5 32.5q-18 24 -47 24q-30 0 -52.5 -18t-40.5 -43t-33 -52.5t-30 -45.5q-17 -24 -32.5 -48t-33.5 -51q-11 -17 -21 -33t-12 -36v-6q1 -26 15 -46t37 -20q18 0 32 10t27 25.5t25.5 34.5t26.5 37h-2q12 15 24 31.5t26 29.5l9 -8 q12 -12 24 -24.5t26.5 -22t31 -16t36.5 -6.5q14 0 28 3h1q21 7 37 21t27 31.5t16.5 37.5t5.5 40q0 7 -0.5 14.5t-2.5 15.5v4zM345 487q1 -12 1.5 -23.5t0.5 -23.5q0 -48 -7 -100t-32 -93q-20 -32 -44.5 -44.5t-40.5 -14.5h-24q-28 6 -45.5 35t-17.5 64q0 22 2 61.5 t12.5 80.5t31.5 76.5t59 49.5h-1q17 5 30 5q29 0 50.5 -19t24.5 -54z" horiz-adv-x="559" unicode="ô" glyph-name="ocircumflex"/>
<glyph d="M520 288q15 55 23.5 117t8.5 116q0 48 -11 92.5t-32.5 78.5t-54.5 54.5t-77 21.5h-11q-53 0 -102.5 -20.5t-91.5 -56t-74.5 -83t-51.5 -101.5q-40 -115 -40 -223q0 -56 11 -109.5t35 -95.5t62 -67.5t91 -25.5q55 0 105 23.5t91 64.5t71.5 96t47.5 118zM523 1009v4 q0 31 -20.5 47.5t-47.5 16.5q-18 0 -30.5 -7t-22.5 -18t-17.5 -24.5t-14.5 -26.5l2 2q-9 -10 -20 -21t-22 -20t-22.5 -14.5t-21.5 -5.5q-8 0 -13.5 3.5t-14 8t-21.5 8t-35 3.5q-20 0 -39.5 -10.5t-37.5 -27t-34 -36t-29 -37.5q-14 -18 -16.5 -32t-6.5 -29v-8q0 -22 13 -34.5 t30 -12.5t28.5 10.5t20.5 22.5t18 22.5t21 10.5q5 0 10.5 -3t11.5 -7v1q15 -10 30 -12.5t33 -2.5q33 0 67 15t65.5 40.5t60 58.5t52.5 69q7 11 13.5 22t9.5 24zM345 487q1 -12 1.5 -23.5t0.5 -23.5q0 -48 -7 -100t-32 -93q-20 -32 -44.5 -44.5t-40.5 -14.5h-24 q-28 6 -45.5 35t-17.5 64q0 22 2 61.5t12.5 80.5t31.5 76.5t59 49.5h-1q17 5 30 5q29 0 50.5 -19t24.5 -54z" horiz-adv-x="559" unicode="õ" glyph-name="otilde"/>
<glyph d="M520 288q15 55 23.5 117t8.5 116q0 48 -11 92.5t-32.5 78.5t-54.5 54.5t-77 21.5h-11q-53 0 -102.5 -20.5t-91.5 -56t-74.5 -83t-51.5 -101.5q-40 -115 -40 -223q0 -56 11 -109.5t35 -95.5t62 -67.5t91 -25.5q55 0 105 23.5t91 64.5t71.5 96t47.5 118zM345 487 q1 -12 1.5 -23.5t0.5 -23.5q0 -48 -7 -100t-32 -93q-20 -32 -44 -44.5t-40 -14.5h-25q-28 6 -45.5 35t-17.5 64q0 22 2 61.5t12.5 80.5t31 76.5t58.5 49.5q17 5 30 5q29 0 50.5 -19t24.5 -54zM512 950l2 28q0 5 0.5 9t0.5 9q0 16 -2 32t-8 29t-17.5 21t-29.5 8t-33 -9h1 q-30 -12 -55.5 -36.5t-45 -55.5t-30.5 -64t-11 -61q0 -29 16.5 -50.5t42.5 -21.5q22 0 48 15t50.5 38.5t43.5 52t27 56.5zM269 861l3 9q1 9 1 18v18v5q0 12 -0.5 25t-4.5 23.5t-11.5 17.5t-22.5 7t-26 -7h1q-22 -9 -42.5 -28t-36 -43.5t-25 -52t-9.5 -53.5q0 -29 15.5 -48 t38.5 -19q16 0 35 11t36.5 29t31 41.5t17.5 47.5z" horiz-adv-x="559" unicode="ö" glyph-name="odieresis"/>
<glyph d="M459 471v4q0 13 -3.5 27t-10 25t-17 18t-24.5 7l-11 -3q-97 -35 -183 -57t-164 -35q-13 -9 -18.5 -26t-7.5 -32l3 -18v1q8 -19 23.5 -29t34.5 -10q17 0 34.5 5t32.5 13l10 1q21 4 50.5 5.5t62 4t64.5 7t58.5 15t44 29t21.5 48.5zM328 723l2 7q-1 20 -3 43.5t-8 44 t-17.5 34t-30.5 13.5q-31 0 -57.5 -21t-46.5 -52.5t-31.5 -67t-11.5 -63.5v-4q-1 -4 -1 -8v-8q0 -34 17 -59t46 -25q17 0 37 9t36 26h-1q26 25 47.5 59.5t22.5 71.5zM306 135v29q0 22 -3 46t-10.5 43t-21 31.5t-35.5 12.5q-28 0 -51.5 -15t-41 -38.5t-27 -52.5t-9.5 -57v-6 q0 -3 -0.5 -6.5t-0.5 -6.5q0 -20 6 -39t17 -34t25.5 -24t32.5 -9h5q12 0 22 4.5t21 10.5h-1q26 17 48 45.5t24 65.5z" horiz-adv-x="479" unicode="÷" glyph-name="divide"/>
<glyph d="M485 734q-6 13 -13 28.5t-17 28.5t-22 21.5t-27 8.5q-26 0 -44.5 -17t-32.5 -39q-80 -13 -140 -60.5t-101 -115.5t-61.5 -148t-20.5 -157q0 -46 7 -89.5t22 -81.5q-10 -21 -11 -41q0 -14 4.5 -30t12.5 -30.5t19.5 -25t25.5 -12.5q29 7 49 26q16 -6 33 -10t37 -4 q85 0 150 48t109 125t66 172t22 190q0 60 -16.5 112.5t-50.5 87.5q-1 3 -1 6q0 4 -1 7h2zM241 555h1q-25 -64 -51 -125t-55 -120q0 27 4 64t15 73t31.5 65.5t54.5 42.5zM308 247q-19 -26 -37.5 -39.5t-35.5 -17.5q17 50 50 107t62 122q-2 -45 -10 -89t-29 -83z" horiz-adv-x="559" unicode="ø" glyph-name="oslash"/>
<glyph d="M517 745l3 25q0 27 -16.5 35t-35.5 12l-9 3q-4 1 -8 1h-9q-18 0 -38.5 -8.5t-37.5 -22.5t-29.5 -34t-14.5 -42v1l-1 -5q3 -45 3 -94q0 -158 -27 -315q-3 -21 -10 -43.5t-17.5 -41t-25.5 -30.5t-35 -13l-19 4h1q-27 16 -35.5 49t-8.5 69t5 73t10 75v-1q6 38 10.5 76.5 t4.5 77.5q0 17 -2.5 34t-8.5 30t-15.5 21t-23.5 8q-19 0 -37.5 -14t-32.5 -35.5t-23 -46t-9 -45.5q0 -11 1 -20.5t3 -19.5v1q1 -5 1.5 -11t1.5 -12l-2 -8q-4 -60 -13.5 -120t-9.5 -120q0 -44 11.5 -88.5t33 -80t54 -58.5t74.5 -25h2q21 0 40.5 5.5t41.5 13.5v-1q8 2 15 5 t15 5q48 14 85 48.5t62 81t38.5 100.5t15.5 107q2 49 2 98t1 98t4.5 98t12.5 98zM173 961q-6 3 -14 4.5t-16 1.5q-23 0 -46.5 -10.5t-37.5 -32.5q-11 -8 -16.5 -22.5t-5.5 -25.5q0 -21 14 -34.5t33.5 -23t40 -16.5t34.5 -16q5 -5 10.5 -8.5t9.5 -8.5l5 -4q8 -6 18 -8t21 -2 q19 0 41.5 6t41.5 16t31.5 23t12.5 26q0 12 -6.5 24t-16 23.5t-20.5 20.5t-19 14h1q-23 15 -57 31t-61 23z" horiz-adv-x="527" unicode="ù" glyph-name="ugrave"/>
<glyph d="M517 745l3 25q0 27 -16.5 35t-35.5 12l-9 3q-4 1 -8 1h-9q-18 0 -38.5 -8.5t-37.5 -22.5t-29.5 -34t-14.5 -42v1l-1 -5q3 -45 3 -94q0 -158 -27 -315q-3 -21 -10 -43.5t-17.5 -41t-25.5 -30.5t-35 -13l-19 4h1q-27 16 -35.5 49t-8.5 69t5 73t10 75v-1q6 38 10.5 76.5 t4.5 77.5q0 17 -2.5 34t-8.5 30t-15.5 21t-23.5 8q-19 0 -37.5 -14t-32.5 -35.5t-23 -46t-9 -45.5q0 -11 1 -20.5t3 -19.5v1q1 -5 1.5 -11t1.5 -12l-2 -8q-4 -60 -13.5 -120t-9.5 -120q0 -44 11.5 -88.5t33 -80t54 -58.5t74.5 -25h2q21 0 40.5 5.5t41.5 13.5v-1q8 2 15 5 t15 5q48 14 85 48.5t62 81t38.5 100.5t15.5 107q2 49 2 98t1 98t4.5 98t12.5 98zM335 838q18 18 38.5 37t38.5 40t31.5 45t18.5 53q0 35 -18.5 57t-47.5 22q-30 0 -47 -14t-29 -33.5t-23 -41t-28 -36.5q-10 -9 -24.5 -16.5t-28.5 -15.5h1l-30 -16t-26 -19t-18 -26.5 t-7 -37.5v-4q0 -34 19 -46.5t44 -12.5q35 0 69 18t67 46v1z" horiz-adv-x="527" unicode="ú" glyph-name="uacute"/>
<glyph d="M517 745l3 25q0 27 -16.5 35t-35.5 12l-9 3q-4 1 -8 1h-9q-18 0 -38.5 -8.5t-37.5 -22.5t-29.5 -34t-14.5 -42v1l-1 -5q3 -45 3 -94q0 -158 -27 -315q-3 -21 -10 -43.5t-17.5 -41t-25.5 -30.5t-35 -13l-19 4h1q-27 16 -35.5 49t-8.5 69t5 73t10 75v-1q6 38 10.5 76.5 t4.5 77.5q0 17 -2.5 34t-8.5 30t-15.5 21t-23.5 8q-19 0 -37.5 -14t-32.5 -35.5t-23 -46t-9 -45.5q0 -11 1 -20.5t3 -19.5v1q1 -5 1.5 -11t1.5 -12l-2 -8q-4 -60 -13.5 -120t-9.5 -120q0 -44 11.5 -88.5t33 -80t54 -58.5t74.5 -25h2q21 0 40.5 5.5t41.5 13.5v-1q8 2 15 5 t15 5q48 14 85 48.5t62 81t38.5 100.5t15.5 107q2 49 2 98t1 98t4.5 98t12.5 98zM504 992q-12 28 -32.5 42t-43 23t-43 19.5t-30.5 32.5q-17 24 -47 24q-31 0 -52.5 -17.5t-38.5 -42.5t-32 -52.5t-33 -46.5q-17 -21 -32 -45.5t-33 -51.5q-11 -17 -21 -33.5t-13 -36.5v-7 q1 -26 15.5 -46t37.5 -20q19 0 31.5 8.5t23.5 23t23.5 34t32.5 41.5h-2q11 14 23 31.5t26 29.5q13 -13 26 -26.5t28 -25t33 -18.5t40 -7q14 0 29 3l-2 -1q43 15 66 53t23 78q0 18 -3 32v2z" horiz-adv-x="527" unicode="û" glyph-name="ucircumflex"/>
<glyph d="M517 745l3 25q0 27 -16.5 35t-35.5 12l-9 3q-4 1 -8 1h-9q-18 0 -38.5 -8.5t-37.5 -22.5t-29.5 -34t-14.5 -42v1l-1 -5q3 -45 3 -94q0 -158 -27 -315q-3 -21 -10 -43.5t-17.5 -41t-25.5 -30.5t-35 -13l-19 4h1q-27 16 -35.5 49t-8.5 69t5 73t10 75v-1q6 38 10.5 76.5 t4.5 77.5q0 17 -2.5 34t-8.5 30t-15.5 21t-23.5 8q-19 0 -37.5 -14t-32.5 -35.5t-23 -46t-9 -45.5q0 -11 1 -20.5t3 -19.5v1q1 -5 1.5 -11t1.5 -12l-2 -8q-4 -60 -13.5 -120t-9.5 -120q0 -44 11.5 -88.5t33 -80t54 -58.5t74.5 -25h2q21 0 40.5 5.5t41.5 13.5v-1q8 2 15 5 t15 5q48 14 85 48.5t62 81t38.5 100.5t15.5 107q2 49 2 98t1 98t4.5 98t12.5 98zM458 942l2 46q0 16 -2 32t-8 29t-17 21t-30 8q-17 0 -32 -9h1q-30 -12 -56 -37t-45.5 -55.5t-30.5 -63.5t-11 -61q0 -29 16.5 -50.5t43.5 -21.5q21 0 47.5 15t50.5 38.5t43.5 52t27.5 56.5z M216 854l1 6q2 9 2 18v20v6q0 12 -1 25t-4.5 23.5t-11.5 17t-22 6.5q-24 0 -49 -18t-44.5 -45.5t-32 -60t-12.5 -60.5q0 -29 15 -48t39 -19q16 0 35 11t36.5 29t30.5 41.5t18 47.5z" horiz-adv-x="527" unicode="ü" glyph-name="udieresis"/>
<glyph d="M446 854q-32 0 -58 -21t-47 -51.5t-36.5 -64.5t-25.5 -60q-14 -38 -31 -71t-46 -56q-6 1 -11.5 12.5t-12 28t-14.5 36t-19.5 36t-26 27.5t-33.5 11h-4q-12 -6 -25 -19.5t-23.5 -30t-17.5 -34.5t-8 -34v-9q0 -20 6.5 -35.5t15.5 -28.5q14 -19 29.5 -41.5t28 -48t21 -54 t8.5 -59.5q0 -43 -6.5 -86t-6.5 -87q0 -20 3.5 -39t11.5 -34t21.5 -24t33.5 -9h9q23 0 41 14t30.5 35t19 46.5t6.5 48.5q0 40 -5.5 77t-5.5 75v3q10 62 44.5 117t76.5 111l33 45q16 22 32 45.5t29 48.5t21.5 51t10.5 52v4q0 23 -10.5 43t-38.5 29v-1q-5 1 -10 1.5t-10 0.5z M306 843q18 18 38 36.5t37.5 39.5t31.5 45.5t20 53.5q0 35 -18.5 57t-47.5 22q-30 0 -47 -14t-29 -33.5t-23 -41t-28 -36.5q-10 -9 -24.5 -16.5t-28.5 -15.5h1l-30 -16t-26 -19t-18 -26.5t-7 -37.5v-4q0 -34 19 -46.5t44 -12.5q35 0 69.5 18t66.5 46v1z" horiz-adv-x="522" unicode="ý" glyph-name="yacute"/>
<glyph d="M588 392q14 29 22.5 58.5t9.5 58.5v7q0 39 -13 68.5t-34 50.5t-47.5 35t-53.5 22q-3 0 -4 1h1q-14 3 -29 3q-22 0 -44 -6.5t-44 -14.5q2 5 3 11t1 14v11q-2 14 -6 28.5t-11 26t-17.5 19t-25.5 7.5q-17 0 -33 -4.5t-32 -11t-31.5 -13t-31.5 -9.5q-20 -5 -40.5 -19.5 t-37.5 -35t-28.5 -45t-13.5 -48.5q0 -16 5.5 -26t14.5 -16t19.5 -9.5t19.5 -5.5q3 -23 3 -48q0 -51 -6 -102t-8 -102q0 -19 1.5 -38.5t1.5 -38.5q-2 -16 -14 -24.5t-25 -16.5h1q-10 -5 -20 -10.5t-17.5 -13.5t-12 -19.5t-4.5 -27.5v-2q1 -17 6.5 -34.5t19.5 -37.5h-1 q2 -3 7 -8.5t10 -10.5v8q6 -2 10 -2h6q15 0 30.5 5t35.5 5q18 -2 36.5 -5.5t40.5 -3.5h8q21 1 41 10t36.5 24t28 35t14.5 45v7q0 13 -4 22t-10 16q36 7 73.5 24t72.5 43.5t66 62.5t54 81zM348 373h-4q-15 -6 -33.5 -13t-31.5 -7q-5 0 -6 9t-1 17q0 25 7 51t32 40l5 1 q13 2 28 7v-1q10 3 19.5 5.5t16.5 2.5q10 0 17 -5.5t7 -16.5v-3q0 -1 -0.5 -1.5t-0.5 -2.5v-2q0 -13 -4 -26.5t-11.5 -25.5t-17.5 -20t-22 -9z" horiz-adv-x="627" unicode="þ" glyph-name="thorn"/>
<glyph d="M446 854q-32 0 -58 -21t-47 -51.5t-36.5 -64.5t-25.5 -60q-14 -38 -31 -71t-46 -56q-6 1 -11.5 12.5t-12 28t-14.5 36t-19.5 36t-26 27.5t-33.5 11h-4q-12 -6 -25 -19.5t-23.5 -30t-17.5 -34.5t-8 -34v-9q0 -20 6.5 -35.5t15.5 -28.5q14 -19 29.5 -41.5t28 -48t21 -54 t8.5 -59.5q0 -43 -6.5 -86t-6.5 -87q0 -20 3.5 -39t11.5 -34t21.5 -24t33.5 -9h9q23 0 41 14t30.5 35t19 46.5t6.5 48.5q0 40 -5.5 77t-5.5 75v3q10 62 44.5 117t76.5 111l33 45q16 22 32 45.5t29 48.5t21.5 51t10.5 52v4q0 23 -10.5 43t-38.5 29v-1q-5 1 -10 1.5t-10 0.5z M445 963l2 27q0 5 0.5 9t0.5 9q0 16 -2 32.5t-8 29t-17.5 20.5t-30.5 8q-8 0 -16 -1.5t-16 -6.5h1q-30 -12 -56 -37t-45.5 -55.5t-30.5 -63.5t-11 -62t16.5 -50t43.5 -21q22 0 48 15t50.5 38.5t43.5 52t27 56.5zM203 875l1 7v-1q2 9 2 18v20v5q0 12 -0.5 25t-4.5 23.5 t-11.5 17.5t-22.5 7q-25 0 -49.5 -18.5t-44 -46t-32 -60t-12.5 -60.5q0 -29 15.5 -47.5t38.5 -18.5q16 0 35 11t36.5 29t30.5 41t18 47v1z" horiz-adv-x="522" unicode="ÿ" glyph-name="ydieresis"/>
</font>
</defs>
</svg>
