<?xml version="1.0" encoding="UTF-8" standalone="no"?>
<!DOCTYPE svg  PUBLIC '-//W3C//DTD SVG 1.1//EN'  'http://www.w3.org/Graphics/SVG/1.1/DTD/svg11.dtd'>
<svg version="1.1" xmlns="http://www.w3.org/2000/svg">
<defs>
<font id="KomikaKrak" horiz-adv-x="589">
<font-face units-per-em="1000" panose-1="2 0 0 0 0 0 0 0 0 0" font-weight="400" x-height="789" bbox="-36 -156 1300 1199" cap-height="807" font-family="Komika Krak" ascent="800" underline-position="-143" unicode-range="U+0008-2122" descent="-200" underline-thickness="20"/>
<missing-glyph horiz-adv-x="500"/>
<glyph horiz-adv-x="500" glyph-name=".notdef"/>
<glyph horiz-adv-x="0" glyph-name=".null"/>
<glyph horiz-adv-x="500" glyph-name="nonmarkingreturn"/>
<glyph horiz-adv-x="297" unicode=" " glyph-name="space"/>
<glyph horiz-adv-x="297" unicode=" " glyph-name="space"/>
<glyph d="M351 821h-1q4 3 13 5q-14 1 -28.5 4.5t-24.5 9.5h1q-10 4 -22 14q-12 9 -17 20l1 -1q-4 5 -7 15l98 26q1 -10 3 -13q5 3 12 13zM261 901q-3 15 -3 42t14 62l124 47l-9 -58q-11 -17 -15 -33q-7 -17 -8 -33zM279 1019q10 19 25.5 37t33.5 30q10 6 26.5 10t33.5 4l-5 -38z M389 867l41 -32q-14 -6 -31 -9zM417 1006l90 -18q-1 -20 -4 -39.5t-10 -37.5q-17 -41 -46 -66h-1l-49 38zM436 1094l16 -6t15 -7q15 -10 23.5 -21t13.5 -27q1 -6 2 -14t1 -16l-84 17z" glyph-name="ring"/>
<glyph horiz-adv-x="669" d="M325 850l-17 8l-4 4q-14 11 -21 22l30 54zM277 900q-15 43 -39 93l59 43l11 -81zM232 1006l-18 37l1 -2q-2 2 -4 8q-1 3 -1 20q0 15 33 18q1 0 13 1.5t31 1.5l5 -40zM317 1048l33 -4q0 -2 4 -11q4 -8 9 -19t9 -18q3 3 16 21q3 3 7 8t9 12l132 -18q-1 -3 -6 -13v1 q-13 -19 -26 -37t-27 -35q-20 -25 -37 -45t-32 -35q-1 -1 -1 -2l-59 -12l-3 1zM414 1050q2 2 4.5 5.5t5.5 8.5q1 1 3.5 4.5t7.5 8.5q6 13 24 17q14 0 22 -4l-6 1l4 -2t9 -3l5 -5q5 -3 14.5 -9.5t14.5 -11.5q12 -9 15 -26zM317 1082q7 -5 12.5 -9.5t11.5 -11.5v-1l-22 3z" glyph-name="caron"/>
<glyph horiz-adv-x="637" unicode="" d="M447 392l-6 -59l-80 69zM577 221l11 2l3 -15zM598 224q4 1 10 1q47 -29 51 -70l-56 48zM440 326l-5 -56l-33 -43l-44 169zM433 251l-4 -38v-4q0 -6 1 -6q16 6 35 6t26.5 0.5t11.5 0.5q8 2 13 2h9l-94 -86l-24 92zM614 169l-102 -108q-5 -1 -19.5 -3t-39.5 -6l-17 66 l107 97q4 1 7 1.5t7 1.5zM656 130q-2 -10 -7 -22.5t-13 -26.5q-4 0 -8.5 -0.5t-10.5 -1.5h1q-28 -6 -46.5 -9t-45.5 -7l93 99zM378 292l-84 -51l58 155zM404 178l-144 -38l33 91l84 50zM428 72l-126 -44q-22 -3 -43 -6.5t-35 -6.5l1 1q1 0 -9 -2l43 115l144 38zM429 49 q-11 -2 -22 -3.5t-24 -3.5l44 15zM307 291l-19 40l7 59l53 10zM275 221l3 22q0 9 1 16t2 13v-1l5 41l13 -27zM261 182l-1 -1q0 1 1 2v-1zM258 176l-2 3l4 2zM190 9q-4 0 -7 -1l-80 138q10 2 16 3.5t16 2.5l-1 -1q2 1 7.5 2t15.5 3l19.5 4.5l6.5 1.5q16 3 24.5 4.5t14 2 t9.5 1.5t11 3l7 -6zM170 6q-22 -3 -39 -3t-44 6h2q-1 1 -6 1q-20 4 -30.5 19.5t-10.5 27.5v17q1 3 1 26q0 21 36 38q2 1 5 2t7 3zM296 396l5 38v-1v4l46 -31zM301 441q2 11 3 20.5t2 19.5l10 1l32 -72zM251 619q-11 -1 -25 -3.5t-22 -3.5t-11 -1t-9 -2l53 42zM307 491v4 l1 -3zM162 608q-55 2 -77 27l115 91l29 -66zM79 644q-10 14 -10 45q0 30 27 48.5t84 27.5l13 -30zM308 512l1 1l73 19l-30 -119zM232 690l171 -53l-23 -94l-71 -19q3 39 3 102q-21 -2 -31 -2t-15 -2h2h-5zM202 769q2 1 9 2.5t13 1.5l212 10l-34 -134l-171 54zM371 792 q7 0 13 0.5t12 1.5q4 1 14 2t26 2l-1 -4zM389 542l46 -27l-78 -101zM422 666l49 -32q-4 -13 -6.5 -33t-3.5 -48l-22 -28l-45 27zM440 732l112 -58l-18 -24q-16 -2 -29 -4t-27 -4l-52 32zM460 800q3 0 7.5 0.5t10.5 0.5q14 1 35 3t43 3l69 -6q1 -2 4 -5.5t7 -7.5l-78 -102 l-112 57zM409 472l43 -40l-4 -35l-89 10zM461 529v-6q0 -8 -1 -11l-7 -67l-33 31zM596 696l13 -33q-16 -5 -29 -5q-12 0 -15 -1zM653 761q11 -20 11 -50q0 -31 -45 -46l-14 34z" glyph-name="dotlessi"/>
<glyph horiz-adv-x="669" d="M474 552l11 -40q-2 -3 -3.5 -5t-5.5 -6q-5 -5 -9.5 -10.5t-9.5 -10.5l-82 77zM515 545l-22 -24l-8 26zM452 476q-3 -3 -5 -5.5l-6 -7.5q-9 -11 -17.5 -21t-16.5 -20l-34 128zM459 250l149 18h6q36 0 56 -23l-183 -103zM680 229q11 -25 11 -62q0 -38 -24 -53 q-17 -9 -52 -12h-5q-1 0 -5.5 -0.5l-13.5 -1.5t-26 -2q-18 -1 -26.5 -1.5t-13.5 -0.5t-9 -0.5t-11 -1.5l-8 31zM401 415l-6 -9t-11 -15q-10 -14 -17 -23l-62 -10l61 190zM450 215l-188 -2l42 131l52 8q-7 -11 -13.5 -21.5t-11.5 -21.5q-2 -3 -5.5 -8.5t-5.5 -7.5 q-4 -5 -9.5 -14.5t-12.5 -16.5q-19 -25 -20 -35l163 21zM478 92h-8q-4 0 -9 -1q-43 -4 -75.5 -7.5t-64.5 -10.5l1 1q-14 -4 -30 -8t-35 -9h1l-16 -4l-16 -4q-4 -1 -7 -2t-7 -2l49 151l189 2zM295 354l-53 110q13 17 25 34t25 33l67 21zM242 209l-91 113l53 86q2 2 11 17 q4 5 8.5 11.5t10.5 15.5l52 -107zM193 79l-99 152q2 4 3 5q15 21 39 62l8 13l89 -110zM174 35l-30 -7q-35 0 -67 26q-34 27 -34 61t44 105l98 -150zM301 543q6 6 9 10q2 2 4 4.5t4 6.5l36 -4zM339 674q-12 0 -16 -1l12 16zM324 570q2 3 5.5 7.5t8.5 10.5q4 5 8 9l8 8l8 -39z M309 670q-20 -4 -48.5 -11.5t-65.5 -20.5h1q-8 -4 -15.5 -6.5t-14.5 -4.5q-20 -6 -34 -6t-28 9l197 192l27 -126zM269 923q-7 17 -16 37.5t-18 39.5l15 12zM91 640q-18 19 -18 70q0 50 48 76q17 8 38 14t47 9q2 1 12 2t16 2q4 1 14 2t26 3zM229 1013l-15 30l1 -2q-2 2 -4 8 q-1 5 -1 17t16 18l13 -62zM360 612l16 16q19 19 21 23l-29 -76zM329 760l110 -1l-30 -77q-1 -1 -13 -1q-11 0 -39 -5l-10 -1zM319 825l15 1l129 5l-23 -59l-110 1zM307 879l128 6l-27 -30q-10 -16 -26 -19.5t-29 3.5q-15 5 -23 8.5t-18 8.5zM292 963l203 -4q-8 -10 -14 -18 t-11 -14q-7 -8 -13 -16t-13 -16l-136 -6zM271 1090h4h9q6 0 9 -1h-2q27 -1 50 -28q5 -8 9.5 -18t9.5 -22q3 -6 6.5 -13.5t5.5 -11.5q11 14 20 24.5t14 18.5q4 5 11 14.5t18 23.5q6 13 24 17q14 0 22 -4l-6 1l4 -2t9 -3l5 -5q5 -3 14.5 -9.5t14.5 -11.5q11 -8 14 -23l-17 -45 l-13 -18l-212 5zM420 693l42 -34l-90 -90l36 93q7 8 11 13.5t5 7.5q-1 -1 -8 -1zM477 832l21 1l90 -45l-118 -118l-43 35zM538 833q23 0 37 -1.5t26 -6.5q6 -1 14 -5l-17 -17zM518 703l43 -104l-33 -39l-149 6zM574 753l40 -89q-9 -12 -17 -22.5t-12 -15.5l-17 -19l-41 100z M636 806q23 -21 23 -48q0 -26 -28 -71v1q-1 -1 -2 -2.5l-3 -4.5l-2 -4l-37 81z" glyph-name="Zcaron"/>
<glyph horiz-adv-x="669" d="M484 563l23 -26q-5 -6 -10 -11.5t-10 -11.5l-110 45zM529 562l-16 -19l-15 18zM482 508l-6 -7q-9 -10 -18 -19t-17 -19q-4 -5 -9 -11t-11 -13q-4 -4 -8.5 -9.5t-10.5 -13.5l-23 -19l-7 157zM392 242l44 5l-42 -54zM453 249l155 19h3l-208 -103l-1 19zM636 266 q55 -13 55 -76q0 -61 -24 -76q-17 -9 -52 -12h-5q-1 0 -5.5 -0.5l-13.5 -1.5t-26 -2q-12 -1 -22 -1q-9 0 -16 -1q-14 -1 -34 -3t-32 -2q-11 -1 -22.5 -2t-22.5 -2l-3 68zM371 406l-79 -31l72 174zM371 373q-23 -33 -40 -64q-2 -3 -5.5 -8.5t-5.5 -7.5l-7 -11l-56 2l34 79 l78 32zM379 126l-214 -74l89 216l48 -1q-2 -2 -2.5 -3t-1.5 -2q-19 -25 -20 -35l95 12zM376 83q-16 -2 -29.5 -4.5t-25.5 -5.5l1 1q-14 -4 -30 -8t-35 -9h1l-16 -4l-16 -4l-51 -13l200 70zM330 479l-39 50q4 5 7.5 10t7.5 10l56 9zM233 255l-49 121q1 3 9 16q5 9 11 16 q22 31 39 57q11 15 20.5 28.5t19.5 26.5l38 -49zM195 191l-84 66q2 4 5 8.5t7 11.5q3 5 6 10.5t7 10.5q2 3 5 8t8 13q7 12 24 39l45 -112zM120 31q-21 6 -43 23q-34 27 -34 62q0 36 54 120q1 3 6 9l79 -63zM310 553l10 13l39 -5zM300 669l-8 -2l7 4zM324 570q1 1 9 12 q3 3 5.5 6t4.5 5l14 -27zM254 657q-7 -2 -13.5 -4.5t-14.5 -4.5q-4 -1 -12 -3.5t-19 -6.5h1q-8 -4 -15.5 -6.5t-14.5 -4.5q-20 -6 -48 -6t-40 45l107 140q8 2 16 3t13 2l75 -133zM74 685v7v11t-1 25q0 32 48 58q16 9 42 15zM348 598q2 2 3.5 4t2.5 3l5 6l6 -44zM325 850 l-17 8l-4 4q-14 11 -21 22l30 54zM238 802l7 13q10 1 19 2l27 3q3 1 6.5 2t14.5 1h1h-1l9 1.5t7 1.5l19 -144l-7 -8q-13 0 -29 -3zM277 900q-15 43 -39 93l59 43l11 -81zM232 1006l-18 37l1 -2q-2 2 -4 8q-1 3 -1 20q0 15 33 18q1 0 13 1.5t31 1.5l5 -40zM353 696l114 14 l-97 -139l-6 45q59 60 60 67q-2 -2 -21 -2q-18 0 -46 -5h-2zM341 824l14 3l162 6h17h13l-76 -110l-114 -15zM317 1048l33 -4q0 -2 4 -11q4 -8 9 -19t9 -18q3 3 16 21q3 3 7 8t9 12l132 -18q-1 -3 -6 -13v1q-13 -19 -26 -37t-27 -35q-20 -25 -37 -45t-32 -35q-1 -1 -1 -2 l-59 -12l-3 1zM414 1050q2 2 4.5 5.5t5.5 8.5q1 1 3.5 4.5t7.5 8.5q6 13 24 17q14 0 22 -4l-6 1l4 -2t9 -3l5 -5q5 -3 14.5 -9.5t14.5 -11.5q12 -9 15 -26zM317 1082q7 -5 12.5 -9.5t11.5 -11.5v-1l-22 3zM448 672l28 -103l-103 -4zM543 802l60 -153q-5 -5 -9 -11t-9 -12 q-2 -2 -4.5 -5t-4.5 -5l-6 -7.5t-4 -4.5l-24 -27l-57 -2l-27 103zM574 832q19 -3 27 -7q58 -19 58 -57q0 -37 -28 -81v1q-2 -2 -3.5 -4.5t-3.5 -6.5q-1 -1 -2.5 -3t-5.5 -7l-56 144z" glyph-name="zcaron"/>
<glyph horiz-adv-x="350" unicode="!" d="M266 407q-1 -2 -2.5 -7.5t-3.5 -15.5q-1 -5 -2 -8.5t-2 -5.5l-43 35zM255 365q-2 -11 -5 -21.5t-6 -21.5h-19l-15 80zM241 313q-2 -6 -2 -9q-3 -4 -5 -13l-5 22h12zM229 275q-2 -3 -4 -7.5t-3 -6.5l-60 18l44 119zM150 189h3q42 0 61 -22zM217 252q-7 -13 -19 -22h2 q-14 -10 -30 -10q-15 0 -25 4l17 46zM222 154q10 -19 10 -37t-2 -26l-139 -21l42 116zM228 80q-7 -27 -33 -47q-11 -8 -25 -15t-30 -9.5t-32 1t-30 15.5l12 34zM156 277l-23 96l3 13l66 17zM135 228q-7 4 -10 9l-11 16q-5 13 -5 22q0 11 21 86l21 -89zM68 62l-24 27v5 q0 47 39 74q7 5 14 8.5t15 6.5zM57 49q-2 5 -4 9l-4 8l10 -12zM145 394l-3 12l6 25l54 -22zM148 434l10 39l42 -59zM160 479l10 42l44 -12l-10 -93zM172 528l6 22q5 14 7 22t3 10q4 13 12 42l25 8l-13 -115zM203 635q2 7 4 15.5t4 13.5q2 8 5 15.5t5 15.5l3 10h5l-6 -63z M227 716q0 2 1 3v-3h-1zM217 486l44 24l-53 -95zM237 648l81 -30l-53 -97l-45 -25zM253 777q2 4 2 5l91 -107l-25 -45l-81 30zM261 789q17 19 41 19t47 -24q20 -24 20 -40t-3 -29l-16 -30zM269 514l19 -28q-4 -9 -4 -12q-2 -8 -4.5 -17t-4.5 -17v1q-2 -7 -3.5 -14.5 t-3.5 -12.5l-55 -2zM322 600l5 -6q-13 -34 -21.5 -58.5t-13.5 -38.5l-15 21zM334 614l-2 -6l-2 -5l-1 1z" glyph-name="exclam"/>
<glyph horiz-adv-x="310" unicode='&quot;' d="M200 625q0 -3 -1 -5l-4 5h5zM244 620l-20 -36l-24 34l3 6zM298 613l-37 -76l-33 46l20 35zM328 608q-2 -10 -3 -11q-6 -37 -31 -72q-3 -4 -5 -6.5l-6 -7.5l-17 24l36 76zM235 565l-53 14l11 44l5 -7q-1 -2 -1 -4t-1 -5q1 1 3 8zM246 546l-75 -28q-1 3 -1 7l13 50l52 -14z M275 502q-25 -25 -50 -25q-24 0 -42 18q-6 5 -11 18l75 28zM173 551l-2 41l19 31zM168 536q-2 -3 -4 -7l-11 -14l-17 18l33 54l2 -41zM149 510q-22 -24 -43 -28l28 46zM158 573v44l31 8zM143 551l-35 52l47 12v-44zM111 503l-58 85l52 13l34 -52zM95 481h-1q-23 0 -41 18 l-1 1l-7 11q-12 43 4 73l57 -84zM150 618l-30 32l68 -23zM81 602l13 55l21 -7l31 -32zM57 597l2 3q2 2 2 3q1 3 4 6l3 6t4 10q2 4 3.5 9t3.5 10q2 4 4 15l6 -2l-12 -55zM146 643l11 30l32 -44zM102 659l22 58l30 -41l-11 -30zM83 667q4 21 9 42.5t9 35.5l18 -25l-21 -58z M214 666v1h1zM155 680l53 -12l-1 -6l-3 -12l-13 -20zM215 672q3 15 6 27q2 10 4 19t4 17l28 3zM125 727l85 7q2 -13 3 -20t1 -13q0 -5 -1.5 -11t-3.5 -17l-54 12zM230 739l1 2q4 12 23 21l17 2l-14 -22zM113 747l87 9q2 -2 5 -8t4 -10l-84 -7zM268 768l3 1v-1h-3zM109 756 q7 7 17 10h-1q22 10 40 10t32 -16l-84 -9zM203 643v-5l-1 -3l-7 -5zM232 688l21 -20l-45 -29q0 1 1 2t3 11v5zM247 710l14 -36l-5 -3l-21 20zM274 752l39 -43l-49 -32l-14 35zM288 771q42 -1 53 -42l-23 -15l-39 43zM202 632l-2 -6l-6 1zM216 642l20 -19l-32 3l3 9zM276 679 l38 -62l-73 7l-20 19zM340 718l-3 -58v-2q-2 -7 -4 -24q-2 -7 -3 -16l-10 1l-38 62zM344 704v-4q0 -7 -1 -10z" glyph-name="quotedbl"/>
<glyph horiz-adv-x="572" unicode="#" d="M284 477l1 2h-1v-2zM418 370l-16 -91l-42 40q4 0 7 1q6 13 6 24t-1 15zM518 389l-7 -16q-20 -2 -33 -6l-2 -6l1 1q-3 -13 -3 -23t18 -10l-41 -92l-43 41l17 90zM501 329h47q10 0 19 -7.5t14 -18.5l-52 -90l-8 -3h-23q-9 0 -10 -1l-28 27zM585 400q-7 -9 -14 -15t-15 -7 q-3 0 -6 -1q-8 -1 -15 -1.5t-14 -0.5l6 12zM584 292q0 -2 1 -5.5t-0.5 -9.5t-6 -15.5t-15.5 -23.5q-6 -6 -10 -9t-6 -5t-4 -3zM418 259l-45 23l-27 37h9zM437 240l13 -63l-72 99l45 -23zM487 190v-17q0 -15 1 -46l-31 42l-14 64zM398 242l-101 7l19 70h26zM444 173l-63 -1v9 q0 1 0.5 5.5t0.5 11.5q0 8 -32 8q-16 0 -31.5 -1t-30.5 -3l10 40l102 -8zM485 111q-5 -14 -18 -26l-57 3q-10 8 -11.5 11t-2.5 7l-3 9q-2 6 -4 11t-3 9l1 -2q-2 8 -4 17t-2 15h65zM455 76q-7 -4 -13 -4q-5 0 -16 6zM294 258l-43 13l43 47h6t11 1zM268 171l-76 32l56 61 l42 -13l-14 -51q-2 -1 -4 -1t-3 -1h1q1 0 1 -5v-8zM244 91q-13 -5 -23.5 -1.5t-26.5 17.5q-6 6 -11 16t-8 20q-1 3 -2.5 13t-3.5 18l19 21l76 -32zM254 279l4 69l25 1v-30q0 -3 6 -1zM170 191l-62 128h8q9 0 16 -1t24 -3h16v4q0 3 1 8q-1 9 0 16l77 1l-4 -69zM152 203 q-9 1 -17.5 1.5t-24.5 2.5q-22 2 -36 20q-12 16 -15 28.5t-1 22.5t7.5 17t10.5 12q5 3 10 5.5t11 3.5zM254 352l23 32l25 -19q-6 -1 -11 -3l-10 -4q2 -2 2 -6h-29zM173 354v0q0 1 1 2q-2 0 -3 1q-2 0 -6.5 -0.5t-11.5 -1.5q-8 -2 -16 -2.5t-29 6.5l46 112h6l108 -84l-23 -32 zM98 362q-13 6 -24 13t-14 14v-1l-4 6l43 82h13q4 -1 7 -1q4 0 8 -1q3 0 7 -0.5t9 -1.5zM51 402q-7 13 -7 44q0 30 45 30zM211 439l110 -32l-2 -40l-13 -2zM204 448l80 38v-2h41l-5 -71l-111 31zM180 473q2 1 3.5 2t3.5 2h-1v12t1 17t2.5 30t3.5 50v2l77 28q8 -10 13 -30 v-25t1 -64l-83 -40zM195 600q7 31 32 31q23 0 34 -6zM333 474l85 -20l-85 -87h-7zM337 484h19q19 0 22 3q2 9 3.5 21t2.5 24t2 22.5t3 16.5l95 -38v-8l-62 -63l-85 20v2zM391 580q2 7 4 11.5t4 8.5q13 16 50 16q38 0 38 -31q0 -30 -1 -35.5t-1 -7.5zM393 420l57 -38l-82 -18 q-11 3 -27 3zM481 508v-12h6l44 -94l-73 -16l-58 39zM496 496h52q11 0 22 -8l30 -50v-7q0 -4 -3 -12l-59 -12z" glyph-name="numbersign"/>
<glyph horiz-adv-x="451" unicode="$" d="M383 455l-18 -56l-95 21zM443 471q3 -5 7.5 -11.5t10.5 -16.5v1q17 -28 19 -68l-105 23l18 57zM336 332q5 4 10 8.5t10 11.5l-6 -38zM364 394l-3 -14q-9 9 -40 17l3 -1q-10 1 -25 3.5l-21 3.5l-10 12zM480 365q-2 -6 -2.5 -10t-1.5 -7q0 -34 -18 -65l-35 -42 q-2 -2 -3 -2.5t-2 -1.5l-59 72l14 80zM271 404l-9 1h-2l2 9zM380 264l-173 -51l29 99l3 1q8 -1 16 -1h17q15 0 54 14q1 1 2 1zM404 225q-18 -15 -34 -24q-3 0 -52 -18q-21 -10 -27 -10l-2 1v-77l-111 -9v1v1l32 111l173 50zM289 87q-2 -18 -15 -36q-5 -7 -10 -12t-10 -9 l-26 -5q-8 2 -15.5 7.5t-15.5 16.5q-14 17 -17 30zM256 406q-5 0 -7 1l9 7zM181 160l-5 8l-1 5q-1 1 -1.5 2t-3.5 4l-63 111l57 44q6 -3 20 -8t37 -10l4 -5zM152 189l-8 4v-1q-13 5 -22.5 9t-15.5 7q-8 5 -14.5 8.5t-10.5 7.5q-7 5 -12.5 10.5t-9.5 11.5l43 33zM243 407 l-21 3l32 6zM97 294l-31 49q21 23 38 23q18 0 33 -13l5 -5t7 -5l2 -6zM50 260q-7 16 -7 36t17 40l29 -45zM209 412l-9 1q-3 1 -7 1l4 53l60 -47zM184 416q-68 11 -91 38q-4 4 -7.5 8t-6.5 10l29 58l80 -61zM71 485q-6 14 -8 31.5t4 37.5l28 -21zM153 507l110 27l-5 -108z M95 558l171 139l-5 -118q-4 0 -7 -0.5t-9 -2.5q-6 0 -13.5 -5t-15.5 -12q-14 -14 -14 -18q7 -1 16 -2t18 -1l-86 -22zM78 576q17 29 53 61q8 5 19 13q4 2 10 7t15 12q3 4 5.5 13t2.5 22v2l78 13v-13l-171 -139zM183 714q-1 3 -1 44q0 9 3 18q3 15 19 26q17 12 30 12 q14 0 27 -6l-4 -80zM266 502l25 32h1l-29 -108zM269 535q3 -1 16 -1l-17 -21zM273 654l48 -9l-16 -59q-5 -1 -16.5 -2.5t-17.5 -2.5zM278 721l16 7v-5q-1 -3 -1 -18h35q4 0 8 2l-13 -51l-48 9zM282 791q9 -12 11 -23q2 -6 2 -28q0 -2 -1 -3l-15 -6zM295 531l51 -82l-80 -25z M301 534q7 0 12 -1q65 -14 104 -39l10 -15l-76 -24zM327 638l30 -49h-9q-5 0 -14 -0.5t-21 -2.5zM353 708h22l49 -36q8 -18 -6 -46q-10 -26 -23 -32h1q-4 -1 -12 -2.5t-14 -2.5l-35 56z" glyph-name="dollar"/>
<glyph horiz-adv-x="673" unicode="%" d="M253 614q0 3 -1 4zM504 159q-12 -14 -12 -23q1 1 7 1q7 0 9 1q12 1 24 8q14 6 19 17v2l1 1v1q0 2 -3 4.5t-6 4.5h-2q-10 0 -20.5 -4t-16.5 -13zM480 288l11 4v-13zM443 357q-1 -1 -5 -7q-1 -2 -4.5 -6.5t-7.5 -10.5h-1l-46 36zM500 295q9 4 16 5h-2q20 7 47.5 9.5 t47.5 -3.5l-30 -95l-79 64v20zM619 303q21 -7 39 -25q22 -25 28 -54l-20 -78l-77 61zM422 329q-4 -6 -8.5 -12.5t-9.5 -13.5q-4 -5 -6 -8.5t-4 -5.5l-18 77zM603 178l-162 -79l-32 140q8 9 14 14l56 25zM620 161l-164 -115l-10 44l162 80zM665 119l-2 -3q-23 -38 -60 -66 q-41 -30 -83 -39h1q-19 -5 -36.5 -4l-17.5 1l-7 30l164 114zM388 290l-62 26l44 52zM386 277q-9 -14 -15 -24t-12 -24q-4 -7 -10 -18.5t-16 -28.5q-6 -11 -15 -26q-2 -4 -5.5 -10.5t-8.5 -15.5l-103 31l122 143l62 -25zM428 93l-67 20q-2 16 -0.5 34t13.5 38q5 11 10.5 21 t12.5 19zM298 119q-7 -13 -13 -25l-12 -24l-111 35l37 44zM439 18l-29 8q-8 6 -16.5 15.5t-13.5 19.5q-3 5 -8 17.5t-7 20.5l60 -18zM269 62q-2 -5 -5 -10.5t-5 -11.5q-26 -36 -45 -36q-18 0 -30 6v-2q-13 7 -22.5 11.5t-15.5 7.5q-17 11 -26 23l39 47zM256 244l-6 67l21 33 q8 12 13.5 20t7.5 12l71 -7zM234 224l-19 31q7 11 14 22.5t15 22.5l5 -59zM154 136l-6 16q20 33 34 52q5 8 8.5 13.5t5.5 9.5q4 6 7.5 11t6.5 10l17 -26zM116 101q1 4 3 6l10 16l10 16l3 -8zM270 463q-8 -4 -14.5 -6.5t-12.5 -4.5l6 30zM296 384q5 9 10.5 17.5t10.5 16.5 l45 -41zM231 448l-2 -1h1q-19 -8 -47 -11t-54 5l23 127l87 -81zM119 445q-11 5 -19 10.5t-16 14.5q-15 15 -22 34.5t-7 33.5t0.5 21t1.5 12l34 48l50 -47zM67 604q2 5 5.5 12l4.5 9l3 -2zM293 475l-2 -1l-5 11zM320 422l6 10l40 -54zM224 512l-7 62l62 -82l10 -20l-15 -7z M129 601l31 46l41 -54q-7 -7 -8 -13q-1 -1 -1 -2l1 1q0 -3 3 -7q3 0 6 -1q5 0 8 1l6 -51zM87 641q9 12 20 24t22 22l23 -31l-30 -47zM329 437q8 15 26 43q7 11 13.5 23t13.5 24l7 14l10 2l-30 -160zM271 512l81 20q-24 -35 -55 -54zM396 553l2 3l-1 -3h-1zM227 578l3 2 l150 61q2 -11 3 -30.5t-13 -48.5q-2 -3 -4 -7t-6 -11l-90 -23zM172 657l155 68q22 -14 36 -39q4 -8 7.5 -17t6.5 -19l-131 -53q4 4 6 12h-21q-8 -2 -18 -6zM145 700q37 27 78 35v-1q13 2 35 5t57 -9l-145 -63zM398 496l83 -82l-105 -36zM423 596l13 22l116 -95 q-4 -6 -8 -11.5t-9 -15.5q-7 -11 -12.5 -19.5t-10.5 -15.5q-5 -8 -11 -17t-12 -19q-1 -1 -1 -2l-1 -1l-82 81zM442 627q12 22 20.5 41.5t12.5 36.5q5 12 11 18l113 -124q-8 -14 -18 -31t-23 -36zM493 729q8 6 21.5 9t28.5 3q4 0 12.5 -1t14.5 -2l63 -47v-1q0 -12 -5 -27 q-4 -13 -11 -28.5t-13 -27.5zM596 731q26 -6 34 -25zM467 403l4 -6q-7 -11 -11 -16t-5 -6q-3 -5 -5 -8.5t-4 -5.5l-67 12z" glyph-name="percent"/>
<glyph horiz-adv-x="721" unicode="&amp;" d="M573 423l-60 -97l-67 57l13 36v-1v2zM681 423l-41 -53q-34 -2 -41 -6q-3 -2 -4.5 -6.5t-1.5 -6.5l1 1q-1 -2 -3 -8l-3 -8v2q-4 -14 -9 -28l-10 -28l-47 41l61 98zM745 421q-13 -49 -89 -50l37 48zM475 350l-48 -20q8 21 8 20q1 1 9 26zM564 268q-2 -6 -3 -8q-2 -7 -3 -8 l-128 -50l-14 105l6 8l-2 -2l1 4l58 24zM545 229q-8 -14 -20 -31t-28 -37q-30 -39 -47 -56l-1 -1l-11 83zM422 180l-72 35q22 27 57 78zM432 90q-37 -30 -89 -46l-55 19l44 137l9 7l81 -40zM312 36q-8 -1 -17.5 -2.5t-12.5 -2.5l4 14zM270 377q-8 -8 -22.5 -24t-25.5 -28 l-20 33zM312 182l-3 4l5 3zM278 97l-229 196q2 5 3 9t2 9l138 40l22 -36q-5 -7 -11 -16.5t-10 -17.5q-21 -43 -21 -67q0 -23 13 -35q14 -11 46 -11t67 14l5 -7zM248 28h-10h-51q-44 0 -96 60q-49 53 -49 101v39t1 22t1.5 13.5t1.5 11.5l220 -189zM252 382l62 38h5 q-9 -6 -20 -14.5t-18 -14.5l-1 -1zM187 365l-83 41q3 3 9 11l190 2l-63 -38zM62 332q5 15 12.5 29.5t16.5 28.5q3 4 9 10l74 -36zM223 425l135 106l22 -77v-1l-13 -6q-17 -8 -25 -13q-5 0 -5 -3l-9 -5zM121 430q2 3 5 5q20 28 20 32t-3 9q-2 5 -3.5 9.5t-2.5 6.5l176 182 l5 -20q-2 -2 -4 -3.5t-3 -2.5q-58 -49 -58 -74q0 -24 4 -24q6 0 41 16h-1q5 2 10.5 5t12.5 6q4 2 8 3t9 3l13 -46l-135 -106zM134 503q-4 17 -6 37.5t-2 44.5l153 193l27 -98zM127 599q7 73 63 126q12 13 24 24q4 3 8 6.5t9 7.5q2 1 7 6q14 11 34 20l1 -5zM355 574l69 -59 l-14 -40l-8 -8q-2 -1 -8 -5q-3 -3 -7 -4zM468 647q-3 2 -5.5 4t-4.5 4q-1 1 -3 3.5t-6 6.5q-18 25 -36 29l83 30zM356 587q57 -1 66 -58l-66 57v1zM311 769l145 26q22 -10 50 -34l-9 -25l-161 -58zM306 801q43 15 55 15q11 0 28 -3.5t38 -8.5l-116 -21zM424 500q0 -4 -4 -11 zM479 644l47 -22q-6 -2 -16 -2t-33 19zM517 742l10 -3q32 -44 32 -67t-5.5 -32t-14.5 -14l-54 26zM460 428q1 5 2 9l2 8l9 35q13 28 45 34l-36 -85zM526 515h14q12 0 28 -3q5 -1 15.5 -2.5t12.5 -1.5l-1 -4q5 5 13 8l21 -76l-137 -4zM621 516l45 7h12t11 2q57 0 58 -82 l-104 -3z" glyph-name="ampersand"/>
<glyph horiz-adv-x="172" unicode="&apos;" d="M152 618l5 -34l-36 41zM182 609q-2 -3 -3 -10l1 1q-3 -16 -9 -31l-11 13l-6 34zM146 593l-30 -8l3 40zM170 565q-2 -3 -3 -6t-3 -8l-49 -2l2 34l31 7zM163 548l-11 -20l-1 -1l-38 -12l3 31zM147 522q-16 -25 -35 -35l2 24zM115 586l-11 21l14 18zM111 552l-47 4l38 48 l11 -21zM106 512l-63 1q-1 4 -1 6q0 3 -1 5l22 27l46 -3zM103 482q-8 -2 -22 -2q-13 0 -29 18q-4 4 -7 11l60 -1zM89 592l-21 32l2 5l45 -3zM75 577l-17 22q2 4 4.5 8t4.5 14l19 -29zM40 535v5q0 10 2 21t7 22q0 4 7 13l16 -21zM71 631q2 6 3 10l2 3l39 -16zM78 646l29 37 l9 -53zM77 649l1 6q1 8 3 18.5t3 21.5l18 13l3 -23zM85 700q1 6 3 14.5t5 20.5l2 1l4 -26zM114 662l39 14l-34 -46zM107 707l56 -15l-10 -13l-39 -14zM101 752q3 4 9 9l73 -37l-20 -28l-55 14zM115 764q1 1 2 1q16 9 40 9t35 -35l-8 -10zM140 656l5 -3l-25 -24zM170 697h18 l-41 -40l-5 3zM188 721l8 -13v-3l-5 -5h-19zM194 730q0 -1 1 -5t1 -10l-6 9zM148 655l14 -37l-41 10zM178 682l11 -29q-2 -11 -3 -20t-3 -19l-18 4l-13 38zM196 697q0 -6 -1 -13t-4 -23q-1 0 -1 -1l-8 23z" glyph-name="quotesingle"/>
<glyph horiz-adv-x="342" unicode="(" d="M76 188q-1 -6 -3 -7.5t-5 6t-6 25t-6 49.5q4 -24 8 -39.5t12 -33.5zM184 293q2 -20 7.5 -40t14.5 -38l-1 1l2 -4l-52 -39zM213 203q2 -4 7.5 -11t13.5 -18l18 -24l-1 1q6 -7 9 -12t7 -12l-127 -38l17 72zM272 118q9 -18 9 -53q0 -34 -42 -34t-65 20q-2 2 -5.5 5t-7.5 7 q-6 6 -10 10.5t-6 6.5zM192 407q-8 -47 -9 -84l-47 28zM162 244l-72 58l42 42l48 -28zM128 114l-17 8q-22 32 -35 66q3 11 5 41t2 62l1 1l73 -58zM148 369l-50 42l97 14q-1 -2 -1 -5q0 -2 -1 -5zM83 308v10t1 11h-36q0 14 2.5 32.5t7.5 40.5l32 5l50 -42zM109 417l6 63 l82 -45q-1 -3 -1 -6zM60 412q4 16 5.5 21t3.5 11v-1q2 7 3 13t3 13q1 5 3 11.5t4 15.5l24 -14l-5 -64zM142 472l57 77l7 -79l-8 -30zM84 509l5 16q1 3 3 13.5t4 15.5v-1l2 9l87 117l10 -123l-56 -77zM106 589q6 14 13.5 31t16.5 34.5t19 34t21 29.5l3 -31zM200 577l28 -40 l-1 -4l1 1q-2 -5 -5.5 -12t-6.5 -14l1 2q-6 -17 -9 -30zM192 685l67 -54l-16 -63q-6 -10 -12 -25l-30 43zM191 720l88 -7l-19 -73l-67 53zM191 736q8 8 11 10l-1 -1q4 1 7 9q5 7 6.5 8.5l6.5 6.5q5 7 12.5 13.5t15.5 14.5h-1l11 9q24 20 48 21l-27 -103l-88 7zM262 611l6 -5 q-2 -2 -5.5 -7t-5.5 -9zM294 722l57 -21q-1 -1 -1 -2l-1 -1l-11 -12l-24 -24h1q-11 -12 -21.5 -24t-19.5 -24l-6 6zM325 827q50 -6 50 -48t-17 -68l-58 21z" glyph-name="parenleft"/>
<glyph horiz-adv-x="339" unicode=")" d="M320 301q-1 1 -2 1t-2 1zM271 410l20 -98l-71 105l2 7zM344 386q-2 -5 -9 -39q-4 -17 -6.5 -28.5t-4.5 -16.5h-2v-1l-1 -1v-1q-2 -4 -3 -7t-4 -8l-15 23l-21 98zM259 354l-49 -33v55q2 10 4.5 18.5t4.5 16.5v-1v2zM310 273q-3 -5 -5 -10v2q-2 -5 -3.5 -9t-4.5 -9l-84 -9 v75l48 32zM292 236q-1 -5 -6 -14q-1 -2 -2 -5t-3 -8q-11 -21 -20.5 -35.5t-16.5 -22.5q-5 -12 -23 -28l-2 -1l-3 -1v107zM207 362v2v-2zM205 203l-62 29q13 14 22 27t16 27l-1 -2l24 66q0 2 1 3v-1v-149zM202 100v-1l-9 -7.5t-8 -7.5l-98 92q10 11 21.5 23t25.5 25l68 -34 v-90zM179 78l-6 -6q-8 -9 -14.5 -16t-10.5 -9q-11 -8 -22 -12l-67 18q-12 16 -12 37q0 22 9 41l5 9q4 7 9 14t12 15zM218 633l-1 3q-3 3 -3 8l-2 3l7 4zM208 657q-8 15 -24 34q-3 3 -9 11l-8 8l53 20l-6 -69zM160 720q-10 12 -15 26t-5 49t33 35q32 0 48 -8l-7 -82zM231 687 l26 -13l-22 -104q0 2 -2 11.5t-3 13.5q-2 7 -3 10t-2 8zM238 762l34 -10l-14 -66l-26 13zM242 808q8 -7 16.5 -15t17.5 -18l-3 -15l-34 10zM226 444q5 24 7.5 42.5t3.5 32.5l81 -22zM263 665l107 -80q-1 -21 -1.5 -30.5t-2.5 -25.5l-42 -24l-87 22q0 6 1 9l-1 3zM365 599 q0 6 5 13v-17zM276 714l71 -52l9 -24l4 -22q0 -4 1.5 -8t2.5 -9l-96 72zM291 758l17 -24q7 -11 16 -26.5t15 -28.5l-56 42zM295 478l32 -79l-104 31l2 8zM365 513l-4 -37q-2 -14 -4.5 -33.5t-5.5 -33.5q-1 -2 -2 -5.5t-2 -7.5l-12 4l-31 78z" glyph-name="parenright"/>
<glyph horiz-adv-x="452" unicode="*" d="M364 696l-61 -22l-35 28zM396 692l-22 -72l-66 52l61 22zM471 684q-14 -18 -39 -27q-19 -7 -37 -9l1 1q-2 0 -3 -1q3 -2 4.5 -3.5t4.5 -3.5q33 -24 33 -41q0 -8 -0.5 -14.5t-1.5 -11.5l-52 41l22 73zM327 651l-47 -15l-14 64zM411 579l-56 -37q-4 2 -7.5 4t-8.5 4h1 q-8 4 -14.5 6t-10.5 4q-2 -7 -4 -15.5t-3 -19.5l-23 104l46 15zM427 563l-44 -30v-1q-3 0 -8 2t-13 5l53 34zM417 548q-8 -8 -16 -11zM273 651l-49 -6l38 55zM300 525l-106 72l29 41l49 7zM302 499q-5 -15 -12 -22l-83 10q-27 27 -27 83l13 19l105 -72zM281 470 q-11 -6 -27 -6q-15 0 -26 6q-4 2 -6.5 4.5l-4.5 4.5zM217 639l-33 26l75 35zM182 592q0 13 -2 15t-7 2q-11 0 -24 -3l-23 30l54 25l32 -26zM139 605q-25 0 -45 13l26 12zM216 683l-44 27l86 -7zM96 629l-27 88l96 -8l43 -27zM83 625q-3 2 -8 7q-24 21 -28.5 45.5t1.5 38.5 l13 -1l27 -88zM158 715l45 70l54 -78zM133 719l48 93l18 -25l-45 -70zM57 728q14 18 38 22h20q-11 12 -21 30l1 -1q-10 13 -16 24t-10 21l56 62l50 -71l-48 -93zM67 834v6q0 21 14 36t35 16l1 -1zM209 781l47 -15l5 -58zM170 840l76 17l7 -85l-45 16zM145 881l5 6 q12 -4 23 -15q4 -6 7 -9q1 -1 1.5 -2t2.5 -3v13q0 25 14.5 45t38.5 26l7 -78l-76 -16zM141 890l1 -1zM257 796l74 -23l-66 -64zM250 899l66 -64q1 -10 2 -23t4 -19v-1q6 -2 20 -2q1 1 3 1l-12 -12l-74 23zM249 943q45 -2 58 -39q3 -8 5.5 -24t2.5 -35l-63 61zM301 736 l79 -39l-111 8zM361 791l5 0.5t10 0.5l31 3l-5 -95l-16 1l-78 38zM414 795q69 -2 69 -39q0 -34 -2 -44q-1 -4 -1.5 -7t-1.5 -7l-69 5z" glyph-name="asterisk"/>
<glyph horiz-adv-x="483" unicode="+" d="M357 539l1 -1zM357 539l1 -1l-1 1h17l-45 -37l-27 15l38 114l14 -9l-2 -28q-2 -17 -4 -30.5t9 -24.5zM331 451l28 -53l-76 57zM414 442l-20 -59h-12l-17 13l-29 53zM508 431q-4 -10 -11 -21q-23 -27 -93 -27l19 55zM324 420l-27 -44l-16 77zM369 383q-18 0 -30 -17 q-14 -17 -18 -41l-3 -12l1 1q-2 -8 -3 -13l-15 69l28 44zM295 372l-42 15l25 65zM312 285q-1 -2 -1.5 -5.5t-2.5 -8.5v1q0 -1 -99 -4l43 111l43 -15zM305 262l-7 -21t-7 -15l-89 18l6 16zM286 218q-13 -16 -44 -16q-30 0 -46 18l6 16zM246 378l-43 28l71 47zM210 293l-35 25 q0 7 1 17t1 15q-2 3 -0.5 8.5t2 10.5t-2 7.5t-11.5 1.5l33 22l43 -27zM185 235q-11 24 -11 74l31 -22zM179 395l40 87l54 -26zM145 377q-7 0 -18 -0.5t-33 4.5l-7 138l6 1q7 2 14.5 3t14.5 1l89 -43l-40 -86zM87 383q-23 11 -33 29l1 -1q-1 2 -2 3.5t-2 3.5l11 87q6 6 18 11 zM46 429q-2 8 -3 13q-1 7 -1 24t13 32zM181 505l44 21l48 -65zM145 525h19q44 0 46 8v10l10 -12l-44 -21zM250 500l55 42l-27 -81zM211 557q0 2 1 6.5t2 16.5t1 18q0 7 2 19l103 -17l-17 -52l-55 -41zM217 625q3 22 6 32q6 21 14 32l96 8q5 -6 10 -13l-25 -76zM244 697 q8 7 18.5 11t21.5 4.5t21.5 -2t17.5 -6.5zM297 510l28 -14l-44 -36zM352 661q2 -6 2 -13v-16l-9 7zM367 527l-34 -72l-50 4zM386 538q10 0 22.5 -0.5t23.5 -2.5l45 -91l-136 13l34 72zM444 534l12 -2t9 -1q50 -11 50 -43q0 -17 -0.5 -28t-1.5 -16l-26 3z" glyph-name="plus"/>
<glyph horiz-adv-x="170" unicode="," d="M146 72l-5 -17l-18 11zM173 78l8 -31q-1 -2 -3.5 -5.5t-3.5 -4.5l-31 18l5 16zM193 82q-1 -8 -3.5 -16t-6.5 -16l-7 27zM153 46l-11 -17l-19 35zM167 38l-18 -21l-6 11l12 16zM172 34l-4 -6t-4 -5q-4 -3 -12 -11l-2 4l18 20zM132 45l-10 -9v28zM150 10l-1 -1l-25 -12 l-1 37l10 8zM139 0q-6 -4 -9 -7q-4 -2 -5 -3v3zM121 24l-20 19l20 20v-39zM121 -1l-47 16l26 26l20 -19zM120 -13q-8 -6 -15 -9l-35 30l4 4l46 -15v-10zM103 -23q-11 -6 -26 -6t-24 18l16 16zM107 52l-12 17l25 -4zM82 27l-19 46l29 -5l12 -17zM58 4l-8 23q1 3 3 11 q1 5 1 15t1 20l6 -1l18 -46zM50 -1q-1 2 -1 21l6 -17zM96 71l3 30l21 -34zM73 75l19 37l6 -10l-4 -30zM56 79q1 4 1.5 12t2.5 17q4 15 15 29l14 -23l-19 -37zM108 88l11 16l2 -36zM93 115l25 12l1 -22l-11 -15zM78 141q4 4 7 6l31 -2l1 -15l-25 -13zM89 150q13 10 25 10 l1 -13zM121 97l25 1l-24 -30zM121 125l41 -6l-15 -18l-25 -2zM120 160h5t7 -1l37 -29l-7 -8l-41 6zM137 158q9 -2 15.5 -5t14.5 -9q4 -4 7 -6l-4 -5zM132 79l14 -6l-23 -7zM157 108l20 -26l-29 -8l-14 6zM175 129l13 -11q6 -12 6 -20q0 -7 -1 -11l-13 -4l-20 27zM179 133 q2 -2 3.5 -4t3.5 -4l-8 6z" glyph-name="comma"/>
<glyph horiz-adv-x="454" unicode="-" d="M312 215l6 -50l-50 59zM388 198l-15 -33h-50l-6 47zM414 192l-18 -26l-1 -1h-18l14 32zM455 183q-18 -15 -54 -17l16 24zM289 196l-30 -25l6 52zM313 165l-54 -3l1 5l30 25zM258 179l-18 28l23 17zM254 162l-18 -2h1l-44 -3h-6l-4 5l55 41l17 -29zM213 189l10 18l38 18z M181 166l-8 17l47 22l-10 -18zM168 157h-18q-6 0 -10 0.5t-15 1.5l42 20l8 -17zM201 198l18 50l41 -22zM159 181l-8 100l64 -33l-18 -49zM112 162l-12 120h45h1l8 -100zM107 163q-30 9 -45 33l-9 57q5 8 13 15q14 12 29 14zM55 213q-4 12 -4 25zM193 265l61 -5l7 -31z M168 280l3 2h31q16 2 22.5 2.5t22.5 1.5l5 -22l-61 4zM252 287h14l3 1l17 -15l-22 -43zM274 288l19 1l-6 -11zM284 263l30 19l-47 -53zM298 289l23 2l-4 -5l-30 -18zM310 274l-3 -54l-40 8zM328 290l68 -86l-85 17l3 54zM333 291l49 3l29 -91l-11 2zM387 294h4h-3q5 1 23 1 q19 0 34 -6l22 -94h-1l-51 10zM452 286q26 -15 26 -42t-7 -41z" glyph-name="hyphen"/>
<glyph horiz-adv-x="176" unicode="." d="M153 100l-17 -15l-13 4zM166 103l-6 -25l-22 7l17 15zM194 111q2 -8 2 -12t-1 -10l-8 -19l-25 8l6 25zM152 78l-22 -14l-7 24zM162 74l-24 -34l-7 23l22 14zM187 65q-5 -8 -12 -18l-31 -23l-4 15l24 34zM131 57l-14 16l4 15zM136 39l-30 -6l11 38l14 -16zM140 22 q-11 -4 -21 -4t-16 2l2 10l31 6zM112 61l-15 7l23 20zM103 31l-19 25l12 10l15 -7zM99 20q-21 4 -34 19l18 15l18 -25zM93 66l-1 15l27 7zM72 49l5 27l13 4l1 -15zM64 43l-5 3q-2 4 -5 10.5t-5 11.5l25 7l-4 -28zM104 85l-5 16l21 -11zM64 75l12 37l21 -11l5 -16zM49 72 l8 50l17 -9l-12 -37zM48 77q-2 11 -1 23t7 23zM89 108l34 14l-3 -31zM74 118l50 25l-2 -19l-34 -14zM63 125l61 32l-1 -12l-50 -26zM57 129q15 31 66 31v-1l-61 -33zM123 107l12 4l-13 -20zM127 150l19 -21l-11 -16l-11 -4zM128 160q9 -1 16.5 -3.5t14.5 -6.5l-12 -18 l-19 21v7zM142 120l8 -20l-27 -9zM154 138l24 -29l-26 -8l-8 20zM162 148q2 -2 4 -2.5t3 -1.5l-1 1l5 -3l15 -28l-9 -3l-23 28zM179 136q10 -10 13 -20l-1 -1z" glyph-name="period"/>
<glyph horiz-adv-x="539" unicode="/" d="M372 408q-2 -4 -3.5 -6t-2.5 -4l-12 -18q-4 -5 -7 -9.5l-5 -7.5l-25 55zM338 356q-3 -3 -4 -5l-52 -30l28 96zM323 333q-9 -13 -13.5 -21.5t-10.5 -20.5v1l-2 -6v1q-8 -17 -15.5 -33t-12.5 -27q-1 -2 -3 -4.5t-4 -6.5q-1 -2 -3 -5t-5 -8l-3 1l32 107zM272 308l-97 19 l129 89zM247 235l-132 29q5 8 9.5 16t9.5 16l35 24l98 -19zM216 139q-1 -2 -4.5 -7.5t-8.5 -15.5l-8 -16t-5 -9l-106 120q4 6 8 12.5t8 13.5q2 4 5 8.5t6 9.5l132 -28zM183 78l-5 -9q-2 -3 -3 -5t-4 -7l1 1l-2 -3q-18 -27 -44 -27t-53 34q-29 29 -29 48q0 20 8 39.5t22 45.5 q1 1 1.5 2t1.5 2zM176 333l-9 20l11 19l122 45zM143 311l19 33l7 -15zM231 396l25 81l49 -54zM184 384l9 14v-1q17 29 27 45.5t12 21.5q3 5 6 9.5t6 9.5l4 -4l-26 -81zM248 491l16 24l41 -86zM265 518q3 4 6 9t7 10l43 -40l-13 -67zM282 542q17 26 33 50t32 45l-27 -130z M329 492l86 -21l-14 -19l-86 -26zM366 652l103 -104l-32 -45l-18 -24l-85 20zM378 683l1 1.5l3 4.5q2 2 3 4t3 4l33 51l122 -90l-5 -8q-2 -3 -5.5 -7.5t-7.5 -11.5q-5 -8 -9 -13.5t-6 -9.5l-24 -36l-10 -14l-102 103zM428 758l1 2v-1v1q4 8 12.5 19.5t17.5 22.5 q10 7 23 11.5t26.5 4t26 -6t21.5 -17.5q20 -23 20 -47q0 -25 -3 -36t-8 -20q-4 -5 -7 -9.5l-9 -13.5zM396 445l-7 -11v1l-8 -12t-7 -10l-55 10z" glyph-name="slash"/>
<glyph horiz-adv-x="869" unicode="0" d="M747 324l-136 -186l-49 106q43 25 82 57q11 11 20.5 21.5t17.5 20.5zM848 289q-34 -69 -89 -121l-15 -9v1q-2 -2 -5.5 -4t-7.5 -4q-17 -11 -18 -12q-21 -15 -38 -26t-36 -22l-17 38l135 186zM577 175l-171 1l7 21q38 6 82 21q12 4 25 8t28 12zM615 79q-14 -8 -32 -15.5 t-34 -13.5h1q-7 -3 -26 -6q-5 -1 -17 -3l2 1q-27 -8 -64.5 -12t-79.5 -4l42 134l171 -1zM369 101l-54 94q14 -2 31 -3.5t52 3.5zM343 26q-27 0 -47.5 2t-37.5 6l-2 1l-85 122l78 63q1 -1 4.5 -3.5t7.5 -4.5q8 -4 18 -7.5t21 -6.5l63 -109zM234 43q-21 6 -32 12q-8 4 -15.5 9 t-14.5 10t-13 9.5t-11 9.5q-6 5 -11.5 11t-10.5 12l37 30zM232 348q-5 -17 -8.5 -32t-4.5 -29l-28 50zM111 134q-9 12 -18.5 26t-15.5 26l-24 79v5v13t1 13l123 33l55 -98zM364 547q-16 -12 -31 -28l8 58zM324 507q-29 -33 -57 -81h1q-4 -7 -7.5 -14l-7.5 -15l27 250l53 -66 zM56 324q6 55 26 103h-1q5 13 12 27t16 30q8 13 18.5 31t24.5 41q44 70 97 120l20 -26l-31 -278zM346 582l36 -21l-12 -9zM336 604l142 144l-5 -138q-2 -1 -7.5 -3.5t-10.5 -6.5q-31 -10 -65 -34l-46 27zM271 697q8 7 21 17t24 17q38 26 78.5 43t82.5 25l-2 -37l-142 -145z M485 652l66 -25q-21 -2 -57 -12l-10 -2zM494 802q22 3 87 3h2l64 -61l-63 -113h-1l-94 36zM607 805q31 -3 63 -12l-18 -33zM736 458q4 12 0 29l21 -26zM611 641l11 -14q-4 1 -8 1.5t-9 1.5zM697 784l5 -2q22 -10 40 -21l137 -204q4 -16 7.5 -33t5.5 -37l-123 -17l-39 47 q-2 5 -3.5 11t-3.5 12q-7 21 -16 34.5t-18 19.5q-20 14 -41 24l-26 32zM784 725l8 -10l8 -10l-1 3q11 -13 26 -34q5 -7 10 -14.5t10 -15.5t8.5 -17t7.5 -18zM801 455l-67 -112l-43 12q4 7 7.5 13t5.5 10v2q4 8 11.5 22.5t10.5 23.5q2 5 4.5 11t2.5 9zM893 465 q0 -4 1.5 -10.5t0.5 -19t-6 -34.5t-18 -58q-2 -6 -5.5 -15.5t-8.5 -18.5l-110 33l66 112z" glyph-name="zero"/>
<glyph horiz-adv-x="287" unicode="1" d="M158 757l1 1zM158 757l1 1l-1 -1q12 13 30 30q12 9 24 22l86 -13q2 -4 4.5 -8t4.5 -8q13 -40 12 -57t-1 -24l-2 -6l-222 -1l-1 2l28 28q8 8 17.5 17t19.5 18zM264 396q-1 -5 -3.5 -16.5t-2.5 -14.5q-2 -11 -5 -23.5t-5 -27.5l-57 104zM212 366l-56 -83l28 134zM245 299 q-2 -8 -4 -17t-4 -19l-93 -47l13 60l56 82zM235 250q-2 -10 -4 -20.5t-4 -22.5v1q0 -3 -0.5 -10.5t-1.5 -10.5q-2 -13 -4.5 -33t-4.5 -27l-90 -13l20 92zM214 114q-1 -2 -1 -5q-16 -85 -50 -85q-33 0 -49 11l15 67zM157 307l-44 47l2 11l66 52zM144 254l-40 25l8 66l41 -44z M105 86l-23 28q0 2 1 4l19 150l37 -22zM94 59q-9 15 -11 34l15 -18zM116 371l8 59l54 -9zM124 436l5 40l47 -48zM130 480l4 34l12 1l34 -85zM134 541q-12 -3 -27 -3q-14 0 -35 21v1l2 -1l-2 2l18 88zM135 521l2 12l5 -11zM66 566q-17 17 -17 36q0 20 9 43q7 18 19 32l7 -19z M156 500l79 -9l-50 -62zM111 622l189 -40v-3l-64 -79l-79 8zM92 682l223 1q-4 -22 -6.5 -47.5t-6.5 -42.5l-1 -2l-188 40zM226 817q13 6 30 6q18 0 33 -14zM257 511l30 -13l-2 -10q-1 -3 -2 -7.5t-2 -9.5l-90 -42zM297 558q-2 -12 -4.5 -25.5t-4.5 -27.5l-24 11zM253 454 l16 -37l-4 -17l-75 24zM279 462q-2 -7 -3.5 -13.5t-3.5 -17.5l-10 23z" glyph-name="one"/>
<glyph horiz-adv-x="642" unicode="2" d="M488 375q-4 -3 -7.5 -6.5l-7.5 -7.5l-2 -2l-23 -19l-86 63zM448 334q-4 -3 -5 -4.5l-3 -4.5q-2 0 -2 -2l-114 -5l32 83zM428 313q-8 -9 -15.5 -18t-15.5 -17q-5 -6 -20 -20l-9.5 -9.5t-9.5 -8.5q-19 -18 -19 -27h152h20l-259 -98l75 192zM630 184l-400 -140l24 61 l284 107q18 -1 33 -2t28 -3zM650 164q15 -27 15 -48t-9 -35l-69 -22q-7 1 -15 2l-16 2q-30 3 -197 3q-29 0 -60 -6l334 117zM296 265l-52 55l104 79zM238 121l-45 156l45 34l53 -55zM207 52l-154 72q9 15 21.5 31.5t32.5 36.5l58 59l21 17l44 -157zM194 28q-57 -21 -75 -21 q-16 0 -48 26q-14 13 -20 25t-7.5 22.5t0.5 19t5 14.5l151 -71zM277 350l4 25l8.5 8.5t8.5 9.5l51 11zM221 310l25 26h-1l6 6t6 7q5 5 8 8.5t5 4.5l-4 -18zM307 402l16 16q2 3 10 11l14 -18zM231 544q-6 -8 -10 -14l-17 -41q-6 -16 -19 -23q-14 -8 -40 -8t-42 21l54 158z M96 488q-10 16 -10 46t9 55t27 48q3 5 5.5 8.5t7.5 9.5l12 -16zM335 432l5 4q2 2 3.5 4t2.5 3l6 -31zM182 627l124 34l9 -53q-24 -13 -42.5 -26t-32.5 -27zM150 672q20 22 45.5 38.5t55.5 29.5l6 3t12 5q4 2 8 3t9 3l13 -79l-124 -33zM350 447q5 5 12 13t17 18l30 30 l-54 -92zM308 717l178 -58q-17 -2 -48 -9q-22 -3 -52 -14q-17 -5 -31.5 -11t-28.5 -12zM305 761q36 14 65 21q2 1 4 1.5t4 1.5l154 -45l-40 -71l-182 60zM400 790q35 8 61 11.5t45.5 4.5t33 -1t23.5 -5l-28 -50zM410 501l7 -41l-59 -48zM427 527l10 10q1 2 3.5 4t6.5 6 q8 9 17 19.5t15 18.5l100 9l-155 -126l-7 42zM541 717l113 -23q2 -7 3 -15.5t1 -17.5l-69 -56l-101 -8q29 41 29 62q-1 1 -9 1zM585 791q49 -25 66 -83l-102 19zM436 468l63 -81l-8 -8l-129 29zM533 542l28 -89q-27 -32 -57 -60l-60 77zM657 637q-1 -16 -4.5 -31.5 t-8.5 -30.5q-19 -46 -73 -110l-25 81z" glyph-name="two"/>
<glyph horiz-adv-x="715" unicode="3" d="M532 383q-10 0 -27 -1t-35 -1q-1 -1 -2 -1l-22 -4l-42 49zM618 352l-15 -154l-67 77q49 37 49 59t-7 30zM740 306q-2 -8 -3 -11.5t-3 -12.5q-5 -17 -9 -29t-7 -17q-22 -47 -68 -87l-34 40l15 153zM436 374l-9 -1.5t-8 -1.5l-14 -3l-13 -3q-2 0 -8.5 -1.5t-10.5 -2.5 q-3 0 -6 -1l30 59zM535 253l-39 -7q4 2 7 5t7 5q10 7 13 10zM630 133q-13 -11 -35 -24q-16 -10 -40 -23q-19 -10 -36.5 -18t-34.5 -14l-187 -20l-15 3q-15 3 -26 6t-25 7l-6 2l74 147l3 1q14 -2 33 -3t42 -1q5 0 6 1q13 1 55 17l29 15l70 12zM359 358q-12 -2 -22 -2t-23 4 l77 60zM265 178l-113 51l19 15q33 -12 75 -30q4 0 10 -3q0 -1 8.5 -4t10.5 -4v1h3zM205 67l-128 55q-7 6 -12 13t-9 14l87 69l112 -51zM307 363q-49 20 -50 72l130 -9zM57 174l-6 14q3 22 22 41q16 12 28.5 17.5t21.5 6.5t16 -0.5t13 -2.5zM257 439q0 10 1 13l65 31l66 -52z M190 584q-10 -4 -25 -6l9 19zM261 463q8 22 28 38l1 1q1 0 2 1l20 -16zM149 578q-24 2 -45 21t-24 45l11 13l69 -55zM81 660v1h1zM301 507l47 17l44 -89zM324 525q6 6 13 8l3 3l2 -4zM88 682q3 5 7 11t9 11l123 57l54 -111l-16 -12q-17 -9 -33 -21q-12 -12 -31 -25zM124 729 q11 11 20 16v-1q30 22 69 38l5 -10zM349 542q10 6 25 14.5t34 19.5l115 -7l-124 -130zM423 584l11 7l-2 -1q8 6 17 11.5t21 11.5h-2q7 5 13.5 8.5t13.5 7.5l56 -22l-28 -28zM270 713l94 -35q-5 -2 -9.5 -3t-9.5 -3q-11 -3 -12.5 -3.5l-10.5 -3.5t-12.5 -4t-11.5 -6zM236 792 q11 3 29.5 9.5t32.5 9.5l324 -119l-72 -75l-47 18q31 21 31 37q0 17 -97 17q-26 0 -58 -7l-110 41zM317 816q17 3 36.5 5.5t41.5 4.5t52 3t69 1q36 0 71.5 -10t67.5 -26q7 -4 17 -10.5t16 -12.5l-65 -68zM505 542l-14 -30l-87 -76zM562 602l-4 -31l-60 -53l14 30zM695 740 l30 -21v-1l-156 -136l4 30zM497 513l-24 -105l-70 23zM622 616l10 -254l-149 49l24 105zM640 503l3 -2l-1 1l20 -11q6 -4 7 -5t6 -3q16 -11 29.5 -29t22.5 -42q7 -17 11.5 -38.5t4.5 -41.5l-97 31zM671 648l28 -60q-9 -10 -29 -32l-18 -18l-13 -14l-4 93zM732 692 q0 -6 1 -13.5t1 -15.5t-7 -26t-21 -39l-23 51z" glyph-name="three"/>
<glyph horiz-adv-x="622" unicode="4" d="M466 319h1h-1zM466 319h1h-1q-4 -2 -15 -5t-31 -5l-12 21l62 37l91 -35l-61 -155l-34 56l6 67v5q0 10 -3 13q-1 -1 -7 -1zM493 460l-7 -89l-132 52zM546 472l9 -126l-61 24l6 90zM622 489q0 -4 1 -8q2 -4 4.5 -8.5t7.5 -9.5q12 -38 12 -51q0 -14 -7 -29q-2 -5 -5.5 -11.5 t-8.5 -14.5l-2 -4t-3 -5q-1 -2 -1 -4t-1 -4l-3 -12l1 1l-1 -3l-49 20l-8 126zM461 375l-62 -38l-49 82zM613 305l-4 -25v-23q0 -6 -2 -12l1 1q-1 -5 -1 -15t-1 -25v-40q0 -10 -0.5 -20.5t-0.5 -18.5l-36 -56l-59 97l61 154zM604 100l-2 -24q-5 -14 -15 -26l-7 13zM411 308 q-5 -2 -12 -3l-96 44l42 68zM386 302q-1 0 -8.5 -2t-13.5 -3l1 1q-9 -2 -13 -3t-14 -3l1 1q-22 -5 -40.5 -9.5t-35.5 -8.5l40 64zM494 164l-33 10l3 38zM550 56h-66q-9 10 -13 21.5t-6 37.5q-2 15 -3.5 25.5t-1.5 16.5v3l33 -10zM558 28q-13 -5 -28.5 -2t-33.5 18h53z M305 363l-55 -43l90 98zM246 272q-15 -2 -25 -3.5t-20 -2.5l41 45l56 43zM227 459l-7 -13l-4 16zM248 326l-23 102q5 1 12 1.5t15 2.5l-1 -1q8 2 16 4.5t16 4.5l53 -19zM184 265q-2 1 -13.5 -1.5t-45.5 8.5l-38 228l120 -41l6 -28l-3 -6q3 0 4 1l24 -103zM115 276 q-20 11 -34 26q-17 16 -26 33l-12 77q6 28 26 67v-1q1 2 4.5 7.5t5.5 10.5zM298 443l27 7l12 -20zM216 471l45 89l10 -17l-5 -9q-11 -20 -19.5 -37t-16.5 -31zM91 517l6 9l123 95l33 -56l-45 -88zM114 555q2 5 5 9t5 9l-1 -1q12 25 26 52t30 58l31 -54zM331 451h3q2 1 4 1 q3 0 6 1l-2 -22zM197 686l138 -17v-1l-60 -116zM191 704l4 7q5 7 9.5 17.5t8.5 18.5l-1 -1q1 2 1.5 5t2.5 7l102 53q10 -7 19 -24q11 -17 15.5 -41t-12.5 -64l-146 16zM226 776q9 15 16.5 23.5t13.5 12.5t10.5 5t7.5 2q15 7 33 -1zM348 454h4l13 3l-19 -27zM470 617l-1 30v5 q0 3 0.5 9t1.5 14l29 -15zM475 689q1 4 2.5 6.5t3.5 7.5q7 14 16 21t18 9.5t17.5 2t13.5 -2.5l-41 -59zM374 459q10 3 36 9q4 1 10 2t16 3q36 9 38 20l-1 33l42 -52l-161 -44zM472 596l146 -92l-96 -25l-50 62l-1 53zM564 726l21 -21v1l16 -31q9 -26 12 -61q0 -11 0.5 -17 t1 -10t1 -7.5t0.5 -9.5q1 -10 1.5 -19.5t1.5 -21.5q0 -12 1 -16l-141 89z" glyph-name="four"/>
<glyph horiz-adv-x="734" unicode="5" d="M491 442l4 -4l-9 3zM692 482q3 -3 6 -10q1 -2 6 -11q1 -1 1 -3l-42 -115l-93 32q-7 36 -43 52h1q-4 2 -8 3.5t-8 3.5l-8 8zM712 440q23 -55 23 -118l-58 21zM639 337l-92 -146l-33 59q59 42 59 73v37zM735 300q-6 -122 -131 -200l-48 84l91 147zM521 206l-222 -84l30 79 q8 -2 26 -2.5t41.5 3t50 12t51.5 25.5l1 1q1 0 2 1zM580 91l-298 -52l-7 2l25 66l222 84zM570 80q-98 -52 -168 -52q-69 0 -96 6zM251 48l-24 9l-149 196q19 18 31 19q6 2 28 2t63 -24q4 -1 10.5 -4.5t11.5 -5.5l33 -18h-1q25 -12 55 -18zM204 65q-5 2 -10 4.5t-15 6.5 q-130 58 -130 101t20 66zM380 445l-26 -1l-73 -4l18 76zM182 437q-5 1 -9 1t-8 1l51 143l74 -63l-19 -80l-50 -3h-1h-2zM154 443q-36 15 -36 53t7.5 67.5t22.5 71.5l58 -50zM294 526l114 -10l-5 -70l-15 -1zM171 638l242 13l-1 -20h-3h-28q-4 1 -9 1q-4 0 -9 1t-12 1h-15 q-17 0 -18 -22h92l-7 -87l-113 11zM157 660l2 4q1 2 1 3t1 3q4 9 7 18.5t6 18.5q2 12 6 25l-1 -2q1 3 2.5 7t2.5 10q6 9 12.5 17t17.5 20q24 18 70 18q1 0 12.5 -0.5t21.5 -1.5h19h47h17q8 1 12 1h5l-10 -135l-241 -14zM419 565l75 -76l-64 -42h-7l-13 -1zM427 612h27 q16 0 37 -7h-1q7 -3 10 -4t14 -3q1 -1 6 -1q16 -3 33 -8t29 -10l21 -14l-104 -68l-75 77zM432 676l58 -38l-4.5 -0.5t-8.5 -0.5v2q-24 -7 -48 -7zM447 791l276 -115q-1 -1 -1.5 -2t-2.5 -3q-13 -4 -25 -7.5t-24 -7.5q-1 -1 -10 -3.5t-13 -3.5t-29 -2.5t-61 -4.5 q-2 0 -14 -1.5t-31 -1.5l-73 48zM454 804h6l24 3h83q9 0 20 1t25 3l60 11l76 -40q4 -7 6.5 -14t4.5 -14q4 -13 4 -26t-21 -35q-1 -1 -3 -2.5t-4 -3.5l-3 -1l-278 115v3zM693 825q1 1 3 0q22 0 39 -21zM544 516l-7 -59l-64 -14q-2 1 -14.5 2t-19.5 2zM616 560q34 -23 60 -54 l4 -17l-132 -28l8 59z" glyph-name="five"/>
<glyph horiz-adv-x="710" unicode="6" d="M568 478l-89 -100h-12h-5l-58 53zM608 482l35 -261l-106 95q23 21 23 41q0 21 -67 21l85 96zM664 492q28 -19 53 -61q20 -35 23 -62.5t-2 -47.5l-19 -46q-8 -14 -20 -30t-29 -35l-3 -3l-13 11l-34 261zM450 378h-14q-7 0 -18 -1l4 1q-2 -1 -5 -1t-5 -1l-12 47zM621 221 l-163 -20l-13 53q12 6 25 14t22 14l18 12q9 6 16 13zM650 190q-26 -26 -51.5 -45t-48.5 -31q-16 -8 -32 -16.5t-27 -13.5l-26 106l162 21zM407 375l-19 -5l8 53zM447 202l-85 -16l5 31l19 8v-1q28 13 50 25zM476 77q-9 -5 -30 -12l-16 -6t-15 -5l-28 -8l-39 17l16 108l85 16 zM368 41q-5 -1 -12 -2.5t-9 -2.5l2 13zM381 368q-13 -4 -22.5 -8t-16.5 -8q-22 -10 -32 -16q-7 -4 -13.5 -8t-13.5 -9l-42 18l149 86zM275 313q-11 -7 -23 -19.5t-21 -28.5l-63 27l67 38zM323 32q-12 -2 -19 -2.5t-12 -0.5q-4 0 -7.5 1t-9.5 3l-216 188l104 60l64 -27 q-2 -4 -3 -8t-2 -9l-4 -4l2 -6q0 -29 31 -29q32 0 47.5 2.5t31.5 5.5q1 0 9 2l10 -4zM254 36q-74 2 -132 43q-72 52 -72 130l3 2zM294 378l-76 99l168 -46zM200 329l-78 126q2 5 4.5 10t4.5 10q2 2 4 7t6 12l67 -18l76 -99zM53 248q11 65 43 144v-1l3 9q3 8 7.5 20.5 t9.5 22.5l73 -117zM217 481l48 30l120 -75zM146 502l9 17q6 8 12 20q6 11 7 13.5t6 9.5l74 -47l-47 -29zM330 476l59 52h1l3 -92zM185 571q5 8 9 13.5t6 9.5q4 5 7.5 11t8.5 12l163 34l4 -91q-7 -9 -14 -19.5t-14 -22.5q2 2 5 2.5t5 1.5l-42 -38zM231 634q4 4 7 6l49 50 q3 3 13 12t14 14q9 7 14.5 12.5t12.5 11.5q2 2 5 4.5t5 4.5q7 6 11.5 10.5t6.5 5.5l3 -101zM395 529q14 3 18.5 2t16.5 2q7 0 10 1l7 2l23 -29l-72 -68zM393 603l12 -16l-6 -6t-5 -7zM458 538q5 1 15.5 1.5t25.5 0.5l-24 -22zM394 719l175 -53q-23 0 -40.5 -2t-28.5 -5 q-22 -8 -53 -33v1q-8 -7 -17 -15t-17 -17l-16 19zM397 786q10 7 23 12q10 5 19.5 9t19.5 8l210 -108l-46 -44l-224 67zM471 819q21 6 44.5 10t46 3t43.5 -7.5t38 -21.5q34 -28 34 -55q0 -26 -1 -29l-4 -4zM472 499l102 -15l-170 -49zM518 539q44 -3 86 -18l20 -21l-42 -12 l-103 14zM632 509l4 -2l-1 -1z" glyph-name="six"/>
<glyph horiz-adv-x="694" unicode="7" d="M453 396l22 -59l-90 79zM525 373q-2 -4 -4 -7l-4 -6q-5 -11 -8 -16q-2 -5 -5.5 -10.5t-7.5 -12.5l-13 11l-22 59zM442 361l-74 -30l13 84zM489 312v-2q-3 -5 -4.5 -8l-4.5 -9q-13 -18 -28.5 -44t-35.5 -61l1 1q-3 -7 -6.5 -13.5t-6.5 -10.5h-1l-59 -16l28 171l74 30z M396 149l-29 -58q-10 -14 -18 -25t-15 -19l15 90zM350 264l-67 32l6 12t6 11q2 5 5 11t8 14q1 3 6 8q2 5 8 13l7 11l45 35zM338 203l-76 55l17 31l68 -32zM309 52l-112 38q-1 4 -1 7t-1 6v26q0 19 28 62q9 14 14 23t7 11q2 3 12 23l76 -55zM298 21q-8 -3 -32 -3t-50 32l1 -1 q-11 12 -15 25l99 -34zM340 392l6 9l6 8l2 4t3 4h15zM360 422l3 3l10 -4zM365 429l4.5 6t3.5 4l2 -14zM338 629h-1q-18 -3 -31.5 -5t-24 -3.5t-19.5 -3.5t-19 -5l89 59zM126 550h-4q-31 0 -56 34q-9 13 -15 27l205 168q2 1 5 1t7 1q11 2 20 3.5t19 3.5l17 -107zM48 622 q-5 20 -2.5 41.5t18.5 41.5q2 2 6 5.5t9 8.5q13 10 23.5 17t32.5 14q8 3 21 7.5t31 10.5q2 1 5 1h-2q11 3 23.5 4.5t22.5 2.5zM378 448q4 5 8.5 12t10.5 15q3 5 7.5 11t9.5 14l-33 -71zM352 640l141 41l-16 -37q-15 0 -29 -1t-28 -2.5t-30 -3.5t-37 -5zM331 792q10 1 18 3 t18 4t23 4.5t33 4.5l99 -51l-28 -63l-141 -41zM446 810q7 1 15 1.5t14 0.5q24 2 40 3t27 1h2l-21 -46zM427 520l24 37l2 -82l-68 -48zM496 666l67 -112l-104 -72l-1 85q36 60 36 68q0 7 -8 9zM536 744l169 -77l-6 -16l-128 -88l-66 112zM576 820q4 1 22 1t57 -15 q12 -5 22.5 -15t20.5 -28q13 -24 16 -42.5t-4 -39.5l-164 75zM491 491l51 -93q-5 -6 -6 -9q-5 -6 -6 -10l-140 41zM628 582l-5 -56q-2 -4 -10 -16t-22 -34q-11 -17 -19.5 -30.5t-13.5 -21.5q-2 -4 -4.5 -7t-5.5 -9l-47 86zM675 608q-7 -11 -15 -24t-18 -28h1q-2 -2 -3.5 -5 t-3.5 -5l4 37z" glyph-name="seven"/>
<glyph horiz-adv-x="608" unicode="8" d="M98 369l2 2zM294 572l-2 1q1 -1 2 -1zM102 373q0 -1 -1 -1zM102 373l-1 -1q1 0 1 1q2 2 7 7.5t7 7.5l7 9q2 3 6.5 9t7.5 9l-1 -1l5.5 5.5l8.5 8.5q2 1 5 4.5t8 7.5l21 -3l62 -50l-179 -79l1 12q6 13 12.5 23.5t13.5 20.5l-1 -1q0 8 1 9t8 1zM490 418l-7 -105l-24 19l-4 5 h1q-14 14 -29 26t-28 19l-4 2l-43 35zM592 415l-60 -138l-40 33l6 106zM602 407q18 -27 27 -67l-1 1q4 -18 5.5 -29t1.5 -18q0 -6 -1 -10.5t-2 -8.5q-3 -11 -3 -27q0 -22 -6 -41l-80 65zM374 395h-5q-3 0 -12 -1l-8 21zM481 307l-4 -1q-3 6 -5 8zM509 280l-45 -131l-32 75 l17 10l-1 -1q13 10 23 23q12 16 12 24q0 9 -3 17l7 1zM598 204l-56 -100q-11 -8 -22 -15t-22 -13l-28 65l44 130zM616 186q-17 -36 -53 -66l42 75zM352 392q-8 -2 -21 -6q-5 0 -13 -5l23 36zM209 204q4 -4 14 -9l2 -1l-19 5zM454 141l-178 42q35 0 92 15q15 5 28.5 10 t24.5 11zM480 68q-19 -8 -47 -18l-257 91l30 46l248 -58zM419 46l-14 -4q-41 -12 -80.5 -15.5t-73.5 -0.5t-60 10.5t-40 18.5q-2 2 -4.5 4t-4.5 4q-4 2 -6 4t-4 3l42 63zM302 369q-7 -6 -21 -21t-27 -31l-62 37l141 63zM249 311q-13 -16 -23 -29.5t-17 -24.5l-129 45l104 46 zM112 90q-62 67 -62 120q0 54 6 77l15 7l133 -47q-6 -14 -6 -25zM257 389l-62 50l138 -16zM277 436l-10 111l70 -119zM175 451q8 7 13 12l7 7q-17 12 -31.5 24t-27.5 23l93 86l29 -51l10 -112zM125 526q-1 1 -2.5 3.5t-5.5 6.5q-10 9 -11 14q-22 37 -22 84q0 46 60 99 l71 -123zM311 480l43 17l-13 -69zM213 651l51 -9q-4 -6 -6 -11q-10 -4 -12 -13q-1 -2 -1 -5t9 -10q1 -1 6 -5t15 -11q4 -3 7.5 -6t7.5 -7q30 -10 50 -10q8 2 9 2q4 1 14 3l-11 -63l-44 -16zM180 720l189 102h19h19l-26 -135q-7 0 -12 -1q-7 0 -10 -1h-12q-4 0 -46 -17 q-15 -4 -26 -14l-63 12zM167 752q76 55 170 67l-159 -86zM373 567l109 -34l-134 -101zM378 574q13 5 30 17t39 29l3 3l2 2l84 -47l-49 -37zM416 756l204 -112l-79 -59l-81 45q30 25 30 36t-21 17q-25 6 -41 6q-15 0 -19 -1h-6zM432 820q38 -2 68 -9.5t52 -18.5 q75 -41 81 -132l-8 -6l-204 112zM487 528l11 -102l-146 1zM514 545l22 -43q-5 -3 -13 -10q-5 -5 -8 -6q2 0 10 -5q30 -20 30 -26l10 -8l10 -19l-69 1l-12 101zM633 629q-4 -37 -35 -72l1 2q-7 -9 -21.5 -22t-33.5 -28l-21 39z" glyph-name="eight"/>
<glyph horiz-adv-x="600" unicode="9" d="M417 435l-23 -59l-53 51zM572 446q-2 -10 -2 -13q-2 -10 -4 -19t-4 -19v1v-1v-1l-3 -42l-2 -20l-2 -20v-6l-2 -13q0 -8 -0.5 -12t-1.5 -9t-1.5 -13.5t-0.5 -11.5q-1 -3 -1 -13l-143 138l24 59zM424 342l-23 -34l-60 113zM488 277l-39 -59l-43 82l23 34zM547 217 q-1 -9 -1 -18v-19l-3 -46l-1 -3q0 -1 1.5 -10t1.5 -30q-2 -18 -11 -30l-76 146l39 59zM393 307h-2q0 3 -1 6l-32 -9q-40 -10 -88 -12h-3h-13l80 127zM431 223l-46 -10q1 18 3.5 41.5t2.5 42.5l1 1zM507 65l-119 3q-5 12 -7.5 27t-2.5 29v11q0 5 0.5 9.5t1 11t2.5 17.5 q0 4 1 13.5t1 15.5l47 10zM515 42q-22 -14 -47 -16q-10 1 -18 2t-16 3q-18 4 -33 16l-4 6l-4 6l114 -3zM283 351l-54 39l102 35zM244 293q-43 4 -85 26l-11 39l75 26l53 -40zM144 327q-5 4 -11 7.5t-13 8.5l18 7zM197 384l-16 64l145 -20zM141 367l-39 91l70 -10l17 -65z M103 357q-23 20 -36.5 46.5t-19.5 58.5l43 -6l39 -90zM200 452l17 19q8 -6 15.5 -11t15.5 -6q12 0 19 -0.5t12 -1t9.5 -1.5t10.5 -2h-2l2 -1h9q7 0 17 2l5 -16zM68 476l180 197l15 -47q-16 -9 -32.5 -21t-28.5 -25h1q-9 -9 -14 -22t-5 -27t5.5 -27t17.5 -23l3 -3l-18 -20z M44 485q0 3 -0.5 16.5t-0.5 19.5v16t1 19v8l125 177q10 6 21.5 11.5t23.5 10.5h-2l2 2l27 -85l-180 -197zM47 583q5 29 17.5 54.5t32.5 44.5q3 4 9.5 11t12.5 13l8 8q12 10 24 17zM332 451l9 2l-5 -17zM256 696l72 -42q-5 -2 -9.5 -3.5t-10 -4t-13 -5.5t-19.5 -9zM235 774 l10 4q3 1 9.5 4.5t21.5 11.5q3 1 15 1q5 2 8.5 3t7.5 2h-1q4 1 7 3t6 3l9 3q12 4 30.5 8.5t35.5 7.5l40 2l-42 -155q-11 -2 -23.5 -5t-25.5 -7l-88 50zM435 534q1 2 3.5 7.5t3.5 7.5l11 3zM346 455q5 1 10 3t11 5l-26 -27zM445 556q7 16 12 39l19 -16l-19 -19zM427 737 l166 -32l-112 -117l-21 18l6 35q0 6 1 14.5t-4 14.5q-15 5 -38 5q-12 0 -15 -1zM457 831h20h13q15 0 26.5 -0.5t21 -2t18.5 -4t19 -6.5q20 -7 35.5 -26.5t18.5 -43.5l-27 -29l-166 33zM428 521l20 -78l-105 -10l36 37q8 5 15.5 10.5t14.5 12.5h-1q5 7 9.5 13.5t9.5 13.5z M496 587l54 -130l-94 -10l-20 77zM574 661l33 -55q-2 -16 -5.5 -31t-8.5 -29q-1 -3 -4 -16t-3 -17l-3 -19q-2 -7 -4 -15l-4 -16l-15 -2l-54 130zM627 710q-1 -6 -6 -17l1 4l-1 -3l-1 -8q-2 -12 -3 -12q0 -4 -1 -11.5t-2 -16.5l-3 -19l-25 40z" glyph-name="nine"/>
<glyph horiz-adv-x="206" unicode=":" d="M151 254q24 -5 44 -22v1q9 -8 15 -15l-49 -56l-12 91zM214 214q13 -19 13 -32v-15l-59 -43l-4 33zM226 159q-3 -34 -29 -63q-4 -4 -9.5 -9t-10.5 -9l-5 40zM149 226l-13 29q8 0 10 -1zM152 197l-45 2l20 56h6l16 -33zM161 109l-84 -1l29 83l45 -1zM164 71q-18 -8 -44 -8 t-47 27l3 10l84 1zM118 241l-22 6q11 5 27 7zM93 176l-36 29l2 4t2 6v-1q9 20 28 30l25 -7zM72 120l-21 27q0 9 0.5 24t4.5 29l35 -28zM64 102q-8 17 -11 34l16 -20zM126 346q-5 1 -9 1.5t-8 1.5l16 2zM102 352q-17 7 -28 24l-2 3l39 18l12 -43zM68 385q-15 22 -15 48 q0 25 2.5 36t7.5 26l16 15l28 -107zM109 424l61 -21l-17 -55q-10 -3 -16 -3q-5 0 -7 1zM94 488l94 -23l-18 -55l-61 21zM86 523q4 2 7 4t7 3l72 2q13 -4 25 -15l5 -3l-14 -43l-94 23zM163 369l4 -16l-10 -4zM187 436l33 -30q-4 -7 -8.5 -14t-10.5 -14q-14 -16 -30 -23l-4 19 zM202 477l28 -21q1 -2 1 -13t-8 -31l-32 28zM213 503q14 -17 17 -39l-24 17z" glyph-name="colon"/>
<glyph horiz-adv-x="208" unicode=";" d="M165 294q32 -6 45 -31l-1 -1zM215 253l3 -9l-84 -14l15 66q6 0 7 -1zM220 238q3 -17 2.5 -28.5t-3.5 -26.5l-100 -29l17 71zM218 177q-2 -11 -6.5 -23t-9.5 -26l-89 -17l9 37zM199 122l-9 -21q-23 -41 -45 -60l-44 -15l-4 2l18 78zM130 235l-37 2l50 59h2zM115 174 l-46 31q0 1 1 2l21 25l37 -2zM88 69l-32 14q1 5 2 11t2 13q2 16 4 31t4 29v18v10l43 -28zM79 37q-3 3 -6 5q-15 15 -17 33l29 -12zM94 243l-5 26q16 24 50 27zM72 221q3 22 12 39l3 -20zM115 392q-8 2 -20 11l14 9zM91 407q-11 11 -17 25.5t-9 29.5t-3 27q0 13 2 21l8 9 l33 -102zM112 428l95 -11q-28 -31 -48 -31q-19 0 -21.5 0.5t-6.5 0.5l-7 6zM79 544l159 -29q4 -18 0 -41l-29 -49l-96 11zM79 553q10 13 30 19q14 8 29.5 9.5t29.5 -1.5l16 -6q12 -4 23 -14q9 -7 16.5 -16.5t11.5 -20.5l-156 29v1z" glyph-name="semicolon"/>
<glyph horiz-adv-x="376" unicode="&lt;" d="M280 260l21 -24q5 -6 8 -9.5t7 -7.5l21 -24l-17 -28zM344 188l5 -7l-1 1q2 -2 5 -6t8 -9q6 -6 7 -9q12 -17 17 -31l-25 -45l-33 78zM389 116q2 -10 2 -30q0 -19 -13 -37l-11 27zM229 334q4 -6 10 -14l-1 3l3 -5h-1l3 -4l2 -4l-16 12v12zM283 233l-37 -55l-15 136l21 -17 q2 -2 4 -5.5t5 -7.5zM327 126l-65 -40l-6 7l-7 74l37 56zM364 36q-19 -10 -40 -4t-45 32l-10 13l61 38zM229 301l-75 31l53 34l17 -26zM236 183l-74 30q-2 4 -5 8t-5 9h-1q-3 4 -5 8.5t-4 6.5q-3 5 -5.5 8t-5.5 8h1q-2 2 -4.5 6t-6.5 10q-3 5 -6.5 10t-7.5 10l44 28l74 -32z M240 111l-4 5l-2 1l-11 11q-28 31 -53 71l63 -25zM104 304l20 76l76 -3l5 -8zM99 307q-8 10 -16.5 22.5t-15.5 24.5l-2 26l53 -2zM57 372l-5 7h4zM171 383l3 60l19 -25l-7.5 -7.5t-2.5 -6.5q0 -3 3.5 -8t9.5 -14zM46 392q-8 21 -8 48q0 28 36 67h-11l40 27l63 -86l-3 -61z M141 495l73 -26l2 -28q-14 -12 -21 -21zM118 529l88 30l5 -83l-72 25zM113 542q19 12 34.5 23t29.5 22l23 24l3 -42l-88 -30zM215 511l35 -39l-30 -27zM210 613l84 -82l-18 -35l-19 -18l-3 -2l-38 43zM211 623q6 5 11 10l10 10l101 -31l-37 -74l-85 83v2zM240 651q6 8 9 11 q65 65 89 65q25 0 42 -16l-44 -89zM337 594l14 -32l-9 -9t-17 -15q-3 -2 -5 -3.5t-4 -3.5l-8 -8l-12 -10zM354 617l26 -25q-4 -4 -8 -8.5t-13 -14.5l-2 -1l-13 31zM396 693q1 -7 6 -13.5t6.5 -17t-2.5 -25.5t-20 -38l-26 23z" glyph-name="less"/>
<glyph horiz-adv-x="397" unicode="=" d="M244 326h20h-1q2 1 9.5 1.5t12.5 1.5l-20 -28zM291 329h11q26 0 49 -5l-34 -80l-47 55zM357 322q5 -2 8.5 -3t7.5 -3q15 -8 23 -20l-15 -104q-2 -1 -4.5 -2t-6.5 -3l-47 54zM400 289q8 -17 8 -37t-7 -37q-4 -10 -14 -18zM264 299v-11l-24 37h1zM334 217l-19 -7l-46 72v11 zM359 188l-34 7l-6 10l19 7zM349 186q-2 0 -6.5 -0.5t-9.5 -0.5l-4 5zM269 279l-36 16l2 30h4zM293 239l-64 -27l5 79l36 -16zM326 184q-21 -2 -45.5 -3.5t-51.5 -3.5l2 29l63 26zM229 280l-42 14l38 31h7zM225 231l-74 33l34 27l42 -15zM218 176l-13 -1l-46 -3l-67 25 q-2 2 -5 4t-5 4l66 53l73 -32zM203 347l-27 -1l-14 20zM200 310l-8 12q7 1 13 1t13 1zM171 345l-17 -1h1q-5 0 -9 -0.5t-8 -0.5l1 31l19 -9zM133 258l3 57q9 1 16.5 2l22.5 3q2 1 5 1t8 1l8 -13zM133 343q-12 0 -21.5 1.5t-21.5 4.5q-6 4 -11.5 10.5t-10.5 14.5l-8 33 l74 -34zM103 237l-17 67q3 3 12 5q5 3 8 3.5t11 0.5q6 0 8.5 0.5t5.5 0.5l-3 -56zM55 400q-1 2 -1 3q0 2 -1 4zM72 217q-11 17 -11 41q0 25 20 42l15 -63zM160 370l11 24l48 -46h-11zM137 381l9 36l21 -21l-11 -24zM75 411l29 46l38 -37l-9 -36zM49 424q0 22 22 35h-1 q3 1 9 5q7 4 9 6l10 -9l-30 -46zM181 389l57 33l-5 -73l-10 -1zM131 440l108 46l-4 -58l-56 -33zM123 452l40 32q40 6 75 9v-2l-108 -46zM102 474h5l8 2.5t14 2.5l24 4l-32 -26zM239 400l16 -36l-11 -14l-8 -1zM244 466l46 -54l-33 -43l-17 36zM248 494q8 1 18 1h21 q12 1 18 1h8l24 -17l-45 -61l-45 54zM326 496q4 0 9.5 -0.5t11.5 -1.5l-7 -9zM266 374l11 -23l-30 -1zM303 420l40 -63l-18 -3q-1 0 -43 -2l-12 24zM344 471l56 -106l-25 -4h-10q-7 0 -16 -2l-41 64zM362 491q1 -1 3 -1t4 -1q4 -2 7 -3q43 -21 43 -41t1 -21v-13 q0 -32 -13 -42h-1l-57 105z" glyph-name="equal"/>
<glyph horiz-adv-x="375" unicode="&gt;" d="M310 364l-18 -32l-48 17q2 4 4 6zM398 373q-4 -15 -14 -30v2q-2 -5 -3.5 -8l-2.5 -5v1q-5 -8 -6 -9q-7 -12 -9 -14l-61 21l18 32zM327 315l-91 -45l-5 60q1 2 5 8l6 8zM357 301l-8 -13l-2 -3t-6 -8q-2 -3 -5 -7t-7 -9q-4 -4 -11 -14l-72 -72l-7 90l92 46zM292 210 q-2 -2 -4 -5t-5 -7q-1 -1 -5 -6.5t-8 -10.5l-3 -4.5l-3 -4.5t-5 -6q-2 -2 -4 -5t-4 -5l-1 13zM233 240l-47 25q2 4 5 7.5t6 8.5q6 11 10 16q4 7 6 10t3 4q2 1 6 5l5 7zM235 187l-92 21l5 8q1 3 4 4h-1l6 8t7 8q6 8 10.5 13.5t7.5 9.5l49 -26zM236 136q-5 -7 -9 -11.5 t-6 -7.5q-4 -5 -7.5 -10t-6.5 -10q-5 -8 -10 -13t-6 -7l-5 -5l-99 39l54 89l92 -22zM180 64l-5 -7q-19 -22 -37 -30l-60 16q-1 1 -5 7h2q-3 5 -5.5 9.5t-4.5 9.5l20 34zM121 21h-7q-4 0 -7 1v-10q-4 4 -7 8t-7 8q-1 1 -2 1l-1 1zM100 153l-1 6q4 6 8 10.5t11 13.5zM69 105 l-3 6q7 19 22 35l-3 -4q0 1 1 2l3.5 3.5t2.5 4.5l2 -6zM62 99v1v-1zM210 424l-2 3q-2 2 -4 3l4 9zM199 435q-34 28 -80 77l59 60l26 -125zM113 518l-1 1l-3 3l-7 7t-7 7.5t-3 4.5l-13 15l87 63l8 -39zM73 563q-1 2 -7 8q-18 28 -18 53t20 48q21 23 40 23q20 0 43 -19l11 -49 zM210 438l53 -25l-13 -20q-1 1 -1.5 2t-2.5 2l-9 6q-4 2 -7.5 5t-15.5 14zM194 532l111 -50l-41 -63l-53 26zM172 659q7 -6 14 -12.5t14 -13.5l23 -24l10.5 -10.5t12.5 -13.5q5 -6 11 -12t11 -13q16 -14 30 -25t25 -19l-15 -22l-112 49zM257 396l71 -27l-78 -11q13 22 13 24 q-2 0 -3 1l-7 7zM328 496l76 -96q-1 -7 -2 -11l-2 -8l-65 -8l-71 26zM339 505q65 -41 65 -87l-67 84z" glyph-name="greater"/>
<glyph horiz-adv-x="657" unicode="?" d="M491 423l-14 -6t-14 -7q-4 -2 -8.5 -4t-11.5 -5l-6 -2t-5 -2l-56 28zM423 394q-2 -1 -7.5 -3.5t-12 -5t-12.5 -4.5t-7 -2l-9 39zM375 377q-10 -3 -20.5 -6t-22.5 -5l34 51zM232 211q21 -5 40 -19q4 -4 8 -7.5t8 -8.5l-75 7zM293 165q6 -12 6 -23q0 -10 -2 -14l1 1 q-5 -19 -15 -35l-97 40l26 39zM276 84q-8 -11 -24 -24l1 1q-25 -21 -59 -29t-64 12l54 80zM322 364q-12 -2 -18.5 -4t-17.5 -2q-7 -4 -9.5 -5t-4.5 -4l-4 -11l-47 29l139 54zM264 329q-28 -79 -52 -79h-24l-47 68l-1 14l73 28zM215 211l-1 2h3zM172 256q-15 7 -24 34z M143 107l-23 54q1 2 2 3t2 3q0 1 6 9h-1q20 32 72 37l7 -9zM112 70q-5 14 -5 33q0 20 4 43l21 -47zM241 380l9 80l110 -34zM138 345v7q0 4 -1 9v59q7 37 36 60l65 -20l-9 -80zM277 457v56h2l83 -82zM158 629q-7 -4 -17 -6l4 20zM186 489q8 5 16 6q4 2 6.5 3t7.5 2t14 2.5 t24 4.5h2q1 0 2 1q2 1 4 1t4 1l1 -46zM126 619q-8 -2 -14.5 -3t-20.5 -1q-15 0 -29 13q-14 14 -14 29t2 21l-1 -2q5 21 19 38l64 -64zM284 514q51 13 85 18l-2 -1l1 1l-4 -96zM164 638l14 -1q-2 -1 -5 -2t-5 -2zM100 710l177 96q15 3 32 5.5t36 5.5h-1q3 1 13.5 2.5 t17.5 1.5l-8 -142q-10 -1 -21.5 -3t-25.5 -4q-30 -4 -54 -8t-41 -9q0 -1 -6 -3t-13 -5l-45 2zM87 733q22 17 55 32.5t78 27.5q3 1 6.5 2t8.5 2l-138 -74zM376 534l23 8l51 -29l-79 -79zM412 545q110 41 126 86l28 1l-111 -111zM399 823h33h49l165 -105l-74 -73l-31 -1 q0 38 -124 38h-24zM504 821l22 -2t21 -3q56 -12 104 -62q3 -4 6.5 -8.5t3.5 -5.5l-11 -11zM445 498l64 -65l-4 -2l-6 -3l-123 1zM528 574l72 -83q-17 -13 -37.5 -27t-44.5 -27l-64 64zM676 715q13 -26 13 -43t-1 -25q0 -13 -11 -42q-2 -2 -5.5 -10.5t-10.5 -22.5 q-4 -5 -4 -8q-13 -20 -25 -36.5t-23 -27.5l-69 80z" glyph-name="question"/>
<glyph horiz-adv-x="831" unicode="@" d="M817 671v-1v1zM817 671v-1q1 -2 9 -14.5t15 -24.5q13 -21 17 -44l-26 -9l-222 226q34 -8 75 -24q48 -22 80 -48t52 -61zM817 670v1v1l1 -2h-1zM602 404l-67 -48l-52 45q1 5 1 8q0 4 1 6zM605 396v-12q0 -24 8 -36t20 -12q13 0 29.5 11t33.5 33l3 4l-56 -115l-99 84z M837 375l-1 -9l-9 -21q-37 -78 -106 -121l-12 -7l-54 46l60 123zM558 330l-52 -59l-29 92q2 8 3 16t2 15zM626 269l-64 -57q-2 1 -3 1t-3 1q-20 8 -31 6l-14 43l52 59zM690 209q-26 -9 -65 -9q-9 0 -12 1h-10q-9 0 -16 2t-12 4l58 51zM500 271l-117 52l17 21q7 -5 11.5 -7 t9.5 -1.5t11 3t17 5.5h1q8 3 13 5.5t10 5.5zM276 188q19 -5 35.5 -8.5t28.5 -5.5l-86 -12zM510 217q-8 -2 -13 -3.5l-15 -4.5q-10 -2 -19.5 -4t-17.5 -4q-17 -3 -55 -3q-36 0 -79 32l68 83l118 -53zM432 174q16 -2 33 -9q14 -9 21 -19.5t7 -32.5q0 -21 -13 -45t-37 -35 l-213 89l23 28zM428 27q-11 -3 -77 -3q-64 0 -157 44l35 42zM357 303l15 109l27 1q-13 -19 -13 -36t9 -28zM199 399q-2 -6 -4.5 -16.5t-2.5 -13.5q-1 -5 -2.5 -16t-1.5 -22l-72 65zM298 241q-44 42 -44 87q0 44 8 74l98 5l-14 -109zM183 112l-127 266l2 10l46 2l85 -77 q5 -29 16 -53q20 -45 49 -63zM159 88q-18 13 -43 45q-13 12 -23 29q-4 6 -7.5 12.5t-7.5 13.5v-1q-26 47 -26 90v57q1 7 1 13t1 11l120 -252zM316 415l58 52l46 -29q-5 -5 -9.5 -10t-7.5 -9zM254 536q-12 -19 -22 -40.5t-18 -45.5l-47 139zM266 417q5 15 12 30.5t17 32.5 l-1 -1q2 4 6.5 12t7.5 12l54 -32l-57 -53zM62 412q9 48 28.5 96t47.5 94l14 -8l56 -163q-1 -2 -1.5 -5t-2.5 -7zM347 488l32 14l51 -55q-1 -1 -2.5 -2t-3.5 -3h1l-2 -1zM313 511q11 15 27 31l28 -30l-33 -15zM189 585l42 77l65 -72q-9 -10 -18.5 -21.5t-18.5 -25.5zM146 615 q5 7 10.5 14t10.5 15q6 8 18 23t19 21l13 -14l-42 -77zM393 495l75 68l-9 -95q-3 -1 -12 -8q-5 -2 -13 -9zM474 667h-5l5 1v-1zM348 550q4 3 10 9q4 2 7 4t5 4h-1q10 9 21 15l37 16q6 1 9 2.5t6 2.5q2 1 5 1.5t8 2.5l13 4l-3 -38l-76 -69zM287 617l73 20q-15 -9 -29 -18.5 t-27 -20.5zM216 702q1 1 2 1.5t3 2.5l206 99q16 4 29.5 5.5t26.5 2.5l-13 -132l-187 -53zM290 758q9 6 27 13zM470 504l145 -25l-127 -45q2 16 3.5 27t1.5 19q-13 0 -26 -7zM486 615q18 3 42 3q25 0 59 -14q47 -21 47 -42t-3 -31.5t-9 -25.5v1l-5 -17l-141 24zM497 718 l53 -51h-8q-3 0 -10 1h-36h-5zM511 815h7q18 0 36.5 -1.5t37.5 -5.5l234 -238l-90 -31q-4 36 -22 62q-11 14 -56 39q-21 13 -70 23q-4 1 -8 1.5t-8 1.5l-69 64zM613 473v-2q-4 -14 -5.5 -29.5t-2.5 -32.5l-119 10l1 9zM710 401q19 30 22 64l4 25l42 -94zM840 548l21 -70 q-1 -22 -5 -43.5t-11 -42.5l-55 4l-51 116zM862 553v-41l-11 37z" glyph-name="at"/>
<glyph unicode="A" d="M497 361l-86 -55l-69 107l1 1zM583 329q-6 -5 -14 -17q0 -3 1 -3q1 -5 1.5 -10.5t2.5 -12.5l-97 -76l-57 89l86 55zM577 272q4 -18 7.5 -33.5t6.5 -25.5v1l6 -22t7 -22q2 -10 5 -18.5t5 -21.5l-45 -55l-82 127zM617 113q1 -5 1 -15q1 -4 1 -11v-18q0 -22 -19 -35l-21 32z M400 311l-69 -33l4 134zM414 284q-9 -1 -21.5 -4.5t-27.5 -8.5q-18 -5 -32 -10v9l69 33zM451 227l-12 -2q-1 3 -2 9t-3 11l-3 13zM497 150l-36 -21q-2 8 -4 17.5t-5 22.5q0 3 -2 9.5t-3.5 14t-3.5 13.5t-2 9l12 2zM574 23q-5 -1 -45 -1q-37 0 -53 43l-1.5 5t-3.5 16 q-1 2 -2.5 10t-4.5 21l36 21zM327 322l-61 30l59 58l5 1zM321 257q-2 -1 -6.5 -2t-9.5 -3q-2 -1 -5 -2t-5 -2q1 0 -17 -5q-2 0 -14 -4q-8 -2 -11 -2l2 1q-12 -5 -16 -9l-61 33l84 81l61 -29zM231 217q-3 -7 -5.5 -14.5t-6.5 -21.5l-28 -81l-118 54l99 96zM187 87 q-2 -8 -9 -21q-2 -4 -3.5 -7.5t-3.5 -7.5q-14 -23 -47 -23q-32 0 -52 17l2 -1q-14 9 -19.5 20t-7 22t0 21t3.5 18l16 17zM254 348l-42 60l94 8l-2 -8h13h-1v-1v1zM145 248l-27 69q7 20 14.5 40.5t15.5 41.5l55 4l42 -60zM91 202l-10 11q2 7 3 8q3 10 7 20.5t8 20.5v-1 q7 23 12 38l23 -56zM74 191l2 8l3 -3zM177 411l62 114l74 -88l-5 -15zM154 414q3 5 5 10t5 13q11 26 22.5 54.5t23.5 60.5l20 -24l-62 -113zM243 529l72 -42l6 -27l-6 -18zM215 565q3 8 6 15.5t6 15.5l57 20l28 -121l-73 42zM233 611q8 21 15 37.5t17 36.5l13 -58zM308 538 l32 -24q-3 -8 -6 -18q-3 -8 -5.5 -15t-4.5 -14zM276 694l158 13l-71 -189l-7 32q-5 -9 -12 -26l-35 27zM277 709q5 10 10 19t12 19q1 3 4 8.5t6 10.5l-1 -1l15 26q1 3 6 8l85 11q24 -13 37 -42l1 -1l-17 -45l-157 -13h-1zM346 810q2 1 4 1q17 7 27 7q11 0 19 -2zM384 551 l31 -96l-37 -14q-2 13 -3 21t-2 12q-3 18 -7 29zM434 675l84 -177l-97 -36l-31 96zM461 733q1 -5 3 -11q2 -8 3 -13t2 -7l3 -12l37 -144l-66 138zM423 450l64 -80l-134 46l8 1h-1q5 1 15 5q4 2 7 3q-2 10 -2 9zM524 483q2 -8 4.5 -15.5t4.5 -15.5q3 -2 9 -5.5t16 -8.5l-2 1 q19 -6 32 -19l13 -56q-3 -16 -10 -26l-93 32l-64 80z" glyph-name="A"/>
<glyph horiz-adv-x="644" unicode="B" d="M565 497l12 -12l8 -8t9 -8h-1q8 -7 15.5 -15t14.5 -16l23 -67l-98 21l-37 94l81 41q-5 -5 -12 -12.5t-13 -15.5zM417 411l-14 -6l-9 -4l-19 19zM588 372l-43 -130l-28 30q22 29 15.5 48.5t-25.5 39.5v-1q-11 13 -17 19l-6 6l-12 12zM673 349q12 -32 12 -58v-1l-69 -119 l-59 64l43 130zM682 260q-11 -54 -52 -97l-3 3zM390 399h-1q-3 -1 -7 -2.5t-7 -2.5v21zM552 217l-177 -83l1 63q11 2 20.5 5t17.5 5q42 13 85 47l10 10zM612 145q-5 -4 -9.5 -8t-9.5 -8l-216 -80l2 74l177 83zM554 105q-39 -21 -78 -36q-22 -8 -44.5 -15.5t-46.5 -12.5h-4z M368 392q-15 -5 -19 -6l19 28v-22zM252 241q1 -8 1.5 -16.5t3.5 -29.5l-38 -3zM356 35q-33 -7 -65 -9l-136 64l61 90l43 3l1 -3h7q20 0 66 8l25 2zM266 24h-35t-89 18h1l-14 4l22 33zM341 385q-2 -2 -19.5 -5.5t-35.5 -8.5l2 1l-21 -7l-4 59l101 -6zM217 210l-58 216l96 -6 l4 -58q-7 -2 -9 -4v-4v-11q0 -2 0.5 -7.5t0.5 -25.5v-50zM173 160l-71 82v7q-1 5 -1 174v3l47 -3l59 -215zM98 60q-40 22 -40 57t31 54q15 9 15 36v6q0 4 -1 12l61 -70zM261 431l51 44l53 -50zM104 445l84 139l65 -61q0 -3 1 -6h4l2 1l41 -39l-51 -43zM99 458v7v109v17 l23 49l55 -51zM100 619v12q0 7 2 23l10 -9zM310 485l28 47l12 4t13 4l6 -110zM278 519q15 1 47 9l-21 -34zM159 628l94 9q-1 -12 -1.5 -31t-0.5 -34v-30zM94 694l-2 6l246 85l6 -99q-25 -2 -61 -6h-1q-8 -1 -19 -6q-6 -4 -9 -26l-101 -9zM91 713v9q0 6 1 9q5 16 11.5 26.5 t14.5 18.5q25 27 76 37q46 8 138 8l1 -24zM367 506l7 38l5 2l-7 -115zM366 541q2 1 3 1t3 1l-5 -27zM351 819q3 0 7.5 -0.5l13.5 -1.5l21 -23l-7 -109q-5 0 -10.5 0.5t-12.5 0.5l-5 7zM383 815q5 0 10 -1v-9zM379 522l50 -66l-55 -29zM387 550q11 6 19 13q14 11 24.5 21 t18.5 18l146 -57l-160 -82l-50 66zM411 812q21 -3 36.5 -6t25.5 -5l133 -90q18 -42 13 -79t-12 -72l-3 -2l-145 56q13 16 13 37t-69 32zM516 787q32 -13 63 -42zM501 485l37 -94l-76 15l-17 17q-9 -4 -20 -8l-44 9zM644 409q2 -4 5 -9.5t6 -10.5h-1l10 -19l-8 2z" glyph-name="B"/>
<glyph horiz-adv-x="635" unicode="C" d="M482 273l28 22v-1q3 2 6 5t6 5q4 4 8 7t8 5h-1q2 2 4 3t3 2l-13 -112zM555 328q24 11 58 11q36 0 51 -45l-38 -105q-17 -18 -45 -39l-41 54zM667 266q0 -24 -16 -47zM500 230l-144 -40v5h1q10 4 35 19t57 35q2 2 4.5 4t6.5 4q12 8 13 9zM556 151l-201 -113l5 141l144 40z M562 137q-20 -14 -45 -28.5t-55 -31.5q-11 -8 -25 -15t-29 -12l-17 -5l169 96zM266 171h5q4 0 15 1l-28 -22zM340 33q-8 -2 -15.5 -3.5t-16.5 -2.5l-75 51l23 60l46 37q11 2 22.5 6.5t21.5 8.5zM284 26q-17 1 -33 2.5t-31 4.5l10 30zM229 383l-3 -4l-3 3zM221 370 q-1 -2 -1.5 -4t-2.5 -5q-5 -10 -6 -11q-21 -45 -21 -70v-29l-60 100l86 24zM249 154l-15 24q10 -5 21 -6zM204 51l-153 176v30q0 16 1.5 33t5.5 34l64 18l78 -130q4 -9 9 -15v-1q1 -1 1 -2l1 -1l29 -47zM195 40q-33 10 -57 30q-50 38 -70 83v-1q-5 11 -9 26.5t-6 31.5 l143 -166zM201 384l17 121l59 -36q-1 -1 -11 -19q-6 -11 -6 -12q-5 -8 -7.5 -12.5t-3.5 -6.5q-4 -7 -7.5 -13t-7.5 -13zM98 359l26 124q4 8 8 15.5t8 15.5q3 6 9 15q2 2 3 5t3 5l53 -32l-17 -122zM65 354q8 32 23 58l-1 -1l10 20t10 21l-19 -92zM250 493l43 3 q-3 -6 -6 -10.5t-7 -11.5zM163 550q15 24 32.5 47.5t43.5 54.5l67 -135q-5 -9 -6 -11l-59 -4zM256 651l202 54l-20 -53q-38 -17 -85 -74q-1 -1 -4 -5t-10 -12q-8 -10 -13.5 -17.5t-9.5 -13.5zM252 669q13 16 17 20q8 10 14 16t8 9q6 7 12.5 13t14.5 13v-1q15 15 29.5 28 t25.5 19h-1q10 7 24 15l79 20h8h12l-38 -103l-202 -54zM474 713l107 -143q-12 -12 -26 -15t-27 1t-22.5 14t-12.5 24q0 1 -2 9l-3 12q-4 10 -5.5 17.5t-2.5 14.5q-3 12 -12 12q-8 0 -14 -1zM495 756l106 -59q1 -11 1.5 -26t0.5 -32q0 -35 -15 -59l-106 142zM521 816 q41 -12 64 -54q8 -22 14 -51l-96 54z" glyph-name="C"/>
<glyph horiz-adv-x="605" unicode="D" d="M518 447l-37 -121l-43 33q25 31 39 67q1 4 2 7.5t2 7.5zM603 457l-67 -170l-47 37l37 121zM642 458q-3 -106 -73 -192l-23 17l67 171zM448 343l-58 -38v2q11 10 23 23t21 24zM505 293l-66 -134l-43 137l57 38zM556 250q-41 -46 -104 -90l60 124zM388 296h-12q4 4 7 5l3 3 zM410 219l-91 -67l14 114l30 20h26zM430 146q-11 -7 -22.5 -13.5t-24.5 -14.5v1q-13 -8 -30.5 -16t-39.5 -18l7 54l91 68zM231 383l-1 -4l-4 2zM229 369v-7q0 -3 -1 -7q0 -1 -1 -5t-3 -9q-1 -7 -1 -14q0 -6 -1 -13q0 -12 -2 -31.5t-3 -30.5q-1 -5 -1.5 -9.5t-0.5 -10.5 l-110 105l115 36zM305 146l-72 69l6 2l6 2q19 10 38 19q11 5 19.5 10t16.5 9zM290 75l-8 -4l-214 150q1 13 2.5 25t4.5 32q1 10 2 19t2 25l19 6l116 -111v-3q0 -5 1 -5t6 1l77 -73zM271 66q-1 -1 -3.5 -2.5t-6.5 -3.5q-4 -1 -10 -6q-3 -1 -17 -8q-2 -1 -4.5 -2t-5.5 -3 q-8 -6 -21 -11t-29.5 -7t-35 0t-37.5 10l-30 28q-13 22 -13 46t3 49l5 52zM181 373l24 66l30 -3q0 -3 -1.5 -19t-2.5 -28zM161 368l-51 82l87 -11l-24 -67zM81 345q1 14 2 23.5t4 33.5q1 3 3 12l-1 -1q0 1 2 11t5 26l5 -1l50 -82zM99 465q0 3 0.5 5.5t1.5 12.5l94 195 l56 -98q0 -6 -0.5 -11.5t-1.5 -10.5q-2 -11 -4 -25t-4 -31q-1 -3 -1.5 -11t-2.5 -21v-10q0 -5 -2 -12zM104 516q0 4 0.5 15.5t0.5 23.5q1 6 1.5 12t0.5 9q1 4 1.5 18.5t2.5 30.5q4 43 4 56v17q0 4 -1 12t-1 11l25 43l47 -80zM112 739v7v16q0 15 5 28l12 -22zM236 628l24 -1 l-2 -8q0 -6 -0.5 -8.5t-2.5 -7.5q-1 -2 -1 -5zM184 723l129 32l9 -96q-11 1 -24.5 1.5t-32.5 0.5v-1l-3 -9v-5q0 -2 -1 -6v-3v-1l-28 1zM136 812q20 13 56 13t59 -3t43 -9q7 -2 12 -3l4 -43l-130 -33zM458 602q-13 16 -34 29q-4 2 -6.5 3t-4.5 2l73 10zM325 807v-1h5 l175 -59q8 -5 14.5 -9.5t12.5 -8.5l-44 -70l-99 -13q-11 4 -23.5 6.5t-27.5 4.5zM482 449q1 5 3 13v-2q0 2 1 3v3v2l11 -16zM469 598l111 -130l-76 -12l-16 24q1 1 3 12q0 60 -26 100zM549 714q15 -14 31.5 -34t33.5 -47q27 -48 28 -150l-52 -8l-111 129z" glyph-name="D"/>
<glyph horiz-adv-x="667" unicode="E" d="M540 415l-2 -13q-12 -4 -30 -4q-13 1 -31.5 2t-29.5 1t-17 0.5t-22 0.5l-24 18zM557 412q-3 -2 -5 -3l-4 -2l1 5h8zM632 237l10 2q33 -13 46 -45zM398 401q-2 -1 -6 -1t-9 -1l-5 18zM437 223q6 5 26 4.5t37 1.5l-57 -26zM695 165l-170 -96q-10 0 -19.5 -0.5t-19.5 -1.5 l-35 126l86 37l13 1h12q20 0 43 3zM697 152v-7q-2 -25 -22 -44.5t-47 -26.5h6l-4 -0.5l-12 -1.5t-14 -1h-7q-11 -1 -25.5 -1.5t-21.5 -0.5zM379 398q-2 -1 -4 -1t-6 -1l5 21zM455 123l-144 7l16 71q10 1 20.5 3t19.5 4t15 3l6 1q9 2 17 4t21 5zM467 66q-40 -3 -88 -12 q-17 -3 -38.5 -7.5t-48.5 -9.5l18 79l145 -7zM363 396q-2 -2 -12 -3q-2 0 -12 -3q-2 0 -5.5 -0.5t-8.5 -1.5l43 30zM223 312v-5q0 -3 -1 -8.5t-1 -10.5l-9 16zM301 144l-27 48q3 0 14 2t26 4zM273 45l-222 108v11v12t1 11l152 105l15 -25q-1 -5 -1 -12v-32q0 -8 -2 -12 t-2 -6q0 -9 18 -13l-3 1h3q3 0 8 -1q10 -1 12 -1h8l34 -59zM264 31l-3 -1q-26 -6 -45 -6h-15h-11q-4 0 -8.5 0.5t-12.5 1.5q-46 1 -79 36q-30 31 -37 75l212 -104zM313 386q-2 -1 -4 -1q-1 0 -3 -1q-7 -2 -14 -3l-14 -2l-4 66l93 -22zM198 311l-62 165l129 -32l5 -67 q-5 -1 -13.5 -2t-14.5 -2q-8 -2 -12 -12t-4 -20l-1 -12zM70 229l-9 29q1 8 2.5 21t4.5 26v-1q2 10 4 24t4 31q4 34 6 57q3 22 3 67l38 -9l63 -165zM270 453l63 81l36 -105zM295 628q-2 -1 -5 -2t-7 -2l11 8zM103 498l146 103v-7l-2 -6q0 -7 -1 -17t-1 -18q1 -3 1 -10t-2 -12 v-6q17 2 20 3q16 2 20 3l38 6l-60 -78zM84 509v3v54l118 204q4 1 14 3l-1 -1q6 2 12 3.5t12 3.5l47 -138l-192 -135zM84 588v44q0 13 -0.5 23t-1.5 35q0 32 29 53q25 18 62 18q7 4 14 5zM337 539q16 2 30.5 3t28.5 2l3 -2l-26 -108zM296 667l130 -9l-3 -12q-8 0 -15 -3 q-38 0 -63 -5t-36 -7zM264 774l197 38l-35 -142l-130 8zM407 544h8h3l89 -23l-128 -89zM477 539q3 -1 7 -2t7 -2l-2 1q14 0 29 -4l-4 -3zM484 819q5 0 16 3q2 1 7 1l118 -113q0 -19 -14 -42q-27 -11 -58 -16q-10 -1 -25 -1.5t-36 -0.5h-22q-13 0 -28 -2zM523 824 q21 0 38 -10l-1 1q23 -12 41 -36.5t23 -50.5zM521 523l-35 -99l-104 4zM533 527q16 -6 25 -18t13.5 -25t5 -23.5t-2.5 -13.5l1 1q0 -13 -7 -23l-69 3z" glyph-name="E"/>
<glyph horiz-adv-x="556" unicode="F" d="M439 426l-18 -53q-12 -2 -19.5 -3t-10.5 -2q-5 -2 -18 -3l-50 54zM549 427q-8 -23 -34 -34l-53 -12l2 1q-14 -5 -29 -7l15 46zM364 364q-3 0 -9 -1t-11 -2l-29 -5l2 59zM311 356q-11 -2 -13.5 -2.5t-7.5 -0.5l23 59zM211 143l-4 -47l-13 8l15 38zM206 85 q-3 -21 -10 -35.5t-16 -22.5q-4 -7 -17 -7l29 73zM285 352q-17 -3 -23.5 -4.5t-20.5 -5.5l-8 33l77 41zM204 159l-128 103q0 6 0.5 12.5t1.5 15.5v-2v2l147 77l6 -29q-7 -5 -9 -8t-2.5 -16.5t-1 -43.5t-5.5 -87zM185 125l-110 45v70v8l120 -97zM139 20q-17 1 -37 9h1 q-29 11 -29 31q0 23 1 27q-1 3 -1 31q0 9 1 12v29l102 -42zM193 362l-8 93l122 -34zM124 329l-32 141q0 1 1 2v5l83 -23l8 -93zM78 310v1q-2 6 -3 12t-2 17q-1 4 -1 7t-1 7q-7 16 -9 27t-1 20.5t4.5 19.5t8.5 24q2 1 5 5t4 6l29 -129zM196 457l24 53l88 -83zM113 481l39 91 l60 -57l-24 -54zM93 490q1 11 1 23v28q1 31 1 41q0 11 -4 16q-2 1 -6 5q-8 1 -16 3t-17 8l-12 37v10q0 6 1 12l99 -94l-38 -91zM193 541l54 -16v-10v-24h13q2 1 10 3.5t11 3.5q5 1 10 1t10 1l10 -71zM115 621l161 37l4 -26q-9 -3 -12 -4.5l-7 -3.5h1q-16 -10 -16 -48 q0 -39 1 -43l-59 17zM66 672l197 67l9 -72l-162 -38zM47 695q4 10 10 17q16 17 67 37t130 38l5 -39l-197 -67zM309 502h1q22 4 80 12l27 -25l-99 -58zM398 515h6q13 3 32.5 5.5t29.5 2.5l-47 -28zM287 738l202 -60q-13 -2 -28.5 -5.5t-34.5 -7.5q-18 -4 -30 -6.5t-17 -3.5 q-6 -1 -13.5 -3t-14.5 -4q-3 -1 -7.5 -1.5t-11.5 -2.5q-13 -2 -17.5 -2.5t-11.5 -2.5l-3 1zM288 794q69 16 128 23.5t101 7.5l67 -35q7 -15 7 -42q0 -25 -12 -39.5t-43 -21.5l-17 -3l-226 67zM547 822q15 -5 24 -12zM376 457l39 -28l-94 -5zM491 522q63 -8 63 -42v-27 t-1 -14l-127 -6l-39 27z" glyph-name="F"/>
<glyph horiz-adv-x="760" unicode="G" d="M563 442l-78 -36l-68 17zM737 462l-20 -111l-217 54l77 36zM767 463q2 -20 0.5 -48t-9.5 -66l-2 -6l-24 6l19 112zM479 252l1 1q1 0 2 1l-2 -4zM558 380l-17 -28q-7 -2 -13 -6q-2 -1 -6 -2t-9 -3q-23 -8 -24 -9l1 1q-5 -2 -9.5 -4t-9.5 -4q-7 -2 -17 -6l-37 96zM588 368 q-7 -2 -21 -7l1 1q-8 -4 -11 -4l10 16zM727 334l-215 -151l-23 61l16 27q22 19 45 42v-1q18 20 29 34t16 21zM748 325l-168 -200q-9 -7 -15 -12t-19 -10l-28 75l215 151zM741 299q-3 -8 -5.5 -13.5t-8.5 -15.5q-41 -61 -106 -114zM444 316q-24 -8 -44 -8t-42 27q-2 2 -3 3.5 t-2 3.5l55 70zM473 223l-257 -61l28 35q14 -8 74 -8q61 0 147 54zM520 87q-14 -8 -25.5 -14t-19.5 -9q-5 -1 -10.5 -3t-9.5 -3q-5 0 -7 -1l-280 35l47 60l257 61zM415 47q-4 -2 -11.5 -4t-20.5 -6q-7 -1 -12 -1t-9 -1q-4 0 -13.5 -1t-25.5 -3q-10 -1 -20.5 -1.5t-28.5 -0.5 q-17 0 -34.5 3t-33.5 11q-24 10 -46 24l8 11zM349 348q-10 16 -11 31l66 38zM170 125l-59 116l88 51v-1q0 -37 22 -69h-1q6 -9 13 -16zM136 86q-29 27 -47 58q-18 28 -27 64l37 22l59 -115zM338 383v5q0 23 13 39l51 -6zM159 283l-7 164l100 -12q-7 -10 -11.5 -18.5 t-8.5 -16.5q-26 -57 -32 -93zM105 256l-41 110q12 39 33 80v-1q1 2 1 3t1 2l41 -5l7 -165zM57 232q-5 27 -5 55q0 29 6 56l34 -90zM354 431q6 9 16 17l33 -23zM121 461l88 95l90 -62q-22 -25 -40 -49zM109 471q14 29 30.5 55t34.5 50l21 -14zM374 452q10 8 28 19l3 -41z M290 510l35 12l-11 -11q-2 -2 -4.5 -5t-5.5 -6zM184 588q10 14 13.5 18t9.5 11l174 28l6 -63q-7 -6 -13 -12l-13 -13q-5 -5 -9 -8.5t-11 -9.5l-57 -20zM218 629q45 49 96 86q5 4 11 8t11 8v-1q2 2 6.5 4.5t9.5 6.5q2 2 6.5 5t9.5 7l8 -98zM409 475q5 3 16 8t20 8q4 2 7 3 l-39 -64zM393 701l90 -52q-17 -7 -37 -21t-45 -34zM391 768q13 8 25 14.5t25 11.5q28 13 56 18l117 -36l-76 -125q-11 6 -21 6q-9 0 -17 -2l-105 60zM528 816h10q37 0 60 -22zM453 483l132 -35l-168 -22zM467 500q24 9 57.5 19t61.5 17q9 3 11.5 3.5t6.5 1.5l37 -81l-48 -6 l-133 35zM557 646l9 -19q-2 2 -6 5t-7 7zM618 544q7 2 14 3l14 2t19 1.5t29 0.5q35 0 57 -34l-1 1q10 -13 14 -34l-113 -14zM627 752q10 -24 10 -81q0 -56 -24 -56q-25 0 -28 1l-17 40z" glyph-name="G"/>
<glyph horiz-adv-x="545" unicode="H" d="M239 758h1h-1zM471 418l-48 -98l-4 5l1 13v6q0 24 -6 32l-36 -3l-34 40zM583 419l-1 -6l-99 -157l-52 61l48 98zM581 388l-13 -224l-74 87zM372 373l-24 -3l-9 40zM513 202l-100 -32v1v5q0 9 1 14q1 2 1 6t-1 14l3 42v12v10t1 12v19q1 2 1 8zM554 149l-137 -86l-4 20 q0 6 -0.5 15t-0.5 16q0 8 0.5 21.5t0.5 21.5l106 33zM566 129l-2 -51l-2 -4l-3 -7.5t-4 -13.5q-17 -42 -49 -42q-33 0 -59 13q-15 9 -23 20l-2 9l137 85zM342 370l-26 -3h-4q-8 0 -13 -1l35 43zM239 286v-20q0 -12 1 -27v-8l2 -29l-65 10l61 74h1zM242 190v-2v-19t-1 -19 q-1 -18 -3.5 -34.5t-6.5 -28.5l-129 25l72 88zM228 76q-20 -50 -58 -50q-37 0 -72 29q-11 13 -15 27l16 19zM294 365h-6q-2 -1 -4 -1t-4 -1l4 7l48 40zM198 251l-78 -22l120 103v-5q0 -2 -0.5 -10.5t-0.5 -13.5l-9 -13zM97 131l-17 4q-3 12 -3.5 29.5t-0.5 25.5l33 29l79 22 zM80 112q0 3 2 11l6 -1zM275 367l-50 68l106 -20zM121 242l-36 215l130 -25l49 -68l-3 -3q-2 0 -5.5 -0.5t-8.5 -1.5q-5 -2 -6 -15zM76 212q1 6 1 12q0 7 1 24q6 69 6 121l23 -131zM167 450l94 29l67 -60zM143 458l-16 137l125 -111l-93 -29zM85 473q1 36 2 71.5t2 80.5 l27 -24l15 -137zM220 522l122 -41l-9 -59zM258 518q3 -2 14.5 -1t50.5 6q5 1 13 2t9 1l-6 -36zM156 585l96 34l-4 -97v-1l-31 10zM90 653l2 16l153 76q11 -23 11 -54l-3 -59l-100 -34zM93 682q15 119 70 119q56 0 76 -42v-1q1 -1 1 -2l1 -1zM358 527q5 1 12 1q45 4 47 6 q2 4 3 7l37 -34l-115 -82zM422 549q1 7 1.5 13t0.5 12v16v24l61 -82l-25 -18zM424 631q0 6 1 7v10q0 9 1 12l4 95q0 9 15 26l153 -86l-5 -81l-102 -73zM453 790l7.5 7.5t7.5 6.5q10 9 16 12q5 2 23.5 4.5t39.5 -5.5l36 -32q15 -26 15 -75zM423 473l90 -48l-167 -7zM575 579 l8 -147l-60 -3l-90 49zM592 589l-5 -86l-4 79z" glyph-name="H"/>
<glyph horiz-adv-x="637" unicode="I" d="M447 392l-6 -59l-80 69zM577 221l11 2l3 -15zM598 224q4 1 10 1q47 -29 51 -70l-56 48zM440 326l-5 -56l-33 -43l-44 169zM433 251l-4 -38v-4q0 -6 1 -6q16 6 35 6t26.5 0.5t11.5 0.5q8 2 13 2h9l-94 -86l-24 92zM614 169l-102 -108q-5 -1 -19.5 -3t-39.5 -6l-17 66 l107 97q4 1 7 1.5t7 1.5zM656 130q-2 -10 -7 -22.5t-13 -26.5q-4 0 -8.5 -0.5t-10.5 -1.5h1q-28 -6 -46.5 -9t-45.5 -7l93 99zM378 292l-84 -51l58 155zM404 178l-144 -38l33 91l84 50zM428 72l-126 -44q-22 -3 -43 -6.5t-35 -6.5l1 1q1 0 -9 -2l43 115l144 38zM429 49 q-11 -2 -22 -3.5t-24 -3.5l44 15zM307 291l-19 40l7 59l53 10zM275 221l3 22q0 9 1 16t2 13v-1l5 41l13 -27zM261 182l-1 -1q0 1 1 2v-1zM258 176l-2 3l4 2zM190 9q-4 0 -7 -1l-80 138q10 2 16 3.5t16 2.5l-1 -1q2 1 7.5 2t15.5 3l19.5 4.5l6.5 1.5q16 3 24.5 4.5t14 2 t9.5 1.5t11 3l7 -6zM170 6q-22 -3 -39 -3t-44 6h2q-1 1 -6 1q-20 4 -30.5 19.5t-10.5 27.5v17q1 3 1 26q0 21 36 38q2 1 5 2t7 3zM296 396l5 38v-1v4l46 -31zM301 441q2 11 3 20.5t2 19.5l10 1l32 -72zM251 619q-11 -1 -25 -3.5t-22 -3.5t-11 -1t-9 -2l53 42zM307 491v4 l1 -3zM162 608q-55 2 -77 27l115 91l29 -66zM79 644q-10 14 -10 45q0 30 27 48.5t84 27.5l13 -30zM308 512l1 1l73 19l-30 -119zM232 690l171 -53l-23 -94l-71 -19q3 39 3 102q-21 -2 -31 -2t-15 -2h2h-5zM202 769q2 1 9 2.5t13 1.5l212 10l-34 -134l-171 54zM371 792 q7 0 13 0.5t12 1.5q4 1 14 2t26 2l-1 -4zM389 542l46 -27l-78 -101zM422 666l49 -32q-4 -13 -6.5 -33t-3.5 -48l-22 -28l-45 27zM440 732l112 -58l-18 -24q-16 -2 -29 -4t-27 -4l-52 32zM460 800q3 0 7.5 0.5t10.5 0.5q14 1 35 3t43 3l69 -6q1 -2 4 -5.5t7 -7.5l-78 -102 l-112 57zM409 472l43 -40l-4 -35l-89 10zM461 529v-6q0 -8 -1 -11l-7 -67l-33 31zM596 696l13 -33q-16 -5 -29 -5q-12 0 -15 -1zM653 761q11 -20 11 -50q0 -31 -45 -46l-14 34z" glyph-name="I"/>
<glyph horiz-adv-x="785" unicode="J" d="M622 384l-101 -67q1 13 1.5 34t0.5 50zM684 369q0 -21 -1.5 -41.5t-3.5 -35.5l-125 -109l-41 86q4 13 6 33v2l112 74zM677 275q-2 -17 -4.5 -34.5t-6.5 -34.5q-4 -14 -6 -22t-3 -15q-7 -12 -7.5 -14t-0.5 -3q-3 -10 -5.5 -15t-6.5 -10h1q-13 -24 -31 -41l-43 90zM551 146 l-182 36l6 24q16 -3 34.5 -3.5t36.5 3t33.5 13t24.5 27.5zM577 85l-235 -17l28 103l183 -35zM581 64q-6 -4 -13.5 -8t-17.5 -9q-54 -23 -89 -23q-18 0 -32 0.5t-26 2t-23.5 4.5t-24.5 7l-16 4l3 12l235 18zM351 173l-153 104l22 13q8 -9 17 -17q17 -14 40 -27.5t44 -22.5 q4 -2 18 -7t21 -7zM314 51q-29 11 -59.5 26t-68.5 39l-78 98l83 51l153 -104zM149 140q-39 26 -66 53l17 10zM185 279l7 38l21 -21zM69 210q-14 18 -22 39l17 54l106 33q2 -1 8 -5l4 -4l-11 -55zM42 273v7q0 11 1 14l6 2zM156 345v1h1zM49 317q0 1 3 6t3 6q19 33 43 33 t43 -8v-8zM341 640q-4 -1 -7 -1.5l-9 -1.5q-58 -10 -85 -12l70 101zM224 625q-27 0 -43 12l2 -1q-32 18 -32 49l76 96q11 4 23.5 7.5t28.5 5.5l22 -59zM152 705q8 44 50 66l1 1q1 0 2 1zM333 691l126 27l-8 -70q-45 0 -99 -6zM299 798q37 5 83 10t84 8h2l-10 -82l-126 -26z M466 667l198 -104l1 -8v1l2 -12l-149 -69l-4 26t-4 27q-16 93 -25 105q-6 11 -22 14zM494 817l46 2l250 -143q-6 -8 -14 -13t-22 -1l1 -1l-12 2t-11 2h1q-7 1 -16.5 1.5t-22.5 0.5q-37 0 -37 -31q0 -11 1.5 -25t3.5 -31l-186 97zM564 820q31 1 50 1h27h31h23t17 -1l97 -103 q-1 -8 -4.5 -16.5t-7.5 -13.5zM728 818q84 -14 84 -46v-27t-1 -15zM523 407l1 2q0 6 -1 13.5t-1 15.5l59 -41zM629 509l56 -96v-2v-29l-94 16l-70 49q0 8 -1 11zM669 523l2 -10q2 -20 3.5 -27t4.5 -16q1 -11 1.5 -14t0.5 -8l-36 64z" glyph-name="J"/>
<glyph horiz-adv-x="620" unicode="K" d="M473 400l9 -12l-70 -9l-52 46zM487 383q16 -20 30.5 -39t32.5 -44l-13 -27l-116 101zM558 289q1 -2 14 -20q7 -12 24 -36q2 -4 5 -8t5 -9l-59 52zM434 351l-48 -93l-30 161zM510 280l-97 -95l-4 5l1 -1q-1 1 -2 2.5l-3 4.5q-3 3 -6 7l-9 47l48 93zM628 172l2 -5l-120 -95 q-23 22 -45.5 49t-43.5 54l96 95zM635 152q12 -35 12 -78q0 -44 -44 -44q-43 0 -81 32zM371 303l-49 -7q-5 6 -9 10.5t-7 7.5q-4 5 -7.5 8.5l-6.5 6.5l58 89zM384 221q-6 6 -15 19q-2 3 -5.5 7.5t-8.5 10.5l1 -1q-4 4 -7 8t-7 8q-5 5 -8.5 9.5t-5.5 6.5l42 6zM226 210l2 -26 l3 -51q0 -28 -10 -57l-67 22zM214 65q-4 -5 -9.5 -10t-13.5 -10h1q-20 -15 -37 -15t-33 9l29 47zM301 358l-111 100l155 -32zM190 196l-110 279l101 -21l111 -100l-10 -15q-25 27 -42.5 16.5t-20.5 -44.5v-13q1 -5 1.5 -17.5t2.5 -32.5zM115 88l-57 202v7v174l12 -3 l111 -278zM92 64q-5 6 -7 13q-3 8 -6 18.5t-5 24.5q-4 16 -6 33l-4 34l-4 57l45 -160zM236 455l20 87l89 -109zM58 494v3l151 95l4 -5q0 -3 -0.5 -17t-0.5 -21q0 -6 5 -6t23 12l7 -9l-21 -86zM58 507v61l70 118l73 -89zM58 594v10q1 3 1.5 5t1 7.5t1 16.5t1.5 32q2 14 3 24 t2 16t3 16.5t4 24.5l42 -52zM283 515l11 48l54 -127zM248 561q1 1 8 6.5t11 7.5q5 5 8 7t7 6l7 -16l-11 -49zM208 610l9 15q-1 -6 -1.5 -12t-1.5 -11zM111 731l82 63l36 -86l-4 -28q-1 -7 -2 -13t-2 -13l-20 -32zM79 774q1 3 1 7t1 9q1 1 4 4.5t4 4.5q11 14 16 18q11 8 34 8 q24 0 47 -18l-83 -63zM324 502l41 72l-13 -138zM288 592q7 5 16.5 13t22.5 18q10 9 36 30l7 -2l-7 -67l-41 -72zM211 781q15 -23 18 -43zM365 528l58 -39q-10 -9 -10 -15q0 -5 4 -12l-61 -29zM379 626l120 -75l-19 -16l-10 -8l-10 -8q-8 -5 -16 -11t-16 -13l-58 39zM390 675 q7 6 16.5 14t20.5 19l21 18h-1q5 5 9.5 10t9.5 10l7 7t19 17l122 -108q-2 -3 -4 -5t-3 -4l-22 -22l-22 -22q-13 -13 -26.5 -25t-27.5 -24l-123 78zM501 777q5 5 10.5 9.5t10.5 9.5l-1 -1q10 10 19 15l105 -84q0 -23 -10 -40q-2 -2 -6 -7t-8 -9zM550 814q13 5 31 5t44 -36 q7 -11 12 -22t7 -21zM421 458q3 -4 10 -11h-1q2 -3 5 -5q7 -7 8 -9q13 -13 25 -28l-107 24z" glyph-name="K"/>
<glyph horiz-adv-x="617" unicode="L" d="M491 287q73 32 91 32t34 -11l-74 -74zM625 299q3 -3 5 -6q1 -1 2 -3t3 -4q8 -11 11.5 -25t3.5 -29l-45 -58l-52 54zM647 211q-6 -21 -27 -36zM529 227l-196 -96l8 96q6 2 8 2q19 4 42 15l-1 -1q3 2 9 4t15 6q7 2 11 4l6 3q14 6 21.5 9.5t25.5 10.5zM576 173l-244 -109 l4 59l197 95zM585 159q-3 -2 -9.5 -5t-17.5 -9l-24 -11q-4 -2 -8.5 -3.5t-9.5 -3.5q-14 -6 -39 -18q-7 -4 -29 -12l-6 -3t-11 -4q-3 -2 -7 -3.5t-9 -3.5l-37 -15q-1 -1 -6.5 -2.5t-15.5 -5.5q-4 -1 -9 -3t-13 -5v5l245 109zM234 302l-7 -45l-19 20zM323 154l-48 51l32 8 l21 9zM309 58l-238 83l130 125l23 -24l-3 -18l3 -11l-1 1q3 -11 3 -15q7 0 15 1t20 3l55 -59zM302 42q-18 -4 -32.5 -7t-25.5 -5q-23 -3 -71 -3q-49 0 -88 45q-18 24 -26 52l5 6l238 -83v-5zM228 312l-8 113l34 -1l-17 -104zM125 219l-58 167q2 10 3 19t3 19l135 -4l8 -113z M69 170l-16 95q2 22 4.5 47t6.5 54l53 -150zM52 158q-3 23 -2.5 39t0.5 25l10 -56zM183 432l2 49l74 -26l-4 -25zM103 436l5 70l67 -23l-2 -49zM75 438l12 74l12 -4l-5 -70h-19zM90 522q2 9 4.5 18.5t4.5 19.5l76 117l96 -145l-9 -56l-12 -9zM108 604l3 14q1 2 2.5 11 t4.5 23q4 14 5.5 22.5t2.5 10.5l-1 -2q1 16 8 41q0 4 1 5l29 -41zM271 552h4l-1 -5zM188 687l110 4l-21 -128h-8zM142 763q2 6 5.5 13.5t6.5 12.5l134 -10q15 -24 15 -62l-1 -3l-2 -11l-114 -5zM159 796q18 27 54 27q37 0 66 -32l3 -3z" glyph-name="L"/>
<glyph horiz-adv-x="673" unicode="M" d="M488 438l-5 -62l-103 41zM604 457l16 -132l-73 29q0 3 -0.5 8t-0.5 14t-0.5 24.5t-0.5 40.5q-5 -8 -11.5 -20t-14.5 -28q-2 -4 -5 -9t-8 -14l-12 5l5 62zM683 467v-19q0 -27 1 -66.5t1 -79.5l-52 21l-15 132zM491 369l-82 -18l-31 63zM501 361l-18 -32q-4 -8 -7.5 -14.5 t-7.5 -13.5q-6 -11 -10 -17.5t-6 -10.5l-1 -2l-36 74l83 18zM574 333l-26 -28v38zM686 283v-21t2 -36l-135 -118q-6 28 -6 82l1 2v94l35 37zM689 209q1 -10 1 -20q0 -9 1 -19t2 -27.5t3 -43.5q0 -29 -17 -49q-17 -18 -60 -18q-42 0 -62 62zM429 294l-111 22l55 94zM442 255 q-2 -2 -4 -6t-6 -9q-2 -4 -5 -8.5t-7 -11.5v1q-18 -31 -54 -31t-73 72l25 43l111 -22zM187 69l-3 -19q-1 -1 -1 -2l-1 -1l-9 -2zM327 342l-54 -38q-1 0 -2 5l96 102zM287 274q-3 6 -5.5 11.5t-6.5 14.5l45 32zM154 45l-14 119l61 65l1 -8q-2 -17 -4 -31.5t-4 -25.5 q-2 -26 -3 -54zM138 21q-3 -1 -6 -1q-2 0 -4 -1q-3 -1 -27 -1q-21 0 -38 41v-1q-1 4 -2.5 7t-3.5 9l75 79l14 -117zM283 327l-26 89l108 -1zM268 316q-5 14 -12.5 32.5t-16.5 41.5h1l-10 22l18 -1l25 -89zM165 207l-21 206l72 -1l-1 -19l-5 -86q-2 -15 -2.5 -25.5 t-2.5 -32.5zM83 125l-22 75v7q5 59 9.5 109t9.5 92h52l22 -207zM51 99q-1 4 -2 7t-1 10t1.5 18.5t5.5 31.5l2 10l16 -53zM271 424l-18 120l112 -122zM82 430l4 32l119 128l38 -42l17 -121l-37 1l-4 10l-1 -10zM88 479q1 4 1.5 10.5t2.5 16.5q2 11 3 18t2 11t2 12.5t2 22.5 q1 3 3 30q0 5 1 9q3 21 9 49l8 15l73 -80zM284 521l74 50q3 -9 9 -24.5t8 -24.5q0 -3 3 -12l-8 -83zM196 623l135 35l3 -10q0 -3 10 -30l6 -18t5 -19l-75 -50zM136 696l142 80q4 -4 8 -10q6 -10 16.5 -35t24.5 -63l-134 -34zM125 715q1 4 2 7.5t2 6.5q0 3 5 21q2 6 4 13 t4 15q15 39 54 39t74 -32l-138 -77zM382 496l2 -4q2 -6 3 -10l-1 2q1 -5 1.5 -9t0.5 -10q6 6 22 45l35 7l-70 -93zM415 522q19 48 54 145q2 6 4.5 12t4.5 13l70 -31l-98 -132zM483 707q3 6 7 16.5t9 22.5q24 41 53 43l46 -16l9 -6q1 -1 2.5 -2t3.5 -3l3 -3l-63 -84zM467 539 l47 -91l-133 -25zM552 647l23 -183l-54 -10l-46 91zM592 694l87 -116q1 -38 3 -90l-99 -19l-22 183zM635 742q2 -3 5 -6t5 -7q2 -5 6.5 -16.5t9.5 -28.5t8.5 -28.5t4.5 -18.5l3 -34l-73 97z" glyph-name="M"/>
<glyph horiz-adv-x="642" unicode="N" d="M258 406l-3 1v-3zM406 417q6 -8 8.5 -11.5t5.5 -9.5h-1q8 -12 22.5 -33t27.5 -38l-10 -23l-97 115h44zM507 415l-16 -40v10l1 30h15zM592 409l-70 -177l-55 66l9 18q2 -4 5 -7l5 -5q1 12 2 25.5t1 19.5l27 62zM657 402q1 -14 1 -31v-33q1 -17 1 -32v-29q0 -26 -3 -77 l-17 -102l-108 129l71 176zM417 343l-35 -36l-26 109zM497 245l-88 -43l-23 97l35 35zM595 123l-111 -51l-23 19q-8 7 -15 13t-14 13l-17 73l88 43zM642 61q-1 -2 -1 -4q0 -1 -1 -3q-18 -32 -52 -32q-37 2 -90 40l104 47zM387 269l-92 88l57 58zM216 270v-9q0 -11 0.5 -18.5 t1.5 -15.5l-30 15zM413 135q-15 14 -28 29.5t-24 29.5q-5 7 -9 14t-9 14l1 -1q-5 8 -9.5 16t-11.5 18q-4 4 -13 15.5t-19 23.5q-4 7 -8.5 13.5t-11.5 18.5l22 21l91 -89zM220 212v-1l8 -100l-1 1q4 -11 0 -29l-166 23l122 124zM225 74q-2 -4 -4 -7.5t-4 -8.5l1 1 q-17 -33 -35 -33h-30l-75 30q-10 12 -15 26q-2 10 -2 14zM120 28q-2 1 -9 1q-8 4 -11 8zM288 358l-7 56l67 5zM263 339q-5 7 -8.5 12t-9.5 15q-2 0 -3 4q-7 0 -7 9l-3 6l1 1q-2 2 -3 5l1 -2q0 3 -2 5q-2 4 -4.5 6.5l-4.5 4.5l51 5l7 -56zM205 281l-120 112l131 12q0 -3 1 -4 v-29q0 -9 -1 -12v-68zM93 176l-32 42v21q-2 12 -3 24.5t-2 27t-2.5 33t-2.5 44.5q-1 5 -1 8v9l22 2l119 -112zM62 152l1 10l-1 30l17 -23zM257 416l-26 63l115 -55zM145 408l-12 115l89 -43l26 -63zM49 402q-1 4 -1 8v9v14q0 2 1.5 33t5.5 91l66 -32l11 -115zM250 473l51 -2 l47 -46zM160 518l13 74l119 -115l-51 2zM56 570l2 40v71l11 8l91 -88l-13 -75zM227 550l83 12q13 -26 24 -41v1l28 -41l-12 -49zM193 587l97 14l16 -33l-81 -11zM62 720q0 1 0.5 4.5t0.5 6.5l171 3q5 -11 11 -25.5t14 -33.5l-1 1q2 -6 5.5 -15t8.5 -20q4 -8 7 -16t7 -16 l-96 -13zM65 747q13 64 54 64t61 -9.5t34 -28.5q6 -9 8 -12.5t6 -11.5zM367 474l10 -15l-21 -28zM484 606l-5 53l45 2zM479 669l-6 74v9q0 6 0.5 12t2.5 10l77 -70l-24 -33zM479 786q16 36 52 36q37 0 67 -27q2 -1 3.5 -2t3.5 -3l4 -4l-51 -71zM493 424v15l7 -16zM381 454 l3 -4l16 -24h-39zM531 649l76 -223l-98 2l-15 36v6v10l-9 107zM622 763l14 -30q5 -28 9.5 -67t6.5 -91q0 -11 0.5 -30.5t0.5 -35.5q1 -8 1.5 -11.5t1 -9.5t0.5 -19v-38l-37 1l-77 223z" glyph-name="N"/>
<glyph horiz-adv-x="803" unicode="O" d="M675 465l28 -116l-62 20q17 45 17 68v25zM814 485q0 -2 1 -4q0 -76 -26 -156l-73 23l-28 116zM713 332l-176 -206l-27 89q56 28 99 94q4 7 6.5 11.5t4.5 6.5q9 16 15 30zM780 304l-4 -12l1 1q-38 -98 -107 -157q-17 -14 -38.5 -27t-45.5 -24q-3 -2 -11 -5t-13 -7h-2 l-13 43l176 206zM333 199l6 -2l-6 1v1zM504 183l-82 7q45 3 69 16q2 1 3 1t2 1zM535 60l-7 -3.5t-5 -3.5q-9 -3 -14 -5t-11 -3l-179 -7q-9 2 -14.5 3t-9.5 2l-8 2t-10 3v-1l-8 2l63 133l170 -15zM303 154l-11 60q3 -1 15 -5.5t18 -6.5zM270 90l-121 18q-1 1 -2 1.5t-2 2.5 l115 122q5 -4 10 -7.5t10 -6.5l14 -77zM251 56q-2 1 -5 2l-6 2l-24 10q-9 5 -18.5 9.5t-23.5 11.5l87 -12zM226 401q-8 -27 -8 -61l-47 55zM149 142l-91 141q-3 20 -1.5 34t4.5 29q0 10 0.5 14t1.5 17l94 10l63 -73q6 -42 28 -67zM128 127l-7 10q-11 7 -25 30 q-7 13 -13.5 28t-12.5 33q-1 0 -4 11l69 -105zM311 538q-4 -5 -8.5 -10t-12.5 -15v44zM170 408l69 189l41 -37v-59q-4 -5 -7 -10l-6 -10q-23 -35 -36 -66zM67 402q1 4 1 6q0 3 1 5q6 28 14.5 54.5t22.5 51.5q19 36 38 66.5t39 56.5l44 -41l-69 -188zM212 645l243 72l-8 -74 q-17 -7 -32 -16t-31 -22q-17 -14 -33.5 -28t-31.5 -30zM200 664q38 46 75 71q108 76 183 87l-9 -92l-242 -72zM635 563q-8 17 -15 26l35 -13zM489 825l9 1l226 -95q9 -11 18 -23t17 -26q0 -1 9 -16q4 -11 5 -11l-110 -69l-56 21q-40 49 -73 49h-26t-14 -0.5t-7 -1t-4 -0.5 l-10 3zM527 828q67 0 134 -43q11 -7 21.5 -14.5t18.5 -15.5zM651 560l21 -87l-14 -2q-3 45 -18 82zM756 622l45 -61l3 -11q7 -31 9 -50l-128 -22l-21 86zM781 634q3 -9 6 -17t4 -16l-1 2v-1l1 -2l-20 27z" glyph-name="O"/>
<glyph horiz-adv-x="566" unicode="P" d="M233 641l1 1zM447 438l-5 -65l-11 -7v1l-14 -9l-9 -5l-77 66zM518 445v-4q-8 -8 -16 -16.5t-16 -16.5l-12 -12q-4 -4 -9 -7t-10 -7q-3 -3 -5 -4l5 57zM401 349q-17 -11 -36 -20.5t-34 -15.5l-5 101zM326 312q-3 -3 -7 -4q-2 -1 -4 -1t-4 -1l-4 15l15 91zM307 305 q-1 0 -2 -1l1 5zM299 314l-140 64l157 39zM292 300l-2 -1l-28 -9h1q-37 -12 -38 -16q-2 -5 -3 -16q-1 -12 -1 -25q0 -12 -2 -30l-126 153l60 15l140 -64zM216 192q-1 -8 -2 -21.5t-1 -15.5v-6q0 -4 -1 -14t-1 -18q0 -7 -1 -12l-134 143l2 99l10 2zM217 192v-1v1zM209 91v-7 q-11 -60 -54 -60t-62.5 21t-19.5 75l3 112zM208 395l36 37l71 -11zM79 366l1 49l23 37l122 -19q0 -3 1 -4l6 2l-35 -36zM81 436v16l8 -1zM244 436q1 0 7 2q8 4 15 7t19 9l30 -30zM187 444l37 19v-18v-7zM125 458l-10 154l109 -104v-35l-46 -23zM81 468l1 24q0 10 1 22t3 26 q0 11 1.5 38.5t-3.5 57.5l19 -18l10 -155zM289 456q8 4 15 8t15 9v-46zM131 614l182 105v-61q-66 -3 -79 -15l-1 -1v-1q-4 -11 -5.5 -40t-2.5 -77zM74 674l235 78v-23l-183 -105zM49 702q-1 4 -1 39q0 33 102 60q66 18 154 18l1 -60l-235 -77zM324 476q12 7 26 16q9 6 25 17 l-51 -79v46zM446 625q-2 4 -4 7l9 1zM328 818q5 -1 8 -1h9l176 -67l-67 -104l-26 -1q-25 13 -98 13zM408 809q5 -1 10.5 -2t10.5 -3l-1 1q63 -14 99 -37l-3 -3zM385 517l9 -80l-67 -12zM449 610l103 -121l-17 -26l-132 -22l-10 80l4 7q47 42 51 79zM529 726l67 -121 q-2 -22 -10.5 -47t-24.5 -54q-1 -1 -1 -2t-1 -2l-100 116zM550 750q9 -8 15 -18l-2 2q22 -25 29 -55q5 -23 5 -51l-58 103z" glyph-name="P"/>
<glyph horiz-adv-x="808" unicode="Q" d="M583 427l-6 -91l-121 70q1 3 1 6zM712 439l-30 -160l-95 55l7 91l10 1q2 -9 6 -28q0 -2 3 -24v-7q1 2 6.5 9.5t10.5 15.5q3 5 6 11t6 11q2 4 4.5 8.5t5.5 9.5zM813 446l-9 -33v1q-10 -40 -28.5 -76.5t-46.5 -74.5q-2 -2 -3 -4l-30 17l30 160zM553 342l-90 -70v1 q0 11 -1 22t-3 28q0 3 -1 6q-3 33 -3 43q0 21 1 26zM699 251l-210 -140l-21 151l92 70zM710 238q-3 -5 -6.5 -9.5t-7.5 -9.5q-1 -1 -16 -22q-6 -8 -6 -11t28 -43l2 -3l-112 -111l-12 12q-7 8 -15 16.5t-16 17.5q-2 3 -4 5l-3 3q-4 -2 -8 -3t-8 -3q-1 -1 -26 -10l-4 33 l210 140zM710 129q24 -42 24 -73q0 -30 -19 -50t-48 -20t-66 34zM465 167l-199 8l27 36q22 -5 48 -5t69 15q35 11 45 20zM473 59q-72 -22 -134 -22q-5 1 -10 1t-10 1t-14.5 2.5t-25.5 3.5q-4 1 -9.5 2.5t-11.5 3.5q-8 2 -18 5.5t-22 8.5q-11 4 -11 5q-5 1 -11 5l65 85 l199 -8zM246 169l-104 79l65 35q9 -33 37 -52q18 -11 36 -17zM188 99l-101 62q-12 20 -20 43l64 35l104 -79zM175 85q-37 20 -67 50l72 -44zM270 473l-6 -8l-18 17zM188 290l-35 221l81 -30l25 -23q-55 -86 -55 -122q0 -35 1 -38zM61 227q-10 36 -10 114q0 76 53 180l33 -12 l35 -221zM304 522l-14 -20l-14 -20h-1v65zM134 530l110 40l21 -18l1 -71zM114 540q4 7 12 20t14 22q8 12 16 23.5t16 22.5l62 -52l-110 -40zM181 640l3 4l255 57l-2 -58q-5 -2 -9 -5t-9 -5q-5 -4 -9.5 -6t-7.5 -4q-44 -30 -91 -93zM201 664q27 32 58.5 60t66.5 53h-1 q17 13 42.5 23.5t58.5 20.5h-1l6 2t5 2l-4 -109zM462 433q13 42 66 42zM668 572q0 2 1 1zM457 699l55 -32q-29 -4 -56 -17zM466 833q16 4 33 5.5t34 1.5l208 -212l-67 -43l-10 7q-12 37 -38.5 58t-49.5 21h-29q-6 0 -14 -1l-71 42zM548 839q58 -4 116 -35q68 -37 106 -96 l-1 1q4 -6 11 -17.5t13 -22.5l-47 -30zM514 459l71 -27l-127 -15l1 7zM657 443v1q9 27 12 57l23 -54zM542 475q39 -4 56 -38l1 -1h-4l-71 27zM776 622l48 -58q1 -7 1 -19v-29q0 -9 -1.5 -21.5t-5.5 -28.5l-111 -13l-37 83l1 2q0 4 -0.5 7.5t-0.5 7.5zM806 637q2 -5 3 -10.5 t3 -11.5q1 -4 3 -16l-23 28z" glyph-name="Q"/>
<glyph horiz-adv-x="619" unicode="R" d="M457 381l16 -85l-116 114zM500 366l4 -5q7 -10 15 -21.5t16 -24.5q11 -17 23 -35.5t24 -38.5l-11 -36l-87 85l-17 85zM589 225q1 -2 3.5 -9t7.5 -20q4 -10 6.5 -16.5t3.5 -9.5l-28 28zM471 291l-120 2q-7 10 -14.5 18t-13.5 12l29 84zM512 244l-117 -32q-1 3 -3 7v-1 l-12 24q-9 20 -10 21q-4 5 -7 11t-7 11l116 -3zM621 128l-165 -44q-7 13 -12 28l1 -1q-1 2 -3.5 6.5t-7.5 18.5l1 -3q-3 3 -9 15q-2 4 -4.5 9.5t-6.5 13.5q-3 4 -7 12.5t-9 18.5l115 30zM626 113q2 -7 2 -17t-7 -18l-6 -27q-2 -3 -8 -8l-74 -22q-43 8 -71 53l161 43z M317 325l-6 2l-5 34l40 49zM304 328q-10 1 -15 1t-8 -2l20 24zM246 125l-22 133l54 65v-1q0 -10 -2 -23t-4 -27q0 -11 -0.5 -13.5t-0.5 -7.5q-3 -10 -9 -67q-1 -2 -1.5 -8t-2.5 -14zM214 43l-83 99l86 104l22 -134zM206 27q-6 -4 -11 -6t-10.5 -4t-11.5 -4l1 1 q-13 -5 -27 -2t-34 11q-29 11 -31 56l43 51l83 -98zM281 334l4 52l60 26zM164 197l-12 129l124 53l-4 -52zM98 124l-11 8q4 31 6.5 47t4.5 29q2 16 3 39t2 54l36 15l12 -128zM83 110l1 10l4 -3zM206 357l55 112l80 -54zM103 319q0 25 1.5 85t-5.5 141l3 22l147 -97l-55 -112 zM260 480l12 14q16 3 73 26l1 -97zM173 542l78 48q0 -85 12 -95l-7 -8zM88 605q-1 2 -2.5 4.5t-3.5 7.5l221 200l29 1l2 -156q-4 -1 -8.5 -2t-9.5 -2q-59 -11 -60 -15v1q-5 -8 -5 -40l-83 -52zM76 629q-3 3 -7 11q-24 42 -16 75.5t33 46.5q9 7 22 12h-1q2 1 5.5 2t8.5 3h3 q34 13 73.5 22.5t84.5 13.5zM349 521l20 7l-19 -103zM347 688l21 -20l-5 -1l-15 -2zM347 818l69 -22l-23 -123q-5 -1 -8.5 -1.5t-5.5 -0.5l-31 29zM385 819h16t17 -1l-1 -9zM375 531q2 1 4 1.5t5 2.5l124 -50l-153 -63zM396 540q60 31 76 77l92 -103l-50 -21zM408 688 l11 -12h-8h-1l-4 -1zM434 811l194 -236l-1 -7q-6 -7 -11 -16q-2 -3 -4.5 -6.5t-6.5 -8.5l-36 -15l-93 105q1 2 1 5t1 7q-11 29 -44 35l-21 23zM445 817q8 -1 17.5 -2.5t16.5 -3.5l-2 1q55 -8 108 -54l-1 1q63 -48 63 -109l-15 -60zM437 449l8 -59l-90 26zM583 506 q-7 -9 -14 -17l-14 -16q-5 -5 -11.5 -12.5t-16.5 -17.5l-10 -11q-6 -5 -12 -10.5t-13 -12.5q-11 -11 -12 -11q1 -1 1.5 -2t1.5 -2q1 -3 3 -6t4 -7l-34 10l-8 60z" glyph-name="R"/>
<glyph horiz-adv-x="632" unicode="S" d="M473 405l-6 -13q-32 9 -56 9h-39l-18 21zM618 379l-70 -185l-85 102q35 37 35 58q0 22 -20 33l5 12zM651 370q0 -5 1 -8q0 -29 -2 -47t-7 -31v1q-20 -56 -73 -111l-12 15l70 185zM364 401q-10 0 -13 -1l-2 19zM483 253l-107 -51l-2 23q4 2 6 3.5t4 2.5q40 29 70 57z M555 161q-14 -13 -29 -25.5t-32 -25.5q-8 -6 -16.5 -11.5t-16.5 -10.5l-49 -27l-16 -7l-15 137l107 51zM346 400h-13l11 20zM380 47q-2 -1 -3 -1t-2 -1l-192 67l52 96q9 -3 10 -4q30 -9 42 -9t30.5 4t31.5 10l6 4l6 4zM351 38q-18 -6 -38.5 -9.5t-44 -2t-50.5 9t-58 23.5 l21 38zM325 400q-12 0 -25 -1t-29 -1t-36 0.5t-46 3.5l-18 33l166 -13zM177 403q-4 1 -9.5 2t-12.5 3q-38 11 -59 28l67 -6zM208 198l-23 38q4 -4 7 -5q4 -2 9 -6t10 -9l5 -3zM158 115l-63 137q14 9 33 9q20 0 41 -13l33 -54zM131 77q-74 50 -74 90q0 20 2 33t6 22t9.5 14.5 l11.5 11.5l64 -137zM177 441l57 23l102 -35zM129 446l-13 58l109 -38l-57 -23zM78 452q-7 7 -15 20q-17 28 -21 57l61 -22l14 -58zM224 474l64 83q3 0 6 1l46 -125zM85 527l145 189l43 -118q-41 -29 -41 -36t11 -7q12 0 16 0.5t13 0.5l-56 -74zM42 547l120 160q5 3 9 6t9 7 q3 2 8 6.5t13 10.5q3 2 6.5 4t7.5 4l8 -22l-144 -189zM43 565q7 31 35 66q12 15 26 28q13 13 28 25zM315 520l73 35l-41 -120zM304 559l23 1l35 3.5t26 1.5l-74 -35zM266 662l157 9v-1q-15 -6 -29.5 -11.5t-30.5 -12t-35 -16t-42 -24.5zM234 755l23 12q5 3 9 4.5t10 5.5 l175 -10l-29 -84l-157 -9zM302 789q13 6 27.5 12.5t19.5 7.5q23 7 49.5 12t68.5 5l-16 -46zM385 536l34 -46l-69 -57zM398 566h9q52 0 93 -6l-75 -61l-34 45zM484 802l101 -44q28 -33 28 -59q0 -25 -14 -42q-6 -8 -12 -11t-11.5 -4.5t-12 -2.5t-14.5 -4q-8 -2 -24 -2 q-18 0 -31 36q-6 10 -12.5 13t-12.5 2t-13 -3.5t-15 -3.5zM496 824q30 -8 67 -43l-72 31zM449 507l39 -98l-134 20zM517 557q4 -1 7.5 -2t12.5 -3l114 -162v-1l-153 22l-39 98zM553 546q14 -5 29 -15q55 -36 66 -120z" glyph-name="S"/>
<glyph horiz-adv-x="688" unicode="T" d="M458 651q-2 -2 -4 -3q1 0 4 3zM431 431q0 -6 -0.5 -12t-1.5 -14l-35 16zM428 398l-3 -35l-31 51zM424 351q0 -9 -2 -33t-3 -43l-44 -45l12 181zM419 260q-2 -23 -2 -46t2 -49l-43 7l3 47zM419 156q1 -9 1.5 -19t1.5 -19q-1 -3 -1 -35q0 -4 -0.5 -8t-1.5 -9l-46 -6l6 102z M417 54q-5 -18 -22 -29q-8 -13 -23 -18l3 42zM371 304l-96 23q0 11 0.5 23t1.5 24l101 41zM356 147l-86 60q1 10 1 19v19q0 19 3 72l91 -22zM346 75l-79 35q0 22 1 42.5t1 41.5l81 -55zM336 0q-19 1 -37 10.5t-33 25.5v29t1 35l73 -34zM277 379l1 1l1 27l96 12zM280 415 l4 73l29 72l65 -134zM285 512l3 58q3 13 3 26l16 -33zM271 623q-24 -3 -42 -5.5t-32 -5.5t-25 -6l-22 -6q-15 -2 -29.5 -3t-17.5 0l65 175q5 2 12 4t15 6zM90 597q-3 1 -7 1l-9 6l2 -1q-7 4 -12 7t-7 5q-17 13 -17 27q0 15 2 21q1 25 14.5 48t36.5 37q15 7 30 12.5t30 8.5z M307 586l53 -85l21 -71zM281 641l11 90l64 -218l-54 84l-12 27v2h-1zM217 779l33 11q3 1 10 1.5t13 0.5l15 -48l-11 -91zM337 600l102 -64v-18q0 -8 -1 -11q-1 -10 -1.5 -18t-1.5 -21l-48 -37zM306 723l164 -73h-1h-1q-3 -3 -15 -3q-7 -8 -9.5 -23t-3.5 -28v-18q0 -5 -1 -11 v-20l-100 63zM291 794l35 3q3 0 29 3q27 3 31 3l221 -131l-16 -2q-44 -4 -52 -6l-54 -9l-176 78zM402 806l32 4q26 0 48.5 7t46.5 12q26 6 34 6.5t16 0.5l139 -41q12 -23 12 -38q0 -14 -0.5 -19t-2.5 -19l-57 -44q-11 2 -15.5 3t-7 0.5t-4.5 -1t-7 -1.5l-12 -2zM610 839 q5 1 10 1.5t10 1.5l-2 -1q13 3 36.5 -1t43.5 -29zM434 458l-2 -19v-3l-41 -11z" glyph-name="T"/>
<glyph horiz-adv-x="706" unicode="U" d="M680 427l-99 -104l-39 19l-6 8q4 26 5 38t3 30zM709 425q-2 -20 -4.5 -45.5t-6.5 -54.5q-2 -16 -3 -30t-3 -25l-97 50l98 104zM594 302l-108 -168l-33 107l9 3q2 1 7 2.5t10 3.5h-1q1 1 12 6l6 3t9 4l-1 -1q16 7 22 31q1 6 3.5 17.5t4.5 22.5zM689 247q-2 -26 -4.5 -44 t-4.5 -31l-125 -110l-27 27q-6 -2 -21 -6l-12 41l107 168zM678 154v-3q0 -3 1.5 -13t1.5 -15q1 -2 1 -6t1 -11q1 -6 1.5 -15t0.5 -20q0 -23 -29 -37q-11 -10 -30 -10t-56 18l-7 10zM463 158l-114 49q20 6 42 13.5t48 15.5zM482 81l-333 -35l100 142q28 0 84 15l128 -54z M449 64l-18 -6q-125 -38 -178 -38t-95 14zM213 171l-62 184l76 17q-3 -29 -6.5 -57.5t-4.5 -53t1.5 -43t10.5 -26.5zM143 80l-91 122v10q0 20 2.5 49.5t7.5 69.5l77 16l62 -184zM117 52q-4 3 -7.5 5.5t-6.5 4.5l1 -1q-32 23 -42 64q-7 22 -9 55l79 -106zM233 411l-1 -5 l-13 5h14zM174 369l14 40l23 1l21 -8q-1 -3 -1 -5l-3 -16zM64 347q1 12 2.5 22t5.5 37l100 1l-13 -40zM96 416l72 167l83 -66l-6 -35q-3 -15 -5 -27.5t-5 -33.5l-10 -4zM74 421q5 30 7.5 46.5t3.5 20.5q1 7 12 69q3 15 6 32t7 36l46 -37l-72 -167h-10zM202 575l64 19 q-1 -5 -3 -12t-2 -9h1q-1 -2 -1.5 -4.5t-2.5 -7.5l1 2q-2 -8 -3 -15t-3 -14zM115 650l6 30l165 42q1 -6 2 -12.5t0 -16.5t-4 -25.5t-9 -39.5q-5 -14 -6 -23l-72 -20zM124 693q1 7 3 7l15 58q18 39 53 39t64 -30l-2 1q19 -16 26 -34zM550 512q2 14 3 25.5t2 21.5l30 -27z M557 577q0 8 1.5 15t1.5 21l1.5 12t1 10t1.5 16t3 31v4q-1 1 -1 3v17q0 25 4 38l156 -119v-2v-3l-133 -76zM573 755q10 22 27 36l134 -86q0 -6 -1 -15t-3 -30q-1 -5 -1.5 -11t-1.5 -12zM611 797q20 10 70 10t53 -89zM583 517l27 -85l-66 -4q1 12 1.5 20.5t1 16l1 15 t1.5 18.5zM724 594l-2 -19q-3 -34 -6 -67.5t-6 -66.5l-88 -5l-27 85z" glyph-name="U"/>
<glyph horiz-adv-x="616" unicode="V" d="M474 444l-55 -48l-15 6q1 3 2 7.5t3 9.5q1 4 6 15zM595 461q-2 -5 -4 -11t-4 -11q-4 -15 -9 -25l-28 -74l-120 54l55 48zM436 381l-43 -89l-13 42q1 3 3.5 10t4.5 12q4 12 7.5 22t6.5 18zM545 328l-8 -23l-23 -57l-86 -48l-27 85l42 89zM508 231q-1 -1 -2.5 -6t-7.5 -21 q-1 -5 -6 -16l-16 -32t-17 -30l-21 66zM397 267l-32 29l12 32zM423 176l-141 -16l35 131q15 -49 19 -49q5 0 25 44v3l36 -33zM439 111l-168 -51l-10 14l20 75l141 16zM440 98q-6 -10 -13 -20t-27 -30q-4 -2 -13.5 -7.5t-19.5 -8.5q-5 -2 -9.5 -3t-9.5 -3q-5 -1 -11 -1.5 t-14 -0.5q-16 0 -43 27l160 49v-2zM308 296l-123 80l101 27v-1q3 -12 8 -29.5t16 -55.5l2 -6zM278 205l-107 83l-6 20l-15 54l28 8l123 -80zM245 101q-3 5 -6 11l-6 12q-15 33 -30 70.5t-26 75.5l94 -73zM236 396l9 47l30 -6q1 -4 3 -10l6 -18zM147 374q-5 16 -9 32l-8 32 v-1q-2 7 -4 13.5t-4 13.5l111 -22l-8 -47zM167 463l72 70l13 -14q3 -10 9.5 -32t11.5 -41l1 -4zM118 477q-2 5 -4.5 13t-6.5 19q-1 3 -3.5 12t-7.5 25l50 79l83 -86l-72 -70zM92 560q-6 18 -12 37t-12 39q-6 17 -10.5 30t-6.5 23l8 25l79 -83zM230 553h12q1 -5 2 -9t3 -9z M218 571l15 7l3 -10v2l3 -9h-10zM136 666l61 35q4 -11 8 -24t8 -27q12 -38 18 -63l-14 -6zM64 750q7 10 18.5 19.5t25.5 13t30.5 -0.5t34.5 -22v-2l-2 2q1 -5 9 -15q2 -4 5.5 -13t6.5 -18l-60 -35zM463 579l11 40q4 12 9 32l35 -2zM486 661q3 11 6 24.5t7 28.5l-1 -2 q1 5 2 10.5t2 10.5l72 -9l-51 -65zM505 744q23 80 85 80l40 -22h1l-53 -69zM416 438q4 14 6 19t6 13l14 -27zM505 614l103 -114l-1 -3l-3 -9q-1 -2 -1.5 -6t-2.5 -9l-148 -25l-19 36l1 2q2 7 4 13t4 13q4 12 7.5 21.5t5.5 16.5zM575 696l60 -82q-4 -22 -9.5 -46.5 t-12.5 -52.5l-97 106zM641 773l2 -2q6 -27 4 -61.5t-10 -79.5l-52 72z" glyph-name="V"/>
<glyph horiz-adv-x="869" unicode="W" d="M589 404q5 -17 8 -29t6 -20.5t5.5 -15t5.5 -13.5l-125 88zM705 390l-7 -17l5 17h2zM863 369l-4 -19q-1 -1 -1 -2t-1 -2q-5 -13 -9 -24t-8 -21q-5 -13 -8 -22l-5 -15q-4 -9 -6.5 -15.5t-3.5 -11.5q-4 -10 -7.5 -19.5t-6.5 -17.5l-121 86l37 98zM592 334l-75 -39l-35 117z M761 209l-183 -105l-53 180l76 38l24 -17q1 -2 2 -3.5t3 -3.5q19 -28 23 -28t10 9zM794 179q-1 -4 -3 -8.5t-4 -10.5q-3 -7 -6 -12.5t-5 -10.5q-46 -94 -97 -94q-49 0 -92 45l-1 3l183 105zM500 332l-107 21l82 61zM443 329q-5 -7 -19 -33t-37 -72l-7.5 -12.5t-9.5 -17.5 l-10 -16l-10 -16l-135 50l174 128zM548 138q-6 10 -14 24t-18 32q-8 15 -18.5 33.5t-21.5 40.5q-26 49 -30 61l49 -11zM344 151q-4 -6 -7.5 -11t-8.5 -14l-158 44l41 31zM323 118l-4 -6h1q-61 -91 -88 -91t-49.5 10t-35.5 22q-18 21 -34 70l54 39zM328 313l4 109l135 -7z M215 424l1 -45q0 -3 1 -6v3q0 -4 1 -10t2 -16l1 -16l-51 92zM258 267l-17 30l11 19q3 6 9 18.5t10 20.5v-1q3 6 5 10.5t5 9.5t6.5 12t9.5 18l4 8l4 8l15 -1l-3 -109zM132 179l-63 208l-2 20t-2 21l93 -5l64 -116l1 -11q2 -20 3 -20q2 0 8 9l13 -22zM103 162q-17 61 -27 153 l43 -141zM382 426l-44 60l3 5l128 -70zM312 432q2 3 4 8t6 13q5 9 12 25l35 -49zM173 439l31 123l9 -6l2 -119zM64 448q-2 38 -4 79.5t-3 89.5l4 18l127 -70l-31 -122zM385 473l33 86l54 -134zM345 499q5 11 10 21l10 20h-3l19 37v-1l8 20l-1 -1q1 4 6 12l16 -39l-34 -86z M212 570l1 1v-1h-1zM81 648l101 114q18 -21 27 -57q0 -3 3 -19l1 -93l-12 -10zM57 666q0 118 48 118q49 0 66 -13l-100 -113zM439 519l26 104l11 -194zM400 620h1q21 38 59 38l1 -23l-25 -104zM473 569l91 -76q2 -4 4.5 -12t5.5 -22l-93 -33zM730 523q1 2 1.5 6.5t2.5 11.5 l2 6t2 7l-1 -1q2 8 2.5 14.5t1.5 13.5l56 -33zM476 657q29 -6 48 -31q9 -14 18 -40q1 -4 3.5 -12t6.5 -22l4 -18l4 -18q1 -1 1 -5l-81 68zM743 594v16q0 11 -1 26t-3 31l137 -84l-72 -26zM738 680q-1 8 -1 17t-1 18q-1 18 -1 41q0 24 16 42l134 -65q13 -46 13 -85t-1 -43v-9 l-15 -5zM762 807q13 9 54 9q42 0 64 -67zM576 452l12 -43l-101 10zM804 533l-73 -136l-26 3q5 23 10 45.5t10 45.5q1 4 3 14zM897 563q-1 -20 -2.5 -39t-4.5 -37v1q-4 -19 -6.5 -30.5t-3.5 -15.5q-2 -11 -5 -24.5t-7 -30.5l-120 13l72 135z" glyph-name="W"/>
<glyph horiz-adv-x="677" unicode="X" d="M463 409q-5 -6 -6 -10l13 -14h-1l48 -47l-5 -16l-122 106zM525 330l33 -33l7 -7t9 -8l-6 -6l-47 42zM583 275q3 -3 11 -7q4 -2 8 -6q15 -14 24.5 -25t14.5 -18l-62 52zM485 334l-120 -63q-2 1 -4 1t-5 1l-9 -6l35 156zM552 269l-111 -66q-5 5 -10 10.5t-8 9.5h1 q-27 31 -49 43l112 59zM671 160l-139 -45l-4 5l2 -1q-10 8 -19.5 17t-19.5 18h1q-23 19 -44 41l108 64zM688 138q1 -7 -0.5 -29.5t-15.5 -54.5q-11 -5 -18 -6q-10 -2 -35 -2t-78 59l135 43zM342 276l-25 119l59 31zM332 252q-10 -11 -21.5 -25.5t-25.5 -32.5l-110 101l8 12 t9 12v-1q1 1 3 6l116 62l25 -118zM277 184q-2 -2 -4 -5.5t-6 -8.5q-3 -3 -11 -15l1 1l-37 -54l-121 91q6 10 8.5 12.5t9.5 11.5q13 16 25 33t25 34zM213 91l-8 -12q-47 -59 -67 -59q-22 0 -26 1l-23 11q-9 7 -15 15q-23 23 -23 50q0 28 26 68l7 10l6 8zM292 388l-46 21 l-6 12l131 10zM212 348q13 20 21 32.5t11 19.5l34 -16zM310 429l-19 50l83 -45zM236 427l-19 36v-1q-6 9 -10.5 17.5t-10.5 18.5q-14 27 -18 28q-1 5 -6 13l108 -58l19 -49zM267 498l51 53q18 -26 29 -26q1 0 1 1q4 4 5.5 6.5t5.5 7.5l16 -100zM186 545l92 88q3 -6 7 -16 t8 -17q5 -13 10.5 -23t10.5 -18l-52 -54zM159 565q-3 6 -9.5 18.5t-16.5 32.5q-12 21 -22 44t-18 44l125 64q4 -11 11 -23q2 -5 5.5 -12l8.5 -17q1 -2 4 -9.5t8 -18.5q4 -8 7 -15.5t5 -13.5v1l6 -14l-95 -91zM88 716q-10 33 -10 59t11 44l47 26h3q27 0 56 -33q2 -4 6.5 -12 t10.5 -21zM365 547q2 2 3.5 4t3.5 4q2 3 5.5 7.5t3.5 5.5l95 -20l-94 -107zM390 579q2 2 3.5 4t2.5 3q26 32 49.5 59t45.5 50l81 -28l-93 -107zM499 704q14 16 29 30t29 28l82 -12l-63 -72zM568 771q49 41 70 41q24 0 40 -13l-35 -39zM478 542l-24 -94l-68 -11zM559 629 l34 -65q-9 -10 -15 -17.5l-18 -22.5l1 -1l-10 -12q-14 -15 -26 -28t-22 -24l-39 -6l24 95zM635 708l36 -62q-7 -8 -19 -21.5t-25 -26.5q-2 -1 -9 -8q-2 -2 -4 -4.5t-6 -6.5q-1 -1 -2.5 -2t-3.5 -3l-32 60zM698 772q7 -11 8 -23q1 -6 2.5 -13t0 -17.5t-7.5 -25t-19 -33.5 l-34 55zM494 448l-5.5 -5.5t-7.5 -8.5q-1 -1 -4.5 -5.5t-10.5 -14.5l-75 19z" glyph-name="X"/>
<glyph horiz-adv-x="674" unicode="Y" d="M455 401q-7 -15 -13 -35l-55 55zM440 360q-1 -2 -1 -4t-1 -5q-4 -11 -7 -21.5t-5 -18.5v1l-5 -16q-2 -6 -3.5 -11t-4.5 -16l-10 -5l-19 152zM409 255l-1 -4v3zM390 330l-52 38l40 52zM400 219q-2 -10 -3 -16t-2.5 -13t-4 -18t-8.5 -32l-122 118l76 99l52 -39zM378 126 q-2 -4 -3 -9t-3 -10q-5 -16 -10 -27t-9 -19l-129 30q-3 12 -3 33l23 105l12 16zM346 49q-2 -3 -5.5 -6.5t-5.5 -6.5q-8 -6 -18.5 -9t-22.5 -2t-26 8.5t-27 22.5q-7 8 -12 20zM282 305l-11 43l10 44q0 6 -14 18h1q-3 2 -6 5q-8 4 -12 7v2l122 -3zM256 280l9 42l6 -22z M241 430l-3 3q-3 2 -5.5 4t-6.5 5l49 15l94 -30zM220 447q-23 20 -41 39l83 -27zM229 479l101 76q18 -15 22 -16l21 -107zM162 506l-13 16l108 117q3 -4 7 -12l-1 2q5 -7 10.5 -13.5t10.5 -12.5q2 -2 8.5 -9t18.5 -20l12 -12l-100 -76zM144 530q-7 10 -13.5 19.5t-12.5 20.5 q-5 8 -9.5 17l-9.5 19l123 97q1 -2 3.5 -6l7.5 -12q2 -5 5 -10l1 -1q6 -8 14 -27zM94 615q-2 3 -4 7.5t-4 10.5q-4 8 -5.5 12t-2.5 6q-23 52 -28 83l106 83q18 -10 32 -34l27 -67l-1 3q1 -2 2 -3t2 -3zM50 750q1 16 7 30t14.5 24t18.5 15.5t19 5.5q18 0 23.5 -0.5t10.5 -1.5 zM360 527l41 -26l-22 -69zM359 544l27 35l-1 -1q8 12 17 24t17 23q1 1 4.5 6t4.5 7l3 4l8 -8l-38 -121l-41 26zM438 650l5 7l-3 -10zM428 573l25 -109l-70 -32zM464 672l118 -90q-20 -22 -37 -43t-32 -42l-53 -25l-24 109zM481 700q5 5 7.5 8.5t4.5 5.5q1 1 5.5 6t14.5 15 l155 -65q-10 -8 -20 -18.5t-21 -21.5q-8 -8 -17 -18t-20 -21l-116 89zM524 745q79 76 132 76t53 -46q0 -47 -3 -57q-1 -8 -10 -17q-3 -4 -7.5 -9t-10.5 -11zM523 745h1h-1zM495 475l1 -2q-11 -17 -21 -34t-18 -34l-68 20z" glyph-name="Y"/>
<glyph horiz-adv-x="669" unicode="Z" d="M417 431q-5 -6 -9 -12t-9 -11l-27 17zM397 405q-1 -2 -2 -3.5t-3 -3.5l-3 -3l-17 25zM488 251l120 14h3l-93 -60zM681 225q1 -1 1 -2t1 -3l-119 -78l-37 55l97 63zM687 207q4 -15 4 -48q0 -31 -24 -46q-17 -9 -52 -12q-3 0 -9.5 -0.5t-10.5 -0.5l-22 32zM385 388 q-17 -22 -30.5 -42.5t-23.5 -39.5l-6 -10t-5 -7q-3 -3 -7 -9l-39 -5l92 141zM521 173l-293 21l46 71l32 4q-2 -2 -3.5 -4.5t-4.5 -5.5q-18 -26 -20 -34l193 24zM565 98q-8 -1 -14 -1q-5 0 -20 -2q-20 -2 -37 -3t-33 -2q-77 -5 -140 -18l1 1q-7 -2 -14.5 -3.5t-15.5 -3.5 l-135 7l72 110l293 -21zM257 57v-1h1q-12 -4 -32 -7q-78 -21 -82 -21h-8l22 34zM308 340l-79 8l131 72zM193 169l-8 151l37 20l78 -7zM141 94l-75 88q5 8 8.5 14t5.5 10q4 7 12 19.5t15.5 24.5t14 22.5t9.5 14.5l44 24l9 -151zM100 39q-11 6 -23 14q-34 27 -34 55t16 61 l71 -85zM263 371l-54 41l3 5l145 6zM167 321l-7 12q10 17 21 34.5t23 36.5l1 1l48 -36zM147 313l7 11l3 -6zM217 423l1 1q21 30 36.5 51.5t36.5 48.5l67 -94zM204 633l-9 -3h1q-45 -16 -59 -16q-13 0 -24 4l39 86zM101 625q-28 18 -28 66q0 47 29 73l39 -54zM294 528l11 13 l36 -27l21 -80zM309 546q1 1 2 3t3 4q1 2 3.5 5t7.5 8l11 -40zM198 668l88 48l14 -54q-32 -8 -81 -24zM123 778q16 7 37 12.5t46 9.5q1 0 11.5 1.5t16.5 2.5q5 1 11.5 2t13.5 1l21 -78l-88 -48zM330 572l7 8l69 -85l-39 -61zM341 584q3 4 7 8l6 6l9 9l4 4t5 6l96 -21 l-61 -94zM287 770l262 -41l-78 -122l-91 19q43 44 44 49q-2 -1 -10 -1.5t-17.5 -1t-20.5 -1.5t-19 -3l-17 -1q-6 0 -12 -0.5t-14 -1.5zM283 810h8q6 3 9 3h12h1h-1l22 3l183 7h17q40 0 64 -7l-46 -71l-263 41zM459 565l-4 -92q-4 -4 -5 -6l-9 -9q-5 -5 -9 -10t-9 -10l-50 -7 zM539 682l19 -94q-8 -10 -18.5 -21t-22.5 -25q-7 -8 -17 -19.5t-24 -27.5l-13 -13l4 89zM567 713l52 -50q-8 -11 -17 -22t-17 -22q-2 -3 -8 -9t-9 -10l-17 88zM630 801q29 -21 29 -49t-28 -73v1q-1 -1 -5 -7l-48 47z" glyph-name="Z"/>
<glyph horiz-adv-x="338" unicode="[" d="M204 668l-1 -1zM235 411v-36l-23 38zM235 363q-1 -17 -1 -34t-1 -34l-37 -21l11 133zM232 286l-1 -32q0 -13 -3 -29q-1 -5 -1.5 -8.5t-0.5 -8.5h-33l5 57zM225 200q-3 -14 5 -19h-1q2 -1 14 -2.5t25 -2.5q42 -5 51 -9q10 -1 20 -10q9 -7 16 -19q7 -14 7 -23q0 -8 -1 -11 l-171 24l6 71zM361 96q-4 -22 -25 -46v1q-4 -5 -8.5 -8.5t-8.5 -5.5l-72 -10l-30 3q-11 0 -17 0.5t-14 2.5l7 87zM192 284l-50 21l61 102zM186 224l-76 25l29 49l51 -22zM174 107l-87 44q1 13 3 28.5t5 32.5q1 2 1 10l11 18l76 -24zM165 38q-13 2 -24.5 5.5t-20.5 7.5 q-35 18 -35 66v10t1 12l84 -43zM174 366l-43 11l71 36zM100 246q0 4 0.5 7.5t1.5 9.5q2 17 3.5 35.5t1.5 40.5v22l17 9l43 -11zM151 390l-19 41l69 -15zM107 372q0 4 0.5 11.5t0.5 15.5q0 4 0.5 6.5t0.5 5.5t-0.5 8t-1.5 14l16 -3l19 -40zM123 437l33 77l45 -94zM107 444v11 q-1 5 -1.5 10.5t-1.5 15.5q-1 24 -3 32l-6 42l-2 4l-2 4l25 30l34 -74l-33 -77zM88 575q-4 9 -5 13l-2 8t-3 11t-8 22q-2 5 -4.5 12t-5.5 16l1 -1q-7 18 -9.5 31.5t-2.5 27.5l2 5l57 -121zM169 500l63 7q1 -5 1 -10q0 -4 1 -7v-7t1 -10l-29 -51zM111 633l104 -6l5 -17 q2 -6 2 -10q0 -3 1 -5q2 -18 4 -37t4 -41l-62 -8zM75 719l253 -23l-9 -6l1 1q-14 -8 -30 -12q-5 -1 -12.5 -2t-18.5 -2q-5 -1 -11 -2t-11 -2q-9 0 -34 -5q2 -6 3.5 -12.5t4.5 -16.5l-100 6zM58 763q2 4 4 7.5t4 6.5l296 -23q0 -2 1 -3q0 -29 -26 -49l-261 24zM75 786 q25 21 97 21h33q32 0 92 1q33 0 44 -9q17 -14 20 -35zM235 466v-25l-25 -20zM235 435v-19l-21 2z" glyph-name="bracketleft"/>
<glyph horiz-adv-x="539" unicode="\" d="M405 435q3 -5 5.5 -8.5t5.5 -9.5l-16 -20l-79 15zM420 409l9 -14l-18 2zM390 393l-6 -102l-65 115zM438 380q7 -12 16 -28.5t21 -36.5q7 -13 15 -27t17 -30l-53 -81l-60 107l5 103zM512 249l18 -32l-52 -72l-16 27zM534 209q46 -85 46 -106t-28 -53l-4 -4q-5 -3 -6 -6 l-57 100zM366 313l-52 -16q-4 6 -8 12.5t-8 14.5l17 79zM433 188l-57 -9q-13 25 -26 50.5t-27 51.5l-4 7l49 15zM462 126l-42 -22l-15 26q-5 8 -11 17.5t-12 20.5l52 8zM518 22q-14 -6 -32 -6q-19 0 -49 60q-1 1 -2 3.5t-3 6.5l-6 9l38 21zM294 330l-24 38l40 36zM266 374 l-20 31v-1q-1 1 -5 7l66 -2zM237 417q-2 3 -4 6.5t-4 6.5v-1l-23 33l7 61l93 -108zM197 474q-13 19 -31 45t-37 54l13 27l62 -73zM122 583l-5 7v-1q-1 1 -15 22q-6 10 -11 17.5t-9 12.5h1q-2 2 -4 5l-4 6q-11 16 -13.5 20t-2.5 5l3 7l69 -80zM247 495l80 58q2 -3 4 -5t4 -6 l-23 -123zM142 621l151 -21q4 -5 7 -9.5t7 -9.5q4 -8 15 -21l-79 -57zM104 669l125 28q2 -5 5.5 -9.5t5.5 -8.5q8 -13 12.5 -20.5t8.5 -14.5l26 -35l-148 20zM49 742q10 63 52 63q44 0 52 -7q11 -6 21 -19q21 -24 46 -68q1 -1 1 -2l1 -1l-120 -27zM337 538l3 -3l-1 1l8 -10 l-31 -105zM346 500l24 -7q2 -4 4.5 -7.5t5.5 -7.5l6 -10l6 -10q2 -4 4.5 -8.5t6.5 -11.5l-83 -22zM354 516l8 -12l-10 4z" glyph-name="backslash"/>
<glyph horiz-adv-x="338" unicode="]" d="M313 393l8 -21v-15q0 -7 1 -15l-91 71zM278 371l-58 -82l6 122zM323 329v-22q0 -3 0.5 -6l1.5 -9t2.5 -18t3.5 -33l-113 -85l6 124l57 82zM332 230q1 -2 1 -7t1 -9q1 -12 1.5 -24t2.5 -25l-118 -64l2 46zM339 156q1 -3 1 -8q0 -4 1 -11q1 -11 3 -18q0 -3 1 -9t-0.5 -13.5 t-6 -17t-15.5 -21.5v1q-6 -6 -20 -11.5t-36 -9.5l-46 -7q54 10 51 15.5t-50 10.5l2 36zM217 313l-22 20v64l27 15zM208 215l-6 3q-5 38 -6 104l16 -15zM199 136l-55 34q1 1 24 4q5 1 12.5 2t17.5 3l3 2zM192 58h-42v-38q-9 0 -14 1l-58 48q-9 15 -10 30.5t4.5 29t16 23 t23.5 13.5q5 2 10.5 2.5t7.5 0.5l66 -41zM195 402v8l22 4zM195 413v14l21 -10zM195 433v21v10l23 -42zM196 477v9l78 35l-49 -98zM197 495q1 5 1.5 12.5t2.5 18.5l7 66l95 -4l-30 -59zM209 603q1 10 3 15t4 10.5t4 12.5v-1q2 9 4.5 17l2.5 8h-2h-1q-8 5 -39 5q-42 3 -54 8h1 q-29 9 -43 29l271 8l-58 -116zM83 717q-12 24 -12 69q3 3 5.5 5t6.5 5l283 -18q7 -7 10 -19l-16 -34zM97 805q13 8 25 8q1 0 9 -0.5t13 -0.5l58 -8h9t10 -1q26 -3 45 -3.5t34 -1t27.5 -2.5t25.5 -7zM279 525l-9 -68l-42 -35zM310 582l26 -23q-1 -3 -1 -6q-1 -5 -2 -11 l-2 -12q-2 -9 -2.5 -15t-1.5 -8l-53 -45l10 69zM379 718l2 -4q0 -11 -5 -33.5t-15 -48.5q-8 -23 -13.5 -38.5t-8.5 -23.5l-23 21zM326 500q0 -1 -0.5 -6t-1.5 -13l-36 -75l-58 13zM322 461q-1 -11 -1.5 -26t-0.5 -34l-24 6z" glyph-name="bracketright"/>
<glyph horiz-adv-x="606" unicode="^" d="M423 744l-8 -63l-59 46zM499 761l-43 -107l-7 2l-29 24l8 63zM534 766l8 -137q-11 -2 -25.5 0t-36.5 12h1q-4 2 -10.5 5t-9.5 5l43 108zM560 769q5 -2 9 -5t8 -5q9 -7 16 -16l9 -18l-2 -62q-8 -16 -24 -23t-29 -10l-7 134zM607 696l1 -1q0 -3 -1 -6v7zM397 690l-9 -9 q-1 0 -10 2t-11 3l-13 39zM423 668q-15 7 -28 11l6 6zM364 686q-5 1 -10.5 1.5t-11.5 1.5l10 33zM338 689q-2 1 -8 1l-6 -4l-38 7l63 33zM317 682q-7 -5 -13.5 -9t-12.5 -8q-5 -3 -9.5 -6t-9.5 -6q-17 -11 -26.5 -17.5t-12.5 -8.5l-34 19l82 42zM226 622q-17 -12 -40 -16 t-46 6l53 28zM267 688v76l79 -36zM225 669l-20 108l14 7l43 -19v-77zM162 640l-6 115q8 5 19 10t25 10l20 -106zM123 622q-11 9 -17 19q-9 9 -10.5 23.5t3.5 30t16 29.5t26 22q3 2 5 3l4 2l6 -112zM305 750l-34 19l76 -39zM224 787l2 1h-2q1 0 3 2l11 -5l28 -14l33 -18z M228 790l2 -1zM316 748l45 23l-10 -41zM233 793q4 3 8.5 4.5t6.5 3.5q1 2 1.5 4.5t2.5 7.5l83 38q21 -2 40 -9l-17 -67l-44 -23zM257 822q19 29 63 29zM368 788l40 -8l-54 -48zM382 836l56 -28l-28 -24l-39 8zM429 822l7 -3.5t6 -3.5zM408 776l35 -24l-87 -21zM450 812 l29 -49l-31 -8l-36 24zM460 808q3 -1 16 -5t16 -5h-1q12 -2 22.5 -6t25.5 -13l-54 -13z" glyph-name="asciicircum"/>
<glyph horiz-adv-x="477" unicode="_" d="M324 -8l-11 -18l-34 15zM400 -6l-34 -42l-49 22l12 17zM431 -6l26 -62q-1 0 -4.5 -1t-25.5 -3h-5l-49 22l34 43zM501 -5q-1 -7 -2.5 -14.5t-5.5 -16.5q-13 -24 -31 -30l-24 58zM331 -36l-12 -42l-40 64zM379 -59l-31 -19l-26 -1l12 40zM407 -73q-11 -1 -21 -1.5t-27 -2.5 l24 14zM299 -53l-44 -25l21 64zM313 -80q-14 0 -22 -0.5t-13.5 -1t-10.5 -1t-12 -0.5l45 26zM253 -71l-53 47l73 11zM247 -83h-59l-31 49l40 6l53 -46zM184 -83h-28h-1l-27 41l26 5zM148 -83q-50 2 -77 30l53 8zM222 -18l-1 22l51 -14zM178 -24l-28 46l66 -18l1 -22z M108 -34l-13 70l50 -14l27 -46zM62 -41q-10 18 -11 35l8 30q5 9 16 16l14 -4l13 -70zM220 6l41 13l12 -28zM182 19l14 29h19l30 2l12 -28l-40 -13zM89 46q8 2 100 2l-12 -26zM259 28l31 -3l-14 -33zM250 50q6 1 13 1t15 1l21 2l-9 -25l-31 3zM294 32l20 23h1l-37 -61z M303 54l9 1l-16 -18zM310 44l15 -50l-46 -2zM319 55l53 5l24 -60l-66 -3l-16 50zM378 60l29 2h13h6l38 -56l-62 -3zM434 60q62 -9 67 -50l-33 -2z" glyph-name="underscore"/>
<glyph horiz-adv-x="216" unicode="`" d="M199 576l-32 -25l-26 39zM218 570l-33 -44l-16 23l33 25zM221 568q5 -13 9.5 -24t6.5 -19l-28 -33l-21 32zM239 518q4 -15 4 -32t-8 -29l-21 31zM151 570l-6 -33l-6 52zM183 521l-33 -31l-4 44l6 32zM208 480l-54 -10l-2 16l33 31zM229 449q-13 -12 -35 -12q-21 0 -36 11 l-2 17l54 11zM141 547l-46 6v2q-2 1 -4 6l45 28zM146 484l-33 29q-5 8 -6 13h1q-3 5 -5.5 9.5t-2.5 5.5q-2 3 -2.5 5t-1.5 4l44 -6zM147 458l-2 2q-1 2 -3 4.5t-5 7.5q-5 8 -9 15.5t-8 14.5l25 -22zM106 573l-14 14l43 4zM90 563v2v-1q-3 3 -5.5 10t-5.5 10l9 1l15 -13z M113 590l-14 31l37 -28zM77 588l-10 15l6 37l23 -18l14 -31zM63 609q0 1 -12 22q-1 4 -8 14q-6 11 -8 22l33 -26zM102 620l20 -3l14 -23zM61 653l18 32l40 -65l-20 4zM33 675v7q0 14 6 26l15 15l21 -34l-18 -32zM47 723q2 2 3 4v-1zM112 636l38 -15l-13 -27zM96 664l74 8 l1 -3l-21 -45l-38 15zM61 726l76 -3q6 -7 12 -14.5t11 -16.5l7 -15l-71 -9zM58 733q16 13 35 13q20 0 40 -18l-73 1zM166 649l-7 -35l-19 -19zM173 665l12 -23l-23 -24l6 35zM165 618l15 -35l-40 9zM187 637l6 -11l-1 1q5 -8 8.5 -14.5t5.5 -11.5l7 -14t5 -11l-34 8l-15 35z " glyph-name="grave"/>
<glyph unicode="a" d="M412 406l-49 -44l-24 51l13 3zM517 385l-74 -177q-3 10 -6 27q-2 7 -5 18.5t-8 27.5q-1 1 -1 2t-1 2q-4 0 -8 -1t-9 -1l-35 73l48 44zM601 366q-3 -16 -10 -29l-7 -8q-7 -5 -15 -17q0 -3 1 -3q2 -11 4.5 -22t4.5 -22q6 -34 12 -52v1q0 -1 2 -7l-97 -98l-42 88l75 180z M597 192q2 -5 3.5 -11t3.5 -11q1 -5 2 -9.5t3 -9.5q5 -15 7.5 -34.5t2.5 -57.5q0 -37 -32 -37h-35h-6l-38 80zM382 313l-54 25l6 74h1zM395 280q-10 -2 -11 -3q-9 -3 -18.5 -5.5t-21.5 -6.5q-2 -1 -7 -2.5t-15 -5.5l7 71l55 -26zM499 54l-19 2l-4 8l-14 65l-2 5zM506 32 q-8 4 -15 11l10 -1zM313 254l-101 72l114 84h2zM300 250q-4 -1 -5 -1.5t-17 -5.5q-2 0 -14 -4q-8 -2 -11 -2l2 1q-18 -8 -22 -19q-1 -2 -2 -4.5t-3 -6.5q-4 -9 -9 -26l-119 56l107 78zM217 175l-10 -30l-127 63q2 8 4 13v2l12 8zM203 136l-13 -40q-2 -7 -7 -19.5t-12 -25.5 q-14 -23 -35 -23q-22 0 -27 1l-61 50q-1 5 -1 26q0 19 23 76v-1q3 11 7 20zM215 335l15 58l75 18q-1 -1 -1 -3h10zM178 310l-34 60l80 20l-16 -58zM94 250q1 3 2.5 6t2.5 6v-1q2 9 6.5 21t9.5 27q4 11 9 24.5t10 29.5l33 -59zM182 386l6 99l122 -58l-3 -10zM140 378 q2 5 4.5 12t6.5 17q2 6 5.5 13.5t7.5 16.5q3 6 6 13.5t9 23.5l-6 -87zM190 493l86 67l42 -111l-5 -15zM193 508q1 2 6.5 16t15.5 40q2 6 5.5 15t8.5 22q3 8 6.5 17.5t8.5 19.5l26 -70zM272 588l64 -52l-2 -39v-1l-13 -38zM250 652l9 20l78 -57l-3 -70l-64 53zM263 681 q4 7 8 15t9 17q6 11 10.5 19.5t8.5 14.5q1 3 4 8.5t6 10.5l-1 -1l15 26q7 12 22 19l-9 -183zM345 586l112 -117l-79 -27l-6 34q-2 8 -3 13.5t-2 7.5q-2 7 -6 31q-2 7 -3 12.5t-2 9.5q-4 -6 -7 -13.5l-7 -17.5zM357 705l136 -97l25 -96l3 -14l-58 -20l-111 116zM367 808 l97 -87l5 -19l3 -12l17 -68l-126 90zM374 818h5q49 0 72 -50q1 -5 9 -30l-87 77zM427 451l25 -48l-92 14q9 3 12.5 4.5t9.5 3.5l-1.5 6t-0.5 4zM525 482q2 -8 4 -15.5t4 -14.5q3 -2 9 -5.5t16 -8.5l-2 1q16 -5 27 -14t18 -25q2 -6 2 -15v-2l-139 22l-24 47z" glyph-name="a"/>
<glyph horiz-adv-x="644" unicode="b" d="M565 497l11 -11l-66 -19l-49 33l59 54l63 -37l-7 -8q-2 -2 -4.5 -5t-4.5 -5zM485 454l3 -58l-20 5q-22 22 -23 22q-6 -2 -9 -3.5t-16 -6.5l-41 10zM583 479q2 -1 5 -4l6 -6h-1q18 -16 33.5 -35.5t28.5 -44.5h-1l7 -14l2 -20l-163 41l-1 58zM411 409l-4 -2l-4 -2l-14 -6 q-3 -1 -5 -2t-6 -2l-3 22zM646 346l-127 -71q20 27 14 46t-26 39v-1l-26 28zM679 330q12 -40 -1 -87l-125 -138q-24 -13 -50.5 -24.5t-55.5 -21.5l-24 148l232 129zM669 218q-25 -54 -88 -97zM375 394l-3 -1v23zM419 120l-36 78q5 2 11 3t11 3zM425 78l-25 -33l-15 -4 l-13 -3l1 158l5 1l42 -91zM427 53l-15 -5l13 18zM250 347v-4v-15l-21 6zM366 391q-14 -5 -25 -7l2 1q-2 -1 -6.5 -2l-13.5 -3q-2 -1 -11.5 -3t-16.5 -4l71 42v-24zM251 318v-8q0 -39 1 -58t2 -34l-97 69l67 39zM360 143l-57 41q8 1 17 2t17 3l23 4v-50zM353 34 q-12 -2 -25.5 -4t-27.5 -4l-234 124q7 12 23 21q15 9 15 36q0 4 -0.5 12t-1.5 27l49 29l105 -74q1 -7 2 -12t2 -9h7h6t11 1l70 -49zM281 25q-5 1 -9.5 -0.5t-17.5 -1.5t-37.5 3t-68.5 15l-51 20q-39 22 -39 46q0 26 4 34zM270 366l-3 -1q-1 -1 -7.5 -3.5t-9.5 -3.5v-3 l-58 58l169 7zM125 285l-24 48v73l80 4l57 -58zM101 273v36l14 -28zM266 422l23 96l76 -92zM158 422l31 210l62 -74q0 -13 1 -17v-5q0 -4 1 -10.5t1 -8.5h4q5 1 11 1t11 1l-23 -93zM101 426q0 13 -1 16q0 5 -1 10v122q0 22 1 49t3 48q-2 4 -3 7q-11 22 -10 38t4 23l83 -101 l-31 -210zM300 513l38 19q5 1 14 4t14 5l3 -111zM188 654l69 6q-6 -24 -6 -82zM105 761l7 9l126 48q16 2 35.5 2.5t34.5 0.5h23t18 -1l4 -134h-7q-12 -1 -28 -2.5t-35 -3.5h-1q-9 0 -17 -5l-83 -7zM139 793q18 11 46 18zM372 543l14 7t13 8l85 -25l-109 -102zM409 565 q58 48 63 71l56 -55l-41 -39zM370 736l60 -58q-25 7 -58 8zM371 817q5 -1 17 -2.5t19 -2.5h4l194 -153l-74 -69l-62 62q-4 9 -18 17l-78 78zM437 808q13 -2 27.5 -5t22.5 -6h-1q61 -15 105 -65v1q20 -23 26 -57l-7 -6zM453 495l49 -32l-124 -37zM619 642q0 -17 -4 -41.5 t-11 -55.5q-2 -3 -5.5 -8t-9.5 -12l-58 35z" glyph-name="b"/>
<glyph horiz-adv-x="635" unicode="c" d="M478 270q3 3 12 9q7 5 11.5 9.5t8.5 6.5v-1q3 2 6 5t6 5q4 4 8 7t8 5h-1q17 12 30 17l-71 -87zM585 338q2 0 8.5 1t15.5 0t19.5 -5.5t19.5 -14.5q20 -20 20 -63q0 -45 -96 -112l-68 95zM527 180l-115 -56l-15 93q1 1 24 15q7 4 13.5 8t14.5 9l19 14zM557 134 q-21 -15 -44.5 -28.5t-50.5 -28.5q-8 -6 -16.5 -11t-18.5 -9l-9 54l115 56zM197 219q2 -5 4.5 -10.5t6.5 -10.5l-27 1zM389 189l-40 2q2 1 12.5 6t24.5 13zM406 53l-278 72l50 61l45 -2q15 -9 29 -11.5t26.5 -1.5t22.5 4t18 5l67 -3zM393 46q-75 -20 -138 -20q-64 0 -117 44 q-11 7 -15 12q-2 1 -14 13l17 20zM230 386q-5 -8 -8 -14t-5 -11l-1 -1l-24 15zM182 219l-39 139l41 12l28 -18q-1 -1 -1 -2q-21 -45 -21 -75q0 -29 3 -43zM112 139l-60 84q0 6 -1 12t-1 17t2 30t8 51l74 20l39 -140zM89 118q-13 17 -21 35v-1q-4 10 -7.5 20.5t-5.5 23.5 l46 -64zM286 484q-8 -12 -14 -23l-16 49zM163 379l-10 157q5 8 11.5 17t13.5 19l69 -59l20 -61l-7 -14q-14 -23 -22 -38zM66 358q4 16 9.5 29.5t12.5 24.5l-1 -1q2 5 6.5 12.5t9.5 18.5q16 31 25.5 49t11.5 23l1 2l8 -135zM258 513l42 5l3 -6q-2 -3 -8 -13t-7 -12zM207 560 l-5 45q2 2 4.5 6t6.5 9q1 2 4.5 5.5t8.5 10.5l67 -110l-42 -5zM185 582l11 15l3 -28zM272 572l88 15q-1 -2 -3 -4t-4 -5q-12 -14 -24 -29t-23 -32zM231 643q1 1 3.5 4l7.5 9q6 7 6 8l134 -25l-5 -34l-7 -7l-100 -16zM256 674q3 4 6 7t7 8q8 10 14 16t8 9q6 7 12.5 13 t14.5 13v-1q15 15 29.5 28t25.5 19h-1q7 5 14.5 9.5t13.5 7.5l-21 -152zM528 556q-25 7 -35 38q-1 2 -1 4t-1 4l54 -33zM399 657l22 -13q-3 -3 -12.5 -10t-13.5 -11zM422 788l179 -95q2 -8 3 -31.5t-4 -46.5l-50 -37l-63 38q-3 8 -5 15.5t-2 15.5q-3 12 -17 12q-13 0 -31 -9 l-27 16zM430 814q24 7 75 7q50 0 80 -59q5 -11 8.5 -24.5t5.5 -29.5l-172 90zM578 567q-4 -4 -8 -5z" glyph-name="c"/>
<glyph horiz-adv-x="605" unicode="d" d="M507 449l-7 -101l-50 27q16 25 27 51l4 18zM593 462l-35 -141l-50 26l8 101zM642 468v-3q0 -87 -46 -160l-27 14l35 141zM483 351l-54 -3q1 1 3 3.5l6 7.5q1 2 8 11zM560 305l-132 -139l-39 141q8 7 16 15l16 16l68 4zM584 287q-52 -75 -148 -137l-2 8l132 138zM336 268 l4 2l-5 -16zM415 171l-81 48l2 26l9 28q16 10 35 26zM421 141l-38 -23v1l-26 -13t-32 -15l11 115l81 -48zM231 387q-2 -15 -1.5 -19.5t-1.5 -12.5q0 -1 -1 -3.5t-2 -6.5l-43 30zM224 337q-1 -15 -1.5 -23.5t-2.5 -29.5l-126 64l83 21zM321 233l-24 12q16 7 27 15zM306 105 l-231 172v1q2 16 3 31t3 31l8 2l130 -65v-2q-1 -6 -1 -12t-1 -11q-3 -32 -3 -37q0 -6 3 -6t28 10q12 6 22.5 11t22.5 11l27 -13zM297 78l-25 -11l3 1q-2 -2 -11 -7l-14 -7l-16 -8q-2 -1 -4.5 -2t-5.5 -3q-17 -11 -35 -15l-131 97v3q0 4 3 30l7 63q1 7 2.5 21t2.5 24 l226 -167zM173 23q-5 -1 -34 -1q-13 0 -26.5 5t-25 15t-19.5 26t-9 39zM231 395l1 2v-2h-1zM83 358v3l25 138l128 -43q0 -1 -0.5 -8l-1.5 -21l-14 -32zM210 472l27 50l5 -4q-1 -7 -2 -16t-1.5 -17t-1.5 -14t-1 -7zM161 491l-15 112l83 -76l-26 -49zM104 513l1 16v6 q0 6 0.5 12t0.5 11v9q1 6 1.5 17t3.5 46l23 -21l16 -111zM217 546l29 -4l-3 -19zM147 614l113 16q0 -1 -0.5 -3.5l-1.5 -7.5q0 -6 -0.5 -8.5t-2.5 -7.5q-2 -8 -3 -17.5t-3 -27.5q-1 -2 -1 -4t-1 -5l-34 6zM113 652q1 10 1.5 23t0.5 16v7q0 4 -1 12q-1 7 -1.5 17t-0.5 14 l164 77q3 -1 7 -2t11 -3q2 -1 5.5 -1.5t8.5 -2.5l11 -150q-11 1 -24.5 1.5t-29.5 0.5v-1l-3 -9q0 -5 -1 -8l-119 -17zM112 753v9q0 63 59 63q29 0 50.5 -1t34.5 -3zM329 784h85q9 -3 17.5 -5.5t22.5 -6.5q12 -5 18.5 -8t14.5 -8l-56 -130q-2 1 -3.5 2t-3.5 3q-32 18 -85 26z M332 806q6 -1 14 -2.5t14 -3.5h-28v6zM483 453q1 3 1 5t1 4v-2q0 2 1 3v3q1 7 2.5 13.5t2.5 12.5v1l34 -33zM466 668l86 -198l-20 -4l-41 38q-3 76 -48 113zM499 733l128 -133q14 -42 15 -109l-83 -15l-86 198zM511 743l18 -12t16 -13q16 -14 33.5 -35.5t35.5 -49.5 q0 -2 1 -3l-106 110z" glyph-name="d"/>
<glyph horiz-adv-x="667" unicode="e" d="M503 442l23 -43q-4 -1 -18 -1q-3 1 -10 1q-6 0 -16 1t-17 1h-11l-70 22zM575 451q0 -2 -1 -4l1 1q0 -18 -11 -29.5t-28 -16.5l-21 39zM438 401q-3 0 -14.5 1t-31.5 -2l-12 19zM509 229q10 1 20 1t21 1h12q16 0 36 2t44 6q19 -7 32.5 -22.5t18.5 -35.5l-97 -94zM696 165 q1 -5 1 -20q-2 -25 -22 -44.5t-47 -26.5h6q-5 0 -9.5 -0.5t-14.5 -1.5l-4 6zM386 399l-16 -2t-16 -3l21 24zM568 80l-428 34l74 91q0 -9 18 -13l-3 1q1 0 11 -1t13 -1q5 0 15 0.5t12 1.5q11 1 24.5 3t28.5 5q20 5 55 12l40 8q7 2 13 3t11 2q6 1 12 1t13 1zM516 69 q-40 -1 -82 -6.5t-88 -14.5q-16 -3 -37.5 -7.5t-47.5 -10.5t-45 -6h-15h-11q-4 0 -8.5 0.5t-12.5 1.5q-39 1 -68 26l38 47zM341 391l-2 -1q-11 0 -26 -3.5t-35 -8.5q-18 -5 -28 -3.5t-16 -6.5l-32 17l163 35zM230 362q-4 -7 -4 -21l-3 -34q-1 -10 -2.5 -22.5t-2.5 -24.5 l-43 116l20 5zM130 140l-67 131q0 9 1 14.5t4 19.5v-1q2 13 4 24.5t3 22.5l92 19l47 -127zM75 81q-24 36 -24 65v35q2 8 3 13v-2q1 4 1 10q0 7 1 15q1 6 1.5 12t1.5 13l57 -111zM197 389l32 53l133 -18zM167 384l-83 73v4l136 -19l-33 -53zM77 368q2 22 4.5 42t2.5 37 l71 -62zM228 450l26 77q6 1 14.5 2t15.5 2q5 0 9 1t11 2l61 -103zM108 470l134 158l10 -17h-2v-4l-1 -13l-2 -6q0 -7 -1 -17t-1 -18q1 -3 1 -10t-2 -12v-6l-24 -70zM85 478v11v10v36t-1 97q0 12 -0.5 22t-1.5 20l66 85l9 2l75 -127l-134 -158zM82 693q2 21 14 36 q13 16 31 23zM330 503l59 40q5 0 8 1l-24 -113zM415 645q-2 -1 -4 -1t-3 -1q-38 0 -63 -5t-36 -7l122 90zM316 536q1 0 27 3q27 3 28 3l-42 -28zM185 765q16 5 31 8l-1 -1q18 5 32 10l195 17l-13 -65l-158 -115zM344 801q23 5 47 8.5t50 5.5l-2 -5zM396 521l40 -40l-60 -51z M405 544h10q18 0 38 -2t38 -7l-2 1h5l-52 -45l-40 40zM429 653l34 -3q-17 -2 -36 -3zM468 819h7l136 -150v-1q-16 -6 -29 -9.5t-27 -5.5l-120 13zM489 820l6.5 1.5t16.5 2.5t23 -1t26 -9l-1 1q27 -13 47 -44q19 -29 19 -52t-9 -40zM503 535h3l-29 -91l-95 -15zM512 533 q5 -1 9 -1.5t9 -2.5q17 -7 29.5 -21.5t15.5 -33.5v-11l-90 -14z" glyph-name="e"/>
<glyph horiz-adv-x="556" unicode="f" d="M453 379q-7 -2 -16.5 -3.5t-21.5 -3.5q-3 -1 -16.5 -2.5t-36.5 -5.5l-38 53zM352 370l-64 -12l27 60zM212 168q-2 -25 -3 -45.5t-3 -37.5l-2 -8l-38 -9zM201 65q-6 -25 -21 -38q-4 -8 -14 -8.5t-17 1.5l18 38zM281 351q-10 -2 -18.5 -4t-15.5 -4l64 72zM220 312 q0 -11 -1 -32t-3 -52l-79 -10zM167 114l-92 20v12l56 62l84 11v-1zM124 22q-3 1 -10.5 3t-11.5 4h1q-29 11 -29 31q0 23 1 27q-1 3 -1 31v2l86 -18zM240 341q-4 0 -11 -4l-8 79l88 3zM178 279l-114 92q-6 18 -1 36l148 6l9 -86zM75 170v70q0 17 3 50v-2q0 5 1 10t-1 13 q-2 6 -3 12t-2 17l-0.5 3.5t-1.5 6.5l95 -78zM170 418l83 36l55 -31zM64 417q2 4 4 12t6 16q5 4 9.5 11t6.5 12l53 44l100 -56l-82 -36zM93 485l2 50l35 -19zM252 460v31h8q3 2 5 2.5t4 1.5l42 -68zM95 550v28l99 32l51 -82l-2 -61zM95 590q0 6 -10 13q-8 1 -16 3t-17 8 l-8 25l67 100l74 -120zM40 654q0 35 17 58q10 12 38 25zM275 497q3 2 12 2t23 3q11 1 20.5 3t28.5 5l-43 -80zM179 663l269 22l-10 -17q-14 -3 -27.5 -6l-31.5 -7q-6 -1 -13.5 -3t-14.5 -4q-6 -1 -19 -3.5t-18 -3.5q-42 -10 -53 -17h1q-16 -10 -16 -70zM156 710l326 50 l-35 -65l-269 -21zM135 753q56 20 142 39q72 17 131 25t104 8l-31 -55l-326 -50zM359 499l38 -67l-78 -7zM372 511q3 1 16 2.5t16 1.5q9 2 17 3.5t19.5 2.5t27 1.5t39.5 0.5q47 0 47 -35v-37l-148 -13l-37 67zM461 677l2 -4l-5 -1zM491 718l31 -33q-19 -5 -46 -9l-3 8z M553 820q38 -15 38 -56q0 -21 -3 -34t-9.5 -21.5t-17 -13.5t-25.5 -8h-2l-33 36zM471 434l-45 -41l-102 29zM534 438l8 -24q-11 -14 -27 -21l-48 -11l-32 10l45 41zM552 436l-2 -7l-3 7h5z" glyph-name="f"/>
<glyph horiz-adv-x="760" unicode="g" d="M513 387l-33 -58q-12 -5 -17 -7t-10 -3l-38 98zM575 364q-1 -1 -8 -3l1 1l-20 -8l-20 -8q-3 -1 -6.5 -2t-8.5 -3l-15 -6l24 45zM702 326l-185 -157l-33 86q17 11 33 26t33 32v-1q16 19 24 27q5 7 9 11.5t7 8.5zM744 306q-4 -10 -8 -19t-9 -17q-27 -42 -67 -81t-95 -75 l-17 -10l-22 56l184 156zM447 317q-27 -9 -36 -9t-17 3l16 102zM509 147l-146 -47l17 104q49 15 91 43zM527 91l-30 -16t-22 -11q-5 -1 -10.5 -3t-9.5 -3q-8 -2 -15 -4t-15 -4l2 2q-1 -1 -7 -3l-12 -5q-4 -1 -10.5 -3t-14.5 -4q-7 0 -14 -1t-14 -1l9 53l147 47zM389 312 q-16 5 -31 23t-19 36l67 44zM361 163l-36 29q11 2 19.5 3.5t22.5 5.5zM335 32q-7 0 -16.5 -1t-17.5 -1l-179 189l79 51q4 -24 20 -48h-1q21 -33 42 -33t29.5 0.5t17.5 1.5l45 -39zM280 29q-23 0 -40.5 3t-33.5 11q-74 30 -117 101q-6 9 -9 16t-8 18l41 27zM338 377v14t4 19 l60 9zM143 252l-9 125l94 14q-29 -66 -29 -101zM63 204q-4 11 -6 24.5t-4 27.5l13 108l56 8l8 -124zM343 415q4 7 8.5 13.5t11.5 13.5l40 -19zM191 396l-25 132l117 -53q-34 -40 -51 -74zM70 382q9 27 27 64v-1q11 23 23 45.5t25 42.5l4 -2l26 -133zM368 446q12 12 27 20 l8 -36zM265 493l102 70l-6 -6q-21 -19 -39.5 -38.5t-32.5 -36.5zM219 519l123 159l24 -105l-106 -73zM158 553q64 94 156 162l12 9l8 -36l-123 -160zM401 470q8 5 20.5 11t23.5 10q8 4 13 6l10 -11l-57 -55zM374 586l8 -9l-5 -4zM465 499l18 7l-12 -12zM366 637l64 -20 q-8 -7 -19.5 -16t-22.5 -19l-12 12zM350 741q37 26 68 42q42 22 78 29l118 -37l2 -2l-1 1q22 -28 22 -64q0 -17 -0.5 -29.5t-1.5 -19.5l-47 -45q-7 2 -15 7q-5 4 -10.5 8t-10.5 9q-17 17 -41 17q-23 0 -66 -30l-74 24zM534 816h4q33 0 56 -18zM506 514l20 6l6 -41l-114 -51z M536 523q14 4 26.5 7.5t23.5 5.5q43 11 66.5 13t39.5 0l-150 -65zM478 450l19 -52l-82 25zM680 534l-28 -178l-54 16l-90 27l-18 52zM716 543q22 -7 35 -26l-1 1q9 -12 13.5 -33.5t4.5 -45.5t-2.5 -44.5t-7.5 -45.5q-1 -1 -2.5 -6.5t-3.5 -10.5l-84 24l29 179z" glyph-name="g"/>
<glyph horiz-adv-x="543" unicode="h" d="M221 520l1 -1zM459 402l-24 -98l-42 40v6q0 21 -4 26l-28 -2l-39 38zM534 394l-67 -117l-25 24l24 98zM555 389l-13 -178l-64 61l67 118zM353 373l-35 -3l-3 39zM479 250l-91 -19l1 21q2 5 1 15.5t1 18.5v19q1 2 1 11v3l1 13zM540 184v-6l-146 -134q-7 11 -10 27l-2 14 t-1 17q0 11 1 27t3 43v4v6q1 6 1.5 8t0.5 20v9l96 20zM538 160l-6 -85q-3 -3 -5.5 -9.5t-2.5 -13.5q-20 -41 -53 -41q-34 0 -56 12q-9 5 -14 11zM314 370l-16 -2l14 42zM295 368l-5 -1q-5 0 -8 -1q-10 0 -26 -3l-10 30l63 18zM246 362q-9 0 -25 -3q-6 -1 -8 -34 q-3 -18 -3 -35v-30q1 -7 1 -12v-6q0 -4 0.5 -14.5t0.5 -17.5l-155 114q0 6 1 10l179 52zM193 88l-146 104q0 12 1 26t3 31q1 14 2.5 29t2.5 31l156 -115q0 -10 -0.5 -18t-0.5 -26q-1 -1 -1 -6zM173 40q-16 -14 -45 -14t-64 30q-11 18 -13.5 30t-2 19t2 11t0.5 6q-2 10 -3 25 t-1 32l139 -99zM235 396l-96 41l165 -21zM85 354l28 84l17 -2l96 -41zM58 349q0 6 0.5 13t1 17t0.5 24v38l40 -5l-28 -83zM209 433l23 85q6 -2 18 0l56 -98zM90 453l85 187l51 -88l-2 -30v-2l-22 -82zM60 462v9l7 135q0 6 1 18t1 15q5 85 30 125l68 -118l-86 -187zM276 485 l16 37q5 0 8 1q4 1 8 1t8 1l-4 -101zM260 519q5 1 11 1q7 0 14 1l-11 -25zM201 623l30 18l-3 -65zM148 719l80 25q7 -20 7 -53l-3 -37l-35 -21zM114 784q19 17 51 17q34 0 56 -43l-1 1l2 -4l-77 -24zM321 489l142 12l-145 -80zM326 526q1 0 10 1t10 1q47 5 48 7q7 8 8 36 q1 3 1 54v3l88 -105l-24 -13l-142 -11zM404 643v15l7 99v0q0 1 1 2l162 -113l-6 -72l-72 -40zM417 769q3 5 7.5 10t9.5 10h-1q8 8 15.5 15t12.5 9l114 -54q4 -15 4 -39q0 -3 -0.5 -7.5t-0.5 -10.5l-3 -44zM476 818q1 1 9 1q5 1 37 1q29 0 49 -48zM444 487l-62 -73l-63 4z M560 546l-4 -141l-163 11l62 73z" glyph-name="h"/>
<glyph horiz-adv-x="637" unicode="i" d="M445 373l-6 -56l-77 82zM539 215l32 5v-40zM580 222l28 3q11 -7 19.5 -14t15.5 -15l-52 -33l-10 12zM649 185q10 -17 10 -35t-10 -43l-45 49zM439 309l-3 -33l-77 -2l-2 122zM435 268l-6 -55v-4q0 -6 1 -6q14 5 32 6l-99 -67l-1 124zM636 86l-12 -5l-7 -2h1 q-8 -2 -17.5 -4t-20.5 -4q-17 -3 -34 -5.5t-34 -4.5q-6 0 -41.5 -5.5t-101.5 -16.5l-1 90l118 80l22 2h10zM350 302l-63 21l6 51l55 25zM346 188l-71 34l3 21q0 9 1 16t2 13v-1l5 43l59 -20zM343 76l-150 88q8 1 20 3t15 3q24 5 34 12l-2 -1q4 5 7.5 12t6.5 19l68 -32z M338 34l-10 -2q-11 -2 -36 -6q-31 -5 -47.5 -7.5t-20.5 -3.5l1 1q-8 -1 -10 -3l-36 -6l-133 97q8 24 33 34q10 5 23 8t33 6l-1 -1q6 1 20.5 5t20.5 5l163 -95v-32zM160 5q-5 0 -10 -1t-13 -1q-7 0 -19 1t-31 5h2q-1 1 -6 1q-20 4 -30.5 19.5t-10.5 27.5q0 13 0.5 17t0.5 15z M294 381l3 27l46 -5zM298 412l3 22v-1q0 7 1 12l46 -38zM303 450q1 14 2.5 32t2.5 23l45 -1l-4 -92zM309 516q1 11 1 21t1 20t1 27v42q-21 -2 -31 -2t-15 -2h2q-11 -2 -29.5 -5t-32.5 -5q-20 -3 -33.5 -4t-36.5 2l221 85l-8 -180zM83 647l260 143h8q1 1 7 1l-4 -85l-234 -89 zM71 662q-1 5 -1.5 10.5t-0.5 26.5t28.5 39.5t89.5 27.5l-1 -1l24 6q10 1 27.5 4t28.5 5l-1 -1q8 3 24 5.5t33 3.5l-242 -133zM363 586l32 -66l-41 -104zM371 707l63 -82l-37 -94l-32 66zM377 792q5 0 12 1l7 1q5 1 15.5 2t27.5 2l56 -11l-58 -149l-64 81zM484 802l15 1 l-1 -4zM421 568l39 -55v-1l-9 -85l-90 -15zM466 670l21 -27q-4 -1 -7 -1t-6 -1q-6 -14 -9.5 -41.5t-3.5 -69.5l-32 44zM521 798l92 -135q-23 -5 -42 -5l-8 -2l-8 -2q-17 -3 -30.5 -5t-24.5 -4l-26 32zM531 806l25 1l49 -4l51 -48q8 -18 8 -45q0 -28 -40 -43l-93 137v2z M622 801h3l9 -10zM435 416l14 -11l-3 -29l-85 28zM450 416v-2l-2 2h2z" glyph-name="i"/>
<glyph horiz-adv-x="785" unicode="j" d="M606 464l-79 -65l-4 1v17t-2 27zM677 478q0 -2 2 -8q2 -21 4 -36t2 -23v-23t-1 -27l-143 38l79 65zM564 381l-37 -133l-13 24q1 4 2.5 12.5t2.5 17.5q2 16 3 38.5t1 51.5zM683 346q0 -24 -3 -46l-125 -93l-19 35l37 133zM679 285q-2 -20 -5.5 -40t-7.5 -39q-4 -14 -6 -22 t-3 -15q-2 -4 -3.5 -7.5t-3.5 -6.5q-1 -1 -1 -2l-1 -1h1q-3 -10 -5.5 -15t-6.5 -10h1q-7 -13 -17 -26l-55 99zM517 252l-8 5l2 6zM553 173l-254 -50l43 92q60 -20 102.5 -10.5t59.5 42.5l12 -6zM586 97l-201 -66q-8 2 -15 3.5t-15 3.5q-17 4 -37.5 11.5t-40.5 16.5l20 44 l254 51zM594 74q-19 -14 -44 -27q-54 -23 -86 -23h-38q-2 0 -6 0.5l-12 1.5l179 60zM298 156l-112 28l74 72q29 -20 61 -33l7 -3zM259 75q-18 9 -36 19.5t-37 21.5l-24 41l17 17l113 -28zM164 130q-2 2 -7 5t-9 6l6 5zM249 258l-17 20l5 -5q2 -2 6.5 -5.5t8.5 -5.5zM132 152 q-2 1 -4 3t-5 4l-74 159q5 10 6 11q4 8 11 15l66 13q6 -2 10 -3.5t9 -4.5l85 -98zM93 184q-51 48 -51 76v34zM284 631q-23 -4 -36 -5.5t-16 -1.5q-7 0 -12 1l23 71zM209 626q-15 3 -28 11l2 -1q-32 18 -32 52l38 76l2 1l41 -65zM156 720q3 11 11 22zM440 648 q-26 -1 -55 -3.5t-60 -7.5l-18 -3l136 49zM217 778q12 4 31 9t39 9q9 3 21.5 6t25.5 5q1 0 9 0.5t10 0.5q10 1 24.5 1.5t19.5 0.5q6 1 11.5 1.5t6.5 0.5l34 3l-10 -115l-141 -51zM458 711l169 -39l-115 -136l-5 6q-13 79 -22 91q-9 15 -32 15zM471 815l230 -50l-69 -82 l-169 39zM520 817l114 2h18q8 2 29 2q17 0 31.5 -1.5t26.5 -3.5l-33 -40zM527 540l-12 -45q-1 4 -2 9t-2 17zM596 615l72 -84l3 -18q0 -4 1 -11.5t2 -12.5l-153 -37q-1 5 -1.5 10.5t-1.5 12.5l19 70zM720 754l61 -87q-7 -7 -13 -7t-14 2l1 -1l-12 2t-11 2h1q-7 1 -16.5 1.5 t-22.5 0.5q-37 0 -37 -31q0 -14 1.5 -33t5.5 -42l-54 62zM764 799l48 -48v-8q0 -42 -22 -67l-59 84zM778 802q19 -11 26 -27z" glyph-name="j"/>
<glyph horiz-adv-x="707" unicode="k" d="M496 387q3 -5 6 -9l6 -8l-29 -30l-79 79zM514 361q10 -13 18 -24t15 -19q16 -20 36 -42l-17 -21l-79 79zM592 268q19 -21 39 -39q1 -3 7 -12.5t12 -18.5q2 -2 4 -6t6 -9q2 -4 4.5 -8t4.5 -9l-3 -7l-90 90zM448 359l-85 -90l-3 3l-9 11l42 133zM610 190l-178 -10 q-7 8 -13 16.5t-13 16.5q-8 10 -14 18.5t-11 15.5l-12 14l83 88zM685 108q0 -6 -2 -13t-3 -11l-155 -22q-4 5 -8 10.5t-13 17.5q-4 4 -10 11.5t-8 10.5q-11 14 -22.5 28t-22.5 28l174 10zM676 73v-2q-2 -21 -15 -34l-45 -18h-2q-10 -5 -22 -5q-11 0 -28 11q-14 9 -30 27z M361 335l-40 -19l-14 14l80 87zM232 248v-11q-1 -17 -1.5 -28t-0.5 -20l-62 -9zM344 291l-18 21l29 13zM230 176v-4q-1 -3 -1 -24v-10t-2 -12q-1 -7 -3.5 -16.5t-2.5 -10.5l-5 -21q-3 -13 -9 -20l-7.5 -5t-9.5 -7q-4 -3 -7.5 -6t-7.5 -5q-1 0 -2 -1l-80 60l68 72zM158 26 q-6 -2 -13.5 -3t-13.5 -3q-3 1 -13.5 2t-29.5 14q-2 2 -4 3l2 -2q-7 4 -13 8.5t-10 11.5l23 23zM302 333q-12 10 -21 14q-8 0 -11 -1l-19 91l133 -17zM213 244l-52 200l82 -10l19 -91q-23 -11 -28 -37v-27q0 -6 -2 -14zM130 163l-66 185q5 47 6 103l82 -10l52 -200zM52 88 q-1 4 -1 8q0 5 -1 12t-1 25v48q4 15 5.5 30.5t1.5 29.5t0.5 25.5t2.5 20.5v-2q1 8 1 13t2 19l57 -158zM270 441l52 55l64 -69zM109 465l120 125l13 -13q-2 -15 -3 -36q0 -6 5 -6q7 2 13.5 4.5t13.5 5.5l41 -45l-52 -54zM71 475q2 25 2.5 54t0.5 64l34 122l110 -118 l-120 -125zM83 681q0 17 1 28l2 22l8 -8zM278 549h1l98 -48l11 -70zM285 553q4 4 12 9.5t12 8.5l17 13l-1 -1q7 5 13 9.5t20 14.5l15 -97zM225 611l22 6q-1 -8 -2 -14l-2 -12zM121 730l129 41q16 -23 16 -56l-4 -22q-1 -2 -1 -4q0 -1 -1 -3q0 -6 -2 -14v1q-2 -6 -4.5 -18.5 t-3.5 -23.5l-30 -8zM94 765q5 16 10 24q20 35 60 35q22 0 43 -11.5t36 -31.5l-127 -40zM371 577l74 -74l-51 -71zM369 616q1 1 3 2.5l6 4.5q1 1 3.5 2.5t6.5 3.5l143 -4l-83 -114l-74 74zM403 641q26 20 53.5 42t56.5 45q4 4 8 7t8 7q6 6 11 10.5t13 11.5l66 -11l-84 -116z M569 777q9 8 18.5 15.5t19.5 15.5q25 20 57 25h4l-46 -64zM478 537l11 -38l-10 -8l-10 -8q-2 -2 -4.5 -3.5t-3.5 -3.5l-4 -6q-2 -2 -2.5 -4t-1.5 -4l2 -8t3 -9l-59 -16zM534 609l30 -52l-20 -16l-13 -10q-8 -7 -16.5 -13t-16.5 -13l-1 -1l-12 38zM672 790l47 -94 q-3 -4 -15 -16l-16 -16q-11 -11 -25 -24t-30 -27q-13 -11 -27 -22.5t-30 -23.5l-30 51zM698 817l29 -29q10 -17 10 -49q-2 -17 -9 -30l-44 89zM462 439q4 -5 9 -13t10 -18l-1 1q3 -4 6 -8.5t6 -8.5l-90 31z" glyph-name="k"/>
<glyph horiz-adv-x="617" unicode="l" d="M433 261q6 3 11 5t13 5l-19 -20zM479 281l10 4q74 34 100 34q25 0 46 -33q9 -13 14 -36l-149 -125l-55 121zM650 233q0 -2 1 -3q0 -38 -41 -62q-5 -1 -20.5 -8t-31.5 -15q-7 -2 -13 -5t-13 -6zM428 242l-84 -14l5 1q19 4 42 15l-1 -1q3 1 4.5 2t4 2.5t7.5 3.5t16 5z M482 112q-8 -4 -16.5 -7.5t-17.5 -7.5l-6 -3t-11 -4q-3 -2 -7 -3.5t-9 -3.5l-37 -15q-10 -4 -22 -8.5t-27 -9.5q-7 -2 -13 -4t-13 -4l-15 -3l31 170l110 19zM240 342l-4 -27l-18 11zM234 306l-9 -60l-69 32l57 41zM303 210l-3 1q2 0 4 1zM282 112l-215 99l84 60l72 -33 l-2 -14l3 -11l-1 1q3 -11 3 -15q12 0 28 2.5t34 6.5l10 -4zM262 34q-35 -7 -88 -7q-50 0 -89 45q-35 43 -35 119l10 7l214 -98zM234 345l11 25l-3 -20zM129 272v138l123 6l-2 -12l-25 -63zM50 222q2 37 7 82.5t13 100.5l45 1v-137zM268 507l-5 -30l-1 36zM73 421q0 6 4 26 q2 11 3 19t2 13l83 127l85 -89l2 -88zM87 507l1 5q5 22 11 48t12 58q1 7 3 14.5t4 14.5l35 -37zM236 547l44 35l-11 -68zM212 576l59 118l17 -63l-6 -37l-50 -38zM123 672l3 13l-1 -2q0 7 3 18l107 112l31 -110l-58 -119zM133 726q2 3 2.5 6t1.5 5l-1 -1q6 37 20 54 q18 33 41 33q25 0 28 -1zM273 747l28 -2q1 -4 1.5 -10t0.5 -18l-1 -3l-8 -43zM264 805q7 -4 15 -14q13 -15 18 -32l-20 1z" glyph-name="l"/>
<glyph horiz-adv-x="673" unicode="m" d="M504 432l11 -45l-5 -10l-128 40zM541 435q-3 -5 -5 -9.5t-4 -6.5q-2 -4 -5 -9t-6 -11l-7 32zM575 438l62 -99l-91 29q-1 10 -1 27v40zM683 450v-2q0 -30 0.5 -60t1.5 -60l-34 10l-62 100zM474 382l-101 -75l3 106zM504 367l-21 -38q-4 -8 -7.5 -14.5t-7.5 -13.5 q-6 -11 -10 -18t-6 -11q-4 -7 -13.5 -22.5t-18.5 -29.5v1q-19 -30 -45 -31l3 109l101 76zM600 337l-52 -42v48q0 8 -1 11zM685 303v-6l-138 -134v14v13l1 2v89l57 47zM686 285v-22l3 -53v-17t1 -17l-126 -100q-14 30 -17 75zM691 163l3 -33l2 -31q0 -29 -17 -49 q-17 -18 -53 -18q-35 0 -56 34zM369 306l-8 -6l11 110zM366 190q-10 2 -14 5l9 93l8 6zM354 246l-53 100l69 63zM205 251q-2 -20 -3.5 -33t-3.5 -26l-39 17zM344 199q-28 17 -53 67l1 -1q-2 4 -5.5 10.5t-7.5 15.5l-9 21l25 23l53 -100zM196 181q0 -4 -1 -8.5t-2 -10.5v-12 q0 -6 -1 -25l-62 52l24 22zM191 112q-1 -15 -3 -30.5t-4 -31.5q-5 -9 -16 -14q-19 -11 -34 -17t-39 4l-22 17q-3 4 -5.5 9t-4.5 10v-1q-3 7 -6.5 18.5t-5.5 21.5l75 69zM265 323l-21 52l6 78l114 -38zM149 224l-45 274l136 -47l-4 -52q-8 17 -12 26t-5 11q0 2 -0.5 -2 t-1.5 -13q-1 -8 -1 -16q0 -7 -1 -12l-5 -86l-3 -30zM54 145l-2 6q1 4 3 15q6 30 6 41q7 88 14 157t16 132h1l46 -274zM235 467l87 33l44 -78zM150 501l68 179l96 -172l-87 -33zM95 525q1 6 2.5 12t3.5 33q1 3 3 30q0 5 1 9q3 19 8.5 47.5t11.5 58.5l41 50l42 -77l-68 -178z M130 740q2 4 4.5 13.5t7.5 24.5l4 11l11 -18zM302 548l79 -48l3 -8q2 -6 3 -10l-1 2q0 -3 1 -4l-16 -55zM228 690l89 6l8 -24t9 -24q2 -8 5 -15.5t5 -15.5q8 -24 12.5 -38.5t9.5 -28.5q8 -20 9 -28q0 -4 1 -7l-76 46zM201 749l91 6q9 -17 21 -48l-85 -5zM169 813q7 4 44 4 q35 0 73 -51q1 -1 1 -2l1 -1l-87 -7zM388 466v-1q7 7 30 66l22 -18l-64 -88zM422 541q5 12 9 24t9 25q4 9 9.5 24t13.5 36l47 -40l-65 -88zM467 663l2 4q4 10 12 32.5t18 46.5l4 6t4 7l96 -20l-87 -117zM516 770q18 19 39 19q22 0 52 -22q4 -3 5 -4l3 -3l-7 -9zM436 496 l121 -53l-176 -22zM563 661l81 -202l-77 -9l-121 52zM580 678l99 -109q2 -20 2.5 -45t1.5 -55l-31 -4l-81 202zM633 743q3 -3 6 -6.5t6 -7.5q2 -5 6.5 -16.5t9.5 -28.5t8.5 -29.5t4.5 -22.5q2 -10 2.5 -21.5t1.5 -25.5l-89 98z" glyph-name="m"/>
<glyph horiz-adv-x="642" unicode="n" d="M412 408q2 -4 4 -7t4 -5h-1l39 -55l-26 -19l-71 95zM522 387l-32 -23q1 5 1 12v17zM655 357l-118 -170l-95 129l22 16q16 -23 22 -28q0 2 0.5 7t1.5 12q0 1 0.5 7.5l1.5 19.5l42 30zM659 343v-58v-18t-1 -29l-75 -107l-37 50zM657 219q0 -11 -1 -23.5t-1 -25.5 q-6 -90 -13 -111l-50 66zM403 346l-90 -78q-2 2 -3 2.5t-2 1.5l45 142zM486 226l-118 -41l-3.5 3.5t-3.5 5.5q-5 7 -9 14t-9 14l1 -1q-5 8 -9.5 16t-11.5 18q-3 3 -5 6l86 75zM566 109l-102 -21l-3 3q-25 21 -46.5 42.5t-38.5 41.5l112 39zM618 30q-14 -8 -30 -8 q-43 1 -112 57l92 19zM312 299l-22 -4q-1 1 -2.5 4.5t-5.5 9.5q-2 2 -4.5 6.5t-6.5 9.5l77 88zM216 258v-10l-6 3zM303 279q-2 3 -4 5.5t-4 5.5l13 2zM218 234q0 -3 0.5 -10.5t1.5 -12.5l8 -100l-1 1q3 -9 1 -25.5t-11 -28.5l1 1q-2 -3 -3.5 -6t-5.5 -7l-77 110l74 86z M200 37q-6 -6 -13 -8.5t-17 -3t-24 0.5t-35 3q-34 21 -46 46l60 70zM269 329l-1 1l-13 74l3 2l-3 1v-3l-3 15h95zM168 219l-86 195h160l11 -60l-8 12q-2 0 -3 4q-7 0 -7 9l-3 6l1 1q-2 2 -3 5l1 -2q0 3 -2 5q-2 3 -7 8q-3 4 -6 7q1 -1 1 -37q0 -9 -1 -12v-86zM96 145l-34 51 q-1 14 -1 23v20q-2 13 -3 25.5t-2 25.5q-1 14 -3 43.5t-5 75.5h21l86 -195zM60 110v7q0 19 3 45v13l23 -35zM209 423l19 30l116 -30h-135zM133 424l-15 56l101 -26l-19 -30h-67zM48 426v7q0 4 3 42l1 21l53 -14l16 -56h-73zM206 464l108 89l12 -21l21 -104zM161 480l124 132 q8 -17 14.5 -30l11.5 -23l-110 -89zM53 514l1 29l168 216q7 -13 16 -34t21 -50l-1 1q2 -5 5 -12t7 -16q2 -7 5 -13t6 -13l-126 -134zM55 566l3 44v81q0 12 3 24v-1q0 8 1.5 17t3.5 22l79 58q43 -3 69 -38q0 -2 1 -2zM73 771q15 37 53 40zM338 516q16 -26 36 -51l-20 -33z M479 674l-6 69v1l34 -18zM473 760q1 24 11.5 37.5t24.5 19.5t27 6t18 -3l-44 -79zM375 462l6 -8l-25 -27zM503 691l29 -72l-45 -49l-7 79zM536 746l73 -41l-68 -74l-29 73zM574 813q13 -8 24 -18q27 -20 37 -54q0 -2 1 -5l-19 -20l-73 41zM383 451l1 -1q5 -9 11 -16 q2 -2 4 -6.5t6 -9.5l-45 8zM548 622l55 -237l-111 21q1 25 1.5 43t0.5 31l-6 75l1 3zM639 711l3 -13q4 -26 6 -55.5t4 -67.5q0 -11 0.5 -30.5t0.5 -35.5q1 -5 1 -9v-5q1 -4 1.5 -17.5t0.5 -21.5l2 -77l-45 9l-53 237z" glyph-name="n"/>
<glyph horiz-adv-x="803" unicode="o" d="M681 347l-166 -169l-10 34q31 16 56.5 39.5t47.5 57.5q8 12 15.5 25.5t12.5 24.5zM783 310l-7 -18l1 1q-16 -40 -37 -74l-36 -48q-4 -5 -9 -10l-12 -12l-13 -13q-17 -14 -38.5 -27t-45.5 -24q-3 -2 -11 -5t-13 -7q-4 0 -11 -5l-29 102l166 168zM500 184l-66 -83l1 90 q34 5 56 15l1 1q1 0 2 1zM533 59q-3 -1 -5 -2.5t-5 -3.5q-19 -7 -40.5 -12t-47.5 -8v54l67 82zM219 321q4 -40 23 -68l-78 43zM422 157l-67 36q2 0 4 -1l-1 1l20 -2.5t18 -1.5h12t14 1v-33zM413 31q-7 0 -17.5 -0.5t-17.5 -0.5l-311 206q-1 2 -1 4t-1 4l91 41l258 -139z M360 31q-14 1 -30.5 4.5t-52.5 12.5v-1q-8 2 -15.5 5t-21.5 8l-24 10q-25 13 -38.5 20t-17.5 9q-14 10 -21 18q-10 8 -18 20q-25 16 -49 84zM139 297l83 105h5q-9 -26 -9 -45v-24zM81 274l-25 33v2q0 7 1.5 17.5t3.5 19.5q0 6 0.5 15t1.5 21l143 16l-83 -105zM61 267 q-1 5 -1.5 9.5t-2.5 10.5l12 -16zM196 411l46 244l83 -102q-15 -15 -30.5 -34t-27.5 -38q-23 -35 -36 -66zM75 405l15 82q7 16 16 32q28 53 55.5 93.5t53.5 69.5l17 -21l-46 -244zM313 584l27 -16l-8 -8zM301 604l108 116l7 -94q-12 -5 -24.5 -15t-26.5 -21q-4 -3 -8.5 -7.5 t-10.5 -9.5l-35 21zM232 700q11 10 21.5 18.5t21.5 16.5q34 24 65.5 42t59.5 29l6 -74l-108 -114zM417 738l91 -20l-16 -63q-34 -4 -68 -23zM415 812q36 11 52 11q17 0 31 3q8 1 17 1.5t19 0.5l-24 -92l-92 20zM520 718l124 -145l-11 -7q-8 16 -16 28q-44 62 -114 62z M551 827q5 -1 9 -1t7 -1l167 -188l-85 -55l-124 145zM593 818q33 -11 68 -33q60 -37 98 -103q1 -3 4.5 -9.5t4.5 -8.5l-24 -16zM716 600l-5 -243l-67 20q14 42 14 85q0 44 -18 89zM781 636q7 -15 10 -35l-1 2q3 -10 6 -22l3 -9l3 -15t2 -7q5 -23 8 -42t3 -35q0 -30 -5 -64 t-17 -70l-68 21l4 243z" glyph-name="o"/>
<glyph horiz-adv-x="566" unicode="p" d="M445 377l-1 -2l-13 -9v1l-14 -9q-2 -2 -6 -4t-7 -4l-74 67zM400 348l-14 -8t-15 -8q-7 -4 -14 -7t-14 -7l-16 97zM336 315q-5 -2 -9 -3.5t-8 -3.5q-11 -3 -15.5 -4.5l-13.5 -4.5l-13 -4l-66 31l108 87zM267 292l-5 -2h1q-37 -12 -38 -16t-2 -10.5t-1 -13.5l-83 14l69 55z M221 243v-11q0 -9 -1 -20t-3 -21v1q-4 -23 -4 -35l-130 57l53 43zM212 143q-1 -21 -1.5 -35t-1.5 -24q-11 -60 -54 -60t-62.5 21t-19.5 75l2 77l5 4zM210 336l-21 119l35 -10q0 -16 3 -16q4 0 23 9l64 -18zM108 260l-10 215l82 -23l21 -118zM76 241l6 234l5 -1l10 -216z M259 442q8 4 15 7t14 7l26 -29zM181 464l43 61h1q-1 -22 -1 -38v-35zM82 494v10l106 56l28 -30l-43 -62zM83 514l3 26q0 2 0.5 14.5t0.5 24.5q1 5 0.5 11.5t-1.5 21.5q0 16 -1.5 23.5t-5.5 14.5l9 16l92 -101zM72 663q-3 3 -7 9q-6 9 -10.5 17t-6.5 16l30 -32zM292 458l18 9 q2 1 6 3.5t11 6.5l-7 -50zM132 638l99 -3q-5 -26 -6 -98zM112 669l252 135l-21 -146q-83 0 -105 -12l-108 4zM54 742q19 38 90 58q72 19 126 19t92 -4v-1l-251 -135zM331 479l2 1l-9 -50zM364 658h-3l8 29zM376 803l6 10l9 -1l-20 -111l-11 -43h-4zM335 482q5 4 11 7.5 t11 7.5q2 2 5.5 4t8.5 5l10 -48l-56 -29zM378 512q70 55 70 84t-8 40l122 -77l-174 -92zM375 677l44 -29q-15 7 -48 10zM403 810q4 -1 7 -1.5t7 -1.5l180 -192q-1 -9 -2 -17.5t-3 -16.5l-23 -13l-187 119zM434 804q96 -22 131 -72l-2 2q22 -25 29 -55q5 -22 5 -49zM406 462 l41 -82l-117 41zM554 538l-25 -83q-11 -13 -21.5 -24.5t-21.5 -22.5l-12 -12q-5 -3 -9 -6t-9 -7l-41 81zM582 549q-8 -20 -21 -45q-2 -4 -4.5 -8t-8.5 -13l17 57z" glyph-name="p"/>
<glyph horiz-adv-x="809" unicode="q" d="M538 393l2 -138l-80 121v9t1 8h77zM732 387l-107 -249l-74 112l-3 137h67l1 -4q0 -5 1 -9l3 -12v-8q2 4 6.5 9.5t9.5 13.5l6 10h90zM806 382q-23 -69 -70 -136l-18 -24q-3 -4 -6.5 -9t-8.5 -10q-4 -5 -8 -11t-8 -11q-6 -8 -6 -11q0 -4 28 -44l2 -4t3 -4l-27 -63l-51 78 l107 249h63zM721 107q20 -37 20 -64q0 -26 -11 -43l-34 51zM521 277l-48 44l-13 34v9v6zM617 132l-83 35l-55 143l48 -44zM670 47l-31 -69q-20 10 -44 37l-53 137l82 -36zM713 -21q-18 -12 -34 -12q-15 0 -28 5l27 61zM465 321l-4 -1q-1 5 -1 8v6zM554 74l-341 110l36 30 q17 -11 41 -17.5t51 -6.5q28 0 73 13q48 14 52 30q0 7 0.5 13t1 14t-0.5 19t-4 28l-1 2h1zM546 65q-8 -3 -17 -6t-19 -7l-372 56l73 64zM555 57l-7 7l4 -1zM487 44q-80 -24 -144 -24q-5 0 -9 0.5t-10.5 1t-16.5 2t-26 4.5q-13 2 -29 7.5t-33 12.5h1q-25 10 -47.5 22.5 t-38.5 25.5l1 1zM231 221l-87 82l65 20q-3 -15 -3 -44t29 -55zM110 117q-1 1 -2.5 3t-5.5 6q-5 5 -8 9t-5 6q-3 3 -4 6l-20 129l69 20l87 -82zM59 221q-2 8 -3 15t-2 15zM129 312l96 247l75 -60q-5 -8 -10 -15.5t-10 -15.5q-26 -38 -43 -70.5t-25 -60.5zM52 295v8 q0 130 89 266q5 9 9 15t12 16l48 -39l-94 -247zM318 522l-1 -1l-5 8zM210 583l33 14l59 -60l13 -18l-9 -12zM172 615q5 7 11 14t12 15l36 -37l-32 -13zM280 577l253 142l-20 -64q-56 -11 -107 -44q-38 -26 -81 -79zM209 660q30 35 60 59l198 102q27 5 43.5 6.5t26.5 1.5 t15.5 -1t8.5 0l-30 -96l-254 -141zM321 760q2 1 3.5 2.5t4.5 2.5q13 9 30.5 18t38.5 16zM532 677l10 -18q-5 -1 -10 -1q-4 0 -7 -1zM571 796l79 7q5 -2 11 -5t11 -7l-1 1q16 -8 30 -18l-88 -124q-21 9 -57 9l-17 31zM583 824q8 -1 17.5 -3.5t20.5 -5.5l-42 -4zM462 400 q10 57 52 61l36 -61h-88zM653 406q4 10 5.5 13.5t3.5 9.5l2 6l6 -29h-17zM526 461h9q50 0 69 -40l-1 2l4 -8t3 -9h-50zM716 762l16 -13l100 -265q-2 -12 -6 -30.5t-10 -39.5h-132l-11 52q2 14 3.5 34t1.5 46q0 52 -39 87l-3 15zM758 721q10 -12 14 -17q2 -2 4 -4.5t4 -6.5 v-2q12 -17 28 -47q1 -1 5 -18.5t9 -35.5q1 -3 2 -7.5t3 -10.5q6 -24 6 -48z" glyph-name="q"/>
<glyph horiz-adv-x="619" unicode="r" d="M452 376l-74 -77l-24 111zM513 348q7 -11 12 -19t9 -13l14 -22l14 -22l-125 -142q-2 3 -2.5 4t0.5 -1q-3 3 -9 15q-2 4 -4.5 9.5t-6.5 13.5q-1 2 -2.5 4t-3.5 6l-24 110l74 76zM569 261l15 -24q8 -18 14.5 -35t11.5 -33l-122 -126q-22 19 -38 53q-2 4 -3 8t-3 8l1 -1 l-3 6zM614 158q14 -42 14 -57t-7 -23l-6 -27q-19 -25 -67 -31q-27 0 -52 17zM377 282l-61 59l33 67zM267 230q-1 -7 -2 -18t-3 -28q-1 -2 -1 -5l-16 7zM321 324l-8 2l2 4zM383 237q-4 8 -7.5 16t-5.5 10q-5 8 -8 13t-4 6q-2 5 -5 8.5t-5 6.5l27 -27zM259 165l-3 -24t-1 -10 q-2 -8 -4 -18t-4 -22q-1 -4 -4 -14t-4 -13q-1 -4 -6 -10l-44 8l54 110zM223 42q-20 -21 -50 -29l1 1q-2 0 -4 -1l18 35zM266 251l-34 82l110 74l-38 -79q-9 1 -16 1q-6 0 -10 -6v-1q0 -5 -1 -14l-2 -18t-2 -17t-1 -11h-1zM256 237l-127 24l97 65l34 -81zM151 30l-69 66 q1 10 1 15t3 15v-1l12 83q1 6 1.5 13.5t0.5 16.5l20 13l128 -23zM140 14q-5 1 -11.5 3.5t-15.5 5.5q-29 11 -31 55l61 -58zM284 375l-76 48l134 -9zM121 269l-7 157l84 -6l76 -48zM101 259q3 57 3 137l5 -132zM280 422l10 46l55 -51zM104 438q-1 12 -1 24v33l21 121 l155 -143l-10 -46zM99 549q-2 19 -4.5 33t-5.5 23q-1 1 -2.5 3.5t-3.5 6.5l13 21l16 -15zM77 626q-1 6 -8 14q-8 12 -13 27l29 -27zM269 494q17 2 74 25l2 -97zM248 513l7 1l3 -11zM337 663q-8 -3 -19 -4t-22 -4l41 43v-35zM205 559l46 48v-15v-32t3 -37l-9 -1zM54 705 l276 77l2 -73l-56 -58q-20 -5 -20 -7q-3 -3 -4 -19l-52 -55zM53 716q6 32 33 46q9 7 22 12h-1q2 1 5.5 2t8.5 3h3q42 17 92.5 26.5t107.5 12.5v-26zM351 502l90 24l-88 -104zM353 522q71 24 102 64l17 -17l-29 -33l-90 -24v10zM349 697l26 -27l-12 -3q-4 -1 -7 -1t-6 -1z M352 750l224 -52l-101 -118l-15 14q13 21 18 45q-12 37 -68 37q-1 0 -4 -0.5t-8 -1.5q-2 -1 -5 -1t-7 -1l-33 35zM355 819h20q33 0 58.5 -2t45.5 -6l-2 1q55 -8 108 -54l-1 1q13 -10 21 -19l-25 -30l-224 52zM417 495l-8 -47l-55 -29zM538 633l-17 -123l-104 -55l9 46z M572 668l66 -54l-11 -46l-1 -1l-94 -49l16 123zM621 723q26 -35 26 -73l-6 -24l-60 49zM487 483v-78l-7 -7q1 -2 2 -3.5t6 -9.5v-14l-129 45zM611 545q-26 -38 -45 -60q-14 -17 -39 -42l-10 -11q-3 -2 -11 -10q-2 -2 -4.5 -4t-4.5 -4v71z" glyph-name="r"/>
<glyph horiz-adv-x="632" unicode="s" d="M436 399q-7 1 -23.5 1.5t-42.5 0.5l-16 21zM512 377l-17 -5q-4 9 -17 15zM612 345l-106 -123l-50 68q42 40 42 56v18l23 7zM651 329q-1 -14 -3 -25t-5 -20v1q-22 -63 -87 -124l-39 54l105 122zM361 401q-3 0 -8 -0.5t-10 -0.5l5 18zM503 199l-218 -31l7 27q32 1 57 14 q2 0 12 7q22 14 23 15q17 13 32.5 25t28.5 23zM537 144l-8 -6t-8 -7l-259 -103q-8 0 -11 1l35 128l219 31zM484 104q-101 -71 -190 -77zM336 400h-1q-8 -1 -15 -1h-18l40 21zM231 51l-172 119q-2 10 -2 29q0 20 21 41q22 21 48 21t51 -19q1 -1 2 -1.5t2 -1.5q6 -4 12.5 -8.5 t17.5 -14.5q2 -1 5 -2t8 -3q8 -2 13.5 -4t7.5 -3q8 -2 14.5 -4t11.5 -3zM221 35q-20 5 -40 13.5t-40 21.5q-56 34 -76 79l157 -108zM289 399l-29 -1q-15 0 -29.5 0.5t-28.5 1.5l-24 4l160 21zM262 419l28 81l51 -71zM153 409q-29 8 -52 23l124 145l9 -13q-2 -2 -2 -7 q3 -1 9 -1l39 -54l-28 -81zM93 438q-19 14 -30 34q-5 7 -9 18l83 197l78 -105zM48 503q-7 18 -7 49q0 30 37 79q10 12 20.5 23t23.5 21zM303 487l-18 70h5l52 -123zM254 556h14q8 0 14 1l15 -59zM192 640l48 29l31 -72q-18 -14 -30 -24zM151 698q3 3 11.5 9t17.5 13 q3 2 8 6.5t13 10.5q2 1 3 2t3 2l26 -60l-48 -29zM315 508l60 57h5q4 0 9 1l-42 -131zM297 558q1 0 11.5 1t18.5 1q9 1 17 2t19 2l-49 -47zM249 670l91 -33q-12 -6 -26.5 -14t-29.5 -18q-2 -2 -6 -3zM220 748q1 1 4 1q2 1 6.5 3t12.5 7q2 2 5.5 4t8.5 4q29 14 50.5 24.5 t35.5 15.5l107 19h14l-52 -160l-18 -8q-8 -3 -15 -6t-14 -5l-9 -3l-108 39zM371 491l85 -38l-105 -23zM400 566h7q26 0 47 -1.5t38 -3.5l92 -76l-121 -26l-86 38zM519 556q41 -9 63 -25q18 -11 34 -32l-22 -5zM472 766l128 -107q-6 -9 -12 -13t-12 -5.5t-12.5 -2t-14.5 -3.5 q-8 -2 -24 -2q-18 0 -31 36q-9 15 -21 15q-11 0 -29 -6zM497 824q30 -7 71 -48q45 -42 45 -68q0 -25 -6 -38l-126 105zM503 459l-18 -69l-129 37zM584 475l-40 -100l-51 15l19 69zM627 481q12 -23 18.5 -53t6.5 -49t-0.5 -24t-0.5 -8l-95 28l40 99z" glyph-name="s"/>
<glyph horiz-adv-x="719" unicode="t" d="M429 414l-1 -7q0 -5 -0.5 -8.5t-1.5 -9.5l-39 27zM426 381q-1 -8 -2 -22.5t-3 -36.5q-2 -42 -3 -66l-5 -6l-28 159zM418 242v-1l-1 1h1zM407 246l-82 23l53 138zM419 161v-6l-124 28l29 76l82 -23zM420 141q0 -4 1 -5q-1 -4 -1 -9v-18q0 -29 -5.5 -42.5t-17.5 -22.5 q-4 -5 -8 -8t-8 -5l-114 68v3l27 70l126 -28v-3zM368 25q-7 -1 -13.5 -1.5t-14.5 -0.5q-15 0 -37 14t-36 33v16zM343 335l-68 14l1 29l97 35zM268 156q2 85 6 182l60 -11zM277 384q0 9 1.5 31.5t3.5 63.5l7 13l82 -74zM123 628q-14 1 -19 1.5t-18 2.5q-7 6 -14 11l6 25z M63 649q-17 14 -18.5 23.5t-1.5 20.5l25 -22zM283 508v4q0 3 1 7l76 11l15 -105zM284 529q0 9 0.5 19.5t1.5 27.5q5 17 5 30q0 15 -0.5 21.5t-21.5 6.5l67 42l19 -137zM103 681l193 120h19l16 -114l-86 -53h-6q-28 0 -44 -1t-35 -3zM51 735q12 32 48 52l16 4t18 4 q19 3 28.5 4t26.5 4q3 1 11 1q19 0 40 -0.5t35 -1.5l-176 -110zM362 552l28 16l-11 -140zM346 674l49 -30l-5 -66l-29 -16zM332 780l66 21q2 1 8 1l-12 -146l-49 30zM331 800h15l-14 -5zM397 577l39 -23v-34q0 -9 -1 -13l1 1l-4 -59l-47 -23zM406 620l32 -9v-21 q0 -12 -2 -26l-33 19zM425 804h29l237 -153q-4 -2 -5 -3q-8 -3 -14 -3l-2 1q-3 0 -8.5 0.5t-10.5 1.5q-7 0 -12.5 0.5t-12.5 1.5h-4t-10 -1h-63q-34 0 -86 -6h1l-14 -1q-8 -8 -11 -21l-27 8zM475 805q7 0 12.5 1t13.5 2.5t21.5 2.5t36.5 1q14 0 36.5 0.5t42.5 -4.5l56 -36 q11 -12 17 -27.5t6 -26.5q-2 -7 -1 -11.5t0 -10.5t-4 -14.5t-12 -21.5zM431 441q-1 -4 -1 -9q0 -4 -1 -15l-45 2z" glyph-name="t"/>
<glyph horiz-adv-x="703" unicode="u" d="M557 366l-33 -3l2 10zM630 346l-1 -140l-114 96q2 13 4 27l4 28l44 3zM683 331q-2 -17 -3.5 -34t-5.5 -52l-9 -66l-25 21l1 140zM563 245l-126 -114l-17 98q5 2 16.5 6t16.5 6q7 2 17 6t24 10l-3 -1q16 11 20 29l1 3zM663 155l-1 -7q0 -8 1 -12l-108 -93l-20 22t-21 22 q-2 -1 -10 -2.5t-16 -4.5q-2 -1 -5 -2t-7 -3q-7 -2 -13 -4t-11 -4l-9 52l127 114zM666 122l1 -4q1 -4 1 -12q1 -4 1 -33q0 -27 -27 -40q-13 -9 -29 -9q-15 0 -46 13zM214 267q-1 -11 -1 -20v-29l-41 18zM423 125l-142 63q49 9 125 36zM427 59l-6 -3l-5 -1l-333 109l84 62 l48 -21q3 -11 8.5 -16t12 -6t13 0t11.5 2l157 -69zM400 51q-108 -31 -141 -31q-31 0 -56 3l-86 28q-2 1 -5.5 2.5t-9.5 6.5q-28 19 -40 64l-2 8t-2 9l21 15zM165 249l-62 105l121 20q-2 -13 -5 -38t-4 -50zM98 203l-38 104q1 7 2 17.5t2 21.5l28 4l62 -105zM53 173 q-1 16 -1 41t5 68l30 -84zM147 372l-12 146l105 -51q-1 -2 -2.5 -12.5t-4.5 -27.5q-2 -10 -3.5 -20t-3.5 -20v1v-1l-5 -3zM67 363q1 6 1.5 11t2.5 14q12 82 24 146l29 -14l12 -146zM193 504l74 101q-1 -4 -2 -9t-3 -12q-2 -3 -6 -24h1q-2 -2 -4 -12l1 1q-7 -34 -12 -68z M98 556q5 26 10 52.5t11 54.5l102 109q18 -8 33 -21l-2 1q8 -6 11 -9l20 -63q-1 -8 -2.5 -18.5t-4.5 -23.5l-91 -124zM124 688q1 0 1 2q2 12 5.5 26.5t10.5 29.5q13 25 32.5 29t34.5 1zM536 473v7l15 -1zM537 490q1 8 2 20.5t2 28.5t2 28.5t2 21.5q0 8 1 20.5t3 20.5 l112 -97l-103 -44zM550 643q3 19 3 46q0 14 1 17l141 -151l-28 -13zM555 718q10 61 70 70l88 -58q3 -10 3.5 -17t0.5 -15t-1.5 -20.5t-3.5 -32.5q0 -1 -0.5 -6t-1.5 -16q-1 -10 -1.5 -16t-0.5 -8l-3 -36l-4 -2zM645 789h2q45 0 61 -40zM620 499l66 -140l-1 -14l-152 33 l-4 19q1 13 2 25t3 25v-1q0 5 0.5 8.5t0.5 7.5zM702 530q-2 -32 -4 -54t-4 -35q-2 -25 -6 -59l-56 118z" glyph-name="u"/>
<glyph horiz-adv-x="616" unicode="v" d="M513 407l-88 -56l-29 29q3 10 6 19t7 18zM572 399l-17 -45l-63 -67l-59 60l88 56zM543 321l-6 -16q-1 -2 -3.5 -8.5t-7.5 -18.5q-1 -2 -2 -5.5t-3 -8.5l-17 16zM442 325l-62 9q2 5 4 11t4 11q3 10 6 18zM508 249l-197 -113l19 119q4 -13 8 -13q3 0 23 44q1 3 5 12.5 t10 26.5l68 -11zM510 236q-2 -3 -3 -6.5t-1 -4.5q-1 -2 -3 -7.5t-5 -13.5q-1 -5 -6 -16q-20 -42 -44 -80l-136 -6l3 23zM441 99q-1 -1 -9 -13q-1 -2 -5 -8q-8 -11 -27 -30q-4 -2 -13.5 -7.5t-19.5 -8.5q-15 -5 -27.5 -8t-34.5 7l10 62zM295 369l13 -44l-80 -24zM293 124 l-77 39q-17 40 -33 87l39 40l88 26q2 -8 4 -14.5t5 -15.5zM280 51q-13 13 -24.5 31.5t-22.5 41.5l-10 22l66 -33zM234 311l51 87h2q1 -6 3 -11.5t4 -14.5zM180 260q-8 22 -15 48l-10 38l119 46l-50 -87zM283 401l-20 36l13 -2q1 -5 3 -12q3 -9 4.5 -14t2.5 -7zM152 354 l-22 84v-1q-2 5 -3 9.5t-3 9.5l127 -21l20 -35zM267 441l4 11q1 -5 3 -12zM120 470q-4 13 -9.5 29t-9.5 32l111 123q7 -22 13 -43t11 -43v2q3 -8 6 -18t7 -21q5 -16 9 -31t8 -29l-9 -23zM96 546q-6 18 -13 40.5t-15 49.5q-4 10 -5 14l104 115q3 -3 6 -5v-2l-2 2q1 -5 9 -15 q8 -18 14 -34t14 -42zM60 660q-6 18 -9 31t-2.5 24t6 21.5t17.5 22.5q23 25 46 25q24 0 42 -13zM489 676l10 38l-1 -2q2 15 7 31h26zM508 755q20 56 56 66l6 -1l-40 -65h-22zM456 553v3l7 7zM483 642l3 -51l-17 -20l-12 -12q2 8 4.5 15.5t4.5 15.5q1 2 3 9.5t5 19.5 q1 6 5 15zM579 796l19 -69l-103 -123l-3 50zM597 824q34 -6 44 -45l-36 -42l-19 70zM457 551l-35 -129l-11 1q4 9 5 16l5 13q5 14 8.5 22t4.5 12l20 61zM516 616l45 -202l-131 12l35 128zM587 688l48 -73q-5 -23 -10 -48t-12 -53l-6 -18t-6 -19q-4 -11 -9.5 -26t-12.5 -34 h-6l-45 201zM646 750q-1 -3 0 -5.5t1.5 -13t-1.5 -33.5t-8 -67l-40 61z" glyph-name="v"/>
<glyph horiz-adv-x="869" unicode="w" d="M577 447q1 -3 2 -6.5t2 -7.5l-7 -35l-90 21zM589 404l2 -5h-3zM809 514l-64 -150l-46 11q5 20 12 52.5t13 60.5zM896 536q-2 -19 -3 -29t-3 -19q-2 -13 -5.5 -28.5t-7.5 -33.5q-5 -22 -9.5 -40.5t-8.5 -35.5l-4 -6l-94 21l64 150zM594 388l6 -20t6 -21l2 -6l-58 -59 l-65 131zM611 333q4 -8 9 -17l10 -18q3 -5 7.5 -11.5t7.5 -9.5l-49 -79l-39 79zM697 360l-5 -8l3 8v-1v2zM847 321q-5 -13 -9.5 -24.5t-10.5 -32.5q-8 -18 -10.5 -27.5t-7.5 -20.5l-144 -146l-60 120l51 81q6 4 17 29l34 53zM793 177q-5 -13 -9 -22.5t-8 -17.5 q-44 -86 -90 -93l-8 15zM528 311l-47 -53l-5 10l-3 6l-2 4l8 131zM598 162l-58 -10q-10 16 -25 43.5t-29 54.5l44 49zM652 46q-48 13 -96 81q-2 3 -4.5 6t-4.5 7l54 9zM466 286q-22 42 -20 46q-5 -2 -27 -45l-25 5l80 118zM414 277q0 -2 -12 -24q-7 -13 -10.5 -20l-4.5 -9 l-8 -14l-8 -14q-2 -4 -4.5 -8t-5.5 -9l-29 17l58 85zM354 167q-9 -15 -16.5 -27t-18.5 -28h1q-8 -13 -15.5 -22.5t-13.5 -17.5q-12 -15 -27 -28l-26 8l89 130zM249 32q-14 -11 -27 -11l11 17zM374 275l-77 89l170 48zM315 194l-53 143q1 4 8 16l20 5l77 -88zM219 62 l-133 179q-2 15 -3.5 27.5t-3.5 26.5l142 40l2 -39q2 -20 5 -20t24 40q1 1 3 6l50 -135zM188 28q-10 4 -22 11t-19 14q-32 39 -54 151l112 -152zM402 402l-46 90l115 -72zM279 371q3 5 5 10q21 37 58 113l2 -2l46 -90zM144 333l71 118l1 -72q0 -3 1 -6v3q0 -7 0.5 -10 t2.5 -12zM76 321q-1 4 -1.5 10.5t-1.5 12.5q-8 76 -12 156t-4 164l156 -98l1 -86l-86 -144zM394 476l43 95l36 -145zM349 508q4 8 7.5 16t8.5 16h-3l19 37v-1l8 20l-1 -1q2 5 6.5 12.5t6.5 12.5q6 10 15 21l15 -62l-43 -96zM141 643l70 45l1 -2l1 -88zM59 702q9 82 69 82 q62 0 81 -79l-77 -49zM449 545l88 -27l-58 -92zM429 650q13 8 41 8q30 0 54 -32q9 -14 18 -40q1 -4 3.5 -12t6.5 -22v-2l-12 -19l-88 27zM555 537q1 -2 1 -5q0 -2 1 -6q1 -2 1.5 -5t1.5 -5q1 -4 1 -8t1 -8q2 -7 7 -19q2 -7 3.5 -14t3.5 -15l-92 -28zM727 502q0 4 1 10.5 t6 29.5l21 -31zM739 563q4 20 4 40t-1 25q0 8 -3 47q-1 11 -1.5 22t-1.5 22q0 12 -0.5 18.5t-0.5 10.5q0 5 0.5 8.5t0.5 8.5l161 -169v-6q0 -4 -1 -13v-18l-128 -39zM740 779q13 37 85 37t72 -202z" glyph-name="w"/>
<glyph horiz-adv-x="677" unicode="x" d="M465 413q-7 -10 -8 -14l13 -14h-1l25 -25l2 -58l-108 125zM503 351l55 -54q7 -6 14 -12.5t15 -12.5l-20 -47l-62 71zM597 265l5 -3q29 -28 39 -44q14 -11 22 -26q1 0 4 -4l6 -8l2 -4l-21 -46l-76 89zM681 162q8 -19 8 -33t-3 -30l-22 25zM475 320l-60 -2l-31 107z M558 219l-62 -69q-2 2 -3 2.5t-2 1.5h1q-4 3 -7 6l-7 7q-8 7 -13.5 12t-9.5 10l-34 117l59 3zM615 148l-69 -49q-9 9 -18 21l2 -1q-5 6 -12 12q-2 2 -5.5 4.5t-8.5 7.5l59 65zM679 72q-2 -4 -3.5 -7.5t-3.5 -10.5q-11 -5 -18 -6q-10 -2 -31 -2q-22 0 -68 44l66 49zM405 320 l-175 8l145 97zM430 215q-2 2 -3.5 4t-3.5 4h1q-38 45 -68 50q-11 -3 -59 -63l-148 49l10 13l68 46l175 -7zM289 200q-2 -4 -6.5 -9t-9.5 -12q-1 -1 -5 -7t-12 -17l1 1l-41 -60l-149 53q2 4 6 10.5t11 15.5q6 6 18 21l15 21q12 15 15.5 19t9.5 13zM210 87l-5 -8 q-17 -21 -32 -35l-122 58q1 8 3.5 17.5t7.5 20.5zM166 38q-23 -18 -47 -18q-23 0 -45 27q-22 22 -23 45zM252 348l8 47l111 34zM179 300l13 19v-1q17 25 28 41.5t16 26.5l14 5l-7 -47zM261 400l-11 77l121 -44zM242 397q4 8 4 11q0 2 -29 55v-1l-16 28l38 -14l11 -76z M280 471l32 59l62 -92zM192 505q-11 18 -14 21l-19 38l96 45l48 -72l-32 -60zM153 576q-8 17 -16.5 34t-18.5 35q-5 10 -9.5 19.5t-11.5 27.5l63 51l84 -126zM92 707q-14 38 -14 71t19 52l51 -77zM301 558l15 -2q19 -31 31 -31q1 0 1 1q4 4 6 7.5t5 6.5q1 1 2.5 3l4.5 6 l53 -7l-41 -101zM374 558q7 11 21.5 28t25.5 30q8 9 13.5 16.5t10.5 12.5l9 -2l-37 -91zM219 687l39 -7l9 -21v1q2 -7 6.5 -16t9.5 -22q2 -4 4 -9.5t6 -12.5q5 -11 9 -19t8 -15l-11 1zM188 747l35 10l12 -24l3 -6t5 -11q2 -4 3 -6.5t2 -4.5q2 -4 2.5 -7t1.5 -5l-32 7z M132 845h7q27 0 56 -33q3 -4 22 -42l-29 -8zM433 560l11 -74l-60 -47zM480 669l106 -68l-135 -106l-12 73zM499 704q31 32 56 55t45 37l105 -92q-1 -2 -3 -8l-106 -83l-106 69zM611 802q16 10 39 10q25 0 44 -31q13 -21 14 -38.5t0 -25.5zM530 547l-46 -110l-6 -8 q-2 -3 -4 -5t-3 -4l-83 17zM584 585l3 -27q-6 -8 -13 -16.5t-14 -17.5l1 -1l-10 -12q-14 -15 -27 -29t-24 -27l39 94zM666 639q-4 -4 -8.5 -9t-9.5 -10q-4 -5 -9 -10l-12 -12q-2 -1 -9 -8q-2 -2 -4 -4.5t-6 -6.5q-1 -1 -3 -2.5t-5 -4.5l-1 15z" glyph-name="x"/>
<glyph horiz-adv-x="674" unicode="y" d="M464 426l-1 -9q-2 -3 -3.5 -6t-3.5 -8v1q-3 -8 -8.5 -23t-9.5 -30l-1 -3l-52 74zM435 343q-2 -5 -3 -9.5t-3 -9.5l-55 20l7 74zM426 314v-2l-5 -16q-5 -15 -12 -42q-5 -17 -9 -35t-8 -38q-3 -15 -3 -16q-1 -8 -6 -19l-27 -7l20 193zM379 130q-2 -5 -3.5 -10.5t-3.5 -12.5 q-5 -15 -10 -27t-10 -21l7 67zM365 322l-93 -46l103 141zM353 224l-105 13l22 31l92 46zM330 33q-8 -4 -17.5 -7t-21 -1.5t-24.5 9t-26 22.5q-10 12 -15 27.5t-5 40.5l22 100l105 -14zM324 351l-11 28l62 42zM250 253l21 96l32 21l11 -28zM275 360v6l6 26q0 7 -13 17l-11 78 l115 -62zM256 418q-8 4 -18 15q-64 49 -107 115l115 -62zM318 462l-42 121l98 -151zM115 575l-3 5l116 72l39 -61l41 -121zM105 592q-3 8 -13 29q-5 9 -8.5 16.5t-5.5 13.5q-5 11 -9 21t-7 19l64 111l90 -140zM57 705q-7 23 -7 46q0 24 16 47l43 24l9 -13zM307 544h35 q9 -6 12 -6q2 3 5 6l57 1l-38 -111zM367 554q6 7 9 11t10 14l-1 -1q8 12 17 24t17 23q1 1 4.5 6t4.5 7l12 15l8 1l-33 -99zM249 641l7 1l8 -15l-1 2q5 -7 10.5 -13.5t10.5 -12.5q2 -2 8.5 -9t18.5 -20l11 -11t10 -9l-26 -1zM151 805l20 1q4 -4 9 -10.5t8 -12.5l27 -67l-1 3 q1 -2 4 -6.5t4 -7.5l-2 3l3.5 -7t7.5 -13q3 -8 7 -13l1 -1q4 -7 5.5 -10.5t4.5 -8.5h-2zM147 821q1 -1 2 -1t3 -1h-3zM420 539l39 -40l-76 -67zM462 655l81 -78l-79 -70l-39 40zM481 701q4 4 8 8.5t9 9.5q3 4 7 8l9 9l152 -46l-116 -103l-81 79zM526 747q77 74 130 74 t53 -41q0 -43 -1 -48l-34 -30zM487 520l-29 -87l-72 -4zM551 569l11 -10q-58 -67 -89 -122l-5 -1l30 86zM626 628l-22 -22q-4 -4 -12 -13t-21 -24l-6 6z" glyph-name="y"/>
<glyph horiz-adv-x="669" unicode="z" d="M409 419q-4 -5 -7.5 -9.5t-7.5 -9.5l-19 22zM521 255l31 4l-4 -35zM562 260l46 5h6q32 0 49 -16l-41 -107l-65 76zM673 238q18 -26 18 -60q0 -35 -9.5 -49.5t-24.5 -20.5l-24 28zM389 394l-17 -23l-3 46zM533 220l-143 -76l-6 94l121 15zM579 160l-88 -68 q-15 -1 -37 -2.5t-57 -5.5l-2 49l142 76zM624 102q-5 0 -10.5 -0.5t-16.5 -2.5q-4 0 -12 -0.5t-20 -1.5q-24 -1 -31 -1.5t-13 -0.5q-3 -1 -6 -1t-5 -1l73 56zM367 363q-20 -29 -36 -57q-2 -3 -4 -6.5t-5 -6.5l-63 -4l104 128zM374 178l-189 15l70 86l60 4q-2 -3 -7.5 -11 t-9.5 -13q-18 -26 -20 -34l92 12zM376 82q-14 -2 -28 -4.5t-27 -5.5l1 1q-10 -2 -21 -4.5t-25 -6.5l-148 53l54 67l189 -15zM257 56q-16 -5 -31 -7q-78 -21 -89 -21q-10 0 -25.5 5.5t-30.5 16.5l44 54zM254 290l-25 43l129 85zM232 266l-78 17l68 45l25 -44zM120 131l-63 33 q7 14 16.5 31.5t23.5 37.5q1 1 6 9q2 2 3 5t3 5l36 23l78 -17zM63 66q-20 21 -20 43q0 23 8 42l57 -30zM218 332l89 137l52 -45zM143 288l4 25q28 45 58.5 91t63.5 91l30 -26l-89 -137zM119 616q-9 3 -18 8l1 7zM91 633l-2 2zM303 484l20 79l3 3l37 -133zM296 661 q-12 -3 -15.5 -4t-9.5 -3l23 14zM279 508l32 41l-15 -56zM73 687v7v11l188 65l25 -92l-66 -40q-2 -1 -10.5 -3.5t-14.5 -4.5h1q-2 -1 -8 -3t-15 -4q-8 -3 -18 -6zM76 720q9 37 45 57q33 13 85 23q1 0 11.5 1.5t16.5 2.5q2 1 5 1t8 1l6 -24zM349 494l18 91l-1 -151zM330 571 q5 7 14 16.5t22 23.5v-13l-18 -92zM299 680l67 39v-50q-6 0 -9 -1l-17 -1q-14 0 -36 -5zM266 808q6 1 12 1t13 1q6 3 9 3h12h1h-1l22 3l31 1l-1 -82l-67 -39zM371 521l82 -50l-6 -6q-5 -6 -8 -8l-69 -26zM376 622l9 9t12 13q14 15 17 17l114 -107l-52 -59l-8 -8l-9 -9 l-84 51zM376 696l25 -23q-5 0 -12 -0.5t-13 -1.5v25zM384 762l219 -120q-4 -5 -8.5 -10.5t-9.5 -12.5q-2 -4 -6 -8q-1 -1 -4 -4.5t-9 -9.5l-31 -35l-114 108q1 1 3 5q-2 -2 -7 -2l-34 32zM392 818l125 5h17q30 0 50 -3l69 -47q1 -2 2 -5.5t2 -8.5t1.5 -10.5t0.5 -12.5 q0 -14 -28 -57v1q-10 -17 -21 -29l-218 120v47zM433 449l-10 -12t-10 -13l-38 3z" glyph-name="z"/>
<glyph horiz-adv-x="422" unicode="{" d="M292 385q6 -13 11 -30l-34 27zM304 349q2 -8 3 -17t2 -17l-9 2l-35 63zM309 309v-5l-3 5h3zM309 288v-9v-11t-1.5 -18t-4.5 -31l-91 5l50 150zM303 211q-2 -11 -2.5 -18.5t-3.5 -23.5l-99 2l15 45zM296 159q0 -4 -1 -10t-2 -14q0 -7 -2 -25t-3 -25q-1 -1 -1 -6 q0 -12 8.5 -10t22.5 10q7 3 14.5 5.5t23.5 2.5q17 0 32.5 -20.5t15.5 -56.5q-1 -1 -1 -4l-236 59l33 97zM400 -6q-8 -18 -25 -32q-8 -5 -18 -11t-23 -11l2 -2q-6 0 -7 -1q-20 -11 -37.5 -19t-22.5 -8q-11 0 0 14l-5.5 -0.5t-29.5 -0.5q-12 0 -24.5 4.5t-24.5 13t-21.5 21.5 t-14.5 31l19 59zM211 244l-36 96l80 39zM165 118l-17 21q1 7 2.5 15.5t2.5 10.5l3 29q4 22 6.5 41.5t4.5 38.5v9q0 3 1 8.5t1 11.5q0 7 -2.5 13t-9.5 11l11 5l36 -96zM141 62q0 7 0.5 11.5t1.5 16.5q0 12 3 32l10 -14zM143 332q-5 0 -11 -0.5t-9 1.5l11 59l117 -9zM112 333 q-25 4 -38.5 21t-15.5 41l64 -5zM156 395l58 48l41 -55zM58 408q1 30 25 57t49 27t37 5l36 -48l-59 -48zM178 501q9 7 12 18l74 -27l-7 -98zM194 527q6 21 10 72v-1l2 28q1 6 1 10q0 5 1 8l63 15l-10 -156zM210 657q7 43 24.5 81.5t43.5 66.5l-9 -134zM274 565l37 -62 l-48 -107zM284 668l69 -5q-2 -10 -3 -20.5t-2 -21.5t-2 -20t-2 -17l-31 -69l-36 62zM294 779l133 -4l-24 -55l-1 -1h-18q-21 0 -29 -44l-68 6zM299 824q44 36 100 36l45 -10q6 -5 10 -11l-24 -54l-134 4zM335 545l3 -7q-8 -50 -19 -78q-14 -35 -36 -60l4 -6l-20 -2zM437 744 l8 -11q-8 -8 -18 -11zM463 792v-7q-1 -25 -11 -43l-7 9z" glyph-name="braceleft"/>
<glyph horiz-adv-x="196" unicode="|" d="M224 423l-2 -32l-52 24zM221 385l-3 -44l-51 -14l-1 83zM217 332l-10 -138l-31 -14l-3 139zM206 180l-7 -98q0 -8 -0.5 -14.5t-1.5 -11.5v2l-2 -27l-9 -7l-4 145zM195 21l-1 -19l-5 5l-1 10zM162 329l-38 -15l36 95zM163 192l-77 3l2 22l34 87l38 15zM165 15l-88 53 l8 114l76 -4zM163 -38q-12 -11 -31 -11q-18 0 -35 15q-23 20 -23 47q0 14 0.5 23t1.5 14v4l86 -52zM96 255l-5 5l8 104l56 42zM100 372l2 39l51 2zM103 417l4 62l47 -61zM108 490l1 16l68 47l-17 -130zM110 516l7 88l65 11l-7 -55zM117 615l9 113v5l68 8l-15 -116zM127 747 q0 2 1 3q2 28 4 46t4 26q9 40 58 56q3 0 5 1h3h5l-17 -125zM181 542l49 -39l-1 -17l-64 -64zM204 695l37 -39l-11 -140l-45 36zM223 812l27 -31q-2 -18 -2 -35q0 -16 -2 -24q0 -3 -0.5 -7t-0.5 -5l-3 -40l-34 35zM231 840l15 -3q4 -17 4 -40v-1l-21 24zM238 859l2 -4l3 -6 l-6 2zM228 479l-4 -51l-56 -9z" glyph-name="bar"/>
<glyph horiz-adv-x="367" unicode="}" d="M165 747q2 1 3 1t-3 -1zM205 755q13 4 13 7q0 4 -12 9zM173 749l-2 -1h-1q1 1 3 1zM182 750q-3 -1 -9 -1zM367 388l-84 -10l-55 48zM403 375q-8 -11 -20 -17.5t-23 -9.5t-21 -3h-13l-34 29l85 9zM316 340q-17 -11 -25 -35l-72 -63l5 177zM287 290q-2 -8 -3 -15l-2 -14 l-6 -74l-57 -57l3 103zM275 173v-3q-8 -77 -54 -138l2 89zM216 330l-56 -18l58 109zM209 212l-76 -28l7 83v-1v4l17 31l56 18zM201 12l-181 18v1v5l35 66q10 7 25 13q15 7 28 8.5t18 16.5q4 10 6 29l74 28zM189 -1q-16 -15 -35 -25t-38 -14.5t-37 -2t-32 12.5q-21 14 -26 45 zM165 328l-13 16q13 41 34 68l29 12zM143 297q1 6 3 19.5t3 14.5l7 -9zM195 421q1 1 1.5 2t1.5 2q-3 5 -5.5 10.5t-4.5 10.5l24 -17zM184 458q-4 14 -6 31.5t-2 47.5l40 -101zM189 516l76 -18l-44 -64zM176 558q1 54 12 120l135 -75q0 -5 -1 -10l-57 -85l-77 18zM82 812 l267 -55q-17 -84 -24 -140l-135 74q3 13 5 24.5t5 29.5q0 3 1 5q-3 0 -5 1l-14 -1q6 0 8.5 1t9.5 3l2 18q-5 2 -14 4t-22 4q-4 1 -9 2t-12 2v-39q-26 0 -41 11zM80 835q4 21 18 36.5t36 19.5q6 2 11.5 3.5t15.5 2.5l116 -11q29 -15 46.5 -46t20.5 -68l10 11q-1 -4 -1.5 -7 t-1.5 -7l-266 54zM306 548l13 -25q0 -12 2 -17.5t8 -7.5l-10 -18l12 18l20 -40l-123 -24zM344 495l12 -2q29 0 47 -20l-44 -9zM319 562v-17l-5 9zM334 450l-43 -38l-64 17zM412 462q10 -16 10 -37t-13 -42l-105 28l44 39z" glyph-name="braceright"/>
<glyph horiz-adv-x="497" unicode="~" d="M356 636v-61l-63 45zM388 642l8 -93l-36 25v61zM505 668l-33 -94q-28 -25 -55 -36l-14 10l-9 93zM530 672q1 -4 1 -26q0 -20 -48 -63l30 84zM362 568l-59 3l-12 47zM406 535l-29 -7h-2q-37 0 -62 9l-7 30l59 -4zM298 574l-23 -15q-2 2 -8 4l21 54zM305 540 q-9 4 -14.5 7.5t-12.5 8.5l20 12zM266 564q-2 1 -8 3l1 34l27 17zM255 568q-4 2 -9 3.5t-10 3.5q-2 1 -5 1q-2 0 -7 1l31 20v-29zM228 586l-26 61l81 -26zM212 579q-8 2 -14.5 0.5t-14.5 -9.5l-30 91l44 -14l26 -61zM139 537q-11 -5 -19 -6l-36 116q16 13 32 23l31 -9 l31 -95q-6 -5 -8.5 -8t-10.5 -9zM115 530h-9q-20 0 -38 8l-8 84q7 9 20 21zM63 542q-17 12 -17 33t9 39zM213 646l46 12l26 -35zM138 672l84 33l32 -44l-46 -12zM128 678q24 14 47.5 23.5t39.5 9.5l2 -3l-84 -32zM264 656l7 23l16 -54zM224 711q17 -2 38 -6l6 -21l-7 -23z M274 672l50 -19l-35 -29zM268 703q7 -3 14.5 -5.5t13.5 -5.5h-1q17 -6 18 -7l9 -4.5t10 -5.5l8 -5l-15 -12l-50 19zM338 662l-13 -31l-34 -8zM346 667q9 -5 18 -9t19 -4q1 2 2 3.5t7 8.5l6 -16l-69 -17l13 31zM397 672l11 12l4 6q16 16 33 21l29 -40l-70 -18zM453 713 q4 1 19 1q16 0 34 -11q11 -7 18 -17l-43 -11z" glyph-name="asciitilde"/>
<glyph horiz-adv-x="177" unicode="‚" d="M167 18l-19 -22l-21 34zM189 10q-2 -12 -5.5 -24t-7.5 -23l-3 -5l-22 36l19 22zM136 11l-28 -26l17 44zM170 -46l-75 -10l14 37l27 26zM171 -51q-10 -26 -24 -43l-63 3l12 31zM145 -98q-22 -24 -40 -24t-28 6l8 21zM115 5l-8 -2l17 26zM89 -64l-3 33l19 30l8 2zM83 -80 l-27 -1l28 45l3 -32zM70 -111q-9 8 -17 25l1 2l27 1zM95 -15l-9 32l37 12zM67 -57l-4 43q4 14 9 22v0q0 1 1 3l10 4l9 -32zM60 -66l-11 9q0 15 10 34v-1l1 3l4 -39zM50 -78q-1 4 -1 8v8l7 -7zM82 19l-4 9l5 19l38 -15zM75 17l2 8l3 -6zM87 48l32 26l4 -41zM84 52l2 4 q1 9 3 39v9l24 16l4 -43l-32 -26zM89 108q0 5 0.5 13.5t2.5 18.5l16 11l3 -28zM94 145q1 1 1 4q3 10 10 18l1 -13zM120 87l22 -5l-17 -47zM117 129l39 -8l-13 -36l-22 6zM114 161l49 -16l-7 -20l-39 7zM114 176q26 18 59 -2l-9 -25l-49 17zM145 84l5 -47l-24 -4zM157 114 l32 -71l-37 -4l-5 47zM173 150l26 -36q1 -7 1.5 -17t0.5 -14q-3 -6 -3 -20l-3 -17h-3l-32 70zM182 167q8 -10 11 -20t5 -22l-21 28zM158 35l21 -19l-51 15zM194 40q-1 -5 -1.5 -11t-3.5 -16l-6 2l-22 20z" glyph-name="quotesinglbase"/>
<glyph horiz-adv-x="342" unicode="„" d="M260 40l-9 -27l-21 15q2 6 4 10v2h26zM339 38l-30 -64l-53 38l9 27zM358 36q0 1 -1.5 -12t-6.5 -31l1 1q-5 -22 -13 -39l-24 17l31 64h13zM276 -7l-57 10q3 3 6 10t4 13zM308 -32l-73 -58l-14 89l57 -11zM332 -52l-92 -59l-3 17l73 58zM332 -58q-4 -5 -7 -10.5t-6 -10.5 q-33 -48 -52 -48q-20 0 -22 1l-2 11zM221 -33l-18 8l1 2q2 5 6 11.5t6 10.5zM228 -78l-31 -11q-3 14 -2 31t6 28l20 -8zM234 -125q-16 5 -26 15q-6 6 -9 15l29 10zM207 35q-8 -34 -18 -59l-37 57l56 6zM188 -27l-5.5 -11t-4.5 -10l-64 75l35 3zM175 -52q-16 -28 -39 -40 l-81 77q2 7 6 14q4 13 9 21l40 4zM131 -95q-13 -6 -31 -6q-17 0 -33 19t-16 36t2 25zM150 36l25 30l32 -24zM76 30v1q4 11 7.5 22t8.5 27q0 8 1 13l10 26l66 -51l-24 -30zM95 112v11l3 -2zM154 85l47 -13l7 -28zM133 104l39 72l26 -99l-46 12zM95 136q1 6 1 10t2 13l41 48 q4 1 9.5 1.5t13.5 0.5l7 -27l-39 -73zM101 171l1 3q8 21 26 29zM194 106l24 -4q-1 -4 -1 -15l-8 -40zM181 160l35 -1q5 -22 5 -45l-1 -8l-26 5zM172 198l10 5q12 -6 21 -16.5t11 -21.5l-33 1zM171 207l5 -1l-4 -2zM238 59l1 4l1 -3zM240 70q4 27 6 30q2 9 4.5 19t5.5 21 q1 4 7 10l51 -46l-70 -40zM268 155q5 3 13 6h-1q17 10 34 10l46 -37l-42 -24zM325 169q28 -5 38 -30zM235 42q1 2 1 3q0 2 1 4q0 3 1 6l3 -13h-6zM300 90l6 -48l-61 1l-3 14zM367 126q5 -17 3 -35t-7 -35q-2 -2 -3 -12h-46l-6 48z" glyph-name="quotedblbase"/>
<glyph horiz-adv-x="594" unicode="…" d="M413 69q-7 -11 -18 -22l-61 40zM443 61l7 -18q-8 8 -12 20zM565 33q-18 -11 -34.5 -14t-30.5 -1t-24.5 7t-17.5 10l-8 24zM370 59l-34 -40q-10 -1 -14 0l7 66zM390 42q-20 -17 -46 -22l28 34zM319 19q-6 0 -11 1l-7 26l26 38zM303 20q-1 0 -7 1.5t-7 2.5l10 15zM296 44 l-36 14l65 29zM283 26q-19 9 -30 26l2 2l37 -14zM291 74l-29 31l63 -15zM222 113q3 -8 3 -27t-30 -43l-3 -1l-7 81zM250 58q-7 14 -7 28t2 21l11 -2l28 -31zM185 36q-17 -13 -37 -16l-65 126l93 -24zM142 19q-4 0 -12 -1t-18 0t-21 5.5t-22 14.5q-21 21 -21 42t2.5 30 t9.5 19q4 8 14 17l3 -1zM247 112q2 5 5 11.5t5 8.5l52 27q1 1 4 1l11 -67zM267 144q7 6 23 11zM186 131l11 11q2 -2 9 -7.5t11 -11.5zM96 156q25 8 50.5 3.5t44.5 -14.5l-9 -10zM318 160h2l53 -9l-44 -57zM363 134l16 -31l-48 -11zM438 119q2 4 3.5 6t2.5 4q8 14 22 21 l22 -19zM378 148q3 -1 9 -5l-1 1q24 -13 31 -30l-32 -8l-16 31zM474 154q18 7 52 7l8 -16l-39 -10zM534 160q5 -1 12 -3t13 -4l-20 -5zM396 105l-20 -25l-44 10zM418 109q2 -6 2 -15t-5 -21l-32 7l19 25zM479 123l-4 -64l-39 9q-6 22 0 45zM538 135l-5 -88l-50 12l3 64z M580 143q29 -18 29 -47t-29 -53q-2 -1 -4 -3l-34 7l4 88z" glyph-name="ellipsis"/>
<glyph horiz-adv-x="334" unicode="†" d="M267 419l-5 -50l-41 44zM262 365l-3 -32l-39 76zM259 324l-4 -37l-67 -25l28 144zM254 276l-9 -112l-83 -49l27 136zM244 151l-5 -69q0 -6 -1 -11l-78 10l4 23zM237 60v-2l-3 -56l-7 6q-9 -27 -24 -42t-27 -15q-22 0 -37 7l22 112zM181 269l-59 34l7 77l79 28zM159 175 l-43 54l6 66l54 -32zM137 86l-32 22l10 109l38 -49zM110 -17q-11 17 -11 37t2 30v5l3 40l24 -17zM129 387l4 45l9 7l65 -25zM140 448l21 52l50 -81zM137 472l4 47h-41q-76 0 -93 64l67 51l77 -126zM3 599q-1 5 -1 11v15t4 16t10 14.5t13.5 11.5t14.5 6l19 -29zM168 496 l35 41l10 -115zM62 671l130 -47l7 -77l-35 -41zM89 673h63l6 55q0 4 1 9q0 8 1 15.5t1 18.5l13 -2l13 -132zM162 781q1 11 2.5 22t3.5 18l3 -41zM206 550l66 -60l-1 -26l-54 -42zM194 724l195 -157l-49 -39h-64l-3 -26l-64 58zM196 782l98 -28l-1 -13v-9t-1 -10 q0 -3 -0.5 -7t-0.5 -5l-2 -27l53 5h-3h7h43q40 1 40 -37v-31q0 -11 -1 -15l-33 -26l-195 156zM195 862q12 8 39 16q3 0 5 1l36 -10q12 -10 17 -29t5 -35t-0.5 -23t-1.5 -17l-93 27zM270 457l-3 -32l-46 -7zM392 552l4 -10q-13 -9 -32 -13zM418 568q-3 -8 -10 -16l-2 6z" glyph-name="dagger"/>
<glyph horiz-adv-x="336" unicode="‡" d="M269 428l-5 -58l-58 45zM280 368l27 2h-3q3 1 33 1q29 0 47 -27l-17 -51l-92 72zM391 329q3 -13 3.5 -20t0.5 -12t-0.5 -9t-1.5 -10l-15 12zM317 319l-13 -53l-99 141zM389 261q-2 -4 -3.5 -8t-3.5 -8l-52 -12l-19 27l13 53zM373 232q-15 -13 -29 -17l-6 9zM259 321 l-113 4l52 84zM330 212q-2 -1 -5 -1q-2 0 -6 -1h-68l-3 -33l-134 13l1 10h-40l71 114l114 -3zM247 164l-6 -82q0 -8 -0.5 -14.5t-1.5 -11.5v2l-1 -4l-138 -14q1 3 1 5q0 3 1 5v5l11 122zM238 44l-3 -42l-6 6l-5 -12q-2 -5 -6 -11l-110 3q-8 18 -8 42zM212 -24 q-18 -25 -37 -25q-18 0 -33 6q-18 7 -28 22zM123 300l-48 16l50 40h2v1l63 51zM77 230l-94 5l-3 4l88 70l48 -16zM56 201q-39 2 -63 23l75 -4zM127 364l5 59l56 -10zM63 313l3 42h50zM25 290l-42 52q13 13 73 13l-3 -43zM-27 254q-9 22 -9 44t12 36l38 -47zM133 429l4 42 l4 1l48 -54zM92 520q-71 5 -87 67l13 14zM2 601q-1 4 -1 7v6l6 -7zM150 470l22 56l23 -105zM28 608l116 39l23 -111l-22 -57l-7 8l3 32h-33zM4 639q5 10 12 17q17 17 117 17l3 -12l-116 -40zM167 576l110 -53l-2 -21l-76 -78zM153 665l223 -54l-81 -83h-7l-118 57zM154 688 l5 40q0 4 1 9q0 9 1 13q2 33 4 52t7 31l126 -51q0 -6 -1 -19t-2 -20v-11t-1 -10q0 -3 -0.5 -7t-0.5 -5l-2 -27l53 5h-3q3 1 33 1q29 0 45 -25l-39 -41l-224 54zM177 843q13 20 49 32l54 -10q10 -10 14.5 -28t4.5 -40q-1 -1 -1 -3zM274 492l-4 -58l-65 -14zM312 530v-2h-2z M396 609l27 -35q-16 -46 -102 -46l2 7zM429 639q2 -8 3 -19t-5 -34l-22 28z" glyph-name="daggerdbl"/>
<glyph horiz-adv-x="436" unicode="ˆ" d="M300 887l-8 -26l-25 24zM347 889l-22 -57l-30 28l8 26zM378 888q5 -11 18 -34q2 -5 4.5 -10t4.5 -10l-16 -56h-2h-2l-54 52l22 56zM409 828q2 -3 3 -5.5t3 -5.5q4 -10 4 -21t-23 -17zM294 857l-26 1l-2 26zM349 803l-47 -10q-5 5 -7 8q-2 4 -4 7.5t-4 7.5q-2 5 -5 10 t-5 10q-1 1 -3 5q-3 6 -3 8l-1 5l26 -1zM353 795l-18 -18q-13 1 -28 13l44 8zM371 776q-7 -1 -14 -1q-6 0 -17 1l15 16zM266 856l-15 -16l13 43zM248 836q-2 -2 -3 -4l-43 29l60 22zM242 829q-13 -13 -15 -17q-2 -2 -4 -5t-4 -5l-48 46l28 10zM217 799q-8 -6 -10 -12l-7 -7 l-50 58l19 7zM197 778q-6 -5 -13 -6q-13 0 -20 3h2q-5 0 -9 4q-1 0 -5 3l-13.5 9t-13.5 11q-9 6 -14 20l37 14zM223 872l-3 42l42 -27zM191 862l-3 71l29 -19l3 -41zM131 842l-1 23q12 16 25.5 32.5t28.5 34.5l3 -69zM112 838q1 5 5.5 10.5t7.5 9.5l1 -15zM228 911l2 26 l32 -48zM189 938q3 3 6.5 7t8.5 9l13 2l10 -17l-2 -25zM208 958q1 2 3 4l2 -3zM237 931l27 21v-62zM218 961l40 39h5v-44l-27 -21zM215 967q3 3 8.5 8t9.5 9l-1 -2q8 13 20 16l-35 -33zM266 915l22 11l-22 -37v26zM267 982l47 -11l-24 -41l-23 -11v63zM268 1000 q8 0 17.5 -3.5t21.5 -7.5q1 -2 12 -6l-4 -6l-47 11v12zM301 942l20 -51l-53 -3zM309 954l48 -59l-33 -2l-21 51zM327 979l4 -3q7 -5 13 -12t10 -18v1q4 -13 9 -25t11 -25l-14 -1l-48 59z" glyph-name="circumflex"/>
<glyph horiz-adv-x="794" unicode="‰" d="M256 614q0 3 -1 4zM530 303q8 2 17.5 4t20.5 3l9 -68zM577 310h9q46 0 81 -32q6 -7 11.5 -15t9.5 -17l-36 -95l-66 86zM719 328l-1 -2q-27 -6 -57.5 -3t-53.5 22zM695 228q3 -15 3 -40t-21 -62l-14 19zM589 219l-127 58q26 14 61 23h-2l4 2zM631 158l-77 -2l4 7v1 q0 2 1 3q0 3 -4 6q-1 1 -2 1.5t-2 1.5h-2q-10 0 -21 -4t-17 -13q-2 -2 -3 -4l-70 -1l24 116l129 -60zM665 105q-24 -34 -61.5 -59.5t-76.5 -34.5h1q-30 -6 -59.5 -2.5t-51.5 17.5l23 115l60 1q-1 -1 -1 -6q6 1 16.5 2.5t17.5 4.5l101 2zM435 259q3 3 11 9l-19 -32zM426 146 l-30 -1l28 82l28 44zM403 38q-5 5 -9 10.5t-8 12.5q-3 5 -6 10.5t-5 11.5l17 48l30 1zM445 353l-1 -3q-1 0 -5 -6t-8 -11q-9 -12 -17 -23.5t-16 -22.5q-10 -14 -17 -25.5t-12 -20.5l-52 44zM411 206l-14 11q7 10 15 19t16 17zM364 231v-2q-8 -13 -14 -24.5t-12 -22.5l-9 -15 l-135 49l116 61zM386 147l-19 7q3 16 12 31q0 1 5 10t8 13l12 -10zM324 158q-14 -26 -29.5 -55t-32.5 -63q-8 -11 -13 -16l-104 121q5 8 11 17.5t14 21.5q2 4 5.5 8.5t8.5 11.5l1 1l2 2zM368 107q-3 15 -3 36l14 -5zM240 17q-17 -13 -29 -13t-25 6v-2q-40 19 -51 28 q-22 17 -22 36q0 20 7 35q2 3 4.5 6.5t4.5 7.5q2 2 4 5t5 8zM371 325l-30 125q4 6 7.5 12t6.5 11l108 -96l-4 -5zM322 493q-8 -7 -17.5 -13.5t-20.5 -11.5q-16 -8 -43 -18l9 108l71 -62zM224 253l1 14q17 26 31.5 48t27.5 42q11 19 23.5 39t26.5 43l26 -113zM230 446 q-20 -8 -45 -10t-44 3l19 191l42 -38q-5 -6 -6 -12q-1 -1 -1 -2l1 1q0 -5 2 -7q3 0 6 -1q6 0 18 3l18 -15zM130 441q-25 7 -45 29q-15 14 -23 34q-7 20 -7 52t26 74q10 16 27 36l41 -36zM371 469l70 68l28 -152l-2 -2zM360 482l27 45l14 24t14 23q2 6 7 11v-1q1 2 1.5 4 t2.5 4l9 -47l-70 -67zM245 584l141 8q-3 -13 -11 -30q-19 -33 -41 -57zM143 680l179 49q15 -7 26 -17t19 -27q16 -29 19 -49.5t1 -32.5l-139 -7q2 4 4 7.5t3 5.5h-21q-1 0 -9 -2zM136 692q20 16 43.5 27.5t46.5 15.5v-1q21 6 41 6t32 -4l-162 -45zM448 524l61 -65l-18 -41 q-5 -6 -6 -9q-5 -6 -6 -9l-6 -9zM436 607q13 22 19.5 34.5t10.5 20.5l100 -64l-56 -127l-61 65zM472 675q3 8 5.5 15t4.5 15q7 19 25 27.5t44 8.5q23 -2 39.5 -5.5t28.5 -9.5l-50 -113zM560 447v2q0 23 10 44l49 5zM529 490l9 1q-2 -4 -5 -8.5t-8 -11.5q-2 -2 -5 -7t-8 -13z M575 503q31 59 74 84l23 -41l-46 -39zM608 663l17 -30q-8 -16 -19 -35.5t-25 -42.5l-16 -24l-16 -24l-5 -7h-8zM659 593q12 6 29 12.5t31 9.5h-2q20 9 44 10l-82 -69zM634 715q8 -10 8 -25q0 -7 -5 -27l-0.5 -1.5l-1.5 -4.5l-5 -11l-14 27zM605 479l-5 -120l-9 1 q-5 7 -10 16t-8.5 16.5t-5.5 14.5q-2 8 -4 17t-3 17zM717 568l-9 -91q-1 -1 -1 -2l-1 -1q-11 -13 -11 -23q1 1 4 1q4 0 6 1l-10 -103l-86 12l6 120zM771 606l82 -197q-33 -42 -82 -67l-65 10l11 102q10 2 21.5 9t15.5 15v2l1 1v1q0 6 -9 8h-2q-14 0 -24 -5l9 85zM803 624 q35 -6 60 -31q30 -35 30 -78q0 -42 -25 -84l-2.5 -3.5t-3.5 -5.5l-78 185z" glyph-name="perthousand"/>
<glyph horiz-adv-x="632" unicode="Š" d="M418 572q36 -1 65.5 -4.5t52.5 -9.5l9 -21l-186 16zM551 553q20 -8 31 -16q1 0 1 -1l-26 3zM496 535l-79 -100l-63 112zM601 521q24 -23 38 -64l-144 -107q3 7 3 21q0 13 -30 25h1q-12 5 -25 6l-16 28l79 99zM644 441q8 -37 8 -69q0 -35 -2 -53.5t-7 -31.5v1 q-18 -56 -67 -105l-83 146zM410 428l-57 -24h-9q-2 0 -18.5 -0.5t-47.5 -1.5l67 139zM418 405h-13h-28l34 14zM475 306l-6 1l3 3zM528 197l-394 -122q0 1 -3 3l72 147q2 -1 8 -7q1 -1 11 -4.5t23 -7.5q30 -9 42 -9t30.5 4t31.5 10q4 2 8 5t9 6l18 12q23 16 41.5 31.5 t32.5 29.5l16 -2zM546 154q-5 -5 -11 -10t-14 -11l-27 -21q-83 -59 -152 -77l-158 13q-17 8 -34 17l379 118zM277 27q-8 0 -15 0.5t-14 1.5zM301 462l-45 -5l85 88zM270 402h-10h-23q-8 0 -29 2l42 43l44 5zM167 197l-109 7q3 19 15.5 33.5t30 21.5t37 4t36.5 -19l3 -1.5 t7 -4.5zM112 91q-54 44 -55 98l100 -7zM228 434l2 119l108 -6zM195 405q-5 0 -17.5 2.5t-19.5 3.5l-48 145l112 -6l-2 -120zM141 417q-54 18 -78 61q-11 18 -16.5 36.5t-5.5 41.5l56 -4zM278 607q-4 -2 -7 -4.5t-6 -4.5q-11 -7 -17 -13l-44 85zM262 560l-1 2q12 1 28.5 1.5 t36.5 2.5l12 -10zM78 573l66 128q3 3 9 7l41 -34l49 -93q-10 -10 -11 -17zM45 580q10 26 33 58q4 7 15 18q8 9 17 17l-48 -94zM336 567q5 0 8 1l-1 -6zM256 635l96 129l-5 -118q-14 -5 -29.5 -14t-32.5 -21zM348 824q-2 2 -9 4t-16 6l26 4zM167 718q7 5 15 12t19 15q2 2 5 3 t5 3q4 2 7.5 3.5t5.5 3.5l14 7t19 10l42 21q33 16 49 21l-2 -43l-96 -128zM309 844h-1q-10 7 -14 12q-5 6 -10 21v-1q-7 20 -15 39.5t-16 37.5l95 38l-6 -141zM248 965l-28 57l-1 2l1 -2l-2 4t-2 5q-1 4 -1 20q0 14 33 17q1 0 12.5 1.5t17.5 1.5h10q5 0 10 -1q26 -3 47 -27 l-2 -40zM351 569h3l-3 -5v5zM358 734l110 -4l-33 -47q-7 -3 -8 -4q-6 -3 -16.5 -7.5t-16.5 -6.5q-12 -3 -16 -4.5t-13 -6.5q-3 -1 -5 -2t-6 -2zM368 916l52 -72l-4 -4t-4 -5q-1 -1 -1.5 -2t-1.5 -2q5 1 10 1.5t9 0.5l55 -74l-12 -17l-110 4zM443 835h7h18q6 0 10 -1h13 q14 -1 31 -12l-34 -48zM375 979l1 -2l46 60l119 -22v-9q0 -6 -7 -19v1q-26 -35 -40.5 -55t-18.5 -25q-13 -16 -24 -29.5t-22 -24.5l-56 76zM434 1052l5 6q8 13 24 17q15 0 22 -4l-6 1l5.5 -2.5t7.5 -2.5l5 -5q4 -3 14 -9.5t15 -11.5q2 -2 4 -3.5t3 -3.5zM362 570q8 0 20 1 t18 1l-47 -15zM537 812q6 -4 11 -8.5t11 -10.5l24 -141q-8 -4 -13 -4q-4 0 -21 -6q-8 -2 -24 -2q-18 0 -31 36q-6 11 -13.5 14.5t-31.5 -3.5zM575 777q38 -40 38 -63t-5 -34.5t-13 -19.5z" glyph-name="Scaron"/>
<glyph horiz-adv-x="226" unicode="‹" d="M199 367l7 -41l-39 50zM206 363l22 -27l-1 2l4 -4t4 -5l-8 -29l-19 24l-6 40zM238 325q15 -20 15 -43q0 -3 -1 -6q-1 -1 -1 -2t-1 -2l-20 26zM188 345l-29 -18l6 48zM233 284l-79 -15l6 53l30 18zM248 262q-2 -5 -4.5 -9t-4.5 -8l-77 -14q-2 2 -5 4.5t-5 6.5l3 22l80 15z M236 241q-7 -13 -16 -18t-30 -5l-10 3v-5l-9 9q-2 2 -5 4zM155 316l-45 34l52 25zM147 272l-30 17l-36 44l27 13l44 -33zM143 256l-20 25l22 -12zM140 367l-19 14l41 -3zM78 337l-8 9l13 36l34 -2l19 -14zM67 350q-17 11 -21 33l32 -2zM123 383l-2 46l40 -49zM50 389l48 65 l19 -23l2 -46zM46 391q0 1 0.5 5.5t0.5 6.5q3 18 15.5 33t29.5 22l2 -2zM119 434l34 -19l9 -33zM102 456l30 29l19 -66l-34 19zM97 463l19 13l-16 -16zM151 429l36 3l-23 -50zM136 490l11 7l65 -4l-25 -55l-36 -4zM154 501l41 28v1l31 -2l-14 -29zM202 534q13 7 27 7l-3 -8z M191 437l10 -40l-12 -7l-23 -9zM206 466l40 -39q-1 -1 -7 -4q-2 -2 -4 -3l2 1l-33 -22l-10 41zM238 533l43 -49q0 -1 -0.5 -7t-7.5 -19q-7 -16 -23 -27l-40 39zM243 541q14 -2 21.5 -11t13.5 -28q2 -4 2.5 -7t1.5 -5l-41 46zM188 386l13 -16l1 -2l-36 10z" glyph-name="guilsinglleft"/>
<glyph horiz-adv-x="1271" unicode="Œ" d="M859 417l-26 -43l-1 -1q-8 -1 -12.5 -9t-5.5 -18l-125 77zM1046 407l-3 -7h-10q-3 0 -13.5 1.5t-45.5 -4.5q-3 -1 -13.5 -2.5t-29.5 -4.5q-9 -2 -26 -5t-40 -8q-8 -2 -14 -2l23 38zM1032 223q10 2 17 2.5t22 0.5q28 1 42.5 2t34.5 3h12q15 0 31.5 1.5t34.5 3.5l-26 -117z M1125 398q-4 -1 -9 -1h-11q-7 1 -16.5 1.5t-23.5 1.5h1zM1245 237q25 -11 40 -34t15 -59q-2 -17 -12.5 -32t-26.5 -25l-43 27zM782 354l-107 -163l6 225zM813 328l-2 -22q-2 -19 -3.5 -40t-1.5 -44q0 -4 -0.5 -8.5t-2.5 -7.5v-2q0 -9 18 -13l-3 1q7 -1 12 -1h13h20q5 0 7 1 q13 1 29.5 4t37.5 7l-258 -128l3 105l107 162zM1194 85l-47 -17h-18q-46 0 -90 -5t-95 -15q-19 -4 -42 -8.5t-51 -10.5q-26 -6 -46 -6h-26q-2 0 -8 0.5t-15 1.5q-38 2 -67 23l1 13l301 149zM1204 71h-1h1zM671 241l-45 -9l50 181zM665 72q-7 8 -11.5 17.5t-8.5 19.5 q-11 -6 -22.5 -12.5t-25.5 -11.5l-4 -2t-5 -2l36 134l45 9zM640 309l-15 8q34 49 42 104h1v-1v1h2zM566 71q-3 -2 -11 -6l-128 125q23 1 41 5t32 11q67 25 117 99l10 -7zM541 58l-9 -5q-21 -8 -44 -13t-51 -7l-287 298l71 9q3 -66 36 -99q27 -30 109 -49l-1 1q15 -2 24 -3 t14 -1h2zM420 31q-10 -1 -21 -1h-22q-23 0 -96 18l1 -1q-4 1 -9 3t-13 4q-2 1 -6.5 2.5t-9.5 3.5l-25 10l-40 20l-106 131q-1 2 -1 3q0 2 -1 4q-15 48 -15 81l86 12zM175 367l61 264l116 -58q-26 -23 -42 -42q-20 -23 -38 -50q-21 -31 -33 -58t-16 -49zM61 357 q1 15 2.5 25.5t6.5 30.5q3 16 6 29.5t7 24.5q5 13 11 26t14 26h-1q43 78 83 130l30 -15l-61 -263zM668 433q0 2 1 3l3 -5zM322 610l129 136l62 -90q-56 -2 -122 -51q-3 -2 -8.5 -6t-14.5 -12zM210 673q18 19 34.5 34.5t34.5 27.5q34 24 65 41.5t59 28.5l28 -42l-129 -136z M669 451q0 6 1 11v19q-4 57 -42 113q-20 31 -45 44l204 -16l-110 -182zM458 773l237 -3q12 -8 21 -18q24 8 44 8q2 1 8 3t17 5l81 -1l-80 -131l-247 19zM834 780q1 1 4 1q14 2 18.5 3t12.5 2l-4 -7zM437 816q29 7 43 7t27 3q2 1 6 1q5 0 10 1q6 1 17 1h29q34 0 105 -44l4 -3 l-220 4zM820 658l23 -46q-1 -1 -4 -1v-5l-1 -12l-2 -7l-1 -1l-147 -146zM846 696l94 -4l-70 -70q-2 0 -4 -2l-11 -5l-26 52zM907 794q3 1 5 1q30 8 65.5 13.5t69.5 7.5h-3q5 0 11.5 1t8.5 1l-114 -114l-95 4zM765 507l74 -83l-152 5zM834 565v-12q1 -3 1 -11q0 -7 -1 -11v-7 q5 1 19 3.5t21 3.5q36 5 57 7t26 3q40 3 62.5 2t43.5 -4l65 -119l-272 10l-73 84zM974 704l33 -60l-5 -2q-18 0 -35.5 -2t-31.5 -5q-7 -1 -16.5 -2t-18.5 -2zM1087 535q19 0 40 -7q18 -6 28.5 -18t15.5 -25t5 -25q0 -11 -3 -14l1 1q-1 -9 -6 -20l-22 1zM1090 810l55 -159 q-10 -1 -22.5 -1.5t-34.5 -0.5q-10 0 -26.5 -0.5t-34.5 -2.5l-35 65zM1109 823h9q10 0 20 -2t21 -7l-1 1q28 -13 48 -44q20 -30 20 -57q0 -26 -16 -47q-14 -5 -26.5 -8.5t-25.5 -5.5l-56 162z" glyph-name="OE"/>
<glyph horiz-adv-x="184" unicode="‘" d="M173 618l5 -9l-13 -27l-36 33zM179 605q1 -1 4 -8l6 -12l-6 -18l-15 14zM191 580q7 -12 10 -27l-14 13zM168 576l-26 -5l-14 42zM187 558l-34 -16l-9 26l26 5zM203 542q2 -11 1 -19t-1 -10l-30 -27l-18 52l34 16zM202 506q-3 -12 -10.5 -19.5t-13.5 -11.5l-3 8zM143 563 l-37 13l19 36zM147 547l-53 6l11 20l38 -13zM169 477l-50 7q-2 1 -8 7q-7 7 -15.5 18t-12.5 20l11 19l52 -6zM169 470q-8 -2 -18 -2t-25 10l42 -6zM102 572l-2 30l24 12zM81 536q-2 5 -7.5 21t-7.5 26l30 16l3 -30zM96 602l-16 21l43 -7zM65 588q-2 7 -4 16.5t-4 21.5l19 -3 l16 -22zM89 623l27 19l8 -25zM56 631q-1 3 -1 7l42 60l17 -54l-27 -19zM54 645q0 2 -1 5l1 -1q-1 3 -3 11q-2 15 -3 23t-1 12q0 5 0.5 8t1.5 8l30 36l14 -45zM50 718q3 13 10 21v-1q3 4 6.5 8.5t7.5 7.5l2 -5zM113 656l9 -12l3 -26zM106 679l9 20l7 -52l-10 12zM83 753 l28 -24l3 -25l-9 -21zM82 759q9 4 16 4h8l4 -30l-28 25v1zM123 652l35 -1l-31 -33zM119 695l38 -9l5 -28l-3 -4l-35 1zM116 731l35 -6l2 -12l3 -24l-36 10zM115 760q10 -5 19.5 -13t14.5 -18l-31 7zM153 644v-25l-26 -2zM164 653q0 -1 2 -11q1 -3 2 -8.5t4 -11.5l-15 -1 l-1 25z" glyph-name="quoteleft"/>
<glyph horiz-adv-x="177" unicode="’" d="M169 672l-13 -16l-29 6zM195 677q-1 -7 -2 -11.5t-3 -17.5l-30 7l12 17zM149 655l-20 -21l-3 27zM189 645l-5 -23l-47 -36l-6 46l21 21zM182 615q-15 -55 -36 -80l-6 48zM128 636l-4 -2l1 26zM136 562l-15 -5l3 72l4 2zM138 540l-18 -16l1 27l15 6zM140 528 q-4 -4 -9.5 -8t-10.5 -6v7l19 15zM121 602l-25 33l28 24zM118 557l-41 58l18 17l25 -33zM116 526l-67 46q0 9 3 20l23 20l42 -58zM113 512q-9 -3 -22 -3t-27.5 18t-14.5 40l64 -45v-10zM95 638l-14 30q0 -1 2 9l39 -15zM60 609q1 2 2 6t3 9q4 10 6.5 15.5t7.5 23.5l13 -25z M83 679l2 6l11 1l26 -22zM85 687l1 1v5l7 -5zM89 693l26 5l8 -33zM87 697l2 30v22l12 5l12 -52zM90 754q0 4 1 10.5t3 12.5l5 -19zM117 703l49 -5l-40 -33zM111 736l73 -21l-17 -14l-49 5zM102 781l95 -20q1 -7 1.5 -13t2.5 -17l-16 -12l-73 21zM101 793q13 22 45 22l33 -16 q14 -13 17 -28q0 -2 1 -5l-94 20zM150 683l22 -9l-45 -11zM187 712l11 -11v-6q-1 -2 -1 -6t-1 -9l-21 -5l-21 9zM201 722v-8l-2 -7l-8 7z" glyph-name="quoteright"/>
<glyph horiz-adv-x="342" unicode="“" d="M264 659l-9 -49l-43 33zM330 677q0 -2 0.5 -6.5t1.5 -9.5l-2 7q0 -1 4 -12l-14 -91l-59 44l8 49zM337 647l2 -3q1 -2 2.5 -6t5.5 -11q1 -2 2 -4.5l3 -7.5q1 -2 2 -5t2 -5l-2 -63l-29 22zM360 595q8 -22 8 -34q0 -11 -6 -23l-4 3zM238 621l-13 -15l-15 35zM281 587 l-36 -26l-18 42l13 14zM339 541l-32 -38q-26 5 -48 28l-10 24l36 27zM356 526q-7 -10 -18 -16.5t-23 -6.5l28 33zM222 610l-4 -1l-10 31v1zM209 587q6 -14 9.5 -24.5t4.5 -22.5l-15 7zM248 546q-14 19 -24 48l-4 10l3 1zM223 533q0 -28 -14 -40h-1l1 47zM206 581l-29 37 l12 9q5 -11 17 -34v-12zM203 536l-93 31l64 47l30 -37zM198 485q-13 -10 -23 -10t-19 2l-28 15q-6 4 -9 7l2 -1q-10 7 -20 19q-6 7 -14 22l-3 6l22 17l93 -32zM171 617l-19 25h31l5 -12zM122 584l-15 56h41l19 -24zM80 555q-11 29 -22 82l44 1l15 -56zM160 644l13 39 q1 -8 3 -16l4 -16l2 -6zM111 646l24 92l36 -49l-14 -43h-46zM56 648q-1 2 -1 4q0 3 -1 7l1 -1q-2 10 -3 12l-2 9l32 88q10 7 24 7l24 -33l-24 -93h-50zM49 691v10q0 32 13 48v-1q2 3 5.5 7t7.5 7zM206 650q-1 2 -2.5 9.5t-2.5 13.5zM169 698h1v-1zM134 750l12 7 q4 -4 10 -9.5t8 -10.5l2 -14l3 -19l-2 -1zM119 772q6 -2 11.5 -4.5t10.5 -6.5l-9 -7zM197 705v12v1l58 -13l-46 -57zM197 722q0 13 3 28l74 -18l-19 -24zM201 756q0 4 3 17t21 25q9 6 21.5 10t25 3t23.5 -7t19 -19l-38 -48zM240 681l13 -23l-42 -13zM277 725l43 -45l-63 -19 l-13 23zM309 762l13 -19q1 -20 2.5 -31t4.5 -27l-5 -2l-43 45zM319 772q2 -6 3 -10v-9l-9 12z" glyph-name="quotedblleft"/>
<glyph horiz-adv-x="342" unicode="”" d="M242 649l17 -52l-31 39l4 14zM347 632l-60 -65l-23 28l-17 51zM354 628l-4 -20l1 1q-2 -17 -10.5 -35.5t-21.5 -37.5l-2 -2l-24 30l60 64h1zM238 621l-15 3l4 10zM298 545l-71 -6l-9 76l2 4l20 -3zM312 526q-30 -39 -50 -39q-17 0 -27 2l-6 44l72 6zM207 650 q-4 -20 -12 -41l-40 -8zM194 604q-14 -38 -29 -57l-47 16l35 33zM221 529l-26 8v11q0 16 2 25t7 19q1 1 3.5 5.5t4.5 7.5zM161 542q-13 -14 -25.5 -20.5t-23 -7.5t-19 1.5t-14.5 6.5l37 35zM223 494l-7.5 5t-7.5 6q-9 11 -12 26l23 -8zM173 621l-4 16l39 16zM122 573l-28 31 l71 30l3 -16zM84 539l-33 42v3l38 17l27 -32zM71 528q-19 18 -20 44l28 -37zM165 638l-15 50l57 -32zM114 618l9 84l24 -14l14 -50zM53 593q1 5 3.5 10.5t4.5 10.5v-1q6 14 8.5 19.5t6.5 13.5q2 4 3 8t3 9q4 11 6 19t4 13q0 2 0.5 7.5t1.5 13.5l24 -14l-9 -84zM153 690 l37 20l18 -52zM121 710l54 39l13 -36l-38 -20zM95 728v6q0 37 7 55q12 30 46 34l23 -69l-54 -39zM200 687l15 6q-4 -19 -6 -32zM180 750l38 14l2 -20t1 -23q-3 -1 -4 -11t-1 -12l-16 -6zM161 812l29 1q17 -11 21 -23t6 -20l-37 -14zM158 823q10 0 23 -5l-21 -1zM236 664h1 q1 7 3 18l16 -13zM241 688q2 13 5.5 29.5t9.5 37.5q0 1 3 6l85 -66l-85 -23zM263 765q6 6 18 11h-1q4 1 12 6l6 2l72 -74q0 -4 -1 -5l-22 -6zM303 785q1 1 34 1q32 0 33 -70zM287 674l2 -29l-56 8h1l2 8zM299 677l24 -36l-31 4l-1 29zM368 694q-1 -5 -2.5 -12t-2.5 -11 q-2 -7 -3 -13l-2 -12l-2 -9l-28 4l-24 36z" glyph-name="quotedblright"/>
<glyph horiz-adv-x="307" unicode="•" d="M233 401l-23 -25l-16 21zM300 406l-48 -83l-38 52l23 25zM331 407q0 -5 -1 -10l-59 -94l-14 19l47 82zM327 384q-11 -40 -44 -73l-5 -4zM224 354l-29 -17l-2 58zM237 333l-40 -48l-1 48l29 18zM264 295q-32 -23 -65 -27l-1 12l41 49zM192 362l-19 12l19 22v-34zM192 297 l-56 31l36 42l19 -12zM191 269l-73 11l-6 4t-7 4l29 35l56 -31zM178 267q-21 0 -42 6zM174 376l-13 2l29 19zM119 312l10 45l29 18l12 -1zM105 297l-14 3l-8 10t-9 12l51 32l-11 -46zM100 292q-3 3 1 1zM138 365l28 31l23 1zM122 356l-43 38l82 2l-27 -32zM77 331l-17 26 q-5 18 -6 36h20l43 -38zM71 328q-5 9 -8 17l11 -16zM137 399l11 49l41 -48zM92 400l25 83l28 -33l-11 -50h-42zM54 400v2q0 17 4 32l43 65l13 -15l-26 -83zM60 444l5.5 16.5t5.5 13.5q9 18 24 30l3 -3zM174 422l34 25l-16 -46zM140 465l77 18l-10 -32l-34 -25zM104 511 l7 3.5t6 3.5h109l-10 -31l-77 -18zM132 523q23 7 49 7q27 0 44 -5v-2h-93zM204 432l19 17l-29 -48zM228 503l13 -23l-16 -26l-19 -18zM234 521h3q13 -4 22 -10l-16 -27l-14 24zM225 451l-5 -48l-26 -3zM244 479l28 -70l-49 -5l5 49zM264 508q3 -1 8.5 -5t7.5 -5l-1 1 q3 -2 6.5 -4.5t4.5 -3.5l40 -74l-54 -5l-28 69zM301 481q24 -21 29 -54z" glyph-name="bullet"/>
<glyph horiz-adv-x="543" unicode="–" d="M383 350l18 -37l-86 33zM451 352l-5 -54l-39 15l-18 36zM498 354l13 -67q-10 -1 -16 -1h-12l-32 11l6 54zM567 356l-5 -27q-1 -1 -3 -8q-17 -30 -39 -33h-4l-13 65zM371 321l-23 -44l-13 -1l-22 67zM430 297l-15 -16q-16 -1 -31 -2l-30 -2l21 40zM459 284q-9 -1 -18 -1.5 t-17 -1.5l11 12zM332 276l-12 -1q-3 0 -9 -0.5t-10 -0.5l-11 4l20 63zM286 276l-22 44l43 23zM282 274h-52l-20 15l51 27zM218 274h-28l16 9zM262 322l7 48l37 -23zM215 300l-36 106h27l58 -36l-7 -47zM159 274h-2q-32 0 -54 9l4 123h63l37 -105zM97 286q-11 4 -15 9l1 106 q10 5 19 5zM77 298q-26 24 -26 50t15 42q2 2 5 4t7 5zM271 371l16 31l20 -52zM219 406h59h5l-15 -30zM288 406q3 0 15.5 1t13.5 1l-8 -55zM319 408q4 1 9.5 1.5l16.5 1.5l9 -14l-43 -45zM351 411l16 1l-10 -10zM371 409l23 -55l-80 -5zM377 413l31 2l14 -58l-25 -2l-22 56z M415 415l58 4h13q5 0 11 -2q5 -1 9 -1.5t8 -1.5l23 -48l-108 -6zM522 412q39 -12 45 -42l-24 -2z" glyph-name="endash"/>
<glyph horiz-adv-x="694" unicode="—" d="M450 323l-41 -21l-20 42zM562 280q-23 -2 -46.5 -3t-46.5 -2q-4 0 -12 -0.5t-31 -0.5l-10 22l40 21zM416 280l-40 -6l10 68zM374 274h-18l-14 9l42 59zM342 274h-5l2 2zM332 274h-1l-3 84l54 -13zM325 274h-63l-44 109l104 -27zM255 274h-44l-39 118l40 -11zM204 274h-45 q-20 0 -42 5l-51 112q19 15 37 15l63 -16zM105 283q-54 19 -54 54t9 46zM283 374l35 15l62 -40zM246 385l-3 21h47l23 -14l-36 -16zM169 406h67l3 -18zM298 406h72l12 -54zM375 406h38l8 -9l-35 -44zM421 406h4l-2 -2zM435 406q12 0 16 1l37 -43l-97 -14zM458 407 q10 1 16.5 1.5t16.5 1.5l30 3l13 -39l-40 -6zM529 413l95 6h1l22 -26l-107 -16zM638 419q5 0 11 -2q27 -3 46 -14l-40 -6zM432 353l6 -24l-49 17zM522 364l59 -82h-1l-134 46l-6 24zM655 381l-17 -95q-9 -1 -22 -2l-26 -2l-57 81zM713 388q16 -25 -1 -67q-17 -30 -40 -33 q-5 0 -10 -0.5t-14 -0.5l17 93z" glyph-name="emdash"/>
<glyph horiz-adv-x="484" unicode="˜" d="M337 728l-20 -16l-16 27zM392 709l-20 -34q-7 -1 -13 -1t-17 1l-21 34l20 16zM420 698q-21 -15 -42 -21l18 29zM320 705l-30 -13q0 1 -1.5 1.5t-2.5 1.5l13 42zM336 675q-12 2 -23.5 6t-19.5 9l27 11zM287 704l-24 8l35 26zM284 697q-9 4 -28 9l5 3l24 -8zM256 710 l-18 39l58 -10zM250 707q-5 1 -11 1t-14 -9l-18 54l28 -4l18 -40zM221 696l-2 -2q-3 -3 -6.5 -5.5t-5.5 -3.5l4 2q-13 -10 -26 -11t-14 -1l5 81l27 -4zM166 675q-39 3 -39 23q0 22 1 26q2 6 6 14.5t18 19.5l20 -3zM266 747l3 15l28 -21zM207 757l28 28l30 -21l-3 -16z M162 766q25 19 55 31l13 -10l-29 -28zM267 765l22 13l9 -36zM223 799q16 5 29 5t29 -4l5 -18l-21 -14zM285 798q3 0 4 -1l30 -23l-20 -30zM298 794q1 0 4 -1t4 -2l-1 1q12 -3 19 -7l-4 -7zM318 769l19 8l3 -2l-38 -32zM327 783l5 -3h-1l3 -2l-13 -6zM324 760l11 -30l-34 11z M343 774q13 -7 20 -8l2 4t7 9l15 -63l-49 15l-11 30zM375 783l1 1l7 7q2 2 5.5 4.5t7.5 4.5l35 -94q-1 -1 -2 -1l-38 12zM400 802q10 4 24 4t26 -7h1l12 -59q-5 -8 -12.5 -16t-16.5 -16zM456 795q16 -12 16 -25q0 -12 -5 -24z" glyph-name="tilde"/>
<glyph horiz-adv-x="650" unicode="™" d="M444 615l-25 -98l-63 92zM547 619l-100 -136l-22 32l25 97zM649 623l-132 -164q-13 -9 -38 -14l-25 36l100 135zM655 615q1 -24 3.5 -47t6.5 -45v-6q0 -5 1 -10l-17 -50q-11 -11 -29 -18q-6 -3 -12.5 -4t-20.5 -1q-13 0 -28 9t-21 27zM401 537l-37 25l-11 46zM462 445 l-1 -1q-29 2 -49 28q-2 -2 -3 -9l-7.5 -7.5t-8.5 -7.5l-26 106l38 -25zM364 544l-61 -32l46 94zM387 443q-18 -12 -53 -12q-2 0 -4 1l-47 28l-1 1l21 42l61 33zM307 438q-8 3 -12 7zM316 543l-7 43l1 3l38 20zM239 550q0 -5 -0.5 -9t-1 -10t-0.5 -16v-24l-3 -8l-68 28z M278 474q-1 3 -1 18q0 2 1 4q0 3 1 4q0 3 1 8.5t3 10.5q8 27 21 56l6 -37zM230 474q-8 -20 -20 -29q-13 -12 -37 -15h-6h-6q-3 0 -7 1l-41 49l45 24zM139 435q-26 9 -33 39zM312 594l12 29l21 -11zM222 552l-64 152l98 -50h-2q-4 -21 -7.5 -45t-5.5 -47zM105 496q1 7 1 13 t2 17q1 47 3 61q1 7 2 16.5t3 20.5v6q-1 -1 -4 -1l2 1q-3 0 -4 -1l8 91l31 -16l64 -152zM103 627l-5 -1h-3q-24 0 -40 18q-21 22 -21 50q2 21 8 30.5t21 18.5l47 -24zM326 626l6 14l14 -24zM243 667l62 -7q-1 0 -2 -1h-2q-18 -5 -31 -5zM158 712l117 23l40 -70l-2 -1l-76 8z M133 729l32 46q18 3 41.5 7t37.5 5l25 -45l-117 -23zM87 756q19 5 32 8.5t34 7.5l-26 -37zM334 645l14 28l23 3l-21 -59zM319 670h4q-1 0 -3 -2zM351 681q3 8 6 15t7 15v-1q0 2 5 12q6 27 26 43h3l-28 -82zM266 770l81 -3q9 -14 9 -24q0 -9 -1 -11q0 -4 -3 -18.5t-20 -34.5 l-13 -2zM261 789h28q21 0 39 -2q4 -1 9 -8l-72 3zM385 708l3 -48l-35 -43zM409 775q4 1 11 3.5t12 3.5l36 -21l-76 -94l-3 49zM452 782q14 -2 26 -7l-4 -5zM422 695l40 -73l-106 -6zM479 762l26 -134l-38 -3l-40 74zM488 769q18 -13 26 -31q9 16 17.5 28t14.5 16l4 2t4 3 l73 -148l-115 -7l-26 134zM562 790q17 5 43.5 3t43.5 -18l14 -25v-10q-4 -23 -6 -47t-2 -49l-19 -1z" glyph-name="trademark"/>
<glyph horiz-adv-x="632" unicode="š" d="M446 540l-24 -40l-70 49zM602 521q43 -44 48 -126l-13 -45l-200 144l23 40zM483 449l-153 17l21 79zM625 340l-158 -36q31 35 31 57q0 23 -30 35h1q-12 3 -30.5 6t-30.5 3h-28q-16 0 -58 -1l12 51l154 -17zM649 313q-2 -16 -6 -26v1q-3 -10 -9 -22.5t-12 -22.5l-358 -92 l12 46h4q19 0 37.5 4t31.5 10q4 2 8 5t9 6l18 12q20 14 36 27t29 25l180 42zM612 227q-20 -29 -49.5 -58t-68.5 -57q-118 -85 -176 -85t-77 4l28 108zM308 403h-20l55 137zM215 216q1 0 7 -2l-11 -8zM215 53l-55 21l46 115l27 21l10.5 -3.5t10.5 -2.5zM211 38q-26 9 -54 24 l54 -21v-3zM284 406l-94 64l149 73zM268 402h-8q-36 0 -60 2.5t-40 6.5t-26.5 8.5t-18.5 8.5l67 33zM181 169l-95 81q18 14 42 14t49 -20q1 -1 5 -3t10 -7q1 -2 4.5 -4t6.5 -5zM138 73q-81 52 -81 92q0 20 1 32t3.5 20t5.5 12.5t8 9.5l96 -81zM206 488l13 174l59 -55 q-46 -31 -46 -39q0 -7 14 -7t33.5 1.5t43.5 3.5l14 -13zM125 455l-16 217q11 12 25 22t25 18l50 -47l-13 -175zM90 445q-17 13 -27 33q-12 20 -17 36q-2 10 -3.5 21.5t-1.5 25.5q0 28 37 77q4 5 8.5 11t9.5 11l15 -204zM331 566l2 1l8 -10zM274 619l1 25l20 -26 q-2 -1 -4 -2.5t-7 -4.5l-1 -1zM168 719q4 4 18 15q3 2 6 5t6 5l68 -89l-1 -26zM338 567q3 0 5 1l-1 -7zM228 712l129 -36l-3 -27q-13 -5 -26.5 -12t-29.5 -17zM206 749q7 4 8 4q5 3 10 5l14 7t19 10q25 12 41.5 20t24.5 12t17 7.5t17 5.5q-1 0 -11 4q-2 1 -5 2t-7 3 q-7 2 -21 10l60 1l-19 -152l-130 36zM299 851q-4 3 -8 10.5t-7 15.5v-1q-2 7 -5 14.5l-7 17.5q-2 7 -5.5 15t-8.5 18l125 17l-13 -105zM252 954q-8 20 -16 36l-16 32l-1 2l1 -2l-2 4t-2 5q-1 4 -1 20q0 14 33 17q1 0 12.5 1.5t17.5 1.5h10q5 0 10 -1q13 -2 25.5 -9t22.5 -19 l8 -18q2 -5 5 -10.5t6 -11.5l11 -25q2 4 6 8l-2 -14zM353 569l28 2l-29 -12zM373 726l44 -52q-6 -2 -12 -4.5t-11 -4.5q-12 -3 -16 -4.5t-13 -6.5l-2 -1zM399 899l30 -46l-17 -18q-1 -1 -1.5 -2t-1.5 -2q15 2 31 3l120 -185l-22 -8h-1l-1 -1q-29 0 -42 36q-4 6 -8 10 t-11.5 5t-18.5 -2t-29 -10h-1l-48 56zM456 835h12q6 0 10 -1h13q35 -6 78 -49q44 -44 44 -70q0 -25 -8 -41l-37 -14zM422 1026l88 -71q-21 -29 -33 -45q-10 -13 -19.5 -24.5t-19.5 -22.5l-30 48zM436 1054l3 4q8 13 24 17q15 0 22 -4l-6 1l5.5 -2.5t7.5 -2.5l5 -5 q4 -3 14 -9.5t15 -11.5q15 -12 15 -27q0 -14 -7 -27v1q-3 -4 -7 -9t-7 -11l-86 70zM405 572h2q31 0 57 -2t47 -6l-12 -24l-141 14zM522 562q39 -9 60 -25l1 -1q1 0 2 -1l-73 7z" glyph-name="scaron"/>
<glyph horiz-adv-x="241" unicode="›" d="M200 377l5 -30l-30 30h25zM271 374l-37 -55l-26 27l-4 29zM291 371q0 -1 -0.5 -7.5t-0.5 -8.5q-6 -32 -38 -51l-13 13l37 55zM201 349l-24 -23l-3 50zM235 312l-54 -23l-2 34l23 22zM245 299l-4 -2l3 1l-59 -41l-2 28l54 22zM175 325l-43 14l39 36zM175 299l-74 9l30 28 l42 -14zM175 251l-30 -21l-88 30q-1 2 -1 4l43 39l74 -9zM139 227q-19 -11 -39 -11q-18 1 -26.5 8.5t-14.5 28.5zM135 344l-5 7l40 25zM104 316l-6 14l29 18l5 -6zM58 273l-3 1v2q1 8 4.5 17t11.5 19l22 14l7 -13zM112 342v3l37 25l-21 25l40 -17zM83 325q6 5 19 12l-2 -1 l9 7v-2zM146 391l10 26l15 -37zM123 402l-15 18q-4 4 -6 6.5t-7 8.5l44 18l14 -33l-10 -26zM92 439q-4 7 -6 15.5t-2 26.5q1 3 5 11h-1q7 22 18 34l29 -68zM146 448l51 -1l-24 -64zM142 462l66 18l-11 -30l-51 1zM115 533q9 6 31 6l10 -3v5l9 -9q11 -7 21 -23l3 -1l19 -24 l-66 -17zM200 446l25 -40l-49 -24zM213 478l2 -3l29 -58l-16 -8l-26 40zM228 458l27 -34l-8 -4zM224 403l-3 -25l-45 1zM245 412l25 -35l-45 2l2 24zM260 418l9 -11q4 -3 7 -6l5 -5q7 -8 9 -18h-16l-24 35z" glyph-name="guilsinglright"/>
<glyph horiz-adv-x="1271" unicode="œ" d="M929 482l-17 -96q-9 -1 -10.5 -1.5t-5.5 -1.5q-8 -2 -15.5 -3t-15.5 -3q-6 -2 -15.5 -3t-17.5 -1q-7 -1 -11.5 -8.5t-6.5 -17.5l-120 77zM1022 220l20 5l6 -21zM977 488l22 -88q-17 -1 -34 -4l-34 -6h-5l15 89zM1057 226q9 1 19 1h25q16 1 23.5 1.5t23.5 2.5h9l-31 -68 l-63 40zM1138 523q14 -8 22 -19t11.5 -22.5t3.5 -21.5q0 -9 -2 -14l1 1q-2 -24 -22 -37q-17 -13 -47 -13q-14 1 -32.5 2t-29.5 1t-16.5 0.5t-12.5 0.5l-22 85zM1174 231q14 1 32.5 2.5t35.5 4.5q27 -10 42.5 -33.5t15.5 -60.5q-2 -17 -13 -32t-27 -25l-117 74zM813 335 l-2 -29q-1 -5 -1.5 -10.5t-1.5 -12.5l-93 -19l-29 152zM1016 201l-268 -76l-25 128l84 18v-8v-8q0 -4 -0.5 -12t-0.5 -21q0 -4 -0.5 -8.5t-2.5 -7.5v-2q0 -9 18 -13l-3 1q7 -1 12 -1h13h20q5 0 7 1q12 1 25.5 3t28.5 5q10 2 24 4.5t33 6.5q5 2 14 3zM1178 90l-53 -22 q-42 0 -89.5 -5.5t-92.5 -14.5q-18 -3 -41 -7.5t-51 -11.5q-42 -8 -57.5 -6.5t-19.5 1.5l-17 87l268 77zM1195 70l-27 -2l18 8zM706 271l-36 11l8 134zM751 25q-34 4 -62 22l-19 18q-2 4 -5 7t-5 7l11 185l37 -11zM668 322l-43 -4q14 22 24.5 44t15.5 45l9 12zM650 96 l-2.5 5t-2.5 8q-11 -6 -22.5 -12.5t-25.5 -11.5q-6 -2 -12 -5t-11 -5l-84 108l24 29q58 29 101 90l49 4zM558 67q-7 -4 -13 -7t-13 -7q-61 -23 -109 -23h-50l109 135zM668 424v3l2 -1zM403 111l-11 79l11 -1q42 0 69 7zM324 546q-14 -14 -27.5 -31t-24.5 -34 q-20 -29 -31 -54t-15.5 -44.5t-5 -32t1.5 -15.5l-94 222q21 36 43 65l151 -66zM340 53l-76 182q14 -13 40.5 -23.5t61.5 -19.5l-1 1q5 0 9 -1l11 -84zM318 39q-11 3 -13 3q-8 1 -24 6l1 -1q-4 1 -9 3t-13 4q-2 1 -6.5 2.5t-9.5 3.5l-25 10q-26 13 -40.5 20t-16.5 9 q-5 4 -9 7t-8 7l-75 304q4 16 7 28.5t7 23.5q9 27 24 50h-1q4 7 7 12.5t6 10.5l207 -492zM124 135l-2 2q-11 7 -25 30q-7 13 -13.5 28t-12.5 33q-11 36 -13.5 56t-2 31t3 17t2.5 14t0.5 16t2.5 19zM668 434l1 2l1 -3zM297 600l235 76l12 -23q-6 2 -12 2q-5 1 -40 1 q-34 0 -101 -51q-10 -8 -19.5 -15t-17.5 -15zM210 645l104 113q76 48 135 61l70 -131l-235 -76zM669 454q0 5 1 8v19q-4 57 -42 113q-5 7 -12 15l113 79l-52 -247zM487 803l137 9q15 -7 25 -12t25 -15q9 -6 21.5 -15.5t20.5 -17.5q11 5 22 6l-12 -54l-120 -83q-16 13 -33 23 zM481 823h10q2 0 16 3q9 2 27.5 3.5t53.5 -6.5l-104 -7zM714 582l74 -61l-105 -86zM751 729l225 -47l-60 -49q-12 -1 -26 -4.5t-24 -8.5q-5 -3 -12.5 -6t-14.5 -3v-5l-1 -12l-2 -7q-1 -5 -1.5 -9.5t-0.5 -12.5l-38 -31l-74 60zM765 762q13 5 23 7.5t16 3.5l-1 -1q4 1 16 3.5 t19 5.5q11 1 38 6l18 4t19 4h-1q30 8 65.5 13.5t69.5 7.5h-3q16 2 28 2q13 0 24 3l28 -8l-138 -115l-224 48zM834 552q1 -3 1 -10t-1 -11v-7q15 2 31 6l-4 -54l-171 -43zM877 531q16 1 48 6q17 2 29.5 3t20.5 2l-2 -35l-100 -25zM980 669l-1 -28q-11 -1 -21 -2t-18 -3z M991 543h18q20 0 34 -1t35 -5l-89 -22zM1122 780l80 -115q-10 -4 -20 -7t-23 -5t-30 -3t-41 -1t-44.5 -1.5t-41.5 -5.5h-7l2 35zM1166 811q26 -17 42 -44q18 -28 18 -50t-10 -40l-77 112z" glyph-name="oe"/>
<glyph horiz-adv-x="674" unicode="Ÿ" d="M238 681h1q2 -5 5 -10.5t6 -10.5q4 -8 7 -14.5t7 -12.5l-1 1l6 -8l-23 -10l-115 68l90 31q0 -2 1 -4l-2 3q2 -6 10 -18q2 -4 4 -7.5t4 -7.5zM502 487l-6 -9l-10 -15l-37 -21l-63 79zM474 443q-2 -4 -5 -9t-4 -8l-6 8zM460 416q-2 -3 -2.5 -5t-1.5 -4v1q-4 -7 -7 -15.5 t-6 -18.5l-88 1l27 141zM439 362l-1 -7q-4 -13 -7.5 -23.5t-4.5 -16.5l-5 -16q-4 -11 -9 -29t-12 -47l-72 -17l30 156h81zM397 206q-1 -6 -2.5 -13t-2.5 -10q-2 -14 -7 -33t-13 -42q-7 -18 -12.5 -31.5t-10.5 -21.5l-44 -7l27 143zM338 40q-1 -1 -1.5 -2t-1.5 -2 q-13 -8 -28 -11l2 10zM345 360l-44 102l74 56zM322 264l-66 22l25 110q0 6 -14 18l1 -1l-6 6q-2 1 -4 1.5t-4 2.5l40 30l44 -102zM281 81l-59 47l31 144l60 -21zM267 34q-15 9 -26 23q-8 10 -13 23t-6 26l51 -40zM246 431l-79 80l200 11zM189 520l1 114l176 -104zM154 521 q-20 25 -36 54l26 84l37 -22l-2 -115zM110 590q-19 33 -32 68q-4 10 -10 25.5t-8 20.5l71 -43zM355 545q2 2 4.5 5t5.5 7q5 5 7 8.5t3 4.5v-36zM251 607l24 12q16 -18 36 -39l11 -11t10 -9zM365 911q-7 -21 -22 -36q-18 -19 -44 -19q-37 0 -57 38l124 66zM50 740v19 q0 17 11 37l68 37q38 -3 59 -43l25 -64l-88 -30zM236 908q-4 12 -4 39q3 32 21 56q19 24 39 24t33 -6h-1q21 -10 35 -30v-17zM383 580l3 4h-1q8 11 17 23t17 24q2 2 4.5 5.5t4.5 7.5t6 8l41 -7l-92 -110v45zM443 663q22 25 42 48q12 13 21.5 23t17.5 18v-1l7 7l21 -14 l-73 -87zM536 939q0 -4 -1 -9.5t-1 -9.5q-4 -22 -20 -41q-20 -24 -50 -24q-28 0 -47.5 23t-19.5 68q0 17 9 37zM542 769q20 20 37 32.5t30 19.5l-51 -62zM412 995q8 14 22 22.5t25 8.5t16.5 -1t13.5 -5q20 -10 32 -28t15 -39zM436 587l130 -17l-178 -40zM600 775l74 -91 q-2 -2 -3.5 -4t-2.5 -3q-26 -26 -50 -50.5t-44 -47.5l-126 16zM647 826l61 -63q0 -3 0.5 -10.5t0 -16t-3.5 -16.5t-9 -12q-4 -5 -5.5 -7t-6.5 -7l-73 89zM669 825q25 -10 34 -35zM512 553l21 -25q-4 -4 -6.5 -7.5t-4.5 -5.5q-4 -5 -8 -11t-9 -13l-114 34zM558 559 q-5 -6 -9.5 -11t-10.5 -12l-14 16z" glyph-name="Ydieresis"/>
<glyph horiz-adv-x="350" unicode="¡" d="M273 421l-11 -46l-49 31zM261 371l-8 -33l-42 65zM244 346l-36 -40v96zM251 331l-16 -66q-4 -11 -9 -27.5t-11 -38.5l-5 -1v99l37 40zM204 311l-53 69l53 24v-93zM201 225l-90 67l18 49q2 6 3.5 14.5t3.5 14.5l12 5l53 -70v-80zM196 133q-5 -12 -6 -18t-4 -15l-111 92 q1 4 3 8.5t3 7.5l27 75l88 -66v-84zM183 90l-8 -20q-4 -8 -6 -13t-3 -7l-6 -10t-5 -9l1 1q-2 -1 -3.5 -3t-3.5 -4l-103 73q3 14 9 35t16 49zM141 18q-14 -10 -35 -10t-43 23q-19 22 -19 55zM139 380l11 42l51 -14zM151 426q2 8 4 15.5t4 16.5l41 -45zM160 461q2 6 3.5 11.5 t3.5 14.5l24 10l13 -83zM169 496l5 15q4 16 9 27l5 -34zM198 475l29 -11l-20 -51zM288 630q-7 -2 -17.5 -3t-21.5 0t-23 4.5t-22 12.5l90 2zM189 552q7 13 13 21.5t13 12.5l-2 -1q16 10 32 10q17 0 27 -5l-44 -114l-29 10zM193 658q-6 9 -9 22.5t-3 28.5t4.5 29.5t13.5 26.5 l114 -60l-18 -45zM205 771l5 5t8 6q32 26 66 26t57 -23l-27 -70zM256 526l36 -39q-1 -3 -4 -13.5t-8 -29.5v1l-5 -16l-63 -15zM283 584q21 -17 21 -36q0 -18 -10 -52l-32 35zM335 706l25 -24q-9 -19 -30 -34q-11 -8 -22 -12zM359 759q10 -18 10 -35t-5 -32l-22 22z" glyph-name="exclamdown"/>
<glyph horiz-adv-x="630" unicode="¢" d="M466 336l42 27q1 1 13 8q1 1 3 1.5t4 2.5l-1 -1q8 6 21 8l-16 -105zM558 382q24 -1 48 -19q23 -16 23 -28q0 -11 -1 -14q0 -35 -58 -75l-29 26zM468 320l-129 -56l2 14q8 2 17 5t20 7q12 2 33 13t46 27zM552 238l-219 -48l10 65l128 57zM539 226q-20 -11 -43 -22.5 t-50 -23.5h1q-9 -5 -19.5 -9.5t-26.5 -10.5l-10 -2t-7 -2q-3 -1 -13 -3l-3 -22v-13t-2 -12v2l-2 -20l-42 -14l15 108zM363 76l-1 -24l-6 6q-15 -38 -39 -52l8 57zM331 260l-39 12h8q18 0 33 4zM308 115l-116 90l55 69l80 -25zM298 66l-73 12q0 4 0.5 11.5t2.5 15.5l6 42 q-39 9 -64 25l18 23l116 -89zM286 2q-22 3 -38 17q-20 17 -23 48l68 -11zM271 410q-1 -2 -3 -4.5t-4 -6.5q-1 -2 -3 -4.5t-5 -7.5l-27 15zM190 224l-79 153l109 19l31 -17l-1 -3l-5 -8v1q-10 -17 -12.5 -38t11.5 -39zM153 185q-32 24 -48 49q-18 35 -18 72t12 65h1l79 -154z M267 413l-6 45l35 -12q-4 -6 -5 -9l-17 -23zM138 392l27 96l87 -30l6 -45zM108 390q16 35 33 65l-17 -62zM290 454l-33 109l62 -85q-8 -10 -20 -28zM167 498q0 1 3 4q10 15 27 35t41 46l12 -15l33 -110zM256 574l140 17l-10 -40q-6 -5 -8.5 -7t-6.5 -8q-6 -5 -12 -11.5 t-13 -13.5q-5 -5 -10.5 -12.5t-12.5 -15.5zM247 593q3 4 15 16q8 9 17 17q2 2 5 4.5t8 6.5q4 4 19 15l98 5l-15 -57l-140 -17zM325 664q3 2 7.5 6t11.5 9q10 7 16 11l9 6l3 1v2v9t2 15q3 45 4 48q1 18 8 33l59 8l-38 -145zM393 818q13 21 57 33l1 1l-8 -27zM395 562l1 -1 l-1 -1v2zM420 652l69 -39l-24 -32l-2 8q-1 4 -9 4q-24 -3 -52 -26l-3 4zM463 802l51 -18q0 -1 0.5 -4t0.5 -10t-1 -20t-4 -34q20 -10 32 -25l-47 -66l-69 39zM478 850q29 -11 34 -53l-44 16zM468 571l17 -42q-6 6 -13 18l1 -1q-7 9 -7 22zM530 647l40 -71q-8 -56 -35 -56 q-25 0 -35 2l-22 54zM554 672q16 -31 16 -74l-30 54z" glyph-name="cent"/>
<glyph horiz-adv-x="651" unicode="£" d="M388 430q36 -2 57 -9q36 -14 44 -43l-12 -26l-112 72zM492 364v-7t-1 -10l-6 4zM565 304q19 7 34 11.5t27 3.5t22.5 -9t21.5 -24q16 -27 16 -42v-18zM421 376l-28 -81q-1 0 -8.5 -1t-14.5 -1l-12 124zM485 330l-2 -4t-3 -4v1q-14 -21 -35 -26q-1 0 -14 -0.5t-22 -0.5 q-5 0 -6 -1l25 72zM610 250l-220 -99l-8 78l19.5 6.5t22.5 8.5l-1 -1q9 4 17.5 7t23.5 10q3 2 8 4t12 5q17 7 27 11t12 5q5 2 9.5 4.5t9.5 4.5zM640 227l-239 -142l-5 59l220 98zM676 197q-11 -17 -32 -29q-6 -2 -12 -4.5t-13 -5.5q-5 -2 -11.5 -5.5t-14.5 -7.5 q-2 -1 -7 -2.5t-13 -5.5q-12 -6 -24 -11t-39 -17q-5 -2 -12 -5t-17 -7q-8 -4 -16.5 -7.5t-16.5 -6.5l-36 -15l-6 -2l-1 11l239 141zM366 292q-9 0 -23.5 -0.5t-27.5 -1.5l39 124zM382 106l-95 83l4 13q13 2 24.5 4.5t24.5 6.5l19 8l6 2l6 2zM385 58q-14 -5 -20.5 -7 t-11.5 -3l-100 25l33 106l95 -83zM328 41q-31 -7 -51.5 -10t-35.5 -4l10 33zM330 352l-49 15l71 54zM270 171l-153 67l156 119l50 -15l-17 -52l-42 -2l-11 -64l3 -11l-1 1q3 -11 3 -15q5 0 10.5 0.5t10.5 1.5zM228 52l-131 53q-16 36 -16 100l26 20l153 -67zM217 28 q-65 5 -101 44q-2 2 -6 8l-6 9l117 -47zM235 341l-38 152l111 -51l-19 -1l-2 -15q3 1 7 1q5 0 10 1q8 1 14.5 1.5t14.5 0.5l12 -5zM103 246l16 277l68 -32l38 -152zM104 437q-3 0 -11 1t-11 2q-19 9 -37 29t-21 40v4q2 24 28 33l57 -25zM82 235q1 16 2 32.5t3 34.5 q-3 0 -3 2q-44 21 -44 49t14.5 43t34.5 17l-3 -1q2 0 6 0.5t10 1.5v1l2 11l-11 -182zM227 487l44 55l68 -99h-16zM119 540l90 85l54 -76l-44 -55zM131 568q1 5 3 12t4 15q5 21 9 40t11 49l-1 -1q0 4 2 10l41 -60zM87 558l15 2q8 2 23 3l-16 -15zM87 558h1h-1zM278 540 l92 -24l-15 -72h-10zM205 653l124 29l-17 -105q16 0 29 0.5t38 0.5l-11 -51l-92 24zM164 723v1l4 13l-1 -1q1 7 3 13.5t4 13.5l136 31q0 -1 2 -3q24 -29 24 -74l-2 -3l-3 -18l-128 -29zM181 779q4 8 7 11q19 33 51 33t57 -17zM378 526l45 -47l-46 -34h-5q-3 0 -11 -1z M394 578q13 -1 28.5 -3.5t29.5 -7t26.5 -11.5t19.5 -16l-69 -52l-45 47zM502 532q4 -8 4 -14q0 -5 1 -7v-12q0 -28 -14 -39l-37 -8q-3 0 -11.5 -0.5t-17.5 -1.5q-11 0 -18.5 -0.5t-21.5 -3.5z" glyph-name="sterling"/>
<glyph horiz-adv-x="635" unicode="¤" d="M405 419q31 -22 31 -49q0 -26 -0.5 -31t-1.5 -7l-65 87h36zM483 274q5 3 13 10q10 7 14 11v-1q3 2 6 5t6 5q4 4 8 7t8 5h-1q14 10 29 16t28 7l-71 -119zM606 339q29 -3 45 -22q17 -20 17 -61q0 -42 -88 -106l-48 64zM400 364l-51 -44l11 98zM431 319l-2 -6 q-12 -24 -35 -30h-4q-1 0 -6.5 -0.5t-15.5 -1.5l-20 -2l4 34l51 43zM561 136q-11 -7 -21 -13.5t-21 -12.5l-155 -72q-10 -2 -19 -4t-20 -4l18 158l14 7q10 5 29.5 16t48.5 30l39 12zM346 315l-29 7l40 95zM340 278l-40 -3l14 34l29 -6zM322 122l-67 45l2 5q12 -2 29 -0.5 t43 11.5zM312 48l-96 24l35 82l68 -45zM308 27q-8 -1 -37 -1q-28 0 -67 11l10 25l96 -24zM327 354l-72 5l99 60zM291 274q-14 -1 -29 -1.5t-29 -1.5l-50 41l67 41l71 -6zM198 64l-139 112q-2 9 -4.5 24t-2.5 27l122 74l38 -31q-7 -1 -12.5 -1.5t-9.5 -0.5v-3q0 -43 20 -69 h-1q13 -16 35 -22zM184 44q-13 5 -24.5 11.5t-21.5 14.5q-47 35 -67 76l116 -94zM257 365l-35 63l129 -6zM135 294l6 135l72 -4l35 -63zM51 247v10q0 36 10 79.5t27 75.5l-1 -1l7 16l34 -2l-6 -134zM285 433q11 1 24.5 1.5t16.5 0.5h10t13 -1l3 -5zM230 435l40 138l63 -112 l-64 -5q-1 -3 -3.5 -9t-4.5 -9q-2 -2 -3 -4zM154 444l35 159q4 1 12 1q6 9 9.5 13.5t6 7.5l5 6t6.5 9l35 -61l-40 -138zM106 451l3 4l-4 2q-14 10 -27 34t-15 46q0 24 22 37h-1q13 9 32 16h7q6 2 11.5 3.5t9.5 2.5q9 2 21 3.5t13 1.5l-32 -152zM356 434l2 -1v-2zM318 501 l52 52l-9 -88q-6 -2 -11 -3q-3 -1 -9 -1zM261 607l116 44l-9 -89l-52 -52zM239 654q13 16 14 17q4 5 8 9t8 9q8 10 14 16t8 9q6 7 12.5 13t14.5 13v-1q15 15 29.5 28t25.5 19h-1q3 3 9 6q1 1 5 3l-12 -129l-116 -44zM361 433h2l-2 -3v3zM372 543l33 -53l-15 -21q-1 -1 -8 -1 q-4 -1 -17 -3zM489 610l-1 5q-1 2 -1.5 4t-2.5 6q0 -1 -2 9l14 -15zM381 608q6 -2 11.5 -3t11.5 -3q39 -20 43 -49l-38 -52l-33 53zM393 728l66 -69q-34 -4 -77 -49zM405 805q7 3 18 6.5t16 4.5l139 -42l7 -12q2 -5 4 -11l-87 -118l-103 109zM462 820h9h35q29 1 60 -31z M371 431q4 -1 7.5 -1.5t8.5 -2.5h-19zM442 528l7 -7q0 -29 -10.5 -40t-39.5 -11zM543 659l20 -101q-8 -3 -18 -4t-20 2.5t-18 12t-13 23.5zM577 700l26 -64q-5 -59 -33 -75l-20 103zM597 719q4 -25 6 -56l-17 41z" glyph-name="currency"/>
</font>
</defs>
</svg>
