<?xml version="1.0" encoding="UTF-8" standalone="no"?>
<!DOCTYPE svg  PUBLIC '-//W3C//DTD SVG 1.1//EN'  'http://www.w3.org/Graphics/SVG/1.1/DTD/svg11.dtd'>
<svg xmlns="http://www.w3.org/2000/svg" version="1.1">
<defs>
<font id="KomikaTitle-Tilt" horiz-adv-x="463">
<font-face font-weight="400" x-height="973" underline-thickness="50" unicode-range="U+0020-F002" underline-position="-125" bbox="-138.255 -349.571 1274.67 1465.1" panose-1="2 0 0 0 0 0 0 0 0 0" units-per-em="1000" font-family="Komika Title - Tilt" cap-height="979.5" descent="-200" ascent="800"/>
<missing-glyph horiz-adv-x="500"/>
<glyph horiz-adv-x="500" glyph-name=".notdef"/>
<glyph horiz-adv-x="0" glyph-name=".null"/>
<glyph horiz-adv-x="500" glyph-name="nonmarkingreturn"/>
<glyph unicode=" " glyph-name="space" horiz-adv-x="241"/>
<glyph unicode=" " glyph-name="space" horiz-adv-x="241"/>
<glyph d="M494 919q-8 18 -23.5 34.5t-31.5 24.5q-15 8 -26 1.5t-26 -34.5q-51 -99 -129 -264q-33 -70 -69.5 -150t-78.5 -171q-78 -171 -111 -252q-15 -34 -17 -52.5t8 -33.5q7 -12 21 -23q6 -6 27 -19q14 -7 22 -1.5t20 29.5q28 60 60 128.5t70 147.5q43 88 80.5 165t69.5 143 q40 81 71.5 143.5t55.5 108.5q14 28 15.5 42.5t-8.5 32.5z" unicode="ı" glyph-name="dotlessi" horiz-adv-x="208"/>
<glyph d="M807 905q0 15 -3 17q-2 2 -5 18q-2 16 -13.5 16.5t-31.5 -19.5q-34 -32 -89.5 -88.5t-133.5 -139.5q-120 -126 -282 -303q-63 -69 -114 -125.5t-91 -101.5q-12 -13 -20.5 -24.5t-13.5 -21.5q-8 -18 -9 -26.5t-1 -15.5q1 -1 2 -1t2 -1l6 -6q4 -19 12.5 -18t28.5 23 q93 100 222 234q58 60 128 131.5t152 155.5q73 75 127 129.5t89 88.5q11 11 17.5 19.5t10.5 15.5q10 16 10 43z" unicode="∕" glyph-name="fraction" horiz-adv-x="563"/>
<glyph d="M-6 23q10 -11 18.5 -18.5t15.5 -12.5q41 -29 61 21q13 26 25 51t25 51q23 49 37 77.5t18 36.5q17 36 32.5 66.5t28.5 56.5q38 14 80.5 27t82.5 24q19 4 27.5 14.5t12.5 36.5q4 17 5.5 28.5t2.5 16.5q2 12 3 25.5t1 28.5q2 30 -31 27q-16 -1 -39.5 -4.5t-37.5 -6.5 q8 15 17.5 34.5t21.5 42.5q18 36 37 73t32 61l232 56q-58 -121 -119.5 -252.5t-118.5 -259.5q-29 -64 -50.5 -113.5t-36.5 -85.5q-15 -35 -17 -53.5t8 -32.5q7 -12 22 -24q5 -5 26 -18q14 -7 22 -1t20 29q32 69 64.5 137t65.5 138q78 160 150 309q42 84 73 146.5t54 105.5 q35 64 7 122t-89 48q-27 -5 -60 -11t-72 -14q-45 -9 -83.5 -18t-73.5 -17q-42 -10 -71.5 -18.5t-47.5 -15.5q-30 -89 -114 -273q-26 -58 -63 -138.5t-86 -183.5q-45 -94 -71.5 -152t-36.5 -81q-5 -14 -8.5 -24.5t-5.5 -17.5q-8 -26 4 -44z" unicode="" glyph-name="fi" horiz-adv-x="604"/>
<glyph d="M637 55q22 7 27 15q7 10 11 38q11 48 11.5 81t-7.5 40q-8 8 -25 5q-29 -4 -59 -9.5t-61 -13.5q41 85 83.5 170.5t87.5 175.5q45 88 84.5 164t74.5 143q41 75 9 119q-28 37 -79 33q-25 -2 -58.5 -5.5t-75.5 -10.5t-83.5 -14.5t-83.5 -16.5t-71 -17t-47 -15 q-30 -89 -114 -273q-26 -58 -63 -138.5t-86 -183.5q-45 -94 -71.5 -152t-36.5 -81q-5 -14 -8.5 -24.5t-5.5 -17.5q-8 -26 4 -44q10 -11 18.5 -18.5t15.5 -12.5q41 -29 61 21q13 26 25 51t25 51q23 49 37 77.5t18 36.5q17 36 32.5 66.5t28.5 56.5q38 14 80.5 27t82.5 24 q19 4 27.5 14.5t12.5 36.5q4 17 5.5 28.5t2.5 16.5q2 12 3 25.5t1 28.5q2 30 -31 27q-16 -1 -39.5 -4.5t-37.5 -6.5q8 15 17.5 34.5t21.5 42.5q18 36 37 73t32 61q34 7 96 18q24 4 123 21q-57 -112 -113.5 -230.5t-110.5 -232.5q-27 -58 -48 -105.5t-37 -84.5 q-14 -30 -17 -52t1 -43l9 -30q6 -25 11 -37q6 -17 15 -21q13 -6 44 8z" unicode="" glyph-name="fl" horiz-adv-x="705"/>
<glyph d="M125 472q-54 -36 -29 -69q7 -13 20 -25.5t29 -23.5q20 -14 39 -7q-25 -54 -44.5 -98t-36.5 -84q-14 -30 -17 -52.5t1 -42.5q2 -5 4.5 -14.5t6.5 -23.5q4 -17 9 -29q7 -17 15 -21q12 -6 44 8q47 15 96 30.5t97 32.5q11 4 17.5 7.5t10.5 9t6 14t4 23.5q12 48 12 91 q0 23 -7 30.5t-26 4.5q-33 -5 -62.5 -10.5t-57.5 -13.5q33 67 67.5 137.5t70.5 142.5q16 10 31.5 20t31.5 20q25 15 63 39q22 14 37.5 23.5t24.5 14.5q27 15 35 27t1 29q-2 2 -9 22q-11 24 -23 36q-19 25 -67 0q-5 -3 -10 -5q20 40 39.5 76.5t38.5 71.5q15 27 16.5 41 t-7.5 32q-9 19 -24 34t-31 23q-15 9 -26.5 3t-27.5 -34q-19 -35 -41.5 -78t-48.5 -94t-50.5 -101t-47.5 -100q-24 -16 -48 -31.5t-48 -32.5q-23 -15 -42.5 -28.5t-35.5 -24.5z" unicode="Ł" glyph-name="Lslash" horiz-adv-x="440"/>
<glyph d="M125 472q-54 -36 -29 -69q7 -13 20 -25.5t29 -23.5q20 -14 39 -7q-25 -54 -44.5 -98t-36.5 -84q-14 -30 -17 -52.5t1 -42.5q2 -5 4.5 -14.5t6.5 -23.5q4 -17 9 -29q7 -17 15 -21q12 -6 44 8q47 15 96 30.5t97 32.5q11 4 17.5 7.5t10.5 9t6 14t4 23.5q12 48 12 91 q0 23 -7 30.5t-26 4.5q-33 -5 -62.5 -10.5t-57.5 -13.5q33 67 67.5 137.5t70.5 142.5q16 10 31.5 20t31.5 20q25 15 63 39q22 14 37.5 23.5t24.5 14.5q27 15 35 27t1 29q-2 2 -9 22q-11 24 -23 36q-19 25 -67 0q-5 -3 -10 -5q20 40 39.5 76.5t38.5 71.5q15 27 16.5 41 t-7.5 32q-9 19 -24 34t-31 23q-15 9 -26.5 3t-27.5 -34q-19 -35 -41.5 -78t-48.5 -94t-50.5 -101t-47.5 -100q-24 -16 -48 -31.5t-48 -32.5q-23 -15 -42.5 -28.5t-35.5 -24.5z" unicode="ł" glyph-name="lslash" horiz-adv-x="440"/>
<glyph d="M482 781q-84 -104 -177 -225q-39 -51 -81.5 -107.5t-88.5 -119.5q-42 -57 -73.5 -101.5t-53.5 -76.5q-19 -27 -21.5 -47t0.5 -48q5 -21 10 -39.5t10 -33.5q6 -15 17.5 -20t40.5 7q40 16 100 35q25 8 50 15.5t51 15.5q19 5 27.5 15.5t12.5 35.5q5 21 7.5 44.5t3.5 56.5 q1 32 -34 25q-17 -4 -32 -7t-26 -7q-15 -4 -28.5 -8t-25.5 -9q63 82 156 201q49 63 88.5 112.5t68.5 87.5q44 54 82 101t70 89q19 23 28 44.5t12 46.5q2 10 3.5 20t3.5 20q2 11 3.5 23t1.5 23t-1 20t-4 13q-5 10 -22 8q-37 -3 -73.5 -7.5t-71.5 -11.5q-42 -8 -77 -16.5 t-64 -18.5q-15 -7 -21 -15.5t-9 -31.5q-2 -11 -3 -25t-2 -31t-1 -29v-19q4 -42 42 -31q22 7 48.5 13t52.5 13zM650 1421q-9 0 -14 -5t-8 -20q-14 -73 -15 -77q-6 -29 -11 -52t-9 -40q-5 -22 -10.5 -44.5t-11.5 -47.5q-6 -19 -6.5 -27.5t1.5 -23.5q1 -6 9 -18q2 -5 4 -9t4 -9 q5 -9 12 -7.5t19 15.5q28 28 69 75q21 24 38 44t30 37q11 13 24 30t29 37q18 22 16.5 47.5t-5.5 40.5q-4 16 -10 16q-5 0 -13 -12q-20 -23 -39 -46t-44 -51q-29 -34 -47 -53q2 9 5.5 26t8.5 42q14 64 17 91t-11 33q-14 8 -32 8z" unicode="Ž" glyph-name="Zcaron" horiz-adv-x="375"/>
<glyph d="M482 781q-84 -104 -177 -225q-39 -51 -81.5 -107.5t-88.5 -119.5q-42 -57 -73.5 -101.5t-53.5 -76.5q-19 -27 -21.5 -47t0.5 -48q5 -21 10 -39.5t10 -33.5q6 -15 17.5 -20t40.5 7q40 16 100 35q25 8 50 15.5t51 15.5q19 5 27.5 15.5t12.5 35.5q5 21 7.5 44.5t3.5 56.5 q1 32 -34 25q-17 -4 -32 -7t-26 -7q-15 -4 -28.5 -8t-25.5 -9q63 82 156 201q49 63 88.5 112.5t68.5 87.5q44 54 82 101t70 89q19 23 28 44.5t12 46.5q2 10 3.5 20t3.5 20q2 11 3.5 23t1.5 23t-1 20t-4 13q-5 10 -22 8q-37 -3 -73.5 -7.5t-71.5 -11.5q-42 -8 -77 -16.5 t-64 -18.5q-15 -7 -21 -15.5t-9 -31.5q-2 -11 -3 -25t-2 -31t-1 -29v-19q4 -42 42 -31q22 7 48.5 13t52.5 13zM650 1421q-9 0 -14 -5t-8 -20q-14 -73 -15 -77q-6 -29 -11 -52t-9 -40q-5 -22 -10.5 -44.5t-11.5 -47.5q-6 -19 -6.5 -27.5t1.5 -23.5q1 -6 9 -18q2 -5 4 -9t4 -9 q5 -9 12 -7.5t19 15.5q28 28 69 75q21 24 38 44t30 37q11 13 24 30t29 37q18 22 16.5 47.5t-5.5 40.5q-4 16 -10 16q-5 0 -13 -12q-20 -23 -39 -46t-44 -51q-29 -34 -47 -53q2 9 5.5 26t8.5 42q14 64 17 91t-11 33q-14 8 -32 8z" unicode="ž" glyph-name="zcaron" horiz-adv-x="375"/>
<glyph d="M565 989q-9 19 -24 33.5t-30 22.5q-15 11 -26 4t-27 -38q-45 -86 -105 -207q-33 -67 -62.5 -126.5t-55.5 -113.5q-29 -63 -54.5 -115.5t-45.5 -97.5q-16 -34 -18 -52t8 -33q18 -28 47 -39q13 -7 22.5 -0.5t21.5 32.5q22 45 47.5 96t56.5 110q32 61 61 116t55 106 q22 41 51 95.5t67 123.5q15 27 17.5 46t-6.5 37zM2 83q-20 -47 -18 -77.5t16.5 -43.5t38 -7.5t47.5 32.5q13 13 23.5 27.5t19.5 30.5q20 36 25 81q5 44 -22 61q-31 21 -71 -15q-36 -32 -59 -89z" unicode="!" glyph-name="exclam" horiz-adv-x="267"/>
<glyph d="M421 783q19 28 33 48q8 13 17 27t18 31q14 23 27.5 46.5t26.5 48.5q25 49 30 70q5 15 3.5 28.5t-6 25t-11 21t-12.5 16.5q-10 14 -20 10.5t-22 -29.5q-23 -47 -60 -114q-9 -17 -26 -49t-43 -78q-21 -38 -35 -64t-22 -40q-23 -41 3 -47q23 -5 46 4q25 6 53 45zM551 744 q15 17 33.5 42t40.5 57q46 66 74 116q17 36 20 43q2 4 3 8.5t2 9.5q1 10 0 24q-3 15 -8.5 30t-11.5 26q-17 34 -43 -13q-13 -20 -29.5 -47.5t-37.5 -61.5q-20 -34 -39 -63.5t-36 -55.5q-20 -32 -36 -56t-27 -41q-27 -41 -2 -51q18 -5 27.5 -5.5t18.5 1.5q23 2 51 37z" unicode='&quot;' glyph-name="quotedbl" horiz-adv-x="374"/>
<glyph d="M637 599q16 3 22 11t6 36t-7 41q-7 16 -36 16q7 9 18 32q11 22 17.5 34t8.5 14q24 45 27.5 79t-10.5 64t-39 -13q-8 -14 -17 -30t-20 -36q-15 -28 -25 -46.5t-15 -27.5q-10 -18 -20 -37.5t-21 -40.5l-81 -11q10 17 19.5 34.5t18.5 36.5q25 46 27 79t-13 63 q-13 29 -38 -14q-26 -49 -55 -103.5t-61 -117.5l-21 -6t-34 -9q-14 -4 -26 -7t-20 -7q-9 -3 -14.5 -6.5t-8.5 -9.5t-4 -15.5t-1 -25.5q2 -33 10 -46q13 -17 45 -7h3q-17 -35 -35 -71t-35 -71q-20 -8 -41 -15l-42 -14q-17 -7 -22.5 -16t-5.5 -32q2 -37 11.5 -52.5t34.5 -9.5 l-8 -18q-25 -55 -25 -86q0 -30 16 -51q13 -20 25 1.5t39 75.5q23 48 36.5 75l17.5 35l16 6t18 5q23 7 37.5 11t19.5 6l-13.5 -27t-12.5 -27t-12 -29t-8 -23q-9 -30 -7 -50.5t15 -35.5q9 -11 16 -8t19 25l99 198l70 12q16 3 21.5 13t5.5 36t-7.5 39t-31.5 13q19 38 39 76 l40 76q7 1 13.5 2t14.5 2q20 2 32 3t15 2zM462 571q-11 -23 -18.5 -37t-9.5 -19l-22 -44t-22 -45q-22 -4 -43 -8.5t-43 -9.5l72 143q20 6 42 10.5t44 9.5z" unicode="#" glyph-name="numbersign" horiz-adv-x="478"/>
<glyph d="M462 868q-11 0 -24 -6q-5 -2 -10.5 -5.5t-12.5 -7.5q-47 -35 -96 -97q-23 -28 -43 -57.5t-38 -60.5q-32 -64 -40 -117.5t6 -95.5q7 -24 51 -99q28 -47 8 -67q-18 -20 -47 -6q-28 13 -51 56q-8 20 -29 23t-42 -15q-13 -10 -20 -30q-8 -18 0 -56q5 -31 13 -51q7 -18 20 -36 q-6 -12 -18 -38q-2 -7 -5 -13t-5 -12q-21 -52 -28 -95.5t8 -64.5q8 -13 16 -9.5t19 26.5q19 42 38.5 83t41.5 83q1 -1 8 -1q41 0 76 24q27 18 56 53q24 28 42 58q32 59 29 99q-3 43 -28 90q-29 56 -37 81q-8 39 21 98q25 48 61 87q36 37 46 30q2 -8 -2 -18q-6 -18 -20 -55 q-4 -8 -10 -22l-15 -35q-18 -41 -13 -71q4 -29 26 -50q8 -6 17 -1t19 20t21.5 37.5t24.5 50.5q26 57 41 97q15 42 17 67.5t-4 45.5q-5 10 -6 15q-7 16 -10 20l11.5 23l13 26l12.5 25l10 20q21 45 23.5 79.5t-9.5 58.5q-7 9 -13 11t-14.5 -7.5t-21.5 -32t-34 -62.5 q-20 -38 -32.5 -61.5t-17.5 -31.5z" unicode="$" glyph-name="dollar" horiz-adv-x="369"/>
<glyph d="M747 793q30 37 40.5 73t4.5 73q-1 19 -10 20t-23 -15q-51 -59 -107 -92q-50 -31 -78 -25q-34 3 -35 31q-2 31 -3 46q-2 18 -3 24q-11 31 -41 44q-10 5 -26.5 -0.5t-32.5 -18.5q-71 -62 -134 -183q-63 -120 -69 -203q0 -34 5.5 -53.5t21.5 -32.5q5 -4 10.5 -7.5t12.5 -5.5 q33 -10 77 29q43 39 85 115q19 33 34.5 69t29.5 74q20 -15 49 -10t61 28q-39 -48 -83 -103t-95 -118q-44 -56 -87 -111t-87 -112q-42 -54 -74 -97.5t-57 -76.5q-33 -48 -42 -84q-7 -27 1 -61q8 -14 13 -15t19 15q58 81 187 244q56 72 115.5 146.5t123.5 153.5 q63 77 111.5 136.5t85.5 102.5zM630 365q6 24 7 47.5t-5 39.5q-4 12 -15 24.5t-24 20.5q-25 9 -62 -20q-58 -49 -115 -147q-27 -46 -46.5 -90.5t-32.5 -87.5q-26 -91 -4 -126q5 -12 17 -20q5 -4 11 -6.5t13 -4.5q33 -12 76 27.5t85 111.5q39 68 66 142q10 26 17 48t12 41z M566 399q5 -6 -17 -67q-23 -62 -51 -114q-38 -72 -65.5 -108t-36.5 -27t8 59q9 25 24.5 57t33.5 64q27 53 61 97q11 10 21.5 19.5t21.5 19.5zM467 875q6 -8 -3.5 -37.5t-38.5 -95.5q-7 -14 -12 -26t-10 -21q-17 -35 -33 -62.5t-30 -46.5q-26 -35 -36 -26.5t7 57.5 q17 50 53 121q14 26 29.5 50t32.5 47l20 20t21 20z" unicode="%" glyph-name="percent" horiz-adv-x="593"/>
<glyph d="M333 73q5 -11 6 -15t2 -13q11 -28 19 -36.5t24 -5.5q15 4 27.5 12.5t29.5 23.5t21.5 27t-1.5 34l-17 78q5 5 9 9.5t8 9.5q7 8 10.5 13.5t5.5 7.5q34 47 54 86q16 37 21 61t1.5 35t-14.5 8t-27 -21q-8 -6 -35 -33q-32 -32 -54 -51q-5 36 -8.5 70t-5.5 70q19 14 34 26 t27 21q19 16 33.5 28t25.5 22q14 14 27.5 27t24.5 27q66 75 92.5 160t9.5 169q-14 66 -44 80q-12 6 -31 5t-42 -8.5t-49 -22t-52 -35.5q-28 -23 -51.5 -49t-43.5 -56q-22 -33 -38 -64.5t-26.5 -65t-16 -69.5t-7.5 -78q0 -8 -0.5 -17.5t-0.5 -18.5v-16v-8q-45 -33 -77 -62 q-20 -18 -37 -35.5t-31 -34.5q-67 -82 -91 -158q-25 -82 1 -162q25 -64 75 -70q35 -5 90 22q61 24 122 73zM406 593l1 9q5 80 46 140q11 17 26.5 33.5t34.5 32.5q37 31 69 42q7 -39 -20 -95q-24 -48 -58 -79q-9 -10 -20.5 -21t-25.5 -22q-11 -8 -24 -18.5t-29 -21.5z M307 211q-66 -48 -107 -62t-45 8q0 14 5 28q10 31 42 72q17 23 39.5 45.5t48.5 45.5q2 -29 4 -46.5t3 -25.5q2 -20 5 -36t5 -29z" unicode="&amp;" glyph-name="ampersand" horiz-adv-x="519"/>
<glyph d="M399 744q31 36 75 99q23 32 41 61t32 55q17 36 20 43q2 5 3 9t2 9q1 10 0 24q-2 8 -4 15l-4 14q-7 18 -13 27q-8 17 -18.5 13.5t-24.5 -26.5q-19 -32 -45 -74t-59 -94q-1 -1 -25.5 -40t-74.5 -117q-26 -41 -2 -51q16 -4 25 -5t20 1q24 2 52 37z" unicode="&apos;" glyph-name="quotesingle" horiz-adv-x="212"/>
<glyph d="M521 1056q-90 -105 -165.5 -228t-139.5 -267q-126 -286 -138 -512q-1 -54 17 -77q15 -18 44 -15q16 4 20.5 10.5t6.5 27.5q8 122 58 278q23 73 54.5 147.5t69.5 150.5q37 73 76 139.5t81 126.5q72 100 57 213q-6 48 -41 6z" unicode="(" glyph-name="parenleft" horiz-adv-x="243"/>
<glyph d="M496 871q13 70 1.5 116.5t-53.5 60.5q-20 8 -30 -7q-9 -12 -13 -44q-14 -80 -39 -168t-62 -186q-35 -94 -75.5 -184t-87.5 -177q-48 -90 -94.5 -160.5t-92.5 -124.5q-32 -38 -2 -44q55 -10 111 47q44 46 88 107t90 137q45 75 84 153t73 160q70 170 102 314z" unicode=")" glyph-name="parenright" horiz-adv-x="271"/>
<glyph d="M634 656q29 9 26 45q-1 36 -16 51q-16 16 -52 7q-17 -5 -28 -7.5t-23 -5.5q8 18 15.5 33t14.5 28q5 10 11 19t11 19q23 45 25.5 79.5t-12.5 63.5q-7 14 -16 11.5t-22 -25.5q-18 -35 -36 -66q-14 -26 -33 -63q-16 -31 -31 -62q-2 5 -4 11t-4 13q-9 36 -11 43 q-10 38 -31 44t-53 -14t-23 -53q9 -40 18 -75.5t19 -67.5q-33 -14 -72 -33q-17 -8 -33 -16t-30 -16q-17 -9 -22.5 -19.5t-1.5 -40.5q5 -31 18 -44q15 -16 50 1l16 8t18 8q13 6 21 9.5t11 5.5q-5 -11 -13 -29.5t-15 -33.5q-25 -54 -25 -88q8 -37 17 -46q10 -13 16 -10.5 t18 25.5q2 4 14.5 30t36.5 77l11.5 23t18.5 38q2 -8 4 -13.5t4 -9.5q5 -13 9 -23t8 -18q18 -41 39 -41t46 19q15 12 18 18q7 10 1 32q-11 30 -21.5 60t-21.5 60q19 7 33 12t25 9q34 12 57 18z" unicode="*" glyph-name="asterisk" horiz-adv-x="475"/>
<glyph d="M525 411q15 0 22 8.5t10 32.5q2 12 2.5 21.5t1.5 17.5t1.5 19.5t0.5 25.5q0 29 -29 31q-14 1 -33 1.5t-43 -0.5q5 8 10 17.5t11 20.5l22.5 42t8.5 16q14 23 17 36t-2 32q-3 18 -12.5 34t-21.5 28q-9 8 -21 -1t-23 -29q-8 -14 -16.5 -28.5t-16.5 -30.5q-5 -9 -14 -26.5 t-23 -43.5t-23.5 -45.5t-16.5 -33.5q-86 -7 -148 -27q-13 -4 -25 -14q-12 -13 -15 -34.5t-3 -51.5q0 -14 0.5 -26t1.5 -20q4 -19 10.5 -23.5t23.5 0.5q37 11 70 17q-6 -13 -12 -25.5t-11 -25.5l-30 -69q-17 -42 -3 -65q8 -13 16 -23.5t17 -20.5q10 -11 16.5 -6.5t18.5 28.5 q8 17 16 34.5t16 34.5l18 38t19 39q11 22 20.5 42t19.5 40q35 6 75 8.5t77 4.5z" unicode="+" glyph-name="plus" horiz-adv-x="488"/>
<glyph d="M-19 -155q28 33 66 81q23 29 40 52.5t30 43.5q16 19 20 38t0.5 37t-13 34.5t-20.5 30.5q-10 14 -20 11t-25 -26q-13 -22 -27 -45t-30 -47q-8 -13 -22.5 -35t-36.5 -54q-19 -28 -33 -49.5t-24 -36.5q-25 -39 -6 -52q22 -18 51 -18q22 5 50 35z" unicode="," glyph-name="comma" horiz-adv-x="209"/>
<glyph d="M177 640q-34 -10 -36 -56q-1 -22 -1 -39v-29q1 -11 1.5 -23.5t2.5 -25.5q3 -26 11.5 -34t23.5 -1q34 13 75 23.5t81 17.5q15 2 34.5 5t42.5 6q16 1 23.5 10.5t10.5 37.5q1 2 1.5 12.5t2.5 28.5q2 19 3 34t1 26q-2 48 -43 48q-43 0 -117 -13q-34 -6 -63 -13t-54 -15z" unicode="-" glyph-name="hyphen" horiz-adv-x="395"/>
<glyph d="M15 95q-12 -29 -15.5 -53t0.5 -41.5t14.5 -26.5t26.5 -7q26 0 59 33q25 27 42 57q5 9 8.5 18.5t7.5 19.5q12 31 9.5 61t-21.5 44q-30 19 -71 -16q-36 -33 -60 -89z" unicode="." glyph-name="period" horiz-adv-x="221"/>
<glyph d="M659 927q-10 35 -28 69q-18 37 -51 -13q-28 -37 -73.5 -103.5t-110.5 -165.5q-52 -78 -109 -166t-120 -188q-54 -84 -95.5 -148.5t-70.5 -112.5q-17 -30 -24 -52q-7 -25 0 -38q8 -19 14 -30t11 -21q10 -14 19.5 -9.5t24.5 28.5q34 51 79.5 119t103.5 155q61 91 118 175 t112 165q61 90 105.5 154t73.5 104q17 25 22 40.5t-1 37.5z" unicode="/" glyph-name="slash" horiz-adv-x="354"/>
<glyph d="M667 911q-11 26 -34.5 44t-53.5 26q-21 7 -54 -5.5t-64 -39.5q-92 -86 -183 -234q-83 -134 -145 -291q-61 -155 -77 -268q-3 -32 3 -62t16 -47q7 -11 16.5 -19t20.5 -15q18 -11 49.5 -17t63.5 7q33 13 75 55q78 84 155 216q34 60 66 124.5t61 136.5q28 68 48 128t34 114 q11 48 12.5 82.5t-9.5 64.5zM537 806q9 -7 1.5 -42t-29.5 -95q-9 -26 -20.5 -54.5t-25.5 -60.5q-11 -27 -24.5 -55.5t-27.5 -59.5q-64 -133 -128 -222q-63 -86 -85 -70q-21 18 17 131q17 54 41.5 111t55.5 117q32 61 65 114.5t68 101.5q72 96 92 84z" unicode="0" glyph-name="zero" horiz-adv-x="457"/>
<glyph d="M517 848q14 26 15 40.5t-8 33.5t-21 33q-12 13 -27 21.5t-25 3.5q-11 -5 -30 -30q-13 -16 -25 -31.5t-25 -32.5q-15 -20 -27.5 -38.5t-23.5 -35.5q-19 -28 -19 -43q1 -13 18 -37q-25 -51 -51.5 -106t-55.5 -116q-50 -107 -105 -228q-25 -55 -43 -98t-31 -75 q-15 -34 -18 -53t4 -34q4 -7 9.5 -12.5t13.5 -10.5q7 -4 13 -7.5t13 -7.5q14 -8 22 -3t19 29q25 55 57 123t71 151q40 83 77.5 159t72.5 148q38 79 71 143t59 114z" unicode="1" glyph-name="one" horiz-adv-x="258"/>
<glyph d="M215 186q46 42 91.5 89t92.5 99q49 55 88 103.5t68 93.5q40 59 60 97q26 48 40.5 95t14.5 95q-3 60 -31 95q-17 22 -39.5 28.5t-49 -0.5t-56.5 -26t-62 -47q-60 -53 -121 -138q-36 -51 -41.5 -74t7.5 -34q23 -18 54.5 -15.5t64.5 32.5q20 21 36 37.5t28 27.5q31 28 52 41 q22 13 27 1q9 -17 -77 -130q-83 -108 -202 -241q-64 -70 -121.5 -129t-109.5 -107q-21 -18 -29 -47q-6 -19 -4.5 -42.5t6.5 -53.5q3 -14 6 -25t5 -19q4 -18 13.5 -22.5t40.5 5.5q23 8 54.5 17t69.5 17q38 9 69.5 15t56.5 8q17 5 23.5 13t9.5 29q4 22 5 47t-1 41q0 42 -25 41 t-58 -6q-16 -2 -30 -5t-26 -6z" unicode="2" glyph-name="two" horiz-adv-x="413"/>
<glyph d="M424 482q39 23 72 49t61 54q51 54 81 133q35 92 24 170q-10 79 -50 97q-26 12 -71 -2.5t-103 -60.5q-25 -20 -47 -42.5t-42 -46.5q-29 -36 -20 -69q10 -32 45 -39q34 -7 68 22q17 13 29.5 22t20.5 14q28 18 39 18t12 -12q2 -23 -29 -59q-33 -39 -95 -83q-70 -50 -160 -93 q-32 -17 -33 -68t16 -81q18 -28 50 -20q27 5 40 2t18 -20q6 -21 -12 -66q-21 -50 -59 -96q-46 -52 -83 -56.5t-73 46.5q-13 20 -37 22.5t-51 -19.5q-19 -13 -25 -35q-8 -26 4 -64q16 -71 54 -102q16 -14 37.5 -21t46.5 -7t51.5 7.5t52.5 22.5q60 36 118 111q58 76 84 160 q27 88 6 162q-2 9 -6.5 16.5t-9.5 14.5q-8 9 -24 19z" unicode="3" glyph-name="three" horiz-adv-x="433"/>
<glyph d="M520 478q16 32 32 63.5t32 63.5q52 102 60 117q13 25 25.5 49t25.5 49q15 27 16.5 42t-6.5 34q-13 21 -38 50q-28 33 -40 43q-14 9 -25.5 5.5t-32.5 -22.5q-28 -28 -61.5 -64.5t-73.5 -81.5q-45 -50 -83 -94.5t-71 -85.5q-39 -48 -71.5 -90.5t-58.5 -79.5 q-19 -27 -27 -49t-8 -45q2 -30 6 -58.5t10 -47.5q4 -21 16 -25q8 -2 27 4q28 7 59 13t62 13q-14 -29 -22 -46.5t-12 -25.5q-11 -25 -18.5 -39t-9.5 -19t-7.5 -17.5t-14.5 -32.5q-14 -33 -16.5 -50.5t5.5 -36.5q7 -13 21 -25q5 -5 11 -9.5t11 -8.5q14 -8 23 -1t21 31 q13 29 29.5 63.5t36.5 75.5q16 33 36 73.5t44 88.5q15 1 33 2.5t28 2.5q17 3 25 12.5t13 32.5q2 21 5 42t6 41q3 41 -23 43zM258 450q51 61 90 108q26 31 50.5 58.5t47.5 53.5q52 58 96 102q-8 -15 -21 -39.5t-30 -58.5q-22 -43 -34.5 -68.5t-17.5 -33.5q-20 -38 -32.5 -64 t-19.5 -39q-20 -2 -41 -5l-42 -6q-13 -2 -24.5 -4t-21.5 -4z" unicode="4" glyph-name="four" horiz-adv-x="474"/>
<glyph d="M473 755q42 9 108 21q14 3 29 6l30 6q19 4 26 13t12 35q1 1 9 39q9 37 9 61q4 45 -36 42q-20 -2 -42.5 -4t-47.5 -6q-25 -3 -48 -7t-46 -9q-37 -10 -66 -58q-68 -113 -114 -195q-25 -46 -46.5 -86t-38.5 -75q-17 -31 -20 -50t1 -34q2 -6 5 -12t5 -11q5 -11 8 -19t5 -12 q5 -15 11.5 -16.5t29.5 9.5q22 10 50 12q26 1 31 -10q1 -9 -3.5 -30t-14.5 -47t-25 -55.5t-34 -54.5q-35 -47 -61 -54q-34 -9 -58 46q-10 23 -37 24.5t-55 -20.5q-19 -14 -23 -32q-6 -24 1 -69q3 -63 34 -92q26 -25 73 -23.5t95 32.5q21 13 41 29.5t39 38.5q16 17 29.5 36.5 t26.5 39.5q72 115 91.5 204t-10.5 138q-35 50 -89 50q26 48 55 97.5t61 101.5z" unicode="5" glyph-name="five" horiz-adv-x="393"/>
<glyph d="M393 590q55 79 117 150q64 75 126 135q21 21 24.5 36.5t-6.5 32.5q-9 12 -28 25.5t-37 21.5q-20 8 -34 -4q-5 -4 -11.5 -9t-14.5 -12q-57 -56 -110.5 -118.5t-104.5 -133.5q-43 -60 -81 -121.5t-71 -125.5q-28 -54 -51 -104t-40 -98q-35 -97 -34 -157q2 -63 43 -103 q32 -25 62 -28.5t59.5 10.5t59 44t61.5 72q23 30 43 62t39 66q20 38 36 76t28 75q21 66 18.5 110t-36.5 77q-23 22 -57 21zM234 344q36 51 69 75t46 11t-3.5 -58.5t-54.5 -108.5q-45 -72 -79 -103.5t-48 -12.5q-12 13 8 67q18 50 62 130z" unicode="6" glyph-name="six" horiz-adv-x="408"/>
<glyph d="M537 793q-60 -78 -118.5 -158t-116.5 -165q-122 -177 -219 -336q-18 -32 -23.5 -50t-2.5 -40q3 -21 12 -40q7 -15 18 -33q12 -13 20 -10t22 26q39 62 82.5 127.5t92.5 137.5t95 138t91 128t88.5 119.5t85.5 112.5q22 27 30 51t5 49q-1 28 -3 52.5t-6 43.5q-2 25 -11 34 q-10 8 -27 8q-52 -4 -94 -9q-28 -4 -53 -8t-47 -9q-26 -5 -48 -11.5t-40 -13.5q-14 -5 -20 -14.5t-6 -30.5q-1 -11 -1 -28q0 -16 2 -36q1 -9 1.5 -17.5t1.5 -16.5q4 -21 16 -27.5t30 -0.5q20 4 36.5 7.5t29.5 5.5q23 5 42.5 8.5t34.5 5.5z" unicode="7" glyph-name="seven" horiz-adv-x="429"/>
<glyph d="M606 630q57 78 70.5 152.5t-9.5 137.5q-19 48 -50 63t-76 -8q-118 -62 -209 -195q-55 -78 -68.5 -148.5t12.5 -131.5q-36 -29 -66 -57t-55 -56q-61 -69 -93 -143q-36 -80 -32 -146t49 -98q53 -39 120 -17q73 25 150 120q26 34 46 64.5t34 59.5q32 66 36.5 126t-24.5 120 q29 22 52 40.5t40 35.5q44 39 73 81zM326 385q12 -35 -4 -83q-7 -20 -19.5 -42t-29.5 -47t-33.5 -42.5t-31.5 -28.5q-28 -19 -41 -9q-11 9 -7.5 35t28.5 65q53 87 138 152zM544 825q19 -50 -21 -108q-38 -56 -138 -135q-9 43 33 108q43 69 126 135z" unicode="8" glyph-name="eight" horiz-adv-x="436"/>
<glyph d="M248 325q-48 -62 -98 -117.5t-104 -106.5q-19 -18 -22 -32.5t2 -32.5q6 -18 16 -30q6 -7 11 -12t9 -10q10 -13 26 -7q10 3 35 23q98 83 206 218q51 65 96 130.5t85 133.5q80 136 113 236q15 45 19.5 81t0 65.5t-18 54t-35.5 46.5q-29 27 -67.5 25.5t-94.5 -48.5 q-71 -64 -141 -181q-37 -63 -62 -122t-39 -116q-19 -69 -11.5 -113t44.5 -72q5 -6 13.5 -8.5t16.5 -4.5zM372 502q-44 -47 -61 -29q-16 12 2 67q16 49 52 116q42 72 82 118q44 51 58 37q15 -16 -22 -104q-37 -85 -111 -205z" unicode="9" glyph-name="nine" horiz-adv-x="406"/>
<glyph d="M199 500q-19 -45 -17 -76.5t16 -45t37.5 -8.5t48.5 34q24 24 44 59q4 9 7 17t8 20q12 34 10 63t-23 43q-30 19 -71 -16q-38 -32 -60 -90zM11 109q-26 -57 -22.5 -93.5t31.5 -45.5q24 -10 54.5 11.5t51.5 64.5q11 22 17.5 45t10.5 46q7 48 -21 64q-30 18 -66 -12 q-33 -27 -56 -80z" unicode=":" glyph-name="colon" horiz-adv-x="246"/>
<glyph d="M-7 -187q11 14 26.5 38t35.5 57q39 64 67 118q20 33 20 65t-17 68q-16 39 -30 47q-16 9 -34 -29q-14 -29 -28 -57.5t-28 -55.5q-9 -19 -23 -46t-33 -62q-20 -38 -33 -63.5t-20 -38.5q-25 -43 -3 -62q19 -22 50 -22q13 3 24.5 12.5t25.5 30.5zM183 601 q-20 -72 -10.5 -115.5t39.5 -43.5q29 1 61 42q11 14 20.5 32t19.5 39q10 25 15.5 49.5t6.5 49.5q3 50 -26 73q-28 25 -69 -19q-37 -40 -57 -107z" unicode=";" glyph-name="semicolon" horiz-adv-x="260"/>
<glyph d="M471 585q17 8 22.5 18.5t2.5 30.5q-1 11 -2 19t-2 14q-2 10 -3.5 18.5t-3.5 15.5q-7 28 -35 16q-5 -2 -46 -23q-42 -22 -85 -49q-23 -14 -42.5 -27t-36.5 -25q-17 -11 -35 -39q-3 -5 -14 -28.5t-31 -66.5q-4 -5 -7 -14.5t-7 -22.5q-4 -11 2 -22q37 -35 51 -48 q22 -22 48 -51.5t43 -53.5q6 -10 12 -11t14 9t19.5 32.5t28.5 60.5q9 22 9 36q-3 16 -8 26q-14 19 -30 39q-7 8 -16.5 19t-22.5 24q26 17 48.5 30.5t40.5 24.5q23 14 44.5 25.5t41.5 22.5z" unicode="&lt;" glyph-name="less" horiz-adv-x="348"/>
<glyph d="M159 250q70 20 140 31t140 15q16 1 23 9t10 30q4 22 5.5 39t1.5 45t-26 28q-29 2 -64 -0.5t-75 -7.5q-81 -11 -149 -28q-13 -2 -21 -11t-12.5 -23t-6 -31t-1.5 -33q0 -18 0.5 -31.5t3.5 -21.5t10 -11t21 1zM263 517q66 14 132 18t144 1q24 -6 32 35q4 17 6 35t5 41 q1 36 -25 41q-58 11 -135 8q-79 -1 -145 -15q-13 -3 -24 -14q-8 -10 -12 -24.5t-6 -31t-2.5 -33t0.5 -29.5q-1 -22 6 -28.5t24 -3.5z" unicode="=" glyph-name="equal" horiz-adv-x="436"/>
<glyph d="M486 516q14 27 14 38t-9 23q-18 23 -38.5 45t-43.5 44q-46 45 -77 68q-19 16 -37 -19q-10 -22 -20 -51t-15 -48q-3 -21 -3 -31q0 -9 14 -18q36 -30 71 -65q-52 -23 -102 -48t-84 -47q-15 -12 -20 -20q-9 -13 -7 -30l3.5 -24.5t3.5 -18.5q8 -37 15.5 -48.5t29.5 4.5 q48 30 97.5 55t110.5 52q18 9 27.5 19t23.5 32q11 17 22 39.5t24 48.5z" unicode="&gt;" glyph-name="greater" horiz-adv-x="370"/>
<glyph d="M182 257q20 -25 32 -34q37 -27 54 24q39 88 96 150q33 36 102 90q68 54 98 90q36 42 61 88q16 29 26.5 57t17.5 56q17 67 8 129q-5 57 -36 85q-35 34 -92 17q-51 -15 -108 -64t-117 -127q-36 -47 -43 -70t6 -36q22 -24 55 -19.5t66 35.5q14 14 28.5 27.5t28.5 27.5 q16 14 29 25t24 18q38 26 50.5 16t5.5 -37q-10 -32 -41 -74q-17 -23 -41 -46.5t-53 -47.5q-29 -23 -48.5 -39.5t-30.5 -26.5q-53 -48 -89 -95q-23 -32 -43 -66t-36 -72q-13 -32 -15.5 -49.5t5.5 -31.5zM63 84q-20 -41 -19.5 -70.5t14.5 -45t36.5 -16t46.5 17.5q30 22 49 60 q3 6 6 15l8 20q13 36 11.5 63t-25.5 44q-29 22 -70 -8q-36 -27 -57 -80z" unicode="?" glyph-name="question" horiz-adv-x="453"/>
<glyph d="M654 390q89 171 107 315q19 162 -58 226q-27 24 -63 31t-76.5 -3t-84 -37t-87.5 -70q-95 -94 -172 -249q-75 -153 -99 -282q-21 -111 -1 -192q16 -69 61 -100q33 -26 66.5 -28t65.5 13q20 12 18 39q-3 18 -13 32t-24 22q-9 4 -35 6q-26 1 -42 12q-24 14 -31 60 q-11 57 8 137q24 101 88 223q34 65 70.5 118t74.5 96q70 78 132 103.5t100 -5.5q19 -15 27 -41t7 -60t-10.5 -75t-24.5 -86q-12 -35 -27 -71t-34 -72t-36.5 -67t-34.5 -57q-16 -24 -29 -40.5t-23 -26.5q-7 -2 -13.5 -3t-12.5 -2q-3 7 5 27q10 28 39 90q22 43 51 105 q10 18 19 36t18 37q16 32 18 50.5t-12 39.5q12 65 -15 90q-38 26 -114 -47q-76 -71 -142 -198q-30 -56 -45 -100.5t-17.5 -77.5t6 -55t25.5 -33q45 -30 100 24q1 -52 30 -67q25 -19 57 -8q35 11 80 62q48 54 103 159zM541 619q-38 -75 -70.5 -134t-60.5 -103 q-60 -95 -77 -84q-12 5 -1 44t53 118q14 26 30 51.5t35 51.5q15 20 29.5 37t28.5 31q26 26 31 22q8 -9 2 -34z" unicode="@" glyph-name="at" horiz-adv-x="595"/>
<glyph d="M363 242q-7 -22 -14.5 -45.5t-15.5 -49.5q-13 -46 -23.5 -81.5t-9.5 -50.5t14 -24q10 -11 27 -12q4 -1 12 -2t16 -0.5t16 2.5t12 7q9 9 17 32q23 72 48 148.5t53 158.5q28 83 54.5 159.5t52.5 148.5q27 78 49.5 139.5t39.5 107.5q13 32 13.5 50t-14.5 28q-20 11 -31 17.5 t-14 8.5q-31 14 -70 17q-24 3 -46 -13q-8 -7 -18 -17.5t-21 -26.5q-32 -48 -74 -111.5t-93 -143.5q-54 -85 -100.5 -158.5t-85.5 -137.5q-46 -75 -85 -141t-73 -126q-26 -48 -28 -64q-2 -14 9 -41q2 -5 5.5 -10t8.5 -10q3 -4 6 -7l7 -7q12 -10 20.5 -6.5t22.5 25.5 q5 9 14 23t20 34q9 14 18 29l18 30q5 8 14.5 23.5t25.5 39.5q13 5 28.5 10.5t34.5 11.5q31 9 67.5 17.5t72.5 17.5zM301 411q35 55 68.5 107t65.5 101q31 48 60 91.5t56 85.5q-21 -57 -42 -117q-4 -11 -14.5 -41t-27.5 -80q-20 -60 -30.5 -91t-11.5 -33q-29 -3 -60 -9 t-64 -14z" unicode="A" glyph-name="A" horiz-adv-x="479"/>
<glyph unicode="B" glyph-name="B" d="M485 473q24 18 51 42q12 10 44 41q47 47 78 97q37 60 50 117q12 54 12 94q0 41 -9 80q-18 73 -138 53q-105 -19 -209 -90q-20 -49 -45 -108t-56 -129q-29 -64 -57.5 -127t-57.5 -126q-32 -73 -57.5 -130t-42.5 -99q-20 -44 -21 -60q-1 -8 -1 -23q0 -14 2 -34 q8 -31 16.5 -50t21.5 -34q12 -23 25 -24.5t44 11.5q63 26 128 69q38 25 70 51t58 54q40 42 62 78q26 44 39 94q12 48 10.5 89t-17.5 64zM351 555q8 16 17 34.5t20 40.5q3 5 12 22.5t23 46.5q11 23 20 38.5t14 25.5q63 40 101 43.5t33 -23.5q-5 -26 -38 -67 q-17 -22 -38.5 -43t-47.5 -42q-59 -48 -116 -76zM254 361q60 30 90.5 23.5t26.5 -34.5q-9 -43 -70 -97q-60 -53 -141 -87z"/>
<glyph d="M408 268q-50 33 -114 -42q-91 -106 -111 -88q-21 14 18 125q18 53 43 109.5t57 118.5q20 37 42 75.5t48 79.5q27 43 50 76t42 56q43 55 56 47q8 -8 2 -35q-2 -10 -7 -25.5t-13 -36.5q-4 -9 -7 -19.5t-7 -22.5q-14 -57 -6.5 -87.5t41.5 -44.5q12 -6 20.5 -1.5t25.5 33.5 q10 20 21 44.5t22 51t20.5 53.5t17.5 51q15 48 17 79t-9 62q-7 14 -17 26t-23 23q-28 24 -57 28q-12 1 -24.5 -1t-25.5 -7q-30 -13 -67 -47q-94 -91 -192 -250q-96 -155 -161 -312q-34 -83 -53 -150t-23 -119q-4 -34 2.5 -61.5t19.5 -43.5q7 -5 13 -10.5t13 -10.5 q29 -22 57 -27t65 10q37 14 65 40t60 65q17 20 31.5 41t27.5 43q27 43 33 68q6 24 -13 36z" unicode="C" glyph-name="C" horiz-adv-x="428"/>
<glyph d="M368 918l-317 -717q-13 -28 -20 -49t-9 -37q-1 -7 0.5 -18.5t3.5 -28.5q8 -26 15.5 -44.5t18.5 -35.5q23 -37 67 -11q149 67 285 224q121 139 198 309q74 162 79 284q7 127 -49 173q-47 39 -131 18q-72 -18 -141 -67zM168 179q19 38 43.5 89.5t55.5 116.5q25 52 49.5 101 t47.5 97l53 106t44 86q44 21 67 4q40 -28 -9 -158q-14 -35 -33 -72.5t-42 -75.5q-26 -44 -56 -83.5t-62 -75.5q-38 -42 -77 -75.5t-81 -59.5z" unicode="D" glyph-name="D" horiz-adv-x="489"/>
<glyph d="M380 923l-348 -751q-14 -32 -17.5 -57t-1 -45.5t8.5 -37t12 -29.5q6 -16 18 -21t40 6l194 64q19 7 26 16.5t13 35.5q4 30 6.5 51t3.5 41q1 22 -6.5 30t-25.5 5q-36 -4 -66.5 -10t-61.5 -16l73 143q20 7 46.5 15t60.5 18q23 7 39 11.5t26 7.5t17 6.5t11 9t6.5 14.5t5.5 24 q6 29 8.5 48.5t2.5 40.5q5 22 -5 29t-28 7t-39.5 -4.5t-38.5 -6.5q17 31 26.5 49.5t13.5 26.5q9 17 18 35t19 36q11 20 19.5 36.5t15.5 29.5q28 7 68.5 15t97.5 18q18 3 26.5 13t14.5 37q7 32 9 44t2.5 23t1.5 21q6 46 -26 44q-33 -2 -70 -9.5t-79 -18.5q-69 -18 -137 -45z " unicode="E" glyph-name="E" horiz-adv-x="385"/>
<glyph d="M637 814q18 4 25.5 13t14.5 36q11 45 11 80q0 36 -7 45q-6 10 -23 8q-36 -3 -73.5 -8.5t-76.5 -13.5q-38 -8 -71.5 -17t-61.5 -20q-30 -89 -114 -273q-26 -58 -63 -138.5t-86 -183.5q-45 -94 -71.5 -152t-36.5 -81q-5 -14 -8.5 -24.5t-5.5 -17.5q-8 -26 4 -44 q10 -11 18.5 -18.5t15.5 -12.5q41 -29 61 21q13 26 25 51t25 51q23 49 37 77.5t18 36.5q17 36 32.5 66.5t28.5 56.5q38 14 80.5 27t82.5 24q19 4 27.5 14.5t12.5 36.5q4 17 5.5 28.5t2.5 16.5q2 12 3 25.5t1 28.5q2 30 -31 27q-16 -1 -39.5 -4.5t-37.5 -6.5q8 15 17.5 34.5 t21.5 42.5q18 36 37 73t32 61q39 9 87 18l40 8z" unicode="F" glyph-name="F" horiz-adv-x="380"/>
<glyph d="M590 582q19 42 42 99q18 47 29.5 83.5t17 65.5t4.5 51.5t-9 41.5q-9 29 -33 49.5t-50 26.5t-53 -0.5t-56 -31.5q-95 -83 -198 -240q-49 -76 -90.5 -153t-75.5 -158q-71 -167 -81 -276q-5 -35 -0.5 -66t15.5 -49q31 -42 79 -55q51 -18 119 35q52 43 111 122t119 188 q18 32 24.5 53.5t4.5 44.5q-1 23 -2 38t-3 27q-4 22 -14.5 28.5t-33.5 1.5q-20 -5 -31.5 -7.5t-15.5 -3.5q-33 -8 -54 -15q-32 -8 -35 -9q-27 -10 -33 -43q-13 -69 -2.5 -96.5t49.5 -24.5q-55 -90 -95 -137q-47 -55 -64 -39q-21 16 20 136q41 117 105 230q73 133 147 234 q75 100 95 89q4 -3 0 -25q0 -4 -6 -26q-2 -8 -3.5 -13.5t-2.5 -8.5q-5 -14 -11.5 -35t-10.5 -30q-16 -58 -7.5 -92t46.5 -45q15 -3 23 4.5t20 30.5z" unicode="G" glyph-name="G" horiz-adv-x="442"/>
<glyph d="M742 863q13 27 15 41.5t-7 32.5q-11 20 -24 34.5t-27 21.5q-15 9 -26 4t-27 -36l-208 -428q-13 -2 -22 -3t-16 -2q-20 -3 -37 -6t-31 -5q16 31 31 62t31 63q26 54 39.5 81.5t15.5 29.5q10 20 21.5 42.5t25.5 48.5q14 28 15.5 42.5t-8.5 32.5q-8 17 -24 33.5t-30 25.5 q-14 11 -24.5 5t-27.5 -38q-20 -45 -51 -112t-73 -158q-54 -120 -88.5 -194.5t-48.5 -106.5q-37 -81 -69 -147t-59 -119q-17 -33 -18 -51t9 -35q5 -13 21 -23q10 -7 16.5 -11.5t10.5 -7.5q14 -7 22 -1.5t19 29.5q3 4 42 90q19 40 31 65t17 36q11 23 24 50.5t29 59.5 q10 2 24 5.5l34 8.5t34.5 9t23.5 6q-33 -71 -59 -129t-45 -105q-22 -43 -17 -66.5t29 -41.5q13 -8 20.5 -12t9.5 -5q24 -11 38 27q29 63 64.5 137.5t78.5 162.5q32 67 69 142t79 160t73.5 148t54.5 107z" unicode="H" glyph-name="H" horiz-adv-x="452"/>
<glyph d="M494 919q-8 18 -23.5 34.5t-31.5 24.5q-15 8 -26 1.5t-26 -34.5q-51 -99 -129 -264q-33 -70 -69.5 -150t-78.5 -171q-78 -171 -111 -252q-15 -34 -17 -52.5t8 -33.5q7 -12 21 -23q6 -6 27 -19q14 -7 22 -1.5t20 29.5q28 60 60 128.5t70 147.5q43 88 80.5 165t69.5 143 q40 81 71.5 143.5t55.5 108.5q14 28 15.5 42.5t-8.5 32.5z" unicode="I" glyph-name="I" horiz-adv-x="208"/>
<glyph d="M85 -17q40 -22 80 -10q30 7 69 40q28 23 59.5 65t68.5 102q35 58 74 130t81 160q39 81 83 177.5t93 211.5q13 29 14 42t-9 30q-9 17 -27 34q-13 12 -31 23q-16 8 -27.5 1t-24.5 -36q-42 -94 -78.5 -175.5t-70.5 -153.5q-99 -215 -164 -337q-83 -155 -106 -152 q-16 4 -4 48q2 8 7.5 26.5t15.5 47.5q34 95 -19 151q-14 19 -32 -1q-15 -15 -37 -61q-27 -58 -42 -100.5t-20 -84.5q-12 -66 -2.5 -111t49.5 -67z" unicode="J" glyph-name="J" horiz-adv-x="418"/>
<glyph d="M358 380q38 41 69.5 76t57.5 64q70 79 123 144q60 73 96 126q22 32 31 54.5t11 47.5q6 54 -6 89q-6 19 -16 19q-9 0 -26 -22t-41 -50t-53 -63q-19 -20 -49.5 -55.5t-75.5 -86.5q-64 -75 -127 -145q46 94 54 108q32 65 47 94q19 40 32.5 63.5t19.5 39t5 26t-10 24.5 q-8 18 -23.5 34t-30.5 25q-14 9 -26 2t-27 -35q-24 -48 -56 -114t-74 -153q-86 -180 -153 -327q-38 -85 -66.5 -148.5t-46.5 -108.5q-19 -46 -16 -70t27 -41q8 -5 15.5 -10t15.5 -10q24 -12 40 31l133 281q-1 -48 1 -91t7 -100q2 -16 3 -31.5t3 -32.5q3 -33 21 -40 q13 -8 36 3q13 3 27 9.5t25 15.5q19 13 26 27t3 35q-2 25 -4 58t-3 76t-1 83q0 41 2 79z" unicode="K" glyph-name="K" horiz-adv-x="443"/>
<glyph d="M274 53q21 7 29 17q6 9 10 37q11 50 11 91q0 23 -7 30.5t-25 4.5q-34 -5 -63.5 -10.5t-57.5 -13.5q29 58 57 115.5t56 114.5q25 50 53.5 106.5t62.5 121.5q32 63 57 111.5t45 84.5q15 27 16.5 41t-7.5 32q-9 19 -24 34t-31 23q-15 9 -26.5 3t-27.5 -34 q-26 -51 -59 -114.5t-72 -142.5q-38 -78 -74 -151.5t-68 -143.5q-35 -75 -62.5 -135.5t-48.5 -109.5q-14 -30 -17 -52.5t1 -42.5q2 -5 4.5 -14.5t6.5 -23.5q4 -17 9 -29q7 -17 15 -21q12 -6 44 8q47 15 96 30.5t97 32.5z" unicode="L" glyph-name="L" horiz-adv-x="355"/>
<glyph d="M353 594q-35 -114 -65.5 -226t-52.5 -202q-5 -21 -6.5 -35t-1 -23t3 -15t7.5 -12q4 -4 12 -10t16.5 -10.5t17 -5.5t14.5 4q6 4 25 35q15 26 38 63.5t55 88.5q28 45 57.5 91.5t61.5 95.5q32 50 60.5 94t54.5 84q-34 -67 -67.5 -137.5t-67.5 -146.5q-32 -69 -56.5 -124.5 t-42.5 -99.5q-15 -32 -17 -52t9 -34q8 -13 20 -22q10 -9 25 -16t26 3q8 8 22 34q18 40 47 102.5t69 147.5q42 87 79 165t71 149q39 81 71.5 146.5t58.5 117.5q18 33 19 52t-11 33q-8 9 -18 18t-23 18q-9 7 -19.5 13t-22.5 13q-30 19 -59 -10q-11 -11 -33 -41t-54 -81 q-27 -40 -58 -87t-66 -102q-34 -52 -63 -98t-54 -87q16 55 31 110t31 110q23 80 27 97q6 19 12 33q10 37 11 50q5 35 -18 56q-30 30 -80 43q-18 5 -31.5 -4.5t-31.5 -42.5q-24 -48 -55.5 -112t-71.5 -147q-43 -90 -80 -169t-69 -148q-38 -84 -66 -148t-47 -112 q-15 -34 -16.5 -52t9.5 -33q7 -12 19 -22t25 -17t21.5 -0.5t21.5 31.5q14 30 33 72.5t44 98.5q27 58 51 108t45 95q59 122 103 212z" unicode="M" glyph-name="M" horiz-adv-x="616"/>
<glyph d="M406 408l20 80t20 82q4 14 13.5 52t26.5 102q10 40 17 67.5t12 44.5q11 40 10.5 60t-14.5 32q-13 17 -31 30q-5 4 -13.5 9t-20.5 13q-14 9 -27.5 0.5t-29.5 -38.5q-25 -49 -59 -118.5t-78 -162.5q-37 -78 -74 -157.5t-75 -163.5q-36 -80 -61.5 -136t-39.5 -90 q-15 -34 -17.5 -52.5t6.5 -32.5q4 -13 15 -22q4 -5 33 -21q13 -9 21.5 -4t19.5 28l249 529q-16 -68 -29 -127.5t-24 -113.5q-12 -60 -21 -109t-14 -89q-9 -57 13 -78t50 -34q31 -15 52 34q31 66 62.5 134t65.5 140q100 216 141 300q35 72 66 135.5t59 119.5q15 31 18 48.5 t-7 35.5q-12 22 -22 30q-8 8 -25 15q-15 9 -27.5 1t-25.5 -36q-18 -35 -37.5 -75t-41.5 -85q-25 -51 -46.5 -95.5t-40.5 -86.5q-23 -49 -45 -97.5t-44 -97.5z" unicode="N" glyph-name="N" horiz-adv-x="468"/>
<glyph unicode="O" glyph-name="O" d="M673 915q-10 27 -33 46t-50 27q-26 8 -59.5 -5.5t-64.5 -41.5q-47 -45 -93 -104t-93 -134q-86 -140 -148 -295q-61 -153 -75 -266q-3 -33 2.5 -62.5t17.5 -49.5t36 -34q14 -8 35 -13.5t46 -3.5t53 16t56 45q76 84 156 219q36 63 68 128t61 135q28 67 48.5 127.5 t34.5 116.5q11 51 12 85.5t-10 63.5zM542 812q19 -10 -26 -138q-43 -123 -100 -235q-71 -143 -132 -227q-64 -88 -85 -70q-21 16 20 137q38 112 100 228q32 60 64.5 113t66.5 101q74 104 92 91z"/>
<glyph d="M226 273q48 20 95 46.5t95 60.5q51 35 92.5 72.5t75.5 75.5q48 55 75 99q35 60 46.5 119.5t10.5 104.5q0 23 -2 45t-6 45q-14 53 -68 50q-54 -1 -133 -41q-31 -16 -64.5 -36.5t-70.5 -45.5q-13 -7 -88 -180q-37 -85 -73.5 -168.5t-73.5 -168.5q-88 -200 -117 -248 q-30 -59 -14 -89q8 -12 47 -40q14 -7 22.5 -1t20.5 28q8 18 18.5 40.5t23.5 48.5q14 29 24.5 51.5t18.5 38.5q1 4 45 93zM336 497q36 70 69 135q36 72 63 123q54 33 94 35q39 1 33 -26q-4 -30 -40 -81q-37 -54 -91 -100q-31 -27 -62.5 -48.5t-65.5 -37.5z" unicode="P" glyph-name="P" horiz-adv-x="472"/>
<glyph d="M385 49q-2 21 -3.5 42t-3.5 42q63 85 125 205q28 54 53 110t48 115q43 112 66 203q16 74 11 119.5t-41 75.5q-32 32 -78.5 29t-95.5 -49q-47 -45 -93 -104t-93 -134q-86 -140 -148 -295q-61 -153 -75 -266q-3 -33 2.5 -62.5t17.5 -49.5q14 -23 35 -34q10 -5 21.5 -9.5 t25.5 -6.5q26 -2 49 1.5t45 18.5q2 -6 3 -8.5t2 -9.5q7 -38 39 -27q16 5 31.5 13.5t31.5 21.5q17 11 22.5 24t2.5 35zM232 153q-22 -22 -33 -11q-15 16 5 88q20 70 60 160q40 91 87 175q25 45 49.5 83t48.5 72q35 51 58 72q25 25 35.5 20t1.5 -45q-6 -28 -18.5 -65.5 t-31.5 -85.5t-39 -92t-40 -85q-23 -47 -44 -85q-11 -20 -22 -39t-22 -36q-20 -7 -38.5 -15t-30.5 -17q-32 -23 -28 -57v-20t2 -17z" unicode="Q" glyph-name="Q" horiz-adv-x="462"/>
<glyph d="M231 296q2 -35 8 -73.5t15 -81.5q17 -75 33 -119q12 -25 28 -30t36 4q10 3 15.5 4.5t7.5 2.5q9 4 27 22q16 16 21 28.5t-1 33.5q-14 49 -27 129q-5 32 -10 67t-9 73q96 63 164 126q38 35 68 71.5t53 73.5q15 24 26 53t20 66q11 60 10.5 105t-8.5 90q-14 54 -59.5 57 t-115.5 -29q-25 -11 -56.5 -29t-70.5 -42q-25 -16 -111 -190q-31 -63 -70 -148.5t-88 -194.5q-29 -66 -58.5 -131t-58.5 -131q-14 -34 -17 -54t3 -35q6 -11 19 -18t26 -13q13 -7 22 -1t19 27q33 72 68 142t71 145zM470 759q29 18 52.5 26.5t50.5 8.5t23.5 -27.5t-39.5 -76.5 q-20 -26 -43.5 -51.5t-50.5 -48.5q-60 -54 -128 -88q24 43 50 94q22 43 44.5 86t40.5 77z" unicode="R" glyph-name="R" horiz-adv-x="485"/>
<glyph d="M44 253q-19 -12 -26 -36q-8 -22 1 -70q17 -95 52 -136q34 -40 87 -37q52 1 101 32q20 13 39 30.5t38 39.5q29 34 54 77q41 66 34 128q-2 20 -11.5 47t-25.5 61q-36 75 -45 115q-10 42 22 111q27 57 72 114q39 49 71 73q5 -2 10.5 -3t10.5 -2q-6 -20 -36 -81 q-17 -37 -28 -59.5t-15 -32.5q-41 -93 26 -148q10 -11 20.5 -5.5t25.5 29.5q14 25 31 57t36 71q20 39 35.5 72.5t26.5 62.5q6 17 10.5 30.5t6.5 21.5q13 53 1 94q-6 25 -26 51q-15 22 -38 40q-27 17 -60 7q-28 -7 -53 -29q-58 -43 -128 -127q-68 -81 -108 -157 q-48 -85 -61.5 -160.5t2.5 -129.5q9 -33 39 -97q30 -61 36 -83q11 -40 -8 -56q-29 -28 -62.5 -8.5t-63.5 82.5q-11 24 -37 26.5t-56 -15.5z" unicode="S" glyph-name="S" horiz-adv-x="401"/>
<glyph d="M705 824q18 3 24.5 11.5t11.5 35.5t6 53t-2 48q-2 13 -9 19t-22 6q-36 -2 -80 -7.5t-98 -14.5q-105 -17 -177 -39q-14 -5 -20 -13.5t-9 -33.5q-2 -25 -4.5 -57t0.5 -53q4 -21 11.5 -26t22.5 1t36 11t34 8q-37 -75 -78.5 -161t-88.5 -186q-46 -100 -81 -179.5t-60 -139.5 q-23 -47 -17 -73q4 -21 30 -39q11 -8 18.5 -12.5t10.5 -6.5q22 -11 39 27q28 60 58.5 125.5t65.5 137.5q38 81 71.5 149.5t62.5 127.5q32 66 65 131.5t65 131.5q9 2 20 3.5t25 3.5q24 4 41 6.5t28 4.5z" unicode="T" glyph-name="T" horiz-adv-x="443"/>
<glyph d="M48 133q-3 -33 2 -59t14 -45q22 -42 80 -50q29 -4 55.5 4.5t57.5 30.5q56 46 133 168q35 57 74.5 128.5t82.5 159.5q35 71 79.5 166.5t99.5 216.5q14 29 15.5 42.5t-8.5 31.5q-23 33 -37 45q-42 37 -67 -23q-47 -103 -85.5 -185.5t-69.5 -146.5q-54 -112 -97.5 -196.5 t-77.5 -142.5q-89 -152 -114 -135q-22 15 28 137q20 50 50 115.5t72 148.5q31 61 65.5 127t74.5 138q32 63 16 104q-10 22 -19 32q-13 16 -25 23q-14 11 -25.5 5t-26.5 -34q-43 -79 -81 -151t-71 -138q-42 -84 -74 -155.5t-57 -134.5q-58 -145 -64 -227z" unicode="U" glyph-name="U" horiz-adv-x="451"/>
<glyph d="M746 841q24 42 23 68.5t-19 52.5q-17 28 -33.5 32.5t-36.5 -29.5l-40 -70t-90 -156q-35 -62 -69.5 -120t-67.5 -115q-40 -69 -75 -126.5t-64 -105.5l184 599q19 66 -9 90q-14 14 -38.5 18.5t-41.5 -10.5q-4 -5 -8 -14.5t-9 -23.5q-26 -76 -49 -146t-43 -134 q-23 -72 -42.5 -137t-37 -125.5t-33.5 -118.5t-31 -115q-9 -36 -8.5 -71t13.5 -55q7 -10 15 -18l16 -16q7 -6 15 -12.5t19 -13.5q18 -12 33.5 -4.5t36.5 40.5q37 58 78 124.5t87 144.5q49 82 95 160.5t90 153.5q48 84 82.5 146.5t57.5 106.5z" unicode="V" glyph-name="V" horiz-adv-x="466"/>
<glyph d="M238 330q17 46 36.5 94.5t41.5 101.5q19 45 37.5 89.5t37.5 92.5q13 29 25 59t25 60q16 36 20 60q8 34 -1 49t-24 25q-10 7 -32 17q-16 6 -26 -3t-24 -40q-51 -122 -111 -279q-30 -78 -59 -155t-57 -154q-7 -19 -15.5 -43t-18.5 -53q-8 -22 -15.5 -44t-15.5 -44 q-1 -2 -7 -21.5t-18 -54.5q-9 -26 -12 -47.5t12 -34.5l14 -10l14 -10q17 -10 34 -16q13 -6 24 -1q6 4 13.5 11.5t15.5 20.5l47.5 77.5t68.5 109.5q38 61 74 117t70 109q-17 -47 -39 -117q-10 -31 -19 -60t-17 -55q-7 -23 -13 -45t-13 -45q-9 -30 -8.5 -52t13.5 -34 q14 -8 28.5 -17t28.5 -17q19 -8 33 -0.5t30 32.5q42 72 79 137t72 125q45 78 89.5 154t89.5 151q51 86 89.5 149.5t64.5 105.5q18 29 25.5 55t1.5 47q-14 32 -34 54q-15 13 -24.5 9.5t-28.5 -33.5q-20 -33 -43 -70.5t-49 -79.5q-31 -51 -64.5 -107t-70.5 -119 q-37 -62 -72.5 -121.5t-70.5 -118.5q11 28 29 73.5t44 111.5q20 51 36 91t27 70q16 39 25 63t13 33q13 35 14 48.5t-11 25.5q-16 15 -25.5 21.5t-18.5 10.5q-14 7 -25 0.5t-26 -28.5q-11 -16 -32 -48t-52 -80q-21 -33 -51.5 -82t-71.5 -115q-32 -51 -63.5 -102.5 t-63.5 -103.5z" unicode="W" glyph-name="W" horiz-adv-x="641"/>
<glyph d="M458 708q8 55 14.5 103.5t11.5 91.5q3 31 -2 48t-23 21q-18 3 -36 3q-22 0 -26 -0.5t-7 -0.5q-19 -5 -27.5 -16.5t-13.5 -43.5q-5 -37 -11 -80t-13 -93q-8 -55 -14.5 -110t-13.5 -111q-31 -38 -58 -72t-51 -66q-26 -33 -50.5 -65t-47.5 -63q-20 -26 -39.5 -52.5 t-39.5 -54.5q-20 -29 -27 -49q-8 -21 -2 -59q6 -39 18 -61q13 -36 44 6q10 11 25.5 32t38.5 50l38 48t38 49q27 35 47.5 61.5t34.5 43.5q-6 -50 -10 -85.5t-6 -58.5q-6 -65 -6 -89t5 -39q5 -14 21 -17q36 -6 70 0q32 8 33 53q10 85 24 195t29 225l281 346q20 24 30 48t9 63 q-1 20 -5 39.5t-12 39.5q-8 14 -20 14t-32 -22q-14 -16 -28.5 -34.5t-31.5 -38.5q-21 -26 -39.5 -49t-34.5 -43q-6 -8 -27 -34.5t-58 -72.5z" unicode="X" glyph-name="X" horiz-adv-x="472"/>
<glyph d="M708 837q21 33 26.5 51t1.5 40q-8 30 -16 45q-12 26 -26.5 29.5t-31.5 -26.5q-28 -42 -49.5 -73t-35.5 -53q-56 -80 -87 -126q-18 -26 -40.5 -57.5t-48.5 -68.5q20 97 34.5 176.5t24.5 143.5q4 35 1 49t-15 20q-11 6 -25.5 6.5t-43.5 -4.5q-17 -4 -24 -13.5t-12 -36.5 l-109 -565q-13 -26 -25 -52t-23 -52q-22 -49 -41 -94q-13 -28 -22 -47.5l-15 -32.5q-14 -33 -16 -50.5t6 -36.5q4 -5 10 -10.5t14 -12.5q5 -4 11.5 -9t14.5 -11q14 -8 22 -2.5t21 32.5q8 17 19 41t25 54q14 31 26 55.5t21 43.5q12 25 25 51l27 54q43 60 80 111t68 94 q35 49 68.5 97.5t66.5 96.5t56 84t37 59z" unicode="Y" glyph-name="Y" horiz-adv-x="434"/>
<glyph d="M482 781q-84 -104 -177 -225q-39 -51 -81.5 -107.5t-88.5 -119.5q-42 -57 -73.5 -101.5t-53.5 -76.5q-19 -27 -21.5 -47t0.5 -48q5 -21 10 -39.5t10 -33.5q6 -15 17.5 -20t40.5 7q40 16 100 35q25 8 50 15.5t51 15.5q19 5 27.5 15.5t12.5 35.5q5 21 7.5 44.5t3.5 56.5 q1 32 -34 25q-17 -4 -32 -7t-26 -7q-15 -4 -28.5 -8t-25.5 -9q63 82 156 201q49 63 88.5 112.5t68.5 87.5q44 54 82 101t70 89q19 23 28 44.5t12 46.5q2 10 3.5 20t3.5 20q2 11 3.5 23t1.5 23t-1 20t-4 13q-5 10 -22 8q-37 -3 -73.5 -7.5t-71.5 -11.5q-42 -8 -77 -16.5 t-64 -18.5q-15 -7 -21 -15.5t-9 -31.5q-2 -11 -3 -25t-2 -31t-1 -29v-19q4 -42 42 -31q22 7 48.5 13t52.5 13z" unicode="Z" glyph-name="Z" horiz-adv-x="375"/>
<glyph d="M225 45q5 29 8.5 47.5t2.5 38.5q2 41 -31 35q-11 0 -25.5 -2t-18.5 -3q34 73 73 153.5t84 171.5q44 88 83.5 166.5t76.5 148.5l82 13q18 4 26.5 13.5t12.5 34.5q2 13 3 21t2 10q4 23 4 53q3 47 -32 44q-35 -2 -48 -3q-17 -2 -32.5 -4.5t-29.5 -5.5q-26 -4 -48 -46 q-43 -81 -92 -178.5t-104 -212.5t-100.5 -213t-81.5 -181q-16 -34 -20 -57t-2 -45q1 -2 3 -9.5t5 -18.5q5 -18 9 -26q7 -16 17.5 -21.5t31.5 1.5q18 5 31.5 9t22.5 7q13 4 25 7t25 7q17 0 25 10.5t12 34.5z" unicode="[" glyph-name="bracketleft" horiz-adv-x="304"/>
<glyph d="M469 998q-15 6 -28.5 7.5t-42.5 -0.5q-30 -2 -40 -55q-12 -48 -28 -120.5t-36 -170.5q-20 -97 -37 -186.5t-31 -172.5q-17 -92 -28.5 -159t-17.5 -112q-3 -35 -0.5 -49.5t16.5 -17.5q22 -7 54 -1q18 3 26 13t11 32q10 54 24.5 127t33.5 168q20 95 38.5 183.5t36.5 172.5 q20 92 36 161.5t28 118.5q6 32 3.5 43t-18.5 18z" unicode="\" glyph-name="backslash" horiz-adv-x="358"/>
<glyph d="M560 820q13 27 16.5 41.5t0.5 36.5q-2 16 -4 31.5t-6 31.5q-3 18 -10.5 24.5t-24.5 3.5q-37 -4 -69 -9.5t-54 -12.5q-30 -8 -40 -50q-4 -14 -5.5 -35.5t-2.5 -49.5q-2 -23 4.5 -30.5t25.5 -4.5q2 0 12 2t15.5 3t6.5 1q-32 -66 -58 -117.5t-46 -89.5q-53 -107 -111 -225 q-32 -65 -56.5 -117t-43.5 -92q-17 -4 -42 -12t-42 -15q-34 -13 -35 -46q-1 -16 -1 -30v-24q-1 -21 0 -34q1 -15 6 -20.5t15 -5t25 4.5t37 9q19 4 31 6.5t19 4.5q20 0 33 13q9 9 20 31q30 64 60 126l60 124q40 82 74.5 151.5t63.5 129.5q37 75 68.5 136t57.5 109z" unicode="]" glyph-name="bracketright" horiz-adv-x="318"/>
<glyph d="M495 459q14 -1 21 7.5t12 30.5q8 41 13.5 69.5t9.5 45.5q13 70 30 138q16 75 33 138q8 29 8.5 43t-2.5 34q-4 12 -11 26l-14 28q-9 12 -18.5 10t-28.5 -23q-23 -23 -49 -51t-55 -62q-25 -29 -50 -59.5t-51 -61.5q-23 -29 -43 -54t-36 -46q-12 -17 -17.5 -32t-6.5 -29 t0.5 -25.5t2.5 -20.5q2 -8 3.5 -16t3.5 -16q6 -36 33 0q51 61 79 95t36 42q19 22 38.5 44t39.5 45l-27 -132q-7 -33 -11.5 -59t-7.5 -45q-4 -43 16 -52q9 -5 19 -8t30 -4z" unicode="^" glyph-name="asciicircum" horiz-adv-x="447"/>
<glyph d="M-103 -286h448q23 -6 48 37q4 6 23 44q27 55 27 68q0 11 -19 10q-463 0 -473 -9q-12 -12 -22 -33q-10 -17 -21 -39t-17 -35q-12 -23 -10 -33t16 -10z" unicode="_" glyph-name="underscore" horiz-adv-x="430"/>
<glyph d="M547 1264q19 -39 57 -85q20 -26 41 -46t41 -35q15 -15 63 19q4 5 8 9l9 9q15 23 5 41q-26 28 -44 50q-23 28 -41 55q-20 32 -32 61q-6 12 -19 11t-39 -18q-14 -8 -25.5 -25.5t-23.5 -45.5z" unicode="`" glyph-name="grave" horiz-adv-x="395"/>
<glyph d="M363 242q-7 -22 -14.5 -45.5t-15.5 -49.5q-13 -46 -23.5 -81.5t-9.5 -50.5t14 -24q10 -11 27 -12q4 -1 12 -2t16 -0.5t16 2.5t12 7q9 9 17 32q23 72 48 148.5t53 158.5q28 83 54.5 159.5t52.5 148.5q27 78 49.5 139.5t39.5 107.5q13 32 13.5 50t-14.5 28q-20 11 -31 17.5 t-14 8.5q-31 14 -70 17q-24 3 -46 -13q-8 -7 -18 -17.5t-21 -26.5q-32 -48 -74 -111.5t-93 -143.5q-54 -85 -100.5 -158.5t-85.5 -137.5q-46 -75 -85 -141t-73 -126q-26 -48 -28 -64q-2 -14 9 -41q2 -5 5.5 -10t8.5 -10q3 -4 6 -7l7 -7q12 -10 20.5 -6.5t22.5 25.5 q5 9 14 23t20 34q9 14 18 29l18 30q5 8 14.5 23.5t25.5 39.5q13 5 28.5 10.5t34.5 11.5q31 9 67.5 17.5t72.5 17.5zM301 411q35 55 68.5 107t65.5 101q31 48 60 91.5t56 85.5q-21 -57 -42 -117q-4 -11 -14.5 -41t-27.5 -80q-20 -60 -30.5 -91t-11.5 -33q-29 -3 -60 -9 t-64 -14z" unicode="a" glyph-name="a" horiz-adv-x="479"/>
<glyph unicode="b" glyph-name="b" d="M485 473q24 18 51 42q12 10 44 41q47 47 78 97q37 60 50 117q12 54 12 94q0 41 -9 80q-18 73 -138 53q-105 -19 -209 -90q-20 -49 -45 -108t-56 -129q-29 -64 -57.5 -127t-57.5 -126q-32 -73 -57.5 -130t-42.5 -99q-20 -44 -21 -60q-1 -8 -1 -23q0 -14 2 -34 q8 -31 16.5 -50t21.5 -34q12 -23 25 -24.5t44 11.5q63 26 128 69q38 25 70 51t58 54q40 42 62 78q26 44 39 94q12 48 10.5 89t-17.5 64zM351 555q8 16 17 34.5t20 40.5q3 5 12 22.5t23 46.5q11 23 20 38.5t14 25.5q63 40 101 43.5t33 -23.5q-5 -26 -38 -67 q-17 -22 -38.5 -43t-47.5 -42q-59 -48 -116 -76zM254 361q60 30 90.5 23.5t26.5 -34.5q-9 -43 -70 -97q-60 -53 -141 -87z"/>
<glyph d="M408 268q-50 33 -114 -42q-91 -106 -111 -88q-21 14 18 125q18 53 43 109.5t57 118.5q20 37 42 75.5t48 79.5q27 43 50 76t42 56q43 55 56 47q8 -8 2 -35q-2 -10 -7 -25.5t-13 -36.5q-4 -9 -7 -19.5t-7 -22.5q-14 -57 -6.5 -87.5t41.5 -44.5q12 -6 20.5 -1.5t25.5 33.5 q10 20 21 44.5t22 51t20.5 53.5t17.5 51q15 48 17 79t-9 62q-7 14 -17 26t-23 23q-28 24 -57 28q-12 1 -24.5 -1t-25.5 -7q-30 -13 -67 -47q-94 -91 -192 -250q-96 -155 -161 -312q-34 -83 -53 -150t-23 -119q-4 -34 2.5 -61.5t19.5 -43.5q7 -5 13 -10.5t13 -10.5 q29 -22 57 -27t65 10q37 14 65 40t60 65q17 20 31.5 41t27.5 43q27 43 33 68q6 24 -13 36z" unicode="c" glyph-name="c" horiz-adv-x="428"/>
<glyph d="M368 918l-317 -717q-13 -28 -20 -49t-9 -37q-1 -7 0.5 -18.5t3.5 -28.5q8 -26 15.5 -44.5t18.5 -35.5q23 -37 67 -11q149 67 285 224q121 139 198 309q74 162 79 284q7 127 -49 173q-47 39 -131 18q-72 -18 -141 -67zM168 179q19 38 43.5 89.5t55.5 116.5q25 52 49.5 101 t47.5 97l53 106t44 86q44 21 67 4q40 -28 -9 -158q-14 -35 -33 -72.5t-42 -75.5q-26 -44 -56 -83.5t-62 -75.5q-38 -42 -77 -75.5t-81 -59.5z" unicode="d" glyph-name="d" horiz-adv-x="489"/>
<glyph d="M380 923l-348 -751q-14 -32 -17.5 -57t-1 -45.5t8.5 -37t12 -29.5q6 -16 18 -21t40 6l194 64q19 7 26 16.5t13 35.5q4 30 6.5 51t3.5 41q1 22 -6.5 30t-25.5 5q-36 -4 -66.5 -10t-61.5 -16l73 143q20 7 46.5 15t60.5 18q23 7 39 11.5t26 7.5t17 6.5t11 9t6.5 14.5t5.5 24 q6 29 8.5 48.5t2.5 40.5q5 22 -5 29t-28 7t-39.5 -4.5t-38.5 -6.5q17 31 26.5 49.5t13.5 26.5q9 17 18 35t19 36q11 20 19.5 36.5t15.5 29.5q28 7 68.5 15t97.5 18q18 3 26.5 13t14.5 37q7 32 9 44t2.5 23t1.5 21q6 46 -26 44q-33 -2 -70 -9.5t-79 -18.5q-69 -18 -137 -45z " unicode="e" glyph-name="e" horiz-adv-x="385"/>
<glyph d="M637 814q18 4 25.5 13t14.5 36q11 45 11 80q0 36 -7 45q-6 10 -23 8q-36 -3 -73.5 -8.5t-76.5 -13.5q-38 -8 -71.5 -17t-61.5 -20q-30 -89 -114 -273q-26 -58 -63 -138.5t-86 -183.5q-45 -94 -71.5 -152t-36.5 -81q-5 -14 -8.5 -24.5t-5.5 -17.5q-8 -26 4 -44 q10 -11 18.5 -18.5t15.5 -12.5q41 -29 61 21q13 26 25 51t25 51q23 49 37 77.5t18 36.5q17 36 32.5 66.5t28.5 56.5q38 14 80.5 27t82.5 24q19 4 27.5 14.5t12.5 36.5q4 17 5.5 28.5t2.5 16.5q2 12 3 25.5t1 28.5q2 30 -31 27q-16 -1 -39.5 -4.5t-37.5 -6.5q8 15 17.5 34.5 t21.5 42.5q18 36 37 73t32 61q39 9 87 18l40 8z" unicode="f" glyph-name="f" horiz-adv-x="380"/>
<glyph d="M590 582q19 42 42 99q18 47 29.5 83.5t17 65.5t4.5 51.5t-9 41.5q-9 29 -33 49.5t-50 26.5t-53 -0.5t-56 -31.5q-95 -83 -198 -240q-49 -76 -90.5 -153t-75.5 -158q-71 -167 -81 -276q-5 -35 -0.5 -66t15.5 -49q31 -42 79 -55q51 -18 119 35q52 43 111 122t119 188 q18 32 24.5 53.5t4.5 44.5q-1 23 -2 38t-3 27q-4 22 -14.5 28.5t-33.5 1.5q-20 -5 -31.5 -7.5t-15.5 -3.5q-33 -8 -54 -15q-32 -8 -35 -9q-27 -10 -33 -43q-13 -69 -2.5 -96.5t49.5 -24.5q-55 -90 -95 -137q-47 -55 -64 -39q-21 16 20 136q41 117 105 230q73 133 147 234 q75 100 95 89q4 -3 0 -25q0 -4 -6 -26q-2 -8 -3.5 -13.5t-2.5 -8.5q-5 -14 -11.5 -35t-10.5 -30q-16 -58 -7.5 -92t46.5 -45q15 -3 23 4.5t20 30.5z" unicode="g" glyph-name="g" horiz-adv-x="442"/>
<glyph d="M742 863q13 27 15 41.5t-7 32.5q-11 20 -24 34.5t-27 21.5q-15 9 -26 4t-27 -36l-208 -428q-13 -2 -22 -3t-16 -2q-20 -3 -37 -6t-31 -5q16 31 31 62t31 63q26 54 39.5 81.5t15.5 29.5q10 20 21.5 42.5t25.5 48.5q14 28 15.5 42.5t-8.5 32.5q-8 17 -24 33.5t-30 25.5 q-14 11 -24.5 5t-27.5 -38q-20 -45 -51 -112t-73 -158q-54 -120 -88.5 -194.5t-48.5 -106.5q-37 -81 -69 -147t-59 -119q-17 -33 -18 -51t9 -35q5 -13 21 -23q10 -7 16.5 -11.5t10.5 -7.5q14 -7 22 -1.5t19 29.5q3 4 42 90q19 40 31 65t17 36q11 23 24 50.5t29 59.5 q10 2 24 5.5l34 8.5t34.5 9t23.5 6q-33 -71 -59 -129t-45 -105q-22 -43 -17 -66.5t29 -41.5q13 -8 20.5 -12t9.5 -5q24 -11 38 27q29 63 64.5 137.5t78.5 162.5q32 67 69 142t79 160t73.5 148t54.5 107z" unicode="h" glyph-name="h" horiz-adv-x="452"/>
<glyph d="M494 919q-8 18 -23.5 34.5t-31.5 24.5q-15 8 -26 1.5t-26 -34.5q-51 -99 -129 -264q-33 -70 -69.5 -150t-78.5 -171q-78 -171 -111 -252q-15 -34 -17 -52.5t8 -33.5q7 -12 21 -23q6 -6 27 -19q14 -7 22 -1.5t20 29.5q28 60 60 128.5t70 147.5q43 88 80.5 165t69.5 143 q40 81 71.5 143.5t55.5 108.5q14 28 15.5 42.5t-8.5 32.5z" unicode="i" glyph-name="i" horiz-adv-x="208"/>
<glyph d="M85 -17q40 -22 80 -10q30 7 69 40q28 23 59.5 65t68.5 102q35 58 74 130t81 160q39 81 83 177.5t93 211.5q13 29 14 42t-9 30q-9 17 -27 34q-13 12 -31 23q-16 8 -27.5 1t-24.5 -36q-42 -94 -78.5 -175.5t-70.5 -153.5q-99 -215 -164 -337q-83 -155 -106 -152 q-16 4 -4 48q2 8 7.5 26.5t15.5 47.5q34 95 -19 151q-14 19 -32 -1q-15 -15 -37 -61q-27 -58 -42 -100.5t-20 -84.5q-12 -66 -2.5 -111t49.5 -67z" unicode="j" glyph-name="j" horiz-adv-x="418"/>
<glyph d="M358 380q38 41 69.5 76t57.5 64q70 79 123 144q60 73 96 126q22 32 31 54.5t11 47.5q6 54 -6 89q-6 19 -16 19q-9 0 -26 -22t-41 -50t-53 -63q-19 -20 -49.5 -55.5t-75.5 -86.5q-64 -75 -127 -145q46 94 54 108q32 65 47 94q19 40 32.5 63.5t19.5 39t5 26t-10 24.5 q-8 18 -23.5 34t-30.5 25q-14 9 -26 2t-27 -35q-24 -48 -56 -114t-74 -153q-86 -180 -153 -327q-38 -85 -66.5 -148.5t-46.5 -108.5q-19 -46 -16 -70t27 -41q8 -5 15.5 -10t15.5 -10q24 -12 40 31l133 281q-1 -48 1 -91t7 -100q2 -16 3 -31.5t3 -32.5q3 -33 21 -40 q13 -8 36 3q13 3 27 9.5t25 15.5q19 13 26 27t3 35q-2 25 -4 58t-3 76t-1 83q0 41 2 79z" unicode="k" glyph-name="k" horiz-adv-x="443"/>
<glyph d="M274 53q21 7 29 17q6 9 10 37q11 50 11 91q0 23 -7 30.5t-25 4.5q-34 -5 -63.5 -10.5t-57.5 -13.5q29 58 57 115.5t56 114.5q25 50 53.5 106.5t62.5 121.5q32 63 57 111.5t45 84.5q15 27 16.5 41t-7.5 32q-9 19 -24 34t-31 23q-15 9 -26.5 3t-27.5 -34 q-26 -51 -59 -114.5t-72 -142.5q-38 -78 -74 -151.5t-68 -143.5q-35 -75 -62.5 -135.5t-48.5 -109.5q-14 -30 -17 -52.5t1 -42.5q2 -5 4.5 -14.5t6.5 -23.5q4 -17 9 -29q7 -17 15 -21q12 -6 44 8q47 15 96 30.5t97 32.5z" unicode="l" glyph-name="l" horiz-adv-x="355"/>
<glyph d="M353 594q-35 -114 -65.5 -226t-52.5 -202q-5 -21 -6.5 -35t-1 -23t3 -15t7.5 -12q4 -4 12 -10t16.5 -10.5t17 -5.5t14.5 4q6 4 25 35q15 26 38 63.5t55 88.5q28 45 57.5 91.5t61.5 95.5q32 50 60.5 94t54.5 84q-34 -67 -67.5 -137.5t-67.5 -146.5q-32 -69 -56.5 -124.5 t-42.5 -99.5q-15 -32 -17 -52t9 -34q8 -13 20 -22q10 -9 25 -16t26 3q8 8 22 34q18 40 47 102.5t69 147.5q42 87 79 165t71 149q39 81 71.5 146.5t58.5 117.5q18 33 19 52t-11 33q-8 9 -18 18t-23 18q-9 7 -19.5 13t-22.5 13q-30 19 -59 -10q-11 -11 -33 -41t-54 -81 q-27 -40 -58 -87t-66 -102q-34 -52 -63 -98t-54 -87q16 55 31 110t31 110q23 80 27 97q6 19 12 33q10 37 11 50q5 35 -18 56q-30 30 -80 43q-18 5 -31.5 -4.5t-31.5 -42.5q-24 -48 -55.5 -112t-71.5 -147q-43 -90 -80 -169t-69 -148q-38 -84 -66 -148t-47 -112 q-15 -34 -16.5 -52t9.5 -33q7 -12 19 -22t25 -17t21.5 -0.5t21.5 31.5q14 30 33 72.5t44 98.5q27 58 51 108t45 95q59 122 103 212z" unicode="m" glyph-name="m" horiz-adv-x="616"/>
<glyph d="M406 408l20 80t20 82q4 14 13.5 52t26.5 102q10 40 17 67.5t12 44.5q11 40 10.5 60t-14.5 32q-13 17 -31 30q-5 4 -13.5 9t-20.5 13q-14 9 -27.5 0.5t-29.5 -38.5q-25 -49 -59 -118.5t-78 -162.5q-37 -78 -74 -157.5t-75 -163.5q-36 -80 -61.5 -136t-39.5 -90 q-15 -34 -17.5 -52.5t6.5 -32.5q4 -13 15 -22q4 -5 33 -21q13 -9 21.5 -4t19.5 28l249 529q-16 -68 -29 -127.5t-24 -113.5q-12 -60 -21 -109t-14 -89q-9 -57 13 -78t50 -34q31 -15 52 34q31 66 62.5 134t65.5 140q100 216 141 300q35 72 66 135.5t59 119.5q15 31 18 48.5 t-7 35.5q-12 22 -22 30q-8 8 -25 15q-15 9 -27.5 1t-25.5 -36q-18 -35 -37.5 -75t-41.5 -85q-25 -51 -46.5 -95.5t-40.5 -86.5q-23 -49 -45 -97.5t-44 -97.5z" unicode="n" glyph-name="n" horiz-adv-x="468"/>
<glyph unicode="o" glyph-name="o" d="M673 915q-10 27 -33 46t-50 27q-26 8 -59.5 -5.5t-64.5 -41.5q-47 -45 -93 -104t-93 -134q-86 -140 -148 -295q-61 -153 -75 -266q-3 -33 2.5 -62.5t17.5 -49.5t36 -34q14 -8 35 -13.5t46 -3.5t53 16t56 45q76 84 156 219q36 63 68 128t61 135q28 67 48.5 127.5 t34.5 116.5q11 51 12 85.5t-10 63.5zM542 812q19 -10 -26 -138q-43 -123 -100 -235q-71 -143 -132 -227q-64 -88 -85 -70q-21 16 20 137q38 112 100 228q32 60 64.5 113t66.5 101q74 104 92 91z"/>
<glyph d="M226 273q48 20 95 46.5t95 60.5q51 35 92.5 72.5t75.5 75.5q48 55 75 99q35 60 46.5 119.5t10.5 104.5q0 23 -2 45t-6 45q-14 53 -68 50q-54 -1 -133 -41q-31 -16 -64.5 -36.5t-70.5 -45.5q-13 -7 -88 -180q-37 -85 -73.5 -168.5t-73.5 -168.5q-88 -200 -117 -248 q-30 -59 -14 -89q8 -12 47 -40q14 -7 22.5 -1t20.5 28q8 18 18.5 40.5t23.5 48.5q14 29 24.5 51.5t18.5 38.5q1 4 45 93zM336 497q36 70 69 135q36 72 63 123q54 33 94 35q39 1 33 -26q-4 -30 -40 -81q-37 -54 -91 -100q-31 -27 -62.5 -48.5t-65.5 -37.5z" unicode="p" glyph-name="p" horiz-adv-x="472"/>
<glyph d="M385 49q-2 21 -3.5 42t-3.5 42q63 85 125 205q28 54 53 110t48 115q43 112 66 203q16 74 11 119.5t-41 75.5q-32 32 -78.5 29t-95.5 -49q-47 -45 -93 -104t-93 -134q-86 -140 -148 -295q-61 -153 -75 -266q-3 -33 2.5 -62.5t17.5 -49.5q14 -23 35 -34q10 -5 21.5 -9.5 t25.5 -6.5q26 -2 49 1.5t45 18.5q2 -6 3 -8.5t2 -9.5q7 -38 39 -27q16 5 31.5 13.5t31.5 21.5q17 11 22.5 24t2.5 35zM232 153q-22 -22 -33 -11q-15 16 5 88q20 70 60 160q40 91 87 175q25 45 49.5 83t48.5 72q35 51 58 72q25 25 35.5 20t1.5 -45q-6 -28 -18.5 -65.5 t-31.5 -85.5t-39 -92t-40 -85q-23 -47 -44 -85q-11 -20 -22 -39t-22 -36q-20 -7 -38.5 -15t-30.5 -17q-32 -23 -28 -57v-20t2 -17z" unicode="q" glyph-name="q" horiz-adv-x="462"/>
<glyph d="M231 296q2 -35 8 -73.5t15 -81.5q17 -75 33 -119q12 -25 28 -30t36 4q10 3 15.5 4.5t7.5 2.5q9 4 27 22q16 16 21 28.5t-1 33.5q-14 49 -27 129q-5 32 -10 67t-9 73q96 63 164 126q38 35 68 71.5t53 73.5q15 24 26 53t20 66q11 60 10.5 105t-8.5 90q-14 54 -59.5 57 t-115.5 -29q-25 -11 -56.5 -29t-70.5 -42q-25 -16 -111 -190q-31 -63 -70 -148.5t-88 -194.5q-29 -66 -58.5 -131t-58.5 -131q-14 -34 -17 -54t3 -35q6 -11 19 -18t26 -13q13 -7 22 -1t19 27q33 72 68 142t71 145zM470 759q29 18 52.5 26.5t50.5 8.5t23.5 -27.5t-39.5 -76.5 q-20 -26 -43.5 -51.5t-50.5 -48.5q-60 -54 -128 -88q24 43 50 94q22 43 44.5 86t40.5 77z" unicode="r" glyph-name="r" horiz-adv-x="485"/>
<glyph d="M45 257q-17 -12 -25.5 -35t1.5 -73q15 -95 52 -138q34 -40 87 -37q53 2 101 33q20 13 39.5 30.5t38.5 39.5q28 34 55 79q41 69 34 130q-5 41 -36 110q-37 76 -46 120q-9 42 23 110q27 57 73 115q43 53 73 75l10 -2l10 -2q-5 -20 -36 -83q-18 -38 -29 -61.5t-15 -33.5 q-41 -95 25 -149q12 -12 21.5 -6.5t24.5 29.5t32.5 56.5t37.5 74.5q19 38 34.5 72.5t27.5 64.5q16 46 21 72q8 45 -2 76q-8 28 -27 53q-8 11 -17.5 21.5t-20.5 18.5q-27 17 -61 7q-29 -8 -53 -30q-59 -43 -129 -128q-68 -83 -109 -160q-49 -87 -63 -163t2 -131q9 -35 38 -98 q30 -62 36 -85q12 -41 -7 -57q-30 -29 -64 -10t-63 85q-11 24 -37 26.5t-57 -16.5z" unicode="s" glyph-name="s" horiz-adv-x="401"/>
<glyph d="M705 824q18 3 24.5 11.5t11.5 35.5t6 53t-2 48q-2 13 -9 19t-22 6q-36 -2 -80 -7.5t-98 -14.5q-105 -17 -177 -39q-14 -5 -20 -13.5t-9 -33.5q-2 -25 -4.5 -57t0.5 -53q4 -21 11.5 -26t22.5 1t36 11t34 8q-37 -75 -78.5 -161t-88.5 -186q-46 -100 -81 -179.5t-60 -139.5 q-23 -47 -17 -73q4 -21 30 -39q11 -8 18.5 -12.5t10.5 -6.5q22 -11 39 27q28 60 58.5 125.5t65.5 137.5q38 81 71.5 149.5t62.5 127.5q32 66 65 131.5t65 131.5q9 2 20 3.5t25 3.5q24 4 41 6.5t28 4.5z" unicode="t" glyph-name="t" horiz-adv-x="443"/>
<glyph d="M48 133q-3 -33 2 -59t14 -45q22 -42 80 -50q29 -4 55.5 4.5t57.5 30.5q56 46 133 168q35 57 74.5 128.5t82.5 159.5q35 71 79.5 166.5t99.5 216.5q14 29 15.5 42.5t-8.5 31.5q-23 33 -37 45q-42 37 -67 -23q-47 -103 -85.5 -185.5t-69.5 -146.5q-54 -112 -97.5 -196.5 t-77.5 -142.5q-89 -152 -114 -135q-22 15 28 137q20 50 50 115.5t72 148.5q31 61 65.5 127t74.5 138q32 63 16 104q-10 22 -19 32q-13 16 -25 23q-14 11 -25.5 5t-26.5 -34q-43 -79 -81 -151t-71 -138q-42 -84 -74 -155.5t-57 -134.5q-58 -145 -64 -227z" unicode="u" glyph-name="u" horiz-adv-x="451"/>
<glyph d="M746 841q24 42 23 68.5t-19 52.5q-17 28 -33.5 32.5t-36.5 -29.5l-40 -70t-90 -156q-35 -62 -69.5 -120t-67.5 -115q-40 -69 -75 -126.5t-64 -105.5l184 599q19 66 -9 90q-14 14 -38.5 18.5t-41.5 -10.5q-4 -5 -8 -14.5t-9 -23.5q-26 -76 -49 -146t-43 -134 q-23 -72 -42.5 -137t-37 -125.5t-33.5 -118.5t-31 -115q-9 -36 -8.5 -71t13.5 -55q7 -10 15 -18l16 -16q7 -6 15 -12.5t19 -13.5q18 -12 33.5 -4.5t36.5 40.5q37 58 78 124.5t87 144.5q49 82 95 160.5t90 153.5q48 84 82.5 146.5t57.5 106.5z" unicode="v" glyph-name="v" horiz-adv-x="466"/>
<glyph d="M238 330q17 46 36.5 94.5t41.5 101.5q19 45 37.5 89.5t37.5 92.5q13 29 25 59t25 60q16 36 20 60q8 34 -1 49t-24 25q-10 7 -32 17q-16 6 -26 -3t-24 -40q-51 -122 -111 -279q-30 -78 -59 -155t-57 -154q-7 -19 -15.5 -43t-18.5 -53q-8 -22 -15.5 -44t-15.5 -44 q-1 -2 -7 -21.5t-18 -54.5q-9 -26 -12 -47.5t12 -34.5l14 -10l14 -10q17 -10 34 -16q13 -6 24 -1q6 4 13.5 11.5t15.5 20.5l47.5 77.5t68.5 109.5q38 61 74 117t70 109q-17 -47 -39 -117q-10 -31 -19 -60t-17 -55q-7 -23 -13 -45t-13 -45q-9 -30 -8.5 -52t13.5 -34 q14 -8 28.5 -17t28.5 -17q19 -8 33 -0.5t30 32.5q42 72 79 137t72 125q45 78 89.5 154t89.5 151q51 86 89.5 149.5t64.5 105.5q18 29 25.5 55t1.5 47q-14 32 -34 54q-15 13 -24.5 9.5t-28.5 -33.5q-20 -33 -43 -70.5t-49 -79.5q-31 -51 -64.5 -107t-70.5 -119 q-37 -62 -72.5 -121.5t-70.5 -118.5q11 28 29 73.5t44 111.5q20 51 36 91t27 70q16 39 25 63t13 33q13 35 14 48.5t-11 25.5q-16 15 -25.5 21.5t-18.5 10.5q-14 7 -25 0.5t-26 -28.5q-11 -16 -32 -48t-52 -80q-21 -33 -51.5 -82t-71.5 -115q-32 -51 -63.5 -102.5 t-63.5 -103.5z" unicode="w" glyph-name="w" horiz-adv-x="641"/>
<glyph d="M458 708q8 55 14.5 103.5t11.5 91.5q3 31 -2 48t-23 21q-18 3 -36 3q-22 0 -26 -0.5t-7 -0.5q-19 -5 -27.5 -16.5t-13.5 -43.5q-5 -37 -11 -80t-13 -93q-8 -55 -14.5 -110t-13.5 -111q-31 -38 -58 -72t-51 -66q-26 -33 -50.5 -65t-47.5 -63q-20 -26 -39.5 -52.5 t-39.5 -54.5q-20 -29 -27 -49q-8 -21 -2 -59q6 -39 18 -61q13 -36 44 6q10 11 25.5 32t38.5 50l38 48t38 49q27 35 47.5 61.5t34.5 43.5q-6 -50 -10 -85.5t-6 -58.5q-6 -65 -6 -89t5 -39q5 -14 21 -17q36 -6 70 0q32 8 33 53q10 85 24 195t29 225l281 346q20 24 30 48t9 63 q-1 20 -5 39.5t-12 39.5q-8 14 -20 14t-32 -22q-14 -16 -28.5 -34.5t-31.5 -38.5q-21 -26 -39.5 -49t-34.5 -43q-6 -8 -27 -34.5t-58 -72.5z" unicode="x" glyph-name="x" horiz-adv-x="472"/>
<glyph d="M708 837q21 33 26.5 51t1.5 40q-8 30 -16 45q-12 26 -26.5 29.5t-31.5 -26.5q-28 -42 -49.5 -73t-35.5 -53q-56 -80 -87 -126q-18 -26 -40.5 -57.5t-48.5 -68.5q20 97 34.5 176.5t24.5 143.5q4 35 1 49t-15 20q-11 6 -25.5 6.5t-43.5 -4.5q-17 -4 -24 -13.5t-12 -36.5 l-109 -565q-13 -26 -25 -52t-23 -52q-22 -49 -41 -94q-13 -28 -22 -47.5l-15 -32.5q-14 -33 -16 -50.5t6 -36.5q4 -5 10 -10.5t14 -12.5q5 -4 11.5 -9t14.5 -11q14 -8 22 -2.5t21 32.5q8 17 19 41t25 54q14 31 26 55.5t21 43.5q12 25 25 51l27 54q43 60 80 111t68 94 q35 49 68.5 97.5t66.5 96.5t56 84t37 59z" unicode="y" glyph-name="y" horiz-adv-x="434"/>
<glyph d="M482 781q-84 -104 -177 -225q-39 -51 -81.5 -107.5t-88.5 -119.5q-42 -57 -73.5 -101.5t-53.5 -76.5q-19 -27 -21.5 -47t0.5 -48q5 -21 10 -39.5t10 -33.5q6 -15 17.5 -20t40.5 7q40 16 100 35q25 8 50 15.5t51 15.5q19 5 27.5 15.5t12.5 35.5q5 21 7.5 44.5t3.5 56.5 q1 32 -34 25q-17 -4 -32 -7t-26 -7q-15 -4 -28.5 -8t-25.5 -9q63 82 156 201q49 63 88.5 112.5t68.5 87.5q44 54 82 101t70 89q19 23 28 44.5t12 46.5q2 10 3.5 20t3.5 20q2 11 3.5 23t1.5 23t-1 20t-4 13q-5 10 -22 8q-37 -3 -73.5 -7.5t-71.5 -11.5q-42 -8 -77 -16.5 t-64 -18.5q-15 -7 -21 -15.5t-9 -31.5q-2 -11 -3 -25t-2 -31t-1 -29v-19q4 -42 42 -31q22 7 48.5 13t52.5 13z" unicode="z" glyph-name="z" horiz-adv-x="375"/>
<glyph d="M261 45q5 23 7.5 45t3.5 52q2 30 -31 24q-6 -1 -11 -1h-6q-12 -2 -18.5 -3t-8.5 -1q26 56 51 109t50 104q22 45 49.5 100.5t61.5 122.5q31 61 56.5 111.5t47.5 92.5l42 7t40 6q19 4 26.5 13.5t11.5 33.5q5 27 8 46.5t3 38.5q3 47 -33 44q-35 -2 -48 -3q-35 -5 -57 -9 q-17 -3 -30 -15q-5 -5 -11 -13t-12 -19l-177 -353q-20 -4 -40.5 -9t-32.5 -10q-26 -11 -33 -51q-2 -22 -3.5 -35t-2.5 -18q-2 -17 -2 -30q0 -12 1 -22q1 -16 3 -19q1 -9 12 -11l-106 -227q-17 -39 -21 -60.5t2 -41.5q1 -3 6 -24q3 -10 6 -17.5l5 -12.5q7 -17 17.5 -22.5 t32.5 2.5q26 8 52 15t52 15q17 0 25 10.5t12 34.5z" unicode="{" glyph-name="braceleft" horiz-adv-x="339"/>
<glyph d="M599 1006q-8 16 -21 29l-24 21q-13 10 -25 3.5t-28 -35.5q-23 -45 -59.5 -120.5t-87.5 -183.5t-97 -206t-88 -189q-47 -102 -80 -175t-53 -119q-14 -32 -16 -49.5t7 -32.5q9 -12 18.5 -20.5t22.5 -16.5t21 -1.5t21 32.5q23 52 59.5 129t87.5 181q38 78 84 173.5 t103 210.5l147 294q15 27 16.5 41.5t-8.5 33.5z" unicode="|" glyph-name="bar" horiz-adv-x="358"/>
<glyph d="M560 820q13 27 16.5 41.5t0.5 36.5q-2 16 -4 31.5t-6 31.5q-3 18 -10.5 24.5t-24.5 3.5q-37 -4 -69 -9.5t-54 -12.5q-16 -5 -26 -15q-8 -10 -12 -25t-6.5 -31.5t-3 -33t-1.5 -30.5q-1 -23 5.5 -30.5t25.5 -4.5q2 0 12 2t15.5 3t6.5 1q-32 -66 -58 -117.5t-46 -89.5 q-53 -107 -111 -225q-32 -65 -56.5 -117t-43.5 -92q-17 -4 -29.5 -7.5t-20.5 -5.5q-49 -15 -60 -35q-8 -14 -9 -50q-1 -19 -1.5 -34.5t0.5 -28.5q1 -15 6 -20.5t14.5 -5t24.5 4.5t37 9q19 4 31 6.5t19 4.5q20 0 33 13q11 11 21 31q8 17 19 40.5t26 54.5q11 23 23.5 49.5 t27.5 57.5q14 29 28 57.5t28 57.5q13 4 61 12t53 55l6 48t7 47q3 44 -26 44q7 14 18.5 36.5t28.5 54.5l22 42t22 43q8 15 17.5 34.5t22.5 42.5z" unicode="}" glyph-name="braceright" horiz-adv-x="377"/>
<glyph d="M568 664q37 0 119 68q81 69 99 119q9 26 -4 42q-11 13 -30 13t-48 -26q-19 -19 -28.5 -29t-10.5 -11q-30 -30 -36 -29q-20 3 -42 27q-30 33 -37 37q-16 13 -32.5 19.5t-42.5 6.5q-25 0 -97 -48q-70 -46 -99 -86q-9 -13 -15.5 -24.5t-10.5 -22.5q-19 -52 15 -52 q33 0 59 20q8 8 17 15t18 15q35 29 50 29q16 0 43 -15q27 -13 35 -32q17 -36 78 -36z" unicode="~" glyph-name="asciitilde" horiz-adv-x="495"/>
<glyph d="M101 -130q13 22 28.5 49.5t32.5 61.5q19 36 34.5 67.5t26.5 59.5q12 31 15 47.5t-3 31.5q-5 16 -13.5 27t-17.5 20q-12 11 -21.5 6.5t-21.5 -31.5q-18 -40 -39 -86t-46 -98q-24 -52 -44.5 -95t-37.5 -78q-23 -44 6 -43q15 0 27.5 2t22.5 7q13 7 24.5 18.5t26.5 33.5z" unicode="‚" glyph-name="quotesinglbase" horiz-adv-x="232"/>
<glyph d="M275 569q-50 -8 -49 -58q-1 -19 1.5 -40.5t9.5 -44.5q7 -22 19.5 -28t31.5 -3q19 4 32.5 7t27.5 5q-2 -5 -5.5 -12.5t-8.5 -18.5q-23 -53 -24 -55t-5.5 -12.5t-14.5 -30.5q-32 -65 -36 -72q-10 -20 -14.5 -30t-5.5 -12q-25 -45 -46 -78.5t-38 -58.5q-37 -52 -51 -52 q-19 4 19 122q34 95 -19 151q-14 19 -32 -1q-16 -16 -38 -61q-26 -57 -41 -101t-21 -84q-11 -66 -2 -106q11 -50 50 -71q38 -22 79 -11q34 10 70 40q25 22 49.5 49.5t49 63.5t50.5 81t55 102q25 50 58 119.5t75 160.5q35 3 67.5 6t62.5 4q32 2 42 10q11 9 13.5 32.5 t4.5 42.5q2 20 0 40q-1 40 -35 40h-28q-11 0 -18 -1h-31q19 40 36 78q16 37 18 42q26 46 46.5 81t37.5 58q38 55 53 53q16 -5 3 -48q-2 -9 -7.5 -27.5t-15.5 -46.5q-33 -95 20 -151q14 -17 32 2q14 14 37 61q27 59 41.5 101t20.5 83q12 66 3 107q-10 49 -51 70 q-39 22 -79 12q-31 -9 -69 -41q-64 -55 -128 -158q-63 -104 -147 -288q-46 -5 -84.5 -10t-70.5 -12z" unicode="ƒ" glyph-name="florin" horiz-adv-x="623"/>
<glyph d="M241 -140q34 41 88 136t66 133q4 19 0 40q-1 6 -3.5 12.5t-6.5 14.5l-6.5 13t-8 13t-9 9t-10.5 0q-10 -4 -23 -28q-23 -44 -60 -114q-10 -17 -27.5 -49t-43.5 -78q-50 -89 -57 -102q-30 -45 2 -47q21 -7 46 1q12 3 24 13.5t29 32.5zM102 -125q13 21 28.5 49t33.5 63 q19 35 34 66.5t27 59.5q12 31 15 47.5t-3 34.5q-10 25 -31 44q-12 11 -22 6.5t-21 -31.5q-17 -38 -38 -83.5t-47 -100.5q-25 -55 -45.5 -98t-36.5 -75q-23 -44 6 -43q30 0 50 9q13 7 24.5 19t25.5 33z" unicode="„" glyph-name="quotedblbase" horiz-adv-x="384"/>
<glyph d="M278 95q-23 -58 -14 -94.5t42 -33.5q27 0 59 33q25 25 42 57q9 16 16 38q12 32 9.5 61.5t-21.5 43.5q-29 19 -72 -16q-39 -34 -61 -89zM543 95q-12 -29 -15 -53t1 -41t15 -26.5t27 -7.5q26 0 59 33q27 30 41 57q5 9 9 18.5t8 19.5q12 32 9.5 61t-21.5 44q-29 19 -72 -16 q-39 -34 -61 -89zM15 95q-12 -29 -15.5 -53t0.5 -41.5t14.5 -26.5t26.5 -7q26 0 59 33q25 27 42 57q5 9 8.5 18.5t7.5 19.5q12 31 9.5 61t-21.5 44q-30 19 -71 -16q-36 -33 -60 -89z" unicode="…" glyph-name="ellipsis" horiz-adv-x="751"/>
<glyph d="M251 714q-50 -9 -50 -53q0 -41 11 -90q7 -22 20 -28.5t37 -1.5q9 1 16 2.5t24 5.5q-29 -63 -48.5 -105.5t-30.5 -65.5q-35 -74 -69 -153q-16 -36 -28.5 -65t-21.5 -52q-15 -35 -17 -53t8 -33q8 -14 22 -23q5 -4 11.5 -9t14.5 -10q14 -7 22 -1.5t19 29.5q14 29 34 71 t46 97q43 92 66 140.5t27 55.5q20 42 43.5 91t52.5 108q26 3 56.5 5t58 4.5t47.5 5t26 7.5q6 4 9 13t5 20t3 22.5t2 20.5q1 19 0 39q-2 41 -25 41h-23t-24 -1t-24 -1t-23 -1q12 23 20 40q7 13 15 27.5t16 30.5q14 28 15.5 42.5t-8.5 32.5q-9 19 -24 34.5t-31 23.5 q-15 9 -26 2.5t-26 -34.5q-8 -14 -30 -60q-9 -17 -18 -35t-17 -36q-10 -20 -19.5 -40t-19.5 -40q-42 -5 -76 -9.5t-68 -10.5z" unicode="†" glyph-name="dagger" horiz-adv-x="440"/>
<glyph d="M126 360q-51 -8 -50 -58q0 -18 3 -40.5t8 -44.5q7 -22 20 -28t37 -2q6 1 20 3.5t21 4.5q-5 -13 -9.5 -22t-6.5 -14q-9 -23 -21 -51q-15 -34 -17 -52.5t8 -33.5q7 -12 21 -23q6 -6 27 -19q14 -7 22 -1.5t20 29.5l98 209q48 4 91.5 7.5t68.5 4.5q26 2 36.5 10t13.5 31 q1 2 1.5 11t2.5 23q4 27 1 51q-1 40 -29 40h-27q-13 0 -27 -1h-26q-11 0 -22 -1q14 30 29 59.5t29 59.5q1 2 8 16.5t21 42.5q25 3 55 5t57.5 4.5t48 5t26.5 7.5q6 4 9 13t5 20t3 22.5t2 20.5q2 22 -1 39q0 41 -24 41h-23t-24 -1t-24 -1t-23 -1q7 13 13.5 26t13.5 26 q2 3 7.5 14.5t16.5 31.5q14 28 15.5 42.5t-8.5 32.5q-6 14 -16.5 27t-22 22t-23 12.5t-19.5 -1.5q-6 -3 -12.5 -12.5t-14 -22.5t-15 -28l-14.5 -29t-15.5 -32t-19.5 -41l-15 -30t-24 -50q-20 -2 -40 -5t-39 -5q-14 -2 -30 -4.5t-35 -5.5q-52 -9 -50 -59q0 -38 12 -84 q6 -22 19 -28.5t37 -1.5l40 8l-78 -168q-26 -3 -49.5 -6t-46.5 -7q-15 -2 -26.5 -4t-19.5 -4z" unicode="‡" glyph-name="daggerdbl" horiz-adv-x="489"/>
<glyph d="M722 1080q9 -1 14 4.5t8 20.5q7 39 15 76.5t20 92.5q7 28 12 51t10 41q6 19 6.5 27.5t-1.5 23.5q-2 7 -6 14l-11 22q-5 8 -12 7t-19 -14q-14 -14 -31.5 -33.5t-38.5 -42.5q-21 -25 -37.5 -45t-29.5 -36q-13 -15 -26 -31.5t-27 -35.5q-12 -17 -15 -31t-1.5 -25.5t4 -20.5 t2.5 -16q6 -21 22 1q17 20 32 37.5t29 34.5q20 23 37 42t31 36q-21 -104 -21 -108q-4 -17 -6 -29.5t-4 -20.5q-3 -28 11 -34q18 -8 33 -8z" unicode="ˆ" glyph-name="circumflex" horiz-adv-x="447"/>
<glyph d="M747 793q30 37 40.5 73t4.5 73q-1 19 -10 20t-23 -15q-51 -59 -107 -92q-50 -31 -78 -25q-34 3 -35 31q-2 31 -3 46q-2 18 -3 24q-11 31 -41 44q-10 5 -26.5 -0.5t-32.5 -18.5q-71 -62 -134 -183q-63 -120 -69 -203q0 -34 5.5 -53.5t21.5 -32.5q5 -4 10.5 -7.5t12.5 -5.5 q33 -10 77 29q43 39 85 115q19 33 34.5 69t29.5 74q20 -15 49 -10t61 28q-39 -48 -83 -103t-95 -118q-44 -56 -87 -111t-87 -112q-42 -54 -74 -97.5t-57 -76.5q-33 -48 -42 -84q-7 -27 1 -61q8 -14 13 -15t19 15q58 81 187 244q56 72 115.5 146.5t123.5 153.5 q63 77 111.5 136.5t85.5 102.5zM884 364q7 24 8 47t-5 40q-5 12 -16 24.5t-24 19.5q-27 9 -61 -19q-59 -50 -116 -147q-52 -90 -78 -178q-27 -92 -5 -126q6 -12 17 -20q10 -8 24 -12q34 -11 76.5 27t85.5 113q40 70 65 141q9 25 17 49.5t12 40.5zM630 365q6 24 7 47.5 t-5 39.5q-4 12 -15 24.5t-24 20.5q-25 9 -62 -20q-58 -49 -115 -147q-27 -46 -46.5 -90.5t-32.5 -87.5q-26 -91 -4 -126q5 -12 17 -20q5 -4 11 -6.5t13 -4.5q33 -12 76 27.5t85 111.5q39 68 66 142q10 26 17 48t12 41zM566 399q5 -6 -17 -67q-23 -62 -51 -114 q-38 -72 -65.5 -108t-36.5 -27t8 59q9 25 24.5 57t33.5 64q27 53 61 97q11 10 21.5 19.5t21.5 19.5zM467 875q6 -8 -3.5 -37.5t-38.5 -95.5q-7 -14 -12 -26t-10 -21q-17 -35 -33 -62.5t-30 -46.5q-26 -35 -36 -26.5t7 57.5q17 50 53 121q14 26 29.5 50t32.5 47l20 20t21 20z M820 398q7 -5 -16 -67q-11 -30 -24 -58.5t-28 -55.5q-36 -72 -64 -108t-37 -27q-10 7 8 58q9 25 24 57q8 17 16.5 33.5t16.5 30.5q14 26 29.5 50.5t32.5 47.5z" unicode="‰" glyph-name="perthousand" horiz-adv-x="825"/>
<glyph d="M44 253q-19 -12 -26 -36q-8 -22 1 -70q17 -95 52 -136q34 -40 87 -37q52 1 101 32q20 13 39 30.5t38 39.5q29 34 54 77q41 66 34 128q-2 20 -11.5 47t-25.5 61q-36 75 -45 115q-10 42 22 111q27 57 72 114q39 49 71 73q5 -2 10.5 -3t10.5 -2q-6 -20 -36 -81 q-17 -37 -28 -59.5t-15 -32.5q-41 -93 26 -148q10 -11 20.5 -5.5t25.5 29.5q14 25 31 57t36 71q20 39 35.5 72.5t26.5 62.5q6 17 10.5 30.5t6.5 21.5q13 53 1 94q-6 25 -26 51q-15 22 -38 40q-27 17 -60 7q-28 -7 -53 -29q-58 -43 -128 -127q-68 -81 -108 -157 q-48 -85 -61.5 -160.5t2.5 -129.5q9 -33 39 -97q30 -61 36 -83q11 -40 -8 -56q-29 -28 -62.5 -8.5t-63.5 82.5q-11 24 -37 26.5t-56 -15.5zM664 1460q-9 0 -13.5 -5t-8.5 -20q-14 -73 -15 -77q-6 -29 -11 -52t-9 -40q-5 -22 -10 -44.5t-12 -47.5q-5 -19 -5.5 -27.5 t1.5 -23.5q1 -4 5 -14q10 -20 12 -22q5 -9 11.5 -7.5t18.5 15.5q28 28 69 75q42 48 69 81q11 13 23.5 30t28.5 37q18 22 16.5 47.5t-5.5 40.5q-4 16 -10 16q-5 0 -13 -12q-10 -11 -19.5 -23t-19.5 -24q-11 -11 -44 -50q-17 -19 -28.5 -32t-18.5 -21q7 31 11.5 52.5t7.5 35.5 q10 48 12.5 73t-11.5 31q-7 5 -15 6.5t-17 1.5z" unicode="Š" glyph-name="Scaron" horiz-adv-x="401"/>
<glyph d="M471 585q17 8 22.5 18.5t2.5 30.5q-1 11 -2 19t-2 14q-2 10 -3.5 18.5t-3.5 15.5q-7 28 -35 16q-5 -2 -46 -23q-42 -22 -85 -49q-23 -14 -42.5 -27t-36.5 -25q-17 -11 -35 -39q-3 -5 -14 -28.5t-31 -66.5q-4 -5 -7 -14.5t-7 -22.5q-4 -11 2 -22q37 -35 51 -48 q22 -22 48 -51.5t43 -53.5q6 -10 12 -11t14 9t19.5 32.5t28.5 60.5q9 22 9 36q-3 16 -8 26q-14 19 -30 39q-7 8 -16.5 19t-22.5 24q26 17 48.5 30.5t40.5 24.5q23 14 44.5 25.5t41.5 22.5z" unicode="‹" glyph-name="guilsinglleft" horiz-adv-x="348"/>
<glyph d="M586 989q-22 7 -55.5 -6.5t-64.5 -41.5q-47 -45 -93 -104t-93 -134q-86 -140 -148 -295q-61 -153 -75 -266q-3 -33 2.5 -62.5t17.5 -49.5t36 -34q14 -8 34 -13.5t43 -4t48.5 12.5t51.5 36q2 -5 3.5 -9t3.5 -9q7 -16 19 -20.5t40 6.5q2 1 17.5 6t44.5 15l66 21q23 8 39 13 t26 8q20 7 26.5 16t11.5 36q4 23 7.5 46.5t4.5 46.5t-6.5 30.5t-26.5 4.5q-66 -7 -128 -26q18 32 36 69t37 74q16 5 37.5 12t48.5 15q22 7 43.5 13t43.5 12q20 7 27 16t12 37q6 28 8.5 49t3.5 41q1 21 -6 28.5t-37 5.5q-29 -2 -68 -9q4 7 13.5 25.5t26.5 50.5q9 17 18 35 t19 36q11 20 19.5 36.5t15.5 29.5q34 7 87 18q18 4 37.5 7t40.5 7q19 4 27 13.5t15 37.5q5 22 7 36l3 21q1 13 3 30q6 48 -42 43q-44 -3 -123 -23q-61 -16 -130 -42q-25 39 -75 53zM542 812q14 -9 -10 -88q-11 -39 -27.5 -82.5t-37.5 -91.5l-46 -99q-2 -4 -3 -7t-2 -5 q-71 -143 -132 -227q-64 -88 -85 -70q-21 16 20 137q38 112 100 228q32 60 64.5 113t66.5 101q74 104 92 91z" unicode="Œ" glyph-name="OE" horiz-adv-x="643"/>
<glyph d="M375 783q-1 -41 16 -58q7 -7 18 -11q4 -2 9 -3.5t12 -3.5q29 -6 33 40q5 34 13 78.5t18 101.5t18.5 103.5t16.5 83.5q5 23 -1.5 30t-24.5 1q-9 -5 -16.5 -9t-12.5 -8q-8 -5 -15 -9.5t-12 -9.5q-27 -28 -37 -71q-8 -33 -11.5 -50.5t-4.5 -19.5q-4 -25 -7.5 -50.5 t-6.5 -52.5q-2 -27 -3.5 -47.5t-1.5 -34.5z" unicode="‘" glyph-name="quoteleft" horiz-adv-x="262"/>
<glyph d="M434 785q13 22 28.5 49.5t32.5 61.5q19 36 34.5 67.5t26.5 59.5q12 31 15 47.5t-3 31.5q-5 16 -13.5 27t-17.5 20q-12 11 -21.5 6.5t-21.5 -31.5q-18 -40 -39 -86t-46 -98q-24 -52 -44.5 -95t-37.5 -78q-11 -22 -9.5 -32.5t22.5 -10.5q20 0 43 9q13 7 24.5 18.5 t26.5 33.5z" unicode="’" glyph-name="quoteright" horiz-adv-x="232"/>
<glyph d="M513 783q0 -35 8 -48.5t25 -20.5q4 -2 9 -3.5t12 -3.5q27 -6 34 40q4 28 8 55t9 53q5 27 11 61.5t14 76.5q13 73 24 121q6 42 -26 31q-11 -7 -18.5 -11t-11.5 -6q-8 -5 -15 -9.5t-12 -9.5q-19 -19 -26.5 -34.5t-12.5 -43.5q-13 -55 -24 -134q-5 -38 -7 -66.5t-1 -47.5z M372 794q2 -23 6.5 -34t14.5 -18q10 -5 20 -7t30 -4t22 31q2 16 4.5 46t6.5 75q3 31 6 64t7 70t7.5 66t5.5 49q7 49 -28 25q-8 -5 -14.5 -10t-13.5 -10q-15 -11 -27 -23q-21 -23 -30 -58q-4 -14 -7.5 -35t-5.5 -49q-5 -56 -6 -103q-1 -24 -0.5 -42.5t2.5 -32.5z" unicode="“" glyph-name="quotedblleft" horiz-adv-x="388"/>
<glyph d="M434 785q13 22 28.5 49.5t32.5 61.5q19 36 34.5 67.5t26.5 59.5q12 31 15 47.5t-3 31.5q-5 16 -13.5 27t-17.5 20q-12 11 -21.5 6.5t-21.5 -31.5q-18 -40 -39 -86t-46 -98q-24 -52 -44.5 -95t-37.5 -78q-11 -22 -9.5 -32.5t22.5 -10.5q22 0 43 9q13 7 24.5 18.5 t26.5 33.5zM572 770q35 44 88 137q54 94 66 132q3 10 3 21q-1 6 -1 10q0 5 -1 9q-3 15 -10 27q-1 2 -4.5 8t-10.5 17q-9 14 -20.5 9.5t-22.5 -27.5q-26 -51 -60 -114q-11 -20 -28 -51.5t-42 -75.5q-13 -23 -27 -48t-31 -54q-13 -22 -13 -34q0 -11 15 -13q24 -8 46 1 q13 3 24.5 13.5t28.5 32.5z" unicode="”" glyph-name="quotedblright" horiz-adv-x="384"/>
<glyph d="M200 487q-40 -103 -27 -167q15 -63 73 -57q45 0 104 59q44 45 73 99q8 17 15.5 33.5t13.5 32.5q21 57 16.5 108t-39.5 77q-53 34 -124 -28q-65 -57 -105 -157z" unicode="•" glyph-name="bullet" horiz-adv-x="324"/>
<glyph d="M212 533q-51 -7 -49 -59q-1 -36 11 -84q6 -22 19 -28.5t37 -1.5q38 8 81 15.5t91 12.5q78 9 173 15q24 1 35 9.5t13 30.5q1 2 1.5 11t2.5 23q4 27 1 51q-1 40 -66 40q-32 0 -74.5 -3t-96.5 -8q-109 -11 -179 -24z" unicode="–" glyph-name="endash" horiz-adv-x="555"/>
<glyph d="M212 533q-51 -7 -49 -59q-1 -36 11 -84q6 -22 19 -28.5t37 -1.5t74 10t127 10q59 4 132 7t161 6t136.5 4.5t56.5 2.5q18 1 29 10t13 31q3 25 5 44.5t0 39.5q-1 40 -60 40q-29 0 -81 -1.5t-130 -3.5q-153 -4 -298 -12q-143 -8 -183 -15z" unicode="—" glyph-name="emdash" horiz-adv-x="844"/>
<glyph d="M739 1108q31 0 84 48q29 23 46.5 44.5t23.5 39.5q6 17 -2 30q-7 9 -21 9t-34 -18l-14 -14t-14 -15q-11 -11 -18 -15.5t-13 -4t-11.5 5t-14.5 13.5q-10 11 -16.5 17.5l-8.5 8.5q-23 18 -47 18q-25 0 -75 -34q-52 -33 -72 -61q-12 -17 -18 -33q-13 -37 11 -37q26 0 42 13 q18 17 34.5 30t26.5 13q6 0 14 -3t16.5 -7.5t15.5 -10t10 -11.5q11 -26 55 -26z" unicode="˜" glyph-name="tilde" horiz-adv-x="495"/>
<glyph d="M610 757q-11 -34 -20.5 -67.5t-18.5 -66.5q-17 -60 -30 -120q-7 -24 -6 -34.5t7 -17.5q2 -2 3.5 -3t3.5 -2q7 -4 12 -7t9.5 -2.5t9.5 5.5t12 17q11 19 24.5 41.5t30.5 48.5q8 13 25.5 41t45.5 71q26 40 43.5 66.5t25.5 39.5q-20 -42 -40.5 -84t-40.5 -85t-34 -76t-24 -57 q-8 -20 -9.5 -32t4.5 -20q6 -5 12.5 -12t14 -10t14.5 1t14 21q11 25 28.5 61.5t40.5 87.5q34 70 90 186q28 58 47 97.5t29 59.5q10 21 11.5 32t-5.5 20q-6 5 -12 10.5t-13 10.5q-4 2 -10.5 6t-15.5 9q-17 11 -34 -6q-7 -7 -19.5 -25.5t-31.5 -47.5q-16 -23 -34.5 -51 t-38.5 -60t-38 -59.5t-32 -51.5q9 32 18 65l18 66l6 21t11 35q4 16 6 21q4 11 5.5 18.5t2.5 11.5q1 22 -12 33q-21 19 -47 26q-11 3 -19.5 -3t-19.5 -25q-16 -32 -34.5 -70t-40.5 -84q-17 -38 -39.5 -85t-48.5 -104q-24 -54 -41 -92t-27 -62q-8 -21 -9 -31.5t5 -19.5 q5 -6 12 -13t14 -10t13.5 0t12.5 18q31 72 73.5 162.5t90.5 186.5zM567 900q11 1 14.5 5.5t7.5 20.5q5 34 2 61q-1 8 -4.5 11.5t-14.5 3.5q-23 -2 -49.5 -5t-56.5 -8t-56 -10.5t-49 -12.5q-11 -3 -14 -16.5t-6 -45.5q-2 -32 3 -41.5t19 -4.5q5 2 18.5 5l22.5 5 q-22 -44 -46.5 -95t-52.5 -111t-49 -107t-36 -83q-13 -27 -9.5 -41t18.5 -25q21 -14 27 -12t13 17q16 35 34 73.5t40 83.5q14 30 34 71t45 93q11 22 30 60.5t47 95.5l38.5 7t29.5 5z" unicode="™" glyph-name="trademark" horiz-adv-x="629"/>
<glyph d="M44 253q-19 -12 -26 -36q-8 -22 1 -70q17 -95 52 -136q34 -40 87 -37q52 1 101 32q20 13 39 30.5t38 39.5q29 34 54 77q41 66 34 128q-2 20 -11.5 47t-25.5 61q-36 75 -45 115q-10 42 22 111q27 57 72 114q39 49 71 73q5 -2 10.5 -3t10.5 -2q-6 -20 -36 -81 q-17 -37 -28 -59.5t-15 -32.5q-41 -93 26 -148q10 -11 20.5 -5.5t25.5 29.5q14 25 31 57t36 71q20 39 35.5 72.5t26.5 62.5q6 17 10.5 30.5t6.5 21.5q13 53 1 94q-6 25 -26 51q-15 22 -38 40q-27 17 -60 7q-28 -7 -53 -29q-58 -43 -128 -127q-68 -81 -108 -157 q-48 -85 -61.5 -160.5t2.5 -129.5q9 -33 39 -97q30 -61 36 -83q11 -40 -8 -56q-29 -28 -62.5 -8.5t-63.5 82.5q-11 24 -37 26.5t-56 -15.5zM664 1460q-9 0 -13.5 -5t-8.5 -20q-14 -73 -15 -77q-6 -29 -11 -52t-9 -40q-5 -22 -10 -44.5t-12 -47.5q-5 -19 -5.5 -27.5 t1.5 -23.5q1 -4 5 -14q10 -20 12 -22q5 -9 11.5 -7.5t18.5 15.5q28 28 69 75q42 48 69 81q11 13 23.5 30t28.5 37q18 22 16.5 47.5t-5.5 40.5q-4 16 -10 16q-5 0 -13 -12q-10 -11 -19.5 -23t-19.5 -24q-11 -11 -44 -50q-17 -19 -28.5 -32t-18.5 -21q7 31 11.5 52.5t7.5 35.5 q10 48 12.5 73t-11.5 31q-7 5 -15 6.5t-17 1.5z" unicode="š" glyph-name="scaron" horiz-adv-x="401"/>
<glyph d="M486 516q14 27 14 38t-9 23q-18 23 -38.5 45t-43.5 44q-46 45 -77 68q-19 16 -37 -19q-10 -22 -20 -51t-15 -48q-3 -21 -3 -31q0 -9 14 -18q36 -30 71 -65q-52 -23 -102 -48t-84 -47q-15 -12 -20 -20q-9 -13 -7 -30l3.5 -24.5t3.5 -18.5q8 -37 15.5 -48.5t29.5 4.5 q48 30 97.5 55t110.5 52q18 9 27.5 19t23.5 32q11 17 22 39.5t24 48.5z" unicode="›" glyph-name="guilsinglright" horiz-adv-x="370"/>
<glyph d="M586 989q-22 7 -55.5 -6.5t-64.5 -41.5q-47 -45 -93 -104t-93 -134q-86 -140 -148 -295q-61 -153 -75 -266q-3 -33 2.5 -62.5t17.5 -49.5t36 -34q14 -8 34 -13.5t43 -4t48.5 12.5t51.5 36q2 -5 3.5 -9t3.5 -9q7 -16 19 -20.5t40 6.5q2 1 17.5 6t44.5 15l66 21q23 8 39 13 t26 8q20 7 26.5 16t11.5 36q4 23 7.5 46.5t4.5 46.5t-6.5 30.5t-26.5 4.5q-66 -7 -128 -26q18 32 36 69t37 74q16 5 37.5 12t48.5 15q22 7 43.5 13t43.5 12q20 7 27 16t12 37q6 28 8.5 49t3.5 41q1 21 -6 28.5t-37 5.5q-29 -2 -68 -9q4 7 13.5 25.5t26.5 50.5q9 17 18 35 t19 36q11 20 19.5 36.5t15.5 29.5q34 7 87 18q18 4 37.5 7t40.5 7q19 4 27 13.5t15 37.5q5 22 7 36l3 21q1 13 3 30q6 48 -42 43q-44 -3 -123 -23q-61 -16 -130 -42q-25 39 -75 53zM542 812q14 -9 -10 -88q-11 -39 -27.5 -82.5t-37.5 -91.5l-46 -99q-2 -4 -3 -7t-2 -5 q-71 -143 -132 -227q-64 -88 -85 -70q-21 16 20 137q38 112 100 228q32 60 64.5 113t66.5 101q74 104 92 91z" unicode="œ" glyph-name="oe" horiz-adv-x="643"/>
<glyph d="M708 837q21 33 26.5 51t1.5 40q-8 30 -16 45q-12 26 -26.5 29.5t-31.5 -26.5q-28 -42 -49.5 -73t-35.5 -53q-56 -80 -87 -126q-18 -26 -40.5 -57.5t-48.5 -68.5q20 97 34.5 176.5t24.5 143.5q4 35 1 49t-15 20q-11 6 -25.5 6.5t-43.5 -4.5q-17 -4 -24 -13.5t-12 -36.5 l-109 -565q-13 -26 -25 -52t-23 -52q-22 -49 -41 -94q-13 -28 -22 -47.5l-15 -32.5q-14 -33 -16 -50.5t6 -36.5q4 -5 10 -10.5t14 -12.5q5 -4 11.5 -9t14.5 -11q14 -8 22 -2.5t21 32.5q8 17 19 41t25 54q14 31 26 55.5t21 43.5q12 25 25 51l27 54q43 60 80 111t68 94 q35 49 68.5 97.5t66.5 96.5t56 84t37 59zM494 1176q-17 -43 -10.5 -69.5t30.5 -24.5q20 0 44 25q21 21 31 42q4 7 7.5 13.5t5.5 13.5q9 26 7 47.5t-17 32.5q-23 15 -53 -12q-28 -26 -45 -68zM669 1176q-18 -43 -11.5 -70t30.5 -26q20 0 44 25q9 10 17 20.5t15 22.5l6 14 l6 14q9 24 7 45.5t-17 32.5q-23 15 -53 -12q-28 -25 -44 -66z" unicode="Ÿ" glyph-name="Ydieresis" horiz-adv-x="434"/>
<glyph d="M-2 14q7 -17 24 -33q16 -14 29 -23q15 -11 26.5 -3.5t27.5 37.5q53 102 106 209t116 238q30 63 55 116t45 98q17 35 19 52t-8 31q-20 30 -48 40q-13 7 -22 1t-21 -32q-23 -47 -49 -98t-55 -108q-34 -66 -63 -121.5t-53 -101.5q-17 -32 -46.5 -86.5t-71.5 -132.5 q-15 -26 -17.5 -45t6.5 -38zM561 920q24 61 15.5 96.5t-40.5 33.5q-27 0 -60 -34q-13 -13 -23.5 -27.5t-18.5 -30.5q-21 -38 -26 -82q-4 -43 23 -60q30 -22 70 15q37 31 60 89z" unicode="¡" glyph-name="exclamdown" horiz-adv-x="267"/>
<glyph d="M392 335q-38 23 -85 -31q-66 -78 -82 -65q-16 10 13 93q27 78 73.5 166t103.5 170q61 86 73 79q6 -4 1 -26q-2 -7 -5.5 -18t-8.5 -28q-4 -9 -6 -16l-4 -14q-10 -42 -5 -65.5t29 -33.5q10 -4 16.5 -1t18.5 26q8 14 16.5 32t16.5 38q7 18 14 37.5t14 40.5q10 34 12 57 t-7 46l-8 11q4 7 8 15t9 19q9 18 15 30.5t10 20.5q21 45 23.5 79.5t-9.5 58.5q-6 10 -12 11.5t-15 -8t-21.5 -31.5t-32.5 -59l-48 -90q-15 0 -35 -10t-42 -31q-35 -33 -70 -79t-72 -106q-71 -114 -119 -230q-50 -123 -56 -198q-3 -22 0.5 -40.5t10.5 -31.5q-4 -10 -8.5 -20 t-7.5 -20q-22 -51 -28 -95t8 -65q8 -13 16 -9.5t19 26.5q13 29 29.5 64t36.5 76h2q21 -2 48 8.5t48 29.5q21 20 44 48.5t43 60.5q39 61 16 78z" unicode="¢" glyph-name="cent" horiz-adv-x="372"/>
<glyph d="M259 576q21 4 36 6q-1 -1 -27 -58q-2 -5 -6.5 -13.5t-9.5 -21.5q-18 -3 -36 -6.5t-33.5 -7.5t-28 -9.5t-18.5 -13.5q-11 -14 -12 -36q-2 -22 -3.5 -44.5t0.5 -39t9.5 -24t24.5 -0.5l13 4q-18 -40 -34.5 -76.5t-30.5 -70.5q-14 -30 -17 -52.5t1 -42.5q2 -5 4.5 -14.5 t6.5 -23.5q4 -17 9 -29q7 -17 15 -21q12 -6 44 8q47 15 96 30.5t97 32.5q11 4 17.5 7.5t10.5 9t6 14t4 23.5q12 48 12 91q0 23 -7 30.5t-26 4.5q-33 -5 -62.5 -10.5t-57.5 -13.5l65 134q51 7 115 12q15 1 22 9t10 30q7 41 7 75q1 37 -24 37h-48l44 89q22 0 44 -0.5t44 -0.5 q25 -6 32 35q5 19 7 40.5t4 47.5q3 26 -18 28q-10 2 -18 3t-15 2l60 113q15 27 16.5 41t-7.5 32q-9 19 -24 34t-31 23q-15 9 -26.5 3t-27.5 -34q-18 -33 -33 -63q-5 -8 -14 -25.5t-23 -44.5t-23.5 -46t-14.5 -30q-28 -3 -57 -6t-48 -7q-13 -3 -24 -14q-12 -14 -15 -36 q-4 -17 -5 -40.5t-1 -44.5q0 -20 6.5 -26t23.5 -3z" unicode="£" glyph-name="sterling" horiz-adv-x="440"/>
<glyph d="M238 516l10.5 1.5t5.5 1.5q-11 -24 -22 -47.5t-22 -46.5q-10 -3 -24 -5.5t-28 -5.5t-26 -8t-17 -14q-11 -15 -12 -36q-2 -19 -2.5 -42.5t0.5 -41.5q1 -17 8.5 -22.5t24.5 -1.5q7 1 12 3q-23 -73 -28 -133q-4 -34 2.5 -61.5t20.5 -43.5q15 -13 24 -19.5t11 -8.5 q24 -16 50 -20.5t62 10.5q37 14 65 40t60 65q17 20 31.5 41t27.5 43q27 43 33 68q6 24 -13 36q-50 33 -114 -42q-91 -106 -111 -88q-12 8 -4.5 45.5t29.5 98.5q27 5 55 7.5t68 5.5q11 -2 18 4.5t10.5 17.5t5.5 26t4 31q1 10 1.5 21t0.5 24q0 27 -27 27q-17 1 -36 0t-31 -1 q2 5 5.5 12l8.5 17l10 17l3.5 7l7.5 15q3 5 6 11t7 12q24 1 53.5 0.5t51.5 -2.5q10 -4 16.5 1t11 16t6.5 25l4 28q2 8 3 20t2 28q3 31 -24 34l-29 4q45 67 75 102q34 40 45 33q7 -7 1 -35q-5 -22 -21 -62q-3 -9 -6 -19.5t-7 -22.5q-14 -57 -6.5 -87.5t40.5 -44.5q6 -3 11 -4 t10 2t11 11t15 23q10 20 21 44.5t22 51t20.5 53.5t17.5 51q15 48 17 79t-9 62q-7 14 -17 26t-23 23q-28 24 -57 28q-12 1 -24.5 -1t-25.5 -7q-30 -13 -67 -47q-23 -23 -48.5 -51.5t-51.5 -63.5q-25 -32 -49.5 -67.5t-47.5 -73.5q-17 -1 -49 -6l-28 -3.5t-20 -3.5 q-15 -5 -24 -14q-8 -9 -12 -23.5t-6 -31t-2.5 -33.5t-0.5 -31q0 -22 6.5 -28t23.5 -3z" unicode="¤" glyph-name="currency" horiz-adv-x="512"/>
<glyph d="M190 367l42 7q-11 -23 -21.5 -46.5t-21.5 -46.5q-22 -4 -47.5 -9.5t-50.5 -11.5q-14 -4 -24.5 -18t-12.5 -35q-2 -18 -2.5 -42.5t0.5 -41.5q1 -34 33 -24q9 3 14 4t12 2q-2 -2 -5 -9q-14 -33 -16 -50.5t6 -36.5q4 -5 10 -10.5t14 -12.5q5 -4 11.5 -9t14.5 -11 q14 -8 22 -2.5t21 32.5q5 11 13 28t19 40q8 17 16 35t16 35q55 7 114 12q15 1 22 9t10 30q3 20 5 39t1 36q1 36 -24 36h-48q6 8 12 17t12 17q19 25 29 39t12 17h12t21 -1h35q26 -6 33 35q3 19 6 46q1 10 2 18t2 13q2 24 -9 32q35 48 65.5 92t58.5 85q28 42 49 75t35 56 q21 33 26.5 51t1.5 40q-8 30 -16 45q-12 26 -26.5 29.5t-31.5 -26.5q-28 -42 -49.5 -73t-35.5 -53q-56 -80 -87 -126q-18 -26 -40.5 -57.5t-48.5 -68.5q20 97 34.5 176.5t24.5 143.5q4 35 1 49t-15 20q-11 6 -25.5 6.5t-43.5 -4.5q-17 -4 -24 -13.5t-11 -32.5 q-2 -11 -8 -42.5t-17 -83.5q-7 -35 -13.5 -69.5t-13.5 -66.5q-9 -48 -15.5 -83t-11.5 -59q-11 -1 -22 -2.5t-36 -6.5q-16 -5 -25 -14q-11 -14 -14 -35q-7 -43 -6.5 -74t6.5 -37q7 -6 24 -3z" unicode="¥" glyph-name="yen" horiz-adv-x="434"/>
<glyph d="M599 1006q-8 16 -21 29l-24 21q-13 10 -25 3.5t-28 -35.5q-19 -38 -37.5 -76t-37.5 -76q-11 -20 -21 -42.5t-21 -46.5t-25 -56t-31 -72q-11 -24 -14 -40t-0.5 -27t9 -19t14.5 -16q9 -7 17.5 -13.5t16 -7.5t15.5 6.5t16 28.5q34 64 57 107.5t36 68.5t37 72t59 116 q15 27 16.5 41.5t-8.5 33.5zM305 389q-9 17 -28 33q-5 4 -9 8t-9 8q-13 11 -25 4t-27 -35q-29 -57 -47.5 -94.5t-27.5 -57.5q-11 -24 -21.5 -46.5t-19.5 -43.5q-14 -32 -27.5 -63.5t-26.5 -63.5q-15 -33 -17 -50.5t8 -31.5q6 -9 17 -19.5t22 -18.5q14 -7 22 -0.5t21 31.5 q48 91 69 132q2 2 13 25t33 66q20 39 37.5 74l33.5 67q15 28 17 42.5t-8 33.5z" unicode="¦" glyph-name="brokenbar" horiz-adv-x="286"/>
<glyph d="M54 224q-9 -8 -16 -16.5t-11 -20.5t-4 -29t5 -41q15 -94 52 -137q34 -39 93 -36q60 3 118 49q23 17 44 41t41 53q9 -3 22.5 -4.5t31 1t39 9.5t45.5 22q20 13 39 30.5t38 39.5q14 17 28 36.5t27 41.5q41 65 33 127q-4 38 -38 109q-37 75 -44 115q-10 41 22 110 q25 55 72 114q41 51 72 73l10 -2l10 -2q-7 -22 -36 -82q-35 -72 -43 -92q-40 -94 26 -148q11 -11 21 -5.5t25 30.5q30 50 68 127q19 38 34.5 72t26.5 63q6 18 10 31t6 21q14 55 2 94q-6 26 -26 52q-17 22 -39 39q-25 17 -59 7q-26 -7 -53 -29q-28 -21 -61 -54t-65 -70 q-4 3 -7 7q-27 17 -60 7q-28 -7 -53 -29q-29 -22 -61 -54t-67 -74q-71 -84 -108 -156q-48 -85 -62 -160.5t3 -129.5q5 -17 14.5 -41t23.5 -55q28 -62 36 -84q12 -40 -7 -56q-28 -28 -62 -8.5t-64 82.5q-10 23 -36.5 26.5t-55.5 -14.5zM352 474q-16 67 17 159q30 87 73 117 q48 42 55 30q-22 -54 -39 -110q-7 -21 -10 -35.5t-4 -22.5q-7 -45 0.5 -85.5t25.5 -67.5q13 -28 25 -55l24 -54q19 -54 -1 -73q-21 -21 -47 -15t-50 37q-4 11 -9.5 25t-13.5 31q-11 22 -17.5 36t-8.5 21q-8 17 -13 32.5t-7 29.5z" unicode="§" glyph-name="section" horiz-adv-x="603"/>
<glyph d="M494 1176q-17 -43 -10.5 -69.5t30.5 -24.5q20 0 44 25q21 21 31 42q4 7 7.5 13.5t5.5 13.5q9 26 7 47.5t-17 32.5q-23 15 -53 -12q-28 -26 -45 -68zM669 1176q-18 -43 -11.5 -70t30.5 -26q20 0 44 25q9 10 17 20.5t15 22.5l6 14l6 14q9 24 7 45.5t-17 32.5 q-23 15 -53 -12q-28 -25 -44 -66z" unicode="¨" glyph-name="dieresis" horiz-adv-x="420"/>
<glyph d="M1096 875q-4 112 -76 196q-68 78 -169 78t-286 -167q-91 -81 -169 -177t-145 -208q-144 -242 -159 -435q-12 -108 37 -162q74 -82 224 -65q148 16 307 124q168 114 281 297q80 130 127 279q48 155 28 240zM898 450q-23 -32 -43.5 -60t-40.5 -52q-47 -59 -92 -104 q-49 -50 -95 -81q-78 -53 -130 -76q-63 -28 -120 -24.5t-122 42.5q-112 67 3 316q104 224 300 425q203 209 301 178q63 -19 96 -115q35 -95 21 -221q-14 -125 -78 -228zM637 360q-35 24 -83 -30q-67 -79 -82 -65q-15 11 13 92q26 75 74 167q22 42 47 83t54 83q60 85 72 78 q6 -6 2.5 -22t-15.5 -49q-1 -2 -2 -5t-2 -7q-5 -12 -6 -18q-10 -42 -4.5 -64.5t29.5 -33.5q12 -5 20 3q4 4 15 21q16 31 31.5 69.5t28.5 78.5q14 47 10.5 79t-35.5 58q-29 24 -59 19.5t-68 -39.5q-68 -65 -141 -183q-69 -111 -117 -228q-50 -122 -56 -196q-3 -24 2.5 -45 t14.5 -32q10 -8 16 -13.5t10 -7.5q17 -11 35 -14q20 -4 46.5 6.5t47.5 28.5q11 11 21.5 22.5t21.5 25.5q19 24 34.5 47t24.5 42t10 31.5t-10 17.5z" unicode="©" glyph-name="copyright" horiz-adv-x="833"/>
<glyph d="M446 677q2 5 12.5 24.5t28.5 54.5l18 36t19 36q8 15 15.5 30l15.5 31q9 16 10 25.5t-3 21.5q-5 7 -11.5 15.5t-13.5 17t-14 15t-11 9.5q-8 7 -14.5 5t-19.5 -15q-26 -26 -59 -62.5t-73 -83.5q-82 -95 -128 -161q-12 -17 -17 -30t-5 -29t3 -33t6 -31t9 -15.5t19 1.5 q17 4 36.5 8t38.5 8q-37 -73 -51 -110q-10 -22 -11.5 -32t3.5 -23q6 -7 13 -15t14 -12t14 -0.5t13 19.5q7 16 17 37.5t24 48.5q13 26 25 51t24 49q6 0 19 1.5t21 2.5q16 1 21 27q3 22 4.5 32t3.5 20q2 26 -16 26zM284 660q18 22 32 38.5t25 28.5q31 37 60 69 q17 19 31.5 34.5t27.5 28.5q-6 -11 -15 -28t-20 -40q-2 -4 -17 -33.5t-43 -85.5q-4 -1 -13 -2t-23 -3q-31 -3 -45 -7z" unicode="ª" glyph-name="ordfeminine" horiz-adv-x="274"/>
<glyph d="M458 456q-12 -26 -12 -39q3 -14 9 -22q34 -44 81 -90q23 -22 42 -39t35 -28q20 -17 37 19q11 22 21 50.5t15 48.5q3 26 1.5 34t-13.5 16q-8 7 -17 15l-18 16q-10 9 -18.5 17.5l-16.5 16.5q52 22 100 46.5t86 47.5q7 5 11.5 10t8.5 10q7 13 6 30q-3 22 -7.5 45t-9.5 34 q-6 15 -13 16.5t-22 -8.5q-26 -16 -50 -29.5t-49 -26.5t-51.5 -25.5t-57.5 -25.5q-17 -8 -27 -18t-23 -32q-10 -17 -22 -39t-26 -50zM170 484q-14 -28 -14 -40q5 -16 10 -22q18 -23 38.5 -46t41.5 -43.5t41 -38t37 -29.5q20 -15 37 20q12 24 21 49.5t14 48.5q4 25 2.5 33.5 t-13.5 16.5q-10 8 -18.5 15.5t-16.5 14.5q-9 8 -18 16.5t-17 18.5q26 11 51 23t49 24q50 26 85 48q14 9 21.5 20.5t5.5 28.5q-3 25 -7.5 46t-9.5 33q-6 16 -13 17.5t-22 -9.5q-48 -29 -97.5 -54.5t-109.5 -51.5q-18 -9 -28.5 -19.5t-22.5 -31.5q-21 -35 -47 -88z" unicode="«" glyph-name="guillemotleft" horiz-adv-x="624"/>
<glyph d="M941 225q39 23 61 41q32 25 51 49q21 27 26 58q4 27 0.5 47.5t-13.5 39.5q-19 37 -106 26q-75 -7 -147 -44q-10 -23 -23.5 -52.5t-30.5 -66.5q-5 -9 -20 -40.5t-41 -86.5q-19 -38 -32 -66t-21 -47q-14 -26 -11 -39q0 -1 6 -19q8 -17 15 -26t20 -16q10 -12 20 -13t33 7 q23 7 44.5 15.5t42.5 18.5q54 26 85 53q25 19 38 38q17 23 21 47q6 22 1 43t-19 33zM540 101q-1 -4 -5 -18t-11 -40q-2 -10 -4 -17.5t-4 -12.5q-4 -18 -1.5 -25t11.5 -11q7 -4 19 -6.5t23 -1.5t19.5 5.5t9.5 15.5q14 47 26 85t22 67q10 30 22.5 68t29.5 86q14 42 26 72.5 t20 51.5q6 17 4.5 25.5t-13.5 13.5q-16 6 -25 9t-11 4q-22 6 -46 7.5t-39 -6.5q-12 -7 -25 -22q-32 -38 -71.5 -88t-85.5 -112q-44 -58 -80.5 -109.5t-67.5 -97.5q-6 -10 -9.5 -16.5t-4.5 -12t1 -11t7 -13.5q7 -6 12.5 -9.5t10.5 -7.5q7 -3 12 -3t10.5 5t12 14.5t18.5 25.5 q12 17 22.5 31.5t20.5 25.5q14 5 31.5 8.5l37.5 7.5q31 6 75 12zM1000 933q7 14 7 21t-8 16q-19 20 -42 28q-13 5 -20 2.5t-16 -19.5q-18 -30 -36 -63q-2 -2 -39 -73q-17 -31 -27.5 -50t-14.5 -27q-2 0 -11 -1t-26 -3q-16 -2 -25.5 -2.5t-13.5 -1.5q8 14 16.5 29.5 t18.5 32.5q8 14 15 28t15 28l27 45q11 21 5.5 31t-27.5 25q-4 2 -9.5 5t-13.5 7q-13 5 -20.5 2t-15.5 -19q-9 -18 -26 -51.5t-42 -83.5q-23 -48 -42.5 -85t-33.5 -66q-22 -42 -39.5 -75t-31.5 -57q-9 -16 -8.5 -25.5t8.5 -17.5t19 -12q8 -2 13 -4t8 -4q17 -7 28 13l12 22 l12 22q25 49 26 51q8 17 15.5 30.5t13.5 24.5q20 4 41 7.5t42 7.5q-19 -37 -31.5 -64t-23.5 -53q-13 -20 -7 -34q4 -9 25 -20q21 -7 23 -9q19 -4 26 15q15 29 34.5 66.5t44.5 82.5q39 72 83 151q17 31 35 63t37 64zM1045 959l-190 -375q-16 -31 -5 -51q3 -8 10.5 -19 t9.5 -15q6 -7 16 -9.5t30 3.5q34 7 69 15t66 16q14 4 19 9t5 17q2 15 2.5 24.5t-0.5 22.5q-1 11 -7.5 15t-32.5 1q-25 -3 -43 -5.5t-36 -6.5q5 8 10 17l10 18q8 16 13 25t7 11q31 8 61.5 14t61.5 12q15 4 19.5 8.5t4.5 17.5q1 12 1.5 24t0.5 22q-1 21 -27 16q-32 0 -57 -5 q16 26 32 53l32 54q11 2 22.5 4t24.5 4q37 5 55.5 7t26.5 4.5t10 7t5 14.5q3 11 3.5 20.5t-0.5 27.5q0 19 -24 19q-23 -1 -50 -4.5t-57 -9.5q-26 -5 -50.5 -10.5t-47.5 -12.5zM675 914q13 2 16.5 5.5t6.5 16.5q1 14 0 27.5t-5 24.5q-3 7 -8 10t-18 3q-25 -2 -57 -5t-72 -8 q-78 -9 -127 -18q-4 -1 -6.5 -2t-4.5 -2q-6 -5 -6 -18q1 -18 2 -32.5t5 -23.5q6 -17 18 -14.5t33 6.5q10 2 16 3t10 2q-23 -42 -46 -84.5t-46 -88.5q-26 -52 -45.5 -92t-32.5 -68q-9 -17 -7 -30t26 -26q21 -8 24 -9q19 -6 26 13q11 23 29 55.5t41 76.5q40 76 75 138 q19 34 37.5 66.5t35.5 64.5q22 3 47.5 5.5t32.5 3.5zM237 8q16 4 19 8t6 18q1 11 1.5 22.5t-1.5 22.5q-3 9 -6 13.5t-11 5.5t-23 -1t-42 -6q-8 -2 -17 -3t-17 -2q15 26 31.5 54.5t33.5 59.5q19 33 35 61.5t30 51.5q34 58 60 99q7 13 7 21q-3 8 -8 15q-9 9 -22 17t-25 11 q-11 4 -19 1t-17 -17q-47 -74 -114 -201q-33 -61 -58 -109.5t-42 -85.5q-13 -30 -3 -48q5 -10 10.5 -19t9.5 -15q7 -8 15 -11t30 4q14 4 50 12q10 3 87 21zM398 294q9 9 20.5 21.5t23.5 27t24 30t21 29.5l7 14t2 6q4 10 1 21q-3 6 -8.5 14.5t-9.5 13.5q-16 15 -33 -7 q-11 -16 -26.5 -36.5t-35.5 -46.5l-60 -78q-15 -20 4 -26q7 -1 16 -2t16 1q8 0 17.5 5t20.5 13zM835 266q16 27 30.5 54t30.5 50q42 20 70 22t27 -12q-1 -19 -47 -54q-50 -38 -111 -60zM480 186q25 32 38.5 49.5t16.5 21.5q7 9 19.5 25t31.5 39q30 37 45 57 q-5 -13 -10 -27.5t-10 -30.5q-10 -29 -15 -44t-6 -17q-4 -11 -9 -26.5t-10 -34.5q-44 -4 -91 -12zM780 169q42 16 65.5 12.5t22.5 -17.5q-3 -11 -14.5 -23.5t-30 -25t-43 -23.5t-52.5 -19q15 27 27 49.5t25 46.5z" unicode="¬" glyph-name="logicalnot" horiz-adv-x="949"/>
<glyph d="M1096 875q-4 112 -76 196q-68 78 -169 78t-286 -167q-91 -81 -169 -177t-145 -208q-144 -242 -159 -435q-12 -108 37 -162q74 -82 224 -65q148 16 307 124q168 114 281 297q80 130 127 279q48 155 28 240zM898 450q-23 -32 -43.5 -60t-40.5 -52q-47 -59 -92 -104 q-49 -50 -95 -81q-78 -53 -130 -76q-63 -28 -120 -24.5t-122 42.5q-112 67 3 316q104 224 300 425q203 209 301 178q63 -19 96 -115q35 -95 21 -221q-14 -125 -78 -228zM522 415q1 -26 5 -54t11 -59q11 -52 24 -85q9 -19 20.5 -22.5t25.5 3.5q7 2 11 3t6 2q7 4 14.5 11 t13.5 14.5t8.5 16.5t-1.5 18q-11 34 -21 94q-4 23 -7 48t-7 54q71 44 119 90q54 50 88 105q22 34 32 86q9 45 8.5 77.5t-7.5 62.5q-10 39 -42.5 41t-83.5 -21q-33 -15 -93 -51q-18 -13 -79 -138q-45 -92 -114 -246l-84 -189q-11 -25 -13 -39.5t3 -24.5q5 -8 14 -14t18 -11 q9 -4 15 0t14 20q1 1 34 68q16 35 33 69.5t35 70.5zM693 749q24 14 40 20t35 6q20 0 17 -22q-4 -31 -58 -89q-63 -66 -131 -101q4 7 12.5 24t22.5 44q2 3 33 62q10 19 17 33t12 23z" unicode="®" glyph-name="registered" horiz-adv-x="833"/>
<glyph d="M514 1266q-35 -11 -36 -49q-2 -39 3 -44t6 -20q6 -50 35 -36q26 10 55 18.5t62 15.5q49 10 116 18q17 1 24 10.5t11 37.5q1 7 1 12v7l1 24q-3 48 -45 48q-20 0 -48.5 -3t-64.5 -10q-35 -6 -65 -13.5t-55 -15.5z" unicode="¯" glyph-name="macron" horiz-adv-x="395"/>
<glyph d="M514 1266q-35 -11 -36 -49q-2 -39 3 -44t6 -20q6 -50 35 -36q26 10 55 18.5t62 15.5q49 10 116 18q17 1 24 10.5t11 37.5q1 7 1 12v7l1 24q-3 48 -45 48q-20 0 -48.5 -3t-64.5 -10q-35 -6 -65 -13.5t-55 -15.5z" unicode="ˉ" glyph-name="macron" horiz-adv-x="395"/>
<glyph d="M533 975q-20 18 -51.5 21.5t-64.5 -13.5q-66 -43 -113 -121q-47 -77 -42 -130q0 -12 7 -22q5 -9 12 -13q9 -8 21.5 -11.5t28.5 -4.5q37 -6 73 18q54 42 94 111q37 63 46 118q2 16 0 27t-11 20zM470 942q11 -5 -2 -42q-14 -38 -36 -75q-26 -45 -53 -72t-40 -21 q-14 5 -1 42q11 34 35.5 72t53.5 68q32 32 43 28z" unicode="°" glyph-name="degree" horiz-adv-x="249"/>
<glyph d="M581 564q14 0 21 8.5t10 28.5q2 11 2.5 18.5t1.5 12.5q3 30 3 59q0 28 -26 30q-30 3 -79 0l27 51q22 39 35.5 64.5t4.5 48.5q-3 17 -12.5 34t-21.5 29q-9 7 -21 -2t-23 -28q-8 -14 -16.5 -29t-16.5 -30q-3 -5 -12 -23t-25 -47q-14 -29 -24.5 -48.5t-15.5 -30.5 q-36 -3 -78 -11.5t-70 -16.5q-13 -4 -25 -14q-8 -8 -12 -24t-5.5 -35t-1 -38.5t2.5 -33.5q4 -19 10.5 -23.5t22.5 -0.5q16 5 36.5 10t34.5 7q-7 -14 -12.5 -27t-10.5 -24q-8 -17 -15 -34t-15 -34q-17 -44 -3 -65l8 -12t9 -12q4 -5 7.5 -10t7.5 -10q11 -11 17.5 -7t18.5 29 q13 26 25 53t25 53q16 34 30 64.5t28 56.5q35 6 75 8.5t78 4.5zM413 107q14 0 21 8.5t10 31.5q3 24 5 42t2 46q0 30 -56 28q-55 0 -98 -6q-22 -2 -44.5 -6.5t-47.5 -10.5q-32 -9 -64.5 -18t-64.5 -17q-13 -3 -24 -14q-13 -12 -15.5 -33.5t-3.5 -51.5q0 -30 3 -48 q4 -17 10.5 -21.5t22.5 -0.5q58 16 129 42q46 16 77 21q20 3 54.5 5t83.5 3z" unicode="±" glyph-name="plusminus" horiz-adv-x="488"/>
<glyph d="M250 494q57 52 115 118q61 69 97.5 123t51.5 89q20 48 20 89q-1 35 -19 59q-20 28 -57 17q-34 -10 -72 -43.5t-76 -87.5q-21 -31 -25.5 -46t3.5 -22q15 -11 34.5 -9t40.5 20q19 20 33 34t25 22q8 3 15.5 6t15.5 5q6 -11 -48 -81q-50 -66 -126 -150q-81 -90 -144 -147 q-17 -14 -20.5 -44.5t11.5 -72.5q1 -11 7.5 -13.5t25.5 3.5q29 11 76 21q25 5 44.5 8.5t34.5 5.5q11 3 15.5 8t5.5 19q2 15 3.5 28.5t0.5 26.5q-1 25 -19 24q-20 -1 -38.5 -4t-30.5 -6z" unicode="²" glyph-name="twosuperior" horiz-adv-x="237"/>
<glyph d="M378 685q12 8 23 15.5t21 15.5q21 15 37 33q16 16 28 36t22 44q21 55 15 108q-8 46 -31 56q-16 7 -43.5 -2t-62.5 -37q-28 -23 -55 -54q-10 -12 -12.5 -21.5t0.5 -20.5q6 -20 27.5 -24t42.5 14q13 9 20 14t9 7q17 11 23 11q7 0 8 -8q3 -20 -41 -59q-50 -44 -132 -84 q-19 -8 -20 -39q-1 -33 10 -50.5t31 -12.5q11 1 19 1t12 -4.5t3.5 -16t-6.5 -32.5q-13 -29 -36 -59q-28 -31 -51 -33.5t-44 28.5q-9 11 -23.5 12t-31.5 -11q-11 -9 -15 -23t3 -38q11 -43 33 -62q19 -17 50 -17q32 0 64 19q27 15 55 46.5t48 69t28 77t-4 71.5q-3 11 -9 18 t-15 12z" unicode="³" glyph-name="threesuperior" horiz-adv-x="242"/>
<glyph d="M815 1264q8 30 9.5 46.5t-6.5 24.5q-14 17 -26.5 18t-27.5 -11q-32 -29 -76 -61q-17 -13 -37.5 -26.5t-43.5 -28.5q-19 -12 -39 -24.5t-41 -25.5q-23 -18 -25 -41l3 -18q12 -17 24 -22t26 3q64 31 141 81q34 22 63.5 43.5t55.5 41.5z" unicode="´" glyph-name="acute" horiz-adv-x="395"/>
<glyph d="M201 -21q29 -4 55 4.5t58 30.5q58 46 133 168q35 57 74.5 128.5t82.5 159.5q35 71 79.5 166.5t99.5 216.5q14 29 15.5 42.5t-8.5 31.5q-22 32 -37 45q-42 37 -67 -23q-47 -103 -85.5 -185.5t-69.5 -146.5q-54 -111 -97 -195t-78 -144q-87 -152 -114 -135q-16 12 11 92 q24 71 79 185q12 26 29 60t40 79q14 26 32.5 62.5t43.5 84.5q22 41 35.5 66.5t18.5 36.5q33 62 17 104q-10 22 -19 32q-13 16 -25 23q-14 11 -25.5 5t-27.5 -34q-43 -78 -90 -168.5t-100 -196.5q-51 -100 -100 -203t-98 -209t-91 -200.5t-77 -178.5q-15 -34 -17 -52.5 t7 -33.5q10 -13 22 -24q5 -4 11.5 -8.5t14.5 -9.5q15 -8 22.5 -2t19.5 30q23 48 46 98l53 112q43 91 57 120q25 -28 70 -34z" unicode="µ" glyph-name="mu" horiz-adv-x="508"/>
<glyph d="M153 199q-33 -80 -39 -93q-20 -45 -39.5 -88t-42.5 -91q-8 -22 -5 -27.5t23 0.5q52 22 57 24q16 8 29 17t24 20q24 24 43 68q4 12 87 174q130 258 155 307q48 95 74 146t30 59q17 9 21.5 -3.5t-2.5 -39.5q-17 -41 -107 -220q-11 -23 -51.5 -104.5t-112.5 -223.5 q-46 -92 -73 -146.5t-36 -71.5q-7 -22 -4 -27.5t23 0.5q52 22 57 24q32 17 51 37q26 26 43 70q18 43 117 246q66 137 106.5 221t55.5 116q81 170 76 180q-26 49 -60 81q-43 40 -95.5 42t-112.5 -50q-14 -13 -28.5 -26t-28.5 -27q-16 -16 -30.5 -31.5t-28.5 -31.5 q-17 -19 -32.5 -39t-29.5 -40q-45 -60 -63 -119q-15 -45 -16.5 -87.5t2.5 -71.5q2 -14 6.5 -28.5t9.5 -28.5q-5 -8 -11 -19.5t-13 -27.5q-8 -20 -15.5 -38t-13.5 -32z" unicode="¶" glyph-name="paragraph" horiz-adv-x="472"/>
<glyph d="M240 554q-24 -60 -16 -95.5t41 -32.5q27 0 59 33q25 25 42 57q4 8 8 17.5t9 20.5q11 32 8.5 61.5t-21.5 43.5q-30 19 -71 -16q-36 -33 -59 -89z" unicode="·" glyph-name="periodcentered" horiz-adv-x="221"/>
<glyph d="M-29 -234q15 18 33.5 43t40.5 57q45 65 73 116q4 8 6.5 13.5t4.5 7.5q5 11 8 18t4.5 13t2 13t-0.5 19q-6 34 -21 56q-16 34 -42 -13l-27.5 -45t-38.5 -62q-2 -4 -21.5 -33t-54.5 -86l-63 -99q-26 -41 -1 -51q16 -4 25 -4.5t19 1.5q23 2 53 36z" unicode="¸" glyph-name="cedilla" horiz-adv-x="201"/>
<glyph d="M458 893q10 16 10.5 24.5t-5.5 21.5q-6 11 -18 24.5t-20 17.5q-8 5 -14.5 2t-18.5 -17l-30 -39q-9 -13 -16.5 -23.5t-12.5 -20.5q-13 -18 -13 -26q0 -7 11 -22q-22 -45 -46.5 -95t-50.5 -108q-25 -54 -43 -96t-30 -73q-10 -23 -12 -34t2 -20q6 -8 19 -18t21 -14 q12 -10 23 16q16 34 35 74t42 88q26 55 48 101t41 84q46 91 78 153z" unicode="¹" glyph-name="onesuperior" horiz-adv-x="151"/>
<glyph d="M406 408l20 80t20 82q4 14 13.5 52t26.5 102q10 40 17 67.5t12 44.5q11 40 10.5 60t-14.5 32q-13 17 -31 30q-5 4 -13.5 9t-20.5 13q-14 9 -27.5 0.5t-29.5 -38.5q-25 -49 -59 -118.5t-78 -162.5q-37 -78 -74 -157.5t-75 -163.5q-36 -80 -61.5 -136t-39.5 -90 q-15 -34 -17.5 -52.5t6.5 -32.5q4 -13 15 -22q4 -5 33 -21q13 -9 21.5 -4t19.5 28l249 529q-16 -68 -29 -127.5t-24 -113.5q-12 -60 -21 -109t-14 -89q-9 -57 13 -78t50 -34q31 -15 52 34q31 66 62.5 134t65.5 140q100 216 141 300q35 72 66 135.5t59 119.5q15 31 18 48.5 t-7 35.5q-12 22 -22 30q-8 8 -25 15q-15 9 -27.5 1t-25.5 -36q-18 -35 -37.5 -75t-41.5 -85q-25 -51 -46.5 -95.5t-40.5 -86.5q-23 -49 -45 -97.5t-44 -97.5zM960 759q-18 16 -53 24q-13 2 -30.5 -2.5t-31.5 -13.5q-66 -42 -113 -120q-46 -76 -43 -131q0 -12 6 -21t14 -14 q9 -7 21 -10.5t28 -5.5q38 -6 74 19q52 39 93 110q19 32 30.5 61.5t16.5 56.5q4 31 -12 47zM564 348q-34 -11 -35 -70q-3 -21 -3 -26q0 -4 0.5 -11.5t2 -16t5.5 -16t12 -12.5q14 -8 30 -1q34 14 74 24t82 17q14 2 33 5t44 6q16 1 23.5 11t10.5 37v13v9q0 5 -0.5 10.5 t-0.5 14.5q-2 48 -44 48q-21 0 -49.5 -3t-63.5 -10q-69 -12 -121 -29zM884 702q9 -3 -1 -31q-8 -25 -26 -54q-14 -25 -28.5 -41.5t-25.5 -22.5t-15.5 0t2.5 27q9 26 26 52.5t38 48.5q22 22 30 21z" unicode="º" glyph-name="ordmasculine" horiz-adv-x="802"/>
<glyph d="M776 489q13 27 13 38q0 12 -9 23q-18 23 -38.5 45t-43.5 44q-46 45 -77 68q-9 7 -19 2.5t-18 -21.5q-10 -21 -20 -50.5t-15 -48.5q-4 -26 -2.5 -34t13.5 -16q18 -14 35.5 -30t34.5 -35q-24 -11 -49.5 -23t-50 -24.5t-46.5 -24.5t-39 -22q-7 -5 -11.5 -10t-8.5 -10 q-8 -15 -7 -30q3 -25 7.5 -46t10.5 -33q5 -16 12 -17.5t22 9.5q25 15 49.5 28.5t48.5 26.5q26 14 53.5 26.5t56.5 25.5q17 8 27 18t23 32q7 11 13 21.5t11 19.5q12 22 24 48zM486 516q14 27 14 38t-9 23q-18 23 -38.5 45t-43.5 44q-46 45 -77 68q-19 16 -37 -19 q-10 -22 -20 -51t-15 -48q-3 -21 -3 -31q0 -9 14 -18q36 -30 71 -65q-52 -23 -102 -48t-84 -47q-15 -12 -20 -20q-9 -13 -7 -30l3.5 -24.5t3.5 -18.5q8 -37 15.5 -48.5t29.5 4.5q48 30 97.5 55t110.5 52q18 9 27.5 19t23.5 32q11 17 22 39.5t24 48.5z" unicode="»" glyph-name="guillemotright" horiz-adv-x="624"/>
<glyph d="M562 274q14 29 29 58.5t30 58.5q14 28 26.5 51.5t23.5 43.5q9 17 10 26t-4 21q-5 7 -10.5 14.5t-13.5 16.5q-12 15 -19.5 22.5t-13.5 9t-12 -2.5t-15 -13q-27 -27 -60 -63t-72 -82q-40 -48 -72 -88t-56 -74q-11 -16 -16 -29.5t-6 -29.5q2 -20 4 -36t6 -29q2 -10 7 -13.5 t20 0.5q19 6 40.5 9.5t34.5 6.5q-37 -73 -51 -110q-10 -22 -11.5 -32t3.5 -23l6 -8t7 -8q11 -11 20.5 -12.5t20.5 20.5q37 81 90 186q8 1 21 2t20 1q7 1 12 7.5t8 21.5q3 16 5 28t3 30q1 19 -15 19zM807 905q0 15 -3 17q-2 2 -5 18q-2 16 -13.5 16.5t-31.5 -19.5 q-34 -32 -89.5 -88.5t-133.5 -139.5q-120 -126 -282 -303q-63 -69 -114 -125.5t-91 -101.5q-12 -13 -20.5 -24.5t-13.5 -21.5q-8 -18 -9 -26.5t-1 -15.5q1 -1 2 -1t2 -1l6 -6q4 -19 12.5 -18t28.5 23q93 100 222 234q58 60 128 131.5t152 155.5q73 75 127 129.5t89 88.5 q11 11 17.5 19.5t10.5 15.5q10 16 10 43zM440 902q9 16 9.5 24.5t-4.5 21.5q-7 11 -19 24.5t-20 18.5q-9 5 -14.5 2t-17.5 -18q-10 -13 -18 -22.5t-13 -16.5q-15 -22 -24.5 -35.5t-13.5 -23t-2.5 -17t9.5 -16.5q-23 -47 -47 -97.5t-50 -105.5q-24 -54 -42 -95.5t-31 -73.5 q-10 -21 -12 -33t2 -20q7 -9 19 -19q5 -4 10.5 -7t10.5 -7q9 -5 13 -2t11 18q25 54 55 117.5t66 138.5q38 79 69 139.5t54 104.5zM399 257q23 28 37.5 45t19.5 22q30 36 60 69q31 36 60 63q-11 -20 -23 -42.5t-25 -48.5l-48 -96q-27 -3 -47 -6t-34 -6z" unicode="¼" glyph-name="onequarter" horiz-adv-x="536"/>
<glyph d="M807 905q0 15 -3 17q-2 2 -5 18q-2 16 -13.5 16.5t-31.5 -19.5q-34 -32 -89.5 -88.5t-133.5 -139.5q-120 -126 -282 -303q-63 -69 -114 -125.5t-91 -101.5q-12 -13 -20.5 -24.5t-13.5 -21.5q-8 -18 -9 -26.5t-1 -15.5q1 -1 2 -1t2 -1l6 -6q4 -19 12.5 -18t28.5 23 q93 100 222 234q58 60 128 131.5t152 155.5q73 75 127 129.5t89 88.5q11 11 17.5 19.5t10.5 15.5q10 16 10 43zM421 101q29 26 57.5 56t57.5 62q60 69 96 122t53 90q21 48 20 89q-1 36 -19 60q-16 20 -39.5 19t-51.5 -18t-57.5 -47.5t-56.5 -68.5q-22 -32 -25.5 -46t3.5 -21 q15 -11 35 -9.5t41 19.5q11 13 21.5 23t18.5 18q22 22 31 27q14 8 17 0q6 -11 -48 -81q-26 -34 -57 -71.5t-69 -79.5q-81 -89 -144 -147q-13 -13 -17 -27t-3 -41q1 -14 3.5 -26t7.5 -23q1 -11 7.5 -13.5t25.5 3.5q16 5 35 11t42 11t42.5 8t35.5 5q14 2 19.5 19t4.5 63 q0 27 -17 25q-33 -4 -45.5 -6t-24.5 -5zM440 902q9 16 9.5 24.5t-4.5 21.5q-7 11 -19 24.5t-20 18.5q-9 5 -14.5 2t-17.5 -18q-10 -13 -18 -22.5t-13 -16.5q-15 -22 -24.5 -35.5t-13.5 -23t-2.5 -17t9.5 -16.5q-23 -47 -47 -97.5t-50 -105.5q-24 -54 -42 -95.5t-31 -73.5 q-10 -21 -12 -33t2 -20q7 -9 19 -19q5 -4 10.5 -7t10.5 -7q9 -5 13 -2t11 18q25 54 55 117.5t66 138.5q38 79 69 139.5t54 104.5z" unicode="½" glyph-name="onehalf" horiz-adv-x="563"/>
<glyph d="M658 274q2 5 12 25t28 55q10 17 19 35l18 36q16 29 23.5 44.5t8.5 16.5q9 16 10 25.5t-4 21.5q-4 5 -10 13t-15 18q-17 22 -24 26q-9 6 -15 4.5t-20 -14.5q-26 -26 -59 -62.5t-73 -82.5q-41 -48 -73 -88.5t-55 -73.5q-11 -15 -16 -29.5t-6 -29.5q1 -17 4 -34t5 -31 q3 -13 9.5 -14.5t18.5 1.5q9 2 20.5 5t25.5 5q7 2 14 3t15 3q-16 -31 -30.5 -63t-20.5 -47q-10 -22 -11.5 -32t3.5 -23q6 -8 12.5 -15t13.5 -11q10 -5 15 -1t13 19q13 27 26 54.5t30 63.5q1 1 34 68q7 1 20 2t20 1q15 1 21 28l4 26l4 26q2 26 -15 26zM903 905q0 15 -3 17 q-2 2 -5 18q-2 16 -13.5 16.5t-31.5 -19.5q-34 -31 -89.5 -87.5t-133.5 -140.5q-128 -135 -282 -303q-64 -71 -115.5 -127.5t-89.5 -99.5q-24 -27 -34 -46q-7 -18 -8.5 -26.5t-0.5 -15.5q1 -1 2 -1t2 -1q1 -2 5 -6q4 -19 12.5 -18t28.5 23q47 51 102 109t121 125 q58 60 127.5 131.5t151.5 155.5q73 75 127 129.5t89 88.5q21 21 29 36t9 42zM407 725q21 14 44 32t37 32q32 32 50 81q21 55 15 108q-8 44 -31 55q-16 7 -44 -2t-62 -37q-14 -11 -28 -24.5t-27 -29.5q-10 -12 -12.5 -21.5t0.5 -20.5q6 -20 27.5 -24t41.5 14q19 15 30 21 q17 11 24 11t7 -7q3 -21 -41 -59q-50 -44 -132 -84q-10 -5 -14.5 -14.5t-5.5 -34.5q-1 -24 10 -41.5t31 -12.5q11 1 19 1t12 -4.5t3.5 -16t-7.5 -32.5q-11 -30 -36 -59q-27 -31 -50.5 -33.5t-44.5 28.5q-20 26 -55 1q-14 -12 -15.5 -27t4.5 -34q11 -44 32 -62q19 -17 51 -17 t64 19q37 21 72 67q36 45 52 100q17 53 3 97q-3 11 -9 18t-15 12zM495 257q22 26 36 42.5t21 24.5q31 36 60 69q17 19 31.5 34.5t27.5 28.5q-11 -20 -22 -42.5t-24 -48.5l-48 -96q-11 -1 -19 -2t-13 -2q-17 -2 -29.5 -4t-20.5 -4z" unicode="¾" glyph-name="threequarters" horiz-adv-x="632"/>
<glyph d="M567 710q-8 11 -16 19.5t-16 14.5q-37 26 -53 -24q-41 -89 -96 -150q-31 -34 -103 -91q-33 -26 -57 -48t-40 -41q-36 -42 -61 -88q-31 -57 -45 -113q-16 -62 -8 -129q4 -55 36 -85q18 -17 41 -21t48.5 3t53.5 23.5t57 40.5q29 25 58 56.5t59 71.5q19 23 29.5 41.5 t14.5 31.5q6 21 -7 33q-21 24 -54 19.5t-67 -35.5l-84 -78q-46 -38 -62 -38t-20 10q-4 9 1 29q11 37 40 75q18 23 42 46t53 46q31 26 51 42.5t28 24.5q25 23 47 46.5t41 49.5q24 32 43.5 66t35.5 71q14 32 16.5 49.5t-6.5 31.5zM688 883q19 41 18 70.5t-14.5 45t-36.5 16 t-47 -17.5q-29 -23 -48 -60q-4 -4 -7 -15l-7 -20q-13 -36 -11.5 -62.5t25.5 -43.5q30 -23 70 7q35 26 58 80z" unicode="¿" glyph-name="questiondown" horiz-adv-x="453"/>
<glyph d="M363 242q-7 -22 -14.5 -45.5t-15.5 -49.5q-13 -46 -23.5 -81.5t-9.5 -50.5t14 -24q10 -11 27 -12q4 -1 12 -2t16 -0.5t16 2.5t12 7q9 9 17 32q23 72 48 148.5t53 158.5q28 83 54.5 159.5t52.5 148.5q27 78 49.5 139.5t39.5 107.5q13 32 13.5 50t-14.5 28q-20 11 -31 17.5 t-14 8.5q-31 14 -70 17q-24 3 -46 -13q-8 -7 -18 -17.5t-21 -26.5q-32 -48 -74 -111.5t-93 -143.5q-54 -85 -100.5 -158.5t-85.5 -137.5q-46 -75 -85 -141t-73 -126q-26 -48 -28 -64q-2 -14 9 -41q2 -5 5.5 -10t8.5 -10q3 -4 6 -7l7 -7q12 -10 20.5 -6.5t22.5 25.5 q5 9 14 23t20 34q9 14 18 29l18 30q5 8 14.5 23.5t25.5 39.5q13 5 28.5 10.5t34.5 11.5q31 9 67.5 17.5t72.5 17.5zM593 1270q22 -41 57 -84q20 -26 41 -46t41 -35q17 -17 64 18q11 9 17 19q15 22 4 41q-40 43 -65 77q-17 24 -30.5 46t-21.5 42q-5 13 -18.5 12t-39.5 -18 q-14 -9 -25.5 -26t-23.5 -46zM301 411q35 55 68.5 107t65.5 101q31 48 60 91.5t56 85.5q-21 -57 -42 -117q-4 -11 -14.5 -41t-27.5 -80q-20 -60 -30.5 -91t-11.5 -33q-29 -3 -60 -9t-64 -14z" unicode="À" glyph-name="Agrave" horiz-adv-x="479"/>
<glyph d="M363 242q-7 -22 -14.5 -45.5t-15.5 -49.5q-13 -46 -23.5 -81.5t-9.5 -50.5t14 -24q10 -11 27 -12q4 -1 12 -2t16 -0.5t16 2.5t12 7q9 9 17 32q23 72 48 148.5t53 158.5q28 83 54.5 159.5t52.5 148.5q27 78 49.5 139.5t39.5 107.5q13 32 13.5 50t-14.5 28q-20 11 -31 17.5 t-14 8.5q-31 14 -70 17q-24 3 -46 -13q-8 -7 -18 -17.5t-21 -26.5q-32 -48 -74 -111.5t-93 -143.5q-54 -85 -100.5 -158.5t-85.5 -137.5q-46 -75 -85 -141t-73 -126q-26 -48 -28 -64q-2 -14 9 -41q2 -5 5.5 -10t8.5 -10q3 -4 6 -7l7 -7q12 -10 20.5 -6.5t22.5 25.5 q5 9 14 23t20 34q9 14 18 29l18 30q5 8 14.5 23.5t25.5 39.5q13 5 28.5 10.5t34.5 11.5q31 9 67.5 17.5t72.5 17.5zM874 1264q16 55 3 71q-14 17 -26.5 18t-27.5 -11q-17 -15 -35.5 -30t-39.5 -31q-17 -13 -37.5 -26.5t-43.5 -28.5q-20 -12 -40 -24.5t-41 -25.5 q-24 -19 -25 -41l3 -18q12 -17 24 -22t26 3q64 31 141 81q34 22 63.5 43.5t55.5 41.5zM301 411q35 55 68.5 107t65.5 101q31 48 60 91.5t56 85.5q-21 -57 -42 -117q-4 -11 -14.5 -41t-27.5 -80q-20 -60 -30.5 -91t-11.5 -33q-29 -3 -60 -9t-64 -14z" unicode="Á" glyph-name="Aacute" horiz-adv-x="479"/>
<glyph d="M363 242q-7 -22 -14.5 -45.5t-15.5 -49.5q-13 -46 -23.5 -81.5t-9.5 -50.5t14 -24q10 -11 27 -12q4 -1 12 -2t16 -0.5t16 2.5t12 7q9 9 17 32q23 72 48 148.5t53 158.5q28 83 54.5 159.5t52.5 148.5q27 78 49.5 139.5t39.5 107.5q13 32 13.5 50t-14.5 28q-20 11 -31 17.5 t-14 8.5q-31 14 -70 17q-24 3 -46 -13q-8 -7 -18 -17.5t-21 -26.5q-32 -48 -74 -111.5t-93 -143.5q-54 -85 -100.5 -158.5t-85.5 -137.5q-46 -75 -85 -141t-73 -126q-26 -48 -28 -64q-2 -14 9 -41q2 -5 5.5 -10t8.5 -10q3 -4 6 -7l7 -7q12 -10 20.5 -6.5t22.5 25.5 q5 9 14 23t20 34q9 14 18 29l18 30q5 8 14.5 23.5t25.5 39.5q13 5 28.5 10.5t34.5 11.5q31 9 67.5 17.5t72.5 17.5zM778 1084q10 -1 14.5 4.5t7.5 20.5q2 11 6.5 31.5t10.5 49.5t10.5 51t7.5 37q6 26 11.5 49t10.5 43q3 10 4.5 16.5t2 11.5t0 10t-1.5 13q-4 10 -6 14l-11 22 q-5 9 -11.5 8t-19.5 -16q-44 -46 -104 -116q-23 -29 -44.5 -55.5t-41.5 -51.5q-18 -22 -16.5 -48t7.5 -44q5 -22 22 0q10 11 19.5 23t19.5 24q8 10 19 22.5t24 27.5q11 12 22.5 25.5t24.5 27.5q-14 -63 -18 -88q-10 -48 -13 -72.5t11 -31.5q7 -5 15.5 -6.5t16.5 -1.5z M301 411q35 55 68.5 107t65.5 101q31 48 60 91.5t56 85.5q-21 -57 -42 -117q-4 -11 -14.5 -41t-27.5 -80q-20 -60 -30.5 -91t-11.5 -33q-29 -3 -60 -9t-64 -14z" unicode="Â" glyph-name="Acircumflex" horiz-adv-x="479"/>
<glyph d="M363 242q-7 -22 -14.5 -45.5t-15.5 -49.5q-13 -46 -23.5 -81.5t-9.5 -50.5t14 -24q10 -11 27 -12q4 -1 12 -2t16 -0.5t16 2.5t12 7q9 9 17 32q23 72 48 148.5t53 158.5q28 83 54.5 159.5t52.5 148.5q27 78 49.5 139.5t39.5 107.5q13 32 13.5 50t-14.5 28q-20 11 -31 17.5 t-14 8.5q-31 14 -70 17q-24 3 -46 -13q-8 -7 -18 -17.5t-21 -26.5q-32 -48 -74 -111.5t-93 -143.5q-54 -85 -100.5 -158.5t-85.5 -137.5q-46 -75 -85 -141t-73 -126q-26 -48 -28 -64q-2 -14 9 -41q2 -5 5.5 -10t8.5 -10q3 -4 6 -7l7 -7q12 -10 20.5 -6.5t22.5 25.5 q5 9 14 23t20 34q9 14 18 29l18 30q5 8 14.5 23.5t25.5 39.5q13 5 28.5 10.5t34.5 11.5q31 9 67.5 17.5t72.5 17.5zM739 1108q31 0 84 48q29 23 46.5 44.5t23.5 39.5q6 17 -2 30q-7 9 -21 9t-34 -18l-14 -14t-14 -15q-11 -11 -18 -15.5t-13 -4t-11.5 5t-14.5 13.5 q-10 11 -16.5 17.5l-8.5 8.5q-23 18 -47 18q-25 0 -75 -34q-52 -33 -72 -61q-12 -17 -18 -33q-13 -37 11 -37q26 0 42 13q18 17 34.5 30t26.5 13q6 0 14 -3t16.5 -7.5t15.5 -10t10 -11.5q11 -26 55 -26zM301 411q35 55 68.5 107t65.5 101q31 48 60 91.5t56 85.5 q-21 -57 -42 -117q-4 -11 -14.5 -41t-27.5 -80q-20 -60 -30.5 -91t-11.5 -33q-29 -3 -60 -9t-64 -14z" unicode="Ã" glyph-name="Atilde" horiz-adv-x="479"/>
<glyph d="M363 242q-7 -22 -14.5 -45.5t-15.5 -49.5q-13 -46 -23.5 -81.5t-9.5 -50.5t14 -24q10 -11 27 -12q4 -1 12 -2t16 -0.5t16 2.5t12 7q9 9 17 32q23 72 48 148.5t53 158.5q28 83 54.5 159.5t52.5 148.5q27 78 49.5 139.5t39.5 107.5q13 32 13.5 50t-14.5 28q-20 11 -31 17.5 t-14 8.5q-31 14 -70 17q-24 3 -46 -13q-8 -7 -18 -17.5t-21 -26.5q-32 -48 -74 -111.5t-93 -143.5q-54 -85 -100.5 -158.5t-85.5 -137.5q-46 -75 -85 -141t-73 -126q-26 -48 -28 -64q-2 -14 9 -41q2 -5 5.5 -10t8.5 -10q3 -4 6 -7l7 -7q12 -10 20.5 -6.5t22.5 25.5 q5 9 14 23t20 34q9 14 18 29l18 30q5 8 14.5 23.5t25.5 39.5q13 5 28.5 10.5t34.5 11.5q31 9 67.5 17.5t72.5 17.5zM301 411q35 55 68.5 107t65.5 101q31 48 60 91.5t56 85.5q-21 -57 -42 -117q-4 -11 -14.5 -41t-27.5 -80q-20 -60 -30.5 -91t-11.5 -33q-29 -3 -60 -9 t-64 -14zM568 1183q-17 -43 -11 -70.5t30 -24.5q21 0 45 25q21 20 32 43q3 6 6.5 12.5t5.5 14.5q10 25 8 46.5t-18 32.5q-22 15 -52 -12q-28 -24 -46 -67zM743 1183q-18 -45 -11.5 -72t31.5 -24q20 0 44 25q17 18 31 42q4 9 6 12.5t6 16.5q9 25 7 46t-16 32q-22 15 -53 -11 q-29 -24 -45 -67z" unicode="Ä" glyph-name="Adieresis" horiz-adv-x="479"/>
<glyph d="M363 242q-7 -22 -14.5 -45.5t-15.5 -49.5q-13 -46 -23.5 -81.5t-9.5 -50.5t14 -24q10 -11 27 -12q4 -1 12 -2t16 -0.5t16 2.5t12 7q9 9 17 32q23 72 48 148.5t53 158.5q28 83 54.5 159.5t52.5 148.5q27 78 49.5 139.5t39.5 107.5q13 32 13.5 50t-14.5 28q-20 11 -31 17.5 t-14 8.5q-31 14 -70 17q-24 3 -46 -13q-8 -7 -18 -17.5t-21 -26.5q-32 -48 -74 -111.5t-93 -143.5q-54 -85 -100.5 -158.5t-85.5 -137.5q-46 -75 -85 -141t-73 -126q-26 -48 -28 -64q-2 -14 9 -41q2 -5 5.5 -10t8.5 -10q3 -4 6 -7l7 -7q12 -10 20.5 -6.5t22.5 25.5 q5 9 14 23t20 34q9 14 18 29l18 30q5 8 14.5 23.5t25.5 39.5q13 5 28.5 10.5t34.5 11.5q31 9 67.5 17.5t72.5 17.5zM868 1347q-20 18 -51.5 22t-63.5 -14q-67 -44 -113 -121q-47 -78 -43 -130q2 -24 20 -35q8 -8 20.5 -11.5t29.5 -4.5q36 -6 73 18q54 41 93 110 q19 32 30.5 61.5t16.5 57.5q1 14 -1.5 26.5t-10.5 20.5zM301 411q35 55 68.5 107t65.5 101q31 48 60 91.5t56 85.5q-21 -57 -42 -117q-4 -11 -14.5 -41t-27.5 -80q-20 -60 -30.5 -91t-11.5 -33q-29 -3 -60 -9t-64 -14zM805 1314q12 -3 -1 -42q-14 -39 -36 -75 q-26 -44 -54 -72q-27 -27 -40 -21q-13 4 -1 41q13 36 36 73q12 19 25.5 35.5t27.5 31.5q32 32 43 29z" unicode="Å" glyph-name="Aring" horiz-adv-x="479"/>
<glyph d="M820 959q-19 11 -29.5 17.5t-13.5 8.5q-30 14 -69 17q-23 3 -46 -13q-20 -14 -44 -44q-42 -52 -91 -115.5t-106 -139.5q-54 -72 -108.5 -145.5t-111.5 -150.5q-58 -79 -105 -145.5t-85 -121.5q-32 -47 -36 -69q-1 -8 5 -36q5 -11 14 -23l4 -6t4 -5q12 -10 21 -6.5 t25 26.5q14 20 24.5 34t15.5 22q11 14 21.5 29t21.5 30q13 17 24.5 33t22.5 30q15 6 31.5 11.5t33.5 10.5q14 4 31.5 8.5t39.5 9.5q33 8 51 11.5t21 4.5q-11 -25 -21.5 -46.5t-18.5 -40.5q-13 -26 -25 -50.5t-18 -39.5q-13 -33 -9.5 -48t18.5 -25q4 -9 43 -9q38 -1 56 5 l193 64q20 7 27 16.5t13 35.5q3 22 6.5 47t3.5 45q2 22 -5.5 30t-35.5 4q-27 -3 -57.5 -9t-60.5 -16q2 3 5 10.5t3 8.5l7.5 15t15.5 30q16 31 26 50.5t14 28.5q31 10 87 27q38 11 59.5 17t27.5 8q20 7 27 16.5t11 35.5q7 31 9.5 50.5t2.5 40.5q5 22 -5.5 29t-28.5 7 t-39 -4.5t-37 -6.5q21 39 39.5 75t36.5 72q8 17 17 33t18 33q21 5 42.5 9.5t44.5 9.5q13 2 32.5 5.5t46.5 8.5q19 4 26.5 13.5t13.5 35.5q3 13 5 21.5t3 12.5q5 27 6 55q7 45 -30 44q-35 -1 -81 -14q-39 -11 -77 -25q-1 1 -2 1zM346 412q26 36 53 71.5t54 70.5q24 31 99 129 q28 36 50 64.5t39 49.5q-8 -17 -22 -46t-34 -71q-14 -31 -28 -61l-28 -60q-8 -17 -22 -48t-34 -76q-28 -3 -59.5 -9t-67.5 -14z" unicode="Æ" glyph-name="AE" horiz-adv-x="704"/>
<glyph d="M1 -264q15 18 33.5 42.5t40.5 56.5q23 34 41 63t32 54q1 1 1 2t1 3q2 2 2.5 4t1.5 3q27 0 58.5 14t56.5 36q28 27 60 66q17 20 31.5 41t27.5 43q27 43 33 68q6 24 -13 36q-50 33 -114 -42q-91 -106 -111 -88q-21 14 18 125q18 53 43 109.5t57 118.5q20 37 42 75.5 t48 79.5q27 43 50 76t42 56q43 55 56 47q8 -8 2 -35q-2 -10 -7 -25.5t-13 -36.5q-4 -9 -7 -19.5t-7 -22.5q-14 -57 -6.5 -87.5t41.5 -44.5q12 -6 20.5 -1.5t25.5 33.5q10 20 21 44.5t22 51t20.5 53.5t17.5 51q15 48 17 79t-9 62q-7 14 -17 26t-23 23q-28 24 -57 28 q-12 1 -24.5 -1t-25.5 -7q-30 -13 -67 -47q-94 -91 -192 -250q-96 -155 -161 -312q-34 -83 -53 -150t-23 -119q-4 -34 2.5 -61.5t19.5 -43.5l8 -8l-159 -251q-27 -41 -1 -50q5 -1 8.5 -2t7.5 -2q17 -3 29 0q22 1 52 36z" unicode="Ç" glyph-name="Ccedilla" horiz-adv-x="428"/>
<glyph d="M380 923l-348 -751q-14 -32 -17.5 -57t-1 -45.5t8.5 -37t12 -29.5q6 -16 18 -21t40 6l194 64q19 7 26 16.5t13 35.5q4 30 6.5 51t3.5 41q1 22 -6.5 30t-25.5 5q-36 -4 -66.5 -10t-61.5 -16l73 143q20 7 46.5 15t60.5 18q23 7 39 11.5t26 7.5t17 6.5t11 9t6.5 14.5t5.5 24 q6 29 8.5 48.5t2.5 40.5q5 22 -5 29t-28 7t-39.5 -4.5t-38.5 -6.5q17 31 26.5 49.5t13.5 26.5q9 17 18 35t19 36q11 20 19.5 36.5t15.5 29.5q28 7 68.5 15t97.5 18q18 3 26.5 13t14.5 37q7 32 9 44t2.5 23t1.5 21q6 46 -26 44q-33 -2 -70 -9.5t-79 -18.5q-69 -18 -137 -45z M547 1264q19 -39 57 -85q20 -26 41 -46t41 -35q15 -15 63 19q4 5 8 9l9 9q15 23 5 41q-26 28 -44 50q-23 28 -41 55q-20 32 -32 61q-6 12 -19 11t-39 -18q-14 -8 -25.5 -25.5t-23.5 -45.5z" unicode="È" glyph-name="Egrave" horiz-adv-x="385"/>
<glyph d="M380 923l-348 -751q-14 -32 -17.5 -57t-1 -45.5t8.5 -37t12 -29.5q6 -16 18 -21t40 6l194 64q19 7 26 16.5t13 35.5q4 30 6.5 51t3.5 41q1 22 -6.5 30t-25.5 5q-36 -4 -66.5 -10t-61.5 -16l73 143q20 7 46.5 15t60.5 18q23 7 39 11.5t26 7.5t17 6.5t11 9t6.5 14.5t5.5 24 q6 29 8.5 48.5t2.5 40.5q5 22 -5 29t-28 7t-39.5 -4.5t-38.5 -6.5q17 31 26.5 49.5t13.5 26.5q9 17 18 35t19 36q11 20 19.5 36.5t15.5 29.5q28 7 68.5 15t97.5 18q18 3 26.5 13t14.5 37q7 32 9 44t2.5 23t1.5 21q6 46 -26 44q-33 -2 -70 -9.5t-79 -18.5q-69 -18 -137 -45z M815 1264q8 30 9.5 46.5t-6.5 24.5q-14 17 -26.5 18t-27.5 -11q-32 -29 -76 -61q-17 -13 -37.5 -26.5t-43.5 -28.5q-19 -12 -39 -24.5t-41 -25.5q-23 -18 -25 -41l3 -18q12 -17 24 -22t26 3q64 31 141 81q34 22 63.5 43.5t55.5 41.5z" unicode="É" glyph-name="Eacute" horiz-adv-x="385"/>
<glyph d="M380 923l-348 -751q-14 -32 -17.5 -57t-1 -45.5t8.5 -37t12 -29.5q6 -16 18 -21t40 6l194 64q19 7 26 16.5t13 35.5q4 30 6.5 51t3.5 41q1 22 -6.5 30t-25.5 5q-36 -4 -66.5 -10t-61.5 -16l73 143q20 7 46.5 15t60.5 18q23 7 39 11.5t26 7.5t17 6.5t11 9t6.5 14.5t5.5 24 q6 29 8.5 48.5t2.5 40.5q5 22 -5 29t-28 7t-39.5 -4.5t-38.5 -6.5q17 31 26.5 49.5t13.5 26.5q9 17 18 35t19 36q11 20 19.5 36.5t15.5 29.5q28 7 68.5 15t97.5 18q18 3 26.5 13t14.5 37q7 32 9 44t2.5 23t1.5 21q6 46 -26 44q-33 -2 -70 -9.5t-79 -18.5q-69 -18 -137 -45z M722 1080q9 -1 14 4.5t8 20.5q7 39 15 76.5t20 92.5q7 28 12 51t10 41q6 19 6.5 27.5t-1.5 23.5q-2 7 -6 14l-11 22q-5 8 -12 7t-19 -14q-14 -14 -31.5 -33.5t-38.5 -42.5q-21 -25 -37.5 -45t-29.5 -36q-13 -15 -26 -31.5t-27 -35.5q-12 -17 -15 -31t-1.5 -25.5t4 -20.5 t2.5 -16q6 -21 22 1q17 20 32 37.5t29 34.5q20 23 37 42t31 36q-21 -104 -21 -108q-4 -17 -6 -29.5t-4 -20.5q-3 -28 11 -34q18 -8 33 -8z" unicode="Ê" glyph-name="Ecircumflex" horiz-adv-x="385"/>
<glyph d="M380 923l-348 -751q-14 -32 -17.5 -57t-1 -45.5t8.5 -37t12 -29.5q6 -16 18 -21t40 6l194 64q19 7 26 16.5t13 35.5q4 30 6.5 51t3.5 41q1 22 -6.5 30t-25.5 5q-36 -4 -66.5 -10t-61.5 -16l73 143q20 7 46.5 15t60.5 18q23 7 39 11.5t26 7.5t17 6.5t11 9t6.5 14.5t5.5 24 q6 29 8.5 48.5t2.5 40.5q5 22 -5 29t-28 7t-39.5 -4.5t-38.5 -6.5q17 31 26.5 49.5t13.5 26.5q9 17 18 35t19 36q11 20 19.5 36.5t15.5 29.5q28 7 68.5 15t97.5 18q18 3 26.5 13t14.5 37q7 32 9 44t2.5 23t1.5 21q6 46 -26 44q-33 -2 -70 -9.5t-79 -18.5q-69 -18 -137 -45z M494 1176q-17 -43 -10.5 -69.5t30.5 -24.5q20 0 44 25q21 21 31 42q4 7 7.5 13.5t5.5 13.5q9 26 7 47.5t-17 32.5q-23 15 -53 -12q-28 -26 -45 -68zM669 1176q-18 -43 -11.5 -70t30.5 -26q20 0 44 25q9 10 17 20.5t15 22.5l6 14l6 14q9 24 7 45.5t-17 32.5q-23 15 -53 -12 q-28 -25 -44 -66z" unicode="Ë" glyph-name="Edieresis" horiz-adv-x="385"/>
<glyph d="M494 919q-8 18 -23.5 34.5t-31.5 24.5q-15 8 -26 1.5t-26 -34.5q-51 -99 -129 -264q-33 -70 -69.5 -150t-78.5 -171q-78 -171 -111 -252q-15 -34 -17 -52.5t8 -33.5q7 -12 21 -23q6 -6 27 -19q14 -7 22 -1.5t20 29.5q28 60 60 128.5t70 147.5q43 88 80.5 165t69.5 143 q40 81 71.5 143.5t55.5 108.5q14 28 15.5 42.5t-8.5 32.5zM441 1291q10 -20 24.5 -40.5t33.5 -43.5q40 -51 81 -81q16 -17 63 18q10 7 17 18q15 24 5 42q-39 42 -65 77q-18 23 -31 45.5t-21 42.5q-5 13 -19 11.5t-39 -18.5q-13 -8 -24.5 -25t-24.5 -46z" unicode="Ì" glyph-name="Igrave" horiz-adv-x="208"/>
<glyph d="M494 919q-8 18 -23.5 34.5t-31.5 24.5q-15 8 -26 1.5t-26 -34.5q-51 -99 -129 -264q-33 -70 -69.5 -150t-78.5 -171q-78 -171 -111 -252q-15 -34 -17 -52.5t8 -33.5q7 -12 21 -23q6 -6 27 -19q14 -7 22 -1.5t20 29.5q28 60 60 128.5t70 147.5q43 88 80.5 165t69.5 143 q40 81 71.5 143.5t55.5 108.5q14 28 15.5 42.5t-8.5 32.5zM743 1266q8 30 9 47t-6 25q-14 16 -26.5 17.5t-27.5 -11.5q-24 -21 -53 -43t-63 -45q-26 -17 -56.5 -36.5t-64.5 -40.5q-23 -18 -25 -42l3 -18q12 -17 24 -22t26 4q63 31 141 81q34 22 63.5 43t55.5 41z" unicode="Í" glyph-name="Iacute" horiz-adv-x="208"/>
<glyph d="M494 919q-8 18 -23.5 34.5t-31.5 24.5q-15 8 -26 1.5t-26 -34.5q-51 -99 -129 -264q-33 -70 -69.5 -150t-78.5 -171q-78 -171 -111 -252q-15 -34 -17 -52.5t8 -33.5q7 -12 21 -23q6 -6 27 -19q14 -7 22 -1.5t20 29.5q28 60 60 128.5t70 147.5q43 88 80.5 165t69.5 143 q40 81 71.5 143.5t55.5 108.5q14 28 15.5 42.5t-8.5 32.5zM623 1074q16 -3 22 24q7 42 15 78q5 26 9.5 49t9.5 43q5 24 11 47t12 45q6 19 6 27q0 9 -2 23q-2 7 -8 18.5t-9 18.5q-5 8 -12 7t-19 -15q-14 -14 -31.5 -33t-37.5 -43q-37 -43 -68 -81t-53 -67q-16 -21 -15 -46.5 t5 -45.5q4 -12 8 -12q5 0 14 12q14 17 29.5 34.5t32.5 37.5q20 23 37 43t31 36q-2 -10 -6.5 -32t-11.5 -56q-5 -27 -8.5 -45t-4.5 -26q-3 -28 11 -33q8 -4 16 -6t17 -2z" unicode="Î" glyph-name="Icircumflex" horiz-adv-x="208"/>
<glyph d="M494 919q-8 18 -23.5 34.5t-31.5 24.5q-15 8 -26 1.5t-26 -34.5q-51 -99 -129 -264q-33 -70 -69.5 -150t-78.5 -171q-78 -171 -111 -252q-15 -34 -17 -52.5t8 -33.5q7 -12 21 -23q6 -6 27 -19q14 -7 22 -1.5t20 29.5q28 60 60 128.5t70 147.5q43 88 80.5 165t69.5 143 q40 81 71.5 143.5t55.5 108.5q14 28 15.5 42.5t-8.5 32.5zM583 1176q-18 -43 -11 -70t31 -26q22 0 44 25q9 10 17 20.5t15 22.5l6 14l6 14q9 24 7 45.5t-17 32.5q-23 15 -53 -12q-27 -23 -45 -66zM409 1176q-17 -43 -10.5 -69.5t30.5 -24.5q20 0 44 25q21 21 31 42 q4 7 7.5 13.5t5.5 13.5q9 26 7 47.5t-17 32.5q-23 15 -53 -12q-28 -26 -45 -68z" unicode="Ï" glyph-name="Idieresis" horiz-adv-x="208"/>
<glyph d="M246 601q-52 -9 -50 -59q-2 -41 12 -84q6 -22 19 -28.5t37 -1.5l-101 -227q-13 -28 -20 -49t-9 -37q-1 -6 0.5 -18t3.5 -29q8 -27 15.5 -45t18.5 -35q24 -36 67 -11q151 69 285 224q120 138 198 309q76 165 80 284q7 126 -50 173q-46 39 -131 18q-72 -18 -141 -67 l-134 -303q-16 -2 -44 -6zM280 179q63 138 130 272q15 2 32.5 2.5t34 1t30 3t22.5 8.5q11 8 13.5 32t4.5 44q1 21 0 39q-1 40 -46 40h-7l17 34l12 24q17 32 29.5 56t20.5 40q44 21 67 4q40 -29 -10 -158q-27 -71 -74 -148q-26 -44 -56 -83.5t-62 -75.5q-38 -42 -77 -75.5 t-81 -59.5z" unicode="Ð" glyph-name="Eth" horiz-adv-x="601"/>
<glyph d="M406 408l20 80t20 82q4 14 13.5 52t26.5 102q10 40 17 67.5t12 44.5q11 40 10.5 60t-14.5 32q-13 17 -31 30q-5 4 -13.5 9t-20.5 13q-14 9 -27.5 0.5t-29.5 -38.5q-25 -49 -59 -118.5t-78 -162.5q-37 -78 -74 -157.5t-75 -163.5q-36 -80 -61.5 -136t-39.5 -90 q-15 -34 -17.5 -52.5t6.5 -32.5q4 -13 15 -22q4 -5 33 -21q13 -9 21.5 -4t19.5 28l249 529q-16 -68 -29 -127.5t-24 -113.5q-12 -60 -21 -109t-14 -89q-9 -57 13 -78t50 -34q31 -15 52 34q31 66 62.5 134t65.5 140q100 216 141 300q35 72 66 135.5t59 119.5q15 31 18 48.5 t-7 35.5q-12 22 -22 30q-8 8 -25 15q-15 9 -27.5 1t-25.5 -36q-18 -35 -37.5 -75t-41.5 -85q-25 -51 -46.5 -95.5t-40.5 -86.5q-23 -49 -45 -97.5t-44 -97.5zM739 1108q31 0 84 48q29 23 46.5 44.5t23.5 39.5q6 17 -2 30q-7 9 -21 9t-34 -18l-14 -14t-14 -15 q-11 -11 -18 -15.5t-13 -4t-11.5 5t-14.5 13.5q-10 11 -16.5 17.5l-8.5 8.5q-23 18 -47 18q-25 0 -75 -34q-52 -33 -72 -61q-12 -17 -18 -33q-13 -37 11 -37q26 0 42 13q18 17 34.5 30t26.5 13q6 0 14 -3t16.5 -7.5t15.5 -10t10 -11.5q11 -26 55 -26z" unicode="Ñ" glyph-name="Ntilde" horiz-adv-x="468"/>
<glyph unicode="Ò" glyph-name="Ograve" d="M673 915q-10 27 -33 46t-50 27q-26 8 -59.5 -5.5t-64.5 -41.5q-47 -45 -93 -104t-93 -134q-86 -140 -148 -295q-61 -153 -75 -266q-3 -33 2.5 -62.5t17.5 -49.5t36 -34q14 -8 35 -13.5t46 -3.5t53 16t56 45q76 84 156 219q36 63 68 128t61 135q28 67 48.5 127.5 t34.5 116.5q11 51 12 85.5t-10 63.5zM542 812q19 -10 -26 -138q-43 -123 -100 -235q-71 -143 -132 -227q-64 -88 -85 -70q-21 16 20 137q38 112 100 228q32 60 64.5 113t66.5 101q74 104 92 91zM547 1264q19 -39 57 -85q20 -26 41 -46t41 -35q15 -15 63 19q4 5 8 9l9 9 q15 23 5 41q-26 28 -44 50q-23 28 -41 55q-20 32 -32 61q-6 12 -19 11t-39 -18q-14 -8 -25.5 -25.5t-23.5 -45.5z"/>
<glyph unicode="Ó" glyph-name="Oacute" d="M673 915q-10 27 -33 46t-50 27q-26 8 -59.5 -5.5t-64.5 -41.5q-47 -45 -93 -104t-93 -134q-86 -140 -148 -295q-61 -153 -75 -266q-3 -33 2.5 -62.5t17.5 -49.5t36 -34q14 -8 35 -13.5t46 -3.5t53 16t56 45q76 84 156 219q36 63 68 128t61 135q28 67 48.5 127.5 t34.5 116.5q11 51 12 85.5t-10 63.5zM542 812q19 -10 -26 -138q-43 -123 -100 -235q-71 -143 -132 -227q-64 -88 -85 -70q-21 16 20 137q38 112 100 228q32 60 64.5 113t66.5 101q74 104 92 91zM815 1264q8 30 9.5 46.5t-6.5 24.5q-14 17 -26.5 18t-27.5 -11 q-32 -29 -76 -61q-17 -13 -37.5 -26.5t-43.5 -28.5q-19 -12 -39 -24.5t-41 -25.5q-23 -18 -25 -41l3 -18q12 -17 24 -22t26 3q64 31 141 81q34 22 63.5 43.5t55.5 41.5z"/>
<glyph unicode="Ô" glyph-name="Ocircumflex" d="M673 915q-10 27 -33 46t-50 27q-26 8 -59.5 -5.5t-64.5 -41.5q-47 -45 -93 -104t-93 -134q-86 -140 -148 -295q-61 -153 -75 -266q-3 -33 2.5 -62.5t17.5 -49.5t36 -34q14 -8 35 -13.5t46 -3.5t53 16t56 45q76 84 156 219q36 63 68 128t61 135q28 67 48.5 127.5 t34.5 116.5q11 51 12 85.5t-10 63.5zM542 812q19 -10 -26 -138q-43 -123 -100 -235q-71 -143 -132 -227q-64 -88 -85 -70q-21 16 20 137q38 112 100 228q32 60 64.5 113t66.5 101q74 104 92 91zM748 1058q9 -1 14 4.5t8 20.5q14 73 15 77q6 29 11 52t9 40q5 22 10 44.5 t12 47.5q6 19 6 27q0 9 -1 24q-2 7 -6 14q-10 20 -12 22q-4 9 -11 7.5t-19 -15.5q-28 -28 -70 -76t-68 -80q-11 -13 -23.5 -30t-28.5 -37q-18 -22 -16.5 -47.5t6.5 -44.5q7 -22 22 0q10 11 19.5 23t20.5 24q4 5 15 17.5t28 32.5q17 19 28 32t18 21l-6 -34t-7 -34 q-14 -66 -17 -92t11 -32q14 -8 32 -8z"/>
<glyph unicode="Õ" glyph-name="Otilde" d="M673 915q-10 27 -33 46t-50 27q-26 8 -59.5 -5.5t-64.5 -41.5q-47 -45 -93 -104t-93 -134q-86 -140 -148 -295q-61 -153 -75 -266q-3 -33 2.5 -62.5t17.5 -49.5t36 -34q14 -8 35 -13.5t46 -3.5t53 16t56 45q76 84 156 219q36 63 68 128t61 135q28 67 48.5 127.5 t34.5 116.5q11 51 12 85.5t-10 63.5zM542 812q19 -10 -26 -138q-43 -123 -100 -235q-71 -143 -132 -227q-64 -88 -85 -70q-21 16 20 137q38 112 100 228q32 60 64.5 113t66.5 101q74 104 92 91zM739 1108q31 0 84 48q29 23 46.5 44.5t23.5 39.5q6 17 -2 30q-7 9 -21 9 t-34 -18l-14 -14t-14 -15q-11 -11 -18 -15.5t-13 -4t-11.5 5t-14.5 13.5q-10 11 -16.5 17.5l-8.5 8.5q-23 18 -47 18q-25 0 -75 -34q-52 -33 -72 -61q-12 -17 -18 -33q-13 -37 11 -37q26 0 42 13q18 17 34.5 30t26.5 13q6 0 14 -3t16.5 -7.5t15.5 -10t10 -11.5 q11 -26 55 -26z"/>
<glyph unicode="Ö" glyph-name="Odieresis" d="M673 915q-10 27 -33 46t-50 27q-26 8 -59.5 -5.5t-64.5 -41.5q-47 -45 -93 -104t-93 -134q-86 -140 -148 -295q-61 -153 -75 -266q-3 -33 2.5 -62.5t17.5 -49.5t36 -34q14 -8 35 -13.5t46 -3.5t53 16t56 45q76 84 156 219q36 63 68 128t61 135q28 67 48.5 127.5 t34.5 116.5q11 51 12 85.5t-10 63.5zM542 812q19 -10 -26 -138q-43 -123 -100 -235q-71 -143 -132 -227q-64 -88 -85 -70q-21 16 20 137q38 112 100 228q32 60 64.5 113t66.5 101q74 104 92 91zM528 1176q-17 -42 -10.5 -69t29.5 -25q21 0 45 25q21 21 31 42q4 7 7.5 13.5 t5.5 13.5q9 25 7 47t-17 33q-22 15 -53 -12q-28 -26 -45 -68zM703 1176q-18 -45 -12 -71t31 -25q20 0 44 25q10 10 17.5 21t13.5 22q4 7 7 14l6 14q9 24 7 45.5t-17 32.5q-23 15 -53 -12q-28 -25 -44 -66z"/>
<glyph d="M366 251q6 -13 14 -10.5t24 22.5q8 11 15 20t12 15q7 9 13.5 19.5t13.5 21.5q26 38 17 65q-6 17 -13.5 34.5t-15.5 37.5q22 16 42.5 28.5t40.5 24.5q20 11 30 22t21 34t18 49t10 48q2 17 -8 19t-28 -9q-16 -9 -36 -21.5t-45 -28.5q-18 -11 -42.5 -27.5t-55.5 -38.5 q-40 72 -74 106q-8 10 -19.5 9t-27.5 -21q-8 -10 -16.5 -22.5t-18.5 -28.5l-17.5 -28t-12.5 -22q-11 -24 -11.5 -34.5t8.5 -21.5q20 -21 37 -46q-10 -7 -27 -19.5t-40 -31.5q-11 -9 -19 -15t-13 -10q-35 -29 -44 -65q-6 -20 -10.5 -41.5t-6.5 -34.5q-4 -21 1 -22.5t26 12.5 q5 4 20 14.5t38 27.5q18 13 34.5 24.5t30.5 22.5q20 15 37.5 27t31.5 22q15 -23 35 -64q13 -26 20.5 -41.5t10.5 -21.5z" unicode="×" glyph-name="multiply" horiz-adv-x="437"/>
<glyph unicode="Ø" glyph-name="Oslash" d="M775 1056q-1 5 -1 9v10q-14 27 -34.5 4.5t-59.5 -79.5q-11 -15 -19 -27t-14 -20q-12 13 -26.5 21t-35.5 15t-54.5 -6.5t-64.5 -41.5q-47 -45 -93 -104t-93 -134q-86 -140 -148 -295q-61 -153 -75 -266q-5 -48 6 -78q-15 -23 -27 -42t-21 -34q-17 -30 -24 -52t0 -37v-3 q-2 1 -6 9q1 -2 1.5 -3.5t1.5 -2.5q9 -15 19 -10.5t25 29.5q8 13 15 22.5t12 17.5q18 28 33 51q12 -10 32 -18q15 -7 35 -11q35 -7 70 7t74 53q76 84 156 219q36 63 68 128t61 135q28 67 48.5 127.5t34.5 116.5q7 33 10 60.5t0 48.5q22 31 40 57t33 46q17 24 22 40.5 t-1 37.5zM416 439q-71 -143 -132 -227q-64 -88 -85 -70q-5 3 -7 17l290 426q-6 -16 -14.5 -35.5t-17.5 -39t-18 -38t-16 -33.5zM542 812q3 -1 5 -7q-22 -33 -46.5 -70t-52.5 -79q-17 -26 -43 -65t-61 -92q-33 -51 -58.5 -90t-42.5 -66q17 43 36 84t40 81q32 60 64.5 112.5 t66.5 100.5q74 104 92 91z"/>
<glyph d="M48 133q-3 -33 2 -59t14 -45q22 -42 80 -50q29 -4 55.5 4.5t57.5 30.5q56 46 133 168q35 57 74.5 128.5t82.5 159.5q35 71 79.5 166.5t99.5 216.5q14 29 15.5 42.5t-8.5 31.5q-23 33 -37 45q-42 37 -67 -23q-47 -103 -85.5 -185.5t-69.5 -146.5q-54 -112 -97.5 -196.5 t-77.5 -142.5q-89 -152 -114 -135q-22 15 28 137q20 50 50 115.5t72 148.5q31 61 65.5 127t74.5 138q32 63 16 104q-10 22 -19 32q-13 16 -25 23q-14 11 -25.5 5t-26.5 -34q-43 -79 -81 -151t-71 -138q-42 -84 -74 -155.5t-57 -134.5q-58 -145 -64 -227zM547 1264 q19 -39 57 -85q20 -26 41 -46t41 -35q15 -15 63 19q4 5 8 9l9 9q15 23 5 41q-26 28 -44 50q-23 28 -41 55q-20 32 -32 61q-6 12 -19 11t-39 -18q-14 -8 -25.5 -25.5t-23.5 -45.5z" unicode="Ù" glyph-name="Ugrave" horiz-adv-x="451"/>
<glyph d="M48 133q-3 -33 2 -59t14 -45q22 -42 80 -50q29 -4 55.5 4.5t57.5 30.5q56 46 133 168q35 57 74.5 128.5t82.5 159.5q35 71 79.5 166.5t99.5 216.5q14 29 15.5 42.5t-8.5 31.5q-23 33 -37 45q-42 37 -67 -23q-47 -103 -85.5 -185.5t-69.5 -146.5q-54 -112 -97.5 -196.5 t-77.5 -142.5q-89 -152 -114 -135q-22 15 28 137q20 50 50 115.5t72 148.5q31 61 65.5 127t74.5 138q32 63 16 104q-10 22 -19 32q-13 16 -25 23q-14 11 -25.5 5t-26.5 -34q-43 -79 -81 -151t-71 -138q-42 -84 -74 -155.5t-57 -134.5q-58 -145 -64 -227zM815 1264 q8 30 9.5 46.5t-6.5 24.5q-14 17 -26.5 18t-27.5 -11q-32 -29 -76 -61q-17 -13 -37.5 -26.5t-43.5 -28.5q-19 -12 -39 -24.5t-41 -25.5q-23 -18 -25 -41l3 -18q12 -17 24 -22t26 3q64 31 141 81q34 22 63.5 43.5t55.5 41.5z" unicode="Ú" glyph-name="Uacute" horiz-adv-x="451"/>
<glyph d="M48 133q-3 -33 2 -59t14 -45q22 -42 80 -50q29 -4 55.5 4.5t57.5 30.5q56 46 133 168q35 57 74.5 128.5t82.5 159.5q35 71 79.5 166.5t99.5 216.5q14 29 15.5 42.5t-8.5 31.5q-23 33 -37 45q-42 37 -67 -23q-47 -103 -85.5 -185.5t-69.5 -146.5q-54 -112 -97.5 -196.5 t-77.5 -142.5q-89 -152 -114 -135q-22 15 28 137q20 50 50 115.5t72 148.5q31 61 65.5 127t74.5 138q32 63 16 104q-10 22 -19 32q-13 16 -25 23q-14 11 -25.5 5t-26.5 -34q-43 -79 -81 -151t-71 -138q-42 -84 -74 -155.5t-57 -134.5q-58 -145 -64 -227zM722 1080 q9 -1 14 4.5t8 20.5q7 39 15 76.5t20 92.5q7 28 12 51t10 41q6 19 6.5 27.5t-1.5 23.5q-2 7 -6 14l-11 22q-5 8 -12 7t-19 -14q-14 -14 -31.5 -33.5t-38.5 -42.5q-21 -25 -37.5 -45t-29.5 -36q-13 -15 -26 -31.5t-27 -35.5q-12 -17 -15 -31t-1.5 -25.5t4 -20.5t2.5 -16 q6 -21 22 1q17 20 32 37.5t29 34.5q20 23 37 42t31 36q-21 -104 -21 -108q-4 -17 -6 -29.5t-4 -20.5q-3 -28 11 -34q18 -8 33 -8z" unicode="Û" glyph-name="Ucircumflex" horiz-adv-x="451"/>
<glyph d="M48 133q-3 -33 2 -59t14 -45q22 -42 80 -50q29 -4 55.5 4.5t57.5 30.5q56 46 133 168q35 57 74.5 128.5t82.5 159.5q35 71 79.5 166.5t99.5 216.5q14 29 15.5 42.5t-8.5 31.5q-23 33 -37 45q-42 37 -67 -23q-47 -103 -85.5 -185.5t-69.5 -146.5q-54 -112 -97.5 -196.5 t-77.5 -142.5q-89 -152 -114 -135q-22 15 28 137q20 50 50 115.5t72 148.5q31 61 65.5 127t74.5 138q32 63 16 104q-10 22 -19 32q-13 16 -25 23q-14 11 -25.5 5t-26.5 -34q-43 -79 -81 -151t-71 -138q-42 -84 -74 -155.5t-57 -134.5q-58 -145 -64 -227zM523 1176 q-17 -43 -10.5 -69.5t29.5 -24.5q21 0 45 25q18 18 31 42q4 7 7.5 13.5t5.5 13.5q9 25 7 47t-17 33q-22 15 -53 -12q-28 -26 -45 -68zM698 1176q-18 -45 -12 -71t31 -25q20 0 44 25q10 10 17.5 21t13.5 22q4 7 7 14l6 14q9 24 7 45.5t-17 32.5q-23 15 -53 -12 q-28 -25 -44 -66z" unicode="Ü" glyph-name="Udieresis" horiz-adv-x="451"/>
<glyph d="M708 837q21 33 26.5 51t1.5 40q-8 30 -16 45q-12 26 -26.5 29.5t-31.5 -26.5q-28 -42 -49.5 -73t-35.5 -53q-56 -80 -87 -126q-18 -26 -40.5 -57.5t-48.5 -68.5q20 97 34.5 176.5t24.5 143.5q4 35 1 49t-15 20q-11 6 -25.5 6.5t-43.5 -4.5q-17 -4 -24 -13.5t-12 -36.5 l-109 -565q-13 -26 -25 -52t-23 -52q-22 -49 -41 -94q-13 -28 -22 -47.5l-15 -32.5q-14 -33 -16 -50.5t6 -36.5q4 -5 10 -10.5t14 -12.5q5 -4 11.5 -9t14.5 -11q14 -8 22 -2.5t21 32.5q8 17 19 41t25 54q14 31 26 55.5t21 43.5q12 25 25 51l27 54q43 60 80 111t68 94 q35 49 68.5 97.5t66.5 96.5t56 84t37 59zM815 1264q8 30 9.5 46.5t-6.5 24.5q-14 17 -26.5 18t-27.5 -11q-32 -29 -76 -61q-17 -13 -37.5 -26.5t-43.5 -28.5q-19 -12 -39 -24.5t-41 -25.5q-23 -18 -25 -41l3 -18q12 -17 24 -22t26 3q64 31 141 81q34 22 63.5 43.5t55.5 41.5 z" unicode="Ý" glyph-name="Yacute" horiz-adv-x="434"/>
<glyph d="M494 919q-8 18 -23.5 34.5t-31.5 24.5q-15 8 -26 1.5t-26 -34.5q-51 -99 -129 -264q-33 -70 -69.5 -150t-78.5 -171q-78 -171 -111 -252q-15 -34 -17 -52.5t8 -33.5q7 -12 21 -23q6 -6 27 -19q14 -7 22 -1.5t19 28.5q5 11 11 23t11 23q4 8 9.5 20t13.5 28q93 40 189 107 q101 72 167 148q49 57 75 100q36 60 47.5 119.5t10.5 104.5q0 43 -9 90q-11 42 -47 48t-91 -13q3 7 10 18.5t11 20.5q14 28 15.5 42.5t-8.5 32.5zM233 325q20 39 37 73t32 63q34 67 63 123q55 32 94 34t32 -25q-4 -32 -39 -82q-36 -52 -91 -100q-31 -27 -62.5 -48.5 t-65.5 -37.5z" unicode="Þ" glyph-name="Thorn" horiz-adv-x="438"/>
<glyph d="M926 905q0 15 -3 17q-2 2 -5 18q-2 16 -13.5 16.5t-31.5 -19.5q-34 -32 -89.5 -88.5t-133.5 -139.5q-120 -126 -282 -303q-63 -69 -114 -125.5t-91 -101.5q-24 -27 -34 -46q-7 -18 -8.5 -26.5t-0.5 -15.5q1 -1 2 -1t2 -1q1 -2 5 -6q4 -19 12.5 -18t28.5 23q47 51 102 109 t121 125q58 60 127.5 131.5t151.5 155.5q73 75 127 129.5t89 88.5q21 21 29 36t9 42zM290 538q29 26 57 56t57 62q61 69 97.5 123t51.5 89q20 46 20 89q-1 36 -19 60q-15 20 -39 18.5t-52 -18.5t-57.5 -47t-56.5 -68q-22 -32 -25.5 -45.5t4.5 -21.5q14 -11 34 -9.5t41 19.5 q36 40 57 57q8 2 15.5 5t15.5 6q6 -11 -48 -81q-25 -32 -56.5 -70t-69.5 -81q-81 -90 -144 -147q-14 -14 -18 -29q-2 -8 -2 -20q0 -11 1.5 -24t4 -25t5.5 -19q2 -11 8 -13.5t25 3.5q30 10 77 21q23 5 42.5 8.5t36.5 5.5q10 3 14.5 8.5t5.5 17.5q2 12 3 28t0 28q0 25 -15 24 q-7 -1 -14 -1q-6 0 -12 -1q-13 -2 -24 -4t-21 -4zM677 299q13 8 23.5 15t20.5 15q11 8 20.5 16.5t17.5 17.5q30 31 49 80q22 57 15 108q-8 45 -31 55q-16 7 -43.5 -2t-61.5 -37q-16 -13 -29.5 -26.5t-26.5 -27.5q-17 -22 -11 -41q6 -20 27 -25t41 14q24 18 37 25.5t18 7.5 t7 -15q2 -14 -42 -53q-25 -22 -57 -42.5t-74 -40.5q-18 -9 -21 -39q0 -33 11 -51t30 -13q11 3 19.5 2.5t12.5 -5.5t3.5 -16.5t-7.5 -32.5q-12 -29 -36 -58q-28 -32 -50.5 -34t-43.5 29q-21 26 -56 1q-11 -9 -15 -23t3 -38q10 -44 33 -63q19 -16 51 -16t64 18q35 21 72 68 t52 100q17 53 3 97q-4 13 -10 19q-2 2 -6 4.5t-9 6.5z" unicode="ß" glyph-name="germandbls" horiz-adv-x="682"/>
<glyph d="M363 242q-7 -22 -14.5 -45.5t-15.5 -49.5q-13 -46 -23.5 -81.5t-9.5 -50.5t14 -24q10 -11 27 -12q4 -1 12 -2t16 -0.5t16 2.5t12 7q9 9 17 32q23 72 48 148.5t53 158.5q28 83 54.5 159.5t52.5 148.5q27 78 49.5 139.5t39.5 107.5q13 32 13.5 50t-14.5 28q-20 11 -31 17.5 t-14 8.5q-31 14 -70 17q-24 3 -46 -13q-8 -7 -18 -17.5t-21 -26.5q-32 -48 -74 -111.5t-93 -143.5q-54 -85 -100.5 -158.5t-85.5 -137.5q-46 -75 -85 -141t-73 -126q-26 -48 -28 -64q-2 -14 9 -41q2 -5 5.5 -10t8.5 -10q3 -4 6 -7l7 -7q12 -10 20.5 -6.5t22.5 25.5 q5 9 14 23t20 34q9 14 18 29l18 30q5 8 14.5 23.5t25.5 39.5q13 5 28.5 10.5t34.5 11.5q31 9 67.5 17.5t72.5 17.5zM593 1270q22 -41 57 -84q20 -26 41 -46t41 -35q17 -17 64 18q11 9 17 19q15 22 4 41q-40 43 -65 77q-17 24 -30.5 46t-21.5 42q-5 13 -18.5 12t-39.5 -18 q-14 -9 -25.5 -26t-23.5 -46zM301 411q35 55 68.5 107t65.5 101q31 48 60 91.5t56 85.5q-21 -57 -42 -117q-4 -11 -14.5 -41t-27.5 -80q-20 -60 -30.5 -91t-11.5 -33q-29 -3 -60 -9t-64 -14z" unicode="à" glyph-name="agrave" horiz-adv-x="479"/>
<glyph d="M363 242q-7 -22 -14.5 -45.5t-15.5 -49.5q-13 -46 -23.5 -81.5t-9.5 -50.5t14 -24q10 -11 27 -12q4 -1 12 -2t16 -0.5t16 2.5t12 7q9 9 17 32q23 72 48 148.5t53 158.5q28 83 54.5 159.5t52.5 148.5q27 78 49.5 139.5t39.5 107.5q13 32 13.5 50t-14.5 28q-20 11 -31 17.5 t-14 8.5q-31 14 -70 17q-24 3 -46 -13q-8 -7 -18 -17.5t-21 -26.5q-32 -48 -74 -111.5t-93 -143.5q-54 -85 -100.5 -158.5t-85.5 -137.5q-46 -75 -85 -141t-73 -126q-26 -48 -28 -64q-2 -14 9 -41q2 -5 5.5 -10t8.5 -10q3 -4 6 -7l7 -7q12 -10 20.5 -6.5t22.5 25.5 q5 9 14 23t20 34q9 14 18 29l18 30q5 8 14.5 23.5t25.5 39.5q13 5 28.5 10.5t34.5 11.5q31 9 67.5 17.5t72.5 17.5zM874 1264q16 55 3 71q-14 17 -26.5 18t-27.5 -11q-17 -15 -35.5 -30t-39.5 -31q-17 -13 -37.5 -26.5t-43.5 -28.5q-20 -12 -40 -24.5t-41 -25.5 q-24 -19 -25 -41l3 -18q12 -17 24 -22t26 3q64 31 141 81q34 22 63.5 43.5t55.5 41.5zM301 411q35 55 68.5 107t65.5 101q31 48 60 91.5t56 85.5q-21 -57 -42 -117q-4 -11 -14.5 -41t-27.5 -80q-20 -60 -30.5 -91t-11.5 -33q-29 -3 -60 -9t-64 -14z" unicode="á" glyph-name="aacute" horiz-adv-x="479"/>
<glyph d="M363 242q-7 -22 -14.5 -45.5t-15.5 -49.5q-13 -46 -23.5 -81.5t-9.5 -50.5t14 -24q10 -11 27 -12q4 -1 12 -2t16 -0.5t16 2.5t12 7q9 9 17 32q23 72 48 148.5t53 158.5q28 83 54.5 159.5t52.5 148.5q27 78 49.5 139.5t39.5 107.5q13 32 13.5 50t-14.5 28q-20 11 -31 17.5 t-14 8.5q-31 14 -70 17q-24 3 -46 -13q-8 -7 -18 -17.5t-21 -26.5q-32 -48 -74 -111.5t-93 -143.5q-54 -85 -100.5 -158.5t-85.5 -137.5q-46 -75 -85 -141t-73 -126q-26 -48 -28 -64q-2 -14 9 -41q2 -5 5.5 -10t8.5 -10q3 -4 6 -7l7 -7q12 -10 20.5 -6.5t22.5 25.5 q5 9 14 23t20 34q9 14 18 29l18 30q5 8 14.5 23.5t25.5 39.5q13 5 28.5 10.5t34.5 11.5q31 9 67.5 17.5t72.5 17.5zM778 1084q10 -1 14.5 4.5t7.5 20.5q2 11 6.5 31.5t10.5 49.5t10.5 51t7.5 37q6 26 11.5 49t10.5 43q3 10 4.5 16.5t2 11.5t0 10t-1.5 13q-4 10 -6 14l-11 22 q-5 9 -11.5 8t-19.5 -16q-44 -46 -104 -116q-23 -29 -44.5 -55.5t-41.5 -51.5q-18 -22 -16.5 -48t7.5 -44q5 -22 22 0q10 11 19.5 23t19.5 24q8 10 19 22.5t24 27.5q11 12 22.5 25.5t24.5 27.5q-14 -63 -18 -88q-10 -48 -13 -72.5t11 -31.5q7 -5 15.5 -6.5t16.5 -1.5z M301 411q35 55 68.5 107t65.5 101q31 48 60 91.5t56 85.5q-21 -57 -42 -117q-4 -11 -14.5 -41t-27.5 -80q-20 -60 -30.5 -91t-11.5 -33q-29 -3 -60 -9t-64 -14z" unicode="â" glyph-name="acircumflex" horiz-adv-x="479"/>
<glyph d="M363 242q-7 -22 -14.5 -45.5t-15.5 -49.5q-13 -46 -23.5 -81.5t-9.5 -50.5t14 -24q10 -11 27 -12q4 -1 12 -2t16 -0.5t16 2.5t12 7q9 9 17 32q23 72 48 148.5t53 158.5q28 83 54.5 159.5t52.5 148.5q27 78 49.5 139.5t39.5 107.5q13 32 13.5 50t-14.5 28q-20 11 -31 17.5 t-14 8.5q-31 14 -70 17q-24 3 -46 -13q-8 -7 -18 -17.5t-21 -26.5q-32 -48 -74 -111.5t-93 -143.5q-54 -85 -100.5 -158.5t-85.5 -137.5q-46 -75 -85 -141t-73 -126q-26 -48 -28 -64q-2 -14 9 -41q2 -5 5.5 -10t8.5 -10q3 -4 6 -7l7 -7q12 -10 20.5 -6.5t22.5 25.5 q5 9 14 23t20 34q9 14 18 29l18 30q5 8 14.5 23.5t25.5 39.5q13 5 28.5 10.5t34.5 11.5q31 9 67.5 17.5t72.5 17.5zM739 1108q31 0 84 48q29 23 46.5 44.5t23.5 39.5q6 17 -2 30q-7 9 -21 9t-34 -18l-14 -14t-14 -15q-11 -11 -18 -15.5t-13 -4t-11.5 5t-14.5 13.5 q-10 11 -16.5 17.5l-8.5 8.5q-23 18 -47 18q-25 0 -75 -34q-52 -33 -72 -61q-12 -17 -18 -33q-13 -37 11 -37q26 0 42 13q18 17 34.5 30t26.5 13q6 0 14 -3t16.5 -7.5t15.5 -10t10 -11.5q11 -26 55 -26zM301 411q35 55 68.5 107t65.5 101q31 48 60 91.5t56 85.5 q-21 -57 -42 -117q-4 -11 -14.5 -41t-27.5 -80q-20 -60 -30.5 -91t-11.5 -33q-29 -3 -60 -9t-64 -14z" unicode="ã" glyph-name="atilde" horiz-adv-x="479"/>
<glyph d="M363 242q-7 -22 -14.5 -45.5t-15.5 -49.5q-13 -46 -23.5 -81.5t-9.5 -50.5t14 -24q10 -11 27 -12q4 -1 12 -2t16 -0.5t16 2.5t12 7q9 9 17 32q23 72 48 148.5t53 158.5q28 83 54.5 159.5t52.5 148.5q27 78 49.5 139.5t39.5 107.5q13 32 13.5 50t-14.5 28q-20 11 -31 17.5 t-14 8.5q-31 14 -70 17q-24 3 -46 -13q-8 -7 -18 -17.5t-21 -26.5q-32 -48 -74 -111.5t-93 -143.5q-54 -85 -100.5 -158.5t-85.5 -137.5q-46 -75 -85 -141t-73 -126q-26 -48 -28 -64q-2 -14 9 -41q2 -5 5.5 -10t8.5 -10q3 -4 6 -7l7 -7q12 -10 20.5 -6.5t22.5 25.5 q5 9 14 23t20 34q9 14 18 29l18 30q5 8 14.5 23.5t25.5 39.5q13 5 28.5 10.5t34.5 11.5q31 9 67.5 17.5t72.5 17.5zM301 411q35 55 68.5 107t65.5 101q31 48 60 91.5t56 85.5q-21 -57 -42 -117q-4 -11 -14.5 -41t-27.5 -80q-20 -60 -30.5 -91t-11.5 -33q-29 -3 -60 -9 t-64 -14zM568 1183q-17 -43 -11 -70.5t30 -24.5q21 0 45 25q21 20 32 43q3 6 6.5 12.5t5.5 14.5q10 25 8 46.5t-18 32.5q-22 15 -52 -12q-28 -24 -46 -67zM743 1183q-18 -45 -11.5 -72t31.5 -24q20 0 44 25q17 18 31 42q4 9 6 12.5t6 16.5q9 25 7 46t-16 32q-22 15 -53 -11 q-29 -24 -45 -67z" unicode="ä" glyph-name="adieresis" horiz-adv-x="479"/>
<glyph d="M363 242q-7 -22 -14.5 -45.5t-15.5 -49.5q-13 -46 -23.5 -81.5t-9.5 -50.5t14 -24q10 -11 27 -12q4 -1 12 -2t16 -0.5t16 2.5t12 7q9 9 17 32q23 72 48 148.5t53 158.5q28 83 54.5 159.5t52.5 148.5q27 78 49.5 139.5t39.5 107.5q13 32 13.5 50t-14.5 28q-20 11 -31 17.5 t-14 8.5q-31 14 -70 17q-24 3 -46 -13q-8 -7 -18 -17.5t-21 -26.5q-32 -48 -74 -111.5t-93 -143.5q-54 -85 -100.5 -158.5t-85.5 -137.5q-46 -75 -85 -141t-73 -126q-26 -48 -28 -64q-2 -14 9 -41q2 -5 5.5 -10t8.5 -10q3 -4 6 -7l7 -7q12 -10 20.5 -6.5t22.5 25.5 q5 9 14 23t20 34q9 14 18 29l18 30q5 8 14.5 23.5t25.5 39.5q13 5 28.5 10.5t34.5 11.5q31 9 67.5 17.5t72.5 17.5zM868 1347q-20 18 -51.5 22t-63.5 -14q-67 -44 -113 -121q-47 -78 -43 -130q2 -24 20 -35q8 -8 20.5 -11.5t29.5 -4.5q36 -6 73 18q54 41 93 110 q19 32 30.5 61.5t16.5 57.5q1 14 -1.5 26.5t-10.5 20.5zM301 411q35 55 68.5 107t65.5 101q31 48 60 91.5t56 85.5q-21 -57 -42 -117q-4 -11 -14.5 -41t-27.5 -80q-20 -60 -30.5 -91t-11.5 -33q-29 -3 -60 -9t-64 -14zM805 1314q12 -3 -1 -42q-14 -39 -36 -75 q-26 -44 -54 -72q-27 -27 -40 -21q-13 4 -1 41q13 36 36 73q12 19 25.5 35.5t27.5 31.5q32 32 43 29z" unicode="å" glyph-name="aring" horiz-adv-x="479"/>
<glyph d="M820 959q-19 11 -29.5 17.5t-13.5 8.5q-30 14 -69 17q-23 3 -46 -13q-20 -14 -44 -44q-42 -52 -91 -115.5t-106 -139.5q-54 -72 -108.5 -145.5t-111.5 -150.5q-58 -79 -105 -145.5t-85 -121.5q-32 -47 -36 -69q-1 -8 5 -36q5 -11 14 -23l4 -6t4 -5q12 -10 21 -6.5 t25 26.5q14 20 24.5 34t15.5 22q11 14 21.5 29t21.5 30q13 17 24.5 33t22.5 30q15 6 31.5 11.5t33.5 10.5q14 4 31.5 8.5t39.5 9.5q33 8 51 11.5t21 4.5q-11 -25 -21.5 -46.5t-18.5 -40.5q-13 -26 -25 -50.5t-18 -39.5q-13 -33 -9.5 -48t18.5 -25q4 -9 43 -9q38 -1 56 5 l193 64q20 7 27 16.5t13 35.5q3 22 6.5 47t3.5 45q2 22 -5.5 30t-35.5 4q-27 -3 -57.5 -9t-60.5 -16q2 3 5 10.5t3 8.5l7.5 15t15.5 30q16 31 26 50.5t14 28.5q31 10 87 27q38 11 59.5 17t27.5 8q20 7 27 16.5t11 35.5q7 31 9.5 50.5t2.5 40.5q5 22 -5.5 29t-28.5 7 t-39 -4.5t-37 -6.5q21 39 39.5 75t36.5 72q8 17 17 33t18 33q21 5 42.5 9.5t44.5 9.5q13 2 32.5 5.5t46.5 8.5q19 4 26.5 13.5t13.5 35.5q3 13 5 21.5t3 12.5q5 27 6 55q7 45 -30 44q-35 -1 -81 -14q-39 -11 -77 -25q-1 1 -2 1zM346 412q26 36 53 71.5t54 70.5q24 31 99 129 q28 36 50 64.5t39 49.5q-8 -17 -22 -46t-34 -71q-14 -31 -28 -61l-28 -60q-8 -17 -22 -48t-34 -76q-28 -3 -59.5 -9t-67.5 -14z" unicode="æ" glyph-name="ae" horiz-adv-x="704"/>
<glyph d="M1 -264q15 18 33.5 42.5t40.5 56.5q23 34 41 63t32 54q1 1 1 2t1 3q2 2 2.5 4t1.5 3q27 0 58.5 14t56.5 36q28 27 60 66q17 20 31.5 41t27.5 43q27 43 33 68q6 24 -13 36q-50 33 -114 -42q-91 -106 -111 -88q-21 14 18 125q18 53 43 109.5t57 118.5q20 37 42 75.5 t48 79.5q27 43 50 76t42 56q43 55 56 47q8 -8 2 -35q-2 -10 -7 -25.5t-13 -36.5q-4 -9 -7 -19.5t-7 -22.5q-14 -57 -6.5 -87.5t41.5 -44.5q12 -6 20.5 -1.5t25.5 33.5q10 20 21 44.5t22 51t20.5 53.5t17.5 51q15 48 17 79t-9 62q-7 14 -17 26t-23 23q-28 24 -57 28 q-12 1 -24.5 -1t-25.5 -7q-30 -13 -67 -47q-94 -91 -192 -250q-96 -155 -161 -312q-34 -83 -53 -150t-23 -119q-4 -34 2.5 -61.5t19.5 -43.5l8 -8l-159 -251q-27 -41 -1 -50q5 -1 8.5 -2t7.5 -2q17 -3 29 0q22 1 52 36z" unicode="ç" glyph-name="ccedilla" horiz-adv-x="428"/>
<glyph d="M380 923l-348 -751q-14 -32 -17.5 -57t-1 -45.5t8.5 -37t12 -29.5q6 -16 18 -21t40 6l194 64q19 7 26 16.5t13 35.5q4 30 6.5 51t3.5 41q1 22 -6.5 30t-25.5 5q-36 -4 -66.5 -10t-61.5 -16l73 143q20 7 46.5 15t60.5 18q23 7 39 11.5t26 7.5t17 6.5t11 9t6.5 14.5t5.5 24 q6 29 8.5 48.5t2.5 40.5q5 22 -5 29t-28 7t-39.5 -4.5t-38.5 -6.5q17 31 26.5 49.5t13.5 26.5q9 17 18 35t19 36q11 20 19.5 36.5t15.5 29.5q28 7 68.5 15t97.5 18q18 3 26.5 13t14.5 37q7 32 9 44t2.5 23t1.5 21q6 46 -26 44q-33 -2 -70 -9.5t-79 -18.5q-69 -18 -137 -45z M547 1264q19 -39 57 -85q20 -26 41 -46t41 -35q15 -15 63 19q4 5 8 9l9 9q15 23 5 41q-26 28 -44 50q-23 28 -41 55q-20 32 -32 61q-6 12 -19 11t-39 -18q-14 -8 -25.5 -25.5t-23.5 -45.5z" unicode="è" glyph-name="egrave" horiz-adv-x="385"/>
<glyph d="M380 923l-348 -751q-14 -32 -17.5 -57t-1 -45.5t8.5 -37t12 -29.5q6 -16 18 -21t40 6l194 64q19 7 26 16.5t13 35.5q4 30 6.5 51t3.5 41q1 22 -6.5 30t-25.5 5q-36 -4 -66.5 -10t-61.5 -16l73 143q20 7 46.5 15t60.5 18q23 7 39 11.5t26 7.5t17 6.5t11 9t6.5 14.5t5.5 24 q6 29 8.5 48.5t2.5 40.5q5 22 -5 29t-28 7t-39.5 -4.5t-38.5 -6.5q17 31 26.5 49.5t13.5 26.5q9 17 18 35t19 36q11 20 19.5 36.5t15.5 29.5q28 7 68.5 15t97.5 18q18 3 26.5 13t14.5 37q7 32 9 44t2.5 23t1.5 21q6 46 -26 44q-33 -2 -70 -9.5t-79 -18.5q-69 -18 -137 -45z M815 1264q8 30 9.5 46.5t-6.5 24.5q-14 17 -26.5 18t-27.5 -11q-32 -29 -76 -61q-17 -13 -37.5 -26.5t-43.5 -28.5q-19 -12 -39 -24.5t-41 -25.5q-23 -18 -25 -41l3 -18q12 -17 24 -22t26 3q64 31 141 81q34 22 63.5 43.5t55.5 41.5z" unicode="é" glyph-name="eacute" horiz-adv-x="385"/>
<glyph d="M380 923l-348 -751q-14 -32 -17.5 -57t-1 -45.5t8.5 -37t12 -29.5q6 -16 18 -21t40 6l194 64q19 7 26 16.5t13 35.5q4 30 6.5 51t3.5 41q1 22 -6.5 30t-25.5 5q-36 -4 -66.5 -10t-61.5 -16l73 143q20 7 46.5 15t60.5 18q23 7 39 11.5t26 7.5t17 6.5t11 9t6.5 14.5t5.5 24 q6 29 8.5 48.5t2.5 40.5q5 22 -5 29t-28 7t-39.5 -4.5t-38.5 -6.5q17 31 26.5 49.5t13.5 26.5q9 17 18 35t19 36q11 20 19.5 36.5t15.5 29.5q28 7 68.5 15t97.5 18q18 3 26.5 13t14.5 37q7 32 9 44t2.5 23t1.5 21q6 46 -26 44q-33 -2 -70 -9.5t-79 -18.5q-69 -18 -137 -45z M722 1080q9 -1 14 4.5t8 20.5q7 39 15 76.5t20 92.5q7 28 12 51t10 41q6 19 6.5 27.5t-1.5 23.5q-2 7 -6 14l-11 22q-5 8 -12 7t-19 -14q-14 -14 -31.5 -33.5t-38.5 -42.5q-21 -25 -37.5 -45t-29.5 -36q-13 -15 -26 -31.5t-27 -35.5q-12 -17 -15 -31t-1.5 -25.5t4 -20.5 t2.5 -16q6 -21 22 1q17 20 32 37.5t29 34.5q20 23 37 42t31 36q-21 -104 -21 -108q-4 -17 -6 -29.5t-4 -20.5q-3 -28 11 -34q18 -8 33 -8z" unicode="ê" glyph-name="ecircumflex" horiz-adv-x="385"/>
<glyph d="M380 923l-348 -751q-14 -32 -17.5 -57t-1 -45.5t8.5 -37t12 -29.5q6 -16 18 -21t40 6l194 64q19 7 26 16.5t13 35.5q4 30 6.5 51t3.5 41q1 22 -6.5 30t-25.5 5q-36 -4 -66.5 -10t-61.5 -16l73 143q20 7 46.5 15t60.5 18q23 7 39 11.5t26 7.5t17 6.5t11 9t6.5 14.5t5.5 24 q6 29 8.5 48.5t2.5 40.5q5 22 -5 29t-28 7t-39.5 -4.5t-38.5 -6.5q17 31 26.5 49.5t13.5 26.5q9 17 18 35t19 36q11 20 19.5 36.5t15.5 29.5q28 7 68.5 15t97.5 18q18 3 26.5 13t14.5 37q7 32 9 44t2.5 23t1.5 21q6 46 -26 44q-33 -2 -70 -9.5t-79 -18.5q-69 -18 -137 -45z M494 1176q-17 -43 -10.5 -69.5t30.5 -24.5q20 0 44 25q21 21 31 42q4 7 7.5 13.5t5.5 13.5q9 26 7 47.5t-17 32.5q-23 15 -53 -12q-28 -26 -45 -68zM669 1176q-18 -43 -11.5 -70t30.5 -26q20 0 44 25q9 10 17 20.5t15 22.5l6 14l6 14q9 24 7 45.5t-17 32.5q-23 15 -53 -12 q-28 -25 -44 -66z" unicode="ë" glyph-name="edieresis" horiz-adv-x="385"/>
<glyph d="M494 919q-8 18 -23.5 34.5t-31.5 24.5q-15 8 -26 1.5t-26 -34.5q-51 -99 -129 -264q-33 -70 -69.5 -150t-78.5 -171q-78 -171 -111 -252q-15 -34 -17 -52.5t8 -33.5q7 -12 21 -23q6 -6 27 -19q14 -7 22 -1.5t20 29.5q28 60 60 128.5t70 147.5q43 88 80.5 165t69.5 143 q40 81 71.5 143.5t55.5 108.5q14 28 15.5 42.5t-8.5 32.5zM441 1291q10 -20 24.5 -40.5t33.5 -43.5q40 -51 81 -81q16 -17 63 18q10 7 17 18q15 24 5 42q-39 42 -65 77q-18 23 -31 45.5t-21 42.5q-5 13 -19 11.5t-39 -18.5q-13 -8 -24.5 -25t-24.5 -46z" unicode="ì" glyph-name="igrave" horiz-adv-x="208"/>
<glyph d="M494 919q-8 18 -23.5 34.5t-31.5 24.5q-15 8 -26 1.5t-26 -34.5q-51 -99 -129 -264q-33 -70 -69.5 -150t-78.5 -171q-78 -171 -111 -252q-15 -34 -17 -52.5t8 -33.5q7 -12 21 -23q6 -6 27 -19q14 -7 22 -1.5t20 29.5q28 60 60 128.5t70 147.5q43 88 80.5 165t69.5 143 q40 81 71.5 143.5t55.5 108.5q14 28 15.5 42.5t-8.5 32.5zM743 1266q8 30 9 47t-6 25q-14 16 -26.5 17.5t-27.5 -11.5q-24 -21 -53 -43t-63 -45q-26 -17 -56.5 -36.5t-64.5 -40.5q-23 -18 -25 -42l3 -18q12 -17 24 -22t26 4q63 31 141 81q34 22 63.5 43t55.5 41z" unicode="í" glyph-name="iacute" horiz-adv-x="208"/>
<glyph d="M494 919q-8 18 -23.5 34.5t-31.5 24.5q-15 8 -26 1.5t-26 -34.5q-51 -99 -129 -264q-33 -70 -69.5 -150t-78.5 -171q-78 -171 -111 -252q-15 -34 -17 -52.5t8 -33.5q7 -12 21 -23q6 -6 27 -19q14 -7 22 -1.5t20 29.5q28 60 60 128.5t70 147.5q43 88 80.5 165t69.5 143 q40 81 71.5 143.5t55.5 108.5q14 28 15.5 42.5t-8.5 32.5zM623 1074q16 -3 22 24q7 42 15 78q5 26 9.5 49t9.5 43q5 24 11 47t12 45q6 19 6 27q0 9 -2 23q-2 7 -8 18.5t-9 18.5q-5 8 -12 7t-19 -15q-14 -14 -31.5 -33t-37.5 -43q-37 -43 -68 -81t-53 -67q-16 -21 -15 -46.5 t5 -45.5q4 -12 8 -12q5 0 14 12q14 17 29.5 34.5t32.5 37.5q20 23 37 43t31 36q-2 -10 -6.5 -32t-11.5 -56q-5 -27 -8.5 -45t-4.5 -26q-3 -28 11 -33q8 -4 16 -6t17 -2z" unicode="î" glyph-name="icircumflex" horiz-adv-x="208"/>
<glyph d="M494 919q-8 18 -23.5 34.5t-31.5 24.5q-15 8 -26 1.5t-26 -34.5q-51 -99 -129 -264q-33 -70 -69.5 -150t-78.5 -171q-78 -171 -111 -252q-15 -34 -17 -52.5t8 -33.5q7 -12 21 -23q6 -6 27 -19q14 -7 22 -1.5t20 29.5q28 60 60 128.5t70 147.5q43 88 80.5 165t69.5 143 q40 81 71.5 143.5t55.5 108.5q14 28 15.5 42.5t-8.5 32.5zM583 1176q-18 -43 -11 -70t31 -26q22 0 44 25q9 10 17 20.5t15 22.5l6 14l6 14q9 24 7 45.5t-17 32.5q-23 15 -53 -12q-27 -23 -45 -66zM409 1176q-17 -43 -10.5 -69.5t30.5 -24.5q20 0 44 25q21 21 31 42 q4 7 7.5 13.5t5.5 13.5q9 26 7 47.5t-17 32.5q-23 15 -53 -12q-28 -26 -45 -68z" unicode="ï" glyph-name="idieresis" horiz-adv-x="208"/>
<glyph d="M414 825q-33 -11 -36 -70q-1 -18 3 -22q6 -6 7 -26q6 -44 34 -31q3 0 9 2.5t8 3.5q-6 -21 -13.5 -44.5t-17.5 -49.5q-24 19 -61 15q-55 -5 -100 -38q-39 -28 -82 -85q-38 -49 -69 -102t-56 -112q-44 -104 -48 -171q0 -45 21 -67q25 -29 87 -27q67 7 126 53q56 44 118 131 q46 64 89 140q26 45 49 90t43 93q24 54 44 107t36 106q8 2 25 4t26 3q16 1 23.5 10.5t10.5 37.5l1 18l1 25q-2 48 -19 48q-18 0 -22 -1h-11q7 35 10.5 63.5t0.5 37.5q-3 8 -20 13q-23 4 -47 4.5t-41 -3.5q-23 -7 -35 -20t-15 -39q-4 -21 -7.5 -41t-6.5 -37q-17 -5 -33 -9.5 t-32 -9.5zM298 328q-22 -42 -40.5 -73.5t-34.5 -53.5q-34 -48 -58 -53.5t-20 35.5q5 43 39 116q14 32 28.5 59t29 47t27 32t23.5 13q22 2 24 -33t-18 -89z" unicode="ð" glyph-name="eth" horiz-adv-x="408"/>
<glyph d="M406 408l20 80t20 82q4 14 13.5 52t26.5 102q10 40 17 67.5t12 44.5q11 40 10.5 60t-14.5 32q-13 17 -31 30q-5 4 -13.5 9t-20.5 13q-14 9 -27.5 0.5t-29.5 -38.5q-25 -49 -59 -118.5t-78 -162.5q-37 -78 -74 -157.5t-75 -163.5q-36 -80 -61.5 -136t-39.5 -90 q-15 -34 -17.5 -52.5t6.5 -32.5q4 -13 15 -22q4 -5 33 -21q13 -9 21.5 -4t19.5 28l249 529q-16 -68 -29 -127.5t-24 -113.5q-12 -60 -21 -109t-14 -89q-9 -57 13 -78t50 -34q31 -15 52 34q31 66 62.5 134t65.5 140q100 216 141 300q35 72 66 135.5t59 119.5q15 31 18 48.5 t-7 35.5q-12 22 -22 30q-8 8 -25 15q-15 9 -27.5 1t-25.5 -36q-18 -35 -37.5 -75t-41.5 -85q-25 -51 -46.5 -95.5t-40.5 -86.5q-23 -49 -45 -97.5t-44 -97.5zM739 1108q31 0 84 48q29 23 46.5 44.5t23.5 39.5q6 17 -2 30q-7 9 -21 9t-34 -18l-14 -14t-14 -15 q-11 -11 -18 -15.5t-13 -4t-11.5 5t-14.5 13.5q-10 11 -16.5 17.5l-8.5 8.5q-23 18 -47 18q-25 0 -75 -34q-52 -33 -72 -61q-12 -17 -18 -33q-13 -37 11 -37q26 0 42 13q18 17 34.5 30t26.5 13q6 0 14 -3t16.5 -7.5t15.5 -10t10 -11.5q11 -26 55 -26z" unicode="ñ" glyph-name="ntilde" horiz-adv-x="468"/>
<glyph unicode="ò" glyph-name="ograve" d="M673 915q-10 27 -33 46t-50 27q-26 8 -59.5 -5.5t-64.5 -41.5q-47 -45 -93 -104t-93 -134q-86 -140 -148 -295q-61 -153 -75 -266q-3 -33 2.5 -62.5t17.5 -49.5t36 -34q14 -8 35 -13.5t46 -3.5t53 16t56 45q76 84 156 219q36 63 68 128t61 135q28 67 48.5 127.5 t34.5 116.5q11 51 12 85.5t-10 63.5zM542 812q19 -10 -26 -138q-43 -123 -100 -235q-71 -143 -132 -227q-64 -88 -85 -70q-21 16 20 137q38 112 100 228q32 60 64.5 113t66.5 101q74 104 92 91zM547 1264q19 -39 57 -85q20 -26 41 -46t41 -35q15 -15 63 19q4 5 8 9l9 9 q15 23 5 41q-26 28 -44 50q-23 28 -41 55q-20 32 -32 61q-6 12 -19 11t-39 -18q-14 -8 -25.5 -25.5t-23.5 -45.5z"/>
<glyph unicode="ó" glyph-name="oacute" d="M673 915q-10 27 -33 46t-50 27q-26 8 -59.5 -5.5t-64.5 -41.5q-47 -45 -93 -104t-93 -134q-86 -140 -148 -295q-61 -153 -75 -266q-3 -33 2.5 -62.5t17.5 -49.5t36 -34q14 -8 35 -13.5t46 -3.5t53 16t56 45q76 84 156 219q36 63 68 128t61 135q28 67 48.5 127.5 t34.5 116.5q11 51 12 85.5t-10 63.5zM542 812q19 -10 -26 -138q-43 -123 -100 -235q-71 -143 -132 -227q-64 -88 -85 -70q-21 16 20 137q38 112 100 228q32 60 64.5 113t66.5 101q74 104 92 91zM815 1264q8 30 9.5 46.5t-6.5 24.5q-14 17 -26.5 18t-27.5 -11 q-32 -29 -76 -61q-17 -13 -37.5 -26.5t-43.5 -28.5q-19 -12 -39 -24.5t-41 -25.5q-23 -18 -25 -41l3 -18q12 -17 24 -22t26 3q64 31 141 81q34 22 63.5 43.5t55.5 41.5z"/>
<glyph unicode="ô" glyph-name="ocircumflex" d="M673 915q-10 27 -33 46t-50 27q-26 8 -59.5 -5.5t-64.5 -41.5q-47 -45 -93 -104t-93 -134q-86 -140 -148 -295q-61 -153 -75 -266q-3 -33 2.5 -62.5t17.5 -49.5t36 -34q14 -8 35 -13.5t46 -3.5t53 16t56 45q76 84 156 219q36 63 68 128t61 135q28 67 48.5 127.5 t34.5 116.5q11 51 12 85.5t-10 63.5zM542 812q19 -10 -26 -138q-43 -123 -100 -235q-71 -143 -132 -227q-64 -88 -85 -70q-21 16 20 137q38 112 100 228q32 60 64.5 113t66.5 101q74 104 92 91zM748 1058q9 -1 14 4.5t8 20.5q14 73 15 77q6 29 11 52t9 40q5 22 10 44.5 t12 47.5q6 19 6 27q0 9 -1 24q-2 7 -6 14q-10 20 -12 22q-4 9 -11 7.5t-19 -15.5q-28 -28 -70 -76t-68 -80q-11 -13 -23.5 -30t-28.5 -37q-18 -22 -16.5 -47.5t6.5 -44.5q7 -22 22 0q10 11 19.5 23t20.5 24q4 5 15 17.5t28 32.5q17 19 28 32t18 21l-6 -34t-7 -34 q-14 -66 -17 -92t11 -32q14 -8 32 -8z"/>
<glyph unicode="õ" glyph-name="otilde" d="M673 915q-10 27 -33 46t-50 27q-26 8 -59.5 -5.5t-64.5 -41.5q-47 -45 -93 -104t-93 -134q-86 -140 -148 -295q-61 -153 -75 -266q-3 -33 2.5 -62.5t17.5 -49.5t36 -34q14 -8 35 -13.5t46 -3.5t53 16t56 45q76 84 156 219q36 63 68 128t61 135q28 67 48.5 127.5 t34.5 116.5q11 51 12 85.5t-10 63.5zM542 812q19 -10 -26 -138q-43 -123 -100 -235q-71 -143 -132 -227q-64 -88 -85 -70q-21 16 20 137q38 112 100 228q32 60 64.5 113t66.5 101q74 104 92 91zM739 1108q31 0 84 48q29 23 46.5 44.5t23.5 39.5q6 17 -2 30q-7 9 -21 9 t-34 -18l-14 -14t-14 -15q-11 -11 -18 -15.5t-13 -4t-11.5 5t-14.5 13.5q-10 11 -16.5 17.5l-8.5 8.5q-23 18 -47 18q-25 0 -75 -34q-52 -33 -72 -61q-12 -17 -18 -33q-13 -37 11 -37q26 0 42 13q18 17 34.5 30t26.5 13q6 0 14 -3t16.5 -7.5t15.5 -10t10 -11.5 q11 -26 55 -26z"/>
<glyph unicode="ö" glyph-name="odieresis" d="M673 915q-10 27 -33 46t-50 27q-26 8 -59.5 -5.5t-64.5 -41.5q-47 -45 -93 -104t-93 -134q-86 -140 -148 -295q-61 -153 -75 -266q-3 -33 2.5 -62.5t17.5 -49.5t36 -34q14 -8 35 -13.5t46 -3.5t53 16t56 45q76 84 156 219q36 63 68 128t61 135q28 67 48.5 127.5 t34.5 116.5q11 51 12 85.5t-10 63.5zM542 812q19 -10 -26 -138q-43 -123 -100 -235q-71 -143 -132 -227q-64 -88 -85 -70q-21 16 20 137q38 112 100 228q32 60 64.5 113t66.5 101q74 104 92 91zM528 1176q-17 -42 -10.5 -69t29.5 -25q21 0 45 25q21 21 31 42q4 7 7.5 13.5 t5.5 13.5q9 25 7 47t-17 33q-22 15 -53 -12q-28 -26 -45 -68zM703 1176q-18 -45 -12 -71t31 -25q20 0 44 25q10 10 17.5 21t13.5 22q4 7 7 14l6 14q9 24 7 45.5t-17 32.5q-23 15 -53 -12q-28 -25 -44 -66z"/>
<glyph d="M557 416q15 0 21.5 8.5t9.5 31.5q3 24 5 42t2 46q0 30 -56 28q-28 0 -52.5 -1.5t-46.5 -3.5q-42 -5 -90 -18q-32 -8 -64.5 -17t-64.5 -17q-14 -3 -25 -14q-9 -8 -13 -23.5t-5 -35t-0.5 -39.5t2.5 -35q4 -19 10 -23t24 1q55 16 129 42q46 16 81 20q19 3 52 5t81 3z M451 764q-24 -58 -15.5 -94t41.5 -33q26 0 59 33q27 28 41 57q6 9 10 18.5t7 18.5q12 33 9.5 62t-21.5 44q-31 19 -72 -16q-37 -34 -59 -90zM223 213q-23 -60 -15 -95t41 -32q26 0 59 33q25 25 42 56q5 9 8.5 18.5t7.5 19.5q12 33 10 62t-23 43q-30 20 -70 -16 q-37 -31 -60 -89z" unicode="÷" glyph-name="divide" horiz-adv-x="488"/>
<glyph unicode="ø" glyph-name="oslash" d="M775 1056q-1 5 -1 9v10q-14 27 -34.5 4.5t-59.5 -79.5q-11 -15 -19 -27t-14 -20q-12 13 -26.5 21t-35.5 15t-54.5 -6.5t-64.5 -41.5q-47 -45 -93 -104t-93 -134q-86 -140 -148 -295q-61 -153 -75 -266q-5 -48 6 -78q-15 -23 -27 -42t-21 -34q-17 -30 -24 -52t0 -37v-3 q-2 1 -6 9q1 -2 1.5 -3.5t1.5 -2.5q9 -15 19 -10.5t25 29.5q8 13 15 22.5t12 17.5q18 28 33 51q12 -10 32 -18q15 -7 35 -11q35 -7 70 7t74 53q76 84 156 219q36 63 68 128t61 135q28 67 48.5 127.5t34.5 116.5q7 33 10 60.5t0 48.5q22 31 40 57t33 46q17 24 22 40.5 t-1 37.5zM416 439q-71 -143 -132 -227q-64 -88 -85 -70q-5 3 -7 17l290 426q-6 -16 -14.5 -35.5t-17.5 -39t-18 -38t-16 -33.5zM542 812q3 -1 5 -7q-22 -33 -46.5 -70t-52.5 -79q-17 -26 -43 -65t-61 -92q-33 -51 -58.5 -90t-42.5 -66q17 43 36 84t40 81q32 60 64.5 112.5 t66.5 100.5q74 104 92 91z"/>
<glyph d="M48 133q-3 -33 2 -59t14 -45q22 -42 80 -50q29 -4 55.5 4.5t57.5 30.5q56 46 133 168q35 57 74.5 128.5t82.5 159.5q35 71 79.5 166.5t99.5 216.5q14 29 15.5 42.5t-8.5 31.5q-23 33 -37 45q-42 37 -67 -23q-47 -103 -85.5 -185.5t-69.5 -146.5q-54 -112 -97.5 -196.5 t-77.5 -142.5q-89 -152 -114 -135q-22 15 28 137q20 50 50 115.5t72 148.5q31 61 65.5 127t74.5 138q32 63 16 104q-10 22 -19 32q-13 16 -25 23q-14 11 -25.5 5t-26.5 -34q-43 -79 -81 -151t-71 -138q-42 -84 -74 -155.5t-57 -134.5q-58 -145 -64 -227zM547 1264 q19 -39 57 -85q20 -26 41 -46t41 -35q15 -15 63 19q4 5 8 9l9 9q15 23 5 41q-26 28 -44 50q-23 28 -41 55q-20 32 -32 61q-6 12 -19 11t-39 -18q-14 -8 -25.5 -25.5t-23.5 -45.5z" unicode="ù" glyph-name="ugrave" horiz-adv-x="451"/>
<glyph d="M48 133q-3 -33 2 -59t14 -45q22 -42 80 -50q29 -4 55.5 4.5t57.5 30.5q56 46 133 168q35 57 74.5 128.5t82.5 159.5q35 71 79.5 166.5t99.5 216.5q14 29 15.5 42.5t-8.5 31.5q-23 33 -37 45q-42 37 -67 -23q-47 -103 -85.5 -185.5t-69.5 -146.5q-54 -112 -97.5 -196.5 t-77.5 -142.5q-89 -152 -114 -135q-22 15 28 137q20 50 50 115.5t72 148.5q31 61 65.5 127t74.5 138q32 63 16 104q-10 22 -19 32q-13 16 -25 23q-14 11 -25.5 5t-26.5 -34q-43 -79 -81 -151t-71 -138q-42 -84 -74 -155.5t-57 -134.5q-58 -145 -64 -227zM815 1264 q8 30 9.5 46.5t-6.5 24.5q-14 17 -26.5 18t-27.5 -11q-32 -29 -76 -61q-17 -13 -37.5 -26.5t-43.5 -28.5q-19 -12 -39 -24.5t-41 -25.5q-23 -18 -25 -41l3 -18q12 -17 24 -22t26 3q64 31 141 81q34 22 63.5 43.5t55.5 41.5z" unicode="ú" glyph-name="uacute" horiz-adv-x="451"/>
<glyph d="M48 133q-3 -33 2 -59t14 -45q22 -42 80 -50q29 -4 55.5 4.5t57.5 30.5q56 46 133 168q35 57 74.5 128.5t82.5 159.5q35 71 79.5 166.5t99.5 216.5q14 29 15.5 42.5t-8.5 31.5q-23 33 -37 45q-42 37 -67 -23q-47 -103 -85.5 -185.5t-69.5 -146.5q-54 -112 -97.5 -196.5 t-77.5 -142.5q-89 -152 -114 -135q-22 15 28 137q20 50 50 115.5t72 148.5q31 61 65.5 127t74.5 138q32 63 16 104q-10 22 -19 32q-13 16 -25 23q-14 11 -25.5 5t-26.5 -34q-43 -79 -81 -151t-71 -138q-42 -84 -74 -155.5t-57 -134.5q-58 -145 -64 -227zM722 1080 q9 -1 14 4.5t8 20.5q7 39 15 76.5t20 92.5q7 28 12 51t10 41q6 19 6.5 27.5t-1.5 23.5q-2 7 -6 14l-11 22q-5 8 -12 7t-19 -14q-14 -14 -31.5 -33.5t-38.5 -42.5q-21 -25 -37.5 -45t-29.5 -36q-13 -15 -26 -31.5t-27 -35.5q-12 -17 -15 -31t-1.5 -25.5t4 -20.5t2.5 -16 q6 -21 22 1q17 20 32 37.5t29 34.5q20 23 37 42t31 36q-21 -104 -21 -108q-4 -17 -6 -29.5t-4 -20.5q-3 -28 11 -34q18 -8 33 -8z" unicode="û" glyph-name="ucircumflex" horiz-adv-x="451"/>
<glyph d="M48 133q-3 -33 2 -59t14 -45q22 -42 80 -50q29 -4 55.5 4.5t57.5 30.5q56 46 133 168q35 57 74.5 128.5t82.5 159.5q35 71 79.5 166.5t99.5 216.5q14 29 15.5 42.5t-8.5 31.5q-23 33 -37 45q-42 37 -67 -23q-47 -103 -85.5 -185.5t-69.5 -146.5q-54 -112 -97.5 -196.5 t-77.5 -142.5q-89 -152 -114 -135q-22 15 28 137q20 50 50 115.5t72 148.5q31 61 65.5 127t74.5 138q32 63 16 104q-10 22 -19 32q-13 16 -25 23q-14 11 -25.5 5t-26.5 -34q-43 -79 -81 -151t-71 -138q-42 -84 -74 -155.5t-57 -134.5q-58 -145 -64 -227zM523 1176 q-17 -43 -10.5 -69.5t29.5 -24.5q21 0 45 25q18 18 31 42q4 7 7.5 13.5t5.5 13.5q9 25 7 47t-17 33q-22 15 -53 -12q-28 -26 -45 -68zM698 1176q-18 -45 -12 -71t31 -25q20 0 44 25q10 10 17.5 21t13.5 22q4 7 7 14l6 14q9 24 7 45.5t-17 32.5q-23 15 -53 -12 q-28 -25 -44 -66z" unicode="ü" glyph-name="udieresis" horiz-adv-x="451"/>
<glyph d="M708 837q21 33 26.5 51t1.5 40q-8 30 -16 45q-12 26 -26.5 29.5t-31.5 -26.5q-28 -42 -49.5 -73t-35.5 -53q-56 -80 -87 -126q-18 -26 -40.5 -57.5t-48.5 -68.5q20 97 34.5 176.5t24.5 143.5q4 35 1 49t-15 20q-11 6 -25.5 6.5t-43.5 -4.5q-17 -4 -24 -13.5t-12 -36.5 l-109 -565q-13 -26 -25 -52t-23 -52q-22 -49 -41 -94q-13 -28 -22 -47.5l-15 -32.5q-14 -33 -16 -50.5t6 -36.5q4 -5 10 -10.5t14 -12.5q5 -4 11.5 -9t14.5 -11q14 -8 22 -2.5t21 32.5q8 17 19 41t25 54q14 31 26 55.5t21 43.5q12 25 25 51l27 54q43 60 80 111t68 94 q35 49 68.5 97.5t66.5 96.5t56 84t37 59zM815 1264q8 30 9.5 46.5t-6.5 24.5q-14 17 -26.5 18t-27.5 -11q-32 -29 -76 -61q-17 -13 -37.5 -26.5t-43.5 -28.5q-19 -12 -39 -24.5t-41 -25.5q-23 -18 -25 -41l3 -18q12 -17 24 -22t26 3q64 31 141 81q34 22 63.5 43.5t55.5 41.5 z" unicode="ý" glyph-name="yacute" horiz-adv-x="434"/>
<glyph d="M494 919q-8 18 -23.5 34.5t-31.5 24.5q-15 8 -26 1.5t-26 -34.5q-51 -99 -129 -264q-33 -70 -69.5 -150t-78.5 -171q-78 -171 -111 -252q-15 -34 -17 -52.5t8 -33.5q7 -12 21 -23q6 -6 27 -19q14 -7 22 -1.5t19 28.5q5 11 11 23t11 23q4 8 9.5 20t13.5 28q93 40 189 107 q101 72 167 148q49 57 75 100q36 60 47.5 119.5t10.5 104.5q0 43 -9 90q-11 42 -47 48t-91 -13q3 7 10 18.5t11 20.5q14 28 15.5 42.5t-8.5 32.5zM233 325q20 39 37 73t32 63q34 67 63 123q55 32 94 34t32 -25q-4 -32 -39 -82q-36 -52 -91 -100q-31 -27 -62.5 -48.5 t-65.5 -37.5z" unicode="þ" glyph-name="thorn" horiz-adv-x="438"/>
<glyph d="M708 837q21 33 26.5 51t1.5 40q-8 30 -16 45q-12 26 -26.5 29.5t-31.5 -26.5q-28 -42 -49.5 -73t-35.5 -53q-56 -80 -87 -126q-18 -26 -40.5 -57.5t-48.5 -68.5q20 97 34.5 176.5t24.5 143.5q4 35 1 49t-15 20q-11 6 -25.5 6.5t-43.5 -4.5q-17 -4 -24 -13.5t-12 -36.5 l-109 -565q-13 -26 -25 -52t-23 -52q-22 -49 -41 -94q-13 -28 -22 -47.5l-15 -32.5q-14 -33 -16 -50.5t6 -36.5q4 -5 10 -10.5t14 -12.5q5 -4 11.5 -9t14.5 -11q14 -8 22 -2.5t21 32.5q8 17 19 41t25 54q14 31 26 55.5t21 43.5q12 25 25 51l27 54q43 60 80 111t68 94 q35 49 68.5 97.5t66.5 96.5t56 84t37 59zM494 1176q-17 -43 -10.5 -69.5t30.5 -24.5q20 0 44 25q21 21 31 42q4 7 7.5 13.5t5.5 13.5q9 26 7 47.5t-17 32.5q-23 15 -53 -12q-28 -26 -45 -68zM669 1176q-18 -43 -11.5 -70t30.5 -26q20 0 44 25q9 10 17 20.5t15 22.5l6 14 l6 14q9 24 7 45.5t-17 32.5q-23 15 -53 -12q-28 -25 -44 -66z" unicode="ÿ" glyph-name="ydieresis" horiz-adv-x="434"/>
</font>
</defs>
</svg>
