<?xml version="1.0" encoding="UTF-8" standalone="no"?>
<!DOCTYPE svg  PUBLIC '-//W3C//DTD SVG 1.1//EN'  'http://www.w3.org/Graphics/SVG/1.1/DTD/svg11.dtd'>
<svg xmlns="http://www.w3.org/2000/svg" version="1.1">
<defs>
<font id="KomikaTitle-Tall" horiz-adv-x="463">
<font-face cap-height="980" font-family="Komika Title - Tall" underline-position="-125" units-per-em="1000" descent="-200" bbox="-73.8919 -349.414 946.122 1464.53" unicode-range="U+0020-FB02" ascent="800" panose-1="2 0 5 6 0 0 0 2 0 4" x-height="984" font-weight="400" underline-thickness="50"/>
<missing-glyph horiz-adv-x="500"/>
<glyph horiz-adv-x="500" glyph-name=".notdef"/>
<glyph horiz-adv-x="0" glyph-name=".null"/>
<glyph horiz-adv-x="500" glyph-name="nonmarkingreturn"/>
<glyph horiz-adv-x="241" glyph-name="space" unicode=" "/>
<glyph horiz-adv-x="241" glyph-name="space" unicode=" "/>
<glyph horiz-adv-x="221" glyph-name="dotaccent" d="M47 1206q-2 -60 19.5 -95t52.5 -32q15 0 27 9.5t20.5 23.5t13.5 29.5t7 27.5q3 16 3 37q0 31 -12.5 60.5t-38.5 45.5q-20 10 -36.5 4.5t-28.5 -21t-19 -39t-8 -50.5z" unicode="˙"/>
<glyph glyph-name="ring" d="M333 1347q-11 8 -27.5 14t-34.5 9q-14 2 -29.5 -2.5t-26.5 -12.5q-26 -22 -43.5 -54t-26 -67t-7.5 -69.5t13 -60.5q5 -12 14 -21t18 -14q12 -8 26.5 -11.5t28.5 -4.5q40 -6 67 18q20 21 33.5 50t20 60t7.5 62t-4 57q-4 14 -10 25.5t-19 21.5zM282 1314q7 -2 10 -14 t3.5 -29t-2 -37t-6.5 -37q-5 -22 -12 -40.5t-15 -31t-16.5 -18.5t-15.5 -3q-8 2 -12 14t-4.5 28.5t2 35.5t7.5 36t12.5 35t16 32t17 22.5t15.5 6.5z" unicode="˚"/>
<glyph horiz-adv-x="447" glyph-name="caron" d="M133 1460q-10 1 -12.5 -4.5t-0.5 -20.5q4 -24 9 -56t10.5 -66.5t10.5 -70t8 -68.5q2 -20 5 -29.5t9 -21.5q7 -10 14.5 -18t15.5 -18q8 -8 14 -7.5t14 15.5q16 25 32 55.5t30 61t26.5 58.5t20.5 48q9 22 -1 47q-6 14 -11.5 24.5t-11.5 20.5q-8 12 -12 12q-6 0 -10 -12 q-16 -33 -34.5 -71.5t-40.5 -78.5q-8 47 -14 88.5t-12 69.5q-8 28 -24 34q-10 5 -18.5 6.5t-16.5 1.5z" unicode="ˇ"/>
<glyph horiz-adv-x="208" glyph-name="dotlessi" d="M160 919q-16 19 -37 35t-39 24t-27 2t-14 -35q-7 -49 -15.5 -117.5t-17 -146.5t-16.5 -161t-15 -159.5t-12 -142.5t-7 -110q-2 -35 2.5 -53t19.5 -33q14 -14 30 -23.5t33 -18.5q17 -8 23 -1.5t9 29.5q6 57 13.5 128t16.5 147.5t18.5 156t19 153t18.5 138.5t17 113 q4 27 0.5 41.5t-20.5 33.5z" unicode="ı"/>
<glyph horiz-adv-x="563" glyph-name="fraction" d="M478 905q-4 12 -5.5 14.5t-2.5 2.5t-3 1.5t-7 11.5q-20 41 -47 2q-25 -35 -61.5 -95t-78.5 -132.5t-86.5 -152t-84.5 -152t-72.5 -132.5t-50.5 -94q-14 -27 -17 -46q-1 -11 0 -21.5t6 -20.5q3 -8 3.5 -6.5t0.5 4.5t1.5 3.5t6.5 -9.5q11 -19 19.5 -17.5t19.5 22.5 q24 41 60 102t78 131.5t87 145t87 143t78 125.5t59 92q13 20 16 35t-6 43z" unicode="∕"/>
<glyph horiz-adv-x="604" glyph-name="fi" d="M-14 23q13 -10 29.5 -21.5t31.5 -17t26 0t12 28.5q8 71 18.5 158t23.5 181q35 15 72.5 27.5t72.5 23.5q17 4 21.5 14.5t-0.5 36.5q-4 23 -8.5 45t-12.5 46q-13 38 -44 35q-19 -2 -37 -4t-36 -7q10 60 16.5 114t14.5 97q16 4 41.5 10.5t55 14.5t59.5 16t56 15 q-7 -56 -14 -120.5t-14 -131.5t-13 -133.5t-11 -126.5t-9 -111.5t-5 -87.5q-2 -35 2.5 -53.5t19.5 -32.5q14 -15 30 -24t33 -18q17 -8 23 -1.5t9 29.5q6 57 13.5 127.5t16.5 147.5t18.5 156t19 153t18.5 139t17 113q6 31 -5 63.5t-32 58t-49.5 39.5t-57.5 9 q-34 -6 -87.5 -17.5t-108.5 -24.5t-104 -26.5t-74 -25.5q1 -50 -3 -121t-11 -151.5t-16 -164t-17 -159t-14 -136.5t-8 -96q-1 -34 2 -52t19 -34z" unicode="ﬁ"/>
<glyph horiz-adv-x="705" glyph-name="fl" d="M617 55q10 4 15.5 7.5t7 9t0.5 14t-4 22.5q-3 23 -8.5 45.5t-13.5 45.5t-18 30.5t-27 4.5q-30 -4 -56.5 -9.5t-55.5 -13.5q10 83 22 171.5t24 174t24 164.5t23 143q8 42 -3.5 71.5t-32 48t-45.5 26.5t-45 7q-35 -3 -90.5 -11.5t-114 -19.5t-109.5 -24t-76 -25 q1 -50 -3 -121t-11 -151.5t-16 -164t-17 -159t-14 -136.5t-8 -96q-1 -34 2 -52t19 -34q13 -10 29.5 -21.5t31.5 -17t26 0t12 28.5q8 71 18.5 158t23.5 181q35 15 72.5 27.5t72.5 23.5q17 4 21.5 14.5t-0.5 36.5q-4 23 -8.5 45t-12.5 46q-13 38 -44 35q-19 -2 -37 -4t-36 -7 q10 60 16.5 114t14.5 97q14 3 38 8t52 10t58 10.5t57 10.5q-11 -81 -22.5 -171t-21 -178t-17 -167t-10.5 -137q-3 -31 2.5 -53.5t16.5 -41.5q15 -23 24 -38t20 -29q4 -6 9.5 -11.5t12.5 -8.5t17 -2t25 9q40 16 84 32t86 32z" unicode="ﬂ"/>
<glyph horiz-adv-x="440" glyph-name="Lslash" d="M-47 472q-39 -36 -4 -69q26 -27 67 -49q13 -8 23 -9t19 2q-5 -52 -9 -98.5t-6 -83.5q-3 -32 2.5 -54t16.5 -41q15 -23 24 -38t20 -29q4 -6 9.5 -11.5t12.5 -8.5t17 -2t25 9q40 15 84 31t86 32q10 4 15.5 8t7 9.5t0.5 14t-4 22.5q-3 22 -8.5 45t-13.5 46t-18 30.5t-27 4.5 q-30 -5 -56.5 -10t-55.5 -14q8 67 17 137.5t19 142.5q36 30 73 59.5t73 57.5q20 14 24.5 26t-9.5 30q-11 13 -22.5 28.5t-30.5 29.5q-28 27 -67 0q-6 -4 -8 -5q6 40 12 77.5t12 70.5q5 26 1.5 41t-19.5 33q-16 19 -37 33.5t-39 22.5q-17 9 -26.5 3.5t-15.5 -34.5 q-13 -74 -26.5 -171.5t-25.5 -201.5q-39 -33 -73 -63.5t-59 -53.5z" unicode="Ł"/>
<glyph horiz-adv-x="440" glyph-name="lslash" d="M-47 472q-39 -36 -4 -69q26 -27 67 -49q13 -8 23 -9t19 2q-5 -52 -9 -98.5t-6 -83.5q-3 -32 2.5 -54t16.5 -41q15 -23 24 -38t20 -29q4 -6 9.5 -11.5t12.5 -8.5t17 -2t25 9q40 15 84 31t86 32q10 4 15.5 8t7 9.5t0.5 14t-4 22.5q-3 22 -8.5 45t-13.5 46t-18 30.5t-27 4.5 q-30 -5 -56.5 -10t-55.5 -14q8 67 17 137.5t19 142.5q36 30 73 59.5t73 57.5q20 14 24.5 26t-9.5 30q-11 13 -22.5 28.5t-30.5 29.5q-28 27 -67 0q-6 -4 -8 -5q6 40 12 77.5t12 70.5q5 26 1.5 41t-19.5 33q-16 19 -37 33.5t-39 22.5q-17 9 -26.5 3.5t-15.5 -34.5 q-13 -74 -26.5 -171.5t-25.5 -201.5q-39 -33 -73 -63.5t-59 -53.5z" unicode="ł"/>
<glyph horiz-adv-x="375" glyph-name="Zcaron" d="M198 781q-35 -78 -71.5 -167t-69.5 -175t-60.5 -161.5t-43.5 -126.5q-10 -31 -2.5 -53.5t16.5 -41.5q14 -23 24 -39t21 -31t24 -22t40 6q40 19 87.5 35t89.5 31q17 5 22 15t0 36q-3 23 -9 45.5t-14 46.5q-13 42 -49 34q-26 -7 -50 -13.5t-48 -17.5q61 150 125.5 301.5 t124.5 289.5q11 25 11.5 46.5t-4.5 44.5q-4 19 -8 39.5t-12 48.5q-7 22 -15.5 31t-25.5 8q-32 -3 -67.5 -7.5t-71 -11.5t-68.5 -15.5t-60 -19.5q-11 -7 -14.5 -15t1.5 -32q3 -12 7 -26t8.5 -28.5t9 -27.5t7.5 -22q11 -23 24.5 -29.5t29.5 -1.5q21 8 43 13t48 13zM133 1421 q-10 1 -12.5 -4.5t-0.5 -20.5q4 -24 9 -56t10.5 -66.5t10.5 -70t8 -68.5q2 -20 5 -29.5t9 -21.5q7 -10 14.5 -18t15.5 -18q8 -8 14 -7.5t14 15.5q16 25 32 55.5t30 61t26.5 58.5t20.5 48q9 22 -1 47q-6 14 -11.5 24.5t-11.5 20.5q-8 12 -12 12q-6 0 -10 -12 q-16 -33 -34.5 -71.5t-40.5 -78.5q-8 47 -14 88.5t-12 69.5q-8 28 -24 34q-10 5 -18.5 6.5t-16.5 1.5z" unicode="Ž"/>
<glyph horiz-adv-x="375" glyph-name="zcaron" d="M198 781q-35 -78 -71.5 -167t-69.5 -175t-60.5 -161.5t-43.5 -126.5q-10 -31 -2.5 -53.5t16.5 -41.5q14 -23 24 -39t21 -31t24 -22t40 6q40 19 87.5 35t89.5 31q17 5 22 15t0 36q-3 23 -9 45.5t-14 46.5q-13 42 -49 34q-26 -7 -50 -13.5t-48 -17.5q61 150 125.5 301.5 t124.5 289.5q11 25 11.5 46.5t-4.5 44.5q-4 19 -8 39.5t-12 48.5q-7 22 -15.5 31t-25.5 8q-32 -3 -67.5 -7.5t-71 -11.5t-68.5 -15.5t-60 -19.5q-11 -7 -14.5 -15t1.5 -32q3 -12 7 -26t8.5 -28.5t9 -27.5t7.5 -22q11 -23 24.5 -29.5t29.5 -1.5q21 8 43 13t48 13zM133 1421 q-10 1 -12.5 -4.5t-0.5 -20.5q4 -24 9 -56t10.5 -66.5t10.5 -70t8 -68.5q2 -20 5 -29.5t9 -21.5q7 -10 14.5 -18t15.5 -18q8 -8 14 -7.5t14 15.5q16 25 32 55.5t30 61t26.5 58.5t20.5 48q9 22 -1 47q-6 14 -11.5 24.5t-11.5 20.5q-8 12 -12 12q-6 0 -10 -12 q-16 -33 -34.5 -71.5t-40.5 -78.5q-8 47 -14 88.5t-12 69.5q-8 28 -24 34q-10 5 -18.5 6.5t-16.5 1.5z" unicode="ž"/>
<glyph horiz-adv-x="267" glyph-name="exclam" d="M205 989q-16 19 -36.5 33.5t-37.5 22.5q-19 11 -27.5 4t-13.5 -38q-10 -65 -22 -150.5t-23 -176t-21 -178t-16 -155.5q-4 -35 0.5 -52.5t19.5 -32.5q29 -28 62 -39q15 -7 22 -0.5t10 32.5q9 72 21 152t25.5 164t27.5 168t28 163q5 27 1 46t-20 37zM-28 83 q-2 -63 19.5 -97t52.5 -33q15 0 27 10t20.5 24t14 30t7.5 28q3 16 2.5 36.5t-6 41t-16.5 38t-29 26.5q-21 12 -37.5 7t-28 -21t-18.5 -40t-8 -50z" unicode="!"/>
<glyph horiz-adv-x="374" glyph-name="quotedbl" d="M136 783q7 20 15 47.5t15 58.5q6 22 11 47t8 47.5t4.5 41.5t0.5 29q-1 20 -14 41q-18 28 -45 50q-14 13 -23.5 10.5t-12.5 -29.5q-5 -36 -12.5 -83t-16 -95t-17 -92.5t-14.5 -74.5q-8 -41 20 -47q11 -2 23.5 -1t21.5 5q22 6 36 45zM281 744q8 17 18 43t20 55.5t18 60 t13 56.5q2 17 3.5 27.5t1.5 15.5q0 15 -11 42q-8 14 -18 28.5t-23 27.5q-28 32 -38 -13q-8 -33 -19 -78t-23 -90.5t-24 -87.5t-21 -69q-12 -41 18 -51q11 -3 23 -5t23 1q23 2 39 37z" unicode='&quot;'/>
<glyph horiz-adv-x="478" glyph-name="numbersign" d="M419 599q15 3 18 10.5t-5 30.5q-11 31 -23 46.5t-43 16.5q5 23 8 42t7 38q9 47 -1.5 81t-33.5 62q-25 30 -34 -13q-9 -47 -19 -102.5t-19 -115.5q-18 -2 -37.5 -5t-39.5 -6q4 18 7 36t5 35q8 48 -3.5 81.5t-34.5 60.5q-24 29 -33 -14q-9 -48 -18 -103t-18 -118 q-26 -9 -49 -14.5t-41 -14.5q-16 -7 -18 -15.5t7 -31.5q14 -38 30 -56t48 -7h3q-5 -38 -9 -73t-9 -69q-20 -9 -38 -14.5t-35 -14.5q-15 -7 -16.5 -16t6.5 -32q14 -34 29 -51.5t39 -10.5l-1 -18q-5 -58 7 -88t34 -49q13 -11 18.5 -8.5t9.5 25.5q5 38 10 80t11 90 q20 9 40.5 14t40.5 14q-2 -16 -3 -28.5t-3 -25.5q-1 -16 -1.5 -28.5t0.5 -23.5q2 -31 12 -51t27 -35q12 -11 18.5 -8.5t10.5 25.5q5 42 12 90.5t15 107.5q17 3 33 6l32 6q15 4 17.5 13t-5.5 30q-11 30 -22.5 43.5t-37.5 14.5q5 38 11 76l12 76q19 3 37 4.5t35 4.5zM255 571 q-6 -38 -11 -73.5t-9 -71.5q-19 -4 -39 -8.5t-40 -9.5q5 38 10 71.5t10 71.5q19 7 38.5 11t40.5 9z" unicode="#"/>
<glyph horiz-adv-x="369" glyph-name="dollar" d="M146 868q-12 -1 -22 -6t-18 -13q-18 -18 -33 -43t-27.5 -53.5t-22 -59t-15.5 -59.5q-10 -66 3.5 -120.5t39.5 -92.5q19 -29 43 -53.5t43.5 -45.5t30 -37.5t3.5 -28.5q-11 -19 -44 -6.5t-73 55.5q-14 19 -36 23t-38 -15q-9 -9 -9 -30q0 -18 20 -56q15 -30 31.5 -50.5 t33.5 -36.5q-2 -15 -3 -30t-2 -33q-2 -48 6.5 -92.5t31.5 -67.5q13 -13 20 -10t9 27q3 34 8.5 79t11.5 87q1 -1 8 -1h9q27 0 46.5 13.5t33 34t22.5 44t14 43.5q9 48 -2.5 84t-33.5 66t-49 58.5t-49 61.5q-19 33 -17 72.5t14 73t27.5 54t24.5 15.5q5 -5 5 -18 q2 -23 -0.5 -54.5t-4.5 -55.5q-2 -47 15 -75.5t43 -47.5q20 -12 29 17q4 17 7.5 40.5t6.5 49t4.5 51t1.5 46.5q0 25 -4.5 54t-24.5 59q-8 11 -14.5 19.5t-13.5 15.5q4 25 7 49.5t5 44.5q5 47 -5.5 81t-30.5 57q-24 29 -35 -13q-7 -31 -15 -78t-16 -93z" unicode="$"/>
<glyph horiz-adv-x="593" glyph-name="percent" d="M458 793q18 38 14 74.5t-21 71.5q-18 39 -35 5q-16 -31 -35 -54t-38.5 -38t-37.5 -21.5t-32 -3.5q-35 3 -53 48q-14 35 -24 53q-22 31 -58 44q-11 5 -26 -0.5t-26 -18.5q-24 -31 -41 -80t-26 -103t-8 -108t13 -95q7 -19 15.5 -36.5t17.5 -28.5q11 -13 25.5 -21t27.5 -13 q37 -10 67 29q15 21 25.5 50.5t17 64t9.5 71.5t3 72q25 -14 52 -9.5t51 27.5q-35 -76 -73 -163.5t-73 -172t-64.5 -159t-47.5 -123.5q-17 -51 -11.5 -84t23.5 -61q11 -13 17 -15t14 15q16 44 41.5 107.5t56.5 136.5t64.5 150.5t66 149.5t61 134.5t48.5 104.5zM497 365 q-2 23 -9 46t-20 41q-9 13 -24.5 25t-31.5 20q-12 4 -27.5 -1.5t-26.5 -18.5q-21 -26 -36.5 -64.5t-25.5 -82.5t-13.5 -90t-0.5 -87.5t13.5 -75t27.5 -51.5q11 -13 25 -20t28 -11q37 -12 66 26q15 21 26 50t18.5 63t11 70.5t3.5 71.5q0 24 -1 46.5t-3 42.5zM421 399 q4 -3 6.5 -21.5t2 -45t-3 -57t-7.5 -57.5q-11 -72 -26 -108t-27 -27q-13 10 -13 59q0 26 3 56t10 65q4 25 11 51t15 46.5t16 31.5t13 7zM149 875q6 -4 8 -21.5t2 -42.5q0 -24 -2.5 -54t-5.5 -62q-10 -74 -24 -108.5t-27 -26.5q-6 4 -9.5 19.5t-4 39t2 54t7.5 65.5 q4 25 11 51t14.5 46.5t15 32t12.5 7.5z" unicode="%"/>
<glyph horiz-adv-x="519" glyph-name="ampersand" d="M307 73q11 -14 18 -28q20 -27 31.5 -36t26.5 -6q15 5 24 13t20 23q11 14 11.5 26t-13.5 35q-11 19 -21.5 37t-23.5 41q5 9 9 19t9 21q16 42 22.5 85.5t-7.5 86.5q-6 18 -17 18q-10 0 -25 -21q-16 -23 -29.5 -43.5t-28.5 -40.5q-17 34 -33.5 69t-31.5 71q32 35 64.5 72 t52.5 79q38 75 34 160t-52 169q-20 35 -38 54t-35 26.5t-35 5.5t-37 -9q-42 -15 -79.5 -57.5t-56.5 -105.5q-10 -34 -14.5 -66t-3 -65t9 -68.5t20.5 -77.5q4 -11 9 -26t12 -34q-29 -30 -54 -62t-43 -70q-35 -78 -33 -158t60 -162q27 -35 52 -51t47.5 -19t43.5 4t39 18 q53 24 96 73zM191 593l-3 9q-24 81 -5 140q5 18 15 35t22.5 31.5t26.5 25.5t27 16q12 -21 14.5 -46t-0.5 -49t-11 -45t-17 -34q-13 -23 -31 -43t-38 -40zM230 211q-48 -47 -84 -62t-48 8q-5 12 -5 28q0 30 16 71.5t54 91.5q17 -38 33.5 -72t33.5 -65z" unicode="&amp;"/>
<glyph horiz-adv-x="212" glyph-name="quotesingle" d="M129 744q8 17 18 43t20 55.5t18 60t13 56.5q2 17 3.5 27.5t1.5 15.5q0 15 -11 42q-8 14 -18 28.5t-23 27.5q-28 32 -38 -13q-8 -34 -19.5 -78t-23.5 -89.5t-23.5 -87.5t-19.5 -70q-12 -40 17 -51q12 -3 23.5 -5t22.5 1q23 2 39 37z" unicode="&apos;"/>
<glyph horiz-adv-x="243" glyph-name="parenleft" d="M137 1056q-51 -104 -82.5 -231.5t-42 -262t1 -267t46.5 -246.5q10 -29 21.5 -47.5t23.5 -29t25 -14t25 -1.5q14 4 17 9.5t-4 28.5q-29 94 -38.5 204.5t-3.5 223t25.5 219.5t49.5 195q34 102 -21 213q-24 49 -43 6z" unicode="("/>
<glyph horiz-adv-x="271" glyph-name="parenright" d="M179 871q-11 66 -39 114t-77 63q-24 8 -27 -7t2 -44q15 -81 22 -171t6 -183t-8.5 -185t-22.5 -176t-36 -157t-48 -128q-16 -38 14 -44q60 -9 94 47q41 70 71 174t46 222.5t17.5 242t-14.5 232.5z" unicode=")"/>
<glyph horiz-adv-x="475" glyph-name="asterisk" d="M396 656q25 9 9 46q-14 34 -34 50t-55 7q-11 -3 -23 -6t-24 -7q3 23 7 48t9 51q8 47 -3.5 81.5t-34.5 61.5q-24 29 -33 -14q-10 -51 -17.5 -98t-13.5 -93q-11 15 -20.5 31.5t-22.5 35.5q-24 39 -48 44t-47 -14q-24 -19 -4 -53q48 -82 90 -143q-32 -16 -60.5 -32.5 t-51.5 -32.5q-15 -9 -16 -19.5t9 -30.5q17 -36 38 -54t50 1q14 9 28 16t28 15q-2 -14 -3 -29.5t-3 -33.5q-5 -59 7 -88t34 -46q14 -13 19.5 -10.5t8.5 25.5q6 46 10.5 86t9.5 82q11 -15 23 -31t26 -33q32 -41 53 -41t40 19q11 15 12 23t-12 27q-24 34 -45.5 62t-41.5 58 q26 11 51 21t51 18z" unicode="*"/>
<glyph horiz-adv-x="488" glyph-name="plus" d="M376 411q14 0 18 8t-1 31l-9.5 38t-12.5 41q-13 37 -40 39q-32 2 -79 0q4 26 8.5 49.5t8.5 46.5q5 23 3 36t-13 32q-10 19 -26 35t-31 27q-12 8 -20.5 -1.5t-12.5 -28.5q-9 -39 -17.5 -92.5t-16.5 -115.5q-40 -4 -76 -11t-62 -16q-11 -4 -19.5 -14t-3.5 -33t15 -51.5 t20 -47.5q11 -20 19 -24t23 1t31 9.5t33 7.5q-4 -36 -5.5 -66t-3.5 -54q-1 -42 20 -65q14 -14 25.5 -23.5t23.5 -20.5q14 -11 19 -6.5t8 28.5q5 48 11.5 106.5t14.5 121.5q38 7 75 8.5t73 4.5z" unicode="+"/>
<glyph horiz-adv-x="209" glyph-name="comma" d="M38 -155q7 14 17 35t20 45.5t19 49.5t15 47q7 23 6 38.5t-12 34.5q-13 23 -27.5 39t-29.5 28q-14 13 -23.5 10.5t-16.5 -25.5q-15 -71 -36.5 -137.5t-39.5 -129.5q-12 -39 13 -52q13 -8 28 -13.5t29 -4.5q11 3 19.5 10t18.5 25z" unicode=","/>
<glyph horiz-adv-x="395" glyph-name="hyphen" d="M-56 640q-29 -11 -10 -71q8 -26 17.5 -50.5t22.5 -50.5q13 -27 24 -35.5t24 -0.5q48 22 104 33t110 19q16 1 20 10t-3 38q-7 23 -13 47.5t-16 53.5q-19 48 -46 48q-30 0 -62.5 -3.5t-64 -9.5t-59.5 -13.5t-48 -14.5z" unicode="-"/>
<glyph horiz-adv-x="395" glyph-name="hyphen" d="M-56 640q-29 -11 -10 -71q8 -26 17.5 -50.5t22.5 -50.5q13 -27 24 -35.5t24 -0.5q48 22 104 33t110 19q16 1 20 10t-3 38q-7 23 -13 47.5t-16 53.5q-19 48 -46 48q-30 0 -62.5 -3.5t-64 -9.5t-59.5 -13.5t-48 -14.5z" unicode="­"/>
<glyph horiz-adv-x="221" glyph-name="period" d="M-19 95q-2 -60 19.5 -95t52.5 -33q15 0 27 9.5t20.5 23.5t13.5 29.5t7 27.5q3 18 3 38q0 30 -12.5 59.5t-38.5 45.5q-20 10 -36.5 5t-28.5 -21t-19 -39.5t-8 -49.5z" unicode="."/>
<glyph horiz-adv-x="354" glyph-name="slash" d="M322 927q-13 20 -27 37t-28 33q-29 33 -45 -14q-16 -42 -38.5 -113t-47.5 -156t-51 -177t-49 -176.5t-41.5 -153.5t-28.5 -108q-7 -31 -6 -52q2 -24 14 -38l20 -24t24 -27q15 -14 23 -9.5t14 28.5q14 48 35.5 119.5t47 154.5t53 171t53.5 169t48 148.5t37 109.5 q8 23 7.5 39t-14.5 39z" unicode="/"/>
<glyph horiz-adv-x="457" glyph-name="zero" d="M335 911q-20 26 -50 44t-63 26q-24 8 -52 -5t-49 -40q-32 -45 -56.5 -105t-41.5 -129t-26.5 -144t-12 -148t2.5 -141.5t17 -125.5q10 -36 27 -64.5t32 -44.5q23 -23 49 -34t50 -16q38 -7 67 5t55 56q37 64 61 155t36 190t13 197t-8 177q-5 44 -16.5 79.5t-34.5 67.5z M244 806q12 -7 17 -44.5t5 -92.5q0 -54 -4 -114.5t-11 -115.5q-8 -68 -20.5 -125t-27 -97t-30 -59t-28.5 -11q-14 9 -22 45t-9.5 86.5t2.5 110.5t13 118t23.5 114.5t30.5 99.5t32 67t29 18z" unicode="0"/>
<glyph horiz-adv-x="258" glyph-name="one" d="M208 848q5 27 1 41t-20 33q-33 39 -68 54q-18 9 -26.5 4t-19.5 -30q-12 -27 -26 -64t-24 -74q-5 -15 -5.5 -25.5t3 -18.5t11 -16.5t19.5 -19.5q-7 -50 -13.5 -106.5t-13 -115.5t-12 -117t-10 -111t-7.5 -97.5t-4 -75.5q-2 -34 2 -53t16 -34q16 -16 31.5 -23t31.5 -15 q17 -8 23 -2.5t9 28.5q5 56 12.5 126t16 146.5t18 155.5t19 153.5t19 140.5t17.5 116z" unicode="1"/>
<glyph horiz-adv-x="413" glyph-name="two" d="M148 186q29 40 58.5 88.5t56 99.5t48.5 101.5t36 95.5q12 38 20.5 73.5t11 70.5t-2 70t-18.5 73q-10 24 -26.5 50t-38.5 45t-47.5 27.5t-53.5 -0.5q-48 -16 -90 -71.5t-71 -138.5q-9 -27 -12 -45.5t-2 -30.5t6 -19.5t13 -12.5q13 -8 28 -12.5t30 -3t29 9t26 23.5 q15 26 30.5 50t29.5 39.5t25 21.5t19 -4q8 -9 -0.5 -44t-29 -86.5t-50.5 -114t-64.5 -127t-72 -126t-72.5 -109.5q-16 -23 -12 -47t12 -44q5 -12 11.5 -25.5t13.5 -26.5t14 -24.5t13 -19.5q9 -16 20 -22t40 5q19 8 48.5 17t61.5 17t63.5 14.5t55.5 8.5q15 5 19 12.5t-1 30.5 q-4 20 -11.5 44.5t-15.5 42.5q-9 23 -19 32.5t-25 8.5q-20 -2 -49 -5.5t-55 -11.5z" unicode="2"/>
<glyph horiz-adv-x="433" glyph-name="three" d="M249 482q62 48 95 103q14 24 23 58.5t10 75t-8.5 85.5t-31.5 90q-21 41 -42 62t-41 29t-38 5.5t-33 -7.5q-21 -8 -41.5 -24t-38.5 -36.5t-32.5 -44t-24.5 -45.5q-16 -36 5 -69q10 -15 26 -25.5t32.5 -13.5t33 2t28.5 20q17 19 36.5 36.5t33.5 17.5q10 0 15 -12 q7 -16 -0.5 -41.5t-31.5 -57t-65.5 -66.5t-101.5 -70q-25 -16 -9 -64q19 -56 47 -84.5t57 -20.5q23 5 37.5 2.5t27.5 -20.5q6 -9 9.5 -26.5t2.5 -39.5t-6.5 -47t-17.5 -49q-26 -50 -61.5 -56t-91.5 46q-19 19 -44 22.5t-45 -19.5q-6 -6 -9.5 -14.5t-3 -20t7 -27.5t20.5 -37 q45 -75 91 -102.5t88 -27.5q27 0 52 6.5t47.5 23t42 43.5t36.5 68q14 36 21 77t4 82.5t-15.5 83t-37.5 79.5q-13 20 -27.5 31t-30.5 19z" unicode="3"/>
<glyph horiz-adv-x="474" glyph-name="four" d="M346 478q14 100 27 188t24 154q5 28 1.5 42.5t-19.5 33.5q-9 9 -24.5 22.5t-32 27.5t-31.5 26t-24 17q-17 9 -27 6t-24 -23q-27 -43 -60.5 -105t-67 -130t-63 -136.5t-48.5 -124.5q-10 -28 -9.5 -49.5t8.5 -44.5q12 -29 26 -56.5t29 -49.5q13 -23 25 -24.5t26 3.5 q26 8 54 13.5t57 12.5q-14 -117 -18 -180q-3 -34 1.5 -51t18.5 -36q14 -14 30 -25t29 -18q17 -8 23.5 -1t9.5 31q6 63 15.5 138.5t20.5 162.5l30 2t30 3q16 3 20.5 12t0.5 33q-5 23 -8.5 41.5t-10.5 41.5q-12 41 -39 43zM94 450q18 38 38 80t41 84t43.5 82.5t44.5 75.5 q-12 -72 -22.5 -148.5t-21.5 -154.5q-32 -5 -64 -8.5t-59 -10.5z" unicode="4"/>
<glyph horiz-adv-x="393" glyph-name="five" d="M198 755q42 9 81 17.5t74 15.5q17 4 21.5 13t-0.5 35q-4 23 -7 49t-11 51q-12 45 -46 42q-43 -3 -87.5 -8.5t-92.5 -17.5q-33 -11 -45 -58q-25 -106 -42.5 -195t-27.5 -161q-5 -34 -1 -52.5t13 -31.5q14 -19 23 -29t20 -25q10 -14 17 -16t27 9q9 5 21 8t24 3.5t21.5 -2 t13.5 -7.5q4 -8 7 -28.5t3 -48.5q0 -26 -5 -56t-15 -54q-7 -20 -17 -35t-23.5 -19.5t-32 5.5t-43.5 41q-9 11 -20.5 17.5t-24.5 7t-25.5 -4.5t-22.5 -16q-13 -13 -11 -32q2 -23 26 -69q27 -67 66.5 -92t81.5 -24q38 1 66.5 19.5t49 44.5t33 56.5t18.5 56.5q29 118 16 206 t-59 136q-52 50 -107 50q8 46 19 96.5t24 102.5z" unicode="5"/>
<glyph horiz-adv-x="408" glyph-name="six" d="M178 590q28 78 63 150t77 135q14 23 10.5 38t-17.5 31q-14 13 -38.5 26t-43.5 21q-20 7 -28.5 1t-22.5 -26q-60 -90 -99 -187.5t-62.5 -191t-32.5 -177t-9 -144.5q-1 -94 22 -156.5t81 -104.5q30 -18 54 -24.5t43 -4t34 12.5t27 25q19 24 37 62.5t31.5 87t20.5 104 t4 114.5q-2 60 -19.5 106t-66.5 81q-31 22 -65 21zM109 344q18 51 42.5 75t41.5 11q9 -7 13.5 -23t4.5 -38t-4.5 -49t-11.5 -57q-18 -71 -41 -103t-43 -13q-17 14 -16.5 66.5t14.5 130.5z" unicode="6"/>
<glyph horiz-adv-x="429" glyph-name="seven" d="M248 793q-30 -75 -59.5 -156.5t-57 -166t-52 -169.5t-44.5 -167q-7 -32 -6 -49.5t12 -40.5q12 -23 27 -40.5t30 -32.5q16 -13 23 -10t13 26q26 96 57.5 198.5t65.5 202t68 192t66 170.5q12 29 11 52.5t-12 47.5q-8 20 -19 45t-25 51q-11 26 -23.5 34t-29.5 8 q-31 -3 -67 -7t-71.5 -10t-68 -14t-57.5 -20q-11 -5 -14 -13.5t5 -31.5q7 -23 19 -51t20 -47q13 -23 27.5 -28t28.5 0q12 2 28 5.5t34 7.5t36.5 7.5t34.5 6.5z" unicode="7"/>
<glyph horiz-adv-x="436" glyph-name="eight" d="M377 630q29 80 14 155.5t-58 134.5q-35 46 -72 62.5t-75 -7.5q-45 -30 -80.5 -79.5t-57.5 -115.5q-26 -78 -14 -149t60 -131q-45 -50 -80 -112.5t-41 -143.5q-3 -39 2.5 -76t19 -69t34.5 -57.5t50 -41.5q31 -18 63 -23t62.5 6t58 40.5t49.5 79.5q19 46 29.5 92.5 t7.5 92.5t-21.5 92.5t-58.5 92.5q37 38 65 75.5t43 81.5zM186 385q28 -38 26.5 -82t-16.5 -91q-17 -50 -39 -70t-38 -9q-12 8 -19.5 33t3.5 67t32 81t51 71zM244 825q38 -50 19 -107.5t-89 -135.5q-12 21 -14 49t6.5 59.5t28 66t49.5 68.5z" unicode="8"/>
<glyph horiz-adv-x="406" glyph-name="nine" d="M130 325q-25 -60 -55 -116t-65 -108q-14 -20 -10.5 -35t13.5 -30q14 -20 26.5 -29.5t28.5 -22.5q17 -14 29 -7.5t26 23.5q35 43 67 99t59.5 119t49 130t36.5 132.5t22 126.5t5 111q-2 47 -11 83.5t-24.5 66t-38 53t-50.5 44.5q-28 19 -51 23.5t-42 -1t-34 -18.5t-27 -27 q-23 -30 -42.5 -77t-32 -103.5t-17 -118.5t2.5 -120q6 -67 29 -111.5t71 -73.5q8 -7 17 -8.5t18 -4.5zM189 502q-26 -46 -50 -29q-11 6 -16.5 24t-6.5 43t2 55t9 61q7 34 17.5 64.5t21.5 53t22.5 33t21.5 4.5q11 -8 15 -35t1.5 -68t-12 -94t-25.5 -112z" unicode="9"/>
<glyph horiz-adv-x="246" glyph-name="colon" d="M17 500q-2 -59 20 -95.5t53 -35.5q15 0 27 10t20.5 24.5t14 31t7.5 28.5q1 8 1.5 17t0.5 20q0 31 -12 61t-39 45q-20 10 -36.5 5t-28.5 -21t-19.5 -39.5t-8.5 -50.5zM-29 109q-5 -59 13 -94.5t47 -44.5q29 -11 51 11.5t28 63.5q2 17 1.5 40.5t-5.5 46t-16 41.5t-30 28 t-34.5 5.5t-27 -16.5t-18.5 -34.5t-9 -46.5z" unicode=":"/>
<glyph horiz-adv-x="260" glyph-name="semicolon" d="M61 -187q6 15 13.5 40.5t14.5 54.5t13.5 60t10.5 58q8 34 -4.5 66t-41.5 67q-13 17 -25 29.5t-21.5 17t-15.5 -1.5t-8 -27q-10 -87 -23.5 -167.5t-24.5 -155.5q-9 -44 20 -62q14 -11 29 -17t29 -5q11 3 19 11.5t15 31.5zM-36 601q3 -36 11.5 -65t20.5 -50t26.5 -32 t29.5 -11q16 0 27 12t18 29.5t10 36.5t4 34q1 20 -1.5 45t-10 49t-20.5 45t-34 33q-20 13 -36 6.5t-26.5 -25.5t-15.5 -47.5t-3 -59.5z" unicode=";"/>
<glyph horiz-adv-x="348" glyph-name="less" d="M258 585q14 8 16 18.5t-8 30.5q-8 17 -16.5 33.5t-19.5 33.5q-8 13 -15.5 17.5t-16 2.5t-20 -9.5t-28.5 -17.5q-15 -11 -32 -23.5t-33.5 -26t-32 -26.5t-27.5 -25q-11 -8 -16.5 -23t-8.5 -34t-4 -39t-3 -38q-3 -12 -1 -37q1 -12 11 -22q51 -36 101.5 -73.5t95.5 -79.5 q14 -15 20.5 -11t11.5 27q6 28 9 75q1 23 -4.5 36t-17.5 26q-19 19 -44 39t-54 43q35 29 69 54.5t68 48.5z" unicode="&lt;"/>
<glyph horiz-adv-x="436" glyph-name="equal" d="M68 250q126 38 264 46q14 2 18.5 9t-0.5 30q-4 19 -8.5 37t-12.5 39q-12 36 -39 36q-31 1 -66 -1t-71 -6.5t-71.5 -12t-66.5 -16.5q-12 -4 -18.5 -17t0.5 -37q5 -18 12.5 -40.5t15.5 -40.5q8 -20 17.5 -25.5t25.5 -0.5zM75 517q66 15 132.5 18t136.5 1q14 -3 19 4.5 t1 30.5q-3 18 -7.5 35.5t-10.5 40.5q-10 36 -39 41q-30 5 -65.5 7t-72.5 1t-73 -5t-66 -10q-12 -3 -19 -14t-2 -35q4 -20 10.5 -42.5t13.5 -40.5q8 -23 17 -29t25 -3z" unicode="="/>
<glyph horiz-adv-x="370" glyph-name="greater" d="M299 516q4 29 -1 39.5t-17 21.5q-27 23 -56 46t-58 44t-55 38t-47 29q-11 8 -19.5 4t-10.5 -23q-2 -23 -1.5 -51t2.5 -48q5 -23 9.5 -32.5t19.5 -16.5q23 -15 46.5 -31t47.5 -34q-43 -23 -83 -47.5t-68 -47.5q-9 -8 -13 -19.5t4 -30.5q11 -22 23 -43t23 -36 q12 -16 19.5 -17.5t18.5 9.5q38 31 78 56t91 51q14 9 20.5 18.5t11.5 32.5q9 35 15 88z" unicode="&gt;"/>
<glyph horiz-adv-x="453" glyph-name="question" d="M89 257q13 -12 29 -24t29.5 -17t22.5 1t8 30q6 75 27 120.5t47.5 78.5t54 61.5t47.5 69.5q13 27 23 63t11.5 78.5t-7.5 90t-34 98.5q-11 25 -28 47.5t-38.5 37.5t-46.5 20.5t-52 -3.5q-45 -15 -84.5 -64t-70.5 -127q-11 -26 -14.5 -43.5t-3 -29.5t5.5 -19.5t13 -13.5 q30 -23 61.5 -19.5t53.5 35.5q15 21 29 41.5t27.5 37t26.5 27t27 10.5q9 0 17.5 -9.5t10.5 -29.5q2 -32 -13.5 -74t-60.5 -93q-18 -21 -40.5 -47.5t-43 -62.5t-35.5 -82.5t-18 -107.5q-2 -32 1.5 -49t17.5 -32zM32 84q-4 -59 16.5 -90.5t49.5 -39.5q16 -4 30 0.5t24.5 15.5 t17 26.5t9.5 33.5q1 4 1 15v20q0 30 -10 59t-42 48q-21 12 -38 8.5t-29.5 -16.5t-20 -34.5t-8.5 -45.5z" unicode="?"/>
<glyph horiz-adv-x="595" glyph-name="at" d="M512 390q13 78 11.5 160t-19 155.5t-52 132.5t-88.5 93q-53 35 -110.5 33t-108.5 -42t-90 -118.5t-55 -196.5q-15 -125 -4.5 -223t37 -170t63.5 -118t75 -67q45 -28 79 -28.5t58 13.5q17 11 4 39q-10 20 -25.5 33t-30.5 21q-10 4 -19.5 4.5t-19 1.5t-21 3t-24.5 9 q-18 9 -40 38t-38 80t-21 126t11 176q16 102 46 171.5t66.5 108.5t75.5 47t74 -14q41 -26 62 -76t28.5 -108.5t5 -118t-8.5 -104.5q-17 -112 -40.5 -163.5t-37.5 -31.5q-5 7 -5 27q0 24 4 63.5t9 79.5t10 75t7 50t2.5 26.5t-2.5 22t-9 20.5t-18 21q-5 32 -18 55.5t-30 34.5 q-24 13 -49.5 0t-48 -46.5t-41 -84.5t-28.5 -114q-11 -62 -8.5 -108t13.5 -78t27.5 -51.5t33.5 -28.5q56 -30 92 24q19 -52 54 -67q22 -13 45 -11.5t44.5 24t40.5 71t32 129.5zM316 619q-10 -71 -21.5 -132.5t-23.5 -105t-24 -66.5t-22 -17q-6 2 -10.5 12t-6 29t0.5 49t9 72 q7 43 19 79.5t25 62.5t24 39.5t16 11.5q11 -10 14 -34z" unicode="@"/>
<glyph horiz-adv-x="479" glyph-name="A" d="M275 242q2 -51 5 -95t6 -82q3 -36 9.5 -50.5t22.5 -23.5q16 -11 31 -12.5t32 -1.5t22 9t4 32q-4 109 -7.5 229.5t-6 236t-3 218.5t0.5 178q1 30 -4.5 48.5t-24.5 29.5q-26 13 -55 26t-76 17q-27 4 -41 -13t-23 -44q-17 -53 -36 -118t-38.5 -137t-39.5 -147.5t-38 -149 t-34 -141.5t-28 -125q-5 -27 -5 -43t3 -26.5t8.5 -18t13.5 -17.5q10 -11 20.5 -19t18.5 -15q15 -11 22.5 -7t13.5 26q10 42 20.5 85t24.5 94q37 18 85.5 31t96.5 26zM152 411q29 109 57.5 208t51.5 177q0 -87 2 -177.5t4 -184.5q-29 -4 -57.5 -9.5t-57.5 -13.5z" unicode="A"/>
<glyph glyph-name="B" d="M313 473q20 20 35.5 41.5t29.5 41.5q26 42 42 96.5t8 117.5q-8 56 -23.5 97t-36.5 77q-24 39 -66.5 50t-90.5 2t-95.5 -33.5t-81.5 -55.5q-3 -81 -10.5 -175t-15.5 -189.5t-16 -187t-12 -167.5q-2 -24 -1.5 -39t3.5 -27t8.5 -23.5t12.5 -27.5q19 -30 33.5 -48.5 t34.5 -35.5q10 -12 18 -17.5t16.5 -7t17.5 2t22 9.5q24 12 50.5 29.5t52.5 39.5t49 48.5t40 56.5q23 38 33.5 77.5t5.5 94.5q-5 46 -21.5 88t-41.5 65zM149 555q8 59 15 110.5t15 97.5q51 42 87 44t41 -26q3 -17 -6.5 -45.5t-30.5 -61t-51.5 -64.5t-69.5 -55zM123 361 q25 16 46 21t37 2t25.5 -12.5t12.5 -21.5q3 -21 -6.5 -46t-28.5 -50t-47 -48t-62 -40q5 51 11 98t12 97z" unicode="B"/>
<glyph horiz-adv-x="428" glyph-name="C" d="M311 268q-62 33 -99 -42q-52 -106 -79 -88q-14 7 -20.5 41t-7.5 84t3.5 109.5t13.5 118.5q6 36 15 76t19.5 78.5t21.5 73t22 59.5t21 38t18 9q12 -8 14.5 -35.5t2.5 -61.5q0 -11 0.5 -21t1.5 -21q6 -54 24 -86t58 -46q21 -8 26 3t9 29q3 19 5 44t3 52t1 54q0 28 -1 52 q-2 42 -10.5 74.5t-32.5 64.5q-23 26 -57.5 49t-67.5 28q-22 2 -47 -8.5t-50 -46.5q-31 -46 -57 -111t-45 -139.5t-31 -155t-15.5 -157t1.5 -146t20 -122.5q9 -36 26.5 -63.5t34.5 -41.5q20 -13 45.5 -28t56.5 -20q30 -5 60.5 10t49.5 39q18 26 36 65t29 85q10 39 8.5 65 t-26.5 39z" unicode="C"/>
<glyph horiz-adv-x="489" glyph-name="D" d="M34 918l-56 -717q-3 -31 -2 -51t4.5 -34.5t9.5 -25t12 -22.5q17 -27 30.5 -44t32.5 -36q36 -37 71 -11q66 36 117 94.5t86.5 130t57 151t28.5 158t1 151.5t-25 132q-21 69 -50 111t-62.5 62.5t-69 23.5t-69 -6t-64 -27t-52.5 -40zM103 179q17 158 35.5 305.5t40.5 290.5 q19 11 35.5 11.5t30 -7t23 -22t15.5 -32.5q5 -18 8 -43.5t2 -60.5q-1 -49 -12 -108.5t-33.5 -120t-58 -116t-86.5 -97.5z" unicode="D"/>
<glyph horiz-adv-x="385" glyph-name="E" d="M45 923l-76 -751q-2 -35 3.5 -59t16.5 -43q13 -23 23 -38t21 -29q10 -13 23.5 -20.5t40.5 5.5l84 31.5t86 32.5q17 7 20.5 16.5t-0.5 35.5q-5 23 -10 45.5t-13 46.5q-7 23 -17.5 30.5t-27.5 4.5q-32 -4 -60 -9.5t-58 -16.5l10 70t10 73q37 15 76.5 27t77.5 25q17 7 21 16 t-1 36q-4 24 -8.5 46t-12.5 45q-7 23 -17 30t-27 5q-20 -1 -38.5 -3t-37.5 -7q10 59 18 112t16 101q42 11 80.5 18.5t73.5 14.5q17 4 21.5 13.5t1.5 36.5q-4 24 -7.5 43.5t-11.5 44.5q-10 45 -43 44q-35 -3 -70 -10t-68.5 -17.5t-64 -22t-55.5 -23.5z" unicode="E"/>
<glyph horiz-adv-x="380" glyph-name="F" d="M341 814q17 4 21 13t1 36q-5 45 -21 90q-11 27 -20 35.5t-26 7.5q-35 -3 -70.5 -8t-70 -12.5t-65.5 -17t-56 -21.5q1 -50 -3 -121t-11 -151.5t-16 -164t-17 -159t-14 -136.5t-8 -96q-1 -34 2 -52t19 -34q13 -10 29.5 -21.5t31.5 -17t26 0t12 28.5q8 71 18.5 158t23.5 181 q35 15 72.5 27.5t72.5 23.5q17 4 21.5 14.5t-0.5 36.5q-4 23 -8.5 45t-12.5 46q-13 38 -44 35q-19 -2 -37 -4t-36 -7q10 60 16.5 114t14.5 97q42 11 81 18.5t74 15.5z" unicode="F"/>
<glyph horiz-adv-x="442" glyph-name="G" d="M379 582q2 18 3.5 44t2 54.5t0 56.5t-2.5 51q-4 42 -13.5 75t-29.5 60q-21 30 -52.5 50t-61.5 27q-21 5 -47 0t-47 -33q-34 -43 -62 -105t-49 -135.5t-34.5 -153.5t-18.5 -157.5t-0.5 -148.5t19.5 -127q8 -36 24 -66.5t33 -48.5q46 -41 99 -55q59 -18 107 35 q36 43 66 121t51 189q5 31 4 52.5t-12 48.5q-6 14 -13 31t-15 31q-11 23 -24.5 29t-34.5 1q-18 -5 -43 -11t-48 -15q-12 -3 -22 -6t-17 -8t-10 -14t0 -24q11 -66 32 -95.5t59 -25.5q-10 -41 -21.5 -76.5t-24 -60t-25 -36t-24.5 -3.5q-14 9 -21 46t-8 89.5t4.5 113.5 t16.5 117q12 67 28.5 128.5t33.5 106.5t33.5 69.5t28.5 18.5q6 -3 8.5 -17t4.5 -34q1 -11 1.5 -22t0.5 -22q0 -12 0.5 -22t1.5 -21q4 -56 24.5 -91t63.5 -46q16 -3 21.5 4.5t9.5 30.5z" unicode="G"/>
<glyph horiz-adv-x="452" glyph-name="H" d="M428 863q4 26 0.5 41t-19.5 33q-17 19 -35.5 33.5t-35.5 22.5q-18 9 -27.5 4.5t-14.5 -36.5q-12 -87 -25 -198.5t-27 -229.5q-23 -3 -48.5 -7t-51.5 -9q13 98 24 182.5t21 144.5q4 27 0.5 41.5t-20.5 33.5q-16 19 -37 34.5t-39 24.5q-17 11 -26 5t-14 -38 q-6 -58 -12.5 -127t-13 -143t-13.5 -150.5t-14.5 -150t-15 -141.5t-15.5 -125q-5 -35 1 -53t21 -33q12 -14 29.5 -23.5t33.5 -18.5q17 -8 23 -1.5t9 29.5q7 63 14.5 139t18.5 162q26 8 52.5 14.5t52.5 14.5q-7 -71 -12 -129.5t-7 -104.5q-3 -23 -0.5 -40t10 -29.5t18 -21.5 t24.5 -17q13 -7 25 -13t20.5 -7t13.5 5.5t5 24.5q11 105 24.5 222.5t28 231.5t28.5 218.5t26 184.5z" unicode="H"/>
<glyph horiz-adv-x="208" glyph-name="I" d="M160 919q-16 19 -37 35t-39 24t-27 2t-14 -35q-7 -49 -15.5 -117.5t-17 -146.5t-16.5 -161t-15 -159.5t-12 -142.5t-7 -110q-2 -35 2.5 -53t19.5 -33q14 -14 30 -23.5t33 -18.5q17 -8 23 -1.5t9 29.5q6 57 13.5 128t16.5 147.5t18.5 156t19 153t18.5 138.5t17 113 q4 27 0.5 41.5t-20.5 33.5z" unicode="I"/>
<glyph horiz-adv-x="418" glyph-name="J" d="M92 -17q25 -12 45.5 -13.5t37 3.5t30 15.5t25.5 24.5q29 36 52 112.5t41.5 185.5t32.5 247.5t25 300.5q1 14 1 23q0 10 -2.5 18t-7 15.5t-13.5 17.5q-17 19 -39 32.5t-39 22.5q-18 8 -27.5 1.5t-12.5 -36.5q-5 -65 -12 -151.5t-16 -177.5t-19.5 -179.5t-22.5 -157.5 t-25 -111t-26 -41q-16 4 -19.5 31.5t-5.5 90.5q-2 97 -74 151q-22 19 -32 -0.5t-15 -61.5q-5 -56 -4.5 -99.5t9.5 -85.5q6 -29 14.5 -56t22 -50.5t32 -41.5t44.5 -30z" unicode="J"/>
<glyph horiz-adv-x="443" glyph-name="K" d="M220 380q27 49 56.5 103.5t56.5 109t49 105.5t35 92q10 32 11 54t-5 45q-8 28 -17.5 51t-22.5 41q-13 19 -23 19q-9 0 -18 -22q-14 -33 -37.5 -80.5t-51 -101.5t-56.5 -110.5t-55 -107.5q11 87 20.5 157t18.5 124q3 14 3 23q0 10 -2 18t-7 15.5t-14 17.5q-16 19 -37 35 t-39 24q-17 9 -26.5 2.5t-14.5 -35.5q-7 -48 -15.5 -117.5t-17.5 -149t-17.5 -164.5t-16 -163.5t-12.5 -145.5t-7 -111q-3 -48 10 -71.5t42 -39.5q15 -8 27 -14.5t20.5 -8t13.5 5.5t5 28q7 59 14.5 129.5t16.5 151.5q13 -38 28.5 -76.5t30.5 -72.5t27.5 -61t19.5 -43 q9 -19 18 -29t18 -13.5t17.5 -2t17.5 5.5q11 3 23 9.5t20 15.5q14 13 16 26.5t-9 35.5q-11 23 -25 57.5t-29.5 74t-31 82t-28.5 82.5z" unicode="K"/>
<glyph horiz-adv-x="355" glyph-name="L" d="M255 53q10 4 15.5 8t7 9.5t0.5 14t-4 22.5q-3 22 -8.5 45t-13.5 46t-18 30.5t-27 4.5q-30 -5 -56.5 -10t-55.5 -14q10 83 22 171.5t24 174.5t24 165t23 143q5 26 1.5 41t-19.5 33q-16 19 -37 33.5t-39 22.5q-17 9 -26.5 3.5t-15.5 -34.5q-9 -53 -18.5 -119t-19 -138.5 t-18.5 -148t-16.5 -146.5t-13 -134t-8.5 -111q-3 -32 2.5 -54t16.5 -41q15 -23 24 -38t20 -29q4 -6 9.5 -11.5t12.5 -8.5t17 -2t25 9q40 15 84 31t86 32z" unicode="L"/>
<glyph horiz-adv-x="616" glyph-name="M" d="M137 594q7 -115 17 -226t21 -202q3 -22 6 -36t7 -23t9 -15t12 -11q11 -8 22 -13.5t24 -10.5q18 -7 22.5 1t11.5 36q10 44 26.5 108.5t36 135.5t39.5 142.5t37 130.5q-9 -68 -17 -141.5t-14.5 -142.5t-11 -128t-6.5 -96q-3 -32 2 -52t21 -34q12 -13 28 -22t32 -16 q17 -8 23 2.5t10 34.5q4 45 10.5 110t15 140t17.5 156t18.5 158t18 145t15.5 119q5 34 0 52.5t-23 32.5q-26 21 -53.5 36t-51.5 26q-20 10 -33 8t-23 -17.5t-19.5 -46t-22.5 -76.5q-13 -42 -27.5 -90.5t-28 -98t-26.5 -97.5t-23 -88q-9 114 -14.5 179t-8.5 100t-3.5 48.5 t-0.5 22.5q-2 20 -4 35.5t-6.5 28t-12.5 23t-22 19.5q-22 15 -43.5 25t-52.5 18q-20 5 -30 -3.5t-16 -43.5q-7 -48 -15.5 -115.5t-17 -144t-17.5 -158t-16 -158.5t-12 -144.5t-7 -115.5q-2 -34 3 -52t21 -33q13 -13 28.5 -22.5t30.5 -16.5q16 -8 22 0t9 31q4 55 10.5 124.5 t15 146t18 157t19.5 158.5z" unicode="M"/>
<glyph horiz-adv-x="468" glyph-name="N" d="M258 408q-7 58 -14 121t-13.5 121t-11.5 107t-8 79q-4 39 -11.5 59t-25.5 33q-22 19 -42.5 30t-41.5 22q-17 8 -28 0.5t-16 -38.5q-8 -54 -17 -127t-17.5 -154t-17 -164t-15 -157t-11.5 -133t-7 -93q-3 -34 1.5 -52.5t18.5 -32.5q14 -19 30.5 -27t32.5 -16q17 -9 23.5 -4 t8.5 28q4 47 10.5 108t14 130t16 143.5t16.5 147.5q8 -60 17 -121.5t18 -119t18.5 -108.5t18.5 -90q12 -57 41 -78q16 -11 31.5 -19.5t31.5 -14.5q36 -15 39 34l13 130t15 144.5t16 150.5t16.5 148.5t16.5 137.5t15 118q4 28 1 46.5t-20 37.5q-11 11 -18.5 18t-14.5 12 t-14 8t-16 7q-18 8 -27.5 1t-13.5 -36q-15 -111 -31.5 -249t-27.5 -288z" unicode="N"/>
<glyph glyph-name="O" d="M340 915q-20 28 -50.5 47t-63.5 27q-25 7 -53.5 -6.5t-48.5 -41.5q-32 -46 -57 -107.5t-42.5 -131t-28 -144.5t-13 -148.5t3 -142t19.5 -125.5q9 -36 26 -64.5t34 -47.5q22 -23 48.5 -34t51.5 -16q38 -8 67.5 6t55.5 54q37 66 61 158t36.5 191.5t13.5 198t-8 178.5 q-6 46 -17.5 82t-34.5 67zM247 812q12 -6 18 -44.5t6.5 -93.5t-3.5 -118t-12 -117q-9 -69 -22 -127.5t-27.5 -99t-30 -60t-28.5 -10.5q-15 9 -22 46.5t-8 90t3.5 113.5t13.5 116q9 54 23 110.5t29.5 102t31.5 72t28 19.5z" unicode="O"/>
<glyph horiz-adv-x="472" glyph-name="P" d="M127 273q39 19 77.5 46.5t73.5 60.5t64.5 70.5t49.5 77.5q24 47 38.5 99.5t3.5 118.5q-11 67 -29.5 112t-39.5 83q-17 28 -40 39.5t-50 10.5t-56 -12.5t-57.5 -29t-55.5 -39t-50 -42.5q-4 -4 -8.5 -34t-8.5 -77t-8.5 -108t-9 -126l-9 -130t-9.5 -122t-10 -101t-10 -67 q-5 -34 0.5 -54.5t17.5 -34t28.5 -22.5t33.5 -18q17 -7 23 0t10 27q6 67 14 134t17 138zM156 497q10 71 19 135t19 123q22 17 43.5 25.5t38.5 9.5t28 -6t13 -20q5 -23 -3 -58t-28.5 -73t-53 -74.5t-76.5 -61.5z" unicode="P"/>
<glyph horiz-adv-x="462" glyph-name="Q" d="M367 49q-10 20 -18 40.5t-19 43.5q25 67 40.5 149.5t23 168t6.5 167.5t-9 148q-6 46 -17 82t-34 67q-20 28 -50.5 47t-63.5 27q-25 7 -53.5 -6.5t-48.5 -41.5q-32 -46 -57 -107.5t-42.5 -131t-28 -144.5t-13 -148.5t3 -142t19.5 -125.5q9 -36 26 -64.5t34 -47.5 q22 -23 48 -34t52 -16q24 -2 46 0.5t41 19.5q3 -4 5.5 -7.5t6.5 -10.5q22 -37 52 -26q25 10 47 34q13 11 13.5 23.5t-10.5 35.5zM177 153q-15 -22 -29 -11q-11 8 -18 31.5t-10 57t-2.5 75.5t3.5 87q8 87 24.5 172t41.5 155q12 34 24 57.5t22.5 32t19 -1.5t12.5 -41 q4 -28 5.5 -67.5t0 -84t-5.5 -90.5t-10 -86q-5 -46 -12 -85.5t-17 -74.5q-18 -7 -32.5 -14t-25.5 -18q-24 -22 -7 -57q4 -9 7.5 -18.5t8.5 -18.5z" unicode="Q"/>
<glyph horiz-adv-x="485" glyph-name="R" d="M124 296q17 -39 37.5 -79t41.5 -76t41 -67t35 -52q23 -27 41 -30.5t32 4.5q12 4 20.5 7t19.5 22q10 14 11 26.5t-13 35.5q-17 26 -36 59.5t-38.5 69.5t-37.5 72.5t-33 67.5q70 59 119 126t68 145q7 24 7 53q0 30 -5 66q-11 67 -29.5 112t-39.5 83q-26 43 -60.5 53 t-72.5 -2t-77.5 -38.5t-75.5 -55.5q-8 -7 -16 -39t-15.5 -80.5t-14.5 -110t-13.5 -127.5t-12 -132.5t-10.5 -125.5t-8.5 -106t-5.5 -74q-2 -35 2 -54.5t16 -34.5q12 -13 26 -18.5t31 -13.5q16 -7 22 0t9 27q8 71 16.5 141.5t18.5 145.5zM194 759q23 20 44 27.5t38 7.5 q35 0 43 -30q4 -18 -5.5 -51.5t-31 -71.5t-54.5 -75.5t-75 -63.5q12 75 21.5 138.5t19.5 118.5z" unicode="R"/>
<glyph horiz-adv-x="401" glyph-name="S" d="M-48 253q-13 -13 -13 -36q0 -22 27 -70q51 -97 101 -136.5t104 -36.5q40 1 68.5 19.5t47.5 45t30.5 57t17.5 57.5q14 55 -1.5 99t-45 84t-66 80.5t-63.5 87.5q-21 35 -20 80.5t13 89t30.5 79t33.5 49.5q11 14 16 11.5t6 -16t-1 -35.5t-5 -46.5l-6 -49t-4 -42.5 q-6 -94 80 -148q15 -11 23 -5t14 29q6 25 11.5 58.5t10 69.5t8 71t4.5 64q-1 32 -5.5 70t-29.5 76q-18 28 -45 51.5t-53 39.5q-17 9 -33 10t-29.5 -3t-24.5 -12t-18 -17q-21 -22 -42 -55.5t-39 -71.5t-31.5 -79t-19.5 -78q-18 -89 -3 -164t49 -126q23 -36 54 -72.5t56.5 -68 t39.5 -56.5t3 -39q-18 -28 -58.5 -9t-94.5 83q-19 23 -46.5 26.5t-50.5 -15.5z" unicode="S"/>
<glyph horiz-adv-x="443" glyph-name="T" d="M405 824q18 3 21 11.5t-1 32.5q-5 26 -13.5 53.5t-20.5 50.5q-6 13 -14.5 19t-25.5 6q-34 -2 -77.5 -7.5t-88.5 -13.5t-88.5 -18t-77.5 -22q-11 -5 -15 -13t2 -31t15.5 -56t21.5 -56q11 -23 20.5 -27.5t24.5 2.5q11 5 27.5 9t33.5 9q-10 -74 -20.5 -164.5t-19.5 -182 t-16 -175.5t-10 -144q-3 -25 0 -43t10.5 -30.5t18.5 -21.5t25 -17t25.5 -14.5t20 -7.5t13.5 5.5t6 24.5q9 93 20.5 195.5t24.5 206.5t26 206.5t25 194.5q29 5 56.5 9.5t50.5 8.5z" unicode="T"/>
<glyph horiz-adv-x="451" glyph-name="U" d="M0 133q10 -37 24 -61.5t30 -42.5q38 -42 98 -50q30 -4 53.5 4t46.5 31q32 37 56.5 113.5t44 185t34.5 245.5t29 295q3 27 0 41t-20 33q-16 15 -35 31.5t-36 24t-28.5 1.5t-12.5 -35q-6 -65 -14.5 -152.5t-19.5 -180t-24 -181.5t-27.5 -157t-31 -106t-34.5 -29 q-14 8 -19 45t-3 92t9 124t17 140t21.5 140t21.5 125q11 62 -21 104q-15 18 -31 32.5t-33 22.5q-18 11 -27.5 5t-14.5 -34q-12 -67 -24 -140.5t-22 -148.5t-17 -149t-9 -141t2.5 -125.5t16.5 -101.5z" unicode="U"/>
<glyph horiz-adv-x="466" glyph-name="V" d="M440 841q5 23 4 40.5t-7 31.5t-15.5 26t-21.5 23q-11 12 -22 20.5t-20.5 11t-17 -4t-11.5 -24.5q-35 -165 -73 -343t-80 -350q-6 87 -11 172t-9.5 162.5t-8 145t-6.5 119.5q-5 66 -42 90q-16 11 -30 15t-31 4t-21 -11t-4 -38q6 -217 17.5 -412.5t29.5 -363.5 q4 -31 16 -67.5t36 -58.5q22 -21 42 -34t43 -26t35.5 -4.5t22.5 40.5q14 53 31 122.5t35.5 147t36.5 158t34 156t28.5 141t19.5 111.5z" unicode="V"/>
<glyph horiz-adv-x="641" glyph-name="W" d="M118 330q2 70 5 146t6.5 145t6.5 124t4 82q2 28 -1.5 60t-20.5 50q-15 16 -32 24.5t-38 16.5q-18 7 -25 -2.5t-9 -40.5q-3 -59 -5.5 -130.5t-4 -148t-2.5 -155.5t-1 -154t1.5 -141.5t3.5 -118.5q1 -36 7 -53.5t22 -28.5q17 -11 36 -20t39 -16q15 -5 24.5 -0.5t17.5 31.5 q8 33 20.5 81.5t27.5 104.5t31 115t31 112q0 -41 2 -87t4.5 -89.5t5 -81.5t4.5 -64q2 -27 10 -50t27 -36q19 -9 32 -17t37 -17q22 -8 33.5 -0.5t17.5 32.5q11 53 25.5 120.5t30.5 142t33 152.5t34 152t33 139.5t29 115.5q6 27 5 53t-15 49q-26 33 -54 54q-19 13 -27.5 10 t-16.5 -34q-9 -35 -26 -103.5t-37 -153.5t-42 -179t-41 -180q2 69 4 139.5t4 131.5t3.5 107t1.5 64q0 31 -3 46t-20 28q-16 11 -27.5 18t-28.5 14t-25.5 0.5t-15.5 -28.5q-7 -18 -16.5 -51.5t-21 -76.5t-24.5 -93.5t-26.5 -103.5t-27 -105.5t-25.5 -100.5z" unicode="W"/>
<glyph horiz-adv-x="472" glyph-name="X" d="M201 708q-13 55 -24.5 104t-20.5 91q-8 29 -19 47t-31 22q-20 3 -37 3h-17h-9t-8 -1q-17 -5 -21 -16.5t2 -43.5q7 -33 17 -77t22 -95.5t25.5 -108t27.5 -113.5q-23 -52 -44.5 -104t-41 -100t-36 -91t-28.5 -78q-10 -29 -10 -47q0 -12 6 -29t15 -34t19.5 -33t19.5 -26 q26 -34 43 6q23 54 53 128.5t65 155.5q21 -85 36.5 -144.5t23.5 -81.5q11 -32 21 -45.5t28 -17.5q37 -6 70 0q29 7 13 53q-21 87 -46.5 194.5t-53.5 225.5q45 101 85.5 190.5t70.5 155.5q10 23 12 46.5t-9 51.5q-9 23 -22.5 48t-27.5 44q-14 14 -26 14t-23 -22 q-23 -47 -53.5 -116.5t-66.5 -155.5z" unicode="X"/>
<glyph horiz-adv-x="434" glyph-name="Y" d="M404 837q4 16 6 28t1.5 22.5t-3.5 20t-9 20.5q-10 15 -23.5 34t-27 30.5t-25 10t-16.5 -26.5q-29 -94 -60 -189t-63 -189q-16 94 -30.5 175.5t-27.5 144.5q-8 32 -16 47.5t-25 22.5t-34 5.5t-34 -4.5q-16 -4 -19 -13.5t2 -36.5q9 -58 20.5 -127t24.5 -143.5t26 -149.5 t25 -145q-8 -82 -13.5 -152.5t-10.5 -125.5q-2 -34 2.5 -51t18.5 -36q14 -12 31.5 -23t33.5 -20q17 -8 23 -2t10 32q7 71 15 144t19 155q27 75 55 154t52.5 152t43.5 134.5t28 101.5z" unicode="Y"/>
<glyph horiz-adv-x="375" glyph-name="Z" d="M198 781q-35 -78 -71.5 -167t-69.5 -175t-60.5 -161.5t-43.5 -126.5q-10 -31 -2.5 -53.5t16.5 -41.5q14 -23 24 -39t21 -31t24 -22t40 6q40 19 87.5 35t89.5 31q17 5 22 15t0 36q-3 23 -9 45.5t-14 46.5q-13 42 -49 34q-26 -7 -50 -13.5t-48 -17.5q61 150 125.5 301.5 t124.5 289.5q11 25 11.5 46.5t-4.5 44.5q-4 19 -8 39.5t-12 48.5q-7 22 -15.5 31t-25.5 8q-32 -3 -67.5 -7.5t-71 -11.5t-68.5 -15.5t-60 -19.5q-11 -7 -14.5 -15t1.5 -32q3 -12 7 -26t8.5 -28.5t9 -27.5t7.5 -22q11 -23 24.5 -29.5t29.5 -1.5q21 8 43 13t48 13z" unicode="Z"/>
<glyph horiz-adv-x="304" glyph-name="bracketleft" d="M209 45q-5 23 -8.5 43t-11.5 43q-13 41 -44 35q-11 -1 -21.5 -2.5t-21.5 -2.5q8 74 18 157t21 167t23 165t23 151q20 3 40 6.5t37 6.5q16 4 21 13t0 34q-4 23 -8.5 42.5t-12.5 42.5q-7 23 -16.5 34.5t-25.5 10.5q-24 -2 -52.5 -4t-55.5 -9q-29 -6 -35 -47 q-13 -81 -27 -183.5t-26.5 -209.5t-22.5 -209t-16 -183q-3 -38 1.5 -60t13.5 -42q10 -14 18.5 -28.5t18.5 -25.5q11 -15 24 -21t32 1q23 8 48 15.5t45 14.5q17 0 21.5 10.5t-0.5 34.5z" unicode="["/>
<glyph horiz-adv-x="358" glyph-name="backslash" d="M106 998q-18 7 -34 8t-33 0q-35 -2 -27 -56q6 -51 17.5 -127t25.5 -163.5t30 -180.5t31.5 -178.5t29.5 -156.5t24 -115q8 -32 16 -48t24 -19q26 -7 55 -1q17 3 21 13t-1 32q-10 57 -22.5 134t-26.5 163.5t-28 177.5t-26.5 175.5t-22.5 157.5t-16 123q-5 31 -11.5 42.5 t-25.5 18.5z" unicode="\"/>
<glyph horiz-adv-x="318" glyph-name="bracketright" d="M261 820q3 23 1.5 39t-12.5 39q-8 19 -16 33.5t-16 29.5q-10 18 -19.5 24.5t-26.5 3.5q-33 -4 -62.5 -9t-52.5 -13q-15 -4 -19 -17.5t-2 -33t8.5 -41.5t13.5 -43q7 -23 16 -30.5t27 -4.5q8 1 16 3t16 3q-10 -70 -21 -152t-22 -167t-21 -168t-17 -154q-19 -5 -39.5 -12.5 t-35.5 -14.5q-29 -14 -14 -56q7 -23 13.5 -42.5t13.5 -35.5q8 -16 17 -22.5t27 -1.5q21 7 43.5 11.5t45.5 11.5q22 1 28.5 13t8.5 31q6 53 13.5 117t15.5 133t17 140.5t18.5 140t18.5 131.5t18 114z" unicode="]"/>
<glyph horiz-adv-x="447" glyph-name="asciicircum" d="M328 459q14 -1 18.5 7t0.5 31q-6 36 -13.5 83.5t-15.5 99.5t-15 105.5t-12 102.5q-2 15 -3.5 25.5t-4 19t-6 16t-8.5 16.5q-10 14 -21.5 27t-23.5 27q-11 11 -20.5 10.5t-21.5 -23.5q-23 -38 -47 -83.5t-45.5 -91t-39.5 -87t-30 -72.5q-14 -33 1 -70q9 -23 17 -38t18 -31 q10 -17 17 -17q9 0 16 17q23 50 51 108t60 118q11 -70 21 -132t19 -104q11 -43 35 -52q15 -8 28 -9.5t25 -2.5z" unicode="^"/>
<glyph horiz-adv-x="430" glyph-name="underscore" d="M2 -286h447q12 -3 19 4.5t11.5 19.5t6.5 27.5t4 29.5q2 15 4.5 29.5t1.5 25.5t-7 17.5t-19 5.5h-446q-15 0 -22.5 -9.5t-11.5 -32.5q-4 -20 -6 -37.5t-4 -36.5q-4 -23 2 -33t20 -10z" unicode="_"/>
<glyph horiz-adv-x="395" glyph-name="grave" d="M87 1264q16 -18 39 -40.5t49.5 -45t55 -43.5t55.5 -37q22 -15 57 19q0 -1 3.5 4t6 14t1.5 19.5t-11 21.5q-46 35 -93.5 76.5t-83.5 89.5q-10 12 -23 11t-33 -18q-11 -9 -16 -26.5t-7 -44.5z" unicode="`"/>
<glyph horiz-adv-x="479" glyph-name="a" d="M275 242q2 -51 5 -95t6 -82q3 -36 9.5 -50.5t22.5 -23.5q16 -11 31 -12.5t32 -1.5t22 9t4 32q-4 109 -7.5 229.5t-6 236t-3 218.5t0.5 178q1 30 -4.5 48.5t-24.5 29.5q-26 13 -55 26t-76 17q-27 4 -41 -13t-23 -44q-17 -53 -36 -118t-38.5 -137t-39.5 -147.5t-38 -149 t-34 -141.5t-28 -125q-5 -27 -5 -43t3 -26.5t8.5 -18t13.5 -17.5q10 -11 20.5 -19t18.5 -15q15 -11 22.5 -7t13.5 26q10 42 20.5 85t24.5 94q37 18 85.5 31t96.5 26zM152 411q29 109 57.5 208t51.5 177q0 -87 2 -177.5t4 -184.5q-29 -4 -57.5 -9.5t-57.5 -13.5z" unicode="a"/>
<glyph glyph-name="b" d="M313 473q20 20 35.5 41.5t29.5 41.5q26 42 42 96.5t8 117.5q-8 56 -23.5 97t-36.5 77q-24 39 -66.5 50t-90.5 2t-95.5 -33.5t-81.5 -55.5q-3 -81 -10.5 -175t-15.5 -189.5t-16 -187t-12 -167.5q-2 -24 -1.5 -39t3.5 -27t8.5 -23.5t12.5 -27.5q19 -30 33.5 -48.5 t34.5 -35.5q10 -12 18 -17.5t16.5 -7t17.5 2t22 9.5q24 12 50.5 29.5t52.5 39.5t49 48.5t40 56.5q23 38 33.5 77.5t5.5 94.5q-5 46 -21.5 88t-41.5 65zM149 555q8 59 15 110.5t15 97.5q51 42 87 44t41 -26q3 -17 -6.5 -45.5t-30.5 -61t-51.5 -64.5t-69.5 -55zM123 361 q25 16 46 21t37 2t25.5 -12.5t12.5 -21.5q3 -21 -6.5 -46t-28.5 -50t-47 -48t-62 -40q5 51 11 98t12 97z" unicode="b"/>
<glyph horiz-adv-x="428" glyph-name="c" d="M311 268q-62 33 -99 -42q-52 -106 -79 -88q-14 7 -20.5 41t-7.5 84t3.5 109.5t13.5 118.5q6 36 15 76t19.5 78.5t21.5 73t22 59.5t21 38t18 9q12 -8 14.5 -35.5t2.5 -61.5q0 -11 0.5 -21t1.5 -21q6 -54 24 -86t58 -46q21 -8 26 3t9 29q3 19 5 44t3 52t1 54q0 28 -1 52 q-2 42 -10.5 74.5t-32.5 64.5q-23 26 -57.5 49t-67.5 28q-22 2 -47 -8.5t-50 -46.5q-31 -46 -57 -111t-45 -139.5t-31 -155t-15.5 -157t1.5 -146t20 -122.5q9 -36 26.5 -63.5t34.5 -41.5q20 -13 45.5 -28t56.5 -20q30 -5 60.5 10t49.5 39q18 26 36 65t29 85q10 39 8.5 65 t-26.5 39z" unicode="c"/>
<glyph horiz-adv-x="489" glyph-name="d" d="M34 918l-56 -717q-3 -31 -2 -51t4.5 -34.5t9.5 -25t12 -22.5q17 -27 30.5 -44t32.5 -36q36 -37 71 -11q66 36 117 94.5t86.5 130t57 151t28.5 158t1 151.5t-25 132q-21 69 -50 111t-62.5 62.5t-69 23.5t-69 -6t-64 -27t-52.5 -40zM103 179q17 158 35.5 305.5t40.5 290.5 q19 11 35.5 11.5t30 -7t23 -22t15.5 -32.5q5 -18 8 -43.5t2 -60.5q-1 -49 -12 -108.5t-33.5 -120t-58 -116t-86.5 -97.5z" unicode="d"/>
<glyph horiz-adv-x="385" glyph-name="e" d="M45 923l-76 -751q-2 -35 3.5 -59t16.5 -43q13 -23 23 -38t21 -29q10 -13 23.5 -20.5t40.5 5.5l84 31.5t86 32.5q17 7 20.5 16.5t-0.5 35.5q-5 23 -10 45.5t-13 46.5q-7 23 -17.5 30.5t-27.5 4.5q-32 -4 -60 -9.5t-58 -16.5l10 70t10 73q37 15 76.5 27t77.5 25q17 7 21 16 t-1 36q-4 24 -8.5 46t-12.5 45q-7 23 -17 30t-27 5q-20 -1 -38.5 -3t-37.5 -7q10 59 18 112t16 101q42 11 80.5 18.5t73.5 14.5q17 4 21.5 13.5t1.5 36.5q-4 24 -7.5 43.5t-11.5 44.5q-10 45 -43 44q-35 -3 -70 -10t-68.5 -17.5t-64 -22t-55.5 -23.5z" unicode="e"/>
<glyph horiz-adv-x="380" glyph-name="f" d="M341 814q17 4 21 13t1 36q-5 45 -21 90q-11 27 -20 35.5t-26 7.5q-35 -3 -70.5 -8t-70 -12.5t-65.5 -17t-56 -21.5q1 -50 -3 -121t-11 -151.5t-16 -164t-17 -159t-14 -136.5t-8 -96q-1 -34 2 -52t19 -34q13 -10 29.5 -21.5t31.5 -17t26 0t12 28.5q8 71 18.5 158t23.5 181 q35 15 72.5 27.5t72.5 23.5q17 4 21.5 14.5t-0.5 36.5q-4 23 -8.5 45t-12.5 46q-13 38 -44 35q-19 -2 -37 -4t-36 -7q10 60 16.5 114t14.5 97q42 11 81 18.5t74 15.5z" unicode="f"/>
<glyph horiz-adv-x="442" glyph-name="g" d="M379 582q2 18 3.5 44t2 54.5t0 56.5t-2.5 51q-4 42 -13.5 75t-29.5 60q-21 30 -52.5 50t-61.5 27q-21 5 -47 0t-47 -33q-34 -43 -62 -105t-49 -135.5t-34.5 -153.5t-18.5 -157.5t-0.5 -148.5t19.5 -127q8 -36 24 -66.5t33 -48.5q46 -41 99 -55q59 -18 107 35 q36 43 66 121t51 189q5 31 4 52.5t-12 48.5q-6 14 -13 31t-15 31q-11 23 -24.5 29t-34.5 1q-18 -5 -43 -11t-48 -15q-12 -3 -22 -6t-17 -8t-10 -14t0 -24q11 -66 32 -95.5t59 -25.5q-10 -41 -21.5 -76.5t-24 -60t-25 -36t-24.5 -3.5q-14 9 -21 46t-8 89.5t4.5 113.5 t16.5 117q12 67 28.5 128.5t33.5 106.5t33.5 69.5t28.5 18.5q6 -3 8.5 -17t4.5 -34q1 -11 1.5 -22t0.5 -22q0 -12 0.5 -22t1.5 -21q4 -56 24.5 -91t63.5 -46q16 -3 21.5 4.5t9.5 30.5z" unicode="g"/>
<glyph horiz-adv-x="452" glyph-name="h" d="M428 863q4 26 0.5 41t-19.5 33q-17 19 -35.5 33.5t-35.5 22.5q-18 9 -27.5 4.5t-14.5 -36.5q-12 -87 -25 -198.5t-27 -229.5q-23 -3 -48.5 -7t-51.5 -9q13 98 24 182.5t21 144.5q4 27 0.5 41.5t-20.5 33.5q-16 19 -37 34.5t-39 24.5q-17 11 -26 5t-14 -38 q-6 -58 -12.5 -127t-13 -143t-13.5 -150.5t-14.5 -150t-15 -141.5t-15.5 -125q-5 -35 1 -53t21 -33q12 -14 29.5 -23.5t33.5 -18.5q17 -8 23 -1.5t9 29.5q7 63 14.5 139t18.5 162q26 8 52.5 14.5t52.5 14.5q-7 -71 -12 -129.5t-7 -104.5q-3 -23 -0.5 -40t10 -29.5t18 -21.5 t24.5 -17q13 -7 25 -13t20.5 -7t13.5 5.5t5 24.5q11 105 24.5 222.5t28 231.5t28.5 218.5t26 184.5z" unicode="h"/>
<glyph horiz-adv-x="208" glyph-name="i" d="M160 919q-16 19 -37 35t-39 24t-27 2t-14 -35q-7 -49 -15.5 -117.5t-17 -146.5t-16.5 -161t-15 -159.5t-12 -142.5t-7 -110q-2 -35 2.5 -53t19.5 -33q14 -14 30 -23.5t33 -18.5q17 -8 23 -1.5t9 29.5q6 57 13.5 128t16.5 147.5t18.5 156t19 153t18.5 138.5t17 113 q4 27 0.5 41.5t-20.5 33.5z" unicode="i"/>
<glyph horiz-adv-x="418" glyph-name="j" d="M92 -17q25 -12 45.5 -13.5t37 3.5t30 15.5t25.5 24.5q29 36 52 112.5t41.5 185.5t32.5 247.5t25 300.5q1 14 1 23q0 10 -2.5 18t-7 15.5t-13.5 17.5q-17 19 -39 32.5t-39 22.5q-18 8 -27.5 1.5t-12.5 -36.5q-5 -65 -12 -151.5t-16 -177.5t-19.5 -179.5t-22.5 -157.5 t-25 -111t-26 -41q-16 4 -19.5 31.5t-5.5 90.5q-2 97 -74 151q-22 19 -32 -0.5t-15 -61.5q-5 -56 -4.5 -99.5t9.5 -85.5q6 -29 14.5 -56t22 -50.5t32 -41.5t44.5 -30z" unicode="j"/>
<glyph horiz-adv-x="443" glyph-name="k" d="M220 380q27 49 56.5 103.5t56.5 109t49 105.5t35 92q10 32 11 54t-5 45q-8 28 -17.5 51t-22.5 41q-13 19 -23 19q-9 0 -18 -22q-14 -33 -37.5 -80.5t-51 -101.5t-56.5 -110.5t-55 -107.5q11 87 20.5 157t18.5 124q3 14 3 23q0 10 -2 18t-7 15.5t-14 17.5q-16 19 -37 35 t-39 24q-17 9 -26.5 2.5t-14.5 -35.5q-7 -48 -15.5 -117.5t-17.5 -149t-17.5 -164.5t-16 -163.5t-12.5 -145.5t-7 -111q-3 -48 10 -71.5t42 -39.5q15 -8 27 -14.5t20.5 -8t13.5 5.5t5 28q7 59 14.5 129.5t16.5 151.5q13 -38 28.5 -76.5t30.5 -72.5t27.5 -61t19.5 -43 q9 -19 18 -29t18 -13.5t17.5 -2t17.5 5.5q11 3 23 9.5t20 15.5q14 13 16 26.5t-9 35.5q-11 23 -25 57.5t-29.5 74t-31 82t-28.5 82.5z" unicode="k"/>
<glyph horiz-adv-x="355" glyph-name="l" d="M255 53q10 4 15.5 8t7 9.5t0.5 14t-4 22.5q-3 22 -8.5 45t-13.5 46t-18 30.5t-27 4.5q-30 -5 -56.5 -10t-55.5 -14q10 83 22 171.5t24 174.5t24 165t23 143q5 26 1.5 41t-19.5 33q-16 19 -37 33.5t-39 22.5q-17 9 -26.5 3.5t-15.5 -34.5q-9 -53 -18.5 -119t-19 -138.5 t-18.5 -148t-16.5 -146.5t-13 -134t-8.5 -111q-3 -32 2.5 -54t16.5 -41q15 -23 24 -38t20 -29q4 -6 9.5 -11.5t12.5 -8.5t17 -2t25 9q40 15 84 31t86 32z" unicode="l"/>
<glyph horiz-adv-x="616" glyph-name="m" d="M137 594q7 -115 17 -226t21 -202q3 -22 6 -36t7 -23t9 -15t12 -11q11 -8 22 -13.5t24 -10.5q18 -7 22.5 1t11.5 36q10 44 26.5 108.5t36 135.5t39.5 142.5t37 130.5q-9 -68 -17 -141.5t-14.5 -142.5t-11 -128t-6.5 -96q-3 -32 2 -52t21 -34q12 -13 28 -22t32 -16 q17 -8 23 2.5t10 34.5q4 45 10.5 110t15 140t17.5 156t18.5 158t18 145t15.5 119q5 34 0 52.5t-23 32.5q-26 21 -53.5 36t-51.5 26q-20 10 -33 8t-23 -17.5t-19.5 -46t-22.5 -76.5q-13 -42 -27.5 -90.5t-28 -98t-26.5 -97.5t-23 -88q-9 114 -14.5 179t-8.5 100t-3.5 48.5 t-0.5 22.5q-2 20 -4 35.5t-6.5 28t-12.5 23t-22 19.5q-22 15 -43.5 25t-52.5 18q-20 5 -30 -3.5t-16 -43.5q-7 -48 -15.5 -115.5t-17 -144t-17.5 -158t-16 -158.5t-12 -144.5t-7 -115.5q-2 -34 3 -52t21 -33q13 -13 28.5 -22.5t30.5 -16.5q16 -8 22 0t9 31q4 55 10.5 124.5 t15 146t18 157t19.5 158.5z" unicode="m"/>
<glyph horiz-adv-x="468" glyph-name="n" d="M258 408q-7 58 -14 121t-13.5 121t-11.5 107t-8 79q-4 39 -11.5 59t-25.5 33q-22 19 -42.5 30t-41.5 22q-17 8 -28 0.5t-16 -38.5q-8 -54 -17 -127t-17.5 -154t-17 -164t-15 -157t-11.5 -133t-7 -93q-3 -34 1.5 -52.5t18.5 -32.5q14 -19 30.5 -27t32.5 -16q17 -9 23.5 -4 t8.5 28q4 47 10.5 108t14 130t16 143.5t16.5 147.5q8 -60 17 -121.5t18 -119t18.5 -108.5t18.5 -90q12 -57 41 -78q16 -11 31.5 -19.5t31.5 -14.5q36 -15 39 34l13 130t15 144.5t16 150.5t16.5 148.5t16.5 137.5t15 118q4 28 1 46.5t-20 37.5q-11 11 -18.5 18t-14.5 12 t-14 8t-16 7q-18 8 -27.5 1t-13.5 -36q-15 -111 -31.5 -249t-27.5 -288z" unicode="n"/>
<glyph glyph-name="o" d="M340 915q-20 28 -50.5 47t-63.5 27q-25 7 -53.5 -6.5t-48.5 -41.5q-32 -46 -57 -107.5t-42.5 -131t-28 -144.5t-13 -148.5t3 -142t19.5 -125.5q9 -36 26 -64.5t34 -47.5q22 -23 48.5 -34t51.5 -16q38 -8 67.5 6t55.5 54q37 66 61 158t36.5 191.5t13.5 198t-8 178.5 q-6 46 -17.5 82t-34.5 67zM247 812q12 -6 18 -44.5t6.5 -93.5t-3.5 -118t-12 -117q-9 -69 -22 -127.5t-27.5 -99t-30 -60t-28.5 -10.5q-15 9 -22 46.5t-8 90t3.5 113.5t13.5 116q9 54 23 110.5t29.5 102t31.5 72t28 19.5z" unicode="o"/>
<glyph horiz-adv-x="472" glyph-name="p" d="M127 273q39 19 77.5 46.5t73.5 60.5t64.5 70.5t49.5 77.5q24 47 38.5 99.5t3.5 118.5q-11 67 -29.5 112t-39.5 83q-17 28 -40 39.5t-50 10.5t-56 -12.5t-57.5 -29t-55.5 -39t-50 -42.5q-4 -4 -8.5 -34t-8.5 -77t-8.5 -108t-9 -126l-9 -130t-9.5 -122t-10 -101t-10 -67 q-5 -34 0.5 -54.5t17.5 -34t28.5 -22.5t33.5 -18q17 -7 23 0t10 27q6 67 14 134t17 138zM156 497q10 71 19 135t19 123q22 17 43.5 25.5t38.5 9.5t28 -6t13 -20q5 -23 -3 -58t-28.5 -73t-53 -74.5t-76.5 -61.5z" unicode="p"/>
<glyph horiz-adv-x="462" glyph-name="q" d="M367 49q-10 20 -18 40.5t-19 43.5q25 67 40.5 149.5t23 168t6.5 167.5t-9 148q-6 46 -17 82t-34 67q-20 28 -50.5 47t-63.5 27q-25 7 -53.5 -6.5t-48.5 -41.5q-32 -46 -57 -107.5t-42.5 -131t-28 -144.5t-13 -148.5t3 -142t19.5 -125.5q9 -36 26 -64.5t34 -47.5 q22 -23 48 -34t52 -16q24 -2 46 0.5t41 19.5q3 -4 5.5 -7.5t6.5 -10.5q22 -37 52 -26q25 10 47 34q13 11 13.5 23.5t-10.5 35.5zM177 153q-15 -22 -29 -11q-11 8 -18 31.5t-10 57t-2.5 75.5t3.5 87q8 87 24.5 172t41.5 155q12 34 24 57.5t22.5 32t19 -1.5t12.5 -41 q4 -28 5.5 -67.5t0 -84t-5.5 -90.5t-10 -86q-5 -46 -12 -85.5t-17 -74.5q-18 -7 -32.5 -14t-25.5 -18q-24 -22 -7 -57q4 -9 7.5 -18.5t8.5 -18.5z" unicode="q"/>
<glyph horiz-adv-x="485" glyph-name="r" d="M124 296q17 -39 37.5 -79t41.5 -76t41 -67t35 -52q23 -27 41 -30.5t32 4.5q12 4 20.5 7t19.5 22q10 14 11 26.5t-13 35.5q-17 26 -36 59.5t-38.5 69.5t-37.5 72.5t-33 67.5q70 59 119 126t68 145q7 24 7 53q0 30 -5 66q-11 67 -29.5 112t-39.5 83q-26 43 -60.5 53 t-72.5 -2t-77.5 -38.5t-75.5 -55.5q-8 -7 -16 -39t-15.5 -80.5t-14.5 -110t-13.5 -127.5t-12 -132.5t-10.5 -125.5t-8.5 -106t-5.5 -74q-2 -35 2 -54.5t16 -34.5q12 -13 26 -18.5t31 -13.5q16 -7 22 0t9 27q8 71 16.5 141.5t18.5 145.5zM194 759q23 20 44 27.5t38 7.5 q35 0 43 -30q4 -18 -5.5 -51.5t-31 -71.5t-54.5 -75.5t-75 -63.5q12 75 21.5 138.5t19.5 118.5z" unicode="r"/>
<glyph horiz-adv-x="401" glyph-name="s" d="M-48 257q-13 -13 -13 -36t28 -72q51 -98 101.5 -138t104.5 -37q40 1 68.5 19.5t47.5 45.5t30.5 58.5t17.5 58.5q14 56 -1.5 100.5t-45 85.5t-66 82t-64.5 89q-21 36 -20 82.5t13 90.5t31 79.5t34 50.5q11 14 16 12t6 -16t-1 -36t-5 -47t-6 -50.5t-4 -44.5q-6 -95 80 -149 q16 -12 23.5 -6t14.5 29q6 24 11.5 58.5t10 72t8 73.5t4.5 64q-1 32 -5.5 71t-29.5 77q-19 29 -46 53t-53 40q-17 9 -33 10t-30 -3t-25 -12.5t-18 -17.5q-21 -22 -42.5 -55.5t-39.5 -72t-31.5 -80t-19.5 -80.5q-18 -91 -3 -166.5t49 -127.5q24 -38 55 -74.5t57 -68.5 t39.5 -57t2.5 -40q-18 -29 -59 -10t-95 85q-19 23 -46.5 26.5t-50.5 -16.5z" unicode="s"/>
<glyph horiz-adv-x="443" glyph-name="t" d="M405 824q18 3 21 11.5t-1 32.5q-5 26 -13.5 53.5t-20.5 50.5q-6 13 -14.5 19t-25.5 6q-34 -2 -77.5 -7.5t-88.5 -13.5t-88.5 -18t-77.5 -22q-11 -5 -15 -13t2 -31t15.5 -56t21.5 -56q11 -23 20.5 -27.5t24.5 2.5q11 5 27.5 9t33.5 9q-10 -74 -20.5 -164.5t-19.5 -182 t-16 -175.5t-10 -144q-3 -25 0 -43t10.5 -30.5t18.5 -21.5t25 -17t25.5 -14.5t20 -7.5t13.5 5.5t6 24.5q9 93 20.5 195.5t24.5 206.5t26 206.5t25 194.5q29 5 56.5 9.5t50.5 8.5z" unicode="t"/>
<glyph horiz-adv-x="451" glyph-name="u" d="M0 133q10 -37 24 -61.5t30 -42.5q38 -42 98 -50q30 -4 53.5 4t46.5 31q32 37 56.5 113.5t44 185t34.5 245.5t29 295q3 27 0 41t-20 33q-16 15 -35 31.5t-36 24t-28.5 1.5t-12.5 -35q-6 -65 -14.5 -152.5t-19.5 -180t-24 -181.5t-27.5 -157t-31 -106t-34.5 -29 q-14 8 -19 45t-3 92t9 124t17 140t21.5 140t21.5 125q11 62 -21 104q-15 18 -31 32.5t-33 22.5q-18 11 -27.5 5t-14.5 -34q-12 -67 -24 -140.5t-22 -148.5t-17 -149t-9 -141t2.5 -125.5t16.5 -101.5z" unicode="u"/>
<glyph horiz-adv-x="466" glyph-name="v" d="M440 841q5 23 4 40.5t-7 31.5t-15.5 26t-21.5 23q-11 12 -22 20.5t-20.5 11t-17 -4t-11.5 -24.5q-35 -165 -73 -343t-80 -350q-6 87 -11 172t-9.5 162.5t-8 145t-6.5 119.5q-5 66 -42 90q-16 11 -30 15t-31 4t-21 -11t-4 -38q6 -217 17.5 -412.5t29.5 -363.5 q4 -31 16 -67.5t36 -58.5q22 -21 42 -34t43 -26t35.5 -4.5t22.5 40.5q14 53 31 122.5t35.5 147t36.5 158t34 156t28.5 141t19.5 111.5z" unicode="v"/>
<glyph horiz-adv-x="641" glyph-name="w" d="M118 330q2 70 5 146t6.5 145t6.5 124t4 82q2 28 -1.5 60t-20.5 50q-15 16 -32 24.5t-38 16.5q-18 7 -25 -2.5t-9 -40.5q-3 -59 -5.5 -130.5t-4 -148t-2.5 -155.5t-1 -154t1.5 -141.5t3.5 -118.5q1 -36 7 -53.5t22 -28.5q17 -11 36 -20t39 -16q15 -5 24.5 -0.5t17.5 31.5 q8 33 20.5 81.5t27.5 104.5t31 115t31 112q0 -41 2 -87t4.5 -89.5t5 -81.5t4.5 -64q2 -27 10 -50t27 -36q19 -9 32 -17t37 -17q22 -8 33.5 -0.5t17.5 32.5q11 53 25.5 120.5t30.5 142t33 152.5t34 152t33 139.5t29 115.5q6 27 5 53t-15 49q-26 33 -54 54q-19 13 -27.5 10 t-16.5 -34q-9 -35 -26 -103.5t-37 -153.5t-42 -179t-41 -180q2 69 4 139.5t4 131.5t3.5 107t1.5 64q0 31 -3 46t-20 28q-16 11 -27.5 18t-28.5 14t-25.5 0.5t-15.5 -28.5q-7 -18 -16.5 -51.5t-21 -76.5t-24.5 -93.5t-26.5 -103.5t-27 -105.5t-25.5 -100.5z" unicode="w"/>
<glyph horiz-adv-x="472" glyph-name="x" d="M201 708q-13 55 -24.5 104t-20.5 91q-8 29 -19 47t-31 22q-20 3 -37 3h-17h-9t-8 -1q-17 -5 -21 -16.5t2 -43.5q7 -33 17 -77t22 -95.5t25.5 -108t27.5 -113.5q-23 -52 -44.5 -104t-41 -100t-36 -91t-28.5 -78q-10 -29 -10 -47q0 -12 6 -29t15 -34t19.5 -33t19.5 -26 q26 -34 43 6q23 54 53 128.5t65 155.5q21 -85 36.5 -144.5t23.5 -81.5q11 -32 21 -45.5t28 -17.5q37 -6 70 0q29 7 13 53q-21 87 -46.5 194.5t-53.5 225.5q45 101 85.5 190.5t70.5 155.5q10 23 12 46.5t-9 51.5q-9 23 -22.5 48t-27.5 44q-14 14 -26 14t-23 -22 q-23 -47 -53.5 -116.5t-66.5 -155.5z" unicode="x"/>
<glyph horiz-adv-x="434" glyph-name="y" d="M404 837q4 16 6 28t1.5 22.5t-3.5 20t-9 20.5q-10 15 -23.5 34t-27 30.5t-25 10t-16.5 -26.5q-29 -94 -60 -189t-63 -189q-16 94 -30.5 175.5t-27.5 144.5q-8 32 -16 47.5t-25 22.5t-34 5.5t-34 -4.5q-16 -4 -19 -13.5t2 -36.5q9 -58 20.5 -127t24.5 -143.5t26 -149.5 t25 -145q-8 -82 -13.5 -152.5t-10.5 -125.5q-2 -34 2.5 -51t18.5 -36q14 -12 31.5 -23t33.5 -20q17 -8 23 -2t10 32q7 71 15 144t19 155q27 75 55 154t52.5 152t43.5 134.5t28 101.5z" unicode="y"/>
<glyph horiz-adv-x="375" glyph-name="z" d="M198 781q-35 -78 -71.5 -167t-69.5 -175t-60.5 -161.5t-43.5 -126.5q-10 -31 -2.5 -53.5t16.5 -41.5q14 -23 24 -39t21 -31t24 -22t40 6q40 19 87.5 35t89.5 31q17 5 22 15t0 36q-3 23 -9 45.5t-14 46.5q-13 42 -49 34q-26 -7 -50 -13.5t-48 -17.5q61 150 125.5 301.5 t124.5 289.5q11 25 11.5 46.5t-4.5 44.5q-4 19 -8 39.5t-12 48.5q-7 22 -15.5 31t-25.5 8q-32 -3 -67.5 -7.5t-71 -11.5t-68.5 -15.5t-60 -19.5q-11 -7 -14.5 -15t1.5 -32q3 -12 7 -26t8.5 -28.5t9 -27.5t7.5 -22q11 -23 24.5 -29.5t29.5 -1.5q21 8 43 13t48 13z" unicode="z"/>
<glyph horiz-adv-x="339" glyph-name="braceleft" d="M245 45q-4 23 -8.5 43t-12.5 43q-13 41 -43 35q-11 -1 -21.5 -2.5t-21.5 -2.5q8 74 18 157.5t21 167.5t22.5 165t22.5 150q21 3 40.5 6.5t36.5 6.5q17 4 21.5 13t-0.5 34q-4 23 -8 42.5t-12 42.5q-14 46 -43 45q-24 -2 -52.5 -4t-54.5 -9q-17 -3 -24.5 -15t-11.5 -32 q-11 -75 -23 -164t-25 -189q-20 -5 -37 -8.5t-29 -10.5q-21 -10 -14 -51q5 -23 12.5 -52.5t17.5 -52.5q8 -16 13 -22.5t13 -7.5q-7 -66 -12.5 -121.5t-10.5 -105.5q-3 -38 1 -60t17 -42q10 -14 19 -28.5t18 -25.5q11 -15 23.5 -22t33.5 2q23 8 47.5 15.5t45.5 14.5 q17 0 21.5 10.5t-0.5 34.5z" unicode="{"/>
<glyph horiz-adv-x="358" glyph-name="bar" d="M233 1006q-16 19 -31.5 29t-31.5 21q-17 11 -26.5 4t-14.5 -36q-7 -49 -16.5 -129t-20 -175.5t-21.5 -198t-20 -196.5t-16 -171.5t-10 -122.5q-2 -31 2 -49t19 -33q12 -11 24.5 -20t28.5 -17q17 -8 22.5 -1t9.5 32q5 54 14 135t20 174.5t23.5 193t24 191t22 168.5 t17.5 126q5 27 1.5 41.5t-20.5 33.5z" unicode="|"/>
<glyph horiz-adv-x="377" glyph-name="braceright" d="M261 820q3 23 1.5 39t-12.5 39q-8 19 -16 33.5t-16 29.5q-10 18 -19.5 24.5t-26.5 3.5q-33 -4 -62.5 -9t-52.5 -13q-12 -4 -20 -15t-3 -34t10 -43t13 -43t17 -30.5t27 -4.5q8 1 16 3t16 3q-10 -70 -21 -152t-22 -167t-21 -168t-17 -154q-15 -4 -31 -8.5t-29 -10t-22 -13 t-11 -16.5q-2 -8 1.5 -23t8.5 -32t11 -33t10 -25q8 -16 17 -22.5t26 -1.5q21 7 43.5 11.5t45.5 11.5q22 1 29 13t9 31q7 67 16.5 147t20.5 170q17 8 35.5 9.5t33 6t21 15t-0.5 36.5q-5 23 -9.5 47.5t-11.5 47.5q-14 44 -42 44q11 70 20.5 134t17.5 119z" unicode="}"/>
<glyph horiz-adv-x="495" glyph-name="asciitilde" d="M327 664q39 0 94 69q55 68 55 118q0 26 -19 42q-16 13 -33 13q-20 0 -40 -26q-3 -5 -10 -16.5t-14.5 -23.5t-14.5 -21t-11 -8q-13 2 -26 10t-26 17.5t-25.5 20t-24.5 16.5q-41 26 -77 26q-16 0 -40 -14t-47 -34t-42 -43.5t-26 -42.5q-9 -26 -9 -47q0 -52 44 -52 q24 0 42 20q1 0 8 9t16 20.5t18.5 20.5t17.5 9q9 0 23 -4t28.5 -10t27 -14t19.5 -17q29 -38 92 -38z" unicode="~"/>
<glyph horiz-adv-x="232" glyph-name="quotesinglbase" d="M148 -130q5 19 10.5 48.5t10.5 62.5t9 66t6 61q1 27 -1.5 44.5t-16.5 37.5q-10 13 -22 24t-25 20q-15 11 -23.5 7t-10.5 -32q-3 -36 -7.5 -85t-10 -99t-10.5 -96t-9 -77q-6 -44 22 -43q14 0 25.5 2t20.5 7q11 7 18 18t14 34z" unicode="‚"/>
<glyph horiz-adv-x="623" glyph-name="florin" d="M68 569q-47 -8 -28 -58q13 -39 42 -85q15 -23 30 -29t37 -1q13 3 25.5 6t25.5 5q-2 -20 -3 -41t-3 -44q0 -4 -3 -28l-6.5 -52t-6.5 -51.5t-3 -26.5q-8 -42 -16.5 -77t-17 -60t-17 -38.5t-16.5 -13.5q-16 4 -19.5 31.5t-5.5 90.5q-2 97 -74 151q-22 19 -32 -0.5t-15 -61.5 q-5 -56 -4.5 -99.5t9.5 -85.5q6 -29 14.5 -56t22 -50.5t32 -41.5t44.5 -30q25 -12 45.5 -13.5t37 3.5t30 15.5t25.5 24.5q26 33 44.5 79.5t33 114.5t26 161.5t23.5 220.5q34 3 67.5 5.5t65.5 4.5q23 2 31.5 9.5t2.5 31.5q-5 18 -10 39.5t-16 44.5q-16 40 -60 40h-33 q-16 0 -33 -1q2 19 3.5 39.5t3 38t2.5 29t1 13.5q8 43 16.5 78.5t17 61t17 39t16.5 13.5q16 -4 19.5 -31.5t5.5 -90.5q1 -95 74 -151q22 -19 32 1t15 62q5 56 4.5 99t-9.5 85q-6 29 -14.5 56t-22 50.5t-32 41.5t-44.5 30q-50 23 -82.5 10.5t-55.5 -40.5q-22 -28 -39 -66.5 t-30.5 -92t-23.5 -124t-19 -163.5q-43 -5 -80.5 -10.5t-66.5 -11.5z" unicode="ƒ"/>
<glyph horiz-adv-x="384" glyph-name="quotedblbase" d="M148 -125q5 19 10.5 48.5t10.5 62.5t9 66t6 61q1 27 -1.5 44.5t-16.5 37.5q-10 13 -22 24t-25 20q-15 11 -23.5 7t-10.5 -32q-3 -36 -7.5 -85t-10 -99t-10.5 -96t-9 -77q-6 -44 22 -43q29 0 46 9q11 7 18 18t14 34zM292 -140q9 21 19.5 58.5t19 78t13.5 76.5t4 56t-14 40 q-8 14 -19.5 26.5t-23.5 25.5q-29 29 -37 -18q-5 -36 -13 -83t-17 -95t-18 -92t-15 -73q-11 -44 19 -47q26 -8 46 1q12 3 20 14t16 32z" unicode="„"/>
<glyph horiz-adv-x="751" glyph-name="ellipsis" d="M509 95q-1 -30 4.5 -54t16 -41t24.5 -25.5t29 -7.5q15 0 27 9.5t20.5 23.5t13.5 29.5t7 27.5q3 18 3 38q0 30 -12.5 59.5t-38.5 45.5q-20 10 -36.5 5t-29 -20.5t-20 -39t-8.5 -50.5zM244 95q-1 -30 4.5 -54t16 -41t24.5 -25.5t29 -7.5q15 0 27 9.5t20.5 23.5t13.5 29.5 t7 27.5q3 18 3 38q0 30 -12.5 59.5t-38.5 45.5q-20 10 -36.5 5t-29 -20.5t-20 -39t-8.5 -50.5zM-19 95q-2 -60 19.5 -95t52.5 -33q15 0 27 9.5t20.5 23.5t13.5 29.5t7 27.5q3 18 3 38q0 30 -12.5 59.5t-38.5 45.5q-20 10 -36.5 5t-28.5 -21t-19 -39.5t-8 -49.5z" unicode="…"/>
<glyph horiz-adv-x="440" glyph-name="dagger" d="M-9 714q-47 -9 -28 -59q7 -20 17.5 -40.5t24.5 -43.5q15 -23 30 -29t37 -1q9 2 18.5 4t18.5 4q-6 -65 -12 -129t-11 -121.5t-9 -106.5t-5 -84q-2 -35 2.5 -53t19.5 -33q14 -14 30 -23.5t33 -18.5q17 -8 23 -1.5t9 29.5q6 55 13 123t15.5 141.5t17.5 150t18 148.5 q38 5 75 8t73 5q23 1 31.5 9t2.5 31q-5 19 -10 40t-16 44q-16 41 -60 41q-17 0 -35 -1t-37 -2q4 28 7.5 52t7.5 46q4 27 0.5 41.5t-20.5 33.5q-16 19 -37 35t-39 24t-27 2t-14 -35q-6 -40 -12.5 -94t-14.5 -117q-40 -5 -75 -10t-62 -10z" unicode="†"/>
<glyph horiz-adv-x="489" glyph-name="daggerdbl" d="M-5 360q-48 -8 -28 -58q7 -21 17.5 -41.5t24.5 -43.5q15 -23 30 -29t37 -1q9 2 18.5 4t19.5 4q-2 -26 -3 -48t-2 -39q-2 -35 2.5 -53t19.5 -33q14 -14 30 -23.5t33 -18.5q17 -8 23 -1.5t9 29.5q5 44 10.5 97t11.5 112q40 4 79.5 7t77.5 6q23 1 31.5 9t2.5 31 q-5 19 -10 40.5t-16 44.5q-16 40 -60 40q-20 0 -41.5 -0.5t-43.5 -1.5q5 45 11 89.5t11 88.5q38 5 75 8t73 5q23 1 31.5 9t2.5 31q-5 19 -10 40t-16 44q-16 41 -60 41q-17 0 -35 -1t-37 -2q4 28 7.5 52t7.5 46q4 27 0.5 41.5t-20.5 33.5q-16 19 -37 35t-39 24t-27 2t-14 -35 q-6 -40 -12.5 -94t-14.5 -117q-40 -5 -75 -10t-62 -10q-47 -9 -28 -59q7 -20 17.5 -40.5t24.5 -43.5q15 -23 30 -29t37 -1q9 2 18.5 4t18.5 4q-5 -44 -8.5 -86t-7.5 -82q-40 -5 -74.5 -10.5t-60.5 -10.5z" unicode="‡"/>
<glyph horiz-adv-x="447" glyph-name="circumflex" d="M329 1080q10 -1 12.5 4.5t0.5 20.5q-4 24 -9.5 56t-10.5 66.5t-10 70t-8 68.5q-2 21 -5 30t-9 21q-7 10 -14.5 18t-15.5 18q-8 8 -14 7.5t-14 -14.5q-16 -26 -32 -56t-30 -60.5t-26.5 -58.5t-20.5 -49q-9 -22 1 -47q6 -14 11.5 -24.5t11.5 -20.5q7 -12 12 -12t10 12 q16 33 34.5 71.5t40.5 78.5q8 -47 14 -88t12 -70q8 -28 24 -34q17 -8 35 -8z" unicode="ˆ"/>
<glyph horiz-adv-x="825" glyph-name="perthousand" d="M458 793q18 38 14 74.5t-21 71.5q-18 39 -35 5q-16 -31 -35 -54t-38.5 -38t-37.5 -21.5t-32 -3.5q-35 3 -53 48q-14 35 -24 53q-22 31 -58 44q-11 5 -26 -0.5t-26 -18.5q-24 -31 -41 -80t-26 -103t-8 -108t13 -95q7 -19 15.5 -36.5t17.5 -28.5q11 -13 25.5 -21t27.5 -13 q37 -10 67 29q15 21 25.5 50.5t17 64t9.5 71.5t3 72q25 -14 52 -9.5t51 27.5q-35 -76 -73 -163.5t-73 -172t-64.5 -159t-47.5 -123.5q-17 -51 -11.5 -84t23.5 -61q11 -13 17 -15t14 15q16 44 41.5 107.5t56.5 136.5t64.5 150.5t66 149.5t61 134.5t48.5 104.5zM497 365 q-2 23 -9 46t-20 41q-9 13 -24.5 25t-31.5 20q-12 4 -27.5 -1.5t-26.5 -18.5q-21 -26 -36.5 -64.5t-25.5 -82.5t-13.5 -90t-0.5 -87.5t13.5 -75t27.5 -51.5q11 -13 25 -20t28 -11q37 -12 66 26q15 21 26 50t18.5 63t11 70.5t3.5 71.5q0 24 -1 46.5t-3 42.5zM752 364 q-2 23 -9 45.5t-20 41.5q-9 13 -24.5 25t-31.5 19q-12 4 -27.5 -1t-26.5 -18q-21 -26 -36.5 -64.5t-25.5 -82.5t-13.5 -90.5t-0.5 -88t13.5 -74.5t27.5 -51q11 -13 25 -20t28 -12q37 -10 66 26q15 21 26 50.5t18.5 63t11 70t3.5 71.5q0 25 -1 47.5t-3 42.5zM676 398 q4 -3 6.5 -21.5t2 -45t-3 -57t-7.5 -57.5q-11 -72 -26 -108t-27 -27q-13 9 -13 58q0 26 3 56.5t10 64.5q4 25 11 51t15 46.5t16 32t13 7.5zM421 399q4 -3 6.5 -21.5t2 -45t-3 -57t-7.5 -57.5q-11 -72 -26 -108t-27 -27q-13 10 -13 59q0 26 3 56t10 65q4 25 11 51t15 46.5 t16 31.5t13 7zM149 875q6 -4 8 -21.5t2 -42.5q0 -24 -2.5 -54t-5.5 -62q-10 -74 -24 -108.5t-27 -26.5q-6 4 -9.5 19.5t-4 39t2 54t7.5 65.5q4 25 11 51t14.5 46.5t15 32t12.5 7.5z" unicode="‰"/>
<glyph horiz-adv-x="401" glyph-name="Scaron" d="M-48 253q-13 -13 -13 -36q0 -22 27 -70q51 -97 101 -136.5t104 -36.5q40 1 68.5 19.5t47.5 45t30.5 57t17.5 57.5q14 55 -1.5 99t-45 84t-66 80.5t-63.5 87.5q-21 35 -20 80.5t13 89t30.5 79t33.5 49.5q11 14 16 11.5t6 -16t-1 -35.5t-5 -46.5l-6 -49t-4 -42.5 q-6 -94 80 -148q15 -11 23 -5t14 29q6 25 11.5 58.5t10 69.5t8 71t4.5 64q-1 32 -5.5 70t-29.5 76q-18 28 -45 51.5t-53 39.5q-17 9 -33 10t-29.5 -3t-24.5 -12t-18 -17q-21 -22 -42 -55.5t-39 -71.5t-31.5 -79t-19.5 -78q-18 -89 -3 -164t49 -126q23 -36 54 -72.5t56.5 -68 t39.5 -56.5t3 -39q-18 -28 -58.5 -9t-94.5 83q-19 23 -46.5 26.5t-50.5 -15.5zM133 1460q-10 1 -12.5 -4.5t-0.5 -20.5q4 -24 9 -56t10.5 -66.5t10.5 -70t8 -68.5q2 -20 5 -29.5t9 -21.5q7 -10 14.5 -18t15.5 -18q8 -8 14 -7.5t14 15.5q16 25 32 55.5t30 61t26.5 58.5 t20.5 48q9 22 -1 47q-6 14 -11.5 24.5t-11.5 20.5q-8 12 -12 12q-6 0 -10 -12q-16 -33 -34.5 -71.5t-40.5 -78.5q-8 47 -14 88.5t-12 69.5q-8 28 -24 34q-10 5 -18.5 6.5t-16.5 1.5z" unicode="Š"/>
<glyph horiz-adv-x="348" glyph-name="guilsinglleft" d="M258 585q14 8 16 18.5t-8 30.5q-8 17 -16.5 33.5t-19.5 33.5q-8 13 -15.5 17.5t-16 2.5t-20 -9.5t-28.5 -17.5q-15 -11 -32 -23.5t-33.5 -26t-32 -26.5t-27.5 -25q-11 -8 -16.5 -23t-8.5 -34t-4 -39t-3 -38q-3 -12 -1 -37q1 -12 11 -22q51 -36 101.5 -73.5t95.5 -79.5 q14 -15 20.5 -11t11.5 27q6 28 9 75q1 23 -4.5 36t-17.5 26q-19 19 -44 39t-54 43q35 29 69 54.5t68 48.5z" unicode="‹"/>
<glyph horiz-adv-x="643" glyph-name="OE" d="M226 989q-25 7 -53.5 -6.5t-48.5 -41.5q-32 -46 -57 -107.5t-42.5 -131t-28 -144.5t-13 -148.5t3 -142t19.5 -125.5q9 -36 26 -64.5t34 -47.5q22 -23 48.5 -34t51.5 -16q35 -7 62 4t52 43q3 -5 6.5 -9t7.5 -9q10 -13 23.5 -20t40.5 6q40 14 84 31t86 32q17 7 20.5 16.5 t-0.5 35.5q-5 24 -10 46t-13 47q-7 23 -17.5 30.5t-27.5 4.5q-32 -4 -60 -9.5t-58 -16.5q5 34 10 69.5t10 73.5q37 14 76.5 26.5t77.5 25.5q17 7 21 15.5t-1 36.5q-4 23 -8.5 45.5t-12.5 45.5q-7 23 -17 29.5t-27 5.5q-41 -2 -76 -10q10 59 18 112t16 101q42 11 80.5 18 t73.5 14q17 4 21.5 14t1.5 37q-4 23 -7.5 43t-11.5 44q-11 47 -43 44q-65 -5 -128.5 -24t-114.5 -42q-20 20 -44.5 33t-50.5 20zM247 812q9 -5 14.5 -29t8 -60.5t1.5 -81.5t-4 -91l-10 -99q0 -3 -0.5 -6t-0.5 -6q-9 -69 -22 -127.5t-27.5 -99t-30 -60t-28.5 -10.5 q-15 9 -22 46.5t-8 90t3.5 113.5t13.5 116q9 54 23 110.5t29.5 102t31.5 72t28 19.5z" unicode="Œ"/>
<glyph horiz-adv-x="262" glyph-name="quoteleft" d="M91 783q13 -41 36 -58q10 -7 22.5 -11t23.5 -7q29 -6 19 40q-7 32 -16 79.5t-18.5 98.5t-18.5 101t-15 88q-7 44 -37 31q-12 -8 -23.5 -16.5t-19.5 -19.5q-9 -15 -11.5 -27.5t-1.5 -27.5t4.5 -35.5t6.5 -50.5q5 -25 11 -51.5t12.5 -51t13 -46t12.5 -36.5z" unicode="‘"/>
<glyph horiz-adv-x="232" glyph-name="quoteright" d="M148 785q5 19 10.5 48.5t10.5 62.5t9 66t6 61q1 27 -1.5 44.5t-16.5 37.5q-10 13 -22 24t-25 20q-15 11 -23.5 7t-10.5 -32q-3 -36 -7.5 -85t-10 -99t-10.5 -96t-9 -77q-6 -44 22 -43q28 0 46 9q11 7 18 18t14 34z" unicode="’"/>
<glyph horiz-adv-x="388" glyph-name="quotedblleft" d="M228 783q8 -23 16 -36.5t20 -21.5q10 -7 22.5 -11t23.5 -7q29 -6 19 40q-7 32 -16 79.5t-18.5 98.5t-18.5 101t-15 88q-7 44 -37 31q-12 -8 -23.5 -16.5t-19.5 -19.5q-13 -19 -14.5 -35t3.5 -43q3 -27 9.5 -62t14.5 -70t17 -66t17 -50zM83 794q10 -23 18.5 -34t21.5 -18 q21 -8 47 -10q27 -1 14 43q-8 31 -20.5 77t-26 96t-26 99t-20.5 85q-10 48 -38 25q-23 -19 -39 -43q-14 -24 -9.5 -57.5t18.5 -85.5q14 -50 30 -98t30 -79z" unicode="“"/>
<glyph horiz-adv-x="384" glyph-name="quotedblright" d="M148 785q5 19 10.5 48.5t10.5 62.5t9 66t6 61q1 27 -1.5 44.5t-16.5 37.5q-10 13 -22 24t-25 20q-15 11 -23.5 7t-10.5 -32q-3 -36 -7.5 -85t-10 -99t-10.5 -96t-9 -77q-6 -44 22 -43q29 0 46 9q11 7 18 18t14 34zM292 770q9 21 19.5 58.5t19 78t13.5 76.5t4 56t-14 40 q-8 14 -19.5 26.5t-23.5 25.5q-29 29 -37 -18q-5 -36 -13 -83t-17 -95t-18 -92t-15 -73q-11 -44 19 -47q26 -8 46 1q12 3 20 14t16 32z" unicode="”"/>
<glyph horiz-adv-x="324" glyph-name="bullet" d="M23 487q-2 -53 7.5 -95.5t27 -72t41.5 -44.5t51 -12q26 0 47 17t36 41.5t24.5 52t12.5 47.5q2 16 3.5 31t1.5 35q0 27 -5.5 54t-16.5 51.5t-28 45t-40 34.5q-35 18 -64 9t-50 -37t-33.5 -69.5t-14.5 -87.5z" unicode="•"/>
<glyph horiz-adv-x="555" glyph-name="endash" d="M18 533q-48 -8 -28 -59q7 -20 17.5 -40.5t24.5 -43.5q15 -23 30 -29t37 -1q76 19 162 28.5t167 14.5q23 1 31.5 9t2.5 31q-5 19 -10 40.5t-16 44.5q-16 40 -60 40q-45 0 -95 -3t-98 -8t-91 -11.5t-74 -12.5z" unicode="–"/>
<glyph horiz-adv-x="844" glyph-name="emdash" d="M18 533q-48 -8 -28 -59q7 -20 17.5 -40.5t24.5 -43.5q15 -23 30 -29t37 -1q25 6 77 11t117 9t136.5 7t137 5.5t118.5 4t80 3.5q23 2 31.5 9.5t2.5 31.5q-5 18 -10 39.5t-16 44.5q-16 40 -60 40q-30 0 -87.5 -1t-127.5 -3.5t-146 -5.5t-143.5 -6.5t-118.5 -7.5t-72 -8z " unicode="—"/>
<glyph horiz-adv-x="495" glyph-name="tilde" d="M336 1108q31 0 67 48q20 24 29.5 45.5t9.5 38.5t-13 30q-10 9 -24 9q-15 0 -28 -18q-2 -3 -7 -11.5t-10.5 -17t-10.5 -15t-8 -5.5q-9 1 -18.5 6.5t-18.5 12.5l-18 14t-17 12q-30 18 -55 18q-12 0 -29 -9.5t-33.5 -24t-30 -31t-18.5 -30.5q-6 -17 -6 -33q0 -37 31 -37 q18 0 30 13q1 0 6 6.5t11 15t13 15t13 6.5q7 0 17 -3t20 -7.5t19 -10t14 -11.5q11 -14 27 -20t38 -6z" unicode="˜"/>
<glyph horiz-adv-x="629" glyph-name="trademark" d="M335 757q4 -68 10 -134.5t13 -119.5q3 -26 7.5 -35.5t12.5 -16.5q10 -6 27 -13q11 -4 13.5 0.5t6.5 20.5q6 26 16 64.5t21.5 80.5t23.5 85t22 78q-5 -41 -10 -84.5t-8.5 -84.5t-6.5 -76t-4 -57q-2 -20 1 -31.5t13 -20.5q7 -7 16.5 -12.5t18.5 -9.5q11 -5 14.5 1.5 t5.5 20.5q3 40 10 105t15.5 136t16.5 138.5t14 112.5q3 20 0.5 31.5t-13.5 20.5q-16 11 -32.5 20t-30.5 16q-23 12 -33 -6t-25 -73q-8 -25 -16.5 -53.5t-16.5 -58t-15.5 -58t-13.5 -52.5q-6 67 -9 106t-4.5 60t-2 28.5t-0.5 13.5q-2 24 -6 38t-21 25q-13 9 -26 15t-31 11 q-12 3 -18 -2.5t-10 -25.5q-6 -43 -14 -110t-15.5 -139t-13 -138.5t-7.5 -109.5q-2 -20 1.5 -31t12.5 -20q8 -8 17 -13.5t18 -9.5q10 -4 13.5 0t5.5 18q2 33 6 74t9 86.5t10.5 93.5t11.5 95zM240 900q11 1 12.5 6t-0.5 20q-7 32 -20 61q-4 8 -8.5 11.5t-15.5 3.5 q-20 -2 -46 -5t-53 -7.5t-52.5 -10.5t-46.5 -13q-6 -3 -8.5 -7.5t1.5 -18.5t9 -34t13 -34q7 -13 12.5 -15.5t13.5 1.5q7 3 16.5 5t20.5 5q-6 -44 -12.5 -98t-11.5 -108t-9.5 -104t-5.5 -86q-4 -29 5.5 -42.5t26.5 -23.5q8 -5 15 -8.5t11.5 -4.5t7.5 3t4 15q6 55 12.5 116 t14 123t15.5 122.5t15 115.5q18 3 34 6t30 6z" unicode="™"/>
<glyph horiz-adv-x="401" glyph-name="scaron" d="M-48 253q-13 -13 -13 -36q0 -22 27 -70q51 -97 101 -136.5t104 -36.5q40 1 68.5 19.5t47.5 45t30.5 57t17.5 57.5q14 55 -1.5 99t-45 84t-66 80.5t-63.5 87.5q-21 35 -20 80.5t13 89t30.5 79t33.5 49.5q11 14 16 11.5t6 -16t-1 -35.5t-5 -46.5l-6 -49t-4 -42.5 q-6 -94 80 -148q15 -11 23 -5t14 29q6 25 11.5 58.5t10 69.5t8 71t4.5 64q-1 32 -5.5 70t-29.5 76q-18 28 -45 51.5t-53 39.5q-17 9 -33 10t-29.5 -3t-24.5 -12t-18 -17q-21 -22 -42 -55.5t-39 -71.5t-31.5 -79t-19.5 -78q-18 -89 -3 -164t49 -126q23 -36 54 -72.5t56.5 -68 t39.5 -56.5t3 -39q-18 -28 -58.5 -9t-94.5 83q-19 23 -46.5 26.5t-50.5 -15.5zM133 1460q-10 1 -12.5 -4.5t-0.5 -20.5q4 -24 9 -56t10.5 -66.5t10.5 -70t8 -68.5q2 -20 5 -29.5t9 -21.5q7 -10 14.5 -18t15.5 -18q8 -8 14 -7.5t14 15.5q16 25 32 55.5t30 61t26.5 58.5 t20.5 48q9 22 -1 47q-6 14 -11.5 24.5t-11.5 20.5q-8 12 -12 12q-6 0 -10 -12q-16 -33 -34.5 -71.5t-40.5 -78.5q-8 47 -14 88.5t-12 69.5q-8 28 -24 34q-10 5 -18.5 6.5t-16.5 1.5z" unicode="š"/>
<glyph horiz-adv-x="370" glyph-name="guilsinglright" d="M299 516q4 29 -1 39.5t-17 21.5q-27 23 -56 46t-58 44t-55 38t-47 29q-11 8 -19.5 4t-10.5 -23q-2 -23 -1.5 -51t2.5 -48q5 -23 9.5 -32.5t19.5 -16.5q23 -15 46.5 -31t47.5 -34q-43 -23 -83 -47.5t-68 -47.5q-9 -8 -13 -19.5t4 -30.5q11 -22 23 -43t23 -36 q12 -16 19.5 -17.5t18.5 9.5q38 31 78 56t91 51q14 9 20.5 18.5t11.5 32.5q9 35 15 88z" unicode="›"/>
<glyph horiz-adv-x="643" glyph-name="oe" d="M226 989q-25 7 -53.5 -6.5t-48.5 -41.5q-32 -46 -57 -107.5t-42.5 -131t-28 -144.5t-13 -148.5t3 -142t19.5 -125.5q9 -36 26 -64.5t34 -47.5q22 -23 48.5 -34t51.5 -16q35 -7 62 4t52 43q3 -5 6.5 -9t7.5 -9q10 -13 23.5 -20t40.5 6q40 14 84 31t86 32q17 7 20.5 16.5 t-0.5 35.5q-5 24 -10 46t-13 47q-7 23 -17.5 30.5t-27.5 4.5q-32 -4 -60 -9.5t-58 -16.5q5 34 10 69.5t10 73.5q37 14 76.5 26.5t77.5 25.5q17 7 21 15.5t-1 36.5q-4 23 -8.5 45.5t-12.5 45.5q-7 23 -17 29.5t-27 5.5q-41 -2 -76 -10q10 59 18 112t16 101q42 11 80.5 18 t73.5 14q17 4 21.5 14t1.5 37q-4 23 -7.5 43t-11.5 44q-11 47 -43 44q-65 -5 -128.5 -24t-114.5 -42q-20 20 -44.5 33t-50.5 20zM247 812q9 -5 14.5 -29t8 -60.5t1.5 -81.5t-4 -91l-10 -99q0 -3 -0.5 -6t-0.5 -6q-9 -69 -22 -127.5t-27.5 -99t-30 -60t-28.5 -10.5 q-15 9 -22 46.5t-8 90t3.5 113.5t13.5 116q9 54 23 110.5t29.5 102t31.5 72t28 19.5z" unicode="œ"/>
<glyph horiz-adv-x="434" glyph-name="Ydieresis" d="M404 837q4 16 6 28t1.5 22.5t-3.5 20t-9 20.5q-10 15 -23.5 34t-27 30.5t-25 10t-16.5 -26.5q-29 -94 -60 -189t-63 -189q-16 94 -30.5 175.5t-27.5 144.5q-8 32 -16 47.5t-25 22.5t-34 5.5t-34 -4.5q-16 -4 -19 -13.5t2 -36.5q9 -58 20.5 -127t24.5 -143.5t26 -149.5 t25 -145q-8 -82 -13.5 -152.5t-10.5 -125.5q-2 -34 2.5 -51t18.5 -36q14 -12 31.5 -23t33.5 -20q17 -8 23 -2t10 32q7 71 15 144t19 155q27 75 55 154t52.5 152t43.5 134.5t28 101.5zM66 1176q-2 -44 14.5 -70t39.5 -24q11 0 20 7t15.5 17.5t10.5 22t5 20.5q3 12 3 27 q0 24 -9.5 46t-29.5 34q-15 8 -27 4t-21 -16t-14.5 -30t-6.5 -38zM241 1176q-2 -44 14.5 -71t39.5 -25q11 0 20 7t15.5 17.5t10 22.5t5.5 21q1 7 1.5 13.5t0.5 14.5q0 23 -9 45t-29 33q-15 8 -27.5 4t-21.5 -15.5t-14 -29.5t-6 -37z" unicode="Ÿ"/>
<glyph horiz-adv-x="267" glyph-name="exclamdown" d="M-7 14q16 -18 36.5 -33t37.5 -23q19 -11 27.5 -3.5t13.5 37.5q10 65 22 150.5t23 176.5t21 178.5t16 155.5q4 34 -0.5 52t-19.5 32q-29 28 -62 39q-15 7 -22 1t-10 -32q-9 -72 -21 -152.5t-25.5 -164t-27.5 -168t-28 -163.5q-5 -27 -1 -45.5t20 -37.5zM226 920 q2 63 -19.5 97.5t-52.5 32.5q-15 0 -27 -9.5t-20.5 -24t-14 -30.5t-7.5 -28q-3 -16 -2.5 -36.5t6 -41t16.5 -38t29 -26.5q21 -12 37.5 -7t28 21t18.5 40t8 50z" unicode="¡"/>
<glyph horiz-adv-x="372" glyph-name="cent" d="M270 335q-46 24 -73 -31q-38 -78 -59 -65q-10 5 -15 30.5t-5.5 62t2.5 81t10 87.5q7 40 18 85.5t23.5 83t24.5 60t21 18.5q8 -5 10 -26t2 -46q0 -8 0.5 -15t1.5 -15q5 -42 18 -65t42 -34q16 -6 19.5 2.5t6.5 22.5q2 14 3.5 32t2.5 38t1 40t-1 38q-2 31 -8 55t-24 48 l-12 11q4 23 6.5 45t4.5 40q5 47 -5.5 81t-30.5 57q-24 29 -35 -13q-7 -29 -14.5 -74t-15.5 -90q-14 0 -30 -9t-32 -32q-23 -34 -42 -82t-33 -103t-23 -114t-11.5 -116t1 -108t14.5 -90q6 -23 16.5 -41.5t21.5 -30.5q-1 -10 -1.5 -19.5t-0.5 -20.5q-2 -47 6.5 -92t31.5 -68 q13 -13 20 -9.5t9 26.5q2 29 6.5 66t9.5 74h2q22 -2 44.5 8.5t36.5 29.5t27 47.5t21 61.5q8 29 6.5 48.5t-19.5 29.5z" unicode="¢"/>
<glyph horiz-adv-x="440" glyph-name="sterling" d="M50 576q9 2 17.5 3t16.5 3q-2 -23 -5 -46.5t-5 -46.5q-23 -4 -43.5 -9t-40.5 -11q-12 -4 -18.5 -17t0.5 -36q5 -19 12.5 -41t15.5 -41q8 -20 17.5 -25.5t25.5 -0.5l12 4q-4 -42 -7 -79.5t-5 -67.5q-3 -32 2.5 -54t16.5 -41q15 -23 24 -38t20 -29q4 -6 9.5 -11.5 t12.5 -8.5t17 -2t25 9q40 15 84 31t86 32q10 4 15.5 8t7 9.5t0.5 14t-4 22.5q-3 22 -8.5 45t-13.5 46t-18 30.5t-27 4.5q-30 -5 -56.5 -10t-55.5 -14q4 32 8 66t9 68q53 7 110 12q14 1 18.5 8.5t-0.5 30.5q-4 19 -8.5 37t-12.5 38q-12 37 -39 37q-11 0 -22.5 0.5t-23.5 -0.5 l12 89h43q22 0 45 -1q14 -3 19 4.5t1 30.5q-3 19 -7.5 36.5t-10.5 40.5q-10 37 -39 40q-7 1 -13.5 2t-14.5 2q5 30 9.5 58.5t9.5 54.5t1.5 41t-19.5 33q-16 19 -37 33.5t-39 22.5q-17 9 -26.5 3.5t-15.5 -34.5q-8 -45 -16 -97.5t-16 -111.5q-26 -2 -51.5 -5t-48.5 -8 q-12 -3 -19 -14t-2 -36q4 -20 10.5 -42t13.5 -41q8 -23 17 -28.5t25 -2.5z" unicode="£"/>
<glyph horiz-adv-x="512" glyph-name="currency" d="M51 516q4 1 7 1q4 0 8 2q-3 -24 -5.5 -47.5t-4.5 -46.5q-17 -3 -33 -7t-32 -9q-12 -4 -18.5 -17t0.5 -36q5 -19 12.5 -41t15.5 -41q8 -20 17.5 -25.5t25.5 -0.5q3 2 5 2q3 0 5 1q5 -76 21 -133q9 -36 26.5 -63.5t34.5 -41.5q20 -13 45.5 -28t56.5 -20q30 -5 60.5 10 t49.5 39q18 26 36 65t29 85q10 39 8.5 65t-26.5 39q-62 33 -99 -42q-52 -106 -79 -88q-15 8 -21.5 47.5t-6.5 96.5q29 5 58.5 8t60.5 5q14 1 18.5 8.5t-0.5 30.5q-4 19 -8.5 37t-12.5 38q-12 37 -39 37q-16 1 -32.5 0.5t-34.5 -1.5q2 11 3.5 23t3.5 23l4 22t4 23 q26 1 52.5 0.5t53.5 -2.5q14 -3 19 4.5t1 30.5q-3 19 -7.5 36.5t-10.5 40.5q-10 37 -39 40l-30 4q9 31 19 57t19 45t17 28t15 5q12 -8 14.5 -35.5t2.5 -61.5q0 -11 0.5 -21t1.5 -21q6 -54 24 -86t58 -46q21 -8 26 3t9 29q3 19 5 44t3 52t1 54q0 28 -1 52q-2 42 -10.5 74.5 t-32.5 64.5q-23 26 -57.5 49t-67.5 28q-22 2 -47 -8.5t-50 -46.5q-32 -48 -58 -114t-46 -142q-25 -2 -48 -5.5t-44 -7.5q-12 -3 -19 -14t-2 -36q4 -20 10.5 -42t13.5 -41q8 -23 17 -28.5t25 -2.5z" unicode="¤"/>
<glyph horiz-adv-x="434" glyph-name="yen" d="M57 367l39 7q-5 -48 -9 -93q-24 -4 -46.5 -9.5t-43.5 -11.5q-12 -4 -18.5 -17t0.5 -36q5 -19 12.5 -41.5t15.5 -40.5q8 -20 17.5 -25.5t25.5 -0.5q5 2 11 3.5t12 2.5q-1 -2 -1 -9q-2 -34 2.5 -51t18.5 -36q14 -12 31.5 -23t33.5 -20q17 -8 23 -2t10 32q3 33 6.5 68 t7.5 70q55 8 109 12q14 1 18.5 8.5t-0.5 30.5q-4 18 -8.5 36.5t-12.5 38.5q-12 36 -39 36q-11 0 -23 1t-24 -1q8 23 16.5 45t16.5 45q17 0 34 -0.5t34 -0.5q14 -3 19 4.5t1 30.5q-3 19 -7.5 36.5t-10.5 40.5q-4 11 -8.5 19t-11.5 13q33 95 59 176.5t37 131.5q4 16 6 28 t1.5 22.5t-3.5 20t-9 20.5q-10 15 -23.5 34t-27 30.5t-25 10t-16.5 -26.5q-29 -94 -60 -189t-63 -189q-16 94 -30.5 175.5t-27.5 144.5q-8 32 -16 47.5t-25 22.5t-34 5.5t-34 -4.5q-16 -4 -19 -13.5t2 -36.5q13 -84 30.5 -188.5t36.5 -211.5q-15 -2 -28.5 -4.5t-26.5 -4.5 q-12 -3 -19 -14t-2 -35q4 -20 10.5 -42.5t13.5 -40.5q8 -23 17 -28.5t25 -2.5z" unicode="¥"/>
<glyph horiz-adv-x="286" glyph-name="brokenbar" d="M233 1006q-16 19 -31.5 29t-31.5 21q-17 11 -26.5 4t-14.5 -36q-7 -54 -12 -90t-8.5 -62t-5.5 -46.5t-4 -43t-4 -52.5l-5 -75q-2 -31 2 -49t19 -33q12 -11 24.5 -20t28.5 -17q17 -8 22.5 -1t9.5 32q7 45 12.5 76t9.5 55t7 45.5t6.5 46.5t8.5 58.5t12 82.5q5 27 1.5 41.5 t-20.5 33.5zM163 389q-16 18 -31.5 28t-31.5 21q-17 11 -26.5 4.5t-14.5 -35.5q-7 -54 -12 -90t-8 -62t-4.5 -46.5t-3 -43.5t-3.5 -52.5t-5 -74.5q-2 -32 2 -50t19 -32q12 -11 24.5 -20t28.5 -18q17 -8 22.5 -0.5t9.5 31.5q7 45 12 76t8.5 55.5l6.5 45.5t6.5 46.5t8 58.5 t11.5 82q5 28 1.5 42.5t-20.5 33.5z" unicode="¦"/>
<glyph horiz-adv-x="603" glyph-name="section" d="M-28 224q-13 -14 -13 -37q0 -22 27 -70q51 -97 101 -136.5t104 -36.5q34 1 59 14.5t43.5 33.5t31 45t20.5 50q18 -6 41 -4q40 1 68.5 19.5t47.5 45t30.5 57.5t17.5 58q14 54 -1.5 98t-45 84.5t-66 80.5t-63.5 88q-21 35 -20 80.5t13 89t30.5 78.5t33.5 49q11 14 16 11.5 t6 -16t-1 -35.5t-5 -46.5t-6 -48.5t-4 -43q-6 -94 80 -148q15 -11 23 -5t14 30q6 25 11.5 58.5t10 69t8 70.5t4.5 64q-1 32 -5.5 70t-29.5 76q-18 29 -45 52t-53 39q-17 9 -33 10.5t-29.5 -3t-24.5 -12.5t-18 -17q-21 -22 -41.5 -54t-38.5 -70q-2 2 -5 3.5t-5 3.5 q-17 9 -33 10t-29.5 -3t-24.5 -12t-18 -17q-21 -22 -42 -55.5t-39 -71.5t-31.5 -79t-19.5 -78q-18 -89 -3 -164t49 -126q23 -36 54 -72.5t56.5 -68t39.5 -56.5t3 -39q-18 -28 -58.5 -9t-94.5 83q-19 23 -46.5 26.5t-50.5 -14.5zM179 474q-21 35 -30.5 77.5t-10 81.5t7.5 71 t23 46q15 20 26.5 28t17.5 2q0 -15 -0.5 -38t0.5 -48t3 -47t5 -35q10 -46 32.5 -86.5t49.5 -66.5q23 -30 47 -57.5t42 -51.5t26 -43t-1 -30q-14 -20 -41 -15t-63 37q-30 43 -67.5 84t-66.5 91z" unicode="§"/>
<glyph horiz-adv-x="420" glyph-name="dieresis" d="M66 1176q-2 -44 14.5 -70t39.5 -24q11 0 20 7t15.5 17.5t10.5 22t5 20.5q3 12 3 27q0 24 -9.5 46t-29.5 34q-15 8 -27 4t-21 -16t-14.5 -30t-6.5 -38zM241 1176q-2 -44 14.5 -71t39.5 -25q11 0 20 7t15.5 17.5t10 22.5t5.5 21q1 7 1.5 13.5t0.5 14.5q0 23 -9 45t-29 33 q-15 8 -27.5 4t-21.5 -15.5t-14 -29.5t-6 -37z" unicode="¨"/>
<glyph horiz-adv-x="833" glyph-name="copyright" d="M778 875q-24 59 -63 109t-84 87t-90.5 57.5t-82.5 20.5q-65 0 -129.5 -45t-121.5 -121t-102 -176t-70.5 -210t-28 -222t26.5 -213q14 -53 37 -93t59 -69q53 -41 117 -57t132 -8t135 39.5t125.5 84.5t104 128t69.5 169q16 63 22.5 136t2.5 143.5t-18.5 133t-40.5 106.5z M735 450q-15 -42 -32 -84.5t-37 -81.5t-43.5 -73t-50.5 -58q-40 -36 -77 -61t-77.5 -34.5t-88 -1.5t-108.5 39q-56 27 -83 83.5t-32 130t9.5 157.5t43 166.5t68 157t84 128.5t90.5 81t89 15q36 -10 72 -40.5t67.5 -75t57.5 -100t41 -115t18 -119.5t-11 -114zM506 360 q-44 25 -72 -30q-39 -78 -58 -65q-10 5 -15 30t-5.5 61.5t2.5 80.5t10 87q6 39 17 84t23.5 82t24.5 59.5t20 18.5q9 -6 11 -25.5t2 -45.5q0 -8 0.5 -15t0.5 -15q5 -40 18 -63.5t42 -34.5q16 -5 19.5 2.5t6.5 21.5q5 29 6.5 71t-0.5 77q-2 30 -8 54t-24 47q-17 20 -42 36 t-49 20q-16 2 -34.5 -6t-36.5 -34q-23 -34 -41.5 -81t-32.5 -101.5t-23 -113t-11.5 -115t1 -107t14.5 -89.5q7 -26 19.5 -46t25.5 -31q14 -10 32.5 -21t41.5 -14q23 -4 45 7t36 28q13 20 26 48t21 63q8 28 6.5 47t-19.5 28z" unicode="©"/>
<glyph horiz-adv-x="274" glyph-name="ordfeminine" d="M200 677q9 62 17 116.5t15 95.5q3 17 1 26t-12 21q-6 6 -15.5 14.5t-19.5 17t-19.5 15.5t-14.5 10q-11 6 -17 4.5t-15 -14.5q-17 -26 -37.5 -64.5t-41 -81t-39 -85t-30.5 -76.5q-6 -17 -6 -31q0 -13 5 -28q16 -36 34 -65q8 -14 15.5 -14.5t16.5 1.5q17 5 34 8.5t35 7.5 q-5 -36 -7.5 -63t-3.5 -47q-2 -22 0.5 -32.5t11.5 -22.5q9 -9 18.5 -15.5t17.5 -10.5q11 -5 15 -0.5t6 18.5q4 39 9.5 86t12.5 100q10 1 19 2l18 2q17 1 13 27q-3 14 -5 26t-6 26q-8 26 -25 26zM44 660q23 48 49.5 102t54.5 97q-8 -44 -14 -91.5t-13 -95.5q-20 -3 -40 -5 t-37 -7z" unicode="ª"/>
<glyph horiz-adv-x="624" glyph-name="guillemotleft" d="M293 456q-4 -28 1 -39t17 -22q27 -23 56 -46t58 -44t55 -38t47 -29q11 -7 19.5 -3t10.5 22q2 23 1.5 51t-2.5 48q-5 23 -9.5 32.5t-19.5 17.5q-23 14 -46.5 30t-47.5 35q43 22 83 47t68 47q9 8 13 19.5t-4 30.5q-11 23 -23 44t-23 35q-12 16 -19.5 17.5t-18.5 -9.5 q-38 -30 -78 -55.5t-91 -51.5q-14 -8 -20.5 -17.5t-11.5 -32.5q-9 -37 -15 -89zM-6 484q-2 -14 -1.5 -23.5t2.5 -16t6.5 -11.5t10.5 -11q27 -23 56 -46t58 -44t55 -38t47 -29q11 -7 19.5 -3t10.5 23q2 23 1.5 50.5t-2.5 47.5q-5 24 -9.5 33t-19.5 17q-23 14 -46.5 30 t-47.5 35q43 23 83 47.5t68 47.5q9 8 13 19t-4 30q-11 23 -23 44t-23 35q-12 16 -19.5 17.5t-18.5 -9.5q-38 -30 -78 -55t-91 -51q-14 -9 -20.5 -18.5t-11.5 -32.5q-9 -36 -15 -88z" unicode="«"/>
<glyph horiz-adv-x="949" glyph-name="logicalnot" d="M860 225q29 22 46 41q20 22 32.5 48.5t4.5 58.5q-5 29 -16.5 49.5t-27.5 37.5q-17 19 -48 25t-66.5 1.5t-71 -16.5t-61.5 -28q-2 -41 -7 -88t-10.5 -94.5t-11 -93.5t-8.5 -83q-4 -23 0.5 -33t15.5 -25q13 -15 23.5 -24.5t26.5 -17.5q14 -12 25 -13t31 7q16 6 35.5 14.5 t38.5 19.5t36.5 24.5t29.5 28.5q17 18 25 38t3 47q-2 23 -15 43.5t-30 32.5zM503 101q2 -25 4 -46.5t4 -41.5q3 -17 8 -24.5t16 -11.5q12 -6 23 -7t24 -1q12 0 15.5 4.5t3.5 16.5q-3 54 -5.5 114t-4.5 118t-2.5 109.5t1.5 88.5q0 16 -4.5 24.5t-18.5 14.5q-18 6 -39.5 12.5 t-55.5 8.5q-20 2 -30.5 -6.5t-17.5 -22.5q-19 -39 -41 -91.5t-43.5 -108.5t-40.5 -110.5t-32 -96.5q-3 -14 -3.5 -22t2 -13t6.5 -9l9 -9q8 -5 15.5 -9t13.5 -8q12 -5 16.5 -3t9.5 13q8 21 15.5 42.5t18.5 46.5q27 10 62.5 16.5t70.5 11.5zM660 933q2 13 0 20.5t-14 16.5 q-25 20 -52 28q-14 5 -20.5 2.5t-9.5 -19.5q-10 -43 -19 -98.5t-20 -114.5q-17 -2 -35.5 -4t-38.5 -4q11 49 18.5 91.5t15.5 71.5q2 14 -0.5 21.5t-14.5 16.5q-13 10 -27.5 17.5t-27.5 12.5q-14 5 -21 2.5t-9 -19.5q-7 -44 -14 -98.5t-15 -111.5t-16.5 -111.5t-17.5 -96.5 q-3 -17 1 -26t15 -17q10 -8 23 -12t24 -8q13 -5 17 -1.5t6 14.5q6 31 11 69t14 81q19 5 38.5 8t38.5 7q-5 -35 -8 -64.5t-5 -52.5q-5 -23 6.5 -34.5t31.5 -19.5q10 -3 18.5 -6t15 -3.5t10 3t3.5 12.5q7 52 17.5 110.5t21 115.5t21 109t18.5 92zM697 959l-54 -375 q-2 -17 1.5 -29t11.5 -22q9 -12 17 -19t16 -15q7 -6 17 -9.5t31 3.5q29 7 61 15t63 16q13 4 16 8.5t-2 17.5q-3 11 -6.5 22.5t-8.5 24.5q-5 11 -13 15t-22 2q-23 -2 -43.5 -5t-42.5 -8q5 17 7.5 34.5t7.5 36.5q27 8 56 14t57 12q13 4 16.5 8t-1.5 18q-3 12 -6.5 23t-8.5 23 q-9 19 -33 16q-16 0 -29 -1t-26 -4q7 29 12.5 56.5t12.5 50.5q31 6 59 9.5t54 7.5q12 2 15 6t1 18q-2 12 -5 22t-8 23q-9 22 -32 22q-51 -3 -102 -14t-89 -23zM343 914q13 2 15 6t0 16q-10 29 -24 52q-5 7 -11 10t-20 3q-25 -2 -56.5 -4.5t-65 -6.5t-65.5 -9t-58 -11 q-8 -2 -10.5 -6.5t1.5 -15.5q5 -11 11.5 -28t16.5 -28q8 -11 15 -13.5t19 1.5q8 2 19.5 4t24.5 5q-7 -37 -15 -82.5t-14.5 -91t-12 -87.5t-7.5 -72q-5 -25 7.5 -36.5t31.5 -19.5q21 -8 34 -11t15 15q7 46 15.5 97.5t18 103.5t19.5 103t19 97q20 3 40 5t37 4zM235 8 q15 4 16 8t-1 18q-4 11 -7.5 22.5t-8.5 22.5q-8 12 -14.5 16t-19.5 2q-23 -2 -42.5 -4.5t-42.5 -6.5q8 41 17 85t18 86.5t18 82.5t18 72q3 13 0 20.5t-14 15.5q-12 9 -27.5 16.5t-29.5 11.5q-13 5 -19 2t-11 -18q-10 -39 -21 -92.5t-20.5 -109t-17 -107t-11.5 -87.5 q-2 -16 2 -27t12 -21q11 -12 18 -19l15 -15q7 -6 16 -10.5t31 3.5q29 8 61.5 16.5t64.5 16.5zM291 294q6 8 13 21t14 28t13 30.5t10 28.5q1 8 1.5 13t0.5 7q0 10 -7 21q-6 7 -13.5 14.5t-15.5 13.5q-21 15 -29 -7q-6 -17 -14.5 -38.5t-17.5 -44t-17.5 -43.5t-14.5 -35 q-7 -20 13 -26q8 -1 17 -2t16 1q16 0 31 18zM739 266q5 29 10 55t12 49q38 21 63.5 22.5t30.5 -12.5q2 -9 -5 -23.5t-22 -30.5t-37.5 -32t-51.5 -28zM413 186q23 55 43 104t38 88q0 -43 1 -88t4 -92q-23 -2 -44 -5t-42 -7zM719 169q38 17 61.5 12.5t27.5 -17.5q2 -11 -5 -23 t-21 -24.5t-34.5 -24t-46.5 -19.5q5 24 9 47.5t9 48.5z" unicode="¬"/>
<glyph horiz-adv-x="833" glyph-name="registered" d="M778 875q-24 59 -63 109t-84 87t-90.5 57.5t-82.5 20.5q-65 0 -129.5 -45t-121.5 -121t-102 -176t-70.5 -210t-28 -222t26.5 -213q14 -53 37 -93t59 -69q53 -41 117 -57t132 -8t135 39.5t125.5 84.5t104 128t69.5 169q16 63 22.5 136t2.5 143.5t-18.5 133t-40.5 106.5z M735 450q-15 -42 -32 -84.5t-37 -81.5t-43.5 -73t-50.5 -58q-40 -36 -77 -61t-77.5 -34.5t-88 -1.5t-108.5 39q-56 27 -83 83.5t-32 130t9.5 157.5t43 166.5t68 157t84 128.5t90.5 81t89 15q36 -10 72 -40.5t67.5 -75t57.5 -100t41 -115t18 -119.5t-11 -114zM371 415 q12 -29 27 -57.5t30 -55t29.5 -48.5t25.5 -37q17 -20 29.5 -22.5t23.5 3.5q9 2 15 4t14 16q6 11 7 20t-8 25q-13 19 -27 43.5t-27.5 50.5t-27 52.5t-24.5 49.5q51 42 86.5 90t49.5 105q9 33 1 86q-8 47 -21 80t-29 60q-19 31 -43.5 38t-52 -1.5t-56 -27.5t-55.5 -40 q-8 -7 -15 -44.5t-14 -92.5t-13.5 -120.5t-11.5 -127t-9 -112t-6 -76.5t1.5 -40.5t11.5 -23.5q9 -10 19 -14t22 -11q11 -5 15.5 0t6.5 20q7 52 13 102.5t13 105.5zM421 749q35 26 60 26t30 -22q3 -14 -3.5 -38t-22 -51.5t-39.5 -54.5t-55 -46q9 54 16 100.5t14 85.5z" unicode="®"/>
<glyph horiz-adv-x="395" glyph-name="macron" d="M53 1266q-30 -9 -10 -70q4 -13 6 -16.5t4 -5t5.5 -5t9.5 -16.5q13 -27 24 -35t24 -1q48 23 104 34t110 18q16 1 20 10t-3 38q-3 12 -4 14.5t-1.5 4l-2 6t-6.5 18.5q-20 48 -46 48q-30 0 -62.5 -3.5t-64 -9.5t-59.5 -13.5t-48 -15.5z" unicode="¯"/>
<glyph horiz-adv-x="395" glyph-name="macron" d="M53 1266q-30 -9 -10 -70q4 -13 6 -16.5t4 -5t5.5 -5t9.5 -16.5q13 -27 24 -35t24 -1q48 23 104 34t110 18q16 1 20 10t-3 38q-3 12 -4 14.5t-1.5 4l-2 6t-6.5 18.5q-20 48 -46 48q-30 0 -62.5 -3.5t-64 -9.5t-59.5 -13.5t-48 -15.5z" unicode="ˉ"/>
<glyph horiz-adv-x="249" glyph-name="degree" d="M178 975q-11 8 -27.5 14t-34.5 9q-14 2 -29.5 -2.5t-26.5 -12.5q-26 -22 -43.5 -54t-26 -67t-7.5 -69.5t13 -60.5q5 -12 14 -21t18 -14q12 -8 26.5 -11.5t28.5 -4.5q40 -6 67 18q20 21 33.5 50t20 60.5t7.5 62.5t-4 56q-4 15 -10 26t-19 21zM127 942q7 -2 10 -14t3.5 -29 t-2 -37t-6.5 -37q-5 -22 -12 -40.5t-15 -31t-16.5 -18.5t-15.5 -3q-8 2 -12 14t-4.5 28.5t2 35.5t7.5 36t12.5 35t16 32.5t17 22.5t15.5 6z" unicode="°"/>
<glyph horiz-adv-x="488" glyph-name="plusminus" d="M376 564q14 0 18 8t-1 31q-5 20 -9.5 38.5t-12.5 40.5q-13 37 -40 39q-32 3 -79 0q4 27 8.5 50.5t8.5 46.5q5 23 3 36t-13 31q-10 19 -26 35.5t-31 27.5q-12 8 -20.5 -2t-12.5 -28q-9 -39 -17.5 -92.5t-16.5 -115.5q-40 -4 -76 -11.5t-62 -16.5q-11 -4 -19.5 -13.5 t-3.5 -32.5t15 -51.5t20 -47.5q11 -20 19 -24.5t23 0.5t31 9.5t33 7.5q-4 -36 -5.5 -66t-3.5 -53q-2 -44 20 -65q14 -15 25.5 -24t23.5 -20q14 -11 19 -7t8 29q5 48 11.5 106t14.5 121q38 7 75 8.5t73 4.5zM374 107q14 0 18 8t-1 31l-9.5 38t-12.5 41q-14 39 -40 39 q-45 -1 -75.5 -2.5t-53.5 -4t-41.5 -7t-40 -11t-49 -15t-67.5 -19.5q-11 -3 -19.5 -13.5t-3.5 -32.5q5 -23 15 -52t20 -47q11 -20 19 -24.5t23 0.5q43 14 69.5 24.5t45 18t33.5 12.5t36 8t52 5t82 3z" unicode="±"/>
<glyph horiz-adv-x="237" glyph-name="twosuperior" d="M71 494q18 25 36.5 55.5t35 62t30 63t22.5 59.5q15 48 19.5 89.5t-12.5 89.5q-6 15 -16.5 31t-24 28t-29.5 17.5t-34 -0.5q-30 -10 -56 -44.5t-44 -86.5q-11 -33 -9 -47t12 -21q17 -10 36.5 -9.5t34.5 20.5q9 16 18.5 31t18 25t15.5 13.5t12 -2.5t-0.5 -27.5t-18 -53.5 t-31 -71t-40 -79t-45 -78.5t-45.5 -68.5q-10 -14 -7.5 -29t7.5 -28q6 -15 15.5 -32.5t17.5 -27.5q5 -10 12 -13.5t25 3.5q12 5 30 10.5t38.5 10.5t40 8.5t34.5 5.5q9 3 11.5 8t-0.5 19q-2 12 -7 27.5t-10 27.5q-10 27 -27 24q-13 -1 -30.5 -3t-34.5 -7z" unicode="²"/>
<glyph horiz-adv-x="242" glyph-name="threesuperior" d="M129 685q18 15 32.5 30.5t25.5 33.5q9 14 14.5 34.5t6 45.5t-5.5 52.5t-19 55.5q-13 25 -26 38t-25 17.5t-23 3t-20 -4.5q-26 -10 -48.5 -37t-35.5 -54q-9 -22 3 -42q6 -9 15.5 -15.5t20 -8.5t20.5 1t17 13q11 11 22.5 21.5t20.5 10.5q6 0 9 -8q4 -9 -0.5 -24.5 t-19 -34.5t-39.5 -41t-62 -43q-15 -8 -6 -39q12 -34 29 -51t35 -12q14 2 22.5 0.5t16.5 -12.5q8 -12 8 -41q0 -28 -15 -58q-16 -30 -37.5 -33.5t-55.5 28.5q-12 11 -27 13t-28 -12q-7 -8 -7 -22q0 -13 17 -39q27 -46 55 -62.5t54 -16.5q33 0 60.5 18.5t47.5 68.5 q18 44 16 97t-33 99q-8 12 -16.5 18.5t-18.5 11.5z" unicode="³"/>
<glyph horiz-adv-x="395" glyph-name="acute" d="M355 1264q-2 27 -7 44.5t-16 26.5q-20 17 -33 18t-23 -11q-36 -48 -83.5 -89.5t-93.5 -76.5q-10 -11 -11 -21.5t1.5 -19.5t6 -14t3.5 -4q35 -34 57 -19q27 16 55.5 37t55 43.5t49.5 45t39 40.5z" unicode="´"/>
<glyph horiz-adv-x="508" glyph-name="mu" d="M209 -21q30 -4 53.5 4t46.5 31q32 37 56.5 113.5t44 185t34.5 245.5t29 295q3 27 0 41t-20 33q-16 15 -35 31.5t-36 24t-28.5 1.5t-12.5 -35q-6 -65 -14.5 -152.5t-19.5 -180t-24 -181.5t-27.5 -157t-31 -106t-34.5 -29q-11 6 -16.5 30.5t-6.5 61.5t2.5 84.5t9.5 100.5 q5 44 13 101.5t16.5 113.5t16.5 103t12 71q11 62 -21 104q-15 18 -31 32.5t-33 22.5q-18 11 -27.5 5t-14.5 -34q-15 -79 -29.5 -172t-28 -193.5t-26 -205.5t-22.5 -207t-18 -198.5t-12 -179.5q-2 -35 2.5 -53t19.5 -33q14 -14 30 -23.5t33 -18.5q17 -8 23 -1.5t9 29.5 q7 67 16 152.5t20 177.5q36 -28 82 -34z" unicode="µ"/>
<glyph horiz-adv-x="508" glyph-name="mu" d="M209 -21q30 -4 53.5 4t46.5 31q32 37 56.5 113.5t44 185t34.5 245.5t29 295q3 27 0 41t-20 33q-16 15 -35 31.5t-36 24t-28.5 1.5t-12.5 -35q-6 -65 -14.5 -152.5t-19.5 -180t-24 -181.5t-27.5 -157t-31 -106t-34.5 -29q-11 6 -16.5 30.5t-6.5 61.5t2.5 84.5t9.5 100.5 q5 44 13 101.5t16.5 113.5t16.5 103t12 71q11 62 -21 104q-15 18 -31 32.5t-33 22.5q-18 11 -27.5 5t-14.5 -34q-15 -79 -29.5 -172t-28 -193.5t-26 -205.5t-22.5 -207t-18 -198.5t-12 -179.5q-2 -35 2.5 -53t19.5 -33q14 -14 30 -23.5t33 -18.5q17 -8 23 -1.5t9 29.5 q7 67 16 152.5t20 177.5q36 -28 82 -34z" unicode="μ"/>
<glyph horiz-adv-x="472" glyph-name="paragraph" d="M81 199q-5 -71 -9.5 -138t-12.5 -134q0 -20 4.5 -27t23.5 0q19 9 37 18t32.5 22.5t24.5 34t12 54.5q0 6 4 35.5t10 74t14 100.5l16.5 115.5t17 117.5t15.5 107t12 85t7 51q14 9 23 -4t12 -39q-1 -18 -5.5 -56.5t-11.5 -90.5t-15 -113.5t-17 -124.5t-17.5 -124.5 t-15.5 -112.5t-12 -89t-7 -55q0 -20 4.5 -27t23.5 0q19 9 37 18t32.5 22.5t24 34t11.5 54.5q1 23 5.5 67t11 101t14.5 122.5t15.5 130.5t14.5 125.5t11.5 108t6 77t-2.5 33.5q-28 31 -65 62.5t-77 48t-79.5 10.5t-73.5 -48q-29 -38 -56 -83t-51 -112q-12 -33 -16.5 -62.5 t-3.5 -56.5t6.5 -51.5t13.5 -47.5q19 -61 61 -117q-5 -19 -6.5 -46.5t-3.5 -70.5z" unicode="¶"/>
<glyph horiz-adv-x="221" glyph-name="periodcentered" d="M38 554q-2 -60 19.5 -95.5t52.5 -32.5q15 0 27 9.5t20.5 23.5t13.5 29.5t7 27.5q3 18 3 38q0 30 -12.5 59.5t-38.5 45.5q-20 10 -36.5 5t-28.5 -21t-19 -39.5t-8 -49.5z" unicode="·"/>
<glyph horiz-adv-x="201" glyph-name="cedilla" d="M56 -234q8 17 18 43t20 56t18 60.5t13 56.5q2 17 3.5 27.5t1.5 15.5q0 14 -11 41q-8 15 -18 29t-23 27q-28 32 -38 -13q-8 -34 -19.5 -78t-23.5 -89.5t-23.5 -87t-19.5 -70.5q-12 -40 17 -51q12 -2 23.5 -4t22.5 1q22 1 39 36z" unicode="¸"/>
<glyph horiz-adv-x="151" glyph-name="onesuperior" d="M134 893q3 17 0.5 25.5t-12.5 20.5q-11 11 -27 24t-27 18t-15.5 2t-11.5 -17q-7 -17 -16 -39.5t-14 -43.5q-5 -19 -1.5 -26.5t17.5 -21.5q-6 -45 -12 -98t-10.5 -105t-8 -96.5t-4.5 -72.5q-2 -22 0.5 -33.5t9.5 -20.5q10 -8 25.5 -17.5t26.5 -14.5q10 -5 13 -1.5t5 17.5 q4 50 11.5 117.5t16.5 137.5t17.5 135t16.5 110z" unicode="¹"/>
<glyph horiz-adv-x="802" glyph-name="ordmasculine" d="M258 408q-7 58 -14 121t-13.5 121t-11.5 107t-8 79q-4 39 -11.5 59t-25.5 33q-22 19 -42.5 30t-41.5 22q-17 8 -28 0.5t-16 -38.5q-8 -54 -17 -127t-17.5 -154t-17 -164t-15 -157t-11.5 -133t-7 -93q-3 -34 1.5 -52.5t18.5 -32.5q14 -19 30.5 -27t32.5 -16q17 -9 23.5 -4 t8.5 28q4 47 10.5 108t14 130t16 143.5t16.5 147.5q8 -60 17 -121.5t18 -119t18.5 -108.5t18.5 -90q12 -57 41 -78q16 -11 31.5 -19.5t31.5 -14.5q36 -15 39 34l13 130t15 144.5t16 150.5t16.5 148.5t16.5 137.5t15 118q4 28 1 46.5t-20 37.5q-11 11 -18.5 18t-14.5 12 t-14 8t-16 7q-18 8 -27.5 1t-13.5 -36q-15 -111 -31.5 -249t-27.5 -288zM684 759q-24 18 -62 24q-14 2 -29.5 -2.5t-26.5 -13.5q-26 -22 -43.5 -54t-26 -67t-7.5 -69.5t13 -60.5q5 -12 14 -21t18 -14q12 -8 26.5 -11t28.5 -5q21 -3 37 1.5t30 17.5q20 21 33.5 49.5t20 60 t7.5 62.5t-4 56q-4 15 -10 26t-19 21zM438 348q-30 -9 -10 -70q4 -13 4.5 -17t1 -6.5t2.5 -6.5t8 -17q13 -27 30.5 -35t30.5 -1q48 23 104 34t110 18q16 1 20 10t-3 38q-3 12 -4.5 15.5t-3 5.5t-3.5 7t-7 19q-20 48 -46 48q-30 0 -62.5 -3.5t-64 -9.5t-59.5 -13.5t-48 -15.5 zM629 702q5 -2 7.5 -10.5t2.5 -21.5q0 -12 -1.5 -26.5t-4.5 -26.5q-8 -31 -19.5 -51t-22.5 -15q-6 2 -8.5 10.5t-3 20.5t1 25.5t5.5 25.5q3 12 8.5 25t11.5 23t12 16t11 5z" unicode="º"/>
<glyph horiz-adv-x="624" glyph-name="guillemotright" d="M299 516q4 29 -1 39.5t-17 21.5q-27 23 -56 46t-58 44t-55 38t-47 29q-11 8 -19.5 4t-10.5 -23q-2 -23 -1.5 -51t2.5 -48q5 -23 9.5 -32.5t19.5 -16.5q23 -15 46.5 -31t47.5 -34q-43 -23 -83 -47.5t-68 -47.5q-9 -8 -13 -19.5t4 -30.5q11 -22 23 -43t23 -36 q12 -16 19.5 -17.5t18.5 9.5q38 31 78 56t91 51q14 9 20.5 18.5t11.5 32.5q9 35 15 88zM598 489q4 28 -1 39t-17 22q-27 23 -56 46t-58 44t-55 38t-47 29q-11 7 -19.5 3t-10.5 -22q-2 -23 -1.5 -51t2.5 -48q5 -23 9.5 -32.5t19.5 -17.5q23 -14 46.5 -30t47.5 -35 q-43 -22 -83 -47t-68 -47q-9 -8 -13 -19.5t4 -30.5q11 -23 23 -44t23 -35q12 -16 19.5 -17.5t18.5 9.5q38 30 78 55.5t91 51.5q14 8 20.5 17.5t11.5 32.5q9 37 15 89z" unicode="»"/>
<glyph horiz-adv-x="536" glyph-name="onequarter" d="M462 274q9 62 17 116.5t15 95.5q3 17 1 26t-12 21q-6 6 -15.5 14.5t-19.5 17t-19.5 15.5t-14.5 10q-11 6 -17 4.5t-15 -14.5q-17 -26 -37.5 -64.5t-41 -81t-39 -85t-30.5 -76.5q-6 -17 -6 -31q0 -13 5 -28q16 -36 34 -65q8 -14 15.5 -14.5t16.5 1.5q17 5 34 8.5t35 7.5 q-5 -36 -7.5 -63t-3.5 -47q-2 -22 0.5 -32.5t11.5 -22.5q9 -9 18.5 -15.5t17.5 -10.5q11 -5 15 -0.5t6 18.5q4 39 9.5 86t12.5 100q10 1 19 2l18 2q17 1 13 27q-3 14 -5 26t-6 26q-8 26 -25 26zM478 905q-4 12 -5.5 14.5t-2.5 2.5t-3 1.5t-7 11.5q-20 41 -47 2 q-25 -35 -61.5 -95t-78.5 -132.5t-86.5 -152t-84.5 -152t-72.5 -132.5t-50.5 -94q-14 -27 -17 -46q-1 -11 0 -21.5t6 -20.5q3 -8 3.5 -6.5t0.5 4.5t1.5 3.5t6.5 -9.5q11 -19 19.5 -17.5t19.5 22.5q24 41 60 102t78 131.5t87 145t87 143t78 125.5t59 92q13 20 16 35t-6 43z M112 902q3 17 0.5 25.5t-12.5 20.5q-11 11 -27 24.5t-27 18.5t-15.5 1.5t-11.5 -17.5q-7 -17 -16 -39.5t-14 -43.5q-5 -19 -1.5 -26.5t17.5 -21.5q-6 -45 -12 -98t-10.5 -105t-8 -96.5t-4.5 -72.5q-2 -22 0.5 -33.5t9.5 -19.5q10 -9 25.5 -18.5t26.5 -14.5q10 -5 13 -1.5 t5 17.5q4 50 11.5 118t16.5 138t17.5 134.5t16.5 109.5zM306 257q23 48 49.5 102t54.5 97q-8 -44 -14 -91.5t-13 -95.5q-20 -3 -40 -5t-37 -7z" unicode="¼"/>
<glyph horiz-adv-x="563" glyph-name="onehalf" d="M478 905q-4 12 -5.5 14.5t-2.5 2.5t-3 1.5t-7 11.5q-20 41 -47 2q-25 -35 -61.5 -95t-78.5 -132.5t-86.5 -152t-84.5 -152t-72.5 -132.5t-50.5 -94q-14 -27 -17 -46q-1 -11 0 -21.5t6 -20.5q3 -8 3.5 -6.5t0.5 4.5t1.5 3.5t6.5 -9.5q11 -19 19.5 -17.5t19.5 22.5 q24 41 60 102t78 131.5t87 145t87 143t78 125.5t59 92q13 20 16 35t-6 43zM385 101q18 25 36.5 55.5t35 62t30 63t22.5 60.5q15 47 19.5 89t-12.5 89q-6 16 -16.5 32t-24 28t-29.5 17.5t-34 -0.5q-30 -10 -56 -45t-44 -87q-11 -33 -9 -46.5t12 -20.5q17 -10 36 -10 q20 0 35 20q9 16 18.5 31.5t18 25.5t15.5 13.5t12 -2.5t-0.5 -27.5t-18 -53.5t-31 -71.5t-40 -79.5t-45 -78.5t-45.5 -68.5q-10 -14 -7.5 -29t7.5 -28q6 -14 15.5 -32t17.5 -28q5 -10 12 -13.5t25 3.5q12 5 30 10.5t38.5 10.5t40 8.5t34.5 5.5q9 3 11.5 8t-0.5 19 q-2 12 -7 27.5t-10 27.5q-10 26 -27 25q-13 -2 -30.5 -4t-34.5 -7zM112 902q3 17 0.5 25.5t-12.5 20.5q-11 11 -27 24.5t-27 18.5t-15.5 1.5t-11.5 -17.5q-7 -17 -16 -39.5t-14 -43.5q-5 -19 -1.5 -26.5t17.5 -21.5q-6 -45 -12 -98t-10.5 -105t-8 -96.5t-4.5 -72.5 q-2 -22 0.5 -33.5t9.5 -19.5q10 -9 25.5 -18.5t26.5 -14.5q10 -5 13 -1.5t5 17.5q4 50 11.5 118t16.5 138t17.5 134.5t16.5 109.5z" unicode="½"/>
<glyph horiz-adv-x="632" glyph-name="threequarters" d="M558 274q9 62 17 116.5t15 95.5q3 17 1 26t-12 21q-6 6 -15.5 14.5t-19.5 17t-19.5 15.5t-14.5 10q-11 6 -17 4.5t-15 -14.5q-17 -26 -37.5 -64.5t-41 -81t-39 -85t-30.5 -76.5q-6 -17 -6 -31q0 -13 5 -28q16 -36 34 -65q8 -14 15.5 -14.5t16.5 1.5q17 5 34 8.5t35 7.5 q-5 -36 -7.5 -63t-3.5 -47q-2 -22 0.5 -32.5t11.5 -22.5q9 -9 18.5 -15.5t17.5 -10.5q11 -5 15 -0.5t6 18.5q4 39 9.5 86t12.5 100q10 1 19 2l18 2q17 1 13 27q-3 14 -5 26t-6 26q-8 26 -25 26zM574 905q-4 12 -5.5 14.5t-2.5 2.5t-3 1.5t-7 11.5q-20 41 -47 2 q-25 -35 -61.5 -95t-78.5 -132.5t-86.5 -152t-84.5 -152t-72.5 -132.5t-50.5 -94q-14 -27 -17 -46q-1 -11 0 -21.5t6 -20.5q3 -8 3.5 -6.5t0.5 4.5t1.5 3.5t6.5 -9.5q11 -19 19.5 -17.5t19.5 22.5q24 41 60 102t78 131.5t87 145t87 143t78 125.5t59 92q13 20 16 35t-6 43z M143 725q18 15 32.5 31t25.5 33q9 14 14.5 35t6 45.5t-5.5 52.5t-19 56q-13 25 -26 37.5t-25 17t-23 3t-20 -4.5q-26 -10 -48.5 -37t-35.5 -54q-9 -22 3 -42q6 -9 15.5 -15.5t20 -8.5t20.5 1t17 13q11 11 22.5 21.5t20.5 10.5q6 0 9 -7q9 -19 -19.5 -59.5t-101.5 -83.5 q-15 -10 -6 -39q12 -35 29 -52t35 -12q14 3 22.5 1.5t16.5 -13.5q8 -11 8 -40q0 -28 -15 -59q-16 -30 -37.5 -33.5t-55.5 28.5q-12 11 -27 13t-28 -12q-7 -8 -7 -22q0 -13 17 -39q27 -46 55 -62.5t54 -16.5q33 0 60.5 18.5t47.5 68.5q18 45 16 97.5t-33 98.5 q-8 12 -16.5 18.5t-18.5 11.5zM402 257q23 48 49.5 102t54.5 97q-8 -44 -14 -91.5t-13 -95.5q-20 -3 -40 -5t-37 -7z" unicode="¾"/>
<glyph horiz-adv-x="453" glyph-name="questiondown" d="M309 710q-13 12 -29 24t-29.5 17t-22.5 -1t-8 -30q-4 -50 -15 -86.5t-26 -64t-33.5 -48.5t-36.5 -41t-35 -41.5t-30 -48.5t-23 -63t-11.5 -78.5t7.5 -90t34 -98.5q11 -25 28 -47.5t38.5 -37.5t46.5 -20.5t52 3.5q45 15 84.5 64t70.5 127q10 25 14 43t3.5 30t-6 19.5 t-12.5 13.5q-30 23 -61.5 19.5t-53.5 -35.5q-15 -20 -29 -41t-27.5 -37.5t-27 -27t-26.5 -10.5q-9 0 -17.5 9.5t-10.5 29.5q-2 32 13.5 74.5t60.5 92.5q18 21 40.5 47.5t43 62.5t35.5 82.5t18 107.5q2 32 -1.5 49t-17.5 32zM366 883q4 59 -16.5 91t-49.5 39 q-17 4 -30.5 -0.5t-24 -15.5t-17 -26.5t-9.5 -33.5q-1 -4 -1 -15v-20q0 -30 10 -59t42 -47q21 -12 38 -9t29.5 16t20 34.5t8.5 45.5z" unicode="¿"/>
<glyph horiz-adv-x="479" glyph-name="Agrave" d="M275 242q2 -51 5 -95t6 -82q3 -36 9.5 -50.5t22.5 -23.5q16 -11 31 -12.5t32 -1.5t22 9t4 32q-4 109 -7.5 229.5t-6 236t-3 218.5t0.5 178q1 30 -4.5 48.5t-24.5 29.5q-26 13 -55 26t-76 17q-27 4 -41 -13t-23 -44q-17 -53 -36 -118t-38.5 -137t-39.5 -147.5t-38 -149 t-34 -141.5t-28 -125q-5 -27 -5 -43t3 -26.5t8.5 -18t13.5 -17.5q10 -11 20.5 -19t18.5 -15q15 -11 22.5 -7t13.5 26q10 42 20.5 85t24.5 94q37 18 85.5 31t96.5 26zM131 1270q16 -18 39 -40t49.5 -44.5t55 -43.5t55.5 -37q12 -9 26 -4t31 22q0 -1 3.5 4.5t6 14t1.5 19.5 t-11 22q-46 35 -93.5 76.5t-83.5 88.5q-10 13 -23 12t-33 -18q-11 -9 -16 -27t-7 -45zM152 411q29 109 57.5 208t51.5 177q0 -87 2 -177.5t4 -184.5q-29 -4 -57.5 -9.5t-57.5 -13.5z" unicode="À"/>
<glyph horiz-adv-x="479" glyph-name="Aacute" d="M275 242q2 -51 5 -95t6 -82q3 -36 9.5 -50.5t22.5 -23.5q16 -11 31 -12.5t32 -1.5t22 9t4 32q-4 109 -7.5 229.5t-6 236t-3 218.5t0.5 178q1 30 -4.5 48.5t-24.5 29.5q-26 13 -55 26t-76 17q-27 4 -41 -13t-23 -44q-17 -53 -36 -118t-38.5 -137t-39.5 -147.5t-38 -149 t-34 -141.5t-28 -125q-5 -27 -5 -43t3 -26.5t8.5 -18t13.5 -17.5q10 -11 20.5 -19t18.5 -15q15 -11 22.5 -7t13.5 26q10 42 20.5 85t24.5 94q37 18 85.5 31t96.5 26zM414 1264q-2 27 -7 44.5t-16 26.5q-20 17 -33 18t-23 -11q-36 -48 -83.5 -89.5t-93.5 -76.5 q-10 -11 -11 -21.5t1.5 -19.5t6 -14t3.5 -4q35 -34 57 -19q27 16 55.5 37t55 43.5t49.5 45t39 40.5zM152 411q29 109 57.5 208t51.5 177q0 -87 2 -177.5t4 -184.5q-29 -4 -57.5 -9.5t-57.5 -13.5z" unicode="Á"/>
<glyph horiz-adv-x="479" glyph-name="Acircumflex" d="M275 242q2 -51 5 -95t6 -82q3 -36 9.5 -50.5t22.5 -23.5q16 -11 31 -12.5t32 -1.5t22 9t4 32q-4 109 -7.5 229.5t-6 236t-3 218.5t0.5 178q1 30 -4.5 48.5t-24.5 29.5q-26 13 -55 26t-76 17q-27 4 -41 -13t-23 -44q-17 -53 -36 -118t-38.5 -137t-39.5 -147.5t-38 -149 t-34 -141.5t-28 -125q-5 -27 -5 -43t3 -26.5t8.5 -18t13.5 -17.5q10 -11 20.5 -19t18.5 -15q15 -11 22.5 -7t13.5 26q10 42 20.5 85t24.5 94q37 18 85.5 31t96.5 26zM384 1084q10 -1 12.5 4.5t0.5 20.5q-4 24 -9.5 56t-10.5 66.5t-10 70t-8 68.5q-2 20 -5 29.5t-9 21.5 q-7 10 -14.5 18t-15.5 18q-8 8 -14 7.5t-14 -15.5q-16 -25 -32 -55.5t-30 -61t-26.5 -58.5t-20.5 -48q-9 -22 1 -47q6 -14 11.5 -24.5t11.5 -20.5q7 -12 12 -12t10 12q16 33 34.5 71.5t40.5 78.5q8 -47 14 -88.5t12 -69.5q8 -28 24 -34q10 -5 18.5 -6.5t16.5 -1.5zM152 411 q29 109 57.5 208t51.5 177q0 -87 2 -177.5t4 -184.5q-29 -4 -57.5 -9.5t-57.5 -13.5z" unicode="Â"/>
<glyph horiz-adv-x="479" glyph-name="Atilde" d="M275 242q2 -51 5 -95t6 -82q3 -36 9.5 -50.5t22.5 -23.5q16 -11 31 -12.5t32 -1.5t22 9t4 32q-4 109 -7.5 229.5t-6 236t-3 218.5t0.5 178q1 30 -4.5 48.5t-24.5 29.5q-26 13 -55 26t-76 17q-27 4 -41 -13t-23 -44q-17 -53 -36 -118t-38.5 -137t-39.5 -147.5t-38 -149 t-34 -141.5t-28 -125q-5 -27 -5 -43t3 -26.5t8.5 -18t13.5 -17.5q10 -11 20.5 -19t18.5 -15q15 -11 22.5 -7t13.5 26q10 42 20.5 85t24.5 94q37 18 85.5 31t96.5 26zM336 1108q31 0 67 48q20 24 29.5 45.5t9.5 38.5t-13 30q-10 9 -24 9q-15 0 -28 -18q-2 -3 -7 -11.5 t-10.5 -17t-10.5 -15t-8 -5.5q-9 1 -18.5 6.5t-18.5 12.5l-18 14t-17 12q-30 18 -55 18q-12 0 -29 -9.5t-33.5 -24t-30 -31t-18.5 -30.5q-6 -17 -6 -33q0 -37 31 -37q18 0 30 13q1 0 6 6.5t11 15t13 15t13 6.5q7 0 17 -3t20 -7.5t19 -10t14 -11.5q11 -14 27 -20t38 -6z M152 411q29 109 57.5 208t51.5 177q0 -87 2 -177.5t4 -184.5q-29 -4 -57.5 -9.5t-57.5 -13.5z" unicode="Ã"/>
<glyph horiz-adv-x="479" glyph-name="Adieresis" d="M275 242q2 -51 5 -95t6 -82q3 -36 9.5 -50.5t22.5 -23.5q16 -11 31 -12.5t32 -1.5t22 9t4 32q-4 109 -7.5 229.5t-6 236t-3 218.5t0.5 178q1 30 -4.5 48.5t-24.5 29.5q-26 13 -55 26t-76 17q-27 4 -41 -13t-23 -44q-17 -53 -36 -118t-38.5 -137t-39.5 -147.5t-38 -149 t-34 -141.5t-28 -125q-5 -27 -5 -43t3 -26.5t8.5 -18t13.5 -17.5q10 -11 20.5 -19t18.5 -15q15 -11 22.5 -7t13.5 26q10 42 20.5 85t24.5 94q37 18 85.5 31t96.5 26zM152 411q29 109 57.5 208t51.5 177q0 -87 2 -177.5t4 -184.5q-29 -4 -57.5 -9.5t-57.5 -13.5zM138 1183 q-2 -45 14.5 -71t39.5 -24q11 0 20 7t15.5 17.5t10.5 22.5t5 21q3 10 3 27q0 23 -9.5 45.5t-29.5 33.5q-15 8 -27 4t-21 -16t-14.5 -29.5t-6.5 -37.5zM313 1183q-2 -45 14.5 -71.5t39.5 -24.5q11 0 20 7t15.5 17.5t10 22t5.5 20.5q1 7 1.5 13.5t0.5 15.5q0 23 -9 44.5 t-29 33.5q-15 8 -27.5 4t-21.5 -15.5t-14 -29.5t-6 -37z" unicode="Ä"/>
<glyph horiz-adv-x="479" glyph-name="Aring" d="M275 242q2 -51 5 -95t6 -82q3 -36 9.5 -50.5t22.5 -23.5q16 -11 31 -12.5t32 -1.5t22 9t4 32q-4 109 -7.5 229.5t-6 236t-3 218.5t0.5 178q1 30 -4.5 48.5t-24.5 29.5q-26 13 -55 26t-76 17q-27 4 -41 -13t-23 -44q-17 -53 -36 -118t-38.5 -137t-39.5 -147.5t-38 -149 t-34 -141.5t-28 -125q-5 -27 -5 -43t3 -26.5t8.5 -18t13.5 -17.5q10 -11 20.5 -19t18.5 -15q15 -11 22.5 -7t13.5 26q10 42 20.5 85t24.5 94q37 18 85.5 31t96.5 26zM378 1347q-11 8 -27.5 14t-34.5 9q-14 2 -29.5 -2.5t-26.5 -12.5q-26 -22 -43.5 -54t-26 -67t-7.5 -69.5 t13 -60.5q5 -12 14 -21t18 -14q12 -8 26.5 -11.5t28.5 -4.5q40 -6 67 18q20 21 33.5 50t20 60t7.5 62t-4 57q-4 14 -10 25.5t-19 21.5zM152 411q29 109 57.5 208t51.5 177q0 -87 2 -177.5t4 -184.5q-29 -4 -57.5 -9.5t-57.5 -13.5zM327 1314q7 -2 10 -14t3.5 -29t-2 -37 t-6.5 -37q-5 -22 -12 -40.5t-15 -31t-16.5 -18.5t-15.5 -3q-8 2 -12 14t-4.5 28.5t2 35.5t7.5 36t12.5 35t16 32t17 22.5t15.5 6.5z" unicode="Å"/>
<glyph horiz-adv-x="704" glyph-name="AE" d="M471 959q-25 13 -52.5 26t-74.5 17q-26 4 -42 -13t-28 -44q-23 -52 -49.5 -117t-54.5 -137t-56.5 -148t-55.5 -149.5t-50.5 -141.5t-42.5 -125q-8 -27 -10.5 -43t-0.5 -26.5t7 -18t11 -17.5q9 -11 18.5 -19t16.5 -15q15 -11 23 -7t16 27q14 42 29.5 85t35.5 93 q38 19 88.5 31t98.5 25q-3 -42 -6.5 -69.5t-6 -46.5t-4 -33t-1.5 -28q-2 -36 8.5 -50t26.5 -23q4 -5 18 -7t30 -2t31 1.5t22 3.5l84 31.5t86 32.5q17 7 20.5 16.5t-0.5 35.5q-5 23 -10 45.5t-13 46.5q-7 23 -17.5 30.5t-27.5 4.5q-32 -4 -60 -9.5t-57 -16.5q0 5 0.5 9.5 t0.5 9.5q5 29 9 60t9 64q37 15 76.5 27t77.5 25q17 7 21 16t-1 36q-4 24 -8.5 46t-12.5 45q-7 23 -17 30t-27 5q-20 -1 -38.5 -3t-37.5 -7q10 59 18 112t16 101q42 11 80.5 18.5t73.5 14.5q17 4 21.5 13.5t1.5 36.5q-4 24 -7.5 43.5t-11.5 44.5q-10 45 -43 44 q-45 -3 -80 -14t-67 -25q-1 1 -2 1t-2 1zM196 412q42 110 82 208.5t73 176.5q-10 -87 -19 -177.5t-17 -184.5q-30 -4 -59 -9.5t-60 -13.5z" unicode="Æ"/>
<glyph horiz-adv-x="428" glyph-name="Ccedilla" d="M97 -264q8 17 18 43.5t20 56t18 60t13 56.5q0 3 0.5 6t0.5 6q28 0 54 14.5t43 35.5q18 26 36 65t29 85q10 39 8.5 65t-26.5 39q-62 33 -99 -42q-52 -106 -79 -88q-14 7 -20.5 41t-7.5 84t3.5 109.5t13.5 118.5q6 36 15 76t19.5 78.5t21.5 73t22 59.5t21 38t18 9 q12 -8 14.5 -35.5t2.5 -61.5q0 -11 0.5 -21t1.5 -21q6 -54 24 -86t58 -46q21 -8 26 3t9 29q3 19 5 44t3 52t1 54q0 28 -1 52q-2 42 -10.5 74.5t-32.5 64.5q-23 26 -57.5 49t-67.5 28q-22 2 -47 -8.5t-50 -46.5q-31 -46 -57 -111t-45 -139.5t-31 -155t-15.5 -157t1.5 -146 t20 -122.5q9 -36 26.5 -63.5t34.5 -41.5q2 -2 5 -4l6 -4q-9 -32 -18.5 -67t-18.5 -68.5t-17 -63.5t-14 -52q-12 -41 17 -50q12 -3 23.5 -5t22.5 1q22 1 39 36z" unicode="Ç"/>
<glyph horiz-adv-x="385" glyph-name="Egrave" d="M45 923l-76 -751q-2 -35 3.5 -59t16.5 -43q13 -23 23 -38t21 -29q10 -13 23.5 -20.5t40.5 5.5l84 31.5t86 32.5q17 7 20.5 16.5t-0.5 35.5q-5 23 -10 45.5t-13 46.5q-7 23 -17.5 30.5t-27.5 4.5q-32 -4 -60 -9.5t-58 -16.5l10 70t10 73q37 15 76.5 27t77.5 25q17 7 21 16 t-1 36q-4 24 -8.5 46t-12.5 45q-7 23 -17 30t-27 5q-20 -1 -38.5 -3t-37.5 -7q10 59 18 112t16 101q42 11 80.5 18.5t73.5 14.5q17 4 21.5 13.5t1.5 36.5q-4 24 -7.5 43.5t-11.5 44.5q-10 45 -43 44q-35 -3 -70 -10t-68.5 -17.5t-64 -22t-55.5 -23.5zM87 1264 q16 -18 39 -40.5t49.5 -45t55 -43.5t55.5 -37q22 -15 57 19q0 -1 3.5 4t6 14t1.5 19.5t-11 21.5q-46 35 -93.5 76.5t-83.5 89.5q-10 12 -23 11t-33 -18q-11 -9 -16 -26.5t-7 -44.5z" unicode="È"/>
<glyph horiz-adv-x="385" glyph-name="Eacute" d="M45 923l-76 -751q-2 -35 3.5 -59t16.5 -43q13 -23 23 -38t21 -29q10 -13 23.5 -20.5t40.5 5.5l84 31.5t86 32.5q17 7 20.5 16.5t-0.5 35.5q-5 23 -10 45.5t-13 46.5q-7 23 -17.5 30.5t-27.5 4.5q-32 -4 -60 -9.5t-58 -16.5l10 70t10 73q37 15 76.5 27t77.5 25q17 7 21 16 t-1 36q-4 24 -8.5 46t-12.5 45q-7 23 -17 30t-27 5q-20 -1 -38.5 -3t-37.5 -7q10 59 18 112t16 101q42 11 80.5 18.5t73.5 14.5q17 4 21.5 13.5t1.5 36.5q-4 24 -7.5 43.5t-11.5 44.5q-10 45 -43 44q-35 -3 -70 -10t-68.5 -17.5t-64 -22t-55.5 -23.5zM355 1264 q-2 27 -7 44.5t-16 26.5q-20 17 -33 18t-23 -11q-36 -48 -83.5 -89.5t-93.5 -76.5q-10 -11 -11 -21.5t1.5 -19.5t6 -14t3.5 -4q35 -34 57 -19q27 16 55.5 37t55 43.5t49.5 45t39 40.5z" unicode="É"/>
<glyph horiz-adv-x="385" glyph-name="Ecircumflex" d="M45 923l-76 -751q-2 -35 3.5 -59t16.5 -43q13 -23 23 -38t21 -29q10 -13 23.5 -20.5t40.5 5.5l84 31.5t86 32.5q17 7 20.5 16.5t-0.5 35.5q-5 23 -10 45.5t-13 46.5q-7 23 -17.5 30.5t-27.5 4.5q-32 -4 -60 -9.5t-58 -16.5l10 70t10 73q37 15 76.5 27t77.5 25q17 7 21 16 t-1 36q-4 24 -8.5 46t-12.5 45q-7 23 -17 30t-27 5q-20 -1 -38.5 -3t-37.5 -7q10 59 18 112t16 101q42 11 80.5 18.5t73.5 14.5q17 4 21.5 13.5t1.5 36.5q-4 24 -7.5 43.5t-11.5 44.5q-10 45 -43 44q-35 -3 -70 -10t-68.5 -17.5t-64 -22t-55.5 -23.5zM329 1080 q10 -1 12.5 4.5t0.5 20.5q-4 24 -9.5 56t-10.5 66.5t-10 70t-8 68.5q-2 21 -5 30t-9 21q-7 10 -14.5 18t-15.5 18q-8 8 -14 7.5t-14 -14.5q-16 -26 -32 -56t-30 -60.5t-26.5 -58.5t-20.5 -49q-9 -22 1 -47q6 -14 11.5 -24.5t11.5 -20.5q7 -12 12 -12t10 12q16 33 34.5 71.5 t40.5 78.5q8 -47 14 -88t12 -70q8 -28 24 -34q17 -8 35 -8z" unicode="Ê"/>
<glyph horiz-adv-x="385" glyph-name="Edieresis" d="M45 923l-76 -751q-2 -35 3.5 -59t16.5 -43q13 -23 23 -38t21 -29q10 -13 23.5 -20.5t40.5 5.5l84 31.5t86 32.5q17 7 20.5 16.5t-0.5 35.5q-5 23 -10 45.5t-13 46.5q-7 23 -17.5 30.5t-27.5 4.5q-32 -4 -60 -9.5t-58 -16.5l10 70t10 73q37 15 76.5 27t77.5 25q17 7 21 16 t-1 36q-4 24 -8.5 46t-12.5 45q-7 23 -17 30t-27 5q-20 -1 -38.5 -3t-37.5 -7q10 59 18 112t16 101q42 11 80.5 18.5t73.5 14.5q17 4 21.5 13.5t1.5 36.5q-4 24 -7.5 43.5t-11.5 44.5q-10 45 -43 44q-35 -3 -70 -10t-68.5 -17.5t-64 -22t-55.5 -23.5zM66 1176 q-2 -44 14.5 -70t39.5 -24q11 0 20 7t15.5 17.5t10.5 22t5 20.5q3 12 3 27q0 24 -9.5 46t-29.5 34q-15 8 -27 4t-21 -16t-14.5 -30t-6.5 -38zM241 1176q-2 -44 14.5 -71t39.5 -25q11 0 20 7t15.5 17.5t10 22.5t5.5 21q1 7 1.5 13.5t0.5 14.5q0 23 -9 45t-29 33 q-15 8 -27.5 4t-21.5 -15.5t-14 -29.5t-6 -37z" unicode="Ë"/>
<glyph horiz-adv-x="208" glyph-name="Igrave" d="M160 919q-16 19 -37 35t-39 24t-27 2t-14 -35q-7 -49 -15.5 -117.5t-17 -146.5t-16.5 -161t-15 -159.5t-12 -142.5t-7 -110q-2 -35 2.5 -53t19.5 -33q14 -14 30 -23.5t33 -18.5q17 -8 23 -1.5t9 29.5q6 57 13.5 128t16.5 147.5t18.5 156t19 153t18.5 138.5t17 113 q4 27 0.5 41.5t-20.5 33.5zM-29 1291q16 -18 39 -40t49.5 -44.5t55 -43.5t55.5 -37q12 -9 26 -4t31 22q0 -1 3.5 4t6 14t1.5 20t-11 22q-46 35 -93.5 76t-83.5 89q-10 13 -23 12t-33 -19q-11 -8 -16 -26t-7 -45z" unicode="Ì"/>
<glyph horiz-adv-x="208" glyph-name="Iacute" d="M160 919q-16 19 -37 35t-39 24t-27 2t-14 -35q-7 -49 -15.5 -117.5t-17 -146.5t-16.5 -161t-15 -159.5t-12 -142.5t-7 -110q-2 -35 2.5 -53t19.5 -33q14 -14 30 -23.5t33 -18.5q17 -8 23 -1.5t9 29.5q6 57 13.5 128t16.5 147.5t18.5 156t19 153t18.5 138.5t17 113 q4 27 0.5 41.5t-20.5 33.5zM282 1266q-2 28 -7 45.5t-16 26.5q-20 17 -33 18t-23 -12q-36 -47 -83.5 -88.5t-93.5 -76.5q-10 -11 -11 -22t1.5 -19.5t6 -14t3.5 -4.5q17 -17 31 -22t26 4q27 16 55.5 37t55 43.5t49.5 44.5t39 40z" unicode="Í"/>
<glyph horiz-adv-x="208" glyph-name="Icircumflex" d="M160 919q-16 19 -37 35t-39 24t-27 2t-14 -35q-7 -49 -15.5 -117.5t-17 -146.5t-16.5 -161t-15 -159.5t-12 -142.5t-7 -110q-2 -35 2.5 -53t19.5 -33q14 -14 30 -23.5t33 -18.5q17 -8 23 -1.5t9 29.5q6 57 13.5 128t16.5 147.5t18.5 156t19 153t18.5 138.5t17 113 q4 27 0.5 41.5t-20.5 33.5zM232 1074q17 -3 13 24q-4 24 -9.5 56t-10.5 67t-10 70.5t-8 68.5q-2 20 -5 29.5t-9 20.5q-7 10 -14.5 18.5t-15.5 18.5q-8 8 -14 7.5t-14 -15.5q-16 -26 -32 -56t-30 -60.5t-26.5 -58.5t-20.5 -49q-9 -21 1 -46q6 -15 11.5 -25.5t11.5 -20.5 q7 -12 12 -12t10 12q16 33 34.5 72t40.5 79q8 -47 14 -88.5t12 -70.5q8 -29 24 -33q10 -5 18.5 -6.5t16.5 -1.5z" unicode="Î"/>
<glyph horiz-adv-x="208" glyph-name="Idieresis" d="M160 919q-16 19 -37 35t-39 24t-27 2t-14 -35q-7 -49 -15.5 -117.5t-17 -146.5t-16.5 -161t-15 -159.5t-12 -142.5t-7 -110q-2 -35 2.5 -53t19.5 -33q14 -14 30 -23.5t33 -18.5q17 -8 23 -1.5t9 29.5q6 57 13.5 128t16.5 147.5t18.5 156t19 153t18.5 138.5t17 113 q4 27 0.5 41.5t-20.5 33.5zM-19 1176q-2 -44 14.5 -70t39.5 -24q11 0 20 7t15.5 17.5t10.5 22t5 20.5q3 12 3 27q0 24 -9.5 46t-29.5 34q-15 8 -27 4t-21 -16t-14.5 -30t-6.5 -38zM156 1176q-2 -44 14.5 -71t39.5 -25q11 0 20 7t15.5 17.5t10 22.5t5.5 21q1 7 1.5 13.5 t0.5 14.5q0 23 -9 45t-29 33q-15 8 -27.5 4t-21.5 -15.5t-14 -29.5t-6 -37z" unicode="Ï"/>
<glyph horiz-adv-x="601" glyph-name="Eth" d="M27 601q-47 -9 -28 -59q13 -41 42 -84q15 -23 30 -29t37 -1l-18 -227q-3 -31 -2 -51t4.5 -34.5t9.5 -25t12 -22.5q17 -27 30.5 -44t32.5 -36q36 -37 71 -11q66 36 117 94.5t86.5 130t57 151t28.5 158t1 151.5t-25 132q-21 69 -50 111t-62.5 62.5t-69 23.5t-69 -6t-64 -27 t-52.5 -40l-24 -303q-23 -2 -45.5 -5.5t-49.5 -8.5zM215 179q8 70 15.5 138t15.5 134q16 1 35.5 2t46.5 3q23 2 31.5 9.5t2.5 31.5q-5 18 -10 39.5t-16 44.5q-16 40 -60 40h-8q5 39 11 77.5t12 76.5q19 11 35.5 11.5t30 -7t23 -22t15.5 -32.5q5 -18 8 -43.5t2 -60.5 q-1 -49 -12 -108.5t-33.5 -120t-58 -116t-86.5 -97.5z" unicode="Ð"/>
<glyph horiz-adv-x="468" glyph-name="Ntilde" d="M258 408q-7 58 -14 121t-13.5 121t-11.5 107t-8 79q-4 39 -11.5 59t-25.5 33q-22 19 -42.5 30t-41.5 22q-17 8 -28 0.5t-16 -38.5q-8 -54 -17 -127t-17.5 -154t-17 -164t-15 -157t-11.5 -133t-7 -93q-3 -34 1.5 -52.5t18.5 -32.5q14 -19 30.5 -27t32.5 -16q17 -9 23.5 -4 t8.5 28q4 47 10.5 108t14 130t16 143.5t16.5 147.5q8 -60 17 -121.5t18 -119t18.5 -108.5t18.5 -90q12 -57 41 -78q16 -11 31.5 -19.5t31.5 -14.5q36 -15 39 34l13 130t15 144.5t16 150.5t16.5 148.5t16.5 137.5t15 118q4 28 1 46.5t-20 37.5q-11 11 -18.5 18t-14.5 12 t-14 8t-16 7q-18 8 -27.5 1t-13.5 -36q-15 -111 -31.5 -249t-27.5 -288zM336 1108q31 0 67 48q20 24 29.5 45.5t9.5 38.5t-13 30q-10 9 -24 9q-15 0 -28 -18q-2 -3 -7 -11.5t-10.5 -17t-10.5 -15t-8 -5.5q-9 1 -18.5 6.5t-18.5 12.5l-18 14t-17 12q-30 18 -55 18 q-12 0 -29 -9.5t-33.5 -24t-30 -31t-18.5 -30.5q-6 -17 -6 -33q0 -37 31 -37q18 0 30 13q1 0 6 6.5t11 15t13 15t13 6.5q7 0 17 -3t20 -7.5t19 -10t14 -11.5q11 -14 27 -20t38 -6z" unicode="Ñ"/>
<glyph glyph-name="Ograve" d="M340 915q-20 28 -50.5 47t-63.5 27q-25 7 -53.5 -6.5t-48.5 -41.5q-32 -46 -57 -107.5t-42.5 -131t-28 -144.5t-13 -148.5t3 -142t19.5 -125.5q9 -36 26 -64.5t34 -47.5q22 -23 48.5 -34t51.5 -16q38 -8 67.5 6t55.5 54q37 66 61 158t36.5 191.5t13.5 198t-8 178.5 q-6 46 -17.5 82t-34.5 67zM247 812q12 -6 18 -44.5t6.5 -93.5t-3.5 -118t-12 -117q-9 -69 -22 -127.5t-27.5 -99t-30 -60t-28.5 -10.5q-15 9 -22 46.5t-8 90t3.5 113.5t13.5 116q9 54 23 110.5t29.5 102t31.5 72t28 19.5zM87 1264q16 -18 39 -40.5t49.5 -45t55 -43.5 t55.5 -37q22 -15 57 19q0 -1 3.5 4t6 14t1.5 19.5t-11 21.5q-46 35 -93.5 76.5t-83.5 89.5q-10 12 -23 11t-33 -18q-11 -9 -16 -26.5t-7 -44.5z" unicode="Ò"/>
<glyph glyph-name="Oacute" d="M340 915q-20 28 -50.5 47t-63.5 27q-25 7 -53.5 -6.5t-48.5 -41.5q-32 -46 -57 -107.5t-42.5 -131t-28 -144.5t-13 -148.5t3 -142t19.5 -125.5q9 -36 26 -64.5t34 -47.5q22 -23 48.5 -34t51.5 -16q38 -8 67.5 6t55.5 54q37 66 61 158t36.5 191.5t13.5 198t-8 178.5 q-6 46 -17.5 82t-34.5 67zM247 812q12 -6 18 -44.5t6.5 -93.5t-3.5 -118t-12 -117q-9 -69 -22 -127.5t-27.5 -99t-30 -60t-28.5 -10.5q-15 9 -22 46.5t-8 90t3.5 113.5t13.5 116q9 54 23 110.5t29.5 102t31.5 72t28 19.5zM355 1264q-2 27 -7 44.5t-16 26.5q-20 17 -33 18 t-23 -11q-36 -48 -83.5 -89.5t-93.5 -76.5q-10 -11 -11 -21.5t1.5 -19.5t6 -14t3.5 -4q35 -34 57 -19q27 16 55.5 37t55 43.5t49.5 45t39 40.5z" unicode="Ó"/>
<glyph glyph-name="Ocircumflex" d="M340 915q-20 28 -50.5 47t-63.5 27q-25 7 -53.5 -6.5t-48.5 -41.5q-32 -46 -57 -107.5t-42.5 -131t-28 -144.5t-13 -148.5t3 -142t19.5 -125.5q9 -36 26 -64.5t34 -47.5q22 -23 48.5 -34t51.5 -16q38 -8 67.5 6t55.5 54q37 66 61 158t36.5 191.5t13.5 198t-8 178.5 q-6 46 -17.5 82t-34.5 67zM247 812q12 -6 18 -44.5t6.5 -93.5t-3.5 -118t-12 -117q-9 -69 -22 -127.5t-27.5 -99t-30 -60t-28.5 -10.5q-15 9 -22 46.5t-8 90t3.5 113.5t13.5 116q9 54 23 110.5t29.5 102t31.5 72t28 19.5zM363 1058q10 -1 12.5 4.5t0.5 20.5q-4 24 -9.5 56 t-10.5 66.5t-10 70t-8 68.5q-2 20 -5 29.5t-9 21.5q-7 10 -14.5 18t-15.5 18q-8 8 -14 7.5t-14 -15.5q-16 -25 -32 -55.5t-30 -61t-26.5 -58.5t-20.5 -48q-9 -22 1 -47q6 -14 11.5 -24.5t11.5 -20.5q7 -12 12 -12t10 12q16 33 34.5 71.5t40.5 78.5q8 -47 14 -88.5t12 -69.5 q8 -28 24 -34q10 -5 18.5 -6.5t16.5 -1.5z" unicode="Ô"/>
<glyph glyph-name="Otilde" d="M340 915q-20 28 -50.5 47t-63.5 27q-25 7 -53.5 -6.5t-48.5 -41.5q-32 -46 -57 -107.5t-42.5 -131t-28 -144.5t-13 -148.5t3 -142t19.5 -125.5q9 -36 26 -64.5t34 -47.5q22 -23 48.5 -34t51.5 -16q38 -8 67.5 6t55.5 54q37 66 61 158t36.5 191.5t13.5 198t-8 178.5 q-6 46 -17.5 82t-34.5 67zM247 812q12 -6 18 -44.5t6.5 -93.5t-3.5 -118t-12 -117q-9 -69 -22 -127.5t-27.5 -99t-30 -60t-28.5 -10.5q-15 9 -22 46.5t-8 90t3.5 113.5t13.5 116q9 54 23 110.5t29.5 102t31.5 72t28 19.5zM336 1108q31 0 67 48q20 24 29.5 45.5t9.5 38.5 t-13 30q-10 9 -24 9q-15 0 -28 -18q-2 -3 -7 -11.5t-10.5 -17t-10.5 -15t-8 -5.5q-9 1 -18.5 6.5t-18.5 12.5l-18 14t-17 12q-30 18 -55 18q-12 0 -29 -9.5t-33.5 -24t-30 -31t-18.5 -30.5q-6 -17 -6 -33q0 -37 31 -37q18 0 30 13q1 0 6 6.5t11 15t13 15t13 6.5q7 0 17 -3 t20 -7.5t19 -10t14 -11.5q11 -14 27 -20t38 -6z" unicode="Õ"/>
<glyph glyph-name="Odieresis" d="M340 915q-20 28 -50.5 47t-63.5 27q-25 7 -53.5 -6.5t-48.5 -41.5q-32 -46 -57 -107.5t-42.5 -131t-28 -144.5t-13 -148.5t3 -142t19.5 -125.5q9 -36 26 -64.5t34 -47.5q22 -23 48.5 -34t51.5 -16q38 -8 67.5 6t55.5 54q37 66 61 158t36.5 191.5t13.5 198t-8 178.5 q-6 46 -17.5 82t-34.5 67zM247 812q12 -6 18 -44.5t6.5 -93.5t-3.5 -118t-12 -117q-9 -69 -22 -127.5t-27.5 -99t-30 -60t-28.5 -10.5q-15 9 -22 46.5t-8 90t3.5 113.5t13.5 116q9 54 23 110.5t29.5 102t31.5 72t28 19.5zM100 1176q-2 -44 14.5 -70t39.5 -24q11 0 20 7 t15.5 17.5t10.5 22t5 20.5q3 12 3 27q0 24 -9.5 46t-29.5 34q-15 8 -27 4t-21 -16t-14.5 -30t-6.5 -38zM275 1176q-2 -44 14.5 -71t39.5 -25q11 0 20 7t15.5 17.5t10 22.5t5.5 21q1 7 1.5 13.5t0.5 14.5q0 23 -9 45t-29 33q-15 8 -27.5 4t-21.5 -15.5t-14 -29.5t-6 -37z" unicode="Ö"/>
<glyph horiz-adv-x="437" glyph-name="multiply" d="M275 251q10 -13 17.5 -11t15.5 23q7 18 14 35.5t13 40.5q12 38 -7 65q-11 15 -24.5 33t-30.5 39q17 16 33 28t31 25q16 11 22 22t8 35q3 22 0.5 48.5t-7.5 47.5q-4 17 -15 18.5t-24 -8.5q-28 -20 -63 -50t-75 -66q-30 33 -59.5 61t-52.5 45q-10 8 -21.5 8.5t-20.5 -19.5 q-8 -21 -16.5 -50.5t-12.5 -51.5q-2 -24 1 -34.5t16 -21.5q27 -20 55 -46q-23 -22 -40.5 -42t-31.5 -34q-24 -29 -21 -65q2 -23 5 -39.5t6 -36.5q4 -21 9.5 -22.5t21.5 12.5q29 29 65.5 65t76.5 73q31 -30 58 -63t54 -64z" unicode="×"/>
<glyph glyph-name="Oslash" d="M391 1056q-6 10 -5.5 11t2.5 0.5l2 -0.5l-7 8q-29 33 -45 -14q-8 -19 -17 -46.5t-20 -61.5q-17 13 -36 21.5t-39 14.5q-25 7 -53.5 -6.5t-48.5 -41.5q-32 -46 -57 -107.5t-42.5 -131t-28 -144.5t-13 -148.5t3 -142t19.5 -125.5q5 -23 14 -43t20 -35q-7 -24 -12 -43.5 t-8 -32.5q-7 -31 -6 -52q2 -23 14 -37q5 -6 2.5 -4t-6 5t-5 4.5t5.5 -5.5q15 -15 23 -10t14 28q5 17 12 41t15 51q19 -12 38.5 -18t38.5 -11q38 -8 67.5 6t55.5 54q37 66 61 158t36.5 191.5t13.5 198t-8 178.5q-5 31 -11.5 58.5t-17.5 50.5q11 32 19.5 58t15.5 45 q8 23 7.5 39t-14.5 39zM256 439q-9 -69 -22 -127.5t-27.5 -99t-30 -60t-28.5 -10.5q-8 3 -13 17q30 98 65 208t69 218q-2 -38 -5 -75t-8 -71zM247 812q5 -2 7 -7q-16 -53 -33.5 -110.5t-34.5 -117t-34.5 -118.5t-33.5 -116q3 85 17 165q9 54 23 110.5t29.5 102t31.5 72 t28 19.5z" unicode="Ø"/>
<glyph horiz-adv-x="451" glyph-name="Ugrave" d="M0 133q10 -37 24 -61.5t30 -42.5q38 -42 98 -50q30 -4 53.5 4t46.5 31q32 37 56.5 113.5t44 185t34.5 245.5t29 295q3 27 0 41t-20 33q-16 15 -35 31.5t-36 24t-28.5 1.5t-12.5 -35q-6 -65 -14.5 -152.5t-19.5 -180t-24 -181.5t-27.5 -157t-31 -106t-34.5 -29 q-14 8 -19 45t-3 92t9 124t17 140t21.5 140t21.5 125q11 62 -21 104q-15 18 -31 32.5t-33 22.5q-18 11 -27.5 5t-14.5 -34q-12 -67 -24 -140.5t-22 -148.5t-17 -149t-9 -141t2.5 -125.5t16.5 -101.5zM87 1264q16 -18 39 -40.5t49.5 -45t55 -43.5t55.5 -37q22 -15 57 19 q0 -1 3.5 4t6 14t1.5 19.5t-11 21.5q-46 35 -93.5 76.5t-83.5 89.5q-10 12 -23 11t-33 -18q-11 -9 -16 -26.5t-7 -44.5z" unicode="Ù"/>
<glyph horiz-adv-x="451" glyph-name="Uacute" d="M0 133q10 -37 24 -61.5t30 -42.5q38 -42 98 -50q30 -4 53.5 4t46.5 31q32 37 56.5 113.5t44 185t34.5 245.5t29 295q3 27 0 41t-20 33q-16 15 -35 31.5t-36 24t-28.5 1.5t-12.5 -35q-6 -65 -14.5 -152.5t-19.5 -180t-24 -181.5t-27.5 -157t-31 -106t-34.5 -29 q-14 8 -19 45t-3 92t9 124t17 140t21.5 140t21.5 125q11 62 -21 104q-15 18 -31 32.5t-33 22.5q-18 11 -27.5 5t-14.5 -34q-12 -67 -24 -140.5t-22 -148.5t-17 -149t-9 -141t2.5 -125.5t16.5 -101.5zM355 1264q-2 27 -7 44.5t-16 26.5q-20 17 -33 18t-23 -11 q-36 -48 -83.5 -89.5t-93.5 -76.5q-10 -11 -11 -21.5t1.5 -19.5t6 -14t3.5 -4q35 -34 57 -19q27 16 55.5 37t55 43.5t49.5 45t39 40.5z" unicode="Ú"/>
<glyph horiz-adv-x="451" glyph-name="Ucircumflex" d="M0 133q10 -37 24 -61.5t30 -42.5q38 -42 98 -50q30 -4 53.5 4t46.5 31q32 37 56.5 113.5t44 185t34.5 245.5t29 295q3 27 0 41t-20 33q-16 15 -35 31.5t-36 24t-28.5 1.5t-12.5 -35q-6 -65 -14.5 -152.5t-19.5 -180t-24 -181.5t-27.5 -157t-31 -106t-34.5 -29 q-14 8 -19 45t-3 92t9 124t17 140t21.5 140t21.5 125q11 62 -21 104q-15 18 -31 32.5t-33 22.5q-18 11 -27.5 5t-14.5 -34q-12 -67 -24 -140.5t-22 -148.5t-17 -149t-9 -141t2.5 -125.5t16.5 -101.5zM329 1080q10 -1 12.5 4.5t0.5 20.5q-4 24 -9.5 56t-10.5 66.5t-10 70 t-8 68.5q-2 21 -5 30t-9 21q-7 10 -14.5 18t-15.5 18q-8 8 -14 7.5t-14 -14.5q-16 -26 -32 -56t-30 -60.5t-26.5 -58.5t-20.5 -49q-9 -22 1 -47q6 -14 11.5 -24.5t11.5 -20.5q7 -12 12 -12t10 12q16 33 34.5 71.5t40.5 78.5q8 -47 14 -88t12 -70q8 -28 24 -34q17 -8 35 -8z " unicode="Û"/>
<glyph horiz-adv-x="451" glyph-name="Udieresis" d="M0 133q10 -37 24 -61.5t30 -42.5q38 -42 98 -50q30 -4 53.5 4t46.5 31q32 37 56.5 113.5t44 185t34.5 245.5t29 295q3 27 0 41t-20 33q-16 15 -35 31.5t-36 24t-28.5 1.5t-12.5 -35q-6 -65 -14.5 -152.5t-19.5 -180t-24 -181.5t-27.5 -157t-31 -106t-34.5 -29 q-14 8 -19 45t-3 92t9 124t17 140t21.5 140t21.5 125q11 62 -21 104q-15 18 -31 32.5t-33 22.5q-18 11 -27.5 5t-14.5 -34q-12 -67 -24 -140.5t-22 -148.5t-17 -149t-9 -141t2.5 -125.5t16.5 -101.5zM95 1176q-2 -44 14.5 -70t39.5 -24q11 0 20 7t15.5 17.5t10.5 22t5 20.5 q3 12 3 27q0 24 -9.5 46t-29.5 34q-15 8 -27 4t-21 -16t-14.5 -30t-6.5 -38zM270 1176q-2 -44 14.5 -71t39.5 -25q11 0 20 7t15.5 17.5t10 22.5t5.5 21q1 7 1.5 13.5t0.5 14.5q0 23 -9 45t-29 33q-15 8 -27.5 4t-21.5 -15.5t-14 -29.5t-6 -37z" unicode="Ü"/>
<glyph horiz-adv-x="434" glyph-name="Yacute" d="M404 837q4 16 6 28t1.5 22.5t-3.5 20t-9 20.5q-10 15 -23.5 34t-27 30.5t-25 10t-16.5 -26.5q-29 -94 -60 -189t-63 -189q-16 94 -30.5 175.5t-27.5 144.5q-8 32 -16 47.5t-25 22.5t-34 5.5t-34 -4.5q-16 -4 -19 -13.5t2 -36.5q9 -58 20.5 -127t24.5 -143.5t26 -149.5 t25 -145q-8 -82 -13.5 -152.5t-10.5 -125.5q-2 -34 2.5 -51t18.5 -36q14 -12 31.5 -23t33.5 -20q17 -8 23 -2t10 32q7 71 15 144t19 155q27 75 55 154t52.5 152t43.5 134.5t28 101.5zM355 1264q-2 27 -7 44.5t-16 26.5q-20 17 -33 18t-23 -11q-36 -48 -83.5 -89.5 t-93.5 -76.5q-10 -11 -11 -21.5t1.5 -19.5t6 -14t3.5 -4q35 -34 57 -19q27 16 55.5 37t55 43.5t49.5 45t39 40.5z" unicode="Ý"/>
<glyph horiz-adv-x="438" glyph-name="Thorn" d="M160 919q-16 19 -37 35t-39 24t-27 2t-14 -35q-7 -49 -15.5 -117.5t-17 -146.5t-16.5 -161t-15 -159.5t-12 -142.5t-7 -110q-2 -35 2.5 -53t19.5 -33q14 -14 30 -23.5t33 -18.5q17 -8 23 -1.5t9 29.5q2 21 4.5 45t5.5 48q38 19 76.5 47t73.5 61t64.5 70.5t49.5 76.5 q24 47 38.5 99.5t3.5 119.5q-11 66 -29.5 111.5t-39.5 83.5q-27 43 -66.5 47.5t-84.5 -12.5q2 10 3.5 19.5t3.5 19.5q4 27 0.5 41.5t-20.5 33.5zM115 325q10 72 19 136t19 123q22 17 43.5 25.5t38.5 9t28 -6t13 -19.5q5 -24 -3 -59t-28.5 -73t-53 -74t-76.5 -62z" unicode="Þ"/>
<glyph horiz-adv-x="682" glyph-name="germandbls" d="M597 905q-4 12 -5.5 14.5t-2.5 2.5t-3 1.5t-7 11.5q-20 41 -47 2q-25 -35 -61.5 -95t-78.5 -132.5t-86.5 -152t-84.5 -152t-72.5 -132.5t-50.5 -94q-14 -27 -17 -46q-1 -11 0 -21.5t6 -20.5q3 -8 3.5 -6.5t0.5 4.5t1.5 3.5t6.5 -9.5q11 -19 19.5 -17.5t19.5 22.5 q24 41 60 102t78 131.5t87 145t87 143t78 125.5t59 92q13 20 16 35t-6 43zM94 538q18 25 36.5 55.5t35 62t30 63t22.5 60.5q15 47 19.5 88.5t-12.5 89.5q-6 15 -16.5 31t-24 28t-29.5 17.5t-34 -0.5q-30 -10 -56 -44.5t-44 -86.5q-11 -33 -9 -46.5t12 -20.5q17 -10 36 -10 q20 0 35 20q9 16 18.5 31t18 25.5t15.5 14t12 -2.5t-0.5 -28t-18 -54t-31 -71t-40 -79t-45 -78.5t-45.5 -68.5q-10 -14 -7.5 -29t7.5 -28q6 -14 15.5 -32t17.5 -28q5 -10 12 -13.5t25 3.5q12 5 30 10.5t38.5 10.5t40 8.5t34.5 5.5q9 3 11.5 8t-0.5 19q-2 12 -7 27.5 t-10 27.5q-10 26 -27 25q-13 -2 -30.5 -4t-34.5 -7zM569 299q38 30 58 64q9 14 14.5 34.5t6 45.5t-5.5 52.5t-19 55.5q-13 25 -26 37.5t-25 17.5t-23 3.5t-20 -5.5q-26 -10 -48.5 -36.5t-35.5 -54.5q-10 -21 3 -41q6 -9 15.5 -15.5t20 -9t20.5 0.5t17 13q11 11 22.5 22 t20.5 11q6 0 9 -8q9 -19 -19.5 -59.5t-101.5 -83.5q-15 -8 -6 -39q12 -34 29 -51.5t35 -12.5q14 3 22.5 1.5t16.5 -12.5q8 -12 8 -41q0 -28 -15 -58q-16 -30 -37.5 -33.5t-55.5 28.5q-12 11 -27 13t-28 -12q-7 -8 -7 -22q0 -13 17 -39q27 -46 55 -62.5t54 -16.5 q33 0 60.5 18.5t47.5 68.5q18 44 16 97t-33 99q-8 12 -16.5 18.5t-18.5 11.5z" unicode="ß"/>
<glyph horiz-adv-x="479" glyph-name="agrave" d="M275 242q2 -51 5 -95t6 -82q3 -36 9.5 -50.5t22.5 -23.5q16 -11 31 -12.5t32 -1.5t22 9t4 32q-4 109 -7.5 229.5t-6 236t-3 218.5t0.5 178q1 30 -4.5 48.5t-24.5 29.5q-26 13 -55 26t-76 17q-27 4 -41 -13t-23 -44q-17 -53 -36 -118t-38.5 -137t-39.5 -147.5t-38 -149 t-34 -141.5t-28 -125q-5 -27 -5 -43t3 -26.5t8.5 -18t13.5 -17.5q10 -11 20.5 -19t18.5 -15q15 -11 22.5 -7t13.5 26q10 42 20.5 85t24.5 94q37 18 85.5 31t96.5 26zM131 1270q16 -18 39 -40t49.5 -44.5t55 -43.5t55.5 -37q12 -9 26 -4t31 22q0 -1 3.5 4.5t6 14t1.5 19.5 t-11 22q-46 35 -93.5 76.5t-83.5 88.5q-10 13 -23 12t-33 -18q-11 -9 -16 -27t-7 -45zM152 411q29 109 57.5 208t51.5 177q0 -87 2 -177.5t4 -184.5q-29 -4 -57.5 -9.5t-57.5 -13.5z" unicode="à"/>
<glyph horiz-adv-x="479" glyph-name="aacute" d="M275 242q2 -51 5 -95t6 -82q3 -36 9.5 -50.5t22.5 -23.5q16 -11 31 -12.5t32 -1.5t22 9t4 32q-4 109 -7.5 229.5t-6 236t-3 218.5t0.5 178q1 30 -4.5 48.5t-24.5 29.5q-26 13 -55 26t-76 17q-27 4 -41 -13t-23 -44q-17 -53 -36 -118t-38.5 -137t-39.5 -147.5t-38 -149 t-34 -141.5t-28 -125q-5 -27 -5 -43t3 -26.5t8.5 -18t13.5 -17.5q10 -11 20.5 -19t18.5 -15q15 -11 22.5 -7t13.5 26q10 42 20.5 85t24.5 94q37 18 85.5 31t96.5 26zM414 1264q-2 27 -7 44.5t-16 26.5q-20 17 -33 18t-23 -11q-36 -48 -83.5 -89.5t-93.5 -76.5 q-10 -11 -11 -21.5t1.5 -19.5t6 -14t3.5 -4q35 -34 57 -19q27 16 55.5 37t55 43.5t49.5 45t39 40.5zM152 411q29 109 57.5 208t51.5 177q0 -87 2 -177.5t4 -184.5q-29 -4 -57.5 -9.5t-57.5 -13.5z" unicode="á"/>
<glyph horiz-adv-x="479" glyph-name="acircumflex" d="M275 242q2 -51 5 -95t6 -82q3 -36 9.5 -50.5t22.5 -23.5q16 -11 31 -12.5t32 -1.5t22 9t4 32q-4 109 -7.5 229.5t-6 236t-3 218.5t0.5 178q1 30 -4.5 48.5t-24.5 29.5q-26 13 -55 26t-76 17q-27 4 -41 -13t-23 -44q-17 -53 -36 -118t-38.5 -137t-39.5 -147.5t-38 -149 t-34 -141.5t-28 -125q-5 -27 -5 -43t3 -26.5t8.5 -18t13.5 -17.5q10 -11 20.5 -19t18.5 -15q15 -11 22.5 -7t13.5 26q10 42 20.5 85t24.5 94q37 18 85.5 31t96.5 26zM384 1084q10 -1 12.5 4.5t0.5 20.5q-4 24 -9.5 56t-10.5 66.5t-10 70t-8 68.5q-2 20 -5 29.5t-9 21.5 q-7 10 -14.5 18t-15.5 18q-8 8 -14 7.5t-14 -15.5q-16 -25 -32 -55.5t-30 -61t-26.5 -58.5t-20.5 -48q-9 -22 1 -47q6 -14 11.5 -24.5t11.5 -20.5q7 -12 12 -12t10 12q16 33 34.5 71.5t40.5 78.5q8 -47 14 -88.5t12 -69.5q8 -28 24 -34q10 -5 18.5 -6.5t16.5 -1.5zM152 411 q29 109 57.5 208t51.5 177q0 -87 2 -177.5t4 -184.5q-29 -4 -57.5 -9.5t-57.5 -13.5z" unicode="â"/>
<glyph horiz-adv-x="479" glyph-name="atilde" d="M275 242q2 -51 5 -95t6 -82q3 -36 9.5 -50.5t22.5 -23.5q16 -11 31 -12.5t32 -1.5t22 9t4 32q-4 109 -7.5 229.5t-6 236t-3 218.5t0.5 178q1 30 -4.5 48.5t-24.5 29.5q-26 13 -55 26t-76 17q-27 4 -41 -13t-23 -44q-17 -53 -36 -118t-38.5 -137t-39.5 -147.5t-38 -149 t-34 -141.5t-28 -125q-5 -27 -5 -43t3 -26.5t8.5 -18t13.5 -17.5q10 -11 20.5 -19t18.5 -15q15 -11 22.5 -7t13.5 26q10 42 20.5 85t24.5 94q37 18 85.5 31t96.5 26zM336 1108q31 0 67 48q20 24 29.5 45.5t9.5 38.5t-13 30q-10 9 -24 9q-15 0 -28 -18q-2 -3 -7 -11.5 t-10.5 -17t-10.5 -15t-8 -5.5q-9 1 -18.5 6.5t-18.5 12.5l-18 14t-17 12q-30 18 -55 18q-12 0 -29 -9.5t-33.5 -24t-30 -31t-18.5 -30.5q-6 -17 -6 -33q0 -37 31 -37q18 0 30 13q1 0 6 6.5t11 15t13 15t13 6.5q7 0 17 -3t20 -7.5t19 -10t14 -11.5q11 -14 27 -20t38 -6z M152 411q29 109 57.5 208t51.5 177q0 -87 2 -177.5t4 -184.5q-29 -4 -57.5 -9.5t-57.5 -13.5z" unicode="ã"/>
<glyph horiz-adv-x="479" glyph-name="adieresis" d="M275 242q2 -51 5 -95t6 -82q3 -36 9.5 -50.5t22.5 -23.5q16 -11 31 -12.5t32 -1.5t22 9t4 32q-4 109 -7.5 229.5t-6 236t-3 218.5t0.5 178q1 30 -4.5 48.5t-24.5 29.5q-26 13 -55 26t-76 17q-27 4 -41 -13t-23 -44q-17 -53 -36 -118t-38.5 -137t-39.5 -147.5t-38 -149 t-34 -141.5t-28 -125q-5 -27 -5 -43t3 -26.5t8.5 -18t13.5 -17.5q10 -11 20.5 -19t18.5 -15q15 -11 22.5 -7t13.5 26q10 42 20.5 85t24.5 94q37 18 85.5 31t96.5 26zM152 411q29 109 57.5 208t51.5 177q0 -87 2 -177.5t4 -184.5q-29 -4 -57.5 -9.5t-57.5 -13.5zM138 1183 q-2 -45 14.5 -71t39.5 -24q11 0 20 7t15.5 17.5t10.5 22.5t5 21q3 10 3 27q0 23 -9.5 45.5t-29.5 33.5q-15 8 -27 4t-21 -16t-14.5 -29.5t-6.5 -37.5zM313 1183q-2 -45 14.5 -71.5t39.5 -24.5q11 0 20 7t15.5 17.5t10 22t5.5 20.5q1 7 1.5 13.5t0.5 15.5q0 23 -9 44.5 t-29 33.5q-15 8 -27.5 4t-21.5 -15.5t-14 -29.5t-6 -37z" unicode="ä"/>
<glyph horiz-adv-x="479" glyph-name="aring" d="M275 242q2 -51 5 -95t6 -82q3 -36 9.5 -50.5t22.5 -23.5q16 -11 31 -12.5t32 -1.5t22 9t4 32q-4 109 -7.5 229.5t-6 236t-3 218.5t0.5 178q1 30 -4.5 48.5t-24.5 29.5q-26 13 -55 26t-76 17q-27 4 -41 -13t-23 -44q-17 -53 -36 -118t-38.5 -137t-39.5 -147.5t-38 -149 t-34 -141.5t-28 -125q-5 -27 -5 -43t3 -26.5t8.5 -18t13.5 -17.5q10 -11 20.5 -19t18.5 -15q15 -11 22.5 -7t13.5 26q10 42 20.5 85t24.5 94q37 18 85.5 31t96.5 26zM378 1347q-11 8 -27.5 14t-34.5 9q-14 2 -29.5 -2.5t-26.5 -12.5q-26 -22 -43.5 -54t-26 -67t-7.5 -69.5 t13 -60.5q5 -12 14 -21t18 -14q12 -8 26.5 -11.5t28.5 -4.5q40 -6 67 18q20 21 33.5 50t20 60t7.5 62t-4 57q-4 14 -10 25.5t-19 21.5zM152 411q29 109 57.5 208t51.5 177q0 -87 2 -177.5t4 -184.5q-29 -4 -57.5 -9.5t-57.5 -13.5zM327 1314q7 -2 10 -14t3.5 -29t-2 -37 t-6.5 -37q-5 -22 -12 -40.5t-15 -31t-16.5 -18.5t-15.5 -3q-8 2 -12 14t-4.5 28.5t2 35.5t7.5 36t12.5 35t16 32t17 22.5t15.5 6.5z" unicode="å"/>
<glyph horiz-adv-x="704" glyph-name="ae" d="M471 959q-25 13 -52.5 26t-74.5 17q-26 4 -42 -13t-28 -44q-23 -52 -49.5 -117t-54.5 -137t-56.5 -148t-55.5 -149.5t-50.5 -141.5t-42.5 -125q-8 -27 -10.5 -43t-0.5 -26.5t7 -18t11 -17.5q9 -11 18.5 -19t16.5 -15q15 -11 23 -7t16 27q14 42 29.5 85t35.5 93 q38 19 88.5 31t98.5 25q-3 -42 -6.5 -69.5t-6 -46.5t-4 -33t-1.5 -28q-2 -36 8.5 -50t26.5 -23q4 -5 18 -7t30 -2t31 1.5t22 3.5l84 31.5t86 32.5q17 7 20.5 16.5t-0.5 35.5q-5 23 -10 45.5t-13 46.5q-7 23 -17.5 30.5t-27.5 4.5q-32 -4 -60 -9.5t-57 -16.5q0 5 0.5 9.5 t0.5 9.5q5 29 9 60t9 64q37 15 76.5 27t77.5 25q17 7 21 16t-1 36q-4 24 -8.5 46t-12.5 45q-7 23 -17 30t-27 5q-20 -1 -38.5 -3t-37.5 -7q10 59 18 112t16 101q42 11 80.5 18.5t73.5 14.5q17 4 21.5 13.5t1.5 36.5q-4 24 -7.5 43.5t-11.5 44.5q-10 45 -43 44 q-45 -3 -80 -14t-67 -25q-1 1 -2 1t-2 1zM196 412q42 110 82 208.5t73 176.5q-10 -87 -19 -177.5t-17 -184.5q-30 -4 -59 -9.5t-60 -13.5z" unicode="æ"/>
<glyph horiz-adv-x="428" glyph-name="ccedilla" d="M97 -264q8 17 18 43.5t20 56t18 60t13 56.5q0 3 0.5 6t0.5 6q28 0 54 14.5t43 35.5q18 26 36 65t29 85q10 39 8.5 65t-26.5 39q-62 33 -99 -42q-52 -106 -79 -88q-14 7 -20.5 41t-7.5 84t3.5 109.5t13.5 118.5q6 36 15 76t19.5 78.5t21.5 73t22 59.5t21 38t18 9 q12 -8 14.5 -35.5t2.5 -61.5q0 -11 0.5 -21t1.5 -21q6 -54 24 -86t58 -46q21 -8 26 3t9 29q3 19 5 44t3 52t1 54q0 28 -1 52q-2 42 -10.5 74.5t-32.5 64.5q-23 26 -57.5 49t-67.5 28q-22 2 -47 -8.5t-50 -46.5q-31 -46 -57 -111t-45 -139.5t-31 -155t-15.5 -157t1.5 -146 t20 -122.5q9 -36 26.5 -63.5t34.5 -41.5q2 -2 5 -4l6 -4q-9 -32 -18.5 -67t-18.5 -68.5t-17 -63.5t-14 -52q-12 -41 17 -50q12 -3 23.5 -5t22.5 1q22 1 39 36z" unicode="ç"/>
<glyph horiz-adv-x="385" glyph-name="egrave" d="M45 923l-76 -751q-2 -35 3.5 -59t16.5 -43q13 -23 23 -38t21 -29q10 -13 23.5 -20.5t40.5 5.5l84 31.5t86 32.5q17 7 20.5 16.5t-0.5 35.5q-5 23 -10 45.5t-13 46.5q-7 23 -17.5 30.5t-27.5 4.5q-32 -4 -60 -9.5t-58 -16.5l10 70t10 73q37 15 76.5 27t77.5 25q17 7 21 16 t-1 36q-4 24 -8.5 46t-12.5 45q-7 23 -17 30t-27 5q-20 -1 -38.5 -3t-37.5 -7q10 59 18 112t16 101q42 11 80.5 18.5t73.5 14.5q17 4 21.5 13.5t1.5 36.5q-4 24 -7.5 43.5t-11.5 44.5q-10 45 -43 44q-35 -3 -70 -10t-68.5 -17.5t-64 -22t-55.5 -23.5zM87 1264 q16 -18 39 -40.5t49.5 -45t55 -43.5t55.5 -37q22 -15 57 19q0 -1 3.5 4t6 14t1.5 19.5t-11 21.5q-46 35 -93.5 76.5t-83.5 89.5q-10 12 -23 11t-33 -18q-11 -9 -16 -26.5t-7 -44.5z" unicode="è"/>
<glyph horiz-adv-x="385" glyph-name="eacute" d="M45 923l-76 -751q-2 -35 3.5 -59t16.5 -43q13 -23 23 -38t21 -29q10 -13 23.5 -20.5t40.5 5.5l84 31.5t86 32.5q17 7 20.5 16.5t-0.5 35.5q-5 23 -10 45.5t-13 46.5q-7 23 -17.5 30.5t-27.5 4.5q-32 -4 -60 -9.5t-58 -16.5l10 70t10 73q37 15 76.5 27t77.5 25q17 7 21 16 t-1 36q-4 24 -8.5 46t-12.5 45q-7 23 -17 30t-27 5q-20 -1 -38.5 -3t-37.5 -7q10 59 18 112t16 101q42 11 80.5 18.5t73.5 14.5q17 4 21.5 13.5t1.5 36.5q-4 24 -7.5 43.5t-11.5 44.5q-10 45 -43 44q-35 -3 -70 -10t-68.5 -17.5t-64 -22t-55.5 -23.5zM355 1264 q-2 27 -7 44.5t-16 26.5q-20 17 -33 18t-23 -11q-36 -48 -83.5 -89.5t-93.5 -76.5q-10 -11 -11 -21.5t1.5 -19.5t6 -14t3.5 -4q35 -34 57 -19q27 16 55.5 37t55 43.5t49.5 45t39 40.5z" unicode="é"/>
<glyph horiz-adv-x="385" glyph-name="ecircumflex" d="M45 923l-76 -751q-2 -35 3.5 -59t16.5 -43q13 -23 23 -38t21 -29q10 -13 23.5 -20.5t40.5 5.5l84 31.5t86 32.5q17 7 20.5 16.5t-0.5 35.5q-5 23 -10 45.5t-13 46.5q-7 23 -17.5 30.5t-27.5 4.5q-32 -4 -60 -9.5t-58 -16.5l10 70t10 73q37 15 76.5 27t77.5 25q17 7 21 16 t-1 36q-4 24 -8.5 46t-12.5 45q-7 23 -17 30t-27 5q-20 -1 -38.5 -3t-37.5 -7q10 59 18 112t16 101q42 11 80.5 18.5t73.5 14.5q17 4 21.5 13.5t1.5 36.5q-4 24 -7.5 43.5t-11.5 44.5q-10 45 -43 44q-35 -3 -70 -10t-68.5 -17.5t-64 -22t-55.5 -23.5zM329 1080 q10 -1 12.5 4.5t0.5 20.5q-4 24 -9.5 56t-10.5 66.5t-10 70t-8 68.5q-2 21 -5 30t-9 21q-7 10 -14.5 18t-15.5 18q-8 8 -14 7.5t-14 -14.5q-16 -26 -32 -56t-30 -60.5t-26.5 -58.5t-20.5 -49q-9 -22 1 -47q6 -14 11.5 -24.5t11.5 -20.5q7 -12 12 -12t10 12q16 33 34.5 71.5 t40.5 78.5q8 -47 14 -88t12 -70q8 -28 24 -34q17 -8 35 -8z" unicode="ê"/>
<glyph horiz-adv-x="385" glyph-name="edieresis" d="M45 923l-76 -751q-2 -35 3.5 -59t16.5 -43q13 -23 23 -38t21 -29q10 -13 23.5 -20.5t40.5 5.5l84 31.5t86 32.5q17 7 20.5 16.5t-0.5 35.5q-5 23 -10 45.5t-13 46.5q-7 23 -17.5 30.5t-27.5 4.5q-32 -4 -60 -9.5t-58 -16.5l10 70t10 73q37 15 76.5 27t77.5 25q17 7 21 16 t-1 36q-4 24 -8.5 46t-12.5 45q-7 23 -17 30t-27 5q-20 -1 -38.5 -3t-37.5 -7q10 59 18 112t16 101q42 11 80.5 18.5t73.5 14.5q17 4 21.5 13.5t1.5 36.5q-4 24 -7.5 43.5t-11.5 44.5q-10 45 -43 44q-35 -3 -70 -10t-68.5 -17.5t-64 -22t-55.5 -23.5zM66 1176 q-2 -44 14.5 -70t39.5 -24q11 0 20 7t15.5 17.5t10.5 22t5 20.5q3 12 3 27q0 24 -9.5 46t-29.5 34q-15 8 -27 4t-21 -16t-14.5 -30t-6.5 -38zM241 1176q-2 -44 14.5 -71t39.5 -25q11 0 20 7t15.5 17.5t10 22.5t5.5 21q1 7 1.5 13.5t0.5 14.5q0 23 -9 45t-29 33 q-15 8 -27.5 4t-21.5 -15.5t-14 -29.5t-6 -37z" unicode="ë"/>
<glyph horiz-adv-x="208" glyph-name="igrave" d="M160 919q-16 19 -37 35t-39 24t-27 2t-14 -35q-7 -49 -15.5 -117.5t-17 -146.5t-16.5 -161t-15 -159.5t-12 -142.5t-7 -110q-2 -35 2.5 -53t19.5 -33q14 -14 30 -23.5t33 -18.5q17 -8 23 -1.5t9 29.5q6 57 13.5 128t16.5 147.5t18.5 156t19 153t18.5 138.5t17 113 q4 27 0.5 41.5t-20.5 33.5zM-29 1291q16 -18 39 -40t49.5 -44.5t55 -43.5t55.5 -37q12 -9 26 -4t31 22q0 -1 3.5 4t6 14t1.5 20t-11 22q-46 35 -93.5 76t-83.5 89q-10 13 -23 12t-33 -19q-11 -8 -16 -26t-7 -45z" unicode="ì"/>
<glyph horiz-adv-x="208" glyph-name="iacute" d="M160 919q-16 19 -37 35t-39 24t-27 2t-14 -35q-7 -49 -15.5 -117.5t-17 -146.5t-16.5 -161t-15 -159.5t-12 -142.5t-7 -110q-2 -35 2.5 -53t19.5 -33q14 -14 30 -23.5t33 -18.5q17 -8 23 -1.5t9 29.5q6 57 13.5 128t16.5 147.5t18.5 156t19 153t18.5 138.5t17 113 q4 27 0.5 41.5t-20.5 33.5zM282 1266q-2 28 -7 45.5t-16 26.5q-20 17 -33 18t-23 -12q-36 -47 -83.5 -88.5t-93.5 -76.5q-10 -11 -11 -22t1.5 -19.5t6 -14t3.5 -4.5q17 -17 31 -22t26 4q27 16 55.5 37t55 43.5t49.5 44.5t39 40z" unicode="í"/>
<glyph horiz-adv-x="208" glyph-name="icircumflex" d="M160 919q-16 19 -37 35t-39 24t-27 2t-14 -35q-7 -49 -15.5 -117.5t-17 -146.5t-16.5 -161t-15 -159.5t-12 -142.5t-7 -110q-2 -35 2.5 -53t19.5 -33q14 -14 30 -23.5t33 -18.5q17 -8 23 -1.5t9 29.5q6 57 13.5 128t16.5 147.5t18.5 156t19 153t18.5 138.5t17 113 q4 27 0.5 41.5t-20.5 33.5zM232 1074q17 -3 13 24q-4 24 -9.5 56t-10.5 67t-10 70.5t-8 68.5q-2 20 -5 29.5t-9 20.5q-7 10 -14.5 18.5t-15.5 18.5q-8 8 -14 7.5t-14 -15.5q-16 -26 -32 -56t-30 -60.5t-26.5 -58.5t-20.5 -49q-9 -21 1 -46q6 -15 11.5 -25.5t11.5 -20.5 q7 -12 12 -12t10 12q16 33 34.5 72t40.5 79q8 -47 14 -88.5t12 -70.5q8 -29 24 -33q10 -5 18.5 -6.5t16.5 -1.5z" unicode="î"/>
<glyph horiz-adv-x="208" glyph-name="idieresis" d="M160 919q-16 19 -37 35t-39 24t-27 2t-14 -35q-7 -49 -15.5 -117.5t-17 -146.5t-16.5 -161t-15 -159.5t-12 -142.5t-7 -110q-2 -35 2.5 -53t19.5 -33q14 -14 30 -23.5t33 -18.5q17 -8 23 -1.5t9 29.5q6 57 13.5 128t16.5 147.5t18.5 156t19 153t18.5 138.5t17 113 q4 27 0.5 41.5t-20.5 33.5zM-19 1176q-2 -44 14.5 -70t39.5 -24q11 0 20 7t15.5 17.5t10.5 22t5 20.5q3 12 3 27q0 24 -9.5 46t-29.5 34q-15 8 -27 4t-21 -16t-14.5 -30t-6.5 -38zM156 1176q-2 -44 14.5 -71t39.5 -25q11 0 20 7t15.5 17.5t10 22.5t5.5 21q1 7 1.5 13.5 t0.5 14.5q0 23 -9 45t-29 33q-15 8 -27.5 4t-21.5 -15.5t-14 -29.5t-6 -37z" unicode="ï"/>
<glyph horiz-adv-x="408" glyph-name="eth" d="M114 825q-29 -9 -10 -70q4 -13 6 -16.5t4 -5t5.5 -5t9.5 -16.5q13 -27 24 -35t24 -1q3 1 6.5 2.5t7.5 3.5q3 -47 3 -94q-31 19 -66 15q-28 -2 -49 -12t-37.5 -25.5t-29 -37.5t-22.5 -48q-21 -52 -32.5 -107t-14.5 -106.5t1 -96t14 -75.5q7 -20 17.5 -37.5t27 -30 t40 -19.5t57.5 -7q66 8 106.5 52.5t70.5 131.5q15 42 29 100t24 127t14 147t-1 162q12 2 24 3.5t24 3.5q16 1 20 10t-3 38q-3 12 -4 14.5t-1.5 4l-2 6t-6.5 18.5q-20 48 -46 48h-12q-5 0 -11 -1q-2 16 -5 32t-7 31q-7 27 -13 36.5t-25 14.5q-20 3 -46.5 4.5t-42.5 -3.5 q-20 -7 -27.5 -19t-1.5 -40q9 -39 15 -78q-17 -5 -31.5 -9.5t-26.5 -9.5zM179 328q-13 -80 -29 -127.5t-36 -52.5q-24 -6 -35 35t-4 116q3 31 7.5 58t11.5 47.5t15.5 32.5t19.5 13q10 1 19 -7.5t16 -25t11 -39t4 -50.5z" unicode="ð"/>
<glyph horiz-adv-x="468" glyph-name="ntilde" d="M258 408q-7 58 -14 121t-13.5 121t-11.5 107t-8 79q-4 39 -11.5 59t-25.5 33q-22 19 -42.5 30t-41.5 22q-17 8 -28 0.5t-16 -38.5q-8 -54 -17 -127t-17.5 -154t-17 -164t-15 -157t-11.5 -133t-7 -93q-3 -34 1.5 -52.5t18.5 -32.5q14 -19 30.5 -27t32.5 -16q17 -9 23.5 -4 t8.5 28q4 47 10.5 108t14 130t16 143.5t16.5 147.5q8 -60 17 -121.5t18 -119t18.5 -108.5t18.5 -90q12 -57 41 -78q16 -11 31.5 -19.5t31.5 -14.5q36 -15 39 34l13 130t15 144.5t16 150.5t16.5 148.5t16.5 137.5t15 118q4 28 1 46.5t-20 37.5q-11 11 -18.5 18t-14.5 12 t-14 8t-16 7q-18 8 -27.5 1t-13.5 -36q-15 -111 -31.5 -249t-27.5 -288zM336 1108q31 0 67 48q20 24 29.5 45.5t9.5 38.5t-13 30q-10 9 -24 9q-15 0 -28 -18q-2 -3 -7 -11.5t-10.5 -17t-10.5 -15t-8 -5.5q-9 1 -18.5 6.5t-18.5 12.5l-18 14t-17 12q-30 18 -55 18 q-12 0 -29 -9.5t-33.5 -24t-30 -31t-18.5 -30.5q-6 -17 -6 -33q0 -37 31 -37q18 0 30 13q1 0 6 6.5t11 15t13 15t13 6.5q7 0 17 -3t20 -7.5t19 -10t14 -11.5q11 -14 27 -20t38 -6z" unicode="ñ"/>
<glyph glyph-name="ograve" d="M340 915q-20 28 -50.5 47t-63.5 27q-25 7 -53.5 -6.5t-48.5 -41.5q-32 -46 -57 -107.5t-42.5 -131t-28 -144.5t-13 -148.5t3 -142t19.5 -125.5q9 -36 26 -64.5t34 -47.5q22 -23 48.5 -34t51.5 -16q38 -8 67.5 6t55.5 54q37 66 61 158t36.5 191.5t13.5 198t-8 178.5 q-6 46 -17.5 82t-34.5 67zM247 812q12 -6 18 -44.5t6.5 -93.5t-3.5 -118t-12 -117q-9 -69 -22 -127.5t-27.5 -99t-30 -60t-28.5 -10.5q-15 9 -22 46.5t-8 90t3.5 113.5t13.5 116q9 54 23 110.5t29.5 102t31.5 72t28 19.5zM87 1264q16 -18 39 -40.5t49.5 -45t55 -43.5 t55.5 -37q22 -15 57 19q0 -1 3.5 4t6 14t1.5 19.5t-11 21.5q-46 35 -93.5 76.5t-83.5 89.5q-10 12 -23 11t-33 -18q-11 -9 -16 -26.5t-7 -44.5z" unicode="ò"/>
<glyph glyph-name="oacute" d="M340 915q-20 28 -50.5 47t-63.5 27q-25 7 -53.5 -6.5t-48.5 -41.5q-32 -46 -57 -107.5t-42.5 -131t-28 -144.5t-13 -148.5t3 -142t19.5 -125.5q9 -36 26 -64.5t34 -47.5q22 -23 48.5 -34t51.5 -16q38 -8 67.5 6t55.5 54q37 66 61 158t36.5 191.5t13.5 198t-8 178.5 q-6 46 -17.5 82t-34.5 67zM247 812q12 -6 18 -44.5t6.5 -93.5t-3.5 -118t-12 -117q-9 -69 -22 -127.5t-27.5 -99t-30 -60t-28.5 -10.5q-15 9 -22 46.5t-8 90t3.5 113.5t13.5 116q9 54 23 110.5t29.5 102t31.5 72t28 19.5zM355 1264q-2 27 -7 44.5t-16 26.5q-20 17 -33 18 t-23 -11q-36 -48 -83.5 -89.5t-93.5 -76.5q-10 -11 -11 -21.5t1.5 -19.5t6 -14t3.5 -4q35 -34 57 -19q27 16 55.5 37t55 43.5t49.5 45t39 40.5z" unicode="ó"/>
<glyph glyph-name="ocircumflex" d="M340 915q-20 28 -50.5 47t-63.5 27q-25 7 -53.5 -6.5t-48.5 -41.5q-32 -46 -57 -107.5t-42.5 -131t-28 -144.5t-13 -148.5t3 -142t19.5 -125.5q9 -36 26 -64.5t34 -47.5q22 -23 48.5 -34t51.5 -16q38 -8 67.5 6t55.5 54q37 66 61 158t36.5 191.5t13.5 198t-8 178.5 q-6 46 -17.5 82t-34.5 67zM247 812q12 -6 18 -44.5t6.5 -93.5t-3.5 -118t-12 -117q-9 -69 -22 -127.5t-27.5 -99t-30 -60t-28.5 -10.5q-15 9 -22 46.5t-8 90t3.5 113.5t13.5 116q9 54 23 110.5t29.5 102t31.5 72t28 19.5zM363 1058q10 -1 12.5 4.5t0.5 20.5q-4 24 -9.5 56 t-10.5 66.5t-10 70t-8 68.5q-2 20 -5 29.5t-9 21.5q-7 10 -14.5 18t-15.5 18q-8 8 -14 7.5t-14 -15.5q-16 -25 -32 -55.5t-30 -61t-26.5 -58.5t-20.5 -48q-9 -22 1 -47q6 -14 11.5 -24.5t11.5 -20.5q7 -12 12 -12t10 12q16 33 34.5 71.5t40.5 78.5q8 -47 14 -88.5t12 -69.5 q8 -28 24 -34q10 -5 18.5 -6.5t16.5 -1.5z" unicode="ô"/>
<glyph glyph-name="otilde" d="M340 915q-20 28 -50.5 47t-63.5 27q-25 7 -53.5 -6.5t-48.5 -41.5q-32 -46 -57 -107.5t-42.5 -131t-28 -144.5t-13 -148.5t3 -142t19.5 -125.5q9 -36 26 -64.5t34 -47.5q22 -23 48.5 -34t51.5 -16q38 -8 67.5 6t55.5 54q37 66 61 158t36.5 191.5t13.5 198t-8 178.5 q-6 46 -17.5 82t-34.5 67zM247 812q12 -6 18 -44.5t6.5 -93.5t-3.5 -118t-12 -117q-9 -69 -22 -127.5t-27.5 -99t-30 -60t-28.5 -10.5q-15 9 -22 46.5t-8 90t3.5 113.5t13.5 116q9 54 23 110.5t29.5 102t31.5 72t28 19.5zM336 1108q31 0 67 48q20 24 29.5 45.5t9.5 38.5 t-13 30q-10 9 -24 9q-15 0 -28 -18q-2 -3 -7 -11.5t-10.5 -17t-10.5 -15t-8 -5.5q-9 1 -18.5 6.5t-18.5 12.5l-18 14t-17 12q-30 18 -55 18q-12 0 -29 -9.5t-33.5 -24t-30 -31t-18.5 -30.5q-6 -17 -6 -33q0 -37 31 -37q18 0 30 13q1 0 6 6.5t11 15t13 15t13 6.5q7 0 17 -3 t20 -7.5t19 -10t14 -11.5q11 -14 27 -20t38 -6z" unicode="õ"/>
<glyph glyph-name="odieresis" d="M340 915q-20 28 -50.5 47t-63.5 27q-25 7 -53.5 -6.5t-48.5 -41.5q-32 -46 -57 -107.5t-42.5 -131t-28 -144.5t-13 -148.5t3 -142t19.5 -125.5q9 -36 26 -64.5t34 -47.5q22 -23 48.5 -34t51.5 -16q38 -8 67.5 6t55.5 54q37 66 61 158t36.5 191.5t13.5 198t-8 178.5 q-6 46 -17.5 82t-34.5 67zM247 812q12 -6 18 -44.5t6.5 -93.5t-3.5 -118t-12 -117q-9 -69 -22 -127.5t-27.5 -99t-30 -60t-28.5 -10.5q-15 9 -22 46.5t-8 90t3.5 113.5t13.5 116q9 54 23 110.5t29.5 102t31.5 72t28 19.5zM100 1176q-2 -44 14.5 -70t39.5 -24q11 0 20 7 t15.5 17.5t10.5 22t5 20.5q3 12 3 27q0 24 -9.5 46t-29.5 34q-15 8 -27 4t-21 -16t-14.5 -30t-6.5 -38zM275 1176q-2 -44 14.5 -71t39.5 -25q11 0 20 7t15.5 17.5t10 22.5t5.5 21q1 7 1.5 13.5t0.5 14.5q0 23 -9 45t-29 33q-15 8 -27.5 4t-21.5 -15.5t-14 -29.5t-6 -37z" unicode="ö"/>
<glyph horiz-adv-x="488" glyph-name="divide" d="M406 416q14 0 18 8t-1 31l-9.5 38t-12.5 41q-14 39 -40 39q-45 -1 -75.5 -2t-53.5 -4t-41.5 -7.5t-40 -10.5t-49 -14.5t-67.5 -19.5q-11 -3 -19.5 -13.5t-3.5 -33.5t15 -51.5t20 -47.5q11 -20 19 -24t23 1q43 14 69.5 24.5t45 18t33.5 12t36 8t52 5t82 2.5zM146 213 q-2 -60 19.5 -95t52.5 -32q15 0 27 9.5t20.5 23.5t13.5 29t7 27q3 18 3 38q0 30 -12.5 60t-38.5 45q-20 10 -36.5 5t-28.5 -21t-19 -39.5t-8 -49.5zM173 764q-2 -60 19.5 -95t52.5 -32q15 0 27 9.5t20.5 23.5t13.5 29.5t7 27.5q3 16 3 37q0 31 -12.5 60.5t-38.5 45.5 q-20 10 -36.5 4.5t-28.5 -21t-19 -39t-8 -50.5z" unicode="÷"/>
<glyph glyph-name="oslash" d="M391 1056q-6 10 -5.5 11t2.5 0.5l2 -0.5l-7 8q-29 33 -45 -14q-8 -19 -17 -46.5t-20 -61.5q-17 13 -36 21.5t-39 14.5q-25 7 -53.5 -6.5t-48.5 -41.5q-32 -46 -57 -107.5t-42.5 -131t-28 -144.5t-13 -148.5t3 -142t19.5 -125.5q5 -23 14 -43t20 -35q-7 -24 -12 -43.5 t-8 -32.5q-7 -31 -6 -52q2 -23 14 -37q5 -6 2.5 -4t-6 5t-5 4.5t5.5 -5.5q15 -15 23 -10t14 28q5 17 12 41t15 51q19 -12 38.5 -18t38.5 -11q38 -8 67.5 6t55.5 54q37 66 61 158t36.5 191.5t13.5 198t-8 178.5q-5 31 -11.5 58.5t-17.5 50.5q11 32 19.5 58t15.5 45 q8 23 7.5 39t-14.5 39zM256 439q-9 -69 -22 -127.5t-27.5 -99t-30 -60t-28.5 -10.5q-8 3 -13 17q30 98 65 208t69 218q-2 -38 -5 -75t-8 -71zM247 812q5 -2 7 -7q-16 -53 -33.5 -110.5t-34.5 -117t-34.5 -118.5t-33.5 -116q3 85 17 165q9 54 23 110.5t29.5 102t31.5 72 t28 19.5z" unicode="ø"/>
<glyph horiz-adv-x="451" glyph-name="ugrave" d="M0 133q10 -37 24 -61.5t30 -42.5q38 -42 98 -50q30 -4 53.5 4t46.5 31q32 37 56.5 113.5t44 185t34.5 245.5t29 295q3 27 0 41t-20 33q-16 15 -35 31.5t-36 24t-28.5 1.5t-12.5 -35q-6 -65 -14.5 -152.5t-19.5 -180t-24 -181.5t-27.5 -157t-31 -106t-34.5 -29 q-14 8 -19 45t-3 92t9 124t17 140t21.5 140t21.5 125q11 62 -21 104q-15 18 -31 32.5t-33 22.5q-18 11 -27.5 5t-14.5 -34q-12 -67 -24 -140.5t-22 -148.5t-17 -149t-9 -141t2.5 -125.5t16.5 -101.5zM87 1264q16 -18 39 -40.5t49.5 -45t55 -43.5t55.5 -37q22 -15 57 19 q0 -1 3.5 4t6 14t1.5 19.5t-11 21.5q-46 35 -93.5 76.5t-83.5 89.5q-10 12 -23 11t-33 -18q-11 -9 -16 -26.5t-7 -44.5z" unicode="ù"/>
<glyph horiz-adv-x="451" glyph-name="uacute" d="M0 133q10 -37 24 -61.5t30 -42.5q38 -42 98 -50q30 -4 53.5 4t46.5 31q32 37 56.5 113.5t44 185t34.5 245.5t29 295q3 27 0 41t-20 33q-16 15 -35 31.5t-36 24t-28.5 1.5t-12.5 -35q-6 -65 -14.5 -152.5t-19.5 -180t-24 -181.5t-27.5 -157t-31 -106t-34.5 -29 q-14 8 -19 45t-3 92t9 124t17 140t21.5 140t21.5 125q11 62 -21 104q-15 18 -31 32.5t-33 22.5q-18 11 -27.5 5t-14.5 -34q-12 -67 -24 -140.5t-22 -148.5t-17 -149t-9 -141t2.5 -125.5t16.5 -101.5zM355 1264q-2 27 -7 44.5t-16 26.5q-20 17 -33 18t-23 -11 q-36 -48 -83.5 -89.5t-93.5 -76.5q-10 -11 -11 -21.5t1.5 -19.5t6 -14t3.5 -4q35 -34 57 -19q27 16 55.5 37t55 43.5t49.5 45t39 40.5z" unicode="ú"/>
<glyph horiz-adv-x="451" glyph-name="ucircumflex" d="M0 133q10 -37 24 -61.5t30 -42.5q38 -42 98 -50q30 -4 53.5 4t46.5 31q32 37 56.5 113.5t44 185t34.5 245.5t29 295q3 27 0 41t-20 33q-16 15 -35 31.5t-36 24t-28.5 1.5t-12.5 -35q-6 -65 -14.5 -152.5t-19.5 -180t-24 -181.5t-27.5 -157t-31 -106t-34.5 -29 q-14 8 -19 45t-3 92t9 124t17 140t21.5 140t21.5 125q11 62 -21 104q-15 18 -31 32.5t-33 22.5q-18 11 -27.5 5t-14.5 -34q-12 -67 -24 -140.5t-22 -148.5t-17 -149t-9 -141t2.5 -125.5t16.5 -101.5zM329 1080q10 -1 12.5 4.5t0.5 20.5q-4 24 -9.5 56t-10.5 66.5t-10 70 t-8 68.5q-2 21 -5 30t-9 21q-7 10 -14.5 18t-15.5 18q-8 8 -14 7.5t-14 -14.5q-16 -26 -32 -56t-30 -60.5t-26.5 -58.5t-20.5 -49q-9 -22 1 -47q6 -14 11.5 -24.5t11.5 -20.5q7 -12 12 -12t10 12q16 33 34.5 71.5t40.5 78.5q8 -47 14 -88t12 -70q8 -28 24 -34q17 -8 35 -8z " unicode="û"/>
<glyph horiz-adv-x="451" glyph-name="udieresis" d="M0 133q10 -37 24 -61.5t30 -42.5q38 -42 98 -50q30 -4 53.5 4t46.5 31q32 37 56.5 113.5t44 185t34.5 245.5t29 295q3 27 0 41t-20 33q-16 15 -35 31.5t-36 24t-28.5 1.5t-12.5 -35q-6 -65 -14.5 -152.5t-19.5 -180t-24 -181.5t-27.5 -157t-31 -106t-34.5 -29 q-14 8 -19 45t-3 92t9 124t17 140t21.5 140t21.5 125q11 62 -21 104q-15 18 -31 32.5t-33 22.5q-18 11 -27.5 5t-14.5 -34q-12 -67 -24 -140.5t-22 -148.5t-17 -149t-9 -141t2.5 -125.5t16.5 -101.5zM95 1176q-2 -44 14.5 -70t39.5 -24q11 0 20 7t15.5 17.5t10.5 22t5 20.5 q3 12 3 27q0 24 -9.5 46t-29.5 34q-15 8 -27 4t-21 -16t-14.5 -30t-6.5 -38zM270 1176q-2 -44 14.5 -71t39.5 -25q11 0 20 7t15.5 17.5t10 22.5t5.5 21q1 7 1.5 13.5t0.5 14.5q0 23 -9 45t-29 33q-15 8 -27.5 4t-21.5 -15.5t-14 -29.5t-6 -37z" unicode="ü"/>
<glyph horiz-adv-x="434" glyph-name="yacute" d="M404 837q4 16 6 28t1.5 22.5t-3.5 20t-9 20.5q-10 15 -23.5 34t-27 30.5t-25 10t-16.5 -26.5q-29 -94 -60 -189t-63 -189q-16 94 -30.5 175.5t-27.5 144.5q-8 32 -16 47.5t-25 22.5t-34 5.5t-34 -4.5q-16 -4 -19 -13.5t2 -36.5q9 -58 20.5 -127t24.5 -143.5t26 -149.5 t25 -145q-8 -82 -13.5 -152.5t-10.5 -125.5q-2 -34 2.5 -51t18.5 -36q14 -12 31.5 -23t33.5 -20q17 -8 23 -2t10 32q7 71 15 144t19 155q27 75 55 154t52.5 152t43.5 134.5t28 101.5zM355 1264q-2 27 -7 44.5t-16 26.5q-20 17 -33 18t-23 -11q-36 -48 -83.5 -89.5 t-93.5 -76.5q-10 -11 -11 -21.5t1.5 -19.5t6 -14t3.5 -4q35 -34 57 -19q27 16 55.5 37t55 43.5t49.5 45t39 40.5z" unicode="ý"/>
<glyph horiz-adv-x="438" glyph-name="thorn" d="M160 919q-16 19 -37 35t-39 24t-27 2t-14 -35q-7 -49 -15.5 -117.5t-17 -146.5t-16.5 -161t-15 -159.5t-12 -142.5t-7 -110q-2 -35 2.5 -53t19.5 -33q14 -14 30 -23.5t33 -18.5q17 -8 23 -1.5t9 29.5q2 21 4.5 45t5.5 48q38 19 76.5 47t73.5 61t64.5 70.5t49.5 76.5 q24 47 38.5 99.5t3.5 119.5q-11 66 -29.5 111.5t-39.5 83.5q-27 43 -66.5 47.5t-84.5 -12.5q2 10 3.5 19.5t3.5 19.5q4 27 0.5 41.5t-20.5 33.5zM115 325q10 72 19 136t19 123q22 17 43.5 25.5t38.5 9t28 -6t13 -19.5q5 -24 -3 -59t-28.5 -73t-53 -74t-76.5 -62z" unicode="þ"/>
<glyph horiz-adv-x="434" glyph-name="ydieresis" d="M404 837q4 16 6 28t1.5 22.5t-3.5 20t-9 20.5q-10 15 -23.5 34t-27 30.5t-25 10t-16.5 -26.5q-29 -94 -60 -189t-63 -189q-16 94 -30.5 175.5t-27.5 144.5q-8 32 -16 47.5t-25 22.5t-34 5.5t-34 -4.5q-16 -4 -19 -13.5t2 -36.5q9 -58 20.5 -127t24.5 -143.5t26 -149.5 t25 -145q-8 -82 -13.5 -152.5t-10.5 -125.5q-2 -34 2.5 -51t18.5 -36q14 -12 31.5 -23t33.5 -20q17 -8 23 -2t10 32q7 71 15 144t19 155q27 75 55 154t52.5 152t43.5 134.5t28 101.5zM66 1176q-2 -44 14.5 -70t39.5 -24q11 0 20 7t15.5 17.5t10.5 22t5 20.5q3 12 3 27 q0 24 -9.5 46t-29.5 34q-15 8 -27 4t-21 -16t-14.5 -30t-6.5 -38zM241 1176q-2 -44 14.5 -71t39.5 -25q11 0 20 7t15.5 17.5t10 22.5t5.5 21q1 7 1.5 13.5t0.5 14.5q0 23 -9 45t-29 33q-15 8 -27.5 4t-21.5 -15.5t-14 -29.5t-6 -37z" unicode="ÿ"/>
</font>
</defs>
</svg>
